<?xml version="1.0" encoding="UTF-8" standalone="no"?>
<!-- Created with Inkscape (http://www.inkscape.org/) -->

<svg
   xmlns:dc="http://purl.org/dc/elements/1.1/"
   xmlns:cc="http://creativecommons.org/ns#"
   xmlns:rdf="http://www.w3.org/1999/02/22-rdf-syntax-ns#"
   xmlns:svg="http://www.w3.org/2000/svg"
   xmlns="http://www.w3.org/2000/svg"
   xmlns:sodipodi="http://sodipodi.sourceforge.net/DTD/sodipodi-0.dtd"
   xmlns:inkscape="http://www.inkscape.org/namespaces/inkscape"
   width="202"
   height="202"
   viewBox="0 0 53.445832 53.445835"
   version="1.1"
   id="svg13135"
   inkscape:version="0.92.3 (2405546, 2018-03-11)"
   sodipodi:docname="blanqast.svg">
  <defs
     id="defs13129">
    <inkscape:path-effect
       effect="spiro"
       id="path-effect13468"
       is_visible="true" />
    <inkscape:path-effect
       effect="spiro"
       id="path-effect13464"
       is_visible="true" />
    <inkscape:path-effect
       effect="spiro"
       id="path-effect13460"
       is_visible="true" />
    <inkscape:path-effect
       effect="spiro"
       id="path-effect13456"
       is_visible="true" />
    <inkscape:path-effect
       effect="spiro"
       id="path-effect13452"
       is_visible="true" />
    <inkscape:path-effect
       effect="spiro"
       id="path-effect13448"
       is_visible="true" />
    <inkscape:path-effect
       effect="spiro"
       id="path-effect13444"
       is_visible="true" />
    <inkscape:path-effect
       effect="spiro"
       id="path-effect13440"
       is_visible="true" />
    <inkscape:path-effect
       effect="spiro"
       id="path-effect13436"
       is_visible="true" />
    <inkscape:path-effect
       effect="spiro"
       id="path-effect13432"
       is_visible="true" />
    <inkscape:path-effect
       effect="spiro"
       id="path-effect13428"
       is_visible="true" />
    <inkscape:path-effect
       effect="spiro"
       id="path-effect13424"
       is_visible="true" />
    <inkscape:path-effect
       effect="spiro"
       id="path-effect13420"
       is_visible="true" />
    <inkscape:path-effect
       effect="spiro"
       id="path-effect13361"
       is_visible="true" />
    <inkscape:path-effect
       effect="spiro"
       id="path-effect13357"
       is_visible="true" />
    <inkscape:path-effect
       effect="spiro"
       id="path-effect13353"
       is_visible="true" />
    <inkscape:path-effect
       effect="simplify"
       id="path-effect13337"
       is_visible="true"
       steps="1"
       threshold="0.5"
       smooth_angles="360"
       helper_size="0"
       simplify_individual_paths="false"
       simplify_just_coalesce="false"
       simplifyindividualpaths="false"
       simplifyJustCoalesce="false" />
    <inkscape:path-effect
       effect="simplify"
       id="path-effect13321"
       is_visible="true"
       steps="1"
       threshold="0.5"
       smooth_angles="360"
       helper_size="0"
       simplify_individual_paths="false"
       simplify_just_coalesce="false"
       simplifyindividualpaths="false"
       simplifyJustCoalesce="false" />
    <inkscape:path-effect
       effect="simplify"
       id="path-effect13317"
       is_visible="true"
       steps="1"
       threshold="0.5"
       smooth_angles="360"
       helper_size="0"
       simplify_individual_paths="false"
       simplify_just_coalesce="false"
       simplifyindividualpaths="false"
       simplifyJustCoalesce="false" />
    <inkscape:path-effect
       effect="spiro"
       id="path-effect13277"
       is_visible="true" />
    <inkscape:path-effect
       effect="spiro"
       id="path-effect13273"
       is_visible="true" />
    <inkscape:path-effect
       effect="spiro"
       id="path-effect13251"
       is_visible="true" />
    <inkscape:path-effect
       effect="spiro"
       id="path-effect13205"
       is_visible="true" />
    <inkscape:path-effect
       effect="spiro"
       id="path-effect13180"
       is_visible="true" />
    <inkscape:path-effect
       effect="spiro"
       id="path-effect13160"
       is_visible="true" />
    <inkscape:path-effect
       effect="spiro"
       id="path-effect13151"
       is_visible="true" />
    <inkscape:path-effect
       effect="spiro"
       id="path-effect13147"
       is_visible="true" />
    <inkscape:path-effect
       effect="spiro"
       id="path-effect13143"
       is_visible="true" />
    <inkscape:path-effect
       effect="spiro"
       id="path-effect13277-9"
       is_visible="true" />
  </defs>
  <sodipodi:namedview
     id="base"
     pagecolor="#ffffff"
     bordercolor="#666666"
     borderopacity="1.0"
     inkscape:pageopacity="0.0"
     inkscape:pageshadow="2"
     inkscape:zoom="1.979899"
     inkscape:cx="-9.2187629"
     inkscape:cy="35.249892"
     inkscape:document-units="mm"
     inkscape:current-layer="layer1"
     showgrid="false"
     units="px"
     objecttolerance="1"
     gridtolerance="1"
     guidetolerance="1"
     inkscape:window-width="1920"
     inkscape:window-height="1017"
     inkscape:window-x="-8"
     inkscape:window-y="-8"
     inkscape:window-maximized="1" />
  <metadata
     id="metadata13132">
    <rdf:RDF>
      <cc:Work
         rdf:about="">
        <dc:format>image/svg+xml</dc:format>
        <dc:type
           rdf:resource="http://purl.org/dc/dcmitype/StillImage" />
        <dc:title></dc:title>
      </cc:Work>
    </rdf:RDF>
  </metadata>
  <g
     inkscape:label="Layer 1"
     inkscape:groupmode="layer"
     id="layer1"
     transform="translate(0,-243.55415)">
    <g
       id="g13521">
      <g
         transform="translate(2.1733631,-0.37797619)"
         id="g13414">
        <path
           style="fill:none;stroke:#000000;stroke-width:0.26458332px;stroke-linecap:butt;stroke-linejoin:miter;stroke-opacity:1"
           d="m 8.315476,278.66814 c -2.9497319,-4.11524 -4.392309,-9.28647 -3.9987445,-14.33437 0.3935646,-5.04789 2.6201987,-9.93305 6.1721075,-13.54138 3.909167,-3.97127 9.396335,-6.34465 14.967318,-6.47387 5.570982,-0.12922 11.162292,1.9872 15.251383,5.77295 4.089091,3.78574 6.629364,9.19767 6.929088,14.76209 0.299724,5.56441 -1.644517,11.2179 -5.303295,15.42098"
           id="path13178"
           inkscape:connector-curvature="0"
           inkscape:path-effect="#path-effect13180"
           inkscape:original-d="m 8.315476,278.66814 c 0.7247191,-9.29218 1.4491734,-18.5841 2.173363,-27.87575 0.72419,-9.29165 21.229927,19.6545 31.844494,29.48215" />
        <path
           style="fill:none;stroke:#000000;stroke-width:0.26458332px;stroke-linecap:butt;stroke-linejoin:miter;stroke-opacity:1"
           d="m 8.315476,278.66814 c 1.6452563,0.13991 3.219476,0.97949 4.252232,2.26785 0.534757,0.66711 0.922691,1.4369 1.336436,2.18511 0.413744,0.7482 0.866062,1.49166 1.498386,2.06713 0.621939,0.56602 1.387838,0.94265 2.121109,1.35435 0.733271,0.41169 1.46322,0.88371 1.942135,1.57496 0.564694,0.81506 0.717556,1.844 0.755952,2.83482 0.03005,0.77531 -0.0087,1.58547 -0.377976,2.26786 -0.335984,0.62089 -0.9301,1.08448 -1.596229,1.31828 -0.666129,0.23381 -1.398748,0.24709 -2.089039,0.0991 -0.451357,-0.0967 -0.885382,-0.25982 -1.328496,-0.38918 -0.443115,-0.12935 -0.904556,-0.22568 -1.364229,-0.18344 -0.229836,0.0211 -0.457496,0.0773 -0.665557,0.17725 -0.208061,0.0999 -0.39618,0.24429 -0.536771,0.42733 -0.14059,0.18305 -0.232349,0.40532 -0.249566,0.63549 -0.01722,0.23016 0.04218,0.46733 0.175869,0.65547 0.08937,0.12577 0.209874,0.22804 0.344308,0.30376 0.134435,0.0757 0.282621,0.12541 0.434034,0.15508 0.302825,0.0593 0.615039,0.0394 0.922551,0.0136 0.756033,-0.0632 1.509748,-0.15974 2.267857,-0.18899 1.008087,-0.0389 2.016374,0.0413 3.023809,0.0945 0.598467,0.0316 1.197481,0.0536 1.795387,0.0945 1.448639,0.099 2.899624,0.30835 4.346727,0.18899 1.009279,-0.0833 2.020406,-0.32594 3.02381,-0.18899 0.560626,0.0765 1.098911,0.26974 1.655565,0.37118 0.278328,0.0507 0.562454,0.0784 0.844482,0.056 0.282027,-0.0224 0.562609,-0.0961 0.807244,-0.23823 0.109354,-0.0635 0.21156,-0.14086 0.29507,-0.23584 0.08351,-0.095 0.147938,-0.20815 0.177399,-0.33113 0.03017,-0.12594 0.02288,-0.25974 -0.01438,-0.38377 -0.03727,-0.12403 -0.103898,-0.23839 -0.188354,-0.33656 -0.168912,-0.19636 -0.40429,-0.32507 -0.647705,-0.4136 -0.541419,-0.19691 -1.134383,-0.21131 -1.70651,-0.14364 -0.572127,0.0677 -1.131444,0.21431 -1.695278,0.33263 -0.351065,0.0737 -0.707654,0.13671 -1.066172,0.12493 -0.358517,-0.0118 -0.722406,-0.10319 -1.012696,-0.31392 -0.218843,-0.15886 -0.388343,-0.38039 -0.50429,-0.62469 -0.115947,-0.24431 -0.179906,-0.51107 -0.2093,-0.77989 -0.05879,-0.53765 0.01816,-1.07944 0.05213,-1.61922 0.03531,-0.5611 0.02428,-1.12638 0.107522,-1.68239 0.08325,-0.55602 0.270495,-1.11418 0.648431,-1.53041 0.448481,-0.49392 1.110534,-0.73286 1.759314,-0.88836 0.64878,-0.15549 1.320606,-0.2486 1.925952,-0.52905 0.857491,-0.39726 1.501679,-1.1306 2.173365,-1.79539 2.842767,-2.81359 6.618808,-4.66789 10.583333,-5.19717"
           id="path13203"
           inkscape:connector-curvature="0"
           inkscape:path-effect="#path-effect13205"
           inkscape:original-d="m 8.315476,278.66814 c 1.4491731,0.69269 2.835086,1.51164 4.252232,2.26785 1.417146,0.75622 1.890146,2.83456 2.834822,4.25224 0.944675,1.41767 2.709093,1.95261 4.063244,2.92931 1.35415,0.97671 0.504233,1.88962 0.755952,2.83482 0.25172,0.94521 -0.251719,1.51164 -0.377976,2.26786 -0.126257,0.75622 -2.456581,0.94468 -3.685268,1.41741 -1.228687,0.47274 -2.645569,0.88168 -3.96875,1.32292 -1.323181,0.44124 1.134193,0.31471 1.700893,0.47247 0.566699,0.15775 1.512169,-0.12626 2.267857,-0.18899 0.755688,-0.0627 2.016137,0.0627 3.023809,0.0945 1.007672,0.0318 1.19719,0.0627 1.795387,0.0945 0.598198,0.0318 2.898082,0.12572 4.346727,0.18899 1.448645,0.0633 2.016136,-0.12626 3.02381,-0.18899 1.007671,-0.0627 2.205124,0.12572 3.307291,0.18899 1.102165,0.0633 0.315243,-0.37824 0.472469,-0.56697 0.157226,-0.18872 -0.5667,-0.75621 -0.850444,-1.13393 -0.283748,-0.37771 -2.267593,0.12573 -3.401788,0.18899 -1.134192,0.0633 -1.385647,-0.12626 -2.078868,-0.18899 -0.693221,-0.0627 -0.440708,-2.01613 -0.661459,-3.0238 -0.22075,-1.00768 0.504233,-2.14213 0.755953,-3.2128 0.251719,-1.07067 2.45711,-0.94521 3.685266,-1.41741 1.228159,-0.47221 1.449174,-1.19719 2.173365,-1.79539 0.724191,-0.5982 7.055821,-3.46505 10.583333,-5.19717" />
        <path
           style="fill:none;stroke:#000000;stroke-width:0.26458332px;stroke-linecap:butt;stroke-linejoin:miter;stroke-opacity:1"
           d="m 8.315476,278.66814 3.02381,-1.41741 2.551339,1.41741 3.96875,-1.32292 2.834821,1.41741 2.645834,-1.6064 2.456845,1.88988 3.401786,-2.83482 2.929315,2.26786 3.307292,-1.32292 2.173363,0.85045 h 2.834821 l 1.889881,2.26786"
           id="path13211"
           inkscape:connector-curvature="0" />
        <path
           style="fill:none;stroke:#000000;stroke-width:0.26458332px;stroke-linecap:butt;stroke-linejoin:miter;stroke-opacity:1"
           d="m 20.694196,255.4226 -2.362351,0.0945"
           id="path13213"
           inkscape:connector-curvature="0" />
        <path
           style="fill:none;stroke:#000000;stroke-width:0.26458332px;stroke-linecap:butt;stroke-linejoin:miter;stroke-opacity:1"
           d="m 16.252976,253.8162 2.078869,1.7009 -2.173363,1.6064 -1.039434,-1.32292"
           id="path13215"
           inkscape:connector-curvature="0" />
        <path
           style="fill:none;stroke:#000000;stroke-width:0.26458332px;stroke-linecap:butt;stroke-linejoin:miter;stroke-opacity:1"
           d="m 14.646577,258.91888 1.511905,-1.79538"
           id="path13217"
           inkscape:connector-curvature="0" />
        <path
           style="fill:none;stroke:#000000;stroke-width:0.26458332px;stroke-linecap:butt;stroke-linejoin:miter;stroke-opacity:1"
           d="m 16.158482,257.1235 1.889881,1.60639"
           id="path13219"
           inkscape:connector-curvature="0" />
        <path
           style="fill:none;stroke:#000000;stroke-width:0.26458332px;stroke-linecap:butt;stroke-linejoin:miter;stroke-opacity:1"
           d="m 18.048363,258.72989 3.212797,0.18899 -1.039434,1.98438 1.133929,1.5119 -0.944941,1.41741"
           id="path13221"
           inkscape:connector-curvature="0" />
        <path
           style="fill:none;stroke:#000000;stroke-width:0.26458332px;stroke-linecap:butt;stroke-linejoin:miter;stroke-opacity:1"
           d="m 17.670387,262.88763 2.551339,-1.98437"
           id="path13223"
           inkscape:connector-curvature="0" />
        <path
           style="fill:none;stroke:#000000;stroke-width:0.26458332px;stroke-linecap:butt;stroke-linejoin:miter;stroke-opacity:1"
           d="m 20.694196,255.4226 2.929316,1.22842"
           id="path13225"
           inkscape:connector-curvature="0" />
        <path
           style="fill:none;stroke:#000000;stroke-width:0.26458332px;stroke-linecap:butt;stroke-linejoin:miter;stroke-opacity:1"
           d="m 21.26116,258.91888 2.362352,-2.26786"
           id="path13227"
           inkscape:connector-curvature="0" />
        <path
           style="fill:none;stroke:#000000;stroke-width:0.26458332px;stroke-linecap:butt;stroke-linejoin:miter;stroke-opacity:1"
           d="m 16.252976,253.8162 0.566964,-3.1183"
           id="path13229"
           inkscape:connector-curvature="0" />
        <path
           style="fill:none;stroke:#000000;stroke-width:0.26458332px;stroke-linecap:butt;stroke-linejoin:miter;stroke-opacity:1"
           d="m 16.252976,252.2098 -1.795387,0.47247"
           id="path13239"
           inkscape:connector-curvature="0" />
        <path
           style="fill:none;stroke:#000000;stroke-width:0.26458332px;stroke-linecap:butt;stroke-linejoin:miter;stroke-opacity:1"
           d="m 19.560268,255.4226 c 0.445449,0.027 -0.111363,-0.36111 0,-0.47247 0.02227,-0.0223 0.07222,0.0223 0.09449,0 0.02227,-0.0223 -0.02227,-0.0722 0,-0.0945 0.02227,-0.0223 0.07222,0.0223 0.09449,0 0.02227,-0.0223 -0.02227,-0.0722 0,-0.0945 0.02227,-0.0223 0.07222,0.0223 0.09449,0 0.04725,-0.0472 -0.04725,-0.23623 0,-0.28348 0.02227,-0.0223 0.07222,0.0223 0.09449,0 0.0094,-0.009 0.0094,-0.27403 0,-0.28348 -0.02227,-0.0223 -0.07222,0.0223 -0.09449,0 -0.003,-0.003 0,-0.26057 0,-0.28348 0,-0.0315 0,-0.063 0,-0.0945 0,-0.0315 -0.0315,-0.0945 0,-0.0945 0.0315,0 0,0.063 0,0.0945"
           id="path13241"
           inkscape:connector-curvature="0" />
        <path
           style="fill:none;stroke:#000000;stroke-width:0.26458332px;stroke-linecap:butt;stroke-linejoin:miter;stroke-opacity:1"
           d="m 17.859375,258.72989 c 0.346967,-0.20739 -0.413352,0.3426 -0.283482,0.47247 0.02227,0.0223 0.07222,-0.0223 0.09449,0 0.003,0.003 0,0.26057 0,0.28349 0,0.0315 0.02227,0.0722 0,0.0945 -0.04725,0.0473 -0.236235,-0.0472 -0.283482,0 -0.02227,0.0223 0.02227,0.0722 0,0.0945 -0.04454,0.0446 -0.144444,-0.0445 -0.188989,0 -0.03142,0.0314 0.03142,0.15757 0,0.18899 -0.02227,0.0223 -0.07222,-0.0223 -0.09449,0 -0.02227,0.0223 0.02227,0.0722 0,0.0945 -0.02227,0.0223 -0.06632,-0.0141 -0.09449,0 -0.03984,0.0199 -0.05465,0.0746 -0.09449,0.0945 -0.02817,0.0141 -0.063,0 -0.09449,0 -0.0315,0 -0.07222,0.0223 -0.09449,0 -0.02227,-0.0223 0.02227,-0.0722 0,-0.0945 -0.02227,-0.0223 -0.063,0 -0.09449,0"
           id="path13243"
           inkscape:connector-curvature="0" />
        <path
           style="fill:none;stroke:#000000;stroke-width:0.26458332px;stroke-linecap:butt;stroke-linejoin:miter;stroke-opacity:1"
           d="m 18.709821,255.89507 c 0.296304,-0.20689 0.667164,-0.30447 1.026922,-0.27021 0.359758,0.0343 0.70553,0.2001 0.957453,0.4592 0.286111,0.29427 0.446721,0.70676 0.434923,1.11702 -0.0118,0.41026 -0.195847,0.81285 -0.498397,1.09018 -0.302549,0.27734 -0.719589,0.42575 -1.129324,0.4019 -0.409735,-0.0238 -0.806736,-0.21966 -1.075059,-0.53023 -0.280664,-0.32486 -0.415783,-0.77097 -0.362534,-1.19696 0.05325,-0.426 0.294023,-0.82513 0.646016,-1.0709 z"
           id="path13249"
           inkscape:connector-curvature="0"
           inkscape:path-effect="#path-effect13251"
           inkscape:original-d="m 18.709821,255.89507 c 0.09423,-0.75568 1.323181,0.12573 1.984375,0.18899 0.661194,0.0633 -1.51164,1.38565 -2.267857,2.07887 -0.756217,0.69322 0.189253,-1.51217 0.283482,-2.26786 z" />
        <path
           style="opacity:1;fill:#fff6d5;fill-opacity:1;fill-rule:evenodd;stroke:#fff6d5;stroke-width:0.35714287"
           d="M 97.373993,3.4097022 C 68.212621,3.5395854 39.540602,20.514986 26.253235,46.617704 15.881531,65.851168 13.616386,89.314501 20.606111,110.06649 c 2.624244,7.72205 6.074221,15.32709 11.017324,21.83582 3.830135,-1.33627 7.511222,-3.42057 11.269531,-5.05302 3.236129,1.78417 6.446487,3.65008 9.697963,5.38505 4.965125,-1.65689 9.93025,-3.3138 14.895367,-4.9707 3.5723,1.75443 7.118386,3.63198 10.706615,5.3111 3.403325,-1.9227 6.640507,-4.40767 10.24135,-5.8531 3.151818,2.03018 5.968632,4.84211 9.192939,6.59389 4.35102,-3.29848 8.37616,-7.0169 12.74275,-10.29227 3.84983,2.66843 7.44672,5.72584 11.22349,8.46192 4.12423,-1.65603 8.24858,-3.31177 12.37305,-4.96722 3.16671,0.96332 6.13394,2.97316 9.42661,3.27637 3.24568,0 6.49136,0 9.73703,0 2.29281,2.68027 4.4426,5.65349 6.82338,8.1536 5.80677,-6.52352 10.18246,-14.26113 13.62691,-22.257 6.97785,-17.325958 8.18781,-37.059347 2.33155,-54.883537 C 169.87395,41.589072 156.81266,24.48038 139.1773,14.538677 126.56291,7.1754572 111.9929,3.229966 97.373993,3.4097022 Z M 63.612136,26.939278 c 0.708118,0.815648 -0.27849,2.436851 -0.20405,3.4496 -0.349286,2.641236 -1.227072,5.309941 -1.204293,7.961533 2.056375,2.488118 4.709186,4.563918 7.470703,6.222097 1.19639,0.251278 3.269604,0.600978 3.973911,-0.640343 -0.473893,-1.189793 1.211093,-2.005186 0.930525,-3.296597 0.156589,-0.6198 -0.213482,-2.338031 0.504325,-2.434431 0.939479,1.829778 0.415882,3.836563 -0.299946,5.613838 0.464864,1.136654 2.420693,0.297629 3.348214,0.801479 3.847507,1.224575 7.807104,2.683846 11.177457,4.876536 -1.264057,2.509168 -3.968514,4.101939 -5.831461,6.187889 -2.878485,2.524521 -4.890503,5.981546 -6.06656,9.580107 0.365393,2.402343 2.7325,3.958597 3.879046,6.001675 -1.356464,1.713757 -2.303364,4.119779 -3.960657,5.460379 -0.512925,-1.035954 0.944286,-2.262522 1.370143,-3.208139 1.739314,-1.446186 1.358053,-2.922093 -0.126422,-4.310697 -0.947032,-0.711314 -1.680657,-3.526364 -2.936864,-2.461268 -2.835953,2.018761 -5.412089,4.663493 -8.490311,6.220336 -0.545032,-0.375736 0.921715,-1.174282 1.169783,-1.553429 3.47051,-3.082582 8.039857,-5.37455 9.723771,-9.994421 0.261343,-0.893582 1.315961,-1.959707 1.118164,-2.822264 -3.756889,-0.217593 -7.58606,-0.954 -11.331614,-0.49735 -1.436764,0.516442 0.0908,2.930596 -1.587611,3.101982 -0.956393,0.484182 -2.282182,2.314746 -3.404018,1.312778 -0.143103,-1.271093 1.45619,-0.317903 1.665736,-1.443918 0.417293,-0.765525 2.0289,-0.757796 1.529718,-1.913364 0.115807,-1.014875 1.495064,-2.207325 0.100446,-2.989678 -1.673325,-1.345265 -3.304764,-3.116847 -5.207867,-3.985768 -1.752879,1.930907 -3.291183,4.194714 -5.163229,5.94796 -1.143725,-0.741189 0.986886,-2.00416 1.268614,-2.71595 1.110697,-1.402496 2.432947,-2.72721 3.4154,-4.179975 -0.922521,-1.642946 -2.991882,-3.024721 -3.199635,-4.936525 1.029328,-0.01148 1.517382,1.694193 2.262142,2.304854 0.684786,0.542393 1.326208,2.69225 2.375133,1.453518 2.1047,-1.591718 4.542403,-3.034761 6.365096,-4.842354 -2.238929,-2.362125 -5.081611,-4.087718 -7.257257,-6.524135 0.909257,-3.87829 1.051828,-8.064568 2.536275,-11.748745 z m -2.33329,5.401088 c 0.5236,1.423804 -2.25026,1.210029 -3.042378,1.70308 -1.096672,-0.02406 -2.930954,1.47522 -3.566857,0.455123 0.370307,-1.095255 2.291668,-0.782497 3.181996,-1.307642 1.144557,-0.240699 2.259322,-0.751315 3.427239,-0.850561 z"
           id="path13253"
           inkscape:connector-curvature="0"
           transform="matrix(0.26458333,0,0,0.26458333,0,243.55415)" />
        <path
           style="opacity:1;fill:#4d4d4d;fill-opacity:1;fill-rule:evenodd;stroke:#333333;stroke-width:0.35714287"
           d="m 74.094835,46.098039 c -3.974008,-0.08956 -6.922592,4.851941 -4.492187,8.177316 1.827064,2.976271 6.661016,3.347727 8.612583,0.295062 2.787497,-3.093155 0.01543,-8.709308 -4.120396,-8.472378 z"
           id="path13255"
           inkscape:connector-curvature="0"
           transform="matrix(0.26458333,0,0,0.26458333,0,243.55415)" />
        <path
           sodipodi:type="star"
           style="opacity:1;fill:#cccccc;fill-opacity:1;fill-rule:evenodd;stroke:#ffffff;stroke-width:0.26458332"
           id="path13259"
           sodipodi:sides="4"
           sodipodi:cx="20.095327"
           sodipodi:cy="256.18292"
           sodipodi:r1="0.21293946"
           sodipodi:r2="0.15057094"
           sodipodi:arg1="0.84089667"
           sodipodi:arg2="1.6262948"
           inkscape:flatsided="true"
           inkscape:rounded="3"
           inkscape:randomized="0"
           d="m 20.237314,256.34161 c -0.67327,0.6024 0.301722,0.65657 -0.300678,-0.0167 -0.602399,-0.67327 -0.656566,0.30172 0.0167,-0.30068 0.673271,-0.6024 -0.301721,-0.65656 0.300679,0.0167 0.602399,0.67327 0.656565,-0.30173 -0.0167,0.30067 z"
           transform="matrix(-0.84046801,0,0,-0.81390335,37.022392,465.01262)" />
        <path
           style="opacity:1;fill:#ffccaa;fill-opacity:1;fill-rule:evenodd;stroke:#ffccaa;stroke-width:0.25253814"
           d="m 110.31471,124.0399 c -4.24955,3.46711 -8.43027,7.13077 -12.713718,10.49119 -3.342468,-2.00222 -6.242755,-4.80112 -9.464755,-6.96206 -3.3063,2.00673 -6.612641,4.01339 -9.919027,6.01997 -3.597878,-1.77577 -7.175719,-3.6253 -10.786141,-5.35509 -4.996846,1.65412 -9.993682,3.30828 -14.990506,4.96247 -3.242482,-1.64477 -6.25849,-3.82476 -9.663036,-5.10995 -1.785306,0.27762 -3.337695,1.55098 -5.043082,2.14586 -1.382426,0.77381 -3.250679,1.26978 -4.333876,2.21634 5.991155,1.21952 11.525892,4.57912 15.126146,9.55798 4.190765,5.7331 6.406087,13.28352 12.813672,17.11982 4.761965,3.01262 10.51514,5.25932 13.365457,10.44383 2.034531,3.97783 2.340175,8.67086 2.082452,13.07773 -0.256581,4.20023 -2.627424,8.34546 -6.635538,9.97723 -3.340233,1.62354 -7.237859,1.24088 -10.756089,0.46781 -3.570077,-0.95427 -7.659556,-2.7654 -11.238896,-0.90334 -1.704506,0.91383 -2.491442,2.87865 -2.096264,4.74446 0.554267,2.00789 3.037848,2.66111 4.897859,2.48592 8.214593,-0.73903 16.482414,-0.79788 24.711639,-0.20078 8.140355,0.43371 16.334495,1.71984 24.462273,0.3961 4.07981,-0.61512 8.21072,-0.21223 12.1589,0.9267 2.84088,0.58117 6.68984,1.0227 8.50483,-1.79677 1.04167,-1.85791 -1.10418,-3.54707 -2.66792,-4.10966 -4.7694,-1.55263 -9.74822,0.18657 -14.49587,0.91207 -3.32693,0.87577 -7.386395,-0.60136 -8.581156,-4.02693 -1.381871,-3.87326 -0.41639,-8.07436 -0.340957,-12.07147 0.235987,-3.74674 0.880669,-8.05539 4.226562,-10.34173 4.740081,-3.31255 11.336181,-2.3123 15.708181,-6.35035 5.32693,-4.65626 10.19176,-9.90729 16.28327,-13.612 8.37888,-5.49394 17.95698,-8.95676 27.79547,-10.66628 0.56278,-0.40216 -0.67519,-1.03823 -0.77093,-1.47232 -1.7428,-2.12666 -3.46515,-4.29636 -5.26581,-6.35883 -3.63132,-0.0728 -7.3104,0.1053 -10.91277,-0.11975 -2.6415,-0.94847 -5.21988,-2.22027 -7.92549,-2.92205 -4.24043,1.43514 -8.33097,3.40828 -12.58351,4.72621 -3.71735,-2.66151 -7.25507,-5.67324 -10.95137,-8.29233 z"
           id="path13261"
           inkscape:connector-curvature="0"
           transform="matrix(0.26458333,0,0,0.26458333,0,243.55415)" />
        <path
           style="opacity:1;fill:#ffffff;fill-opacity:1;fill-rule:evenodd;stroke:#ffffff;stroke-width:0.17857143"
           d="m 76.336363,45.494984 c 1.975548,1.084381 3.748179,2.938144 3.871722,5.293666 0.293491,2.678301 -1.309857,5.361008 -3.785326,6.423024 -0.06805,0.565566 1.598771,0.170905 2.226105,0.344111 0.751273,0.126005 1.526781,0.137614 2.04634,-0.52444 2.626819,-2.31951 5.153064,-4.763283 7.597772,-7.270527 -0.508795,-0.595217 -1.565643,-0.72605 -2.25865,-1.147461 -2.798535,-1.107561 -5.502632,-2.544819 -8.431571,-3.273577 -0.342713,0.05192 -1.192655,-0.234054 -1.266392,0.155204 z"
           id="path13267"
           inkscape:connector-curvature="0"
           transform="matrix(0.26458333,0,0,0.26458333,0,243.55415)" />
        <path
           style="opacity:1;fill:#ffffff;fill-opacity:1;fill-rule:evenodd;stroke:#ffffff;stroke-width:0.17857143"
           d="m 70.82576,45.58392 c -2.0972,0.02602 -3.530904,1.861522 -5.207519,2.86098 -1.231747,0.944375 -2.555826,1.801119 -3.694197,2.850516 1.626355,1.692166 3.581939,3.16529 5.388122,4.70679 0.932883,0.957652 2.346591,1.149491 3.60009,1.046209 -0.03827,-0.524798 -0.924658,-0.711036 -1.200823,-1.179548 -1.377224,-1.426749 -2.125873,-3.403539 -1.810477,-5.391322 0.216617,-2.040522 1.812081,-3.597877 3.319266,-4.774693 -0.03117,-0.177618 -0.278115,-0.108621 -0.394462,-0.118932 z"
           id="path13269"
           inkscape:connector-curvature="0"
           transform="matrix(0.26458333,0,0,0.26458333,0,243.55415)" />
        <path
           style="fill:none;stroke:#000000;stroke-width:0.26458332px;stroke-linecap:butt;stroke-linejoin:miter;stroke-opacity:1"
           d="m 19.042954,294.12684 c 1.153897,0.44473 2.374486,0.71597 3.608138,0.8018 0.958585,0.0667 1.92489,0.0218 2.873146,-0.13363"
           id="path13271"
           inkscape:connector-curvature="0"
           inkscape:path-effect="#path-effect13273"
           inkscape:original-d="m 19.042954,294.12684 c 2.22751,0.267 1.381156,0.53427 3.608138,0.8018 2.226981,0.26754 2.182965,-0.0225 2.873146,-0.13363"
           sodipodi:nodetypes="ccc" />
        <path
           style="fill:none;stroke:#000000;stroke-width:0.26458332px;stroke-linecap:butt;stroke-linejoin:miter;stroke-opacity:1"
           d="m 22.800158,279.44268 c -1.134843,0.58107 -2.02259,1.62728 -2.411171,2.84157 -0.388582,1.2143 -0.273152,2.58153 0.313513,3.71349 0.274211,0.52909 0.645849,1.00592 1.080906,1.41316 0.10215,0.0956 0.209256,0.18849 0.334009,0.25185 0.124754,0.0634 0.270058,0.0954 0.406267,0.0633 0.09346,-0.022 0.179074,-0.0735 0.245678,-0.14264 0.0666,-0.0691 0.114464,-0.15542 0.142429,-0.24726 0.05593,-0.18369 0.03203,-0.3844 -0.03205,-0.5654 -0.128167,-0.362 -0.406075,-0.6536 -0.550804,-1.0093 -0.171832,-0.42231 -0.14074,-0.90734 0.0076,-1.33844 0.148388,-0.43111 0.406119,-0.81594 0.683757,-1.17759 0.280955,-0.36597 0.5865,-0.7159 0.818571,-1.11467 0.232071,-0.39876 0.388863,-0.85938 0.337877,-1.31793 -0.03866,-0.34769 -0.199172,-0.68063 -0.447119,-0.92742 -0.247947,-0.2468 -0.58163,-0.40575 -0.929499,-0.44279 z"
           id="path13275"
           inkscape:connector-curvature="0"
           inkscape:path-effect="#path-effect13277"
           inkscape:original-d="m 22.800158,279.44268 c -0.459207,-0.45657 -1.398105,4.36987 -2.097658,6.55506 -0.699553,2.18519 0.720938,0.94194 1.080906,1.41316 0.359969,0.47122 0.493841,0.20999 0.740276,0.3152 0.246434,0.1052 -0.129498,-1.3099 -0.19475,-1.9646 -0.06525,-0.6547 0.461277,-1.67752 0.691405,-2.51603 0.230133,-0.83851 0.7713,-1.6219 1.156448,-2.4326 0.385151,-0.8107 -0.917411,-0.91364 -1.376618,-1.37021 z" />
        <path
           style="fill:#c83737;stroke:#000000;stroke-width:0.26458332px;stroke-linecap:butt;stroke-linejoin:miter;stroke-opacity:1"
           d="m 23.480794,279.52447 c 1.205017,0.41646 2.230494,1.32809 2.785253,2.47602 0.55476,1.14793 0.631885,2.51786 0.209478,3.72081 -0.197436,0.56226 -0.498654,1.08643 -0.872413,1.55057 -0.08776,0.10898 -0.180807,0.21593 -0.295461,0.29613 -0.114655,0.0802 -0.254046,0.13223 -0.393395,0.1196 -0.09561,-0.009 -0.187598,-0.0477 -0.263226,-0.10684 -0.07563,-0.0591 -0.135096,-0.13787 -0.175643,-0.22489 -0.0811,-0.17404 -0.08553,-0.37612 -0.04742,-0.56431 0.07622,-0.37638 0.310567,-0.70401 0.40407,-1.07647 0.111014,-0.44221 0.01232,-0.9181 -0.194961,-1.32419 -0.207284,-0.40609 -0.516353,-0.75104 -0.841889,-1.07026 -0.329425,-0.32303 -0.680952,-0.62674 -0.966565,-0.98909 -0.285614,-0.36234 -0.505349,-0.79647 -0.519065,-1.25764 -0.0104,-0.34968 0.101919,-0.70181 0.312872,-0.98089 0.210953,-0.27908 0.519095,-0.48318 0.858353,-0.56856 z"
           id="path13275-1"
           inkscape:connector-curvature="0"
           inkscape:path-effect="#path-effect13277-9"
           inkscape:original-d="m 23.480794,279.52447 c 0.390763,-0.51636 1.996133,4.1311 2.994731,6.19683 0.998598,2.06572 -0.581963,1.03359 -0.872413,1.55057 -0.290451,0.51697 -0.459578,0.27706 -0.688856,0.41573 -0.229278,0.13867 -0.05517,-1.31513 -0.08222,-1.97251 -0.02705,-0.65738 -0.691594,-1.59642 -1.03685,-2.39445 -0.34526,-0.79803 -0.990775,-1.49794 -1.48563,-2.24673 -0.49486,-0.7488 0.780462,-1.03309 1.171225,-1.54945 z" />
        <path
           style="opacity:1;fill:#c83737;fill-opacity:1;fill-rule:evenodd;stroke:#c83737;stroke-width:0.04464286"
           d="m 86.213897,136.0676 c -3.190937,1.71784 -5.875808,4.3763 -7.559827,7.59059 -1.3658,2.59044 -2.095451,5.52769 -2.009251,8.46017 -0.03668,2.38477 0.503228,4.75972 1.424729,6.9518 1.135924,2.65258 2.921203,5.01955 5.121017,6.88191 0.504272,0.42378 1.16373,0.71557 1.832885,0.58593 0.816215,-0.18211 1.290659,-1.06554 1.275725,-1.85747 0.0053,-1.33756 -0.851532,-2.44995 -1.501206,-3.54841 -0.625273,-0.9995 -1.155534,-2.11851 -1.210676,-3.30784 -0.169576,-1.80513 0.346373,-3.61261 1.196419,-5.18732 0.748611,-1.42222 1.758637,-2.67473 2.728141,-3.95157 0.0099,-0.22679 -0.265342,-0.35917 -0.377981,-0.54042 -0.984832,-1.04405 -1.904091,-2.15786 -2.494033,-3.47563 -0.485324,-1.02434 -0.771543,-2.15413 -0.705866,-3.29073 0.02138,-1.61638 0.77963,-3.17098 1.937611,-4.2904 0.294124,-0.31375 0.692225,-0.52238 0.983357,-0.826 -0.08309,-0.18666 -0.458126,-0.16623 -0.641044,-0.19461 z"
           id="path13299"
           inkscape:connector-curvature="0"
           transform="matrix(0.26458333,0,0,0.26458333,0,243.55415)" />
        <path
           style="fill:none;stroke:#000000;stroke-width:0.26458332px;stroke-linecap:butt;stroke-linejoin:miter;stroke-opacity:1"
           d="m 33.214656,245.64247 c -0.979033,4.593 5.075015,5.78783 8.315479,5.29162"
           id="path13315"
           inkscape:connector-curvature="0"
           inkscape:path-effect="#path-effect13317"
           inkscape:original-d="m 33.214656,245.64247 c -0.783455,1.849 0.805185,3.07304 1.748142,4.016 0.09,0.09 0.24261,0.26304 0.377976,0.33072 0.239143,0.11958 0.598582,0.26786 0.755951,0.42523 0.131766,0.13176 0.460203,0.0822 0.566965,0.18899 0.05297,0.053 0.303369,0.01 0.377976,0.0472 0.55802,0.27901 1.410359,0.091 1.795386,0.28348 0.113395,0.0567 0.311833,-0.0567 0.425225,0 0.498517,0.24926 1.886913,0.38095 2.267858,0" />
        <path
           style="fill:none;stroke:#000000;stroke-width:0.26835349px;stroke-linecap:butt;stroke-linejoin:miter;stroke-opacity:1"
           d="m 32.035025,278.33803 c 0.252481,-7.73561 8.89893,-15.14994 15.021651,-7.43925"
           id="path13319"
           inkscape:connector-curvature="0"
           inkscape:path-effect="#path-effect13321"
           inkscape:original-d="m 32.035025,278.33803 c 0,-0.34859 -0.11866,-1.61846 0.09507,-1.83565 0.571311,-0.58057 0.905951,-1.26156 1.331032,-2.1255 1.647393,-3.34815 0.909383,-4.85578 4.563541,-6.37649 1.335261,-0.19009 3.444238,-0.4238 4.658616,0.19323 0.411188,0.20892 1.22254,-0.20687 1.521179,0.0966 0.986869,1.00285 2.208106,1.29948 2.852213,2.60856" />
        <path
           style="fill:none;stroke:#000000;stroke-width:0.25877994px;stroke-linecap:butt;stroke-linejoin:miter;stroke-opacity:1"
           d="m 20.958348,255.60322 c 6.625459,-13.48375 10.218341,14.59343 0.663917,3.02342"
           id="path13335"
           inkscape:connector-curvature="0"
           inkscape:path-effect="#path-effect13337"
           inkscape:original-d="m 20.958348,255.60322 c 0.321807,-1.17503 0.433369,-2.34974 1.128663,-3.02342 0.549641,-0.53256 3.1997,0.0768 3.58516,0.4503 0.375342,0.36368 0.812171,0.65827 1.195054,1.02925 0.342956,0.33229 0.424784,1.37649 0.663918,1.6082 0.101124,0.098 -0.0013,0.38332 0.06639,0.51462 0.271533,0.52619 0.157277,1.52015 -0.132783,1.80119 -0.03251,0.0315 -0.273042,1.93708 -0.464742,2.12282 -0.113422,0.1099 -0.330364,0.38442 -0.464744,0.51463 -0.364517,0.35318 -1.005704,0.52414 -1.327837,0.83626 -0.192705,0.18672 -0.889699,-0.21876 -0.929487,-0.25731 -0.357245,-0.34614 -1.03364,-0.42256 -1.39423,-0.77194 -0.40382,-0.39126 -1.261445,-1.11099 -1.261445,-1.80118" />
        <path
           style="fill:none;stroke:#000000;stroke-width:0.26458332px;stroke-linecap:butt;stroke-linejoin:miter;stroke-opacity:1"
           d="m 9.9218749,265.06099 c -0.5608713,0.60226 -1.1347949,1.19594 -1.6233014,1.85825 -0.4885066,0.66231 -0.8925318,1.40134 -1.0697788,2.205 -0.282083,1.27901 0.047305,2.66339 0.8103917,3.72787 0.7630864,1.06448 1.9358004,1.80979 3.2056056,2.13076 0.59311,0.14992 1.214681,0.21141 1.819111,0.11696 0.604429,-0.0945 1.191605,-0.35165 1.629921,-0.77842 0.476252,-0.46371 0.755523,-1.10815 0.839383,-1.76755 0.08386,-0.65941 -0.01839,-1.33323 -0.225171,-1.96496 -0.238014,-0.72717 -0.610412,-1.40154 -0.927178,-2.09802 -0.316766,-0.69647 -0.582387,-1.43634 -0.584727,-2.20146 -0.0011,-0.37053 0.05967,-0.73883 0.06591,-1.10931 0.0062,-0.37048 -0.04794,-0.75672 -0.254899,-1.06406 -0.205217,-0.30475 -0.548344,-0.50353 -0.909917,-0.56873 -0.361572,-0.0652 -0.739006,-0.004 -1.079096,0.1349 -0.680179,0.27802 -1.195473,0.84103 -1.6962551,1.37877 z"
           id="path13351"
           inkscape:connector-curvature="0"
           inkscape:path-effect="#path-effect13353"
           inkscape:original-d="m 9.9218749,265.06099 c -1.2286872,0.31525 -1.7951222,2.70857 -2.6930802,4.06325 -0.8979583,1.35468 2.6775957,3.90549 4.0159973,5.85863 1.338401,1.95314 2.299619,-0.44124 3.449032,-0.66146 1.149413,-0.22022 0.409739,-2.48861 0.614212,-3.73251 0.204472,-1.24391 -1.007672,-2.86659 -1.511905,-4.29948 -0.504233,-1.4329 -0.125728,-1.44918 -0.188988,-2.17337 -0.06326,-0.72419 -2.456581,0.6297 -3.6852681,0.94494 z" />
        <path
           style="fill:none;stroke:#000000;stroke-width:0.26458332px;stroke-linecap:butt;stroke-linejoin:miter;stroke-opacity:1"
           d="m 33.923364,258.35192 c -0.166964,0.93844 -0.19265,1.94127 0.20459,2.80772 0.19862,0.43323 0.503212,0.8226 0.897701,1.09002 0.39449,0.26742 0.880896,0.40726 1.354553,0.35449 0.434563,-0.0484 0.844977,-0.25691 1.161051,-0.55904 0.316074,-0.30214 0.539887,-0.69433 0.667876,-1.11243 0.255976,-0.8362 0.131746,-1.74573 -0.128035,-2.58076 -0.193341,-0.62146 -0.472015,-1.23701 -0.945997,-1.68304 -0.236991,-0.22301 -0.520989,-0.39939 -0.83291,-0.49215 -0.311922,-0.0928 -0.652128,-0.0994 -0.961419,0.002 -0.432397,0.14146 -0.778507,0.48392 -1.001889,0.88025 -0.223383,0.39634 -0.335829,0.84521 -0.415521,1.29312 z"
           id="path13355"
           inkscape:connector-curvature="0"
           inkscape:path-effect="#path-effect13357"
           inkscape:original-d="m 33.923364,258.35192 c -0.472737,0.72472 1.63816,2.83455 2.456844,4.25223 0.818684,1.41768 1.134192,-2.83509 1.700892,-4.25223 0.566701,-1.41715 -1.826619,-1.44918 -2.740326,-2.17337 -0.913707,-0.72419 -0.944677,1.44865 -1.41741,2.17337 z" />
        <path
           style="fill:#806600;stroke:#502d16;stroke-width:0.26458332px;stroke-linecap:butt;stroke-linejoin:miter;stroke-opacity:1"
           d="m 23.8125,270.91963 c -0.319317,0.088 -0.612165,0.26979 -0.832613,0.51698 -0.220449,0.24719 -0.367715,0.55886 -0.418701,0.88612 -0.05099,0.32726 -0.0055,0.66896 0.129293,0.9715 0.134803,0.30253 0.358456,0.56483 0.635882,0.74576 0.277425,0.18093 0.607637,0.27985 0.938844,0.28123 0.331208,0.001 0.662234,-0.0948 0.941161,-0.27337 0.278928,-0.17861 0.504765,-0.43903 0.642092,-0.74043 0.137326,-0.3014 0.185655,-0.6427 0.137405,-0.97038 -0.04575,-0.31073 -0.177993,-0.60827 -0.377976,-0.85045 -0.21124,-0.25581 -0.497563,-0.44886 -0.813921,-0.54876 -0.316359,-0.0999 -0.661621,-0.1063 -0.981466,-0.0182 z"
           id="path13359"
           inkscape:connector-curvature="0"
           inkscape:path-effect="#path-effect13361"
           inkscape:original-d="m 23.8125,270.91963 c -0.598727,-0.18873 1.449173,0.94467 2.173363,1.41741 0.724189,0.47273 -0.25172,-0.56723 -0.377976,-0.85045 -0.126257,-0.28322 -1.19666,-0.37824 -1.795387,-0.56696 z" />
        <path
           style="opacity:1;fill:#806600;fill-opacity:1;fill-rule:evenodd;stroke:#806600;stroke-width:0.17857143"
           d="m 92.520954,31.787792 c -3.250929,0.198684 -5.574346,2.863113 -7.549526,5.164621 -2.069971,2.549402 -3.688529,5.422773 -5.176478,8.339495 1.523109,0.78712 3.363843,1.280763 4.952567,2.103097 1.338236,0.708176 2.889837,1.191318 4.039132,2.170759 -0.299951,1.25628 -1.617744,2.03016 -2.420791,2.9936 -1.381959,1.411384 -2.982549,2.705532 -4.239714,4.172973 2.024412,2.669111 4.543775,4.934428 7.006138,7.192384 2.20828,1.645428 4.706815,3.553884 7.611956,3.421805 2.536678,-0.02488 4.340122,-2.203269 5.141602,-4.412668 2.0471,-5.5726 1.68814,-11.739109 0.5242,-17.466169 -1.04889,-4.372917 -2.482393,-9.034898 -5.93052,-12.137974 -1.09822,-0.932818 -2.49139,-1.596589 -3.958566,-1.541923 z"
           id="path13365"
           inkscape:connector-curvature="0"
           transform="matrix(0.26458333,0,0,0.26458333,0,243.55415)" />
        <path
           style="opacity:1;fill:#806600;fill-opacity:1;fill-rule:evenodd;stroke:#806600;stroke-width:0.17857143"
           d="m 126.03065,8.1905543 c -0.42653,0.9446407 -0.38307,2.1645707 -0.44661,3.2254197 -0.10403,4.131851 2.01847,8.102065 5.31582,10.540624 4.90793,3.73168 11.13949,5.300983 17.19884,5.751466 2.68712,0.07782 5.39136,0.188967 8.06727,-0.132047 -0.39215,-0.885305 -1.47511,-1.631132 -2.19071,-2.423854 -7.91246,-7.356347 -17.34352,-13.072882 -27.45805,-16.8487106 -0.1582,-0.046021 -0.31905,-0.116969 -0.48656,-0.1128981 z"
           id="path13369"
           inkscape:connector-curvature="0"
           transform="matrix(0.26458333,0,0,0.26458333,0,243.55415)" />
        <path
           style="opacity:1;fill:#806600;fill-opacity:1;fill-rule:evenodd;stroke:#502d16;stroke-width:0.17857143"
           d="m 155.14547,91.558649 c -8.06812,0.09758 -15.47215,4.54856 -20.92861,10.235201 -7.62896,7.99487 -12.25563,18.79808 -12.73594,29.84292 1.33816,-0.19673 2.75561,-1.05203 4.12326,-1.50242 2.81514,-1.12669 5.62986,-2.2544 8.44475,-3.38178 3.43749,1.22109 6.70898,3.35555 10.47279,3.32114 2.87126,0.0966 5.74493,0.0496 8.61726,0.0707 2.25355,2.65944 4.25374,5.57771 6.75118,8.00921 1.04516,-0.6695 1.71567,-1.91522 2.56557,-2.83265 5.19598,-6.55244 9.10875,-14.05165 12.2026,-21.79585 1.21137,-3.20844 2.2068,-6.52517 2.95819,-9.85497 -4.1545,-5.084622 -9.43507,-9.600787 -15.88726,-11.350932 -2.13545,-0.600132 -4.37387,-0.762981 -6.58379,-0.760539 z"
           id="path13371"
           inkscape:connector-curvature="0"
           transform="matrix(0.26458333,0,0,0.26458333,0,243.55415)" />
        <path
           style="opacity:1;fill:#806600;fill-opacity:1;fill-rule:evenodd;stroke:#806600;stroke-width:0.17857143"
           d="m 46.552414,75.962248 c -3.550315,0.02615 -6.070675,2.950774 -8.389021,5.255999 -3.783496,4.152619 -8.055098,8.261869 -9.892376,13.714731 -2.241987,6.553162 0.09437,14.269762 5.383646,18.683982 2.900377,2.7114 6.708687,4.36735 10.583995,5.08455 3.372088,0.38253 7.110233,0.29693 9.914899,-1.87466 3.684532,-2.63533 4.797416,-7.632 3.945661,-11.88999 -1.128405,-5.735361 -4.92515,-10.54 -6.050502,-16.255932 -0.51512,-3.060747 -0.05824,-6.235706 -0.285898,-9.294976 -0.623532,-1.789533 -2.162745,-3.317689 -4.136186,-3.390571 -0.356757,-0.03693 -0.715898,-0.04348 -1.074218,-0.03313 z"
           id="path13373"
           inkscape:connector-curvature="0"
           transform="matrix(0.26458333,0,0,0.26458333,0,243.55415)" />
        <path
           style="opacity:1;fill:#806600;fill-opacity:1;fill-rule:evenodd;stroke:#502d16;stroke-width:0.17857143"
           d="m 135.17372,47.912583 c -3.21293,0.09775 -5.41376,3.082745 -6.04391,5.989048 -0.84812,3.617323 -1.36303,7.530018 -0.24899,11.146136 1.07391,3.577127 4.45665,6.899663 8.41029,6.464843 4.01352,-0.24995 6.75714,-4.222775 7.09054,-7.971191 0.31212,-4.319978 -0.79563,-8.813152 -3.25215,-12.397376 -1.37491,-1.86526 -3.56427,-3.330746 -5.95578,-3.23146 z"
           id="path13375"
           inkscape:connector-curvature="0"
           transform="matrix(0.26458333,0,0,0.26458333,0,243.55415)" />
      </g>
      <path
         inkscape:original-d="m 20.363467,255.04463 c -0.613947,-0.52786 -1.19666,-1.0712 -1.795387,-1.6064"
         inkscape:path-effect="#path-effect13420"
         inkscape:connector-curvature="0"
         id="path13418"
         d="m 20.363467,255.04463 -1.795387,-1.6064"
         style="fill:none;stroke:#000000;stroke-width:0.26458332px;stroke-linecap:butt;stroke-linejoin:miter;stroke-opacity:1" />
      <path
         inkscape:original-d="m 18.96968,250.46166 c -0.157226,0.97618 -0.314716,1.95262 -0.47247,2.92932"
         inkscape:path-effect="#path-effect13424"
         inkscape:connector-curvature="0"
         id="path13422"
         d="m 18.96968,250.46166 -0.47247,2.92932"
         style="fill:none;stroke:#000000;stroke-width:0.26458332px;stroke-linecap:butt;stroke-linejoin:miter;stroke-opacity:1" />
      <path
         inkscape:original-d="m 17.386905,255.56434 c 0.299495,0.37771 0.598727,0.75569 0.897693,1.13393"
         inkscape:path-effect="#path-effect13428"
         inkscape:connector-curvature="0"
         id="path13426"
         d="m 17.386905,255.56434 0.897693,1.13393"
         style="fill:none;stroke:#000000;stroke-width:0.26458332px;stroke-linecap:butt;stroke-linejoin:miter;stroke-opacity:1" />
      <path
         inkscape:original-d="m 16.867187,258.37554 c 0.504233,-0.51998 1.008201,-1.02395 1.511905,-1.53553"
         inkscape:path-effect="#path-effect13432"
         inkscape:connector-curvature="0"
         id="path13430"
         d="m 16.867187,258.37554 1.511905,-1.53553"
         style="fill:none;stroke:#000000;stroke-width:0.26458332px;stroke-linecap:butt;stroke-linejoin:miter;stroke-opacity:1" />
      <path
         inkscape:original-d="m 16.772693,252.32792 c 0.48061,-0.13413 0.960954,-0.28374 1.441035,-0.42522"
         inkscape:path-effect="#path-effect13436"
         inkscape:connector-curvature="0"
         id="path13434"
         d="m 16.772693,252.32792 1.441035,-0.42522"
         style="fill:none;stroke:#000000;stroke-width:0.26458332px;stroke-linecap:butt;stroke-linejoin:miter;stroke-opacity:1" />
      <path
         inkscape:original-d="m 22.017113,253.5091 c 0.01601,0.25959 0.03176,0.51945 0.04725,0.77957"
         inkscape:path-effect="#path-effect13440"
         inkscape:connector-curvature="0"
         id="path13438"
         d="m 22.017113,253.5091 0.04725,0.77957"
         style="fill:none;stroke:#000000;stroke-width:0.26458332px;stroke-linecap:butt;stroke-linejoin:miter;stroke-opacity:1" />
      <path
         inkscape:original-d="m 21.875372,254.87926 c 0.04751,-0.18925 0.09476,-0.37824 0.141741,-0.56696"
         inkscape:path-effect="#path-effect13444"
         inkscape:connector-curvature="0"
         id="path13442"
         d="m 21.875372,254.87926 0.141741,-0.56696"
         style="fill:none;stroke:#000000;stroke-width:0.26458332px;stroke-linecap:butt;stroke-linejoin:miter;stroke-opacity:1" />
      <path
         inkscape:original-d="m 23.458147,258.58815 c -1.134194,1.93739 -0.755688,1.29116 -1.133929,1.93713 -0.378241,0.64597 -1.495891,1.13366 -2.244233,1.70089"
         inkscape:path-effect="#path-effect13448"
         inkscape:connector-curvature="0"
         id="path13446"
         d="m 23.458147,258.58815 c -0.26188,0.70491 -0.647491,1.36367 -1.133929,1.93713 -0.612058,0.72156 -1.384085,1.30667 -2.244233,1.70089"
         style="fill:none;stroke:#000000;stroke-width:0.26458332px;stroke-linecap:butt;stroke-linejoin:miter;stroke-opacity:1" />
      <path
         inkscape:original-d="m 23.552641,262.27342 c -0.330465,-0.55148 -0.661194,-1.10269 -0.992187,-1.65365"
         inkscape:path-effect="#path-effect13452"
         inkscape:connector-curvature="0"
         id="path13450"
         d="m 23.552641,262.27342 -0.992187,-1.65365"
         style="fill:none;stroke:#000000;stroke-width:0.26458332px;stroke-linecap:butt;stroke-linejoin:miter;stroke-opacity:1" />
      <path
         inkscape:original-d="m 22.702195,263.14749 c 0.260123,-0.35462 0.535731,-0.70897 0.803199,-1.06306"
         inkscape:path-effect="#path-effect13456"
         inkscape:connector-curvature="0"
         id="path13454"
         d="m 22.702195,263.14749 0.803199,-1.06306"
         style="fill:none;stroke:#000000;stroke-width:0.26458332px;stroke-linecap:butt;stroke-linejoin:miter;stroke-opacity:1" />
      <path
         inkscape:original-d="m 20.268973,258.42279 c -0.172975,0.11785 -0.346214,0.23597 -0.519717,0.35435"
         inkscape:path-effect="#path-effect13460"
         inkscape:connector-curvature="0"
         id="path13458"
         d="m 20.268973,258.42279 -0.519717,0.35435"
         style="fill:none;stroke:#000000;stroke-width:0.26458332px;stroke-linecap:butt;stroke-linejoin:miter;stroke-opacity:1" />
      <path
         inkscape:original-d="m 18.875186,259.65121 c 0.315245,-0.16563 0.630225,-0.33099 0.94494,-0.49609"
         inkscape:path-effect="#path-effect13464"
         inkscape:connector-curvature="0"
         id="path13462"
         d="m 18.875186,259.65121 0.94494,-0.49609"
         style="fill:none;stroke:#000000;stroke-width:0.26458332px;stroke-linecap:butt;stroke-linejoin:miter;stroke-opacity:1" />
      <path
         inkscape:original-d="m 19.820126,258.65902 c 2.65e-4,0.1651 2.64e-4,0.33047 0,0.4961"
         inkscape:path-effect="#path-effect13468"
         inkscape:connector-curvature="0"
         id="path13466"
         d="m 19.820126,258.65902 v 0.4961"
         style="fill:none;stroke:#000000;stroke-width:0.26458332px;stroke-linecap:butt;stroke-linejoin:miter;stroke-opacity:1" />
    </g>
  </g>
</svg>
