<?xml version="1.0" encoding="UTF-8" standalone="no"?>
<!-- Created with Inkscape (http://www.inkscape.org/) -->

<svg
   xmlns:dc="http://purl.org/dc/elements/1.1/"
   xmlns:cc="http://creativecommons.org/ns#"
   xmlns:rdf="http://www.w3.org/1999/02/22-rdf-syntax-ns#"
   xmlns:svg="http://www.w3.org/2000/svg"
   xmlns="http://www.w3.org/2000/svg"
   xmlns:sodipodi="http://sodipodi.sourceforge.net/DTD/sodipodi-0.dtd"
   xmlns:inkscape="http://www.inkscape.org/namespaces/inkscape"
   width="201"
   height="201"
   viewBox="0 0 53.181249 53.181252"
   version="1.1"
   id="svg9832"
   sodipodi:docname="custom.svg"
   inkscape:version="0.92.3 (2405546, 2018-03-11)">
  <defs
     id="defs9826">
    <inkscape:path-effect
       effect="spiro"
       id="path-effect16515"
       is_visible="true" />
    <inkscape:path-effect
       effect="spiro"
       id="path-effect16511"
       is_visible="true" />
    <inkscape:path-effect
       effect="spiro"
       id="path-effect16507"
       is_visible="true" />
    <inkscape:path-effect
       effect="spiro"
       id="path-effect16503"
       is_visible="true" />
    <inkscape:path-effect
       effect="spiro"
       id="path-effect16499"
       is_visible="true" />
    <inkscape:path-effect
       effect="spiro"
       id="path-effect16495"
       is_visible="true" />
    <inkscape:path-effect
       effect="spiro"
       id="path-effect16491"
       is_visible="true" />
    <inkscape:path-effect
       effect="spiro"
       id="path-effect16487"
       is_visible="true" />
    <inkscape:path-effect
       effect="spiro"
       id="path-effect16483"
       is_visible="true" />
    <inkscape:path-effect
       effect="spiro"
       id="path-effect16479"
       is_visible="true" />
    <inkscape:path-effect
       effect="spiro"
       id="path-effect16475"
       is_visible="true" />
    <inkscape:path-effect
       effect="spiro"
       id="path-effect16471"
       is_visible="true" />
    <inkscape:path-effect
       effect="spiro"
       id="path-effect16467"
       is_visible="true" />
    <inkscape:path-effect
       effect="spiro"
       id="path-effect16463"
       is_visible="true" />
    <inkscape:path-effect
       effect="spiro"
       id="path-effect16459"
       is_visible="true" />
    <inkscape:path-effect
       effect="spiro"
       id="path-effect16451"
       is_visible="true" />
    <inkscape:path-effect
       effect="spiro"
       id="path-effect16447"
       is_visible="true" />
    <inkscape:path-effect
       effect="spiro"
       id="path-effect16443"
       is_visible="true" />
    <inkscape:path-effect
       effect="spiro"
       id="path-effect16439"
       is_visible="true" />
    <inkscape:path-effect
       effect="spiro"
       id="path-effect16429"
       is_visible="true" />
    <inkscape:path-effect
       effect="spiro"
       id="path-effect16392"
       is_visible="true" />
    <inkscape:path-effect
       effect="spiro"
       id="path-effect16378"
       is_visible="true" />
    <inkscape:path-effect
       effect="spiro"
       id="path-effect16342"
       is_visible="true" />
    <inkscape:path-effect
       effect="spiro"
       id="path-effect16338"
       is_visible="true" />
    <inkscape:path-effect
       effect="spiro"
       id="path-effect16342-5"
       is_visible="true" />
    <inkscape:path-effect
       effect="spiro"
       id="path-effect16392-1"
       is_visible="true" />
  </defs>
  <sodipodi:namedview
     id="base"
     pagecolor="#ffffff"
     bordercolor="#666666"
     borderopacity="1.0"
     inkscape:pageopacity="0.0"
     inkscape:pageshadow="2"
     inkscape:zoom="2.8"
     inkscape:cx="102.46477"
     inkscape:cy="90.161961"
     inkscape:document-units="mm"
     inkscape:current-layer="layer1"
     showgrid="false"
     units="px"
     inkscape:window-width="1920"
     inkscape:window-height="1017"
     inkscape:window-x="-8"
     inkscape:window-y="-8"
     inkscape:window-maximized="1"
     objecttolerance="1"
     gridtolerance="1"
     guidetolerance="1" />
  <metadata
     id="metadata9829">
    <rdf:RDF>
      <cc:Work
         rdf:about="">
        <dc:format>image/svg+xml</dc:format>
        <dc:type
           rdf:resource="http://purl.org/dc/dcmitype/StillImage" />
        <dc:title></dc:title>
      </cc:Work>
    </rdf:RDF>
  </metadata>
  <g
     inkscape:label="Layer 1"
     inkscape:groupmode="layer"
     id="layer1"
     transform="translate(0,-243.81873)">
    <g
       id="g9862" />
    <g
       id="g16546">
      <g
         transform="rotate(-1.1051548,9.9244451,271.90622)"
         id="g16425">
        <path
           style="fill:none;stroke:#000000;stroke-width:0.26458332px;stroke-linecap:butt;stroke-linejoin:miter;stroke-opacity:1"
           d="m 13.701637,281.31397 c 0.660679,-2.99875 0.491171,-6.17599 -0.484819,-9.08742 -0.975991,-2.91143 -2.755729,-5.54888 -5.0903299,-7.54353 -0.3518569,-0.30062 -0.7179768,-0.58888 -1.0205136,-0.93909 -0.3025367,-0.35021 -0.5416113,-0.77361 -0.5858853,-1.23428 -0.030528,-0.31764 0.032912,-0.63891 0.1427605,-0.93852 0.1098485,-0.29961 0.2651481,-0.58022 0.4242037,-0.85686 0.4003317,-0.69629 0.8307369,-1.37932 1.353193,-1.98934 0.5224561,-0.61003 1.1413635,-1.14747 1.8596046,-1.50694 0.831132,-0.41597 1.768988,-0.58105 2.697834,-0.6135 0.928845,-0.0325 1.856732,0.0625 2.782821,0.14103 4.30572,0.36512 8.633901,0.37673 12.945684,0.66145 3.68835,0.24355 7.423336,0.68441 11.055803,0 0.611844,-0.11528 1.218843,-0.2623 1.837664,-0.33089 0.618821,-0.0686 1.257301,-0.056 1.847603,0.14191 0.778523,0.26108 1.417463,0.82338 1.984375,1.41741 0.730652,0.7656 1.394427,1.63288 1.700895,2.64583 0.123519,0.40826 0.186717,0.84132 0.123075,1.26309 -0.06364,0.42176 -0.263085,0.83205 -0.595546,1.09926 -0.271268,0.21803 -0.612927,0.32998 -0.954287,0.39778 -0.34136,0.0678 -0.689884,0.0958 -1.030088,0.16919 -0.767503,0.16554 -1.46898,0.55698 -2.1089,1.01191 -0.63992,0.45494 -1.229541,0.97677 -1.85985,1.44493 -0.883664,0.65634 -1.861925,1.22076 -2.55134,2.07887 -0.661073,0.82283 -1.005654,1.85917 -1.187946,2.89881 -0.182293,1.03963 -0.214701,2.09898 -0.323958,3.14881 -0.201083,1.93216 -0.66238,3.83066 -0.850447,5.76413 -0.05499,0.56534 -0.08652,1.13295 -0.09449,1.7009"
           id="path16336"
           inkscape:connector-curvature="0"
           inkscape:path-effect="#path-effect16338"
           inkscape:original-d="m 13.701637,281.31397 c -1.858119,-5.54392 -3.7165016,-11.08757 -5.5751489,-16.63095 -1.8586477,-5.54339 -1.070668,-1.44918 -1.6063989,-2.17337 -0.5357307,-0.72419 0.3782409,-1.19719 0.5669642,-1.79538 0.1887236,-0.5982 2.1421296,-2.33112 3.2127976,-3.49628 1.070668,-1.16517 3.654034,-0.31525 5.480655,-0.47247 1.82662,-0.15723 8.630721,0.4407 12.945684,0.66145 4.314963,0.22075 7.3708,-2.6e-4 11.055803,0 3.685003,2.7e-4 2.457111,-0.12625 3.685267,-0.18898 1.228159,-0.0627 1.323181,0.94467 1.984375,1.41741 0.661194,0.47273 1.134195,1.76362 1.700895,2.64583 0.566698,0.88221 -0.314716,1.57464 -0.472471,2.36235 -0.157756,0.78772 -1.322653,0.37771 -1.984375,0.56697 -0.661723,0.18925 -2.645569,1.63763 -3.96875,2.45684 -1.323182,0.81921 -1.700628,1.38565 -2.55134,2.07887 -0.85071,0.69322 -1.007671,4.03148 -1.511904,6.04762 -0.504232,2.01614 -0.5667,3.84249 -0.850447,5.76413 -0.283747,1.92165 -0.06273,1.13367 -0.09449,1.7009" />
        <path
           style="fill:none;stroke:#000000;stroke-width:0.26458332px;stroke-linecap:butt;stroke-linejoin:miter;stroke-opacity:1"
           d="m 13.701637,281.31397 c -1.10332,-0.63388 -2.278734,-1.14217 -3.49628,-1.51191 -0.6135477,-0.18632 -1.241615,-0.33817 -1.8815508,-0.37863 -0.6399359,-0.0405 -1.2948866,0.0341 -1.8846205,0.28579 -0.589734,0.25173 -1.1105478,0.68999 -1.3985651,1.26288 -0.1440087,0.28644 -0.2286265,0.60365 -0.2372791,0.92414 -0.00865,0.32049 0.059476,0.64387 0.2048428,0.92963 0.2475886,0.4867 0.7038814,0.84011 1.196836,1.075 0.4929547,0.2349 1.027787,0.36504 1.5536145,0.5123 0.5258274,0.14726 1.0543549,0.3167 1.5095031,0.6184 0.2275741,0.15084 0.4349969,0.3344 0.5997567,0.55211 0.1647594,0.21772 0.2861064,0.47031 0.3374624,0.73847 0.05384,0.2811 0.02963,0.57533 -0.05865,0.84759 -0.08828,0.27226 -0.2396012,0.5226 -0.4312217,0.7352 -0.3832409,0.4252 -0.9185802,0.69233 -1.4738329,0.83149 -1.1105053,0.27831 -2.2793623,0.0737 -3.422456,0.13706 -0.6221675,0.0345 -1.2496408,0.15266 -1.8017664,0.44152 -0.5521255,0.28885 -1.0244954,0.76289 -1.2220431,1.35387 -0.189067,0.56561 -0.1160869,1.18579 0.027608,1.76459 0.143695,0.5788 0.3559739,1.14198 0.4448622,1.73169 0.114983,0.76283 0.015737,1.5568 -0.2834821,2.26785"
           id="path16340"
           inkscape:connector-curvature="0"
           inkscape:path-effect="#path-effect16342"
           inkscape:original-d="m 13.701637,281.31397 c -1.165162,-0.50423 -2.330589,-1.0082 -3.49628,-1.51191 -1.1656911,-0.5037 -3.464517,2.01561 -5.1971727,3.02381 -1.7326554,1.0082 3.4650466,2.33059 5.1971727,3.49628 1.732126,1.16569 -3.5905092,1.70063 -5.3861606,2.55134 -1.7956516,0.85071 -2.0156085,1.19666 -3.0238095,1.79539 -1.00820109,0.59872 0.3152447,2.33059 0.4724702,3.49628 0.1572255,1.16569 -0.1887235,1.51164 -0.2834821,2.26785" />
        <path
           style="fill:none;stroke:#000000;stroke-width:0.26151901px;stroke-linecap:butt;stroke-linejoin:miter;stroke-opacity:1"
           d="m 35.718753,282.25891 c 1.069779,-0.64344 2.2202,-1.15265 3.415763,-1.51191 0.602713,-0.18111 1.220695,-0.32482 1.849187,-0.35742 0.628493,-0.0326 1.270347,0.0495 1.845801,0.30429 0.575454,0.25479 1.080767,0.69104 1.358353,1.25585 0.138792,0.28241 0.219577,0.59417 0.226657,0.90876 0.0071,0.31459 -0.0603,0.63163 -0.202511,0.91233 -0.24276,0.47918 -0.688858,0.82924 -1.171564,1.06491 -0.482707,0.23567 -1.007076,0.37019 -1.522347,0.52199 -0.515271,0.15179 -1.032702,0.32593 -1.476413,0.62869 -0.221856,0.15138 -0.423524,0.33455 -0.583031,0.55064 -0.159506,0.21609 -0.276117,0.46579 -0.324132,0.73005 -0.05,0.27517 -0.02459,0.56232 0.06253,0.82808 0.08712,0.26576 0.234988,0.51021 0.421782,0.71836 0.373587,0.41631 0.894262,0.68068 1.435397,0.82228 1.08227,0.2832 2.226584,0.10237 3.342412,0.18262 0.609723,0.0439 1.222922,0.16989 1.761181,0.45965 0.53826,0.28976 0.99742,0.75657 1.192993,1.33574 0.190728,0.56482 0.120427,1.18498 -0.02108,1.7641 -0.141504,0.57911 -0.351964,1.14264 -0.440511,1.73218 -0.114508,0.76239 -0.01766,1.55542 0.276954,2.26785"
           id="path16340-4"
           inkscape:connector-curvature="0"
           inkscape:path-effect="#path-effect16342-5"
           inkscape:original-d="m 35.718753,282.25891 c 1.138329,-0.50423 2.276917,-1.0082 3.415763,-1.51191 1.138846,-0.5037 3.384732,2.01561 5.077487,3.02381 1.692753,1.0082 -3.38525,2.33059 -5.077487,3.49628 -1.692236,1.16569 3.507823,1.70063 5.262121,2.55134 1.7543,0.85071 1.969191,1.19666 2.954174,1.79539 0.984983,0.59872 -0.307985,2.33059 -0.461589,3.49628 -0.153605,1.16569 0.184377,1.51164 0.276954,2.26785" />
        <path
           style="fill:none;stroke:#000000;stroke-width:0.26458332px;stroke-linecap:butt;stroke-linejoin:miter;stroke-opacity:1"
           d="m 30.133289,275.28059 c 0,0.17317 0.07129,0.34527 0.193737,0.46772 0.122449,0.12245 0.294552,0.19374 0.467722,0.19374 0.173169,0 0.345272,-0.0713 0.467721,-0.19374 0.12245,-0.12245 0.193737,-0.29455 0.193737,-0.46772 0,-0.17317 -0.07129,-0.34527 -0.193737,-0.46772 -0.122449,-0.12245 -0.294552,-0.19374 -0.467722,-0.19374 -0.173169,0 -0.345272,0.0713 -0.467721,0.19374 -0.12245,0.12245 -0.193737,0.29455 -0.193737,0.46772 z"
           id="path16390"
           inkscape:connector-curvature="0"
           inkscape:path-effect="#path-effect16392"
           inkscape:original-d="m 30.133289,275.28059 c -0.441237,2.7e-4 0.882208,-2.6e-4 1.322917,0 0.440708,2.7e-4 -0.881679,-2.6e-4 -1.322917,0 z" />
        <path
           style="fill:none;stroke:#000000;stroke-width:0.26458332px;stroke-linecap:butt;stroke-linejoin:miter;stroke-opacity:1"
           d="m 19.796503,276.70738 c 0,0.17317 0.07129,0.34527 0.193737,0.46772 0.122449,0.12245 0.294552,0.19374 0.467722,0.19374 0.173169,0 0.345272,-0.0713 0.467721,-0.19374 0.12245,-0.12245 0.193737,-0.29455 0.193737,-0.46772 0,-0.17317 -0.07129,-0.34527 -0.193737,-0.46772 -0.122449,-0.12245 -0.294552,-0.19374 -0.467722,-0.19374 -0.173169,0 -0.345272,0.0713 -0.467721,0.19374 -0.12245,0.12245 -0.193737,0.29455 -0.193737,0.46772 z"
           id="path16390-8"
           inkscape:connector-curvature="0"
           inkscape:path-effect="#path-effect16392-1"
           inkscape:original-d="m 19.796503,276.70738 c -0.441237,2.7e-4 0.882208,-2.6e-4 1.322917,0 0.440708,2.7e-4 -0.881679,-2.6e-4 -1.322917,0 z" />
        <path
           style="opacity:1;fill:#ffff00;fill-opacity:1;fill-rule:evenodd;stroke:#ffff00;stroke-width:0.06313454"
           d="m 116.31369,116.84474 c -1.27873,-0.0251 -2.30506,1.36919 -1.92905,2.58741 0.22389,0.96566 1.20645,1.67722 2.19861,1.52891 1.15672,-0.0343 2.05939,-1.25407 1.8637,-2.37432 -0.13317,-0.99745 -1.12898,-1.81891 -2.13326,-1.742 z"
           id="path16414"
           inkscape:connector-curvature="0"
           transform="matrix(0.26458333,0,0,0.26458333,0,243.81873)" />
        <path
           style="opacity:1;fill:#ffff00;fill-opacity:1;fill-rule:evenodd;stroke:#ffff00;stroke-width:0.12626907"
           d="m 77.206665,122.23825 c -1.618509,-0.014 -2.526256,2.12638 -1.513502,3.34293 0.866949,1.22201 2.997279,0.96285 3.498541,-0.46439 0.596802,-1.37755 -0.473269,-2.96187 -1.985039,-2.87854 z"
           id="path16416"
           inkscape:connector-curvature="0"
           transform="matrix(0.26458333,0,0,0.26458333,0,243.81873)" />
      </g>
      <path
         inkscape:original-d="m 2.4589098,296.58159 c 15.0641382,0.0242 30.1280122,0.0486 45.1916222,0.0733"
         inkscape:path-effect="#path-effect16429"
         inkscape:connector-curvature="0"
         id="path16427"
         d="m 2.4589098,296.58159 45.1916222,0.0733"
         style="fill:none;stroke:#000000;stroke-width:0.26458332px;stroke-linecap:butt;stroke-linejoin:miter;stroke-opacity:1" />
      <path
         transform="matrix(0.26458333,0,0,0.26458333,0,243.81873)"
         inkscape:connector-curvature="0"
         id="path16435"
         d="m 158.83641,48.31199 c -7.73072,0.427085 -15.18826,3.237928 -22.99343,2.919984 -16.67506,0.415029 -33.30947,-1.10579 -49.979958,-1.242983 -12.64895,-0.138329 -25.277432,-1.162503 -37.924114,-1.241216 -7.558226,0.0082 -14.486346,4.503066 -18.497729,10.754227 -2.086962,3.535863 -5.079245,7.217099 -4.779575,11.552037 1.010479,4.532429 5.708628,6.70319 8.570731,9.946288 13.870576,12.596575 21.891615,31.447553 20.86633,50.192323 -0.29885,3.46807 -0.02371,7.2435 -1.4432,10.44802 -4.081893,-1.03272 -7.77079,-3.47344 -11.891741,-4.56194 -5.830575,-1.82114 -13.085488,-3.16249 -18.230329,1.06445 -3.526064,2.75417 -4.143326,8.774 -0.369001,11.58901 5.046281,3.72106 12.70197,2.77199 16.717355,8.04897 2.584282,3.34941 1.182081,8.33982 -2.191686,10.60686 -4.099105,3.32908 -9.784953,2.31199 -14.667121,2.8424 -4.447502,0.0641 -9.650731,0.66328 -12.3480852,4.70434 -1.6910487,2.43122 -0.9800279,5.67424 -0.6382533,8.42285 1.4435985,4.62865 2.5085315,9.59407 1.1872205,14.37779 13.731055,0.29063 27.699601,0.0835 41.521987,0.1827 42.419397,0.0684 84.838789,0.1473 127.258009,0.29163 -0.8182,-4.17598 -0.97614,-8.7797 0.37873,-12.97352 0.82373,-3.49785 1.76363,-7.87922 -1.23741,-10.6579 -3.82089,-4.21983 -10.07518,-3.53502 -15.22389,-3.7134 -4.75154,0.0783 -10.43134,-0.36202 -13.26732,-4.76386 -2.4264,-3.58502 -0.8682,-8.72867 2.9255,-10.67452 4.65953,-3.05256 11.43877,-2.87777 14.70145,-7.92341 0.90511,-2.61426 0.83693,-5.97508 -1.16141,-8.10966 -3.92942,-4.80226 -10.91468,-4.31983 -16.27651,-2.71693 -4.81317,1.2288 -9.06412,3.88673 -13.59584,5.78334 -1.67553,0.28513 -0.95379,-2.31846 -1.05538,-3.21917 0.92833,-11.29414 2.96901,-22.47074 3.67789,-33.79206 0.45636,-6.644541 2.44972,-13.75278 8.00143,-17.96168 5.09276,-3.877483 9.93112,-8.141174 15.25567,-11.709568 3.2847,-2.265941 7.22301,-2.948238 10.9947,-3.917411 3.03169,-0.722057 4.75906,-3.855601 4.20689,-6.84082 -0.74379,-6.300018 -5.67172,-11.067056 -10.23996,-14.993722 -2.32522,-1.875653 -5.26836,-2.834777 -8.25195,-2.713449 z m -41.99498,66.12096 c 2.91533,0.0766 3.77431,4.5604 1.08538,5.71079 -2.67875,1.43365 -5.64568,-2.19149 -3.7207,-4.53683 0.59778,-0.84813 1.63938,-1.26141 2.63532,-1.17396 z m -39.191544,6.1621 c 2.933675,-0.27417 4.070814,4.18736 1.538086,5.53362 -2.588182,1.68735 -5.917325,-1.94533 -3.972518,-4.39522 0.542471,-0.74445 1.5252,-1.14102 2.434432,-1.1384 z"
         style="opacity:1;fill:#cc00ff;fill-opacity:1;fill-rule:evenodd;stroke:#d42aff;stroke-width:0.35714287" />
      <path
         inkscape:original-d="m 13.882385,281.23937 c 1.074553,0.53151 2.237931,1.15237 3.356499,1.72896 1.118569,0.57658 2.093876,0.31155 3.140417,0.46772"
         inkscape:path-effect="#path-effect16439"
         inkscape:connector-curvature="0"
         id="path16437"
         d="m 13.882385,281.23937 c 1.004268,0.76958 2.146836,1.35812 3.356499,1.72896 1.015657,0.31136 2.078108,0.4696 3.140417,0.46772"
         style="fill:none;stroke:#000000;stroke-width:0.26458332px;stroke-linecap:butt;stroke-linejoin:miter;stroke-opacity:1" />
      <path
         inkscape:original-d="m 35.913631,281.75948 c -1.436071,0.93722 -2.872409,1.87471 -4.309009,2.81247 -1.436601,0.93775 -1.29154,0.0443 -1.937705,0.0668"
         inkscape:path-effect="#path-effect16443"
         inkscape:connector-curvature="0"
         id="path16441"
         d="m 35.913631,281.75948 c -0.987302,1.45846 -2.576511,2.49573 -4.309009,2.81247 -0.638024,0.11665 -1.293163,0.13923 -1.937705,0.0668"
         style="fill:none;stroke:#000000;stroke-width:0.26458332px;stroke-linecap:butt;stroke-linejoin:miter;stroke-opacity:1" />
      <path
         inkscape:original-d="m 9.1539813,258.98089 c 0.512531,1.09109 1.0247977,2.18244 1.5367997,3.27405"
         inkscape:path-effect="#path-effect16447"
         inkscape:connector-curvature="0"
         id="path16445"
         d="m 9.1539813,258.98089 1.5367997,3.27405"
         style="fill:none;stroke:#000000;stroke-width:0.26458332px;stroke-linecap:butt;stroke-linejoin:miter;stroke-opacity:1" />
      <path
         inkscape:original-d="m 6.5250493,262.61844 c 1.9233809,-1.23505 3.8464967,-2.46984 5.7693487,-3.70437"
         inkscape:path-effect="#path-effect16451"
         inkscape:connector-curvature="0"
         id="path16449"
         d="m 6.5250493,262.61844 5.7693487,-3.70437"
         style="fill:none;stroke:#000000;stroke-width:0.26458332px;stroke-linecap:butt;stroke-linejoin:miter;stroke-opacity:1" />
      <path
         inkscape:original-d="m 13.229841,258.84725 c 1.047071,1.20245 2.093876,2.40517 3.140417,3.60814"
         inkscape:path-effect="#path-effect16459"
         inkscape:connector-curvature="0"
         id="path16457"
         d="m 13.229841,258.84725 3.140417,3.60814"
         style="fill:none;stroke:#000000;stroke-width:0.26458332px;stroke-linecap:butt;stroke-linejoin:miter;stroke-opacity:1" />
      <path
         inkscape:original-d="m 11.693042,262.38858 c 1.581609,-1.06935 3.252043,-2.22751 4.877669,-3.34087"
         inkscape:path-effect="#path-effect16463"
         inkscape:connector-curvature="0"
         id="path16461"
         d="m 11.693042,262.38858 4.877669,-3.34087"
         style="fill:none;stroke:#000000;stroke-width:0.26458332px;stroke-linecap:butt;stroke-linejoin:miter;stroke-opacity:1" />
      <path
         inkscape:original-d="m 18.909319,259.18134 c 1.002525,1.13563 2.004786,2.27153 3.006782,3.40769"
         inkscape:path-effect="#path-effect16467"
         inkscape:connector-curvature="0"
         id="path16465"
         d="m 18.909319,259.18134 3.006782,3.40769"
         style="fill:none;stroke:#000000;stroke-width:0.26458332px;stroke-linecap:butt;stroke-linejoin:miter;stroke-opacity:1" />
      <path
         inkscape:original-d="m 18.040693,262.38858 c 1.358885,-0.89117 2.717505,-1.78207 4.07586,-2.6727"
         inkscape:path-effect="#path-effect16471"
         inkscape:connector-curvature="0"
         id="path16469"
         d="m 18.040693,262.38858 4.07586,-2.6727"
         style="fill:none;stroke:#000000;stroke-width:0.26458332px;stroke-linecap:butt;stroke-linejoin:miter;stroke-opacity:1" />
      <path
         inkscape:original-d="m 23.920622,259.58225 c 1.269795,0.89063 2.539325,1.82607 3.808592,2.73951"
         inkscape:path-effect="#path-effect16475"
         inkscape:connector-curvature="0"
         id="path16473"
         d="m 23.920622,259.58225 3.808592,2.73951"
         style="fill:none;stroke:#000000;stroke-width:0.26458332px;stroke-linecap:butt;stroke-linejoin:miter;stroke-opacity:1" />
      <path
         inkscape:original-d="m 24.121075,262.38858 c 1.04707,-0.89117 2.093875,-1.78207 3.140417,-2.6727"
         inkscape:path-effect="#path-effect16479"
         inkscape:connector-curvature="0"
         id="path16477"
         d="m 24.121075,262.38858 3.140417,-2.6727"
         style="fill:none;stroke:#000000;stroke-width:0.26458332px;stroke-linecap:butt;stroke-linejoin:miter;stroke-opacity:1" />
      <path
         inkscape:original-d="m 29.533283,259.84952 c 1.136158,0.86836 2.272054,1.73698 3.407686,2.60587"
         inkscape:path-effect="#path-effect16483"
         inkscape:connector-curvature="0"
         id="path16481"
         d="m 29.533283,259.84952 3.407686,2.60587"
         style="fill:none;stroke:#000000;stroke-width:0.26458332px;stroke-linecap:butt;stroke-linejoin:miter;stroke-opacity:1" />
      <path
         inkscape:original-d="m 33.67596,259.58225 c -1.336082,0.95745 -2.672429,1.91516 -4.009043,2.87314"
         inkscape:path-effect="#path-effect16487"
         inkscape:connector-curvature="0"
         id="path16485"
         d="m 33.67596,259.58225 -4.009043,2.87314"
         style="fill:none;stroke:#000000;stroke-width:0.26458332px;stroke-linecap:butt;stroke-linejoin:miter;stroke-opacity:1" />
      <path
         inkscape:original-d="m 35.413211,259.64906 c 0.891165,0.84609 1.826607,1.73699 2.739515,2.60588"
         inkscape:path-effect="#path-effect16491"
         inkscape:connector-curvature="0"
         id="path16489"
         d="m 35.413211,259.64906 2.739515,2.60588"
         style="fill:none;stroke:#000000;stroke-width:0.26458332px;stroke-linecap:butt;stroke-linejoin:miter;stroke-opacity:1" />
      <path
         inkscape:original-d="m 39.02135,259.31498 c -1.068813,0.93518 -2.137891,1.87062 -3.207234,2.80633"
         inkscape:path-effect="#path-effect16495"
         inkscape:connector-curvature="0"
         id="path16493"
         d="m 39.02135,259.31498 -3.207234,2.80633"
         style="fill:none;stroke:#000000;stroke-width:0.26458332px;stroke-linecap:butt;stroke-linejoin:miter;stroke-opacity:1" />
      <path
         inkscape:original-d="m 40.892237,259.24816 c 0.779802,0.95745 1.559338,1.91517 2.338607,2.87315"
         inkscape:path-effect="#path-effect16499"
         inkscape:connector-curvature="0"
         id="path16497"
         d="m 40.892237,259.24816 2.338607,2.87315"
         style="fill:none;stroke:#000000;stroke-width:0.26458332px;stroke-linecap:butt;stroke-linejoin:miter;stroke-opacity:1" />
      <path
         inkscape:original-d="m 40.357697,261.98767 c 0.980255,-0.80207 1.960242,-1.60388 2.939965,-2.40542"
         inkscape:path-effect="#path-effect16503"
         inkscape:connector-curvature="0"
         id="path16501"
         d="m 40.357697,261.98767 2.939965,-2.40542"
         style="fill:none;stroke:#000000;stroke-width:0.26458332px;stroke-linecap:butt;stroke-linejoin:miter;stroke-opacity:1" />
      <path
         inkscape:original-d="m 46.571714,261.78722 c -0.667909,-0.80207 -1.336082,-1.60388 -2.00452,-2.40543"
         inkscape:path-effect="#path-effect16507"
         inkscape:connector-curvature="0"
         id="path16505"
         d="m 46.571714,261.78722 -2.00452,-2.40543"
         style="fill:none;stroke:#000000;stroke-width:0.26458332px;stroke-linecap:butt;stroke-linejoin:miter;stroke-opacity:1" />
      <path
         inkscape:original-d="m 44.567194,261.65358 c 0.51253,-0.62389 1.024797,-1.24752 1.536798,-1.87088"
         inkscape:path-effect="#path-effect16511"
         inkscape:connector-curvature="0"
         id="path16509"
         d="m 44.567194,261.65358 1.536798,-1.87088"
         style="fill:none;stroke:#000000;stroke-width:0.26458332px;stroke-linecap:butt;stroke-linejoin:miter;stroke-opacity:1" />
      <path
         inkscape:original-d="m 22.867559,280.79425 c 0.315245,-0.45699 0.630225,-0.91371 0.944941,-1.37016 0.314715,-0.45646 1.827149,-0.59873 2.740326,-0.8977 0.913178,-0.29896 0.598729,0.28322 0.897694,0.42523 0.298966,0.142 0.882209,-0.0948 1.322917,-0.14174 0.440709,-0.047 0.472734,-0.34675 0.708705,-0.51972 0.235971,-0.17298 0.504232,-0.28375 0.755952,-0.42523 0.251722,-0.14147 0.409739,0.37772 0.614211,0.56697 0.204473,0.18925 0.06326,0.34621 0.0945,0.51972 0.03123,0.1735 0.378241,0.37771 0.566963,0.56696 0.188724,0.18925 0.252248,0.0627 0.377976,0.0945"
         inkscape:path-effect="#path-effect16515"
         inkscape:connector-curvature="0"
         id="path16513"
         d="m 22.867559,280.79425 c 0.237676,-0.50404 0.558254,-0.96888 0.944941,-1.37016 0.353624,-0.36697 0.768925,-0.68441 1.245499,-0.86495 0.476574,-0.18054 1.019058,-0.21539 1.494827,-0.0328 0.309485,0.11881 0.582025,0.32399 0.897694,0.42523 0.433346,0.13898 0.917924,0.0658 1.322917,-0.14174 0.261522,-0.13404 0.492866,-0.32029 0.708705,-0.51972 0.109111,-0.10082 0.215541,-0.20595 0.339264,-0.28818 0.123723,-0.0822 0.268185,-0.14112 0.416688,-0.13705 0.149646,0.004 0.294007,0.0734 0.400809,0.17827 0.106803,0.1049 0.177398,0.24339 0.213402,0.3887 0.0424,0.17113 0.03896,0.35239 0.0945,0.51972 0.04341,0.1308 0.122159,0.24876 0.221342,0.34445 0.09918,0.0957 0.21842,0.16948 0.345621,0.22251 0.12032,0.0502 0.248205,0.0821 0.377976,0.0945"
         style="fill:none;stroke:#000000;stroke-width:0.26458332px;stroke-linecap:butt;stroke-linejoin:miter;stroke-opacity:1" />
    </g>
  </g>
</svg>
