<?xml version="1.0" encoding="UTF-8" standalone="no"?>
<!-- Created with Inkscape (http://www.inkscape.org/) -->

<svg
   xmlns:dc="http://purl.org/dc/elements/1.1/"
   xmlns:cc="http://creativecommons.org/ns#"
   xmlns:rdf="http://www.w3.org/1999/02/22-rdf-syntax-ns#"
   xmlns:svg="http://www.w3.org/2000/svg"
   xmlns="http://www.w3.org/2000/svg"
   xmlns:sodipodi="http://sodipodi.sourceforge.net/DTD/sodipodi-0.dtd"
   xmlns:inkscape="http://www.inkscape.org/namespaces/inkscape"
   width="202"
   height="202"
   viewBox="0 0 53.445832 53.445835"
   version="1.1"
   id="svg15695"
   inkscape:version="0.92.3 (2405546, 2018-03-11)"
   sodipodi:docname="farmot.svg"
   inkscape:export-filename="C:\Users\Cole\Desktop\monster work\jiyou.png"
   inkscape:export-xdpi="792.47351"
   inkscape:export-ydpi="792.47351">
  <defs
     id="defs15689">
    <inkscape:path-effect
       effect="spiro"
       id="path-effect84230"
       is_visible="true" />
    <inkscape:path-effect
       effect="spiro"
       id="path-effect84226"
       is_visible="true" />
    <inkscape:path-effect
       effect="spiro"
       id="path-effect84220"
       is_visible="true" />
    <inkscape:path-effect
       effect="spiro"
       id="path-effect84216"
       is_visible="true" />
    <inkscape:path-effect
       effect="spiro"
       id="path-effect84212"
       is_visible="true" />
    <inkscape:path-effect
       effect="spiro"
       id="path-effect84208"
       is_visible="true" />
    <inkscape:path-effect
       effect="spiro"
       id="path-effect84041"
       is_visible="true" />
    <inkscape:path-effect
       effect="spiro"
       id="path-effect84037"
       is_visible="true" />
    <inkscape:path-effect
       effect="spiro"
       id="path-effect84033"
       is_visible="true" />
    <inkscape:path-effect
       effect="spiro"
       id="path-effect84029"
       is_visible="true" />
    <inkscape:path-effect
       effect="spiro"
       id="path-effect84025"
       is_visible="true" />
    <inkscape:path-effect
       effect="spiro"
       id="path-effect84021"
       is_visible="true" />
    <inkscape:path-effect
       effect="spiro"
       id="path-effect58508"
       is_visible="true" />
    <inkscape:path-effect
       effect="spiro"
       id="path-effect58504"
       is_visible="true" />
    <inkscape:path-effect
       effect="spiro"
       id="path-effect58421"
       is_visible="true" />
    <inkscape:path-effect
       effect="spiro"
       id="path-effect58417"
       is_visible="true" />
    <inkscape:path-effect
       effect="spiro"
       id="path-effect58413"
       is_visible="true" />
    <inkscape:path-effect
       effect="spiro"
       id="path-effect58252"
       is_visible="true" />
    <inkscape:path-effect
       effect="spiro"
       id="path-effect58248"
       is_visible="true" />
    <inkscape:path-effect
       effect="spiro"
       id="path-effect58244"
       is_visible="true" />
    <inkscape:path-effect
       effect="spiro"
       id="path-effect58240"
       is_visible="true" />
    <inkscape:path-effect
       effect="spiro"
       id="path-effect58236"
       is_visible="true" />
    <inkscape:path-effect
       effect="spiro"
       id="path-effect58232"
       is_visible="true" />
    <inkscape:path-effect
       effect="spiro"
       id="path-effect58228"
       is_visible="true" />
    <inkscape:path-effect
       effect="spiro"
       id="path-effect58224"
       is_visible="true" />
    <inkscape:path-effect
       effect="spiro"
       id="path-effect58220"
       is_visible="true" />
    <inkscape:path-effect
       effect="spiro"
       id="path-effect58216"
       is_visible="true" />
    <inkscape:path-effect
       effect="spiro"
       id="path-effect58208"
       is_visible="true" />
    <inkscape:path-effect
       effect="spiro"
       id="path-effect58204"
       is_visible="true" />
    <inkscape:path-effect
       effect="spiro"
       id="path-effect58200"
       is_visible="true" />
    <inkscape:path-effect
       effect="spiro"
       id="path-effect58196"
       is_visible="true" />
    <inkscape:path-effect
       effect="spiro"
       id="path-effect58192"
       is_visible="true" />
    <inkscape:path-effect
       effect="spiro"
       id="path-effect58188"
       is_visible="true" />
    <inkscape:path-effect
       effect="spiro"
       id="path-effect58184"
       is_visible="true" />
    <inkscape:path-effect
       effect="spiro"
       id="path-effect58176"
       is_visible="true" />
    <inkscape:path-effect
       effect="spiro"
       id="path-effect58172"
       is_visible="true" />
    <inkscape:path-effect
       effect="spiro"
       id="path-effect58168"
       is_visible="true" />
    <inkscape:path-effect
       effect="spiro"
       id="path-effect58164"
       is_visible="true" />
    <inkscape:path-effect
       effect="spiro"
       id="path-effect58160"
       is_visible="true" />
    <inkscape:path-effect
       effect="spiro"
       id="path-effect58156"
       is_visible="true" />
    <inkscape:path-effect
       effect="spiro"
       id="path-effect58152"
       is_visible="true" />
    <inkscape:path-effect
       effect="spiro"
       id="path-effect58148"
       is_visible="true" />
    <inkscape:path-effect
       effect="spiro"
       id="path-effect58144"
       is_visible="true" />
    <inkscape:path-effect
       effect="spiro"
       id="path-effect58132"
       is_visible="true" />
    <inkscape:path-effect
       effect="spiro"
       id="path-effect58128"
       is_visible="true" />
    <inkscape:path-effect
       effect="spiro"
       id="path-effect58109"
       is_visible="true" />
    <inkscape:path-effect
       effect="spiro"
       id="path-effect58105"
       is_visible="true" />
    <inkscape:path-effect
       effect="spiro"
       id="path-effect58101"
       is_visible="true" />
    <inkscape:path-effect
       effect="spiro"
       id="path-effect58097"
       is_visible="true" />
    <inkscape:path-effect
       effect="spiro"
       id="path-effect58087"
       is_visible="true" />
    <inkscape:path-effect
       effect="spiro"
       id="path-effect58083"
       is_visible="true" />
    <inkscape:path-effect
       effect="spiro"
       id="path-effect58079"
       is_visible="true" />
    <inkscape:path-effect
       effect="spiro"
       id="path-effect58059"
       is_visible="true" />
    <inkscape:path-effect
       effect="spiro"
       id="path-effect58037"
       is_visible="true" />
    <inkscape:path-effect
       effect="spiro"
       id="path-effect31674"
       is_visible="true" />
    <inkscape:path-effect
       effect="spiro"
       id="path-effect31666"
       is_visible="true" />
    <inkscape:path-effect
       effect="spiro"
       id="path-effect31660"
       is_visible="true" />
    <inkscape:path-effect
       effect="spiro"
       id="path-effect31656"
       is_visible="true" />
    <inkscape:path-effect
       effect="spiro"
       id="path-effect31652"
       is_visible="true" />
    <inkscape:path-effect
       effect="spiro"
       id="path-effect31648"
       is_visible="true" />
    <inkscape:path-effect
       effect="spiro"
       id="path-effect31644"
       is_visible="true" />
    <inkscape:path-effect
       effect="spiro"
       id="path-effect31640"
       is_visible="true" />
    <inkscape:path-effect
       effect="spiro"
       id="path-effect31636"
       is_visible="true" />
    <inkscape:path-effect
       effect="spiro"
       id="path-effect31632"
       is_visible="true" />
    <inkscape:path-effect
       effect="spiro"
       id="path-effect31628"
       is_visible="true" />
    <inkscape:path-effect
       effect="spiro"
       id="path-effect31606"
       is_visible="true" />
    <inkscape:path-effect
       effect="spiro"
       id="path-effect31602"
       is_visible="true" />
    <inkscape:path-effect
       effect="spiro"
       id="path-effect31598"
       is_visible="true" />
    <inkscape:path-effect
       effect="spiro"
       id="path-effect31594"
       is_visible="true" />
    <inkscape:path-effect
       effect="spiro"
       id="path-effect31590"
       is_visible="true" />
    <inkscape:path-effect
       effect="spiro"
       id="path-effect31586"
       is_visible="true" />
    <inkscape:path-effect
       effect="spiro"
       id="path-effect31582"
       is_visible="true" />
    <inkscape:path-effect
       effect="spiro"
       id="path-effect31578"
       is_visible="true" />
    <inkscape:path-effect
       effect="spiro"
       id="path-effect31574"
       is_visible="true" />
    <inkscape:path-effect
       effect="spiro"
       id="path-effect31570"
       is_visible="true" />
    <inkscape:path-effect
       effect="spiro"
       id="path-effect31476"
       is_visible="true" />
    <inkscape:path-effect
       effect="spiro"
       id="path-effect31450"
       is_visible="true" />
    <inkscape:path-effect
       effect="spiro"
       id="path-effect31446"
       is_visible="true" />
    <inkscape:path-effect
       effect="spiro"
       id="path-effect31405"
       is_visible="true" />
    <inkscape:path-effect
       effect="spiro"
       id="path-effect31401"
       is_visible="true" />
    <inkscape:path-effect
       effect="spiro"
       id="path-effect31397"
       is_visible="true" />
    <inkscape:path-effect
       effect="spiro"
       id="path-effect31385"
       is_visible="true" />
    <inkscape:path-effect
       effect="spiro"
       id="path-effect31374"
       is_visible="true" />
    <inkscape:path-effect
       effect="spiro"
       id="path-effect31370"
       is_visible="true" />
    <inkscape:path-effect
       effect="spiro"
       id="path-effect31362"
       is_visible="true" />
    <inkscape:path-effect
       effect="spiro"
       id="path-effect31358"
       is_visible="true" />
    <inkscape:path-effect
       effect="spiro"
       id="path-effect31354"
       is_visible="true" />
    <inkscape:path-effect
       effect="spiro"
       id="path-effect31350"
       is_visible="true" />
    <inkscape:path-effect
       effect="spiro"
       id="path-effect31346"
       is_visible="true" />
    <inkscape:path-effect
       effect="spiro"
       id="path-effect31342"
       is_visible="true" />
    <inkscape:path-effect
       effect="spiro"
       id="path-effect31338"
       is_visible="true" />
    <inkscape:path-effect
       effect="spiro"
       id="path-effect31334"
       is_visible="true" />
    <inkscape:path-effect
       effect="spiro"
       id="path-effect31330"
       is_visible="true" />
    <inkscape:path-effect
       effect="spiro"
       id="path-effect31326"
       is_visible="true" />
    <inkscape:path-effect
       effect="spiro"
       id="path-effect31322"
       is_visible="true" />
    <inkscape:path-effect
       effect="spiro"
       id="path-effect31318"
       is_visible="true" />
    <inkscape:path-effect
       effect="spiro"
       id="path-effect31314"
       is_visible="true" />
    <inkscape:path-effect
       effect="spiro"
       id="path-effect31302"
       is_visible="true" />
    <inkscape:path-effect
       effect="spiro"
       id="path-effect31298"
       is_visible="true" />
    <inkscape:path-effect
       effect="spiro"
       id="path-effect31294"
       is_visible="true" />
    <inkscape:path-effect
       effect="spiro"
       id="path-effect31290"
       is_visible="true" />
    <inkscape:path-effect
       effect="spiro"
       id="path-effect31286"
       is_visible="true" />
    <inkscape:path-effect
       effect="spiro"
       id="path-effect31282"
       is_visible="true" />
    <inkscape:path-effect
       effect="spiro"
       id="path-effect31260"
       is_visible="true" />
    <inkscape:path-effect
       effect="spiro"
       id="path-effect31256"
       is_visible="true" />
    <inkscape:path-effect
       effect="spiro"
       id="path-effect31252"
       is_visible="true" />
    <inkscape:path-effect
       effect="spiro"
       id="path-effect31248"
       is_visible="true" />
    <inkscape:path-effect
       effect="spiro"
       id="path-effect31244"
       is_visible="true" />
    <inkscape:path-effect
       effect="spiro"
       id="path-effect31236"
       is_visible="true" />
    <inkscape:path-effect
       effect="spiro"
       id="path-effect31226"
       is_visible="true" />
    <inkscape:path-effect
       effect="spiro"
       id="path-effect31212"
       is_visible="true" />
    <inkscape:path-effect
       effect="spiro"
       id="path-effect31208"
       is_visible="true" />
    <inkscape:path-effect
       effect="spiro"
       id="path-effect31196"
       is_visible="true" />
    <inkscape:path-effect
       effect="spiro"
       id="path-effect31192"
       is_visible="true" />
    <inkscape:path-effect
       effect="spiro"
       id="path-effect31188"
       is_visible="true" />
    <inkscape:path-effect
       effect="spiro"
       id="path-effect31184"
       is_visible="true" />
    <inkscape:path-effect
       effect="spiro"
       id="path-effect31180"
       is_visible="true" />
    <inkscape:path-effect
       effect="spiro"
       id="path-effect31176"
       is_visible="true" />
    <inkscape:path-effect
       effect="simplify"
       id="path-effect376"
       is_visible="true"
       steps="1"
       threshold="0.5"
       smooth_angles="360"
       helper_size="0"
       simplify_individual_paths="false"
       simplify_just_coalesce="false"
       simplifyindividualpaths="false"
       simplifyJustCoalesce="false" />
    <inkscape:path-effect
       effect="spiro"
       id="path-effect350"
       is_visible="true" />
    <inkscape:path-effect
       effect="spiro"
       id="path-effect344"
       is_visible="true" />
    <inkscape:path-effect
       effect="spiro"
       id="path-effect266"
       is_visible="true" />
    <inkscape:path-effect
       effect="spiro"
       id="path-effect262"
       is_visible="true" />
    <inkscape:path-effect
       effect="spiro"
       id="path-effect258"
       is_visible="true" />
    <inkscape:path-effect
       effect="spiro"
       id="path-effect254"
       is_visible="true" />
    <inkscape:path-effect
       effect="spiro"
       id="path-effect250"
       is_visible="true" />
    <inkscape:path-effect
       effect="spiro"
       id="path-effect246"
       is_visible="true" />
    <inkscape:path-effect
       effect="spiro"
       id="path-effect242"
       is_visible="true" />
    <inkscape:path-effect
       effect="spiro"
       id="path-effect238"
       is_visible="true" />
    <inkscape:path-effect
       effect="spiro"
       id="path-effect234"
       is_visible="true" />
    <inkscape:path-effect
       effect="spiro"
       id="path-effect230"
       is_visible="true" />
    <inkscape:path-effect
       effect="spiro"
       id="path-effect226"
       is_visible="true" />
    <inkscape:path-effect
       effect="spiro"
       id="path-effect222"
       is_visible="true" />
    <inkscape:path-effect
       effect="spiro"
       id="path-effect218"
       is_visible="true" />
    <inkscape:path-effect
       effect="spiro"
       id="path-effect210"
       is_visible="true" />
    <inkscape:path-effect
       effect="spiro"
       id="path-effect206"
       is_visible="true" />
    <inkscape:path-effect
       effect="spiro"
       id="path-effect202"
       is_visible="true" />
    <inkscape:path-effect
       effect="spiro"
       id="path-effect198"
       is_visible="true" />
    <inkscape:path-effect
       effect="spiro"
       id="path-effect194"
       is_visible="true" />
    <inkscape:path-effect
       effect="spiro"
       id="path-effect190"
       is_visible="true" />
    <inkscape:path-effect
       effect="spiro"
       id="path-effect182"
       is_visible="true" />
    <inkscape:path-effect
       effect="spiro"
       id="path-effect178"
       is_visible="true" />
    <inkscape:path-effect
       effect="spiro"
       id="path-effect174"
       is_visible="true" />
    <inkscape:path-effect
       effect="spiro"
       id="path-effect170"
       is_visible="true" />
    <inkscape:path-effect
       effect="spiro"
       id="path-effect162"
       is_visible="true" />
    <inkscape:path-effect
       effect="spiro"
       id="path-effect158"
       is_visible="true" />
    <inkscape:path-effect
       effect="spiro"
       id="path-effect154"
       is_visible="true" />
    <inkscape:path-effect
       effect="spiro"
       id="path-effect150"
       is_visible="true" />
    <inkscape:path-effect
       effect="spiro"
       id="path-effect146"
       is_visible="true" />
    <inkscape:path-effect
       effect="spiro"
       id="path-effect142"
       is_visible="true" />
    <inkscape:path-effect
       effect="spiro"
       id="path-effect138"
       is_visible="true" />
    <inkscape:path-effect
       effect="spiro"
       id="path-effect116"
       is_visible="true" />
    <inkscape:path-effect
       effect="spiro"
       id="path-effect112"
       is_visible="true" />
    <inkscape:path-effect
       effect="spiro"
       id="path-effect15879"
       is_visible="true" />
    <inkscape:path-effect
       effect="spiro"
       id="path-effect15875"
       is_visible="true" />
    <inkscape:path-effect
       effect="spiro"
       id="path-effect15740"
       is_visible="true" />
    <inkscape:path-effect
       effect="spiro"
       id="path-effect15736"
       is_visible="true" />
    <inkscape:path-effect
       effect="spiro"
       id="path-effect15732"
       is_visible="true" />
    <inkscape:path-effect
       effect="spiro"
       id="path-effect15726"
       is_visible="true" />
    <inkscape:path-effect
       effect="spiro"
       id="path-effect15707"
       is_visible="true" />
    <inkscape:path-effect
       effect="spiro"
       id="path-effect15703"
       is_visible="true" />
    <inkscape:path-effect
       effect="spiro"
       id="path-effect15699"
       is_visible="true" />
    <inkscape:path-effect
       effect="spiro"
       id="path-effect15740-2"
       is_visible="true" />
    <inkscape:path-effect
       effect="spiro"
       id="path-effect15740-3"
       is_visible="true" />
    <inkscape:path-effect
       effect="spiro"
       id="path-effect15740-2-1"
       is_visible="true" />
    <inkscape:path-effect
       effect="spiro"
       id="path-effect116-5"
       is_visible="true" />
    <inkscape:path-effect
       effect="spiro"
       id="path-effect266-7"
       is_visible="true" />
    <inkscape:path-effect
       effect="spiro"
       id="path-effect31236-3"
       is_visible="true" />
    <inkscape:path-effect
       effect="spiro"
       id="path-effect31602-8"
       is_visible="true" />
    <inkscape:path-effect
       effect="spiro"
       id="path-effect58037-5"
       is_visible="true" />
    <inkscape:path-effect
       effect="spiro"
       id="path-effect58037-8"
       is_visible="true" />
    <inkscape:path-effect
       effect="spiro"
       id="path-effect58037-9"
       is_visible="true" />
    <inkscape:path-effect
       effect="spiro"
       id="path-effect58037-56"
       is_visible="true" />
    <inkscape:path-effect
       effect="spiro"
       id="path-effect58037-5-2"
       is_visible="true" />
    <inkscape:path-effect
       effect="spiro"
       id="path-effect58059-2"
       is_visible="true" />
    <inkscape:path-effect
       effect="spiro"
       id="path-effect58037-8-0"
       is_visible="true" />
    <inkscape:path-effect
       effect="spiro"
       id="path-effect58037-9-6"
       is_visible="true" />
    <inkscape:path-effect
       effect="spiro"
       id="path-effect58079-6"
       is_visible="true" />
  </defs>
  <sodipodi:namedview
     id="base"
     pagecolor="#ffffff"
     bordercolor="#666666"
     borderopacity="1.0"
     inkscape:pageopacity="0.0"
     inkscape:pageshadow="2"
     inkscape:zoom="2"
     inkscape:cx="140.88351"
     inkscape:cy="82.451918"
     inkscape:document-units="mm"
     inkscape:current-layer="layer6"
     showgrid="false"
     units="px"
     gridtolerance="1"
     objecttolerance="1"
     inkscape:window-width="1920"
     inkscape:window-height="1017"
     inkscape:window-x="-8"
     inkscape:window-y="-8"
     inkscape:window-maximized="1"
     showguides="true" />
  <metadata
     id="metadata15692">
    <rdf:RDF>
      <cc:Work
         rdf:about="">
        <dc:format>image/svg+xml</dc:format>
        <dc:type
           rdf:resource="http://purl.org/dc/dcmitype/StillImage" />
        <dc:title></dc:title>
      </cc:Work>
    </rdf:RDF>
  </metadata>
  <g
     inkscape:label="Layer 1"
     inkscape:groupmode="layer"
     id="layer1"
     transform="translate(0,-243.55415)" />
  <g
     inkscape:groupmode="layer"
     id="layer6"
     inkscape:label="Layer 2">
    <g
       id="g86072">
      <path
         inkscape:connector-curvature="0"
         id="path85555-3"
         d="m 34.590821,18.321521 c 0.121162,-0.383671 3.633263,-4.896537 3.633263,-4.896537 l 5.985975,-0.755218 c 0,0 5.455444,1.574644 5.793253,2.490992 0.337812,0.916347 1.69726,3.580805 1.950484,4.151135 0.253224,0.57033 1.164047,3.572061 0.950622,5.078371 -0.213425,1.50631 -1.061601,4.192006 -1.061601,4.192006 0,0 -0.366185,-1.187594 -0.779301,-2.515451 -0.413118,-1.327857 -1.0336,-4.021224 -1.651935,-4.843706 -0.618337,-0.822482 -2.079321,-2.298808 -2.828105,-2.672127 -0.748783,-0.373319 -2.209233,-1.381923 -2.95748,-1.287521 -0.748246,0.0944 -2.693902,0.15276 -3.395216,0.387425 -0.701316,0.234664 -2.598965,1.368728 -3.019217,1.977247 -0.420254,0.608521 -1.240054,3.565465 -1.240054,3.565465"
         style="opacity:1;fill:#00d455;fill-opacity:1;fill-rule:nonzero;stroke:none;stroke-width:0.26458332;stroke-opacity:1" />
      <path
         inkscape:connector-curvature="0"
         id="path85573"
         d="m 25.163426,11.44443 1.30962,-5.79975 c 0,0 -1.543481,-2.15152 -2.291836,-2.33861 -0.748355,-0.18709 -2.572469,-1.1693 -3.46114,0.0935 -0.888671,1.26285 -1.262849,3.32083 -1.169304,3.78855 0.09354,0.46772 0.795127,0.8419 0.795127,0.8419 0,0 -1.262849,0.51449 -1.309621,0.3274 -0.04677,-0.18708 -0.233861,-2.10474 -0.233861,-2.38538 0,-0.28063 0.42095,-2.80633 0.935443,-3.32082 0.514494,-0.51449 1.028988,-1.49671 1.449938,-1.44994 0.420949,0.0468 3.835317,0.18709 4.349811,0.28064 0.514494,0.0935 2.011202,1.02898 2.104748,1.4967 0.09354,0.46773 0.09354,2.75956 0.09354,2.75956 l 1.730571,-2.57247 3.086962,-1.07576 c 0,0 1.449938,-0.28063 1.964431,0.32741 0.514493,0.60804 1.356394,2.15152 1.356394,2.33861 0,0.18709 0.42095,1.30962 0.280633,1.77734 -0.140316,0.46772 -0.187089,1.21608 -0.187089,1.21608 0,0 -0.888672,-1.3564 -1.028989,-1.6838 C 34.798488,5.73818 34.003362,4.52211 33.769499,4.42856 33.535639,4.33506 32.9276,4.00761 32.085702,4.1947 c -0.841899,0.18709 -2.291837,1.07576 -2.432154,1.40317 -0.140316,0.3274 -0.09354,0.65481 -0.187086,1.1693 -0.09355,0.51449 -0.374179,1.07576 -0.280633,1.63703 0.09354,0.56126 0.374176,1.40316 0.374176,1.77734 0,0.37418 0.514495,1.40316 0.514495,1.40316"
         style="opacity:1;fill:#00d455;fill-opacity:1;fill-rule:nonzero;stroke:none;stroke-width:0.26458332;stroke-opacity:1" />
      <path
         inkscape:connector-curvature="0"
         id="path85303"
         d="m 14.598191,46.314025 1.051273,1.068376 c 0,0 0.19114,0.381564 0.573418,0.53419 0.382279,0.152626 0.573419,0 1.242407,0.152626 0.668989,0.152623 1.720256,0.07631 2.198106,0.07631 0.477849,0 1.146837,-0.07631 1.146837,-0.07631 l 1.529116,-0.152626 0.668989,-0.30525 c 0,0 0.382279,-0.152626 0.955698,-0.07632 0.573418,0.07632 1.337977,0.152625 1.337977,0.152625 0,0 0.286709,0.07631 0.955698,0.07631 0.668988,0 1.911394,0.228938 2.580385,0.07632 0.668987,-0.152627 2.102533,-0.457879 2.102533,-0.457879 l 0.860128,-0.305249 0.764559,-0.228938 h 1.433547 l 1.146837,0.152625 h 0.764559"
         style="opacity:1;fill:#ececec;fill-opacity:1;fill-rule:nonzero;stroke:#666666;stroke-width:0.24154806;stroke-opacity:1" />
      <path
         inkscape:connector-curvature="0"
         id="path85305"
         d="m 35.910258,47.077151 1.815824,-2.136753 0.66899,-2.51832 c 0,0 1.337976,-3.968256 1.337976,-4.34982 0,-0.381564 0.38228,-5.418198 0.286709,-5.876074 -0.09557,-0.457876 0.19114,-3.663006 0.09558,-4.044571 -0.09558,-0.381563 -1.051269,-3.891945 -1.051269,-3.891945 l -1.529119,-3.128819 c 0,0 -1.051268,-2.136754 -1.433546,-2.518317 -0.382281,-0.381563 -1.911396,-1.984129 -1.911396,-1.984129 0,0 -0.764559,-2.060441 -0.860128,-2.518317 -0.09557,-0.457876 -1.337978,-2.213067 -1.337978,-2.213067 l -3.249374,-0.381564 c 0,0 -3.249371,0 -3.918359,0 -0.668988,0 -2.484815,0.381564 -3.153803,0.83944 -0.668988,0.457876 -1.529116,0.610501 -1.624687,1.831503 -0.09557,1.221003 -0.09557,2.594631 -0.09557,2.594631 0,0 0.09557,-0.152626 -0.19114,0.6105 -0.286709,0.763127 -1.051267,1.984129 -1.242407,2.823569 -0.19114,0.839439 -0.764558,1.831504 -0.955697,2.289379 -0.19114,0.457876 -1.720256,3.73932 -1.815827,4.120884 -0.09557,0.381562 -0.09557,0.915751 -0.191139,1.297314 -0.09557,0.381565 -0.955698,3.052508 -1.146837,4.273509 -0.19114,1.221001 -0.38228,3.357757 -0.38228,3.815633 0,0.457876 -0.191139,3.968258 -0.191139,3.968258"
         style="opacity:1;fill:#ececec;fill-opacity:1;fill-rule:nonzero;stroke:#666666;stroke-width:0.24154806;stroke-opacity:1" />
      <path
         inkscape:connector-curvature="0"
         id="path85333"
         d="m 13.811122,39.9669 c -0.130635,0.383738 -0.03371,0.817744 -0.07178,1.219185 0.03962,1.075913 -0.100214,2.140135 -0.480593,3.172434 -0.149204,0.493104 -0.102063,1.032161 0.0012,1.5147 0.498809,0.161048 1.05259,0.278299 1.546992,0.46047 3.843245,0.211334 7.697761,0.276117 11.546118,0.416096 1.82282,0.05215 3.646857,0.127528 5.468104,0.181272 0.49049,-0.05178 0.972083,-0.197623 1.473123,-0.136591 0.598885,0.0043 1.204417,0.07113 1.792137,0.07968 0.04236,-0.231416 -0.472491,-0.224621 -0.66074,-0.341939 -6.836319,-2.20774 -13.676102,-4.409787 -20.533421,-6.575421 l -0.06677,0.0083 z"
         style="opacity:1;fill:#ccff00;fill-opacity:1;fill-rule:nonzero;stroke:#ccff00;stroke-width:0.06038702;stroke-opacity:1" />
      <path
         inkscape:connector-curvature="0"
         id="path85335"
         d="m 26.403736,11.57077 c -1.165559,0.01729 -2.373627,-0.04124 -3.467788,0.343892 -0.908446,0.277141 -1.763159,0.715717 -2.41599,1.292756 -0.549021,0.653965 -0.386013,1.495362 -0.462047,2.240346 -0.0039,0.885503 -0.04411,1.770667 -0.514894,2.587315 -0.597034,1.114299 -0.961674,2.287467 -1.431103,3.434614 -0.75575,1.71951 -1.592835,3.418371 -2.278599,5.156461 -0.168365,1.132667 -0.465892,2.236135 -0.802259,3.344852 -0.704032,2.307514 -0.889889,4.68528 -0.976893,7.051211 -0.0463,0.967742 -0.09404,1.935438 -0.144314,2.903053 0.438189,0.265843 1.056667,0.356861 1.56471,0.554965 6.369075,2.049086 12.762691,4.06173 19.111915,6.142459 0.424098,0.08319 0.748363,0.487906 1.213118,0.384984 0.693007,-0.656635 1.254169,-1.397855 1.861034,-2.104594 0.543425,-2.136824 1.250886,-4.240639 1.8811,-6.361096 0.242578,-1.221901 0.214892,-2.467328 0.315182,-3.699985 0.124448,-2.17761 0.0758,-4.357878 0.230191,-6.533777 -0.397562,-1.386868 -0.709875,-2.794101 -1.160866,-4.168224 -0.866093,-1.69224 -1.577209,-3.441514 -2.617035,-5.073369 -0.609538,-0.8832 -1.499909,-1.616714 -2.184012,-2.457974 -0.371849,-0.87801 -0.60482,-1.791667 -0.956416,-2.672087 -0.376184,-0.644444 -0.706877,-1.323426 -1.206214,-1.911242 -0.882193,-0.247663 -1.846716,-0.258209 -2.762406,-0.39914 -0.920945,-0.14511 -1.864451,-0.0382 -2.796414,-0.05542 z"
         style="opacity:1;fill:#ccff00;fill-opacity:1;fill-rule:nonzero;stroke:#ccff00;stroke-width:0.06038702;stroke-opacity:1" />
      <path
         inkscape:connector-curvature="0"
         id="path85337"
         d="m 14.959949,46.325258 c -0.296047,0.09407 0.124579,0.327486 0.195269,0.457023 0.373777,0.315337 0.584094,0.741433 0.996585,1.021956 0.405244,0.185512 0.901654,0.102304 1.340738,0.210997 1.556233,0.17104 3.144172,0.03651 4.684663,-0.169367 0.557415,-0.11721 1.056317,-0.451713 1.661338,-0.361499 1.551458,0.118822 3.10351,0.359224 4.666579,0.30722 1.084249,-0.154363 2.171025,-0.362398 3.175246,-0.731321 0.135394,-0.271219 -0.567564,-0.114425 -0.77662,-0.1798 -5.313513,-0.198139 -10.63495,-0.319869 -15.943798,-0.555209 z"
         style="opacity:1;fill:#ccff00;fill-opacity:1;fill-rule:nonzero;stroke:#ccff00;stroke-width:0.06038702;stroke-opacity:1" />
      <path
         inkscape:connector-curvature="0"
         id="path85369"
         d="m 22.564613,47.841709 1.624687,1.221002 -0.621204,1.373628 -1.146838,1.831504 -0.573418,0.724971"
         style="opacity:1;fill:none;fill-opacity:1;fill-rule:nonzero;stroke:#000000;stroke-width:0.24154806;stroke-opacity:1" />
      <path
         inkscape:connector-curvature="0"
         id="path85371"
         d="m 19.984229,47.536458 -1.099053,0.648657 c 0,0 -0.764557,1.14469 -0.955697,1.526253 -0.19114,0.381565 -0.573419,1.221003 -0.668989,1.411785 -0.09557,0.190781 -0.382279,1.335471 -0.382279,1.335471"
         style="opacity:1;fill:none;fill-opacity:1;fill-rule:nonzero;stroke:#000000;stroke-width:0.24154806;stroke-opacity:1" />
      <path
         inkscape:connector-curvature="0"
         id="path85373"
         d="m 21.46556,47.803553 -0.907913,1.945972 c 0,0 -0.238924,0.6105 -0.382278,1.106533 -0.143355,0.496033 -0.668989,1.373628 -0.668989,1.373628 l -0.191139,0.41972"
         style="opacity:1;fill:none;fill-opacity:1;fill-rule:nonzero;stroke:#000000;stroke-width:0.24154806;stroke-opacity:1" />
      <path
         inkscape:connector-curvature="0"
         id="path85369-1"
         d="m 29.263894,47.745119 -1.397288,1.388887 0.853434,1.291705 1.453408,1.68705 0.693617,0.654581"
         style="opacity:1;fill:none;fill-opacity:1;fill-rule:nonzero;stroke:#000000;stroke-width:0.24154806;stroke-opacity:1" />
      <path
         inkscape:connector-curvature="0"
         id="path85371-2"
         d="m 31.766482,47.157488 1.200954,0.520881 c 0,0 0.955704,1.049123 1.211173,1.405875 0.255469,0.356753 0.77964,1.145834 0.907375,1.324211 0.127731,0.178375 0.610194,1.280335 0.610194,1.280335"
         style="opacity:1;fill:none;fill-opacity:1;fill-rule:nonzero;stroke:#000000;stroke-width:0.24154806;stroke-opacity:1" />
      <path
         inkscape:connector-curvature="0"
         id="path85373-9"
         d="m 30.345742,47.585805 1.236635,1.826834 c 0,0 0.342496,0.5782 0.570491,1.053603 0.227996,0.475402 0.900759,1.286421 0.900759,1.286421 l 0.262084,0.394542"
         style="opacity:1;fill:none;fill-opacity:1;fill-rule:nonzero;stroke:#000000;stroke-width:0.24154806;stroke-opacity:1" />
      <path
         inkscape:connector-curvature="0"
         id="path85431"
         d="m 30.451479,47.4869 c -0.134613,0.01483 -0.381183,0.08742 -0.25721,0.225573 0.612779,0.934271 1.29426,1.843547 1.77188,2.830064 0.30472,0.580709 0.768573,1.093152 1.141528,1.644521 0.104722,0.141737 0.3279,-0.0097 0.38732,-0.103338 C 33.19661,51.536977 32.712738,51.061732 32.413632,50.51179 32.034884,49.743056 31.563379,49.007231 31.063593,48.284742 30.878367,48.02542 30.721064,47.750026 30.518,47.500708 c -0.0196,-0.01079 -0.04324,-0.01479 -0.06652,-0.01381 z"
         style="opacity:1;fill:#999999;fill-opacity:1;fill-rule:nonzero;stroke:#000000;stroke-width:0.03019351;stroke-opacity:1" />
      <path
         inkscape:connector-curvature="0"
         id="path85433"
         d="m 31.844682,47.032763 c -0.165402,0.01528 -0.294481,0.236278 -0.0912,0.2951 0.340069,0.18191 0.727462,0.309766 1.064514,0.488401 0.892936,0.937578 1.657011,1.948761 2.25839,3.027322 0.168435,0.284212 0.248915,0.601178 0.431175,0.877951 0.105417,0.07356 0.343759,0.03269 0.373791,-0.07862 -0.213099,-0.605439 -0.522958,-1.190713 -0.902806,-1.74229 C 34.530987,49.205473 34.021892,48.536776 33.437039,47.90958 33.265326,47.731031 33.14447,47.503969 32.85386,47.431324 32.520508,47.305772 32.217104,47.114132 31.861511,47.032657 l -0.0089,-1.06e-4 z"
         style="opacity:1;fill:#999999;fill-opacity:1;fill-rule:nonzero;stroke:#000000;stroke-width:0.03019351;stroke-opacity:1" />
      <path
         inkscape:connector-curvature="0"
         id="path85435"
         d="m 29.096553,47.630709 c -0.475741,0.477839 -0.96366,0.949587 -1.417028,1.441355 -0.06799,0.142253 0.129193,0.272375 0.175874,0.404761 0.628121,1.039916 1.474871,1.980676 2.333872,2.904636 0.185348,0.175218 0.348759,0.38007 0.575416,0.517158 0.151918,-0.03713 0.350773,-0.215591 0.173492,-0.327273 -0.74345,-0.687068 -1.367201,-1.451083 -1.986021,-2.208377 -0.298809,-0.395179 -0.582164,-0.800421 -0.811069,-1.224613 0.416067,-0.43729 0.873392,-0.855925 1.288497,-1.290658 0.01511,-0.08211 -0.217483,-0.290892 -0.333033,-0.216989 z"
         style="opacity:1;fill:#999999;fill-opacity:1;fill-rule:nonzero;stroke:#000000;stroke-width:0.03019351;stroke-opacity:1" />
      <path
         inkscape:connector-curvature="0"
         id="path85437"
         d="m 19.976864,47.422248 c 0.114512,0.09761 0.238039,0.258449 0.0088,0.323465 -0.330451,0.213231 -0.716542,0.386717 -0.996314,0.643304 -0.853001,1.272908 -1.568879,2.613427 -1.884067,4.040873 -0.06273,0.168025 -0.482987,0.112669 -0.405997,-0.08226 0.146396,-0.800651 0.475418,-1.569013 0.850116,-2.317821 0.333107,-0.677505 0.759013,-1.325326 1.181053,-1.967825 0.383973,-0.217599 0.752529,-0.461631 1.145979,-0.663004 0.04009,-0.02304 0.06736,0.01187 0.100454,0.02327 z"
         style="opacity:1;fill:#999999;fill-opacity:1;fill-rule:nonzero;stroke:#000000;stroke-width:0.03019351;stroke-opacity:1" />
      <path
         inkscape:connector-curvature="0"
         id="path85439"
         d="m 21.38848,47.721565 c 0.15333,-0.0029 0.394277,0.108347 0.24332,0.240613 -0.488773,0.99523 -0.969562,1.99401 -1.286292,3.034367 -0.211197,0.581328 -0.562371,1.122805 -0.828623,1.684971 -0.123426,0.118939 -0.480435,-0.01628 -0.362968,-0.175955 0.264887,-0.587581 0.639965,-1.142082 0.828095,-1.747414 0.280086,-0.952955 0.75749,-1.862074 1.168388,-2.783664 0.05112,-0.100236 0.04251,-0.269545 0.23808,-0.252918 z"
         style="opacity:1;fill:#999999;fill-opacity:1;fill-rule:nonzero;stroke:#000000;stroke-width:0.03019351;stroke-opacity:1" />
      <path
         inkscape:connector-curvature="0"
         id="path85441"
         d="m 22.727106,47.725411 c 0.55567,0.430613 1.147986,0.83958 1.678549,1.285837 -0.0039,0.18826 -0.158247,0.374996 -0.219716,0.562444 -0.427676,1.019864 -1.064697,1.971861 -1.699844,2.916587 -0.158249,0.197082 -0.278105,0.427723 -0.493966,0.588305 -0.131102,0.04117 -0.31174,-0.07639 -0.318921,-0.17115 0.621064,-0.796228 1.143025,-1.643619 1.642716,-2.491924 0.237393,-0.426403 0.426053,-0.869051 0.624749,-1.307132 -0.506788,-0.388242 -1.041705,-0.760982 -1.526149,-1.162926 -0.03717,-0.08563 0.199539,-0.283661 0.312582,-0.220041 z"
         style="opacity:1;fill:#999999;fill-opacity:1;fill-rule:nonzero;stroke:#000000;stroke-width:0.03019351;stroke-opacity:1" />
      <path
         sodipodi:nodetypes="ccc"
         inkscape:connector-curvature="0"
         id="path85455"
         d="m 13.668359,42.706159 v -1.34903 l 0.168946,-1.645817"
         style="opacity:1;fill:#e9c6af;fill-opacity:1;fill-rule:nonzero;stroke:#e9c6af;stroke-width:0.24154806;stroke-opacity:1" />
      <path
         inkscape:connector-curvature="0"
         id="path85473"
         d="m 27.352242,11.539022 c -1.612556,0.06198 -3.331354,-0.149597 -4.82086,0.47293 -0.899932,0.32443 -1.811321,0.807696 -2.280422,1.52044 -0.423959,1.525224 -0.0159,3.1663 -0.829438,4.624686 -1.09558,2.695805 -2.348008,5.34825 -3.44416,8.043323 -0.469457,1.501735 -0.749201,3.037728 -1.206983,4.54274 -0.987067,3.931496 -0.6717,7.968592 -1.106267,11.941727 -0.220269,0.326186 -0.122934,0.752942 -0.294421,1.107365 -0.211521,0.69403 -0.401403,1.454716 -0.111937,2.140246 0.64808,0.218363 1.527372,0.271053 1.837078,0.858794 0.478523,0.489452 0.90209,1.194792 1.798254,1.208943 1.682915,0.215102 3.41293,0.117702 5.087121,-0.09649 0.769728,-0.17072 1.535806,-0.462311 2.353562,-0.326797 1.487908,0.097 3.006055,0.382703 4.498127,0.194357 0.981836,-0.191137 2.052404,-0.294764 2.907596,-0.758057 0.520708,-0.211377 1.184478,-0.0602 1.758148,-0.110973 0.729724,-0.0028 1.468393,0.0011 2.171599,0.157178 0.615766,-0.219026 0.835778,-0.838848 1.269102,-1.220854 0.593795,-0.587295 0.949026,-1.288393 1.08219,-2.032798 0.547028,-1.989865 1.262174,-3.954555 1.684666,-5.963934 0.268909,-3.225215 0.33649,-6.464972 0.392931,-9.693004 -0.520775,-1.823992 -0.844693,-3.700446 -1.798952,-5.425009 -0.699584,-1.348756 -1.289172,-2.749751 -2.193064,-4.021484 -0.619628,-0.75457 -1.43267,-1.427014 -1.966413,-2.211868 -0.54593,-1.497107 -0.984787,-3.083268 -2.106404,-4.384629 -0.704396,-0.413959 -1.660744,-0.333547 -2.481977,-0.481032 -0.728513,-0.07997 -1.464889,-0.08915 -2.199076,-0.0858 z m 3.33057,1.551144 c 0.322437,0.107782 0.796108,0.124675 1.008335,0.35548 -0.536426,0.533324 -1.5675,0.650685 -2.342766,0.429556 -0.364813,-0.354731 0.294186,-0.715032 0.545233,-0.958379 0.263068,0.05778 0.526133,0.115562 0.789198,0.173343 z m -6.758575,0.307784 c 0.43503,0.04666 0.802857,0.454557 0.799277,0.79085 -0.280111,0.349253 -0.963203,0.191494 -1.392668,0.151582 -0.351287,-0.08489 -1.051322,-0.187948 -1.021776,-0.555354 0.496868,-0.197815 1.065078,-0.323693 1.615167,-0.387078 z m 3.654238,0.822895 c 0.395553,0.254957 0.945573,0.487767 1.173741,0.814865 0.05019,0.571613 -0.500951,1.073098 -1.211074,1.125444 -0.728091,0.179079 -1.165546,-0.479926 -1.628792,-0.786974 0.506469,-0.405741 1.039054,-0.903492 1.666125,-1.153335 z m 8.141164,10.31905 c 0.699427,0.06397 1.462059,0.05413 2.124935,0.165891 0.132934,0.311614 0.367594,0.739399 -0.09874,0.937812 -0.432488,0.316521 -1.144669,0.516345 -1.142171,1.068227 -0.469911,1.393008 -0.400387,2.916394 -1.287019,4.203158 -0.324199,0.448768 -0.859657,0.831793 -1.098683,1.289406 0.298346,0.271409 0.953485,0.497951 0.705763,0.959432 -0.286777,0.991435 -1.0832,1.90887 -2.281481,2.328054 -0.499482,0.1608 -1.014092,0.453775 -1.55699,0.462724 -0.363591,-0.538065 -0.677061,-1.131605 -0.795169,-1.74282 0.03427,-0.796752 -0.06954,-1.721213 0.566326,-2.392967 0.428588,-0.178404 0.975075,0.09504 1.394162,-0.05247 0.534591,-1.166798 0.272264,-2.436689 0.345007,-3.65123 0.03549,-0.809468 -0.07541,-1.658549 -0.713289,-2.323366 -0.104313,-0.212032 -0.590321,-0.539041 -0.0909,-0.63882 0.619977,-0.259533 1.246264,-0.573318 1.899722,-0.738883 0.676177,0.04195 1.352355,0.0839 2.028533,0.125847 z M 23.11264,24.8836 c 0.603264,0.07508 1.286423,0.006 1.838226,0.209264 0.46012,0.323123 0.818265,0.72464 1.211235,1.096995 -0.63852,0.534376 -0.566776,1.361567 -0.82737,2.028888 -0.308713,0.728631 0.266997,1.439752 0.367283,2.165731 0.197152,0.677046 0.28711,1.421748 0.720476,2.017857 0.458071,0.06546 1.038258,-0.05759 1.435974,0.161567 0.509025,0.801718 0.450448,1.759722 0.342334,2.623099 -0.157478,0.502711 -0.341056,1.059934 -0.782478,1.448003 -0.954605,-0.259338 -1.937968,-0.596571 -2.674833,-1.166004 -0.600803,-0.53707 -1.104692,-1.25547 -1.104466,-1.993221 0.165486,-0.378626 0.962303,-0.445128 0.792184,-0.934086 -0.04953,-0.414989 -0.01246,-0.872043 -0.519955,-1.119647 -0.9341,-0.84321 -2.040248,-1.560423 -2.934183,-2.429337 -0.732429,-0.928772 -0.736795,-2.07632 -1.018042,-3.123751 0.554678,-0.372471 1.106909,-0.826123 1.740916,-1.066341 0.4709,0.02699 0.941799,0.05399 1.412699,0.08098 z"
         style="opacity:1;fill:#d38d5f;fill-opacity:1;fill-rule:nonzero;stroke:#000000;stroke-width:0.08540013;stroke-opacity:1" />
      <path
         inkscape:connector-curvature="0"
         id="path85500"
         d="m 30.860937,18.238999 c 0,0 -0.467722,0.771741 -0.748355,1.005602 -0.280633,0.23386 -0.608036,0.327405 -1.941044,0.280633 -1.333008,-0.04677 -2.712786,-0.163703 -2.806331,-0.257247 -0.09354,-0.09354 -0.491107,-0.584652 -0.491107,-0.841899 0,-0.257247 -0.09355,-1.590254 -0.187089,-1.660412 -0.09354,-0.07016 -0.280633,-0.116931 -0.795127,-0.350791 -0.514494,-0.233861 -1.028988,-0.514494 -1.543481,-0.795127 -0.514494,-0.280633 -1.145918,-0.818513 -1.192691,-0.982216 -0.04677,-0.163702 -0.257246,-0.935443 0.02339,-1.145918 0.280633,-0.210475 3.858704,-1.169304 4.115951,-1.216076 0.257247,-0.04677 3.624843,-0.07016 4.162723,0.02339 0.537879,0.09354 2.221677,0.42095 2.221677,0.42095 0,0 0.841898,1.169304 0.818512,1.356392 -0.02339,0.187089 0.210476,0.631425 -0.23386,1.449938 -0.444336,0.818513 -1.403165,2.712785 -1.403165,2.712785 z"
         style="opacity:1;fill:#e9c6af;fill-opacity:1;fill-rule:nonzero;stroke:#e9c6af;stroke-width:0.26458332;stroke-opacity:1" />
      <path
         inkscape:connector-curvature="0"
         id="path85339"
         d="m 26.166764,15.668054 0.878515,0.728477 0.912304,-0.02698 0.709569,-0.40471 0.168945,-0.647534 -1.148827,-0.755456 -1.081248,0.701496 z"
         style="opacity:1;fill:#ccff00;fill-opacity:1;fill-rule:nonzero;stroke:#000000;stroke-width:0.24154806;stroke-opacity:1" />
      <path
         inkscape:connector-curvature="0"
         id="path85352"
         d="m 24.173212,13.725452 c 0,0 -1.655662,0.296786 -1.689451,0.404709 -0.03379,0.107922 0.70957,0.485651 1.04746,0.45867 0.33789,-0.02698 1.04746,0.161883 1.250194,-0.107923 0.202734,-0.269805 -0.608203,-0.755456 -0.608203,-0.755456 z"
         style="opacity:1;fill:#ccff00;fill-opacity:1;fill-rule:nonzero;stroke:#000000;stroke-width:0.24154806;stroke-opacity:1" />
      <path
         inkscape:connector-curvature="0"
         id="path85352-4"
         d="m 30.067231,13.305153 c 0,0 1.655662,0.296786 1.689451,0.404709 0.03379,0.107922 -0.70957,0.485651 -1.047461,0.45867 -0.33789,-0.02698 -1.047459,0.161883 -1.250193,-0.107923 -0.202734,-0.269805 0.608203,-0.755456 0.608203,-0.755456 z"
         style="opacity:1;fill:#ccff00;fill-opacity:1;fill-rule:nonzero;stroke:#000000;stroke-width:0.24154806;stroke-opacity:1" />
      <path
         inkscape:connector-curvature="0"
         id="path85475"
         d="m 27.665729,14.651894 c -0.307574,0.146741 -0.565595,0.354643 -0.842349,0.535903 -0.191038,0.137611 -0.39787,0.272769 -0.530719,0.450982 -0.0024,0.118653 0.166168,0.181814 0.242145,0.271752 0.182652,0.142488 0.34335,0.310423 0.544341,0.432838 0.287639,0.01355 0.586153,-0.0038 0.873803,-0.0282 0.223867,-0.119056 0.456527,-0.240992 0.660124,-0.381084 0.05332,-0.183994 0.12018,-0.370759 0.143727,-0.557776 -0.08808,-0.151672 -0.295654,-0.233355 -0.441449,-0.346911 -0.198918,-0.122404 -0.382754,-0.266518 -0.593208,-0.373833 -0.01787,-0.0095 -0.03715,-0.0058 -0.05642,-0.0037 z"
         style="opacity:1;fill:#333333;fill-opacity:1;fill-rule:nonzero;stroke:#000000;stroke-width:0.02135004;stroke-opacity:1" />
      <path
         inkscape:connector-curvature="0"
         id="path85477"
         d="m 24.119755,13.774634 c -0.492416,0.103902 -0.998031,0.185932 -1.474435,0.326828 -0.128215,0.0951 0.08492,0.180886 0.177103,0.233854 0.24492,0.127072 0.521995,0.220109 0.819024,0.21456 0.327457,-0.0038 0.677653,0.09306 0.991622,-0.01472 0.184959,-0.07724 0.116871,-0.271865 0.0059,-0.373626 -0.137679,-0.140991 -0.293928,-0.279542 -0.473602,-0.382661 -0.01342,-0.01066 -0.02995,-0.0053 -0.04564,-0.0042 z"
         style="opacity:1;fill:#333333;fill-opacity:1;fill-rule:nonzero;stroke:#000000;stroke-width:0.02135004;stroke-opacity:1" />
      <path
         inkscape:connector-curvature="0"
         id="path85479"
         d="m 30.060482,13.365832 c -0.23155,0.15766 -0.509058,0.33 -0.56894,0.581921 -0.0085,0.17233 0.249647,0.215169 0.419379,0.215188 0.301984,-0.0061 0.60581,-0.04477 0.906651,-0.03894 0.280341,-0.06151 0.562122,-0.158165 0.778699,-0.315684 0.09057,-0.09405 -0.06262,-0.167756 -0.166469,-0.175795 -0.437708,-0.100843 -0.87939,-0.205207 -1.32547,-0.271459 l -0.02368,0.0026 z"
         style="opacity:1;fill:#333333;fill-opacity:1;fill-rule:nonzero;stroke:#000000;stroke-width:0.02135004;stroke-opacity:1" />
      <path
         inkscape:connector-curvature="0"
         id="path85481"
         d="m 24.023278,13.937496 0.274763,0.233708"
         style="opacity:1;fill:#333333;fill-opacity:1;fill-rule:nonzero;stroke:#ffffff;stroke-width:0.24154806;stroke-opacity:1" />
      <path
         inkscape:connector-curvature="0"
         id="path85483"
         d="m 30.64746,13.637015 0.131406,0.219399"
         style="opacity:1;fill:#333333;fill-opacity:1;fill-rule:nonzero;stroke:#ffffff;stroke-width:0.24154806;stroke-opacity:1" />
      <path
         inkscape:connector-curvature="0"
         id="path85494"
         d="M 27.314462,15.997938 27.17708,16.250723"
         style="opacity:1;fill:#333333;fill-opacity:1;fill-rule:nonzero;stroke:#000000;stroke-width:0.24154806;stroke-opacity:1" />
      <path
         inkscape:connector-curvature="0"
         id="path85496"
         d="m 28.007345,15.997938 0.13738,0.166933"
         style="opacity:1;fill:#333333;fill-opacity:1;fill-rule:nonzero;stroke:#000000;stroke-width:0.24154806;stroke-opacity:1" />
      <path
         inkscape:connector-curvature="0"
         id="path85498"
         d="m 25.862353,18.731392 1.256771,-0.975651 1.190625,0.01654 1.653645,0.115755 0.661459,0.926042"
         style="opacity:1;fill:#c87137;fill-opacity:1;fill-rule:nonzero;stroke:#000000;stroke-width:0.26458332;stroke-opacity:1" />
      <path
         inkscape:connector-curvature="0"
         id="path85528"
         d="m 19.942968,14.270963 -1.141015,-0.248047 c 0,0 -0.545703,-0.529166 -0.446484,-0.74414 0.09922,-0.214974 0.01654,-0.28112 0.264583,-0.644922 0.248047,-0.363802 0.429948,-0.677995 0.727604,-0.760677 0.297656,-0.08268 0.578776,-0.04961 0.744141,0 0.165364,0.04961 0.79375,0.248047 0.876432,0.297656 0.08268,0.04961 0.463021,0.181901 0.463021,0.181901"
         style="opacity:1;fill:none;fill-opacity:1;fill-rule:nonzero;stroke:#4d4d4d;stroke-width:0.26458332;stroke-opacity:1" />
      <path
         inkscape:connector-curvature="0"
         id="path85528-7"
         d="m 33.286123,13.826663 1.141015,-0.248047 c 0,0 0.545703,-0.529166 0.446484,-0.74414 -0.09922,-0.214974 -0.01654,-0.28112 -0.264583,-0.644922 -0.248047,-0.363802 -0.429948,-0.677995 -0.727604,-0.760677 -0.297656,-0.08268 -0.578776,-0.04961 -0.744141,0 -0.165364,0.04961 -0.79375,0.248047 -0.876432,0.297656 -0.08268,0.04961 -0.463021,0.181901 -0.463021,0.181901"
         style="opacity:1;fill:none;fill-opacity:1;fill-rule:nonzero;stroke:#4d4d4d;stroke-width:0.26458332;stroke-opacity:1" />
      <path
         inkscape:connector-curvature="0"
         id="path85545"
         d="m 19.608447,11.888535 c -0.535099,0.02852 -0.800489,0.590535 -1.039493,0.992355 -0.15542,0.263845 -0.206936,0.629416 0.05609,0.848203 0.295811,0.376706 0.84134,0.325581 1.254901,0.464341 0.213691,-0.07773 0.135911,-0.40904 0.252771,-0.589311 0.17348,-0.48699 0.622043,-0.778553 1.042782,-1.030906 0.182869,-0.199785 -0.165399,-0.333232 -0.316169,-0.37235 -0.40793,-0.127218 -0.815861,-0.315119 -1.250882,-0.312332 z"
         style="opacity:1;fill:#d38d5f;fill-opacity:1;fill-rule:nonzero;stroke:#4d4d4d;stroke-width:0.04677217;stroke-opacity:1" />
      <path
         inkscape:connector-curvature="0"
         id="path85547"
         d="m 33.455202,11.464845 c -0.409249,0.03138 -0.82382,0.154212 -1.185656,0.343757 -0.218302,0.235996 0.11856,0.524799 0.22079,0.734019 0.273764,0.384735 0.493903,0.807562 0.750646,1.189395 0.345115,0.0035 0.706761,-0.109326 1.043604,-0.205542 0.347665,-0.137263 0.624938,-0.558458 0.442143,-0.926034 -0.186431,-0.406794 -0.411271,-0.865509 -0.81833,-1.087635 -0.145677,-0.0452 -0.302125,-0.04444 -0.453197,-0.04796 z"
         style="opacity:1;fill:#d38d5f;fill-opacity:1;fill-rule:nonzero;stroke:#4d4d4d;stroke-width:0.04677217;stroke-opacity:1" />
      <path
         inkscape:connector-curvature="0"
         id="path85553"
         d="m 13.766409,39.73642 c -0.345581,0.126937 -0.734474,0.117809 -1.098382,0.179642 -0.557368,0.08799 -1.137353,0.08476 -1.674834,0.269491 -0.708317,0.304483 -1.3115738,0.80113 -1.9792562,1.18041 -0.5222611,0.293626 -1.0133451,0.674195 -1.5961063,0.839816 -0.4925613,0.112274 -1.0727989,0.118391 -1.4305214,0.532154 -0.7667765,0.750218 -1.0967902,1.803924 -1.5686497,2.739869 -0.1650688,0.412382 -0.4435319,0.817039 -0.4257493,1.277117 0.086581,0.545058 0.6473775,0.786509 1.0608725,1.05228 0.3083986,0.249589 0.7255981,0.205539 1.0923829,0.295688 1.5584005,0.247234 3.110359,0.541266 4.6759785,0.739439 0.749697,0.08277 1.504348,-0.01431 2.248636,-0.105678 0.521493,-0.08868 1.005613,-0.335108 1.453852,-0.606747 0.324123,-0.20052 0.260891,-0.623176 0.258367,-0.946822 -0.02479,-0.244796 0.0087,-0.527532 -0.113609,-0.742093 -0.438809,-0.221885 -0.946519,-0.27409 -1.395845,-0.457012 -0.15766,-0.364035 -0.571665,-0.518203 -0.913074,-0.660916 -0.639734,-0.282932 -1.315308,-0.486114 -1.939142,-0.803013 -0.09533,-0.0801 -0.30214,-0.136631 -0.287967,-0.285578 0.188408,-0.31646 0.550022,-0.478714 0.807724,-0.732407 0.184568,-0.164518 0.379126,-0.343707 0.643609,-0.340976 0.661716,-0.107019 1.346045,-0.09779 1.998909,-0.262194 0.168992,-0.115642 0.111488,-0.373645 0.157216,-0.550119 0.07237,-0.827717 0.133781,-1.658102 0.16602,-2.487229 -0.0044,-0.07136 -0.06557,-0.13634 -0.140431,-0.125122 z"
         style="opacity:1;fill:#784421;fill-opacity:1;fill-rule:nonzero;stroke:#28170b;stroke-width:0.03307291;stroke-opacity:1" />
      <path
         inkscape:connector-curvature="0"
         id="path85555"
         d="M 19.116146,18.851562 C 19.05,18.454687 16.205729,13.49375 16.205729,13.49375 l -5.820833,-1.5875 c 0,0 -5.6223961,0.79375 -6.0854169,1.653646 -0.4630208,0.859895 -2.1828125,3.307291 -2.5135416,3.836458 -0.3307292,0.529167 -1.65364583,3.373437 -1.65364583,4.894792 0,1.521354 0.46302082,4.299479 0.46302082,4.299479 0,0 0.52916671,-1.124479 1.12447911,-2.38125 0.5953125,-1.256771 1.5875,-3.836459 2.3151042,-4.564063 0.7276041,-0.727604 2.38125,-1.984375 3.1749999,-2.248958 0.79375,-0.264583 2.38125,-1.058333 3.1088543,-0.859896 0.727604,0.198438 2.645833,0.529167 3.307291,0.859896 0.661459,0.330729 2.38125,1.719792 2.71198,2.38125 0.330729,0.661458 0.727604,3.704167 0.727604,3.704167"
         style="opacity:1;fill:#00d455;fill-opacity:1;fill-rule:nonzero;stroke:none;stroke-width:0.26458332;stroke-opacity:1" />
      <path
         inkscape:connector-curvature="0"
         id="path85593"
         d="m 18.942728,22.29557 c 0,0 6.454559,0.140316 6.781964,0.280633 0.327405,0.140316 3.040191,0.841899 3.835317,0.748354 0.795128,-0.09354 2.619243,-0.467721 2.993419,-0.561266 0.374176,-0.09354 3.133736,-0.374177 3.788545,-0.327405 0.654812,0.04677 1.075761,0 1.356394,0.280633 0.280633,0.280633 1.309619,1.73057 1.262849,2.198292 -0.04677,0.467722 0,0.65481 -0.233863,1.449937 -0.23386,0.795128 -0.374176,0.748355 -0.795126,2.478925 -0.420949,1.730571 -0.140316,2.338608 -0.748355,3.648229 -0.608037,1.309621 -0.514493,1.590254 -1.543481,2.853102 -1.028989,1.262849 -1.403165,1.449938 -2.478924,2.385381 -1.075761,0.935442 -1.730571,0.467722 -2.666013,2.759559 -0.935445,2.291834 -0.935445,3.554682 -1.262851,4.630443 -0.327403,1.075759 -0.514493,1.543482 -0.514493,1.543482 0,0 -0.280633,0.187089 -0.654809,-1.590255 -0.374179,-1.777341 -0.701583,-3.601455 -0.888672,-4.069177 -0.18709,-0.467723 -0.374177,-1.216078 -0.841899,-1.543482 -0.467722,-0.327406 0.327406,0.187087 -1.964431,-1.216078 -2.291836,-1.403164 -3.975634,-3.648228 -4.677217,-4.5369 -0.701582,-0.888669 -0.748354,-0.654809 -1.356393,-2.43215 -0.608038,-1.777344 -0.795126,-0.233863 -1.028987,-3.367599 -0.233861,-3.133733 -0.187089,-3.133733 0.280633,-3.741772 0.467721,-0.608038 1.356393,-1.870886 1.356393,-1.870886 z"
         style="opacity:1;fill:#deaa87;fill-opacity:1;fill-rule:nonzero;stroke:#deaa87;stroke-width:0.26458332;stroke-opacity:1" />
      <g
         transform="translate(-0.56126461,-0.09354786)"
         id="g85591">
        <path
           style="opacity:1;fill:none;fill-opacity:1;fill-rule:nonzero;stroke:#808080;stroke-width:0.24154806;stroke-opacity:1"
           d="m 20.068863,25.944901 c 0,0 0.286709,1.831504 0.668988,2.59463 0.38228,0.763126 1.576902,1.411784 1.768042,1.602566 0.191139,0.190781 1.86361,1.564409 1.86361,1.564409 l 0.238925,1.144689"
           id="path85396"
           inkscape:connector-curvature="0" />
        <path
           style="opacity:1;fill:none;fill-opacity:1;fill-rule:nonzero;stroke:#808080;stroke-width:0.24154806;stroke-opacity:1"
           d="m 37.988196,25.448868 c 0,0 -1.385761,0.686815 -1.433547,0.992065 -0.04778,0.30525 -0.286709,1.221002 -0.430064,1.793348 -0.143354,0.572344 -0.09557,1.144689 -0.382278,1.678878 -0.286709,0.534188 -0.09556,0.496032 -0.477849,0.953908 -0.382279,0.457876 -1.337978,1.449941 -1.337978,1.449941"
           id="path85398"
           inkscape:connector-curvature="0" />
        <path
           style="opacity:1;fill:none;fill-opacity:1;fill-rule:nonzero;stroke:#808080;stroke-width:0.24154806;stroke-opacity:1"
           d="m 24.616002,32.885221 c 0,0 -0.810936,0.404709 -0.912304,0.566593 -0.101368,0.161883 0.202735,0.836398 0.439258,1.241107 0.236522,0.40471 0.574413,0.782437 1.351561,1.187146 0.777147,0.40471 1.959763,0.701496 1.959763,0.701496 l 0.304101,-0.512631 0.439257,-0.944322 v -1.510913 c 0,0 -0.270312,-1.160165 -0.641991,-1.133184 -0.37168,0.02698 -1.250194,0.05396 -1.250194,0.05396 l -0.371679,-0.944321"
           id="path85400"
           inkscape:connector-curvature="0" />
        <path
           style="opacity:1;fill:none;fill-opacity:1;fill-rule:nonzero;stroke:#808080;stroke-width:0.24154806;stroke-opacity:1"
           d="m 33.980715,32.228771 c 0,0 0.810937,0.404709 0.912304,0.566593 0.101368,0.161883 -0.202735,0.836398 -0.439257,1.241107 -0.236523,0.404709 -0.574414,0.782437 -1.351562,1.187146 -0.777147,0.404709 -1.959763,0.701496 -1.959763,0.701496 L 30.838336,35.412482 30.399079,34.46816 v -1.510913 c 0,0 0.270313,-1.160165 0.641991,-1.133185 0.371681,0.02698 1.250195,0.05396 1.250195,0.05396 l 0.371678,-0.944321"
           id="path85400-8"
           inkscape:connector-curvature="0" />
        <path
           style="opacity:1;fill:none;fill-opacity:1;fill-rule:nonzero;stroke:#808080;stroke-width:0.24154806;stroke-opacity:1"
           d="m 25.899985,31.617133 -0.371679,-1.699777 c 0,0 -0.506836,-0.998282 -0.337891,-1.510914 0.168945,-0.512631 0.506835,-1.915622 0.506835,-1.915622 l 0.304101,-0.242826"
           id="path85417"
           inkscape:connector-curvature="0" />
        <path
           style="opacity:1;fill:none;fill-opacity:1;fill-rule:nonzero;stroke:#808080;stroke-width:0.24154806;stroke-opacity:1"
           d="m 32.657789,30.99658 c 0,0 0.06758,-2.590138 0.06758,-2.69806 0,-0.107923 -0.03379,-1.241108 -0.202735,-1.672797 -0.168944,-0.43169 -0.979881,-1.402991 -0.979881,-1.402991"
           id="path85419"
           inkscape:connector-curvature="0"
           sodipodi:nodetypes="cscc" />
        <path
           style="opacity:1;fill:none;fill-opacity:1;fill-rule:nonzero;stroke:#808080;stroke-width:0.24154806;stroke-opacity:1"
           d="m 32.319899,31.805998 1.723239,0.404708"
           id="path85421"
           inkscape:connector-curvature="0" />
        <path
           style="opacity:1;fill:none;fill-opacity:1;fill-rule:nonzero;stroke:#808080;stroke-width:0.24154806;stroke-opacity:1"
           d="m 24.548424,32.777299 c 0,0.107922 1.790818,-0.188865 1.790818,-0.188865"
           id="path85423"
           inkscape:connector-curvature="0" />
        <path
           style="opacity:1;fill:#999999;fill-opacity:1;fill-rule:nonzero;stroke:#808080;stroke-width:0.03019351;stroke-opacity:1"
           d="m 27.452963,32.534214 c -0.45839,0.01416 -0.922316,0.02536 -1.363176,0.131057 -0.474611,0.08594 -0.959804,0.124156 -1.433064,0.207151 -0.227822,0.200798 -0.56307,0.320294 -0.806672,0.516587 -0.217371,0.130653 -0.05237,0.364567 -0.01252,0.531967 0.230866,0.626692 0.601929,1.248653 1.258605,1.661193 0.663419,0.434761 1.467238,0.712664 2.273666,0.927416 0.174354,-0.06781 0.193452,-0.263268 0.28758,-0.387819 0.169969,-0.34146 0.358707,-0.683703 0.482037,-1.035513 -0.02117,-0.542783 0.04495,-1.090892 -0.04526,-1.630323 -0.102013,-0.30601 -0.18398,-0.63944 -0.43167,-0.893785 -0.05848,-0.03799 -0.140359,-0.02491 -0.20953,-0.02793 z m -2.861244,0.436592 c -0.0063,-0.0068 0.0029,-0.03672 0,0 z"
           id="path85427"
           inkscape:connector-curvature="0" />
        <path
           style="opacity:1;fill:#999999;fill-opacity:1;fill-rule:nonzero;stroke:#808080;stroke-width:0.03019351;stroke-opacity:1"
           d="m 31.075844,31.886365 c -0.246433,-0.0089 -0.29164,0.241014 -0.378543,0.376358 -0.191032,0.387508 -0.273956,0.802388 -0.246576,1.21813 0.01079,0.334625 -0.02352,0.67472 0.01752,1.00577 0.226541,0.439141 0.371069,0.915534 0.698949,1.315986 0.148291,0.08727 0.330692,-0.04627 0.484924,-0.07077 0.955562,-0.297071 1.943666,-0.692074 2.523156,-1.396613 0.306596,-0.44224 0.586572,-0.914938 0.679673,-1.418905 -0.01968,-0.20777 -0.31486,-0.298015 -0.485651,-0.42268 -0.34135,-0.227239 -0.757264,-0.354091 -1.183911,-0.438597 -0.321574,-0.0662 -0.651901,-0.18039 -0.982479,-0.142222 -0.375931,-0.0019 -0.751025,-0.02809 -1.12705,-0.02645 z m 1.289329,0.02524 c 0.003,-0.0019 0.01387,-0.0032 0,0 z"
           id="path85429"
           inkscape:connector-curvature="0" />
        <path
           style="opacity:1;fill:none;fill-opacity:1;fill-rule:nonzero;stroke:none;stroke-width:0.24154806;stroke-opacity:1"
           d="m 19.953117,25.951208 c 0,0 1.520506,-1.106205 1.72324,-1.079224 0.202735,0.02698 3.041012,0.107922 3.243746,0.242826 0.202735,0.134902 1.216405,1.160165 1.216405,1.160165"
           id="path85443"
           inkscape:connector-curvature="0" />
        <path
           style="opacity:1;fill:none;fill-opacity:1;fill-rule:nonzero;stroke:none;stroke-width:0.24154806;stroke-opacity:1"
           d="m 31.644118,25.276693 1.993552,-0.809418 4.12226,0.269806 0.270313,0.674515"
           id="path85445"
           inkscape:connector-curvature="0" />
        <path
           style="opacity:1;fill:#c87137;fill-opacity:1;fill-rule:nonzero;stroke:#c87137;stroke-width:0.03019351;stroke-opacity:1"
           d="m 33.616845,24.521101 c -0.611392,0.260016 -1.249245,0.492203 -1.844026,0.770384 -0.07561,0.115462 0.110263,0.22767 0.157611,0.33424 0.343905,0.460314 0.719001,0.93721 0.759647,1.487991 0.147561,1.165286 0.04545,2.346693 0.03629,3.52051 0.04681,0.382272 -0.217539,0.721642 -0.302896,1.088533 0.06592,0.140763 0.327059,0.109899 0.473149,0.174731 0.358496,0.07703 0.711448,0.186291 1.075472,0.238357 0.246022,-0.151199 0.399403,-0.387271 0.599477,-0.576731 0.366103,-0.421678 0.828358,-0.818538 0.976013,-1.332582 0.216758,-0.45061 0.375037,-0.918868 0.419882,-1.401884 0.156527,-0.821765 0.33926,-1.649608 0.567907,-2.459699 0.2463,-0.339116 0.689666,-0.537203 1.069768,-0.767219 0.142376,-0.08735 0.424352,-0.195239 0.292029,-0.37291 -0.09008,-0.142314 -0.06775,-0.361062 -0.238707,-0.452306 -1.341132,-0.08222 -2.683702,-0.184391 -4.023943,-0.254219 z"
           id="path85451"
           inkscape:connector-curvature="0" />
        <path
           style="opacity:1;fill:#c87137;fill-opacity:1;fill-rule:nonzero;stroke:#c87137;stroke-width:0.03019351;stroke-opacity:1"
           d="m 21.609996,24.928814 c -0.528403,0.279551 -1.012328,0.618384 -1.472494,0.960587 -0.01445,0.250045 0.08567,0.511501 0.122587,0.764932 0.160302,0.674339 0.254342,1.375504 0.616315,2.005444 0.304056,0.456551 0.796447,0.81173 1.267881,1.15711 0.792131,0.599713 1.522871,1.248962 2.277723,1.878997 0.07974,0.341335 0.12508,0.693119 0.22573,1.028101 0.127854,0.08841 0.336909,-0.01293 0.495943,-0.0097 0.334736,-0.05569 0.691228,-0.06889 1.010981,-0.161905 0.08997,-0.134063 -0.05024,-0.296782 -0.07279,-0.437196 -0.114112,-0.329215 -0.298286,-0.640441 -0.344389,-0.983614 -0.123609,-0.593611 -0.252924,-1.187923 -0.487312,-1.761202 -0.125993,-0.355676 -0.198824,-0.732389 -0.07151,-1.094982 0.157507,-0.599098 0.322653,-1.196993 0.466355,-1.798385 0.08611,-0.111657 0.348027,-0.190109 0.293938,-0.336941 -0.362609,-0.330525 -0.672355,-0.707588 -1.095504,-0.99101 -0.398487,-0.108939 -0.835236,-0.09439 -1.251109,-0.133983 -0.651634,-0.03314 -1.306894,-0.07896 -1.957248,-0.09157 z"
           id="path85453"
           inkscape:connector-curvature="0" />
        <path
           style="opacity:1;fill:none;fill-opacity:1;fill-rule:nonzero;stroke:#4d4d4d;stroke-width:0.26458332;stroke-opacity:1"
           d="m 33.067921,32.187882 -1.075759,2.011204"
           id="path85524"
           inkscape:connector-curvature="0" />
        <path
           style="opacity:1;fill:none;fill-opacity:1;fill-rule:nonzero;stroke:#4d4d4d;stroke-width:0.26458332;stroke-opacity:1"
           d="m 25.79485,32.983011 0.935443,1.987817"
           id="path85526"
           inkscape:connector-curvature="0" />
      </g>
      <path
         inkscape:connector-curvature="0"
         id="path85629"
         d="m 26.474973,14.608346 c 0,0 0.482607,-0.367041 0.580036,-0.397324 0.09743,-0.03028 0.577052,-0.173322 0.609529,-0.173322 0.03248,0 0.421,0.06421 0.494668,0.0421 0.04059,0.06057 0.457951,0.427606 0.457951,0.427606"
         style="opacity:1;fill:none;fill-opacity:1;fill-rule:nonzero;stroke:#784421;stroke-width:0.1448466;stroke-opacity:1"
         sodipodi:nodetypes="ccscc" />
      <path
         inkscape:connector-curvature="0"
         id="path85701"
         d="m 23.356981,2.1654949 c 0.768737,0.2492519 1.614891,0.4571384 2.163674,1.0975949 0.489524,0.492257 0.957628,1.007383 1.385073,1.5547157 -0.02932,-0.5342191 -7.94e-4,-1.094265 -0.09565,-1.6120866 C 26.372728,2.8231227 25.876238,2.4555318 25.311059,2.3010434 24.648308,2.2321753 23.98269,2.1955176 23.317791,2.1541673 Z M 31.35831,3.3844944 C 30.905378,3.5625592 30.403387,3.6769966 29.980641,3.8942139 29.8226,4.1289964 29.664556,4.3637787 29.506516,4.5985612 30.313323,3.9998996 31.23484,3.4791467 32.243511,3.3408284 33.095252,3.2700544 34.064392,3.4559316 34.648621,4.127642 34.383694,3.7199281 34.180359,3.2433876 33.809646,2.9211577 33.449627,2.8607332 33.055173,2.8311268 32.701137,2.9167074 32.253528,3.0726358 31.805919,3.2285646 31.35831,3.3844931 Z M 28.73779,5.7321468 C 28.503221,6.1065081 28.184782,6.5780745 27.674427,6.49319 27.48348,6.5370238 27.251445,6.2698828 27.15923,6.2904893 26.864577,7.7271286 26.5265,9.1543919 26.206064,10.585399 c 0.867438,0.0029 1.735097,-0.0015 2.602251,0.02466 -0.116989,-0.8179274 -0.40621,-1.6089397 -0.444429,-2.4374512 -0.0026,-0.7721205 0.334071,-1.4948024 0.372261,-2.2644303 -0.0073,-0.038461 0.078,-0.3218318 0.0016,-0.1760352 z"
         style="opacity:1;fill:#00ff00;fill-opacity:1;fill-rule:nonzero;stroke:none;stroke-width:0.04677217;stroke-opacity:1" />
      <path
         inkscape:connector-curvature="0"
         id="path85703"
         d="m 41.320325,13.869225 c -0.886769,0.112754 -1.773658,0.22462 -2.6598,0.342204 -0.811141,1.057211 -1.618838,2.1171 -2.415895,3.184983 0.342022,0.347009 0.668179,0.712145 0.942388,1.115864 0.894847,-0.682709 1.854033,-1.325244 2.926913,-1.688914 1.127681,-0.235608 2.286233,-0.287654 3.433006,-0.371163 1.070689,-0.06678 1.98152,0.601134 2.889094,1.067265 0.876728,0.446864 1.657932,1.053862 2.341022,1.75951 0.728123,0.745692 1.498108,1.511108 1.844347,2.520917 0.485947,1.246956 0.786953,2.540871 1.181738,3.810426 0.228629,-0.806373 0.368078,-1.687109 0.237604,-2.540952 -0.205547,-1.53101 -0.620369,-3.044066 -1.329711,-4.421603 -0.515149,-1.045575 -0.998943,-2.109965 -1.500278,-3.15969 -1.183325,-0.703076 -2.505866,-1.131177 -3.801404,-1.577915 -0.453829,-0.124908 -0.903403,-0.334542 -1.365728,-0.384668 -0.907765,0.114578 -1.815532,0.229157 -2.723296,0.343736 z"
         style="opacity:1;fill:#00ff00;fill-opacity:1;fill-rule:nonzero;stroke:none;stroke-width:0.04677217;stroke-opacity:1" />
      <path
         inkscape:connector-curvature="0"
         id="path85705"
         d="m 10.262327,12.765146 c -1.6469281,0.275134 -3.2900385,0.526035 -4.8648212,1.080031 -0.243199,0.07608 -0.4747626,0.193902 -0.5649519,0.450752 -0.8373856,1.360119 -1.8054536,2.639466 -2.5946424,4.02844 -0.5028649,1.09454 -0.9955911,2.218849 -1.2025816,3.41208 -0.0799333,0.640804 -0.0452432,1.289057 0.00923,1.930448 0.6659254,-1.377758 1.1732458,-2.845373 2.0311179,-4.121797 0.6675345,-0.92013 1.6265118,-1.570308 2.5396738,-2.223779 1.0565722,-0.685783 2.2677699,-1.079413 3.4516398,-1.482824 0.9916136,-0.349138 2.0113156,0.04168 2.9862396,0.245044 0.923199,0.214449 1.891581,0.413525 2.649668,1.022463 0.883976,0.655607 1.781703,1.362081 2.367432,2.309376 0.188451,0.378772 0.25859,0.802084 0.356272,1.210139 0.26125,-0.590575 0.522353,-1.181211 0.784256,-1.771496 -0.801737,-1.576727 -1.687526,-3.108639 -2.552555,-4.650999 -1.797841,-0.481292 -3.588919,-0.994622 -5.395973,-1.437878 z"
         style="opacity:1;fill:#00ff00;fill-opacity:1;fill-rule:nonzero;stroke:none;stroke-width:0.04677217;stroke-opacity:1" />
    </g>
  </g>
</svg>
