<?xml version="1.0" encoding="UTF-8" standalone="no"?>
<!-- Created with Inkscape (http://www.inkscape.org/) -->

<svg
   xmlns:dc="http://purl.org/dc/elements/1.1/"
   xmlns:cc="http://creativecommons.org/ns#"
   xmlns:rdf="http://www.w3.org/1999/02/22-rdf-syntax-ns#"
   xmlns:svg="http://www.w3.org/2000/svg"
   xmlns="http://www.w3.org/2000/svg"
   xmlns:sodipodi="http://sodipodi.sourceforge.net/DTD/sodipodi-0.dtd"
   xmlns:inkscape="http://www.inkscape.org/namespaces/inkscape"
   width="201"
   height="201"
   viewBox="0 0 53.181249 53.181252"
   version="1.1"
   id="svg9832"
   sodipodi:docname="heartclockminus.svg"
   inkscape:version="0.92.3 (2405546, 2018-03-11)">
  <defs
     id="defs9826" />
  <sodipodi:namedview
     id="base"
     pagecolor="#ffffff"
     bordercolor="#666666"
     borderopacity="1.0"
     inkscape:pageopacity="0.0"
     inkscape:pageshadow="2"
     inkscape:zoom="3.959798"
     inkscape:cx="106.99746"
     inkscape:cy="136.64324"
     inkscape:document-units="mm"
     inkscape:current-layer="layer1"
     showgrid="false"
     units="px"
     inkscape:window-width="1920"
     inkscape:window-height="1017"
     inkscape:window-x="-8"
     inkscape:window-y="-8"
     inkscape:window-maximized="1" />
  <metadata
     id="metadata9829">
    <rdf:RDF>
      <cc:Work
         rdf:about="">
        <dc:format>image/svg+xml</dc:format>
        <dc:type
           rdf:resource="http://purl.org/dc/dcmitype/StillImage" />
        <dc:title></dc:title>
      </cc:Work>
    </rdf:RDF>
  </metadata>
  <g
     inkscape:label="Layer 1"
     inkscape:groupmode="layer"
     id="layer1"
     transform="translate(0,-243.81873)">
    <g
       id="g9862" />
    <g
       id="g9892"
       transform="translate(0.75595238,-1.6063988)">
      <path
         style="fill:#ff00ff;fill-rule:evenodd;stroke:#ff00ff;stroke-width:0.26458332"
         id="path9848"
         d="m 9.3084885,265.70421 c 0.272722,0.28106 0.643454,0.45791 1.0011705,0.60672 0.516633,0.1995 1.05575,0.3351 1.595382,0.45605 0.724534,0.15868 1.460282,0.25885 2.195194,0.35544 0.958673,0.09 1.920396,0.14111 2.880358,0.21751 1.124187,0.10348 2.248605,0.20597 3.373922,0.29648 1.225756,0.0906 2.452664,0.16318 3.679721,0.23333 1.292788,0.0528 2.583451,0.13753 3.873528,0.23519 1.290158,0.0854 2.570421,0.26713 3.854373,0.41223 0.212066,0.0244 0.424659,0.0445 0.636193,0.0732 0.229677,0.0311 0.457856,0.0724 0.687192,0.10593 0.935117,0.13655 1.873358,0.2527 2.809555,0.38164 1.322236,0.22754 2.643105,0.46082 3.963844,0.69699 0.902367,0.15776 1.802434,0.32817 2.704254,0.48879 0.495133,0.0776 0.990054,0.15302 1.489418,0.19692 0,0 -4.447603,4.4476 -4.447603,4.4476 v 0 c -0.47086,-0.0658 -0.927783,-0.19841 -1.393145,-0.29319 -0.858861,-0.19945 -1.71159,-0.42381 -2.570588,-0.62246 -1.301597,-0.28212 -2.609353,-0.54542 -3.928248,-0.73259 -0.685363,-0.1109 -1.37069,-0.2223 -2.059138,-0.3128 -1.01912,-0.13397 -0.438544,-0.0511 -1.455682,-0.15669 -0.21217,-0.022 -0.423783,-0.0491 -0.635672,-0.0737 -1.281565,-0.15493 -2.562258,-0.32405 -3.850372,-0.41623 -1.291807,-0.0954 -2.583634,-0.18748 -3.878545,-0.23018 -1.236136,-0.0609 -2.47217,-0.12204 -3.70699,-0.20605 -1.137218,-0.0861 -2.273742,-0.18116 -3.411583,-0.25883 -0.976122,-0.0659 -1.953048,-0.10237 -2.9290025,-0.16886 -0.7554377,-0.0688 -1.5100502,-0.15858 -2.2567046,-0.29393 -0.5533179,-0.10396 -1.103081,-0.23186 -1.636022,-0.41541 -0.3770354,-0.14071 -0.7331958,-0.32473 -1.0810298,-0.52686 0,0 4.4962204,-4.49622 4.4962204,-4.49622 z"
         inkscape:connector-curvature="0" />
      <path
         id="path9856"
         d="m 17.607422,259.56055 c -0.930211,0.33122 -1.612152,1.14382 -1.986886,2.03484 -0.51638,1.19392 -0.537434,2.52468 -0.472128,3.80291 0.0605,1.30637 0.22638,2.60487 0.382075,3.90237 0.29711,1.9567 1.066906,3.7941 1.746797,5.63978 0.861339,2.28901 1.695773,4.59226 2.722866,6.81375 0.301488,0.61582 0.683425,1.25117 1.309148,1.58105 0.632644,0.31287 1.431608,0.1221 1.927745,-0.35773 0.87912,-0.75861 1.682676,-1.59962 2.476403,-2.44561 0.862878,-0.91791 1.675961,-1.88659 2.364099,-2.94377 0.760075,-1.15484 1.390803,-2.38735 2.028456,-3.61212 0.807422,-1.58253 1.512681,-3.22365 1.996237,-4.9358 0.366607,-1.21019 0.746394,-2.43177 0.853792,-3.69746 0.03834,-1.04873 -0.287153,-2.15664 -1.067188,-2.88992 -0.704554,-0.68559 -1.671541,-1.0233 -2.627897,-1.16425 -0.942575,-0.17721 -1.909736,-0.22959 -2.864457,-0.13039 -0.845974,0.21062 -1.510591,0.81685 -2.125,1.40235 -0.237691,0.19048 -0.643095,0.15213 -0.808593,-0.11524 -0.617685,-0.71138 -1.222562,-1.48988 -2.091755,-1.90705 -1.062622,-0.57236 -2.263703,-0.78635 -3.431683,-1.03435 -0.118467,-0.0153 -0.222276,0.0155 -0.332031,0.0566 z"
         style="opacity:0.73000004;fill:#ff0000;fill-rule:evenodd;stroke:#ff00ff;stroke-width:0.27195305"
         inkscape:connector-curvature="0" />
      <g
         id="g9927"
         transform="translate(-3.4076863,3.4745042)"
         style="opacity:1">
        <path
           sodipodi:open="true"
           d="m 40.205029,254.92906 a 5.7641373,5.9058776 0 0 1 7.975979,-0.43153 5.7641373,5.9058776 0 0 1 0.739746,8.14832 5.7641373,5.9058776 0 0 1 -7.916822,1.08313 5.7641373,5.9058776 0 0 1 -1.372835,-8.0617"
           sodipodi:end="3.7342541"
           sodipodi:start="3.8942317"
           sodipodi:ry="5.9058776"
           sodipodi:rx="5.7641373"
           sodipodi:cy="258.96613"
           sodipodi:cx="44.412201"
           sodipodi:type="arc"
           id="path9913"
           style="opacity:0.73000004;fill:#b3b3b3;fill-rule:evenodd;stroke:#000000;stroke-width:0.26458332" />
        <path
           sodipodi:nodetypes="ccc"
           inkscape:connector-curvature="0"
           id="path9915"
           d="m 44.345779,260.21979 c -0.02562,-1.9466 -0.02952,-3.98006 0.03341,-6.28083 z"
           style="fill:#b3b3b3;stroke:#000000;stroke-width:0.26458332px;stroke-linecap:butt;stroke-linejoin:miter;stroke-opacity:1" />
        <path
           inkscape:connector-curvature="0"
           id="path9917"
           d="m 43.644197,259.05049 c 3.474503,0.0668 3.474503,0.0668 3.474503,0.0668 l -3.708363,-0.10023 z"
           style="fill:#b3b3b3;stroke:#000000;stroke-width:0.26458332px;stroke-linecap:butt;stroke-linejoin:miter;stroke-opacity:1" />
        <path
           inkscape:connector-curvature="0"
           id="path9921"
           d="m 45.11418,258.24868 -4.042453,4.54358 z"
           style="fill:#b3b3b3;stroke:#ff0000;stroke-width:0.26458332px;stroke-linecap:butt;stroke-linejoin:miter;stroke-opacity:1" />
      </g>
    </g>
    <path
       style="opacity:0;fill:#800000;fill-rule:evenodd;stroke:#ff0000;stroke-width:0.26458332;fill-opacity:0"
       id="path10796"
       d="m 21.940726,261.29775 c 0.05702,-0.29093 0.06475,-0.58861 0.07235,-0.88411 0.0096,-0.29821 0.0077,-0.59531 -0.0102,-0.89302 -0.0074,-0.33089 0.0084,-0.66185 0.01733,-0.99259 0.01142,-0.38507 0.01727,-0.76963 -0.008,-1.15416 -0.01556,-0.37785 -0.04467,-0.75433 -0.07496,-1.13118 -0.04178,-0.3421 -0.07634,-0.68501 -0.137965,-1.02426 -0.04204,-0.29865 -0.116081,-0.59087 -0.194616,-0.88158 -0.05635,-0.23199 -0.135748,-0.45725 -0.200212,-0.68699 -0.04083,-0.1552 -0.10499,-0.30132 -0.159514,-0.4515 -0.04686,-0.12701 -0.104318,-0.24944 -0.160631,-0.37241 -0.06396,-0.13338 -0.131655,-0.26491 -0.196374,-0.39791 -0.06823,-0.12033 -0.111196,-0.25136 -0.164357,-0.37835 0,0 3.180594,-3.1806 3.180594,-3.1806 v 0 c 0.04858,0.13027 0.08384,0.26601 0.156826,0.38588 0.06319,0.13346 0.132565,0.26391 0.198086,0.39621 0.05629,0.12222 0.118488,0.24173 0.164598,0.36844 0.04946,0.15738 0.09577,0.31502 0.135812,0.4752 0.05562,0.23556 0.134074,0.46524 0.185137,0.70206 0.07511,0.29564 0.128146,0.59628 0.179369,0.89683 0.05513,0.34363 0.0913,0.68962 0.126441,1.03578 0.02864,0.37786 0.056,0.75559 0.0719,1.13425 0.01769,0.38223 0.02094,0.76427 0.0152,1.14691 -0.0022,0.32661 -0.01219,0.65325 -0.0046,0.97982 0.02415,0.2967 0.02412,0.59383 0.01193,0.89128 -0.0099,0.28067 -0.02893,0.5612 -0.03027,0.84203 0,0 -3.173969,3.17397 -3.173969,3.17397 z"
       inkscape:connector-curvature="0" />
    <path
       style="opacity:0;fill:#800000;fill-opacity:0;fill-rule:evenodd;stroke:#ff0000;stroke-width:0.26458332"
       id="path10798"
       d="m 23.239557,270.41156 c 0.172263,-0.17967 0.275063,-0.40501 0.36764,-0.63234 0.113552,-0.26809 0.208351,-0.54343 0.306643,-0.81736 0.138714,-0.3804 0.280908,-0.75952 0.411321,-1.14287 0.179161,-0.47936 0.345211,-0.96322 0.500113,-1.45092 0.149404,-0.4473 0.265798,-0.90346 0.380962,-1.36036 0.109776,-0.40658 0.198582,-0.81855 0.27404,-1.23278 0.06449,-0.3489 0.124044,-0.69923 0.168416,-1.05132 0.04883,-0.31116 0.0802,-0.62447 0.138127,-0.93418 0.04138,-0.25442 0.09842,-0.50611 0.131685,-0.76179 0.02991,-0.20565 0.04681,-0.41422 0.08441,-0.61866 0.03136,-0.1435 0.04978,-0.28868 0.08368,-0.43157 0.03102,-0.12465 0.03618,-0.25283 0.06705,-0.37736 0.0323,-0.11699 0.04276,-0.23782 0.04937,-0.3585 -0.0078,-0.13369 0.02136,-0.2645 0.02738,-0.39694 -0.0015,-0.0892 -8e-5,-0.0446 -0.0043,-0.13378 0,0 3.17687,-3.17687 3.17687,-3.17687 v 0 c 0.0042,0.0891 0.0028,0.0445 0.0043,0.13373 -0.0067,0.13186 -0.03425,0.26214 -0.02567,0.39523 -0.0053,0.11945 -0.01347,0.23937 -0.04596,0.35509 -0.03376,0.12669 -0.04357,0.25623 -0.07359,0.3839 -0.03553,0.14661 -0.05628,0.29588 -0.09416,0.44205 -0.04511,0.20884 -0.07249,0.42186 -0.09942,0.63367 -0.04199,0.26074 -0.100573,0.51793 -0.147643,0.77774 -0.06196,0.31326 -0.102994,0.62978 -0.149534,0.94559 -0.05035,0.3591 -0.111681,0.7167 -0.188265,1.07118 -0.07805,0.41819 -0.169928,0.83392 -0.284906,1.24364 -0.120726,0.46161 -0.241273,0.92309 -0.395597,1.37499 -0.154405,0.48638 -0.325255,0.96704 -0.496784,1.4476 -0.115234,0.36807 -0.230193,0.7359 -0.365699,1.09724 -0.08925,0.26953 -0.180814,0.5383 -0.28987,0.80059 -0.08404,0.21228 -0.17771,0.42356 -0.331353,0.59605 0,0 -3.179308,3.17931 -3.179308,3.17931 z"
       inkscape:connector-curvature="0" />
    <path
       style="opacity:1;fill:#ff0000;fill-opacity:0;fill-rule:evenodd;stroke:#ff0000;stroke-width:0.25253814"
       d="m 124.62462,86.692708 c 0,-0.215867 0.27699,-1.380699 0.61554,-2.588516 2.60553,-9.295684 2.12427,-14.712417 -1.67664,-18.871221 -2.36833,-2.591322 -5.50366,-4.031553 -10.7167,-4.922767 -3.50466,-0.599151 -9.51397,-0.6742 -11.01783,-0.137599 -1.51313,0.539907 -3.64649,1.921918 -5.325593,3.449962 -1.854721,1.687864 -2.393191,1.996884 -3.479579,1.996884 -0.69943,0 -1.05441,-0.258325 -2.342433,-1.704633 -5.258218,-5.904392 -7.75518,-7.382059 -15.719611,-9.30265 -4.279957,-1.032094 -4.907959,-1.053035 -6.580772,-0.219437 -3.879048,1.933011 -6.542057,6.255909 -7.53638,12.233907 -0.3663,2.202237 -0.412027,3.500512 -0.271291,7.702413 0.0931,2.779551 0.238588,5.593529 0.323316,6.253284 0.127297,0.991228 0.08455,1.199557 -0.246156,1.199557 -0.523621,0 -0.637276,-0.721843 -0.904886,-5.747065 -0.372424,-6.993438 0.261093,-11.955099 1.988635,-15.574837 1.69787,-3.557567 4.558548,-6.419987 7.339054,-7.343523 1.214774,-0.403483 1.379268,-0.398232 3.85082,0.12292 6.381687,1.345643 10.581383,2.950598 13.490526,5.155536 0.860627,0.652298 2.50411,2.26945 3.652183,3.593672 1.148077,1.324222 2.294905,2.518724 2.548509,2.654449 0.67459,0.361029 1.432697,0.03676 2.729824,-1.167635 1.888303,-1.753307 4.197878,-3.343601 5.736654,-3.950062 1.27213,-0.501368 1.90058,-0.570012 5.2338,-0.571671 5.78133,-0.0029 9.68565,0.737174 13.50415,2.559668 6.45245,3.079624 9.08806,9.281406 7.48677,17.616897 -0.73181,3.809424 -1.94843,7.954951 -2.3346,7.954951 -0.19102,0 -0.34731,-0.176617 -0.34731,-0.392484 z"
       id="path10820"
       inkscape:connector-curvature="0"
       transform="matrix(0.26458333,0,0,0.26458333,0,243.81873)" />
    <path
       style="opacity:1;fill:#ff0000;fill-opacity:0;fill-rule:evenodd;stroke:#ff0000;stroke-width:0.25253814"
       d="m 154.80293,86.820979 c -3.43667,-0.53164 -6.74503,-1.878305 -9.61629,-3.914308 -2.02619,-1.43676 -5.04829,-4.686032 -6.23528,-6.703976 -3.34483,-5.686391 -4.14539,-12.696097 -2.16048,-18.917003 0.78024,-2.445355 2.44248,-5.55475 2.87978,-5.386942 0.46235,0.177418 0.46216,0.178497 -0.22181,1.288216 -0.85134,1.38125 -1.84365,3.743081 -2.35869,5.613955 -0.34584,1.256256 -0.45047,2.560153 -0.44581,5.555839 0.005,3.5244 0.0739,4.135433 0.68714,6.133727 1.9394,6.320017 5.88757,10.99244 11.55921,13.679612 3.01232,1.427212 5.43355,1.957098 8.94269,1.957098 2.28333,0 3.52854,-0.131942 5.05076,-0.535172 14.17172,-3.754019 20.62253,-19.766161 13.18423,-32.72575 -1.23047,-2.14383 -5.21577,-6.18788 -7.30545,-7.413159 -8.26334,-4.845183 -18.55402,-3.777092 -25.22736,2.618397 -0.99023,0.948994 -1.32457,1.140929 -1.56224,0.896821 -0.23661,-0.243018 -0.0292,-0.559505 0.95334,-1.454915 4.56913,-4.163816 10.06436,-6.146999 16.1139,-5.815364 7.7012,0.422178 14.698,4.956027 18.20954,11.799565 1.94359,3.787797 2.68036,6.788429 2.68036,10.916168 0,8.769488 -5.04534,16.791574 -12.90185,20.513926 -3.53021,1.67258 -8.58856,2.455915 -12.22569,1.893265 z"
       id="path10828"
       inkscape:connector-curvature="0"
       transform="matrix(0.26458333,0,0,0.26458333,0,243.81873)" />
    <path
       style="opacity:1;fill:#ff0000;fill-opacity:0;fill-rule:evenodd;stroke:#ff0000;stroke-width:0.25253814"
       d="m 153.2877,85.451864 c -6.25236,-1.363698 -11.96756,-6.104407 -14.64622,-12.14891 -1.33821,-3.019712 -1.64249,-4.692755 -1.64249,-9.030935 0,-4.747034 0.27376,-6.069017 1.96971,-9.511708 0.65002,-1.319512 1.1631,-2.565929 1.14019,-2.769816 -0.0585,-0.520367 1.67832,-2.822018 1.98598,-2.63187 0.13916,0.086 0.66891,-0.238597 1.17724,-0.721334 2.73122,-2.593762 5.64927,-4.257334 9.25798,-5.277957 1.65358,-0.46767 2.61622,-0.567892 5.3033,-0.552135 3.89448,0.02284 6.05839,0.516408 9.41443,2.147361 1.91119,0.928794 2.59055,1.457291 5.13915,3.997944 2.63365,2.625439 3.05611,3.174094 4.09226,5.314756 1.86296,3.84882 2.30328,5.777644 2.30328,10.0895 0,3.938691 -0.3756,5.867496 -1.74601,8.966233 -2.58848,5.852998 -8.36093,10.650399 -14.5789,12.11631 -1.97115,0.464705 -7.06488,0.471683 -9.1699,0.01255 z m -2.0203,-12.524682 5.55583,-6.295739 0.0763,1.26177 c 0.0695,1.149556 0.1313,1.261772 0.69448,1.261772 0.60119,0 0.61814,-0.05224 0.61814,-1.904382 v -1.904382 l 4.90741,0.07348 c 4.83894,0.07246 4.90883,0.06596 5.01024,-0.465958 0.0895,-0.469363 -0.0441,-0.559579 -1.02831,-0.69448 -0.62213,-0.08527 -2.66314,-0.155041 -4.53559,-0.155041 h -3.40444 l 0.90085,-1.099369 c 0.67741,-0.826688 0.82903,-1.171197 0.61126,-1.388959 -0.46794,-0.467941 -0.7722,-0.345314 -1.63119,0.657415 l -0.81126,0.947029 -0.009,-9.028238 c -0.009,-8.655881 -0.029,-9.028238 -0.483,-9.028238 -0.32829,0 -0.52191,0.242015 -0.63134,0.789181 -0.0868,0.43405 -0.15784,4.63881 -0.15784,9.343911 v 8.55473 h -1.51523 c -1.42961,0 -1.51522,0.03413 -1.51522,0.604026 0,0.515587 0.16662,0.635757 1.13802,0.820749 l 1.13801,0.216723 -5.6837,6.390753 c -3.12604,3.514914 -5.68371,6.475292 -5.68371,6.578618 0,0.226767 0.55019,0.800718 0.74499,0.777161 0.0764,-0.0092 2.63902,-2.849878 5.69474,-6.312532 z"
       id="path10830"
       inkscape:connector-curvature="0"
       transform="matrix(0.26458333,0,0,0.26458333,0,243.81873)" />
    <path
       style="opacity:1;fill:#ff0000;fill-opacity:0;fill-rule:evenodd;stroke:#ff0000;stroke-width:0.25253814"
       d="m 151.39366,111.65466 c -0.34724,-0.0608 -4.15425,-0.94665 -8.46002,-1.96863 -4.30578,-1.02198 -9.35322,-2.15354 -11.21655,-2.51459 -4.33105,-0.8392 -12.46387,-2.15604 -13.3157,-2.15604 -0.80074,0 -0.85958,0.21392 1.28512,-4.67196 0.91454,-2.083435 2.35396,-5.902842 3.19871,-8.487567 l 1.5359,-4.6995 0.9225,0.07872 c 3.30217,0.281772 15.67736,2.175461 24.78735,3.793038 5.90308,1.048155 11.98294,2.127163 13.51079,2.397797 1.52786,0.270634 3.60183,0.562349 4.60882,0.648255 1.007,0.08591 1.83091,0.225368 1.83091,0.309914 0,0.366324 -17.33864,17.446453 -17.67903,17.415443 -0.2076,-0.0189 -0.66156,-0.0841 -1.0088,-0.14488 z"
       id="path10832"
       inkscape:connector-curvature="0"
       transform="matrix(0.26458333,0,0,0.26458333,0,243.81873)" />
    <path
       style="opacity:1;fill:#ff0000;fill-opacity:0;fill-rule:evenodd;stroke:#ff0000;stroke-width:0.25253814"
       d="M 63.384124,100.33855 C 63.069949,100.22498 50.353027,99.311274 44.064956,98.950471 36.340687,98.50726 30.192691,97.623009 26.134749,96.371614 24.352807,95.822096 20.57891,94.014237 20.57891,93.710127 c 0,-0.103376 3.908166,-4.094892 8.684814,-8.870035 l 8.684814,-8.682078 0.865936,0.660482 c 2.865385,2.185535 11.088992,4.291157 19.245522,4.927739 1.472583,0.114929 2.744448,0.275985 2.826364,0.357903 0.08192,0.08192 0.366567,2.003252 0.63255,4.26963 0.641091,5.462551 1.329825,8.721299 2.86656,13.563124 0.130716,0.411848 0.06491,0.528298 -0.289848,0.512888 -0.252429,-0.011 -0.572602,-0.061 -0.711498,-0.11123 z"
       id="path10834"
       inkscape:connector-curvature="0"
       transform="matrix(0.26458333,0,0,0.26458333,0,243.81873)" />
    <path
       style="opacity:1;fill:#ff0000;fill-opacity:0;fill-rule:evenodd;stroke:#ff0000;stroke-width:0.25253814"
       d="m 113.38667,104.36764 c -13.31999,-1.71949 -23.500298,-2.61626 -36.996832,-3.25901 -11.057507,-0.5266 -11.564434,-0.57918 -11.930842,-1.237487 -0.164648,-0.295818 -0.317593,-0.623083 -0.339876,-0.727255 -0.02228,-0.104172 -0.06317,-0.217814 -0.09085,-0.252538 -0.02768,-0.03472 -0.100032,-0.34724 -0.160775,-0.69448 -0.06074,-0.34724 -0.183105,-0.801808 -0.271916,-1.010152 -0.254303,-0.596581 -0.575043,-1.807713 -0.702225,-2.651651 -0.04186,-0.277792 -0.10009,-0.505076 -0.129391,-0.505076 -0.0293,0 -0.09348,-0.227284 -0.142623,-0.505076 C 62.5722,93.247123 62.465196,92.678912 62.383557,92.262224 62.17429,91.194126 61.819673,88.795327 61.61823,87.085192 61.56097,86.599056 61.446206,85.74674 61.363206,85.191156 61.096353,83.404885 61.05135,82.673663 61.186227,82.315513 c 0.147617,-0.391979 2.244593,-0.314195 9.395234,0.348499 7.057187,0.654033 13.621326,1.125035 22.854701,1.639911 11.912538,0.664274 18.197638,1.159877 25.127548,1.981401 5.27549,0.625396 5.68323,0.709743 5.69782,1.178676 0.009,0.277792 -0.0905,0.647129 -0.22032,0.820749 -0.12983,0.17362 -0.1514,0.315672 -0.0479,0.315672 0.10346,0 0.0466,0.170463 -0.12627,0.378807 -0.17291,0.208344 -0.22973,0.378808 -0.12627,0.378808 0.10346,0 0.0466,0.170463 -0.12627,0.378807 -0.17291,0.208344 -0.22973,0.378807 -0.12627,0.378807 0.10346,0 0.0466,0.170463 -0.12627,0.378807 -0.17291,0.208344 -0.22973,0.378807 -0.12627,0.378807 0.10346,0 0.0615,0.152509 -0.0931,0.338909 -0.1547,0.1864 -0.2065,0.413684 -0.11511,0.505076 0.0914,0.09139 0.0214,0.166168 -0.15547,0.166168 -0.18216,0 -0.25861,0.164281 -0.17629,0.378807 0.0799,0.208344 0.0231,0.378807 -0.12627,0.378807 -0.1494,0 -0.20622,0.170464 -0.12627,0.378808 0.0799,0.208344 0.0231,0.378807 -0.12627,0.378807 -0.14939,0 -0.20622,0.170463 -0.12626,0.378807 0.0799,0.208344 0.0464,0.378807 -0.0745,0.378807 -0.28399,0 -0.81137,1.503638 -0.6302,1.796776 0.076,0.122941 0.008,0.223529 -0.15034,0.223529 -0.15866,0 -0.24147,0.141038 -0.18401,0.313418 0.0575,0.17238 -0.0518,0.469676 -0.24277,0.660658 -0.19098,0.190982 -0.30462,0.475087 -0.25254,0.631345 0.0521,0.156258 -0.063,0.441826 -0.25578,0.634595 -0.19277,0.192769 -0.2907,0.5063 -0.21763,0.696735 0.0731,0.190435 0.0161,0.346245 -0.12664,0.346245 -0.14274,0 -0.19528,0.103936 -0.11678,0.230969 0.0785,0.127033 0.0233,0.270769 -0.12258,0.31941 -0.14593,0.0486 -0.28447,0.34246 -0.30785,0.65292 -0.0234,0.31046 -0.13869,0.56447 -0.25622,0.56447 -0.11754,0 -0.14947,0.10393 -0.071,0.23097 0.0785,0.12703 0.0233,0.27077 -0.12258,0.31941 -0.14594,0.0486 -0.28447,0.34246 -0.30786,0.65291 -0.0234,0.31046 -0.13198,0.56448 -0.24131,0.56448 -0.10934,0 -0.18076,0.0852 -0.15871,0.1894 0.0628,0.2969 -0.35349,1.18 -0.65302,1.38509 -0.3489,0.23891 -1.20827,0.19866 -4.31157,-0.20195 z"
       id="path10836"
       inkscape:connector-curvature="0"
       transform="matrix(0.26458333,0,0,0.26458333,0,243.81873)" />
    <path
       style="opacity:1;fill:#ff0000;fill-opacity:0;fill-rule:evenodd;stroke:#ff0000;stroke-width:0.25253814"
       d="m 113.38667,104.22793 c -9.32521,-1.35891 -23.253467,-2.56028 -39.269676,-3.38719 -4.236327,-0.21872 -8.124757,-0.50868 -8.640956,-0.64434 -0.888076,-0.233403 -0.965311,-0.337928 -1.436328,-1.943847 -1.058571,-3.60917 -1.527701,-5.961178 -2.337772,-11.720551 -0.182488,-1.297436 -0.409684,-2.132269 -0.555724,-2.042012 -0.146136,0.09032 -0.177933,-0.0274 -0.07785,-0.288213 0.09305,-0.242489 0.169186,-0.772521 0.169186,-1.177849 v -0.73696 l 1.830901,0.001 c 1.006996,5.63e-4 3.649176,0.167442 5.871512,0.37084 7.348497,0.672567 13.513306,1.123468 24.243661,1.773209 5.833631,0.353236 12.083946,0.755039 13.889596,0.892896 7.88325,0.601865 16.50309,1.62984 16.89346,2.014661 0.21056,0.207565 -0.51276,2.560286 -1.97925,6.437854 -0.31518,0.833376 -0.8884,2.367545 -1.27381,3.409265 -0.71654,1.936723 -0.89814,2.379032 -1.97001,4.798227 -0.33847,0.76393 -0.69553,1.64466 -0.79348,1.95717 -0.15889,0.507 -0.33266,0.5649 -1.61315,0.53742 -0.78929,-0.0169 -2.11693,-0.13017 -2.95031,-0.2516 z"
       id="path10838"
       inkscape:connector-curvature="0"
       transform="matrix(0.26458333,0,0,0.26458333,0,243.81873)" />
    <path
       style="opacity:1;fill:#ff0000;fill-opacity:0;fill-rule:evenodd;stroke:#ff0000;stroke-width:0.25253814"
       d="m 112.62906,103.98623 c -5.36201,-0.9009 -20.5393,-2.23481 -35.813263,-3.14758 -5.946594,-0.35537 -11.081992,-0.74878 -11.411996,-0.874251 -0.330005,-0.125468 -0.720295,-0.452881 -0.867312,-0.727586 -0.466992,-0.872582 -1.746705,-6.510645 -2.289742,-10.087974 -0.288257,-1.898933 -0.636484,-3.874507 -0.773837,-4.390163 -0.137353,-0.515656 -0.177358,-1.225919 -0.0889,-1.578363 0.155891,-0.62112 0.22469,-0.640807 2.239411,-0.640807 1.143219,0 5.477712,0.281764 9.632207,0.626142 4.154495,0.344378 13.860767,1.030345 21.569494,1.524371 14.053578,0.900646 22.095758,1.593889 26.450648,2.280071 1.28329,0.202202 2.40034,0.367641 2.48232,0.367641 0.082,0 0.0706,0.369337 -0.0252,0.820748 -0.23748,1.1185 -3.313,9.488303 -4.82342,13.126591 l -1.22964,2.96194 -1.89403,-0.0243 c -1.04172,-0.0134 -2.46225,-0.11978 -3.15673,-0.23646 z"
       id="path10840"
       inkscape:connector-curvature="0"
       transform="matrix(0.26458333,0,0,0.26458333,0,243.81873)" />
    <path
       style="opacity:1;fill:#ff0000;fill-opacity:0;fill-rule:evenodd;stroke:#ff0000;stroke-width:0.25253814"
       d="m 110.86129,103.6088 c -5.21511,-0.78312 -17.367057,-1.81965 -35.481605,-3.0265 -6.973914,-0.46462 -9.876127,-0.747505 -10.265338,-1.000571 -0.421122,-0.273816 -0.715759,-1.076217 -1.315882,-3.583621 -1.031599,-4.310174 -2.420739,-12.29646 -2.226775,-12.801921 0.224084,-0.583955 3.260788,-0.532694 13.233381,0.223387 4.552365,0.345141 13.390925,0.970979 19.641243,1.390749 15.353976,1.031172 20.895296,1.507109 26.832176,2.304578 1.93619,0.260079 2.33598,0.389366 2.33598,0.755434 0,0.536753 -2.8838,8.503582 -4.65208,12.851915 l -1.2837,3.15673 -2.27228,0.0356 c -1.24975,0.0196 -3.29505,-0.11803 -4.54512,-0.30574 z"
       id="path10842"
       inkscape:connector-curvature="0"
       transform="matrix(0.26458333,0,0,0.26458333,0,243.81873)" />
  </g>
</svg>
