<?xml version="1.0" encoding="UTF-8" standalone="no"?>
<!-- Created with Inkscape (http://www.inkscape.org/) -->

<svg
   xmlns:dc="http://purl.org/dc/elements/1.1/"
   xmlns:cc="http://creativecommons.org/ns#"
   xmlns:rdf="http://www.w3.org/1999/02/22-rdf-syntax-ns#"
   xmlns:svg="http://www.w3.org/2000/svg"
   xmlns="http://www.w3.org/2000/svg"
   xmlns:sodipodi="http://sodipodi.sourceforge.net/DTD/sodipodi-0.dtd"
   xmlns:inkscape="http://www.inkscape.org/namespaces/inkscape"
   width="201"
   height="201"
   viewBox="0 0 53.181249 53.181252"
   version="1.1"
   id="svg9832"
   inkscape:version="0.92.3 (2405546, 2018-03-11)"
   sodipodi:docname="heartplus.svg">
  <defs
     id="defs9826" />
  <sodipodi:namedview
     id="base"
     pagecolor="#ffffff"
     bordercolor="#666666"
     borderopacity="1.0"
     inkscape:pageopacity="0.0"
     inkscape:pageshadow="2"
     inkscape:zoom="2.8"
     inkscape:cx="9.1791197"
     inkscape:cy="113.70645"
     inkscape:document-units="mm"
     inkscape:current-layer="layer1"
     showgrid="false"
     units="px"
     inkscape:window-width="1920"
     inkscape:window-height="1017"
     inkscape:window-x="-8"
     inkscape:window-y="-8"
     inkscape:window-maximized="1" />
  <metadata
     id="metadata9829">
    <rdf:RDF>
      <cc:Work
         rdf:about="">
        <dc:format>image/svg+xml</dc:format>
        <dc:type
           rdf:resource="http://purl.org/dc/dcmitype/StillImage" />
        <dc:title></dc:title>
      </cc:Work>
    </rdf:RDF>
  </metadata>
  <g
     inkscape:label="Layer 1"
     inkscape:groupmode="layer"
     id="layer1"
     transform="translate(0,-243.81873)">
    <g
       id="g9862" />
    <g
       id="g9892"
       transform="translate(0.75595238,-1.6063988)">
      <path
         style="fill:#00ff00;fill-rule:evenodd;stroke:#00ff00;stroke-width:0.26458332"
         id="path9848"
         d="m 10.253429,263.43636 c 0.272722,0.28106 0.643454,0.45791 1.00117,0.60672 0.516633,0.1995 1.05575,0.3351 1.595382,0.45605 0.724534,0.15868 1.460282,0.25885 2.195194,0.35544 0.958673,0.09 1.920396,0.14111 2.880358,0.21751 1.124187,0.10348 2.248605,0.20597 3.373922,0.29648 1.225756,0.0906 2.452664,0.16318 3.679721,0.23333 1.292788,0.0528 2.583451,0.13753 3.873528,0.23519 1.290158,0.0854 2.570421,0.26713 3.854373,0.41223 0.212066,0.0244 0.424659,0.0445 0.636193,0.0732 0.229677,0.0311 0.457856,0.0724 0.687192,0.10593 0.935117,0.13655 1.873358,0.2527 2.809555,0.38164 1.322236,0.22754 2.643105,0.46082 3.963844,0.69699 0.902367,0.15776 1.802434,0.32817 2.704254,0.48879 0.495133,0.0776 0.990054,0.15302 1.489418,0.19692 0,0 -4.447603,4.4476 -4.447603,4.4476 v 0 c -0.47086,-0.0658 -0.927783,-0.19841 -1.393145,-0.29319 -0.858861,-0.19945 -1.71159,-0.42381 -2.570588,-0.62246 -1.301597,-0.28212 -2.609353,-0.54542 -3.928248,-0.73259 -0.685363,-0.1109 -1.37069,-0.2223 -2.059138,-0.3128 -1.01912,-0.13397 -0.438544,-0.0511 -1.455682,-0.15669 -0.21217,-0.022 -0.423783,-0.0491 -0.635672,-0.0737 -1.281565,-0.15493 -2.562258,-0.32405 -3.850372,-0.41623 -1.291807,-0.0954 -2.583634,-0.18748 -3.878545,-0.23018 -1.236136,-0.0609 -2.47217,-0.12204 -3.70699,-0.20605 -1.137218,-0.0861 -2.273742,-0.18116 -3.411583,-0.25883 -0.976122,-0.0659 -1.953048,-0.10237 -2.929002,-0.16886 -0.7554377,-0.0688 -1.5100502,-0.15858 -2.2567046,-0.29393 -0.5533179,-0.10396 -1.103081,-0.23186 -1.636022,-0.41541 -0.3770354,-0.14071 -0.7331958,-0.32473 -1.0810298,-0.52686 0,0 4.4962204,-4.49622 4.4962204,-4.49622 z"
         inkscape:connector-curvature="0" />
      <path
         style="fill:#00ff00;fill-rule:evenodd;stroke:#00ff00;stroke-width:0.26458332"
         id="path9854"
         d="m 27.090372,249.43424 c -0.06342,0.68582 -0.06784,1.37569 -0.103103,2.06352 -0.03307,0.96732 -0.105735,1.93227 -0.180146,2.89709 -0.08962,1.19804 -0.204328,2.39383 -0.321239,3.58946 -0.135584,1.38087 -0.307569,2.75783 -0.48505,4.13383 -0.18189,1.42023 -0.416199,2.83305 -0.628371,4.24895 -0.19793,1.33828 -0.429565,2.67138 -0.64906,4.00627 -0.176904,1.22435 -0.330694,2.45178 -0.47327,3.68053 -0.125821,1.08586 -0.247286,2.17219 -0.372117,3.25819 -0.0892,0.90789 -0.199716,1.81354 -0.275482,2.72271 -0.06024,0.70596 -0.123341,1.41168 -0.179281,2.11801 -0.05213,0.56438 -0.0272,1.12931 0.02166,1.6926 0.06969,0.65589 0.217765,1.30073 0.384508,1.93785 0.177385,0.74913 0.444615,1.47141 0.69486,2.19804 0.152407,0.45046 0.331654,0.89253 0.463094,1.34982 0.06179,0.18523 0.11401,0.37338 0.175686,0.55859 0,0 -4.474982,4.47498 -4.474982,4.47498 v 0 c -0.05281,-0.19618 -0.08843,-0.3963 -0.141817,-0.59246 -0.110556,-0.47989 -0.260227,-0.94915 -0.388482,-1.42443 -0.203339,-0.74624 -0.436721,-1.48471 -0.671282,-2.22162 -0.181283,-0.62254 -0.36954,-1.24515 -0.427658,-1.8947 -0.05392,-0.56846 -0.09801,-1.13646 -0.0093,-1.70497 0.07407,-0.72632 0.159736,-1.45148 0.238559,-2.17729 0.09248,-0.92573 0.211661,-1.84847 0.324637,-2.77186 0.13877,-1.09972 0.274638,-2.1998 0.413431,-3.29951 0.153569,-1.23945 0.319886,-2.47741 0.505257,-3.71252 0.224899,-1.34449 0.479823,-2.68397 0.675971,-4.03318 0.219418,-1.41603 0.457168,-2.82994 0.631771,-4.25234 0.168352,-1.3636 0.336102,-2.72762 0.448467,-4.09725 0.09262,-1.17733 0.193925,-2.35398 0.264684,-3.53291 0.0471,-0.94208 0.09727,-1.88402 0.110457,-2.82741 0.01581,-0.63675 0.03215,-1.27784 -0.04929,-1.91111 0,0 4.476877,-4.47688 4.476877,-4.47688 z"
         inkscape:connector-curvature="0" />
      <path
         id="path9856"
         d="m 17.607422,259.56055 c -0.930211,0.33122 -1.612152,1.14382 -1.986886,2.03484 -0.51638,1.19392 -0.537434,2.52468 -0.472128,3.80291 0.0605,1.30637 0.22638,2.60487 0.382075,3.90237 0.29711,1.9567 1.066906,3.7941 1.746797,5.63978 0.861339,2.28901 1.695773,4.59226 2.722866,6.81375 0.301488,0.61582 0.683425,1.25117 1.309148,1.58105 0.632644,0.31287 1.431608,0.1221 1.927745,-0.35773 0.87912,-0.75861 1.682676,-1.59962 2.476403,-2.44561 0.862878,-0.91791 1.675961,-1.88659 2.364099,-2.94377 0.760075,-1.15484 1.390803,-2.38735 2.028456,-3.61212 0.807422,-1.58253 1.512681,-3.22365 1.996237,-4.9358 0.366607,-1.21019 0.746394,-2.43177 0.853792,-3.69746 0.03834,-1.04873 -0.287153,-2.15664 -1.067188,-2.88992 -0.704554,-0.68559 -1.671541,-1.0233 -2.627897,-1.16425 -0.942575,-0.17721 -1.909736,-0.22959 -2.864457,-0.13039 -0.845974,0.21062 -1.510591,0.81685 -2.125,1.40235 -0.237691,0.19048 -0.643095,0.15213 -0.808593,-0.11524 -0.617685,-0.71138 -1.222562,-1.48988 -2.091755,-1.90705 -1.062622,-0.57236 -2.263703,-0.78635 -3.431683,-1.03435 -0.118467,-0.0153 -0.222276,0.0155 -0.332031,0.0566 z"
         style="opacity:0.73000004;fill:#ff0000;fill-rule:evenodd;stroke:#00ff00;stroke-width:0.27195305"
         inkscape:connector-curvature="0" />
    </g>
  </g>
</svg>
