<?xml version="1.0" encoding="UTF-8" standalone="no"?>
<!-- Created with Inkscape (http://www.inkscape.org/) -->

<svg
   xmlns:dc="http://purl.org/dc/elements/1.1/"
   xmlns:cc="http://creativecommons.org/ns#"
   xmlns:rdf="http://www.w3.org/1999/02/22-rdf-syntax-ns#"
   xmlns:svg="http://www.w3.org/2000/svg"
   xmlns="http://www.w3.org/2000/svg"
   xmlns:sodipodi="http://sodipodi.sourceforge.net/DTD/sodipodi-0.dtd"
   xmlns:inkscape="http://www.inkscape.org/namespaces/inkscape"
   width="202"
   height="202"
   viewBox="0 0 53.445832 53.445835"
   version="1.1"
   id="svg15695"
   inkscape:version="0.92.3 (2405546, 2018-03-11)"
   sodipodi:docname="hykeynax.svg"
   inkscape:export-filename="C:\Users\Cole\Desktop\monster work\jiyou.png"
   inkscape:export-xdpi="792.47351"
   inkscape:export-ydpi="792.47351">
  <defs
     id="defs15689">
    <inkscape:path-effect
       effect="spiro"
       id="path-effect58676"
       is_visible="true" />
    <inkscape:path-effect
       effect="spiro"
       id="path-effect58672"
       is_visible="true" />
    <inkscape:path-effect
       effect="spiro"
       id="path-effect58650"
       is_visible="true" />
    <inkscape:path-effect
       effect="spiro"
       id="path-effect58646"
       is_visible="true" />
    <inkscape:path-effect
       effect="spiro"
       id="path-effect58627"
       is_visible="true" />
    <inkscape:path-effect
       effect="spiro"
       id="path-effect58623"
       is_visible="true" />
    <inkscape:path-effect
       effect="spiro"
       id="path-effect58619"
       is_visible="true" />
    <inkscape:path-effect
       effect="spiro"
       id="path-effect58615"
       is_visible="true" />
    <inkscape:path-effect
       effect="spiro"
       id="path-effect58611"
       is_visible="true" />
    <inkscape:path-effect
       effect="spiro"
       id="path-effect58607"
       is_visible="true" />
    <inkscape:path-effect
       effect="spiro"
       id="path-effect58603"
       is_visible="true" />
    <inkscape:path-effect
       effect="spiro"
       id="path-effect58599"
       is_visible="true" />
    <inkscape:path-effect
       effect="spiro"
       id="path-effect58595"
       is_visible="true" />
    <inkscape:path-effect
       effect="spiro"
       id="path-effect58591"
       is_visible="true" />
    <inkscape:path-effect
       effect="spiro"
       id="path-effect58587"
       is_visible="true" />
    <inkscape:path-effect
       effect="spiro"
       id="path-effect58583"
       is_visible="true" />
    <inkscape:path-effect
       effect="spiro"
       id="path-effect58579"
       is_visible="true" />
    <inkscape:path-effect
       effect="spiro"
       id="path-effect58508"
       is_visible="true" />
    <inkscape:path-effect
       effect="spiro"
       id="path-effect58504"
       is_visible="true" />
    <inkscape:path-effect
       effect="spiro"
       id="path-effect58421"
       is_visible="true" />
    <inkscape:path-effect
       effect="spiro"
       id="path-effect58417"
       is_visible="true" />
    <inkscape:path-effect
       effect="spiro"
       id="path-effect58413"
       is_visible="true" />
    <inkscape:path-effect
       effect="spiro"
       id="path-effect58252"
       is_visible="true" />
    <inkscape:path-effect
       effect="spiro"
       id="path-effect58248"
       is_visible="true" />
    <inkscape:path-effect
       effect="spiro"
       id="path-effect58244"
       is_visible="true" />
    <inkscape:path-effect
       effect="spiro"
       id="path-effect58240"
       is_visible="true" />
    <inkscape:path-effect
       effect="spiro"
       id="path-effect58236"
       is_visible="true" />
    <inkscape:path-effect
       effect="spiro"
       id="path-effect58232"
       is_visible="true" />
    <inkscape:path-effect
       effect="spiro"
       id="path-effect58228"
       is_visible="true" />
    <inkscape:path-effect
       effect="spiro"
       id="path-effect58224"
       is_visible="true" />
    <inkscape:path-effect
       effect="spiro"
       id="path-effect58220"
       is_visible="true" />
    <inkscape:path-effect
       effect="spiro"
       id="path-effect58216"
       is_visible="true" />
    <inkscape:path-effect
       effect="spiro"
       id="path-effect58208"
       is_visible="true" />
    <inkscape:path-effect
       effect="spiro"
       id="path-effect58204"
       is_visible="true" />
    <inkscape:path-effect
       effect="spiro"
       id="path-effect58200"
       is_visible="true" />
    <inkscape:path-effect
       effect="spiro"
       id="path-effect58196"
       is_visible="true" />
    <inkscape:path-effect
       effect="spiro"
       id="path-effect58192"
       is_visible="true" />
    <inkscape:path-effect
       effect="spiro"
       id="path-effect58188"
       is_visible="true" />
    <inkscape:path-effect
       effect="spiro"
       id="path-effect58184"
       is_visible="true" />
    <inkscape:path-effect
       effect="spiro"
       id="path-effect58176"
       is_visible="true" />
    <inkscape:path-effect
       effect="spiro"
       id="path-effect58172"
       is_visible="true" />
    <inkscape:path-effect
       effect="spiro"
       id="path-effect58168"
       is_visible="true" />
    <inkscape:path-effect
       effect="spiro"
       id="path-effect58164"
       is_visible="true" />
    <inkscape:path-effect
       effect="spiro"
       id="path-effect58160"
       is_visible="true" />
    <inkscape:path-effect
       effect="spiro"
       id="path-effect58156"
       is_visible="true" />
    <inkscape:path-effect
       effect="spiro"
       id="path-effect58152"
       is_visible="true" />
    <inkscape:path-effect
       effect="spiro"
       id="path-effect58148"
       is_visible="true" />
    <inkscape:path-effect
       effect="spiro"
       id="path-effect58144"
       is_visible="true" />
    <inkscape:path-effect
       effect="spiro"
       id="path-effect58132"
       is_visible="true" />
    <inkscape:path-effect
       effect="spiro"
       id="path-effect58128"
       is_visible="true" />
    <inkscape:path-effect
       effect="spiro"
       id="path-effect58109"
       is_visible="true" />
    <inkscape:path-effect
       effect="spiro"
       id="path-effect58105"
       is_visible="true" />
    <inkscape:path-effect
       effect="spiro"
       id="path-effect58101"
       is_visible="true" />
    <inkscape:path-effect
       effect="spiro"
       id="path-effect58097"
       is_visible="true" />
    <inkscape:path-effect
       effect="spiro"
       id="path-effect58087"
       is_visible="true" />
    <inkscape:path-effect
       effect="spiro"
       id="path-effect58083"
       is_visible="true" />
    <inkscape:path-effect
       effect="spiro"
       id="path-effect58079"
       is_visible="true" />
    <inkscape:path-effect
       effect="spiro"
       id="path-effect58059"
       is_visible="true" />
    <inkscape:path-effect
       effect="spiro"
       id="path-effect58037"
       is_visible="true" />
    <inkscape:path-effect
       effect="spiro"
       id="path-effect31674"
       is_visible="true" />
    <inkscape:path-effect
       effect="spiro"
       id="path-effect31666"
       is_visible="true" />
    <inkscape:path-effect
       effect="spiro"
       id="path-effect31660"
       is_visible="true" />
    <inkscape:path-effect
       effect="spiro"
       id="path-effect31656"
       is_visible="true" />
    <inkscape:path-effect
       effect="spiro"
       id="path-effect31652"
       is_visible="true" />
    <inkscape:path-effect
       effect="spiro"
       id="path-effect31648"
       is_visible="true" />
    <inkscape:path-effect
       effect="spiro"
       id="path-effect31644"
       is_visible="true" />
    <inkscape:path-effect
       effect="spiro"
       id="path-effect31640"
       is_visible="true" />
    <inkscape:path-effect
       effect="spiro"
       id="path-effect31636"
       is_visible="true" />
    <inkscape:path-effect
       effect="spiro"
       id="path-effect31632"
       is_visible="true" />
    <inkscape:path-effect
       effect="spiro"
       id="path-effect31628"
       is_visible="true" />
    <inkscape:path-effect
       effect="spiro"
       id="path-effect31606"
       is_visible="true" />
    <inkscape:path-effect
       effect="spiro"
       id="path-effect31602"
       is_visible="true" />
    <inkscape:path-effect
       effect="spiro"
       id="path-effect31598"
       is_visible="true" />
    <inkscape:path-effect
       effect="spiro"
       id="path-effect31594"
       is_visible="true" />
    <inkscape:path-effect
       effect="spiro"
       id="path-effect31590"
       is_visible="true" />
    <inkscape:path-effect
       effect="spiro"
       id="path-effect31586"
       is_visible="true" />
    <inkscape:path-effect
       effect="spiro"
       id="path-effect31582"
       is_visible="true" />
    <inkscape:path-effect
       effect="spiro"
       id="path-effect31578"
       is_visible="true" />
    <inkscape:path-effect
       effect="spiro"
       id="path-effect31574"
       is_visible="true" />
    <inkscape:path-effect
       effect="spiro"
       id="path-effect31570"
       is_visible="true" />
    <inkscape:path-effect
       effect="spiro"
       id="path-effect31476"
       is_visible="true" />
    <inkscape:path-effect
       effect="spiro"
       id="path-effect31450"
       is_visible="true" />
    <inkscape:path-effect
       effect="spiro"
       id="path-effect31446"
       is_visible="true" />
    <inkscape:path-effect
       effect="spiro"
       id="path-effect31405"
       is_visible="true" />
    <inkscape:path-effect
       effect="spiro"
       id="path-effect31401"
       is_visible="true" />
    <inkscape:path-effect
       effect="spiro"
       id="path-effect31397"
       is_visible="true" />
    <inkscape:path-effect
       effect="spiro"
       id="path-effect31385"
       is_visible="true" />
    <inkscape:path-effect
       effect="spiro"
       id="path-effect31374"
       is_visible="true" />
    <inkscape:path-effect
       effect="spiro"
       id="path-effect31370"
       is_visible="true" />
    <inkscape:path-effect
       effect="spiro"
       id="path-effect31362"
       is_visible="true" />
    <inkscape:path-effect
       effect="spiro"
       id="path-effect31358"
       is_visible="true" />
    <inkscape:path-effect
       effect="spiro"
       id="path-effect31354"
       is_visible="true" />
    <inkscape:path-effect
       effect="spiro"
       id="path-effect31350"
       is_visible="true" />
    <inkscape:path-effect
       effect="spiro"
       id="path-effect31346"
       is_visible="true" />
    <inkscape:path-effect
       effect="spiro"
       id="path-effect31342"
       is_visible="true" />
    <inkscape:path-effect
       effect="spiro"
       id="path-effect31338"
       is_visible="true" />
    <inkscape:path-effect
       effect="spiro"
       id="path-effect31334"
       is_visible="true" />
    <inkscape:path-effect
       effect="spiro"
       id="path-effect31330"
       is_visible="true" />
    <inkscape:path-effect
       effect="spiro"
       id="path-effect31326"
       is_visible="true" />
    <inkscape:path-effect
       effect="spiro"
       id="path-effect31322"
       is_visible="true" />
    <inkscape:path-effect
       effect="spiro"
       id="path-effect31318"
       is_visible="true" />
    <inkscape:path-effect
       effect="spiro"
       id="path-effect31314"
       is_visible="true" />
    <inkscape:path-effect
       effect="spiro"
       id="path-effect31302"
       is_visible="true" />
    <inkscape:path-effect
       effect="spiro"
       id="path-effect31298"
       is_visible="true" />
    <inkscape:path-effect
       effect="spiro"
       id="path-effect31294"
       is_visible="true" />
    <inkscape:path-effect
       effect="spiro"
       id="path-effect31290"
       is_visible="true" />
    <inkscape:path-effect
       effect="spiro"
       id="path-effect31286"
       is_visible="true" />
    <inkscape:path-effect
       effect="spiro"
       id="path-effect31282"
       is_visible="true" />
    <inkscape:path-effect
       effect="spiro"
       id="path-effect31260"
       is_visible="true" />
    <inkscape:path-effect
       effect="spiro"
       id="path-effect31256"
       is_visible="true" />
    <inkscape:path-effect
       effect="spiro"
       id="path-effect31252"
       is_visible="true" />
    <inkscape:path-effect
       effect="spiro"
       id="path-effect31248"
       is_visible="true" />
    <inkscape:path-effect
       effect="spiro"
       id="path-effect31244"
       is_visible="true" />
    <inkscape:path-effect
       effect="spiro"
       id="path-effect31236"
       is_visible="true" />
    <inkscape:path-effect
       effect="spiro"
       id="path-effect31226"
       is_visible="true" />
    <inkscape:path-effect
       effect="spiro"
       id="path-effect31212"
       is_visible="true" />
    <inkscape:path-effect
       effect="spiro"
       id="path-effect31208"
       is_visible="true" />
    <inkscape:path-effect
       effect="spiro"
       id="path-effect31196"
       is_visible="true" />
    <inkscape:path-effect
       effect="spiro"
       id="path-effect31192"
       is_visible="true" />
    <inkscape:path-effect
       effect="spiro"
       id="path-effect31188"
       is_visible="true" />
    <inkscape:path-effect
       effect="spiro"
       id="path-effect31184"
       is_visible="true" />
    <inkscape:path-effect
       effect="spiro"
       id="path-effect31180"
       is_visible="true" />
    <inkscape:path-effect
       effect="spiro"
       id="path-effect31176"
       is_visible="true" />
    <inkscape:path-effect
       effect="simplify"
       id="path-effect376"
       is_visible="true"
       steps="1"
       threshold="0.5"
       smooth_angles="360"
       helper_size="0"
       simplify_individual_paths="false"
       simplify_just_coalesce="false"
       simplifyindividualpaths="false"
       simplifyJustCoalesce="false" />
    <inkscape:path-effect
       effect="spiro"
       id="path-effect350"
       is_visible="true" />
    <inkscape:path-effect
       effect="spiro"
       id="path-effect344"
       is_visible="true" />
    <inkscape:path-effect
       effect="spiro"
       id="path-effect266"
       is_visible="true" />
    <inkscape:path-effect
       effect="spiro"
       id="path-effect262"
       is_visible="true" />
    <inkscape:path-effect
       effect="spiro"
       id="path-effect258"
       is_visible="true" />
    <inkscape:path-effect
       effect="spiro"
       id="path-effect254"
       is_visible="true" />
    <inkscape:path-effect
       effect="spiro"
       id="path-effect250"
       is_visible="true" />
    <inkscape:path-effect
       effect="spiro"
       id="path-effect246"
       is_visible="true" />
    <inkscape:path-effect
       effect="spiro"
       id="path-effect242"
       is_visible="true" />
    <inkscape:path-effect
       effect="spiro"
       id="path-effect238"
       is_visible="true" />
    <inkscape:path-effect
       effect="spiro"
       id="path-effect234"
       is_visible="true" />
    <inkscape:path-effect
       effect="spiro"
       id="path-effect230"
       is_visible="true" />
    <inkscape:path-effect
       effect="spiro"
       id="path-effect226"
       is_visible="true" />
    <inkscape:path-effect
       effect="spiro"
       id="path-effect222"
       is_visible="true" />
    <inkscape:path-effect
       effect="spiro"
       id="path-effect218"
       is_visible="true" />
    <inkscape:path-effect
       effect="spiro"
       id="path-effect210"
       is_visible="true" />
    <inkscape:path-effect
       effect="spiro"
       id="path-effect206"
       is_visible="true" />
    <inkscape:path-effect
       effect="spiro"
       id="path-effect202"
       is_visible="true" />
    <inkscape:path-effect
       effect="spiro"
       id="path-effect198"
       is_visible="true" />
    <inkscape:path-effect
       effect="spiro"
       id="path-effect194"
       is_visible="true" />
    <inkscape:path-effect
       effect="spiro"
       id="path-effect190"
       is_visible="true" />
    <inkscape:path-effect
       effect="spiro"
       id="path-effect182"
       is_visible="true" />
    <inkscape:path-effect
       effect="spiro"
       id="path-effect178"
       is_visible="true" />
    <inkscape:path-effect
       effect="spiro"
       id="path-effect174"
       is_visible="true" />
    <inkscape:path-effect
       effect="spiro"
       id="path-effect170"
       is_visible="true" />
    <inkscape:path-effect
       effect="spiro"
       id="path-effect162"
       is_visible="true" />
    <inkscape:path-effect
       effect="spiro"
       id="path-effect158"
       is_visible="true" />
    <inkscape:path-effect
       effect="spiro"
       id="path-effect154"
       is_visible="true" />
    <inkscape:path-effect
       effect="spiro"
       id="path-effect150"
       is_visible="true" />
    <inkscape:path-effect
       effect="spiro"
       id="path-effect146"
       is_visible="true" />
    <inkscape:path-effect
       effect="spiro"
       id="path-effect142"
       is_visible="true" />
    <inkscape:path-effect
       effect="spiro"
       id="path-effect138"
       is_visible="true" />
    <inkscape:path-effect
       effect="spiro"
       id="path-effect116"
       is_visible="true" />
    <inkscape:path-effect
       effect="spiro"
       id="path-effect112"
       is_visible="true" />
    <inkscape:path-effect
       effect="spiro"
       id="path-effect15879"
       is_visible="true" />
    <inkscape:path-effect
       effect="spiro"
       id="path-effect15875"
       is_visible="true" />
    <inkscape:path-effect
       effect="spiro"
       id="path-effect15740"
       is_visible="true" />
    <inkscape:path-effect
       effect="spiro"
       id="path-effect15736"
       is_visible="true" />
    <inkscape:path-effect
       effect="spiro"
       id="path-effect15732"
       is_visible="true" />
    <inkscape:path-effect
       effect="spiro"
       id="path-effect15726"
       is_visible="true" />
    <inkscape:path-effect
       effect="spiro"
       id="path-effect15707"
       is_visible="true" />
    <inkscape:path-effect
       effect="spiro"
       id="path-effect15703"
       is_visible="true" />
    <inkscape:path-effect
       effect="spiro"
       id="path-effect15699"
       is_visible="true" />
    <inkscape:path-effect
       effect="spiro"
       id="path-effect15740-2"
       is_visible="true" />
    <inkscape:path-effect
       effect="spiro"
       id="path-effect15740-3"
       is_visible="true" />
    <inkscape:path-effect
       effect="spiro"
       id="path-effect15740-2-1"
       is_visible="true" />
    <inkscape:path-effect
       effect="spiro"
       id="path-effect116-5"
       is_visible="true" />
    <inkscape:path-effect
       effect="spiro"
       id="path-effect266-7"
       is_visible="true" />
    <inkscape:path-effect
       effect="spiro"
       id="path-effect31236-3"
       is_visible="true" />
    <inkscape:path-effect
       effect="spiro"
       id="path-effect31602-8"
       is_visible="true" />
    <inkscape:path-effect
       effect="spiro"
       id="path-effect58037-5"
       is_visible="true" />
    <inkscape:path-effect
       effect="spiro"
       id="path-effect58037-8"
       is_visible="true" />
    <inkscape:path-effect
       effect="spiro"
       id="path-effect58037-9"
       is_visible="true" />
    <inkscape:path-effect
       effect="spiro"
       id="path-effect58037-56"
       is_visible="true" />
    <inkscape:path-effect
       effect="spiro"
       id="path-effect58037-5-2"
       is_visible="true" />
    <inkscape:path-effect
       effect="spiro"
       id="path-effect58059-2"
       is_visible="true" />
    <inkscape:path-effect
       effect="spiro"
       id="path-effect58037-8-0"
       is_visible="true" />
    <inkscape:path-effect
       effect="spiro"
       id="path-effect58037-9-6"
       is_visible="true" />
    <inkscape:path-effect
       effect="spiro"
       id="path-effect58079-6"
       is_visible="true" />
    <inkscape:path-effect
       effect="spiro"
       id="path-effect58650-7"
       is_visible="true" />
  </defs>
  <sodipodi:namedview
     id="base"
     pagecolor="#ffffff"
     bordercolor="#666666"
     borderopacity="1.0"
     inkscape:pageopacity="0.0"
     inkscape:pageshadow="2"
     inkscape:zoom="2.8284271"
     inkscape:cx="43.297271"
     inkscape:cy="71.89092"
     inkscape:document-units="mm"
     inkscape:current-layer="layer6"
     showgrid="false"
     units="px"
     gridtolerance="1"
     objecttolerance="1"
     inkscape:window-width="1920"
     inkscape:window-height="1017"
     inkscape:window-x="-8"
     inkscape:window-y="-8"
     inkscape:window-maximized="1"
     showguides="false" />
  <metadata
     id="metadata15692">
    <rdf:RDF>
      <cc:Work
         rdf:about="">
        <dc:format>image/svg+xml</dc:format>
        <dc:type
           rdf:resource="http://purl.org/dc/dcmitype/StillImage" />
        <dc:title></dc:title>
      </cc:Work>
    </rdf:RDF>
  </metadata>
  <g
     inkscape:label="Layer 1"
     inkscape:groupmode="layer"
     id="layer1"
     transform="translate(0,-243.55415)" />
  <g
     inkscape:groupmode="layer"
     id="layer6"
     inkscape:label="Layer 2">
    <path
       style="opacity:1;fill:none;fill-opacity:1;fill-rule:nonzero;stroke:#000000;stroke-width:0.26458332;stroke-opacity:1"
       d="m 39.836328,26.152408 c 1.038429,0.302471 2.022933,0.789098 2.89388,1.430404 0.808964,0.595666 1.541615,1.359672 1.852083,2.315104 0.226918,0.698317 0.213676,1.448711 0.198438,2.182813 -0.01558,0.750566 -0.0307,1.504502 0.06614,2.248958 0.03772,0.289973 0.09282,0.57937 0.195286,0.853243 0.102471,0.273873 0.254218,0.532808 0.466173,0.734257 0.130915,0.124426 0.28227,0.224903 0.425012,0.335561 0.142742,0.110658 0.279747,0.234877 0.368738,0.392043 0.09666,0.170715 0.130908,0.373009 0.113388,0.568406 -0.01752,0.195398 -0.08492,0.384219 -0.179538,0.556073 -0.2542,0.461687 -0.70073,0.797827 -1.190625,0.992188 -0.515644,0.204577 -1.082633,0.263347 -1.635186,0.214095 -0.552553,-0.04925 -1.091955,-0.203872 -1.60596,-0.412533 -0.45052,-0.182889 -0.888175,-0.410502 -1.256771,-0.727604 -0.343229,-0.29528 -0.618032,-0.660334 -0.926041,-0.992187 -0.841997,-0.907179 -1.921681,-1.556168 -2.844271,-2.38125 -0.883585,-0.790199 -1.617745,-1.737214 -2.513542,-2.513542 -1.900533,-1.647066 -4.51701,-2.436946 -7.011458,-2.116667"
       id="path58644"
       inkscape:connector-curvature="0"
       inkscape:path-effect="#path-effect58646"
       inkscape:original-d="m 39.836328,26.152408 c 0.904258,0.462757 1.968103,0.967119 2.89388,1.430404 0.925777,0.463286 1.234987,1.543137 1.852083,2.315104 0.617096,0.771967 0.132556,1.454944 0.198438,2.182813 0.06588,0.727869 0.04436,1.499042 0.06614,2.248958 0.02178,0.749917 0.441238,1.058069 0.661459,1.5875 0.22022,0.529431 0.529431,0.484804 0.79375,0.727604 0.264318,0.2428 -0.04383,0.749388 -0.06615,1.124479 -0.0223,0.375092 -0.793485,0.661194 -1.190625,0.992188 -0.39714,0.330994 -2.1605,-0.132556 -3.241146,-0.198438 -1.080645,-0.06588 -0.837583,-0.485333 -1.256771,-0.727604 -0.419187,-0.242271 -0.617095,-0.661723 -0.926041,-0.992187 -0.308946,-0.330465 -1.895917,-1.587765 -2.844271,-2.38125 C 35.82872,33.668493 35.101645,32.786021 34.263532,31.948437 33.42542,31.110854 29.58949,30.537062 27.252074,29.83177"
       sodipodi:nodetypes="csscscccscccssc" />
    <path
       style="opacity:1;fill:none;fill-opacity:1;fill-rule:nonzero;stroke:#000000;stroke-width:0.26458332;stroke-opacity:1"
       d="m 35.189583,26.458333 c -0.477781,0.09457 -0.992829,-0.0173 -1.388322,-0.301562 -0.395494,-0.284261 -0.665699,-0.736786 -0.728345,-1.219792 -0.03254,-0.250908 -0.01081,-0.509224 0.0677,-0.749744 0.07851,-0.24052 0.214085,-0.462779 0.395323,-0.639319 0.240378,-0.234147 0.550034,-0.3809 0.830464,-0.565197 0.140215,-0.09215 0.274736,-0.195083 0.386418,-0.320298 0.111682,-0.125215 0.200134,-0.274042 0.238326,-0.437422 0.03329,-0.142416 0.02766,-0.291527 0.0048,-0.435987 -0.02284,-0.144461 -0.06252,-0.285624 -0.09725,-0.427698 -0.03472,-0.142074 -0.06467,-0.286394 -0.06744,-0.432624 -0.0028,-0.146229 0.02291,-0.295512 0.09373,-0.423482 0.101667,-0.18373 0.293089,-0.310535 0.499144,-0.350959 0.206055,-0.04042 0.423954,0.0013 0.610238,0.09825 0.186283,0.09691 0.342084,0.246537 0.463398,0.41793 0.121315,0.171393 0.209465,0.364354 0.279303,0.562383 0.174397,0.494508 0.237202,1.021898 0.396875,1.521354 0.150629,0.471167 0.386007,0.912047 0.661458,1.322917 0.232048,0.346129 0.495155,0.676241 0.661459,1.058333 0.234319,0.538359 0.258419,1.165027 0.06614,1.719792"
       id="path58648"
       inkscape:connector-curvature="0"
       inkscape:path-effect="#path-effect58650"
       inkscape:original-d="m 35.189583,26.458333 c -0.705292,-0.507383 -1.410846,-1.014501 -2.116667,-1.521354 -0.705821,-0.506854 0.308946,-0.926307 0.463021,-1.389063 0.154075,-0.462756 0.970404,-0.882209 1.455208,-1.322917 0.484804,-0.440707 -0.04383,-1.146792 -0.06615,-1.719791 -0.0223,-0.573 1.234987,0.484805 1.852083,0.727604 0.617096,0.242799 0.264848,1.013971 0.396875,1.521354 0.132027,0.507383 0.441238,0.88168 0.661458,1.322917 0.220221,0.441237 0.441238,0.705291 0.661459,1.058333 0.22022,0.353042 0.04436,1.146263 0.06614,1.719792" />
    <path
       style="opacity:1;fill:none;fill-opacity:1;fill-rule:nonzero;stroke:#000000;stroke-width:0.26458332;stroke-opacity:1"
       d="m 37.796576,22.237372 c -0.147876,-0.08565 -0.273581,-0.209227 -0.361752,-0.355616 -0.08817,-0.14639 -0.138625,-0.315287 -0.145193,-0.486053 -0.0066,-0.170766 0.03076,-0.343039 0.107428,-0.495769 0.07667,-0.152729 0.192507,-0.285592 0.333367,-0.382353 0.15695,-0.107814 0.343955,-0.170174 0.533916,-0.183288 0.189961,-0.01311 0.382485,0.02251 0.557299,0.098 0.349627,0.150961 0.619778,0.459171 0.760868,0.812897 0.09739,0.24418 0.136862,0.506804 0.181484,0.765876 0.04462,0.259073 0.0964,0.521064 0.215391,0.755478 0.08891,0.175159 0.212934,0.329964 0.312061,0.499553 0.04956,0.08479 0.09304,0.17369 0.1214,0.267723 0.02836,0.09403 0.04133,0.193549 0.02956,0.291058 -0.0027,0.02207 -0.0065,0.04489 10e-7,0.06614 0.0043,0.01408 0.01321,0.02673 0.025,0.03557 0.01179,0.0088 0.02641,0.01383 0.04114,0.01404"
       id="path58648-0"
       inkscape:connector-curvature="0"
       inkscape:path-effect="#path-effect58650-7"
       inkscape:original-d="m 37.796576,22.237372 c 0.484804,-0.440707 -0.04383,-1.146792 -0.06615,-1.719791 -0.0223,-0.573 1.234987,0.484805 1.852083,0.727604 0.617096,0.242799 0.264848,1.013971 0.396875,1.521354 0.132027,0.507383 0.2428,0.617097 0.46302,1.058334 0.220221,0.441237 -0.22022,-0.286897 10e-7,0.06614 0.22022,0.353042 0.04436,-0.523919 0.06614,0.04961"
       sodipodi:nodetypes="ccssccc" />
    <path
       style="opacity:1;fill:none;fill-opacity:1;fill-rule:nonzero;stroke:#000000;stroke-width:0.26458332;stroke-opacity:1"
       d="m 37.796575,22.237372 c 0.269079,0.08923 0.485991,0.321524 0.556602,0.596077 0.05432,0.211212 0.02342,0.443068 -0.08431,0.632683 -0.107736,0.189616 -0.291093,0.334847 -0.500339,0.396305"
       id="path58670"
       inkscape:connector-curvature="0"
       inkscape:path-effect="#path-effect58672"
       inkscape:original-d="m 37.796575,22.237372 c 0.185799,0.198428 0.371332,0.39712 0.556602,0.596077 0.185269,0.198957 -0.389504,0.685728 -0.584653,1.028988" />
    <path
       style="opacity:1;fill:none;fill-opacity:1;fill-rule:nonzero;stroke:#000000;stroke-width:0.26458332;stroke-opacity:1"
       d="m 32.974377,24.540633 c -2.36558,-0.526894 -4.630965,-1.500052 -6.641647,-2.853102 -0.863831,-0.581299 -1.681935,-1.232382 -2.580208,-1.758897 -0.898273,-0.526515 -1.897977,-0.929899 -2.938908,-0.953889 -0.761399,-0.01755 -1.51198,0.167722 -2.245064,0.374178 -3.363532,0.947262 -6.583349,2.366921 -9.6350661,4.069178 -1.871499,1.043927 -3.6972621,2.206065 -5.2384827,3.695002 -0.4549219,0.439489 -0.8865452,0.910017 -1.2160764,1.449937 -0.7091908,1.161974 -0.8972084,2.63709 -0.4677216,3.928862 0.3849019,1.157673 1.212441,2.105801 1.8252551,3.160702 0.5734223,0.987092 0.9601099,2.072659 1.2567708,3.175 0.5094278,1.892946 0.7615407,3.867598 0.5953125,5.820833 -0.056194,0.660294 -0.160835,1.320258 -0.3762812,1.946939 -0.2154462,0.626681 -0.5456175,1.221077 -1.0127813,1.691082 -0.5879367,0.591512 -1.3725216,0.969666 -1.9141538,1.603851 -0.2708161,0.317092 -0.4766168,0.703365 -0.5140036,1.118685 -0.018693,0.207661 0.00553,0.420144 0.079674,0.615014 0.074148,0.19487 0.1990507,0.371519 0.3641089,0.498908 0.1670034,0.128891 0.3692096,0.204364 0.5733655,0.257499 0.2041559,0.05313 0.4132335,0.08574 0.6172594,0.139376 0.5217156,0.137142 1.0060385,0.413898 1.3890625,0.79375"
       id="path58674"
       inkscape:connector-curvature="0"
       inkscape:path-effect="#path-effect58676"
       inkscape:original-d="m 32.974377,24.540633 c -2.182436,-0.935708 -4.4275,-1.902332 -6.641647,-2.853102 -2.214147,-0.950769 -3.679146,-1.808788 -5.519116,-2.712786 -1.83997,-0.903997 -1.496444,0.249187 -2.245064,0.374178 -0.748619,0.12499 -6.423113,2.712521 -9.6350661,4.069178 -3.2119533,1.356658 -3.4920573,2.46307 -5.2384827,3.695002 -1.7464255,1.231931 -0.8104529,0.966359 -1.2160764,1.449937 -0.4056233,0.483577 -0.3115498,2.618976 -0.4677216,3.928862 -0.1561718,1.309886 1.2171013,2.106869 1.8252551,3.160702 0.6081538,1.053832 0.8381119,2.116402 1.2567708,3.175 0.4186592,1.058598 0.3971396,3.880291 0.5953125,5.820833 0.1981729,1.940541 -0.9257771,2.425083 -1.3890625,3.638021 -0.4632854,1.212937 -1.3226521,2.557375 -1.9843749,3.836458 -0.6617229,1.279083 0.7940145,0.264319 1.1906249,0.396875 0.3966104,0.132556 0.9263063,0.528902 1.3890625,0.79375" />
    <path
       style="opacity:1;fill:none;fill-opacity:1;fill-rule:nonzero;stroke:#000000;stroke-width:0.26458332;stroke-opacity:1"
       d="M 0.95911457,29.03802 0.1984375,37.140885 c 0,0 0.62838541,-1.422135 0.52916666,-1.02526 -0.0992188,0.396875 0.29765624,0.661458 0.1984375,1.355989 -0.0992188,0.694531 -0.0330729,1.157552 -0.0330729,1.157552 L 1.2567708,37.074739 c 0,0 -0.033073,-1.355989 0.1653646,-0.264583 0.1984375,1.091406 0.1322917,1.653646 0.2315104,1.157552 0.099219,-0.496094 0,-1.752865 0.1322917,-1.091406 0.1322917,0.661458 0.5953125,2.447395 0.5291667,1.124479 -0.066146,-1.322917 0.033073,-1.124479 -0.099219,-1.819011 -0.1322916,-0.694531 -0.396875,-1.355989 -0.396875,-1.355989 0,0 1.0252604,1.256771 0.8268229,0.628385 C 2.4473958,34.825781 2.5796875,34.991145 2.2820312,34.495052 1.984375,33.998958 1.8520833,32.940625 1.8520833,32.940625 l -0.033073,-1.091407"
       id="path58678"
       inkscape:connector-curvature="0" />
    <path
       style="opacity:1;fill:none;fill-opacity:1;fill-rule:nonzero;stroke:#000000;stroke-width:0.26458332;stroke-opacity:1"
       d="M 0.92604166,29.104166 2.4804687,26.193749 7.4083332,24.308593"
       id="path58680"
       inkscape:connector-curvature="0" />
    <path
       style="opacity:1;fill:none;fill-opacity:1;fill-rule:nonzero;stroke:#000000;stroke-width:0.26458332;stroke-opacity:1"
       d="m 27.455261,29.732343 c 0,0 -0.654809,2.245066 -1.449936,3.695001 -0.795127,1.449938 -3.554685,4.72399 -3.554685,4.72399 0,0 0,0.467722 0.701583,0.982215 0.701582,0.514493 5.706204,4.770761 5.706204,4.770761 l 1.870887,1.91766 0.514493,2.19829 -1.590252,2.57247"
       id="path58682"
       inkscape:connector-curvature="0"
       sodipodi:nodetypes="cscscccc" />
    <path
       style="opacity:1;fill:none;fill-opacity:1;fill-rule:nonzero;stroke:#000000;stroke-width:0.26458332;stroke-opacity:1"
       d="M 43.919065,38.852916 42.375584,37.870701 41.533685,36.654626 41.253052,36.420763 40.645013,36.14013"
       id="path58684"
       inkscape:connector-curvature="0" />
    <path
       style="opacity:1;fill:none;fill-opacity:1;fill-rule:nonzero;stroke:#000000;stroke-width:0.26458332;stroke-opacity:1"
       d="m 42.702987,32.351585 -0.467719,-1.122531 0.04677,-0.514493 0.841899,0.04677 0.654812,0.608039"
       id="path58686"
       inkscape:connector-curvature="0" />
    <path
       style="opacity:1;fill:none;fill-opacity:1;fill-rule:nonzero;stroke:#000000;stroke-width:0.26458332;stroke-opacity:1"
       d="M 45.789953,38.104561 45.32223,37.402979 45.228687,36.794942"
       id="path58688"
       inkscape:connector-curvature="0" />
    <path
       style="opacity:1;fill:none;fill-opacity:1;fill-rule:nonzero;stroke:#000000;stroke-width:0.26458332;stroke-opacity:1"
       d="M 39.896658,26.084115 38.680583,25.242216 38.119317,24.868038"
       id="path58690"
       inkscape:connector-curvature="0" />
    <path
       style="opacity:1;fill:none;fill-opacity:1;fill-rule:nonzero;stroke:#000000;stroke-width:0.26458332;stroke-opacity:1"
       d="m 42.609444,32.094339 0.561266,-0.07016 0.420949,-0.23386 0.02339,-0.537879"
       id="path58696"
       inkscape:connector-curvature="0" />
    <path
       style="opacity:1;fill:none;fill-opacity:1;fill-rule:nonzero;stroke:#000000;stroke-width:0.26458332;stroke-opacity:1"
       d="m 29.630169,50.616117 -1.543482,0.02339 0.30402,-1.473325 0.514493,-1.473321 c 0,0 -0.748356,-1.356395 -1.333008,-1.543482 -0.584653,-0.187089 -5.519115,-3.086965 -5.940065,-3.437755 -0.420949,-0.350792 -3.110349,-3.952247 -3.110349,-3.952247 l -0.841899,-6.688421"
       id="path58698"
       inkscape:connector-curvature="0" />
    <path
       style="opacity:1;fill:none;fill-opacity:1;fill-rule:nonzero;stroke:#000000;stroke-width:0.26458332;stroke-opacity:1"
       d="m 18.054057,35.625637 c 0,0 -4.864306,1.356392 -5.612661,1.262849 -0.748354,-0.09354 -1.683797,-0.04677 -1.683797,-0.04677"
       id="path58700"
       inkscape:connector-curvature="0"
       sodipodi:nodetypes="ccc" />
    <path
       style="opacity:1;fill:none;fill-opacity:1;fill-rule:nonzero;stroke:#000000;stroke-width:0.26458332;stroke-opacity:1"
       d="m 11.295478,32.866078 c 0,0 -0.678196,1.964431 -0.584652,2.38538 0.09354,0.420952 0.02339,3.578072 0,3.671618 -0.02339,0.09354 0,2.104747 -0.07016,2.26845 -0.07016,0.1637 -0.865285,2.198291 -0.865285,2.198291 0,0 -0.6548104,1.753957 -0.7951269,1.96443 -0.1403164,0.210476 -0.7249686,1.239462 -0.7717408,1.356395 -0.046772,0.11693 -2.3853804,2.525696 -2.3853804,2.525696 l -1.0289879,1.122532 1.4499373,1.987817 0.337426,0.735344"
       id="path58702"
       inkscape:connector-curvature="0" />
    <path
       style="opacity:1;fill:none;fill-opacity:1;fill-rule:nonzero;stroke:#000000;stroke-width:0.26458332;stroke-opacity:1"
       d="m 4.7955729,53.280468 2.6127603,0.09922 -0.8929687,-0.496094"
       id="path58704"
       inkscape:connector-curvature="0" />
    <path
       style="opacity:1;fill:none;fill-opacity:1;fill-rule:nonzero;stroke:#000000;stroke-width:0.26458332;stroke-opacity:1"
       d="m 28.145052,50.568489 -0.892969,0.09922"
       id="path58708"
       inkscape:connector-curvature="0" />
    <path
       style="opacity:1;fill:none;fill-opacity:1;fill-rule:nonzero;stroke:#000000;stroke-width:0.26458332;stroke-opacity:1"
       d="m 26.51982,32.351585 0.982215,3.274052 c 0,0 0.701582,4.303038 0.748353,4.490128 0.04677,0.187089 0.140319,3.461141 0.140319,3.461141"
       id="path58710"
       inkscape:connector-curvature="0" />
    <path
       style="opacity:1;fill:none;fill-opacity:1;fill-rule:nonzero;stroke:#000000;stroke-width:0.26458332;stroke-opacity:1"
       d="m 25.537603,45.120387 -0.187088,1.894272 c 0,0 -0.53788,3.040192 -0.53788,3.133735 0,0.09355 0.04677,1.169305 0.140316,1.543481 0.09354,0.374179 0.748355,1.449938 0.748355,1.449938 l 0.233861,0.210476"
       id="path58714"
       inkscape:connector-curvature="0" />
    <path
       style="opacity:1;fill:none;fill-opacity:1;fill-rule:nonzero;stroke:#000000;stroke-width:0.26458332;stroke-opacity:1"
       d="m 28.390707,50.70966 0.09354,1.052375 0.374177,0.584652 0.444336,0.631423 c 0,0 0.701582,0.18709 0.795125,0.210476 0.09355,0.02339 0.397566,0.210474 0.397566,0.210474 l -3.180509,-0.02339 -1.449937,-0.140316"
       id="path58716"
       inkscape:connector-curvature="0" />
    <path
       style="opacity:1;fill:none;fill-opacity:1;fill-rule:nonzero;stroke:#000000;stroke-width:0.26458332;stroke-opacity:1"
       d="m 12.862346,36.748169 0.841899,3.882091 -0.701582,3.04019 -1.169305,3.648228 -0.701582,0.888672 0.09354,1.590254 0.280633,1.356392 0.514494,1.449938 -0.09354,0.748355"
       id="path58718"
       inkscape:connector-curvature="0" />
    <path
       style="opacity:1;fill:none;fill-opacity:1;fill-rule:nonzero;stroke:#000000;stroke-width:0.26458332;stroke-opacity:1"
       d="m 9.5415221,43.43659 0.7015829,2.19829 c 0,0 -1.1225364,1.964431 -1.3096264,2.33861 -0.1870885,0.374176 -0.6548102,1.683798 -0.6548102,1.683798 0,0 1.0289882,1.496708 1.0289882,1.683798 0,0.187089 0.608038,1.449937 0.8418994,1.870887 0.23386,0.420949 1.730569,0.140316 1.730569,0.140316"
       id="path58720"
       inkscape:connector-curvature="0"
       sodipodi:nodetypes="ccscssc" />
    <path
       style="opacity:1;fill:none;fill-opacity:1;fill-rule:nonzero;stroke:#000000;stroke-width:0.26458332;stroke-opacity:1"
       d="m 10.406807,52.346687 0.327405,0.958829 0.116931,0.514493"
       id="path58722"
       inkscape:connector-curvature="0" />
    <path
       style="opacity:1;fill:none;fill-opacity:1;fill-rule:nonzero;stroke:#000000;stroke-width:0.26458332;stroke-opacity:1"
       d="m 11.272092,52.533774 0.233861,0.608039 0.163703,0.631426"
       id="path58724"
       inkscape:connector-curvature="0" />
    <path
       style="opacity:1;fill:none;fill-opacity:1;fill-rule:nonzero;stroke:#000000;stroke-width:0.26458332;stroke-opacity:1"
       d="m 11.926903,52.580547 0.210474,0.467723 0.187089,0.724969"
       id="path58726"
       inkscape:connector-curvature="0" />
    <path
       style="opacity:1;fill:none;fill-opacity:1;fill-rule:nonzero;stroke:#000000;stroke-width:0.26458332;stroke-opacity:1"
       d="M 8.3488317,49.587128 7.6940216,50.031464"
       id="path58728"
       inkscape:connector-curvature="0" />
    <path
       style="opacity:1;fill:none;fill-opacity:1;fill-rule:nonzero;stroke:#000000;stroke-width:0.26458332;stroke-opacity:1"
       d="M 1.8942728,51.294312 1.4967093,52.159598"
       id="path58730"
       inkscape:connector-curvature="0" />
    <path
       style="opacity:1;fill:none;fill-opacity:1;fill-rule:nonzero;stroke:#000000;stroke-width:0.26458332;stroke-opacity:1"
       d="m 24.882793,51.528175 -0.514494,0.888669"
       id="path58732"
       inkscape:connector-curvature="0" />
    <path
       style="opacity:1;fill:none;fill-opacity:1;fill-rule:nonzero;stroke:#000000;stroke-width:0.26458332;stroke-opacity:1"
       d="m 37.041666,26.193749 c 0,-0.396875 -1.124479,-2.182812 -1.124479,-2.182812 0,0 -0.529167,-0.661458 -0.463021,-0.06615 0.06615,0.595313 0.396875,1.521354 0.396875,1.521354 l -0.06615,0.727604 z"
       id="path58846"
       inkscape:connector-curvature="0" />
    <path
       style="opacity:1;fill:#decd87;fill-opacity:1;fill-rule:nonzero;stroke:#c8ab37;stroke-width:0.04677217;stroke-opacity:1"
       d="m 20.71613,19.071221 c -1.396448,0.03829 -2.720202,0.549889 -4.038174,0.96223 -3.481414,1.199827 -6.8211001,2.818515 -9.9222824,4.803625 -1.5249292,1.023691 -3.0579768,2.137078 -4.1175205,3.663467 -0.9377023,1.398953 -1.0207016,3.326855 -0.1675887,4.786712 0.7052814,1.288746 1.6707505,2.43826 2.1594285,3.839057 0.8437642,2.263878 1.2851347,4.699084 1.1750765,7.115656 -0.089701,1.43492 -0.379381,2.992874 -1.4126086,4.066151 -0.6599967,0.683059 -1.5727468,1.106673 -2.1214648,1.896557 -0.3739611,0.535387 -0.4664266,1.403477 0.1053288,1.840466 0.5766897,0.382505 1.3323056,0.322664 1.9139135,0.707429 0.3406944,0.162886 0.591661,0.550863 1.0109186,0.465021 0.4659419,-0.0046 0.9420051,0.06764 1.4031463,0.0055 0.1241086,-0.154914 -0.1377688,-0.158628 -0.2174174,-0.178136 -0.4772274,-0.97141 -1.1896159,-1.812351 -1.8069404,-2.700179 1.115372,-1.226373 2.285827,-2.406078 3.4076092,-3.623117 0.5285142,-0.956307 1.1397173,-1.899734 1.4103805,-2.969749 0.038914,-0.109858 -0.074649,-0.261877 0.083679,-0.292235 0.3559736,-0.562996 0.5243119,-1.227667 0.7942949,-1.8346 0.178262,-0.339285 0.241675,-0.703119 0.217093,-1.083804 0.07278,-1.863704 0.03065,-3.733613 0.07095,-5.594951 0.05622,-0.70744 0.311999,-1.389409 0.547472,-2.049753 0.176237,-0.04313 0.107927,0.175773 0.07034,0.274327 -0.226908,0.778331 -0.533553,1.561955 -0.455888,2.389098 0.02614,0.384765 -0.0058,0.785876 0.06381,1.159558 0.928756,0.03761 1.884833,0.151545 2.799313,-0.09306 1.440962,-0.304112 2.861276,-0.695862 4.286488,-1.064826 0.10717,-0.230261 -0.05143,-0.550897 -0.04569,-0.814705 -0.106209,-0.873987 -0.236605,-1.756783 -0.311586,-2.627159 0.259885,-0.07447 0.154,0.279437 0.210542,0.43248 0.263849,2.061504 0.508628,4.128458 0.78903,6.185964 0.985468,1.278109 1.922863,2.598949 2.992596,3.808645 0.676291,0.560538 1.476418,0.95091 2.216641,1.419286 1.329348,0.800137 2.698251,1.540907 4.05887,2.278636 0.441008,0.315408 0.717363,0.8093 1.009878,1.258089 0.226994,0.252934 -0.08584,0.560573 -0.124767,0.840454 -0.23803,0.707689 -0.462997,1.439744 -0.541263,2.177547 0.430749,0.05496 0.884666,0.0043 1.324147,0.01937 0.358711,-0.444201 0.620519,-0.989222 0.941583,-1.472605 0.20937,-0.366667 0.470178,-0.714237 0.648668,-1.092372 -0.170918,-0.69968 -0.318331,-1.408353 -0.503806,-2.102464 -1.058839,-1.147439 -2.187985,-2.227651 -3.397356,-3.215772 -1.458666,-1.247214 -2.945083,-2.463419 -4.413503,-3.697375 -0.228107,-0.21904 -0.487069,-0.520567 -0.435018,-0.855419 1.187937,-1.532469 2.491853,-2.992419 3.487316,-4.664593 0.615813,-1.119439 1.056675,-2.330863 1.412434,-3.555066 -0.02418,-0.136015 0.07097,-0.174866 0.194294,-0.165838 2.347044,-0.215162 4.78586,0.487164 6.61398,1.992145 1.408589,1.272072 2.641888,2.740279 4.190322,3.853633 0.880542,0.638204 1.578915,1.47126 2.361002,2.216766 0.595643,0.504823 1.352759,0.789075 2.099426,0.987264 0.253532,0.04716 0.513099,0.144319 0.77238,0.113641 0.115461,-0.168854 -0.207791,-0.257905 -0.299601,-0.360193 -0.39484,-0.302271 -0.924213,-0.458907 -1.153639,-0.931146 -0.351369,-0.503242 -0.685377,-1.101015 -1.311799,-1.295746 -0.188111,0.02053 -0.06107,-0.265787 0.05454,-0.177131 0.395108,0.164389 0.775896,0.394896 0.991169,0.77905 0.332139,0.396637 0.526828,0.933905 1.023644,1.156205 0.394493,0.263197 0.841729,0.494644 1.168709,0.825765 0.611714,7.94e-4 1.220203,-0.247767 1.711479,-0.606851 0.03701,-0.203131 -0.216866,-0.383252 -0.298702,-0.574254 -0.172704,-0.240739 -0.265221,-0.592037 -0.230957,-0.854123 0.220464,-0.06503 0.147156,0.241213 0.21568,0.363215 0.121211,0.277508 0.22256,0.635778 0.49997,0.790741 0.226624,-0.06934 0.278617,-0.372988 0.372899,-0.564372 0.197016,-0.449717 -0.111337,-0.910219 -0.470654,-1.167299 -0.505863,-0.360135 -0.85919,-0.905537 -0.968595,-1.517806 -0.156808,-0.920171 -0.09033,-1.862442 -0.134882,-2.792894 -0.01881,-0.841259 0.02143,-1.729108 -0.400195,-2.491335 -0.693817,-1.354503 -2.057567,-2.200273 -3.394972,-2.825171 -0.249711,-0.11788 -0.522211,-0.235353 -0.788641,-0.260717 -0.157803,-0.03436 -0.09637,-0.288899 -0.270949,-0.265743 -0.378159,-0.172883 -0.685147,-0.483637 -1.05274,-0.660017 -0.108982,0.218016 0.0064,0.514371 -0.0263,0.764969 -0.01556,0.19232 -7.94e-4,0.437605 -0.122238,0.58996 -0.09761,0.0104 -0.194243,-0.0099 -0.1183,-0.131363 0.101957,-0.485972 0.127476,-1.05124 -0.140227,-1.489492 -0.05195,-0.110318 -0.246877,-0.140489 -0.258617,-0.255968 0.143563,-0.189878 -0.133855,-0.40416 -0.202136,-0.573859 -0.569074,-0.770313 -0.894498,-1.673708 -1.092446,-2.602025 -0.133972,-0.600238 -0.396351,-1.341544 -1.074629,-1.490279 -0.370258,-0.109996 -0.847275,0.154622 -0.811752,0.574695 -0.02217,0.585336 0.362624,1.239115 -0.04266,1.768024 -0.459335,0.599321 -1.363569,0.771002 -1.63264,1.531789 -0.339937,0.854256 0.171479,1.913007 1.055206,2.172256 0.260151,0.0938 0.539488,0.05557 0.807458,0.09656 0.132911,0.269896 -0.23082,0.116149 -0.388377,0.141409 -0.896511,0.01286 -1.666428,-0.78329 -1.753917,-1.656962 0.04763,-0.364769 -0.358388,-0.32372 -0.59718,-0.402341 C 30.334693,23.943146 28.347873,23.115236 26.570543,21.935511 25.050241,20.96837 23.65579,19.709128 21.87977,19.222043 21.502173,19.113265 21.108549,19.06772 20.71613,19.071221 Z m 14.813712,4.5538 c 0.382336,0.07179 0.53036,0.513115 0.73573,0.793 0.310398,0.584369 0.723958,1.139255 0.863399,1.795223 -0.107112,0.150632 -0.533548,0.02195 -0.76417,0.06454 -0.213005,-0.06964 -0.767421,0.170693 -0.664019,-0.18622 0.0931,-0.38808 0.0159,-0.782885 -0.106781,-1.157985 -0.08677,-0.397611 -0.27265,-0.807949 -0.210502,-1.217942 0.02521,-0.05655 0.085,-0.09189 0.146343,-0.09062 z m 6.802885,7.008699 c 0.287078,0.02204 0.608938,-0.0071 0.876088,0.07797 0.181129,0.196734 0.429977,0.361344 0.569738,0.582499 -0.150416,0.157091 -0.0417,0.428588 -0.137639,0.575479 -0.236675,0.156134 -0.498647,0.257112 -0.777158,0.289259 -0.108913,0.05244 -0.111905,0.18941 -0.265835,0.183525 -0.172645,-0.516096 -0.546798,-1.023802 -0.403865,-1.593633 0.0036,-0.100608 0.0258,-0.137639 0.138671,-0.115104 z"
       id="path58937"
       inkscape:connector-curvature="0" />
    <path
       sodipodi:nodetypes="ccccccccccc"
       style="opacity:1;fill:#decd87;fill-opacity:1;fill-rule:nonzero;stroke:#c8ab37;stroke-width:0.04677217;stroke-opacity:1"
       d="m 26.455221,32.788529 c -0.299533,0.461592 -0.513262,0.986488 -0.845096,1.430663 -0.947792,1.370303 -1.641299,2.222703 -2.703841,3.506311 0.211194,0.512723 1.501803,2.089446 1.889051,2.440673 -0.212504,0.07051 1.81925,1.732753 3.333635,2.987595 0.204439,0.110125 0.150384,-0.221599 0.147704,-0.332602 -0.03987,-0.918427 -0.02016,-1.844477 -0.13149,-2.756609 -0.25495,-1.481754 -0.462754,-2.974224 -0.746763,-4.449366 -0.290041,-0.936717 -0.52832,-1.894549 -0.861713,-2.815246 -0.02739,0.0045 -0.05342,-0.04051 -0.08149,-0.01143 z"
       id="path58939"
       inkscape:connector-curvature="0" />
    <path
       style="opacity:1;fill:#decd87;fill-opacity:1;fill-rule:nonzero;stroke:#c8ab37;stroke-width:0.04677217;stroke-opacity:1"
       d="m 11.060783,36.943852 c -0.283138,-0.0553 -0.179593,0.3092 -0.207715,0.475549 -0.05069,1.270421 -0.05022,2.547972 -0.139879,3.812691 -0.296892,0.850006 -0.69493,1.671759 -0.9491458,2.532184 0.159978,0.635098 0.3809218,1.253088 0.5735078,1.878743 -0.7022212,1.291889 -1.5363532,2.551406 -1.9183901,3.983582 0.3463507,0.695048 0.8770673,1.289392 1.1072336,2.043454 0.2337234,0.546479 0.4413477,1.131935 0.8249505,1.59226 0.106518,0.08384 0.3029,0.02069 0.220249,-0.134197 -0.06169,-0.242469 -0.157174,-0.474784 -0.21897,-0.717203 0.244311,-0.09585 0.221139,0.26479 0.305061,0.394904 0.108091,0.205769 0.08196,0.635124 0.42009,0.545015 0.133358,-5.29e-4 0.456001,0.03802 0.342039,-0.189061 -0.06394,-0.188748 -0.161533,-0.367313 -0.201357,-0.563586 0.206628,-0.12592 0.219072,0.169992 0.285018,0.292873 0.09444,0.119671 0.03102,0.427397 0.242722,0.406333 0.208354,-0.116138 0.116472,-0.429201 0.140225,-0.627131 -0.126851,-0.706572 -0.46751,-1.35377 -0.58447,-2.063181 -0.173969,-0.79783 -0.204273,-1.610482 -0.261357,-2.42311 0.307987,-0.445029 0.767285,-0.810455 0.860836,-1.369404 0.595122,-1.824127 1.177127,-3.655819 1.564632,-5.537525 0.08922,-0.355333 0.204746,-0.712398 0.05587,-1.069642 -0.24587,-1.072634 -0.441023,-2.168956 -0.718277,-3.226929 -0.569987,-0.04013 -1.164586,-0.02972 -1.742872,-0.03662 z"
       id="path58941"
       inkscape:connector-curvature="0" />
    <path
       style="opacity:1;fill:#decd87;fill-opacity:1;fill-rule:nonzero;stroke:#c8ab37;stroke-width:0.04677217;stroke-opacity:1"
       d="m 25.664662,45.277976 c -0.151381,0.171799 -0.06407,0.46387 -0.12508,0.679392 -0.115965,1.443894 -0.481542,2.858823 -0.610353,4.304067 -0.01615,0.696026 0.0234,1.43017 0.403446,2.037474 0.160635,0.2863 0.290414,0.609735 0.522821,0.841086 1.186876,0.141603 2.389603,0.199271 3.582731,0.126979 0.190457,-0.06088 -0.01831,-0.210529 -0.127802,-0.211754 -0.369948,-0.307197 -0.556075,-0.781372 -0.849786,-1.157576 -0.182322,-0.335282 -0.04583,-0.776057 -0.165775,-1.134078 -0.324792,-0.06182 -0.661929,-0.06059 -0.990253,-0.01799 -0.07865,-0.242814 0.240932,-0.176726 0.37171,-0.217588 0.313815,0.05022 0.434835,-0.171742 0.436713,-0.456401 0.140283,-0.818365 0.445935,-1.602304 0.680895,-2.387958 C 28.417268,47.009082 27.91774,46.3383 27.166218,46.056961 26.658805,45.814314 26.181341,45.491686 25.664662,45.277982 Z"
       id="path58943"
       inkscape:connector-curvature="0" />
    <path
       style="opacity:1;fill:#decd87;fill-opacity:1;fill-rule:nonzero;stroke:#c8ab37;stroke-width:0.04677217;stroke-opacity:1"
       d="m 38.32978,20.428345 c -0.703927,-0.02463 -1.231168,0.885803 -0.775851,1.457245 0.270531,0.324596 0.796639,0.46864 0.87113,0.93864 0.07361,0.35908 -0.0304,0.750137 -0.343781,0.964135 -0.366533,0.16333 0.0024,0.443259 0.110429,0.655749 0.219223,0.316835 0.373097,0.712261 0.763193,0.85831 0.208497,0.0658 0.299892,-0.260737 0.45049,-0.355165 0.302006,-0.381779 0.703406,-0.702702 0.927918,-1.138438 0.03925,-0.469721 -0.404789,-0.794695 -0.512519,-1.227967 -0.225923,-0.65627 -0.179779,-1.505396 -0.823593,-1.936097 -0.193307,-0.137983 -0.428733,-0.220515 -0.667416,-0.216412 z"
       id="path58945"
       inkscape:connector-curvature="0" />
    <g
       id="g59009"
       transform="translate(63.764584,12.435417)">
      <path
         sodipodi:nodetypes="cccc"
         inkscape:connector-curvature="0"
         id="path58712"
         d="m -40.838196,25.154651 c 0,0 0.65481,1.028988 0.841898,1.262848 0.187089,0.23386 0.935444,1.122532 0.935444,1.122532 l 0.06876,0.511572"
         style="opacity:1;fill:none;fill-opacity:1;fill-rule:nonzero;stroke:#000000;stroke-width:0.26458332;stroke-opacity:1" />
      <path
         inkscape:connector-curvature="0"
         id="path58734"
         d="m -54.735677,14.254426 -0.264584,-1.058333 0.926042,-0.992188 c 0,0 0.628386,0.297657 0.661458,0.429948 0.03307,0.132292 0.363803,0.56224 0.264584,0.727604 -0.09922,0.165365 -0.496094,0.826824 -0.496094,0.826824 z"
         style="opacity:1;fill:#a05a2c;fill-opacity:1;fill-rule:nonzero;stroke:#c87137;stroke-width:0.26458332;stroke-opacity:1" />
      <path
         inkscape:connector-curvature="0"
         id="path58736"
         d="m -50.56849,14.982031 c 0,0 -1.785937,0.926041 -1.5875,0.926041 0.198438,0 0.628386,0.56224 1.025261,0.463021 0.396875,-0.09922 0.859895,-0.859896 0.859895,-0.859896 z"
         style="opacity:1;fill:#a05a2c;fill-opacity:1;fill-rule:nonzero;stroke:#c87137;stroke-width:0.26458332;stroke-opacity:1" />
      <path
         inkscape:connector-curvature="0"
         id="path58738"
         d="m -52.089844,13.890624 c 0,0 -0.760677,0.727604 -0.661458,0.859896 0.09922,0.132292 1.02526,0.03307 1.02526,0.03307 z"
         style="opacity:1;fill:#a05a2c;fill-opacity:1;fill-rule:nonzero;stroke:#c87137;stroke-width:0.26458332;stroke-opacity:1" />
      <path
         inkscape:connector-curvature="0"
         id="path58740"
         d="m -51.726042,11.377082 c 0,0 -0.529166,0.992188 -0.396875,1.058334 0.132292,0.06615 1.025261,0.165364 1.025261,0.165364 l 0.06614,-0.892968 z"
         style="opacity:1;fill:#a05a2c;fill-opacity:1;fill-rule:nonzero;stroke:#c87137;stroke-width:0.26458332;stroke-opacity:1" />
      <path
         inkscape:connector-curvature="0"
         id="path58742"
         d="m -47.195052,10.384895 -0.132292,0.661458 h 0.529167 l 0.09922,-0.628385 z"
         style="opacity:1;fill:#a05a2c;fill-opacity:1;fill-rule:nonzero;stroke:#c87137;stroke-width:0.26458332;stroke-opacity:1" />
      <path
         inkscape:connector-curvature="0"
         id="path58744"
         d="m -49.510156,12.336197 0.694531,1.223698 0.56224,-0.859896 -0.429948,-0.694531 z"
         style="opacity:1;fill:#a05a2c;fill-opacity:1;fill-rule:nonzero;stroke:#c87137;stroke-width:0.26458332;stroke-opacity:1" />
      <path
         inkscape:connector-curvature="0"
         id="path58746"
         d="m -50.667709,13.262239 c 0,0 -0.496093,0.46302 -0.23151,0.562239 0.264583,0.09922 0.760677,0.198438 0.760677,0.198438 l 0.231511,-1.091407 z"
         style="opacity:1;fill:#a05a2c;fill-opacity:1;fill-rule:nonzero;stroke:#c87137;stroke-width:0.26458332;stroke-opacity:1" />
      <path
         inkscape:connector-curvature="0"
         id="path58748"
         d="m -55.926302,15.808853 0.297656,0.529167 0.992187,-0.264583 -0.363802,-0.892969 z"
         style="opacity:1;fill:#a05a2c;fill-opacity:1;fill-rule:nonzero;stroke:#c87137;stroke-width:0.26458332;stroke-opacity:1" />
      <path
         inkscape:connector-curvature="0"
         id="path58750"
         d="m -56.488542,13.692187 c 0,0 -1.02526,0.661458 -0.826823,0.661458 0.198438,0 1.091406,-0.165364 1.091406,-0.165364 l 0.132292,-0.892969 c 0,0 -0.198438,-0.694532 -0.198438,-0.529167 0,0.165364 -0.198437,0.926042 -0.198437,0.926042 z"
         style="opacity:1;fill:#a05a2c;fill-opacity:1;fill-rule:nonzero;stroke:#c87137;stroke-width:0.26458332;stroke-opacity:1" />
      <path
         inkscape:connector-curvature="0"
         id="path58752"
         d="m -58.638282,14.585156 0.33073,1.02526 c 0,0 0.661458,0.06615 0.595312,-0.132292 -0.06615,-0.198437 -0.23151,-1.322916 -0.23151,-1.322916 z"
         style="opacity:1;fill:#a05a2c;fill-opacity:1;fill-rule:nonzero;stroke:#c87137;stroke-width:0.26458332;stroke-opacity:1" />
      <path
         inkscape:connector-curvature="0"
         id="path58754"
         d="m -57.15,14.882812 c 0.03307,0.198437 -0.03307,1.256771 -0.03307,1.256771 l 0.595312,-0.264584 0.132292,-1.02526 z m -2.579688,1.058333 0.165365,0.826823 0.628385,-0.198437 c -0.06615,-0.165365 -0.297656,-0.926042 -0.297656,-0.926042 z m 1.785938,0.628386 -0.694532,0.859896 c -0.09922,0.23151 0.727605,0.264583 0.727605,0.264583 l 1.25677,0.09922 c -0.03307,-0.231511 -0.03307,-1.058334 -0.03307,-1.058334 z m 2.315104,-2.414323 c -0.03307,0.165364 -0.330729,0.826823 -0.330729,0.826823 0.297656,0 0.79375,-0.231511 0.79375,-0.231511 z m 2.017448,1.058333 c -0.198437,0.03307 -0.661459,0.231511 -0.661459,0.231511 l 0.529168,1.81901 0.727604,-1.289844 z m 3.902603,-0.826823 0.264149,0.985817 0.823855,-0.823855 -0.476155,-0.476155 z m -0.727604,-3.538802 v 1.256771 l 1.236673,-0.713993 -0.707824,-0.707824 z m -2.711978,-0.297656 c -0.04356,0.162555 -0.613153,1.062011 -0.613153,1.062011 0.242705,0.140126 1.186687,0.317972 1.186687,0.317972 0,-0.189358 -0.573534,-1.379983 -0.573534,-1.379983 z m -1.5875,0.992187 c -0.437029,0.252319 -0.937988,0.541548 -0.937988,0.541548 0.14578,0.08417 0.376697,0.217486 0.376697,0.217486 z m 4.729426,-2.2158852 -0.85309,0.492532 h 1.878351 z m 3.96875,-0.859896 -0.529167,0.529167 0.619365,0.165958 0.525308,-0.90986 z m -2.711979,1.9182292 0.535495,0.927505 0.245339,-0.915617 z m -6.217708,8.466667 v 0.959115 h 0.727604 c -0.11073,-0.191792 -0.890276,-1.542004 -0.890276,-1.542004 z"
         style="opacity:1;fill:#a05a2c;fill-opacity:1;fill-rule:nonzero;stroke:#c87137;stroke-width:0.26458332;stroke-opacity:1" />
      <path
         inkscape:connector-curvature="0"
         id="path58756"
         d="m -54.53724,21.761978 c 0,0 -1.554427,0.694532 -1.091406,0.859896 0.463021,0.165365 1.223698,0.463021 1.157552,0.165365 -0.06615,-0.297656 -0.06615,-1.025261 -0.06615,-1.025261 z"
         style="opacity:1;fill:#a05a2c;fill-opacity:1;fill-rule:nonzero;stroke:#c87137;stroke-width:0.26458332;stroke-opacity:1" />
      <path
         inkscape:connector-curvature="0"
         id="path58758"
         d="m -57.910677,21.464322 1.190625,0.463021 c 0,0 0.727604,-1.35599 -0.231511,-1.289844 -0.959114,0.06615 -1.289844,-0.132291 -1.091406,0.363802 0.198437,0.496094 0.132292,0.463021 0.132292,0.463021 z"
         style="opacity:1;fill:#a05a2c;fill-opacity:1;fill-rule:nonzero;stroke:#c87137;stroke-width:0.26458332;stroke-opacity:1" />
      <path
         inkscape:connector-curvature="0"
         id="path58760"
         d="m -57.844532,24.50703 c 0,0.661459 1.554427,2.612761 1.389063,1.620573 -0.165365,-0.992187 -0.132292,-1.488281 -0.463021,-1.653645 -0.330729,-0.165365 -0.79375,0.06615 -0.79375,0.06615 z"
         style="opacity:1;fill:#a05a2c;fill-opacity:1;fill-rule:nonzero;stroke:#c87137;stroke-width:0.26458332;stroke-opacity:1" />
      <path
         inkscape:connector-curvature="0"
         id="path58762"
         d="m -55.033334,27.516666 c -0.496093,0.529166 -1.322916,0.463021 -0.661458,1.091406 0.661458,0.628385 1.785937,0.330729 1.785937,0.330729 0,0 -0.23151,-0.363802 -0.529166,-0.661458 -0.297656,-0.297656 -0.595313,-0.760677 -0.595313,-0.760677 z"
         style="opacity:1;fill:#a05a2c;fill-opacity:1;fill-rule:nonzero;stroke:#c87137;stroke-width:0.26458332;stroke-opacity:1" />
      <path
         inkscape:connector-curvature="0"
         id="path58764"
         d="m -57.116927,30.129426 c -0.32614,0.564891 -0.356997,0.770726 0,1.389063 0.356996,0.618336 0.79375,-0.79375 0.79375,-0.79375 l -0.661459,-0.661459 z"
         style="opacity:1;fill:#a05a2c;fill-opacity:1;fill-rule:nonzero;stroke:#c87137;stroke-width:0.26458332;stroke-opacity:1" />
      <path
         inkscape:connector-curvature="0"
         id="path58766"
         d="m -51.990625,26.09453 c -0.199625,0.745009 -0.496094,1.12448 0,0.959115 0.496094,-0.165365 0.585263,-0.04637 0.363802,-0.429948 -0.221461,-0.383582 -0.363802,-0.529167 -0.363802,-0.529167 z"
         style="opacity:1;fill:#a05a2c;fill-opacity:1;fill-rule:nonzero;stroke:#c87137;stroke-width:0.26458332;stroke-opacity:1" />
      <path
         inkscape:connector-curvature="0"
         id="path58768"
         d="m -51.659896,28.078905 c -0.760677,0.463021 -1.157552,0.826823 -0.727604,0.992188 0.429948,0.165364 1.02526,0.198437 1.058333,-0.09922 0.03307,-0.297656 -0.330729,-0.892969 -0.330729,-0.892969 z"
         style="opacity:1;fill:#a05a2c;fill-opacity:1;fill-rule:nonzero;stroke:#c87137;stroke-width:0.26458332;stroke-opacity:1" />
      <path
         inkscape:connector-curvature="0"
         id="path58770"
         d="m -52.94974,30.360937 c -0.661458,0.429948 -0.363802,1.02526 -0.363802,1.02526 0,0 0.264584,0.198438 0.297656,-0.23151 0.03307,-0.429948 0.06615,-0.992188 0.06615,-0.79375 z"
         style="opacity:1;fill:#a05a2c;fill-opacity:1;fill-rule:nonzero;stroke:#c87137;stroke-width:0.26458332;stroke-opacity:1" />
      <path
         inkscape:connector-curvature="0"
         id="path58772"
         d="m -51.792188,30.526301 c 0,0 -1.157552,0.892969 -0.562239,1.091406 0.595312,0.198438 0.829632,0.266206 0.926041,0.09922 0.09641,-0.166986 -0.363802,-1.190625 -0.363802,-1.190626 z"
         style="opacity:1;fill:#a05a2c;fill-opacity:1;fill-rule:nonzero;stroke:#c87137;stroke-width:0.26458332;stroke-opacity:1" />
      <path
         inkscape:connector-curvature="0"
         id="path58774"
         d="m -52.585938,32.841405 c 0,0 -0.711067,0.479558 -0.429948,0.760677 0.28112,0.28112 0.496094,0 0.496094,0 z"
         style="opacity:1;fill:#a05a2c;fill-opacity:1;fill-rule:nonzero;stroke:#c87137;stroke-width:0.26458332;stroke-opacity:1" />
      <path
         inkscape:connector-curvature="0"
         id="path58776"
         d="m -56.554688,33.205207 c 0,0.132292 0.222214,0.829313 0.222214,0.829313 l 0.278311,-0.482047 z"
         style="opacity:1;fill:#a05a2c;fill-opacity:1;fill-rule:nonzero;stroke:#c87137;stroke-width:0.26458332;stroke-opacity:1" />
      <path
         inkscape:connector-curvature="0"
         id="path58778"
         d="m -57.679167,33.635155 c 0,0 -0.50009,0.0896 -0.124617,0.465077 0.375473,0.375473 1.017586,0 1.017586,0 z"
         style="opacity:1;fill:#a05a2c;fill-opacity:1;fill-rule:nonzero;stroke:#c87137;stroke-width:0.26458332;stroke-opacity:1" />
      <path
         inkscape:connector-curvature="0"
         id="path58780"
         d="m -55.5625,30.327864 c 0.165364,0.165364 0.314192,0.711067 0.51263,0.51263 0.198437,-0.198438 0.388665,-0.673187 0.388665,-0.673187 z"
         style="opacity:1;fill:#a05a2c;fill-opacity:1;fill-rule:nonzero;stroke:#c87137;stroke-width:0.26458332;stroke-opacity:1" />
      <path
         inkscape:connector-curvature="0"
         id="path58782"
         d="m -57.216146,28.01276 c -0.09641,0.166986 -0.99895,-0.04621 -0.22973,0.397904 0.769221,0.444108 0.926158,0.728906 0.864603,0.499176 -0.06156,-0.22973 -0.634873,-0.89708 -0.634873,-0.89708 z"
         style="opacity:1;fill:#a05a2c;fill-opacity:1;fill-rule:nonzero;stroke:#c87137;stroke-width:0.26458332;stroke-opacity:1" />
      <path
         inkscape:connector-curvature="0"
         id="path58784"
         d="m -54.801823,25.06927 c -0.05404,0.201681 -0.266365,0.994085 -0.266365,0.994085 0,0 0.597094,0.365699 0.597094,0 0,-0.3657 -0.330729,-0.994085 -0.330729,-0.994085 z m -1.521354,-1.389062 c 0.155909,0.270042 0.453406,0.785323 0.453406,0.785323 l 0.595906,-0.595907 z"
         style="opacity:1;fill:#a05a2c;fill-opacity:1;fill-rule:nonzero;stroke:#c87137;stroke-width:0.26458332;stroke-opacity:1" />
      <path
         inkscape:connector-curvature="0"
         id="path58786"
         d="m -60.523438,18.785416 1.256771,1.455208 -0.727604,-1.653646 z"
         style="opacity:1;fill:#a05a2c;fill-opacity:1;fill-rule:nonzero;stroke:#c87137;stroke-width:0.26458332;stroke-opacity:1" />
      <path
         inkscape:connector-curvature="0"
         id="path58790"
         d="m -59.928125,21.10052 0.992187,1.785938 -0.06615,-1.91823 z"
         style="opacity:1;fill:#a05a2c;fill-opacity:1;fill-rule:nonzero;stroke:#c87137;stroke-width:0.26458332;stroke-opacity:1" />
      <path
         inkscape:connector-curvature="0"
         id="path58796"
         d="m -57.546875,18.785416 c -0.132292,0.529167 -0.330729,1.322917 -0.06615,1.190625 0.264583,-0.132292 1.389062,-0.463021 1.389062,-0.463021 l -0.463021,-1.190625 z"
         style="opacity:1;fill:#a05a2c;fill-opacity:1;fill-rule:nonzero;stroke:#c87137;stroke-width:0.26458332;stroke-opacity:1" />
      <path
         inkscape:connector-curvature="0"
         id="path58798"
         d="m -59.266667,18.454687 c 0.132292,0.330729 1.058333,0.79375 1.058333,0.79375 l -0.06615,-1.190625 -0.79375,0.132291 z"
         style="opacity:1;fill:#a05a2c;fill-opacity:1;fill-rule:nonzero;stroke:#c87137;stroke-width:0.26458332;stroke-opacity:1" />
      <path
         inkscape:connector-curvature="0"
         id="path58800"
         d="m -60.721875,17.197916 c -0.06615,0.264583 -0.463021,0.595312 -0.198438,0.595312 0.264584,0 0.859896,-0.06614 0.859896,-0.06614 l -0.06615,-0.595313 z"
         style="opacity:1;fill:#a05a2c;fill-opacity:1;fill-rule:nonzero;stroke:#c87137;stroke-width:0.26458332;stroke-opacity:1" />
      <path
         inkscape:connector-curvature="0"
         id="path58802"
         d="m -55.364063,16.867187 c -0.264583,0 -1.058333,-0.264584 -0.79375,0.132291 0.264583,0.396875 0.132292,0.595313 0.396875,0.595313 0.264583,0 0.727604,-0.132292 0.727604,-0.132292 z"
         style="opacity:1;fill:#a05a2c;fill-opacity:1;fill-rule:nonzero;stroke:#c87137;stroke-width:0.26458332;stroke-opacity:1" />
      <path
         inkscape:connector-curvature="0"
         id="path58804"
         d="m -53.578125,18.057812 c 0.330729,0.396875 0.463021,1.058333 0.463021,1.058333 l 1.256771,-0.529167 z"
         style="opacity:1;fill:#a05a2c;fill-opacity:1;fill-rule:nonzero;stroke:#c87137;stroke-width:0.26458332;stroke-opacity:1" />
      <path
         inkscape:connector-curvature="0"
         id="path58806"
         d="m -52.784375,16.668749 c 0,0.330729 -0.330729,0.992188 0.198437,1.058334 0.529167,0.06614 1.190625,0.06614 1.190625,0.06614 z"
         style="opacity:1;fill:#a05a2c;fill-opacity:1;fill-rule:nonzero;stroke:#c87137;stroke-width:0.26458332;stroke-opacity:1" />
      <path
         inkscape:connector-curvature="0"
         id="path58808"
         d="m -38.89375,17.594791 -0.264583,0.463021 0.926041,0.198437 z"
         style="opacity:1;fill:#a05a2c;fill-opacity:1;fill-rule:nonzero;stroke:#c87137;stroke-width:0.26458332;stroke-opacity:1" />
      <path
         inkscape:connector-curvature="0"
         id="path58810"
         d="m -45.045312,18.983853 0.529166,1.12448 0.661459,-1.12448 z"
         style="opacity:1;fill:#a05a2c;fill-opacity:1;fill-rule:nonzero;stroke:#c87137;stroke-width:0.26458332;stroke-opacity:1" />
      <path
         inkscape:connector-curvature="0"
         id="path58812"
         d="m -42.465625,19.645312 c -0.396875,0.198437 -0.926042,0.595312 -0.06615,0.661458 0.859896,0.06615 1.653646,0.198438 0.992188,-0.330729 -0.661459,-0.529167 -1.455209,-0.529167 -1.455209,-0.529167 l 1.058334,0.264584 z"
         style="opacity:1;fill:#a05a2c;fill-opacity:1;fill-rule:nonzero;stroke:#c87137;stroke-width:0.26458332;stroke-opacity:1" />
      <path
         inkscape:connector-curvature="0"
         id="path58814"
         d="m -44.053125,21.497395 c -0.132292,1.455208 -0.198437,1.521354 0.132292,1.124479 0.330729,-0.396875 1.521354,-0.859896 0.595312,-1.058333 -0.926041,-0.198438 -0.727604,-0.06615 -0.727604,-0.06615 z"
         style="opacity:1;fill:#a05a2c;fill-opacity:1;fill-rule:nonzero;stroke:#c87137;stroke-width:0.26458332;stroke-opacity:1" />
      <path
         inkscape:connector-curvature="0"
         id="path58816"
         d="m -43.457812,24.473958 c -0.79375,0.396875 -1.719792,0.992187 -0.926042,1.124479 0.79375,0.132291 1.256771,-0.198438 1.256771,-0.198438 z"
         style="opacity:1;fill:#a05a2c;fill-opacity:1;fill-rule:nonzero;stroke:#c87137;stroke-width:0.26458332;stroke-opacity:1" />
      <path
         inkscape:connector-curvature="0"
         id="path58818"
         d="m -42.796354,26.789062 c -0.198438,0.264583 0,0.79375 0,0.79375 0,0 0,0.79375 0.396875,0.595312 0.396875,-0.198437 0,-1.521354 0,-1.521354 l -0.595313,-0.198437 z"
         style="opacity:1;fill:#a05a2c;fill-opacity:1;fill-rule:nonzero;stroke:#c87137;stroke-width:0.26458332;stroke-opacity:1" />
      <path
         inkscape:connector-curvature="0"
         id="path58820"
         d="m -41.208854,28.376562 c 0,0 -0.396875,1.653645 0.132291,1.719791 0.529167,0.06615 1.521355,-0.463021 0.859896,-0.79375 -0.661458,-0.330729 -0.992187,-0.926041 -0.992187,-0.926041 z"
         style="opacity:1;fill:#a05a2c;fill-opacity:1;fill-rule:nonzero;stroke:#c87137;stroke-width:0.26458332;stroke-opacity:1" />
      <path
         inkscape:connector-curvature="0"
         id="path58822"
         d="m -38.232292,23.217187 -0.661458,1.521354 0.992187,0.198437 c 0,0 0.727604,-0.198437 0.396875,-0.595312 -0.330729,-0.396875 -0.529166,-1.521354 -0.529166,-1.521354 z"
         style="opacity:1;fill:#a05a2c;fill-opacity:1;fill-rule:nonzero;stroke:#c87137;stroke-width:0.26458332;stroke-opacity:1" />
      <path
         inkscape:connector-curvature="0"
         id="path58824"
         d="m -36.975521,27.45052 c 0,0 -1.058333,0.06615 -0.661458,0.463021 0.396874,0.396875 0.859895,0.595312 0.859895,0.595312 l 0.06615,-0.859896 -0.198437,-0.529166"
         style="opacity:1;fill:#a05a2c;fill-opacity:1;fill-rule:nonzero;stroke:#c87137;stroke-width:0.26458332;stroke-opacity:1" />
      <path
         inkscape:connector-curvature="0"
         id="path58826"
         d="m -38.827604,25.86302 c 0,0 -0.279498,0.447789 0.356996,0.618337 0.636495,0.170547 0.833629,0 0.833629,0 z"
         style="opacity:1;fill:#a05a2c;fill-opacity:1;fill-rule:nonzero;stroke:#c87137;stroke-width:0.26458332;stroke-opacity:1" />
      <path
         inkscape:connector-curvature="0"
         id="path58828"
         d="m -48.484896,16.999478 c -0.412224,0.237998 -2.226602,0.232815 -1.314924,0.759172 0.911678,0.526357 1.503313,0.402812 1.503313,0.402812 z"
         style="opacity:1;fill:#a05a2c;fill-opacity:1;fill-rule:nonzero;stroke:#c87137;stroke-width:0.26458332;stroke-opacity:1" />
      <path
         inkscape:connector-curvature="0"
         id="path58830"
         d="m -48.220312,15.279687 c -0.529167,0.529166 -0.623955,0.42876 -0.183089,0.683294 0.440866,0.254535 0.490476,0.283176 0.490476,0.283176 z"
         style="opacity:1;fill:#a05a2c;fill-opacity:1;fill-rule:nonzero;stroke:#c87137;stroke-width:0.26458332;stroke-opacity:1" />
      <path
         inkscape:connector-curvature="0"
         id="path58832"
         d="m -47.889583,13.758332 c -0.06615,0.727605 0.264583,0.859896 0.264583,0.859896 0,0 1.322917,0.264584 0.79375,-0.396875 -0.529167,-0.661458 -1.058333,-0.463021 -1.058333,-0.463021 z"
         style="opacity:1;fill:#a05a2c;fill-opacity:1;fill-rule:nonzero;stroke:#c87137;stroke-width:0.26458332;stroke-opacity:1" />
      <path
         inkscape:connector-curvature="0"
         id="path58834"
         d="m -47.360417,12.170832 c 0,0 -0.06614,0.859896 0.198438,0.79375 0.264583,-0.06615 0.727604,-0.132291 0.727604,-0.132291 0,0 0.264583,-0.79375 -0.132292,-0.727604 -0.396875,0.06614 -0.79375,0.06614 -0.79375,0.06614 z"
         style="opacity:1;fill:#a05a2c;fill-opacity:1;fill-rule:nonzero;stroke:#c87137;stroke-width:0.26458332;stroke-opacity:1" />
      <path
         inkscape:connector-curvature="0"
         id="path58836"
         d="m -45.640625,10.384895 c 0,0 -0.79375,0.396875 0.06615,0.661458 0.859896,0.264584 1.190625,0 1.190625,0 l -0.992188,-0.79375 z"
         style="opacity:1;fill:#a05a2c;fill-opacity:1;fill-rule:nonzero;stroke:#c87137;stroke-width:0.26458332;stroke-opacity:1" />
      <path
         inkscape:connector-curvature="0"
         id="path58838"
         d="m -48.088021,8.6651034 0.132292,0.926042 0.396875,-0.132292 -0.132292,-0.992187 z"
         style="opacity:1;fill:#a05a2c;fill-opacity:1;fill-rule:nonzero;stroke:#c87137;stroke-width:0.26458332;stroke-opacity:1" />
      <path
         inkscape:connector-curvature="0"
         id="path58840"
         d="m -44.317708,8.5989574 c 0,0 0,0.859896 0.396875,0.992188 0.396875,0.132292 1.25677,0.6614576 0.926041,0.132292 -0.330729,-0.529167 -0.595312,-0.992188 -0.595312,-0.992188 z"
         style="opacity:1;fill:#a05a2c;fill-opacity:1;fill-rule:nonzero;stroke:#c87137;stroke-width:0.26458332;stroke-opacity:1" />
      <path
         inkscape:connector-curvature="0"
         id="path58842"
         d="m -42.465625,7.4083324 -0.992187,0.529167 1.190624,0.529167 c 0,0 0.396875,-0.859896 -0.198437,-1.058334 z"
         style="opacity:1;fill:#a05a2c;fill-opacity:1;fill-rule:nonzero;stroke:#c87137;stroke-width:0.26458332;stroke-opacity:1" />
      <path
         inkscape:connector-curvature="0"
         id="path58850"
         d="m -41.076563,8.3343744 c -0.396875,0.595313 -1.322916,1.256771 -0.264583,1.256771 1.058333,0 1.322917,-0.06615 1.322917,-0.06615 z"
         style="opacity:1;fill:#a05a2c;fill-opacity:1;fill-rule:nonzero;stroke:#c87137;stroke-width:0.26458332;stroke-opacity:1" />
      <path
         inkscape:connector-curvature="0"
         id="path58852"
         d="m -41.936458,10.847916 c -0.661459,0.463021 -0.926042,0.06615 -0.661459,0.463021 0.264584,0.396875 0.926042,0.396875 0.926042,0.396875 z"
         style="opacity:1;fill:#a05a2c;fill-opacity:1;fill-rule:nonzero;stroke:#c87137;stroke-width:0.26458332;stroke-opacity:1" />
      <path
         inkscape:connector-curvature="0"
         id="path58854"
         d="m -38.89375,10.517187 c -0.396875,0.396875 -1.058333,0.46302 -0.992188,0.727604 0.06615,0.264583 1.058334,0.396875 1.058334,0.396875 l 0.06615,-0.661459 z"
         style="opacity:1;fill:#a05a2c;fill-opacity:1;fill-rule:nonzero;stroke:#c87137;stroke-width:0.26458332;stroke-opacity:1" />
      <path
         inkscape:connector-curvature="0"
         id="path58856"
         d="m -35.983334,11.57552 -0.463021,1.256771 0.79375,-0.198438 -0.79375,-1.521354 z"
         style="opacity:1;fill:#a05a2c;fill-opacity:1;fill-rule:nonzero;stroke:#c87137;stroke-width:0.26458332;stroke-opacity:1" />
      <path
         inkscape:connector-curvature="0"
         id="path58858"
         d="m -38.033854,10.980207 v 1.058334 l 0.859895,-0.198438 z"
         style="opacity:1;fill:#a05a2c;fill-opacity:1;fill-rule:nonzero;stroke:#c87137;stroke-width:0.26458332;stroke-opacity:1" />
      <path
         inkscape:connector-curvature="0"
         id="path58860"
         d="m -44.648437,12.435416 c 0,0 0,-0.132292 0.859895,0.264583 0.859896,0.396875 1.852084,0.859896 1.653646,0.463021 -0.198437,-0.396875 -1.322916,-1.389063 -1.322916,-1.389063 z"
         style="opacity:1;fill:#a05a2c;fill-opacity:1;fill-rule:nonzero;stroke:#c87137;stroke-width:0.26458332;stroke-opacity:1" />
      <path
         inkscape:connector-curvature="0"
         id="path58862"
         d="m -45.508333,13.824478 1.719791,0.396875 L -44.45,13.493749 Z"
         style="opacity:1;fill:#a05a2c;fill-opacity:1;fill-rule:nonzero;stroke:#c87137;stroke-width:0.26458332;stroke-opacity:1" />
    </g>
    <path
       style="opacity:1;fill:#f9f9f9;fill-opacity:1;fill-rule:nonzero;stroke:#000000;stroke-width:0.01169304;stroke-opacity:1"
       d="m 42.429908,30.799997 c -0.09073,-0.0061 -0.09216,0.101391 -0.09832,0.165759 -0.0063,0.115708 -0.05019,0.23898 0.01744,0.344824 0.09735,0.21917 0.171426,0.45026 0.287671,0.660275 0.05948,0.07309 0.163398,0.01439 0.241199,0.01791 0.126442,-0.02238 0.265769,-0.0082 0.37283,-0.09121 0.08725,-0.0573 0.19458,-0.08942 0.26747,-0.164753 0.01183,-0.151133 0.02429,-0.305893 0.01402,-0.457489 -0.06934,-0.122692 -0.191799,-0.205814 -0.289632,-0.305001 -0.07411,-0.06077 -0.141435,-0.154207 -0.249115,-0.142989 -0.187577,-0.01336 -0.375508,-0.025 -0.563574,-0.02732 z"
       id="path59072"
       inkscape:connector-curvature="0" />
    <ellipse
       style="opacity:1;fill:#f9f9f9;fill-opacity:1;fill-rule:nonzero;stroke:#000000;stroke-width:0.26458332;stroke-opacity:1"
       id="path59074"
       cx="43.311028"
       cy="31.609076"
       rx="0.10523738"
       ry="0.20462823" />
    <path
       style="opacity:1;fill:#aa8800;fill-opacity:1;fill-rule:nonzero;stroke:#aa8800;stroke-width:0.26458332;stroke-opacity:1"
       d="m 36.529062,34.245859 c 0,0 1.426552,-1.122532 1.496709,-1.262848 0.07016,-0.140319 0.374179,-1.91766 0.537882,-2.198293 0.163703,-0.280633 1.941044,-0.53788 2.151517,-0.865286 0.210476,-0.327406 0.444336,-1.145918 0.818515,-1.426551 0.374177,-0.280633 1.309619,-0.841899 1.309619,-0.841899"
       id="path59076"
       inkscape:connector-curvature="0" />
    <path
       sodipodi:nodetypes="ccccccccccccccccccccccccccccccccccccccccccccc"
       style="opacity:1;fill:#aa8800;fill-opacity:1;fill-rule:nonzero;stroke:#aa8800;stroke-width:0.02338609;stroke-opacity:1"
       d="m 42.8279,27.779387 c -0.279863,0.071 -0.462865,0.326692 -0.668467,0.512167 -0.387154,0.400331 -0.786085,0.794544 -1.15352,1.210554 -0.124987,0.223649 -0.192125,0.527452 -0.45811,0.628631 -0.115835,0.07021 -0.259808,0.08666 -0.340424,0.207005 -0.660884,0.671192 -1.316918,1.35051 -1.958723,2.038069 -0.08499,0.276649 -0.06891,0.623676 -0.324708,0.816129 -0.388964,0.358656 -0.818832,0.674383 -1.218287,1.018545 -0.0311,0.117668 0.141547,0.175133 0.203486,0.261329 0.566483,0.539914 1.207251,0.990867 1.812629,1.483955 0.736483,0.622287 1.357934,1.372788 2.096174,1.994334 0.602687,0.448175 1.329367,0.693428 2.048547,0.883179 0.20283,0.03545 0.411832,0.111186 0.618451,0.08692 0.123139,-0.02424 0.113389,-0.185314 0.01942,-0.241078 -0.330502,-0.263541 -0.708252,-0.461031 -1.051459,-0.702818 -0.319866,-0.261353 -0.486728,-0.655868 -0.748152,-0.968743 -0.241448,-0.3313 -0.550582,-0.63474 -0.95314,-0.754015 -0.10064,-0.0094 -0.0068,-0.158072 0.05645,-0.09304 0.416218,0.165391 0.80223,0.437899 1.026916,0.833901 0.296781,0.409511 0.548659,0.901906 1.028412,1.126693 0.386951,0.23594 0.778568,0.485445 1.118161,0.785673 0.596056,0.0078 1.193895,-0.212027 1.675241,-0.563367 0.120658,-0.05975 0.215519,-0.15217 0.139814,-0.241993 -0.207444,-0.321781 -0.578856,-0.69754 -0.576551,-1.103268 -0.02657,-0.08384 -0.0062,-0.168166 0.07503,-0.08855 0.05896,0.329702 0.18669,0.653367 0.374907,0.93092 0.07416,0.104482 0.228965,0.258609 0.350975,0.128807 0.165957,-0.192725 0.272812,-0.440388 0.322654,-0.688609 0.02986,-0.237131 -0.0095,-0.484926 -0.162697,-0.67573 -0.220327,-0.32117 -0.588825,-0.496496 -0.819537,-0.810123 -0.356706,-0.410773 -0.519546,-0.954058 -0.549066,-1.487699 -0.09581,-1.233813 -0.05258,-2.47995 -0.145007,-3.71688 -0.09591,-1.027139 -0.739934,-1.913392 -1.491456,-2.57964 -0.110287,-0.07865 -0.20329,-0.220564 -0.347959,-0.231256 z m -0.504719,2.889369 c 0.270287,0.01437 0.545452,0.0059 0.809744,0.06641 0.227526,0.147357 0.427167,0.343591 0.595751,0.555191 -0.0844,0.163042 -0.05003,0.376394 -0.120403,0.547701 -0.222893,0.15639 -0.491668,0.241826 -0.755251,0.292738 -0.08919,0.03101 -0.141859,0.161215 -0.232582,0.163472 -0.149384,-0.420915 -0.412207,-0.835911 -0.416428,-1.293085 0.0069,-0.109788 0.0052,-0.224766 0.05075,-0.330832 0.02275,-0.0019 0.04561,-0.0013 0.06842,-0.0016 z"
       id="path59078"
       inkscape:connector-curvature="0" />
    <path
       style="opacity:1;fill:#4d4d4d;fill-opacity:1;fill-rule:nonzero;stroke:#666666;stroke-width:0.00584652;stroke-opacity:1"
       d="m 35.571697,23.807476 c -0.05133,0.01068 -0.06164,0.07055 -0.05071,0.114151 0.03982,0.346822 0.134898,0.684398 0.232733,1.018569 0.05203,0.174263 0.109776,0.346731 0.167412,0.519196 -0.01693,0.199586 -0.03894,0.398958 -0.0522,0.598732 0.0061,0.05773 0.07033,0.06943 0.117692,0.06674 0.29635,0.0038 0.592752,0.0011 0.889119,0.0019 0.05218,-0.0011 0.08093,-0.06131 0.05621,-0.10517 -0.109268,-0.300412 -0.26511,-0.580989 -0.416703,-0.861517 -0.207666,-0.374611 -0.426006,-0.743453 -0.653791,-1.10611 -0.07161,-0.08674 -0.14732,-0.172852 -0.238839,-0.239011 -0.01548,-0.0085 -0.03366,-0.01084 -0.05093,-0.0075 z"
       id="path59082"
       inkscape:connector-curvature="0" />
    <path
       style="opacity:1;fill:#a05a2c;fill-opacity:1;fill-rule:nonzero;stroke:#666666;stroke-width:0.01653646;stroke-opacity:1"
       d="M 6.1316679,24.882048 C 4.9374102,25.329923 3.747898,25.790452 2.5560463,26.244723 2.43639,26.390752 2.3704358,26.579248 2.2720541,26.742101 c -0.412325,0.776574 -0.8326963,1.549826 -1.2399704,2.32849 -0.22842041,2.39713 -0.45517245,4.795287 -0.6741913,7.193579 -0.0139414,0.09622 0.126331,0.112821 0.15024923,0.02463 0.0640839,-0.0998 0.0968075,-0.232558 0.19356053,-0.304567 0.0653361,0.01654 0.12721633,0.05743 0.0960397,0.133641 -0.0182192,0.129373 -0.0173096,0.257802 0.0426637,0.377203 0.0830317,0.2247 0.14316226,0.4567 0.18727804,0.691473 0.042342,0.08517 0.1495225,0.01786 0.1411735,-0.05995 0.033044,-0.257381 -0.017696,-0.527835 0.064176,-0.777277 0.059817,-0.04966 0.1604056,-0.01974 0.1702738,0.0644 0.058401,0.131905 0.04435,0.293211 0.126575,0.415057 0.079338,0.05463 0.1354322,-0.05077 0.1175962,-0.117338 -0.00929,-0.07327 0.098456,-0.08449 0.143499,-0.06072 0.088211,0.203356 0.1032101,0.431819 0.1664273,0.643956 0.050825,0.180324 0.077153,0.371573 0.149251,0.543957 0.076284,0.06083 0.1380765,-0.03724 0.1163752,-0.108683 -0.011319,-0.47349 0.011613,-0.951238 -0.060403,-1.420844 -0.080736,-0.476769 -0.2368517,-0.935691 -0.3797895,-1.395844 -0.00267,-0.05731 0.093084,-0.059 0.12538,-0.09518 0.1668867,0.181295 0.3136678,0.3874 0.5089483,0.53934 0.089382,0.04013 0.1259732,-0.08048 0.081438,-0.142227 -0.051954,-0.25522 -0.1573685,-0.494839 -0.2981235,-0.713084 -0.1996194,-0.391736 -0.3001224,-0.843155 -0.3779808,-1.273177 -0.061299,-0.44386 -0.067926,-0.897959 -0.06831,-1.347722 0.042874,-0.07195 -0.016328,-0.158594 -0.00886,-0.238519 -0.1073657,-0.958916 0.05367,-1.949278 0.499789,-2.809325 0.4316518,-0.840163 1.1092706,-1.515599 1.7975926,-2.146786 0.666015,-0.604473 1.3911252,-1.147037 2.125772,-1.667984 0.075772,-0.03538 0.05627,-0.156233 -0.036812,-0.136571 z"
       id="path59088"
       inkscape:connector-curvature="0" />
    <path
       style="opacity:1;fill:#a05a2c;fill-opacity:1;fill-rule:nonzero;stroke:#000000;stroke-width:0.26458332;stroke-opacity:1"
       d="M 45.906883,38.057791 45.392387,37.332822 45.08837,36.467536"
       id="path59211"
       inkscape:connector-curvature="0" />
    <path
       style="opacity:1;fill:#a05a2c;fill-opacity:1;fill-rule:nonzero;stroke:#000000;stroke-width:0.26458332;stroke-opacity:1"
       d="M 43.802135,38.899689 42.98362,38.221494 42.258654,37.730385 c 0,0 -0.514495,-0.818513 -0.584652,-0.912059 -0.07016,-0.09354 -0.654812,-0.561266 -0.654812,-0.561266 l -0.491107,-0.210473"
       id="path59213"
       inkscape:connector-curvature="0" />
    <g
       id="g61337">
      <g
         transform="rotate(1.9354986,40.713483,21.402252)"
         id="g61323">
        <path
           style="opacity:1;fill:#a05a2c;fill-opacity:1;fill-rule:nonzero;stroke:#000000;stroke-width:0.35217455;stroke-opacity:1"
           d="M 41.782513,26.827825 52.496238,13.525214"
           id="path61309"
           inkscape:connector-curvature="0" />
        <path
           style="opacity:1;fill:none;fill-opacity:1;fill-rule:nonzero;stroke:#000000;stroke-width:0.35217455;stroke-opacity:1"
           d="m 52.432212,13.502514 -0.170737,-0.794524 0.106708,-0.476715 0.234763,-0.63562 0.02135,-0.340509 c 0,0 0.192079,0.181604 -0.02135,-0.113501 -0.213422,-0.295109 -1.045763,0.02271 -1.045763,0.02271 l -1.152473,0.544817 0.08537,0.749122 -0.362815,0.839926 c 0,0 -1.237841,-0.0681 -1.301867,-0.158904 -0.06403,-0.09081 -0.234762,-0.227008 -0.234762,-0.227008 l -0.19208,0.113501 -0.149395,0.499415 -0.106707,0.363212 c 0,0 0,0.02271 -0.213421,0.158905 -0.21342,0.136206 -0.448183,0.317809 -0.405499,0.522116 0.04268,0.204306 0.32013,0.635619 0.32013,0.635619 l -0.256104,0.272409 c 0,0 -0.366974,0.623344 -0.391763,0.721751 -0.02479,0.0984 -0.435907,0.463655 -0.435907,0.463655 0,0 -0.411147,-0.06493 -0.516882,0 -0.105739,0.06493 -0.458114,0.534532 -0.563229,0.599084 -0.105107,0.06455 0.107224,1.246399 0.107224,1.246399 l -1.026198,1.476766 -1.629842,0.417349 -0.301821,0.995212 0.03019,0.898903 -0.513102,0.417347 -0.633825,-0.128409 -2.474947,3.049846"
           id="path61311"
           inkscape:connector-curvature="0" />
        <path
           style="opacity:1;fill:#c8ab37;fill-opacity:1;fill-rule:nonzero;stroke:#000000;stroke-width:0.02201091;stroke-opacity:1"
           d="m 52.279042,11.098558 c -0.479648,0.01429 -0.903214,0.281814 -1.339051,0.463682 -0.115406,0.07062 -0.27085,0.09379 -0.356146,0.207276 -0.03492,0.233745 0.04826,0.475327 0.03723,0.705772 -0.133167,0.300059 -0.257668,0.613621 -0.397423,0.904736 -0.440497,-0.03399 -0.886748,-0.04985 -1.318248,-0.139042 -0.135111,-0.01925 -0.198383,-0.254569 -0.346557,-0.177039 -0.123434,0.146869 -0.125938,0.368065 -0.197488,0.544785 -0.05506,0.14917 -0.06638,0.34067 -0.220637,0.416852 -0.161476,0.135327 -0.38417,0.226672 -0.473076,0.435697 -0.008,0.19714 0.13595,0.359089 0.216739,0.525957 0.05627,0.10768 0.189122,0.223846 0.03411,0.307092 -0.283016,0.283824 -0.455079,0.659428 -0.648335,1.010896 -0.131597,0.164187 -0.284512,0.315882 -0.45081,0.437564 -0.1607,0.0029 -0.333885,-0.07665 -0.485698,-0.0173 -0.177207,0.211649 -0.388494,0.399462 -0.5441,0.626217 0.004,0.378613 0.08941,0.76163 0.133141,1.137477 -0.257129,0.439184 -0.567362,0.841916 -0.856112,1.258126 -0.08696,0.100816 -0.14743,0.238608 -0.253602,0.311814 -0.501228,0.140514 -1.01621,0.261051 -1.521659,0.399835 -0.113393,0.105222 -0.110515,0.294123 -0.17327,0.434839 -0.06488,0.247485 -0.194998,0.487013 -0.143228,0.751286 0.01161,0.225303 0.01769,0.451569 0.02025,0.677859 -0.19323,0.159278 -0.386463,0.318551 -0.579696,0.477823 -0.210221,-0.02798 -0.420111,-0.116054 -0.630551,-0.104729 -0.676469,0.803736 -1.331026,1.629975 -1.99361,2.447332 -0.108179,0.161761 -0.277403,0.295334 -0.329009,0.490724 0.02797,0.06315 0.0093,0.102559 -0.02141,0.162939 -0.05146,0.132733 0.143583,0.231808 0.216753,0.117001 0.68082,0.226501 1.340819,0.517058 1.97948,0.861252 0.146215,-3.64e-4 0.201917,-0.196109 0.305131,-0.284494 3.477345,-4.303973 6.950341,-8.612092 10.418098,-12.924831 0.03996,-0.164973 -0.05364,-0.337373 -0.072,-0.505359 -0.04499,-0.119637 -0.02025,-0.296343 -0.123201,-0.374031 -0.130618,-0.0217 -0.183769,0.162923 -0.275113,0.2362 -3.592381,4.329975 -7.159601,8.689569 -10.738987,13.027974 -0.150828,-0.08035 0.04602,-0.183694 0.09566,-0.276131 3.494996,-4.239429 6.974978,-8.493485 10.486047,-12.717447 0.181101,-0.207373 0.350373,-0.438794 0.547313,-0.621566 0.09091,-0.384242 0.323151,-0.748306 0.284435,-1.158355 -0.05544,-0.09008 -0.192759,-0.07332 -0.28535,-0.0787 z"
           id="path61315"
           inkscape:connector-curvature="0" />
        <path
           style="opacity:1;fill:#aa8800;fill-opacity:1;fill-rule:nonzero;stroke:#000000;stroke-width:0.01556406;stroke-opacity:1"
           d="m 51.992728,12.426143 c -0.123498,0.09902 -0.209476,0.248019 -0.318775,0.365851 -3.63065,4.411215 -7.26069,8.823002 -10.891014,13.234523 -0.06562,0.120336 0.08491,0.188435 0.149732,0.263037 0.06226,0.0791 0.160048,0.02581 0.200687,-0.04971 3.532388,-4.276499 7.055545,-8.561717 10.577109,-12.848321 0.181987,-0.228861 0.37867,-0.448085 0.551008,-0.683535 0.04716,-0.112787 -0.08559,-0.18148 -0.151051,-0.244222 -0.03357,-0.02634 -0.07439,-0.05173 -0.117691,-0.03763 z"
           id="path61317"
           inkscape:connector-curvature="0" />
      </g>
    </g>
  </g>
</svg>
