<?xml version="1.0" encoding="UTF-8" standalone="no"?>
<!-- Created with Inkscape (http://www.inkscape.org/) -->

<svg
   xmlns:dc="http://purl.org/dc/elements/1.1/"
   xmlns:cc="http://creativecommons.org/ns#"
   xmlns:rdf="http://www.w3.org/1999/02/22-rdf-syntax-ns#"
   xmlns:svg="http://www.w3.org/2000/svg"
   xmlns="http://www.w3.org/2000/svg"
   xmlns:sodipodi="http://sodipodi.sourceforge.net/DTD/sodipodi-0.dtd"
   xmlns:inkscape="http://www.inkscape.org/namespaces/inkscape"
   width="201"
   height="201"
   viewBox="0 0 53.181249 53.181252"
   version="1.1"
   id="svg10852"
   sodipodi:docname="knightstacean.svg"
   inkscape:version="0.92.3 (2405546, 2018-03-11)">
  <defs
     id="defs10846" />
  <sodipodi:namedview
     id="base"
     pagecolor="#ffffff"
     bordercolor="#666666"
     borderopacity="1.0"
     inkscape:pageopacity="0.0"
     inkscape:pageshadow="2"
     inkscape:zoom="2.8"
     inkscape:cx="47.466626"
     inkscape:cy="109.17332"
     inkscape:document-units="mm"
     inkscape:current-layer="layer2"
     showgrid="false"
     units="px"
     objecttolerance="3"
     gridtolerance="10"
     guidetolerance="10"
     inkscape:snap-tangential="true"
     inkscape:window-width="1920"
     inkscape:window-height="1017"
     inkscape:window-x="-8"
     inkscape:window-y="-8"
     inkscape:window-maximized="1" />
  <metadata
     id="metadata10849">
    <rdf:RDF>
      <cc:Work
         rdf:about="">
        <dc:format>image/svg+xml</dc:format>
        <dc:type
           rdf:resource="http://purl.org/dc/dcmitype/StillImage" />
        <dc:title></dc:title>
      </cc:Work>
    </rdf:RDF>
  </metadata>
  <g
     inkscape:label="Layer 1"
     inkscape:groupmode="layer"
     id="layer1"
     transform="translate(0,-243.81873)" />
  <g
     inkscape:groupmode="layer"
     id="layer3"
     inkscape:label="Layer 3" />
  <g
     inkscape:groupmode="layer"
     id="layer2"
     inkscape:label="Layer 2">
    <path
       style="opacity:1;fill:#999999;fill-opacity:1;fill-rule:evenodd;stroke:#999999;stroke-width:0.04464286"
       d=""
       id="path11812"
       inkscape:connector-curvature="0"
       transform="scale(0.26458333)" />
    <g
       id="g11955"
       transform="matrix(1.1736279,0,0,1.1736279,-3.2696496,1.2123511)">
      <path
         inkscape:connector-curvature="0"
         id="path10862-3-6"
         d="M 24.37321,16.888856 C 35.862606,5.4905219 28.43661,4.8990489 35.903783,5.4769829 c 7.467168,0.577929 5.707202,19.2240381 5.707202,19.2240381 l -0.499677,-1.865929 c 0,0 0.213219,-12.251818 -2.428411,-13.1394831 -2.641612,-0.887658 -3.058947,-2.780671 -3.058947,-2.780671 l -2.798759,0.715253 c 0,0 -1.083792,3.7098641 -8.451981,9.2586651 z"
         style="fill:#e6e6e6;stroke:#000000;stroke-width:0.17161798px;stroke-linecap:butt;stroke-linejoin:miter;stroke-opacity:1" />
      <path
         inkscape:connector-curvature="0"
         id="path10862-3-6-7"
         d="m 24.367434,260.84152 c -11.489396,-11.39834 -4.0634,-11.98981 -11.530573,-11.41187 -7.467168,0.57792 -5.707202,19.22403 -5.707202,19.22403 l 0.499677,-1.86592 c 0,0 -0.213219,-12.25182 2.428411,-13.13949 2.641612,-0.88766 3.058947,-2.78067 3.058947,-2.78067 l 2.798759,0.71525 c 0,0 1.083791,3.70987 8.451981,9.25867 z"
         style="fill:#e6e6e6;stroke:#000000;stroke-width:0.17161798px;stroke-linecap:butt;stroke-linejoin:miter;stroke-opacity:1"
         transform="translate(0,-243.81873)" />
      <path
         inkscape:connector-curvature="0"
         id="path10862-3-6-6"
         d="m 24.367434,260.84152 c 15.410836,-4.94313 9.061935,-8.84014 15.453669,-4.9365 6.391738,3.90363 -3.638266,19.72051 -3.638266,19.72051 l 0.401501,-1.88948 c 0,0 5.749936,-10.82085 3.798806,-12.81063 -1.951119,-1.98978 -1.463949,-3.86603 -1.463949,-3.86603 l -2.818562,-0.63273 c 0,0 -2.649325,2.81404 -11.733199,4.41486 z"
         style="fill:#e6e6e6;stroke:#000000;stroke-width:0.17161798px;stroke-linecap:butt;stroke-linejoin:miter;stroke-opacity:1"
         transform="translate(0,-243.81873)" />
      <path
         inkscape:connector-curvature="0"
         id="path10862-3-6-8"
         d="m 24.37321,260.70759 c -16.0885825,1.75667 -11.87527,-4.38688 -16.1250095,1.78016 -4.2497517,6.16702 11.3491865,16.53274 11.3491865,16.53274 l -1.135726,-1.56252 c 0,0 -9.6560777,-7.54405 -8.6836482,-10.15567 0.9724262,-2.6116 -0.2361704,-4.12717 -0.2361704,-4.12717 l 2.3170686,-1.72506 c 0,0 3.56525,1.49223 12.514299,-0.74248 z"
         style="fill:#e6e6e6;stroke:#000000;stroke-width:0.17161798px;stroke-linecap:butt;stroke-linejoin:miter;stroke-opacity:1"
         transform="translate(0,-243.81873)" />
      <path
         inkscape:connector-curvature="0"
         id="path10862-3-6-61"
         d="m 20.299235,15.362697 c 2.564814,-2.745945 0.836756,-2.817543 2.574247,-2.749449 1.73749,0.06809 1.493952,4.409542 1.493952,4.409542 L 24.23502,16.59431 c 0,0 -0.0588,-2.844306 -0.679504,-3.0269 -0.620698,-0.182593 -0.734248,-0.618084 -0.734248,-0.618084 l -0.642992,0.190671 c 0,0 -0.218655,0.870266 -1.879041,2.2227 z"
         style="fill:#e6e6e6;stroke:#000000;stroke-width:0.03984424px;stroke-linecap:butt;stroke-linejoin:miter;stroke-opacity:1" />
      <path
         inkscape:connector-curvature="0"
         id="path10862-3-6-61-1"
         d="m 27.863773,15.362692 c -2.204282,-2.745945 -0.719135,-2.817543 -2.212389,-2.749449 -1.493254,0.06809 -1.28395,4.409542 -1.28395,4.409542 l 0.113801,-0.42848 c 0,0 0.05053,-2.844306 0.583987,-3.0269 0.533448,-0.182593 0.631036,-0.618084 0.631036,-0.618084 l 0.552608,0.190671 c 0,0 0.187919,0.870266 1.614907,2.2227 z"
         style="fill:#e6e6e6;stroke:#000000;stroke-width:0.03693781px;stroke-linecap:butt;stroke-linejoin:miter;stroke-opacity:1" />
      <path
         transform="scale(0.26458333)"
         inkscape:connector-curvature="0"
         id="path11439"
         d="m 81.279941,73.174302 c -1.091695,-0.05 -1.770743,-0.124899 -2.509598,-0.27679 -0.518975,-0.10669 -1.103824,-0.279242 -1.515228,-0.447049 -0.203555,-0.08303 -0.669695,-0.309211 -0.718156,-0.348467 -0.03088,-0.02502 -0.03071,-0.02538 0.0079,-0.01658 0.299097,0.0682 0.723502,0.112582 1.445527,0.151177 1.265447,0.06764 2.556535,0.167545 4.078745,0.315602 2.15771,0.209868 2.679401,0.243511 3.786734,0.244199 0.463697,2.88e-4 0.808175,0.0056 0.765506,0.01188 -1.089093,0.159446 -2.229188,0.276149 -3.28955,0.336727 -0.385536,0.02203 -1.776891,0.04189 -2.051872,0.02929 z"
         style="opacity:1;fill:#cccccc;fill-opacity:1;fill-rule:evenodd;stroke:#000000;stroke-width:0.01578363" />
      <g
         transform="translate(-1.434199,4.0009361)"
         id="g11352">
        <g
           transform="matrix(0.87631942,0,0,0.87631942,4.3604043,-209.95018)"
           id="g11135">
          <path
             inkscape:connector-curvature="0"
             id="path10862"
             d="M 24.473958,254.28867 C 0.8031994,262.17892 5.1499256,251.54834 0.75595238,262.22617 -3.6380208,272.904 23.245535,283.44008 23.245535,283.44008 l -2.22061,-1.98437 c 0,0 -17.0089281,-8.22098 -16.3947167,-12.47322 0.6142114,-4.25223 -1.7008927,-6.14211 -1.7008927,-6.14211 l 2.9293152,-3.35454 c 0,0 5.8586312,1.08668 18.6153272,-5.19717 z"
             style="fill:#cccccc;stroke:#000000;stroke-width:0.26458332px;stroke-linecap:butt;stroke-linejoin:miter;stroke-opacity:1" />
          <g
             id="g11087">
            <path
               style="fill:#000000;stroke:#000000;stroke-width:0.26458332px;stroke-linecap:butt;stroke-linejoin:miter;stroke-opacity:1"
               d="m 24.271414,255.46462 c -1.03567,0.0835 -1.027318,-0.25056 -1.027318,-0.25056 l 1.010613,-0.12528 z"
               id="path10960"
               inkscape:connector-curvature="0" />
            <path
               sodipodi:type="star"
               style="fill:#ffff00;fill-rule:evenodd;stroke:#000000;stroke-width:0.00466753"
               id="path5857"
               sodipodi:sides="6"
               sodipodi:cx="23.375847"
               sodipodi:cy="255.28259"
               sodipodi:r1="0.15495588"
               sodipodi:r2="0.0015495591"
               sodipodi:arg1="1.0404222"
               sodipodi:arg2="1.5640209"
               inkscape:flatsided="false"
               inkscape:rounded="2.02"
               inkscape:randomized="0"
               d="m 23.454232,255.41626 c -0.267674,0.15697 0.231922,-0.13422 -0.07838,-0.13212 -0.310297,0.002 0.193199,0.2865 -0.07658,0.13317 -0.269776,-0.15333 0.232199,0.13374 0.07523,-0.13393 -0.156969,-0.26768 -0.151513,0.31056 -0.153615,2.6e-4 -0.0021,-0.31029 2.77e-4,0.26796 0.153605,-0.002 0.153327,-0.26978 -0.344712,0.0241 -0.07704,-0.1329 0.267674,-0.15697 -0.231922,0.13422 0.07838,0.13211 0.310297,-0.002 -0.193198,-0.28649 0.07658,-0.13316 0.269776,0.15332 -0.2322,-0.13374 -0.07523,0.13393 0.156969,0.26767 0.151513,-0.31056 0.153615,-2.7e-4 0.0021,0.3103 -2.77e-4,-0.26796 -0.153605,0.002 -0.153328,0.26977 0.344712,-0.0241 0.07704,0.1329 z" />
            <path
               sodipodi:type="star"
               style="fill:#ffff00;fill-rule:evenodd;stroke:#000000;stroke-width:0.00466753"
               id="path5857-3"
               sodipodi:sides="6"
               sodipodi:cx="23.375847"
               sodipodi:cy="255.28259"
               sodipodi:r1="0.15495589"
               sodipodi:r2="0.0015495589"
               sodipodi:arg1="1.0404222"
               sodipodi:arg2="1.5640209"
               inkscape:flatsided="false"
               inkscape:rounded="2.02"
               inkscape:randomized="0"
               d="m 23.454232,255.41626 c -0.267674,0.15697 0.231922,-0.13422 -0.07838,-0.13212 -0.310297,0.002 0.193199,0.2865 -0.07658,0.13317 -0.269776,-0.15333 0.232199,0.13374 0.07523,-0.13393 -0.156969,-0.26768 -0.151513,0.31056 -0.153615,2.6e-4 -0.0021,-0.31029 2.77e-4,0.26796 0.153605,-0.002 0.153327,-0.26978 -0.344712,0.0241 -0.07704,-0.1329 0.267674,-0.15697 -0.231922,0.13422 0.07838,0.13211 0.310297,-0.002 -0.193198,-0.28649 0.07658,-0.13316 0.269776,0.15332 -0.2322,-0.13374 -0.07523,0.13393 0.156969,0.26767 0.151513,-0.31056 0.153615,-2.7e-4 0.0021,0.3103 -2.77e-4,-0.26796 -0.153605,0.002 -0.153328,0.26977 0.344712,-0.0241 0.07704,0.1329 z"
               transform="rotate(29.063485,23.375847,255.28259)" />
          </g>
          <g
             id="g11107">
            <path
               style="fill:#000000;stroke:#000000;stroke-width:0.26458332px;stroke-linecap:butt;stroke-linejoin:miter;stroke-opacity:1"
               d="m 24.963256,255.42843 c 1.03567,0.0835 1.027318,-0.25056 1.027318,-0.25056 l -1.010613,-0.12528 z"
               id="path10960-3-8"
               inkscape:connector-curvature="0" />
            <path
               sodipodi:type="star"
               style="fill:#ffff00;fill-rule:evenodd;stroke:#000000;stroke-width:0.00466753"
               id="path5857-0"
               sodipodi:sides="6"
               sodipodi:cx="25.833269"
               sodipodi:cy="255.24748"
               sodipodi:r1="0.15495589"
               sodipodi:r2="0.0015495589"
               sodipodi:arg1="1.0404222"
               sodipodi:arg2="1.5640209"
               inkscape:flatsided="false"
               inkscape:rounded="2.02"
               inkscape:randomized="0"
               d="m 25.911655,255.38115 c -0.267674,0.15697 0.231922,-0.13422 -0.07838,-0.13212 -0.310297,0.002 0.193198,0.2865 -0.07658,0.13317 -0.269776,-0.15333 0.2322,0.13374 0.07523,-0.13393 -0.156969,-0.26768 -0.151513,0.31056 -0.153615,2.6e-4 -0.0021,-0.31029 2.77e-4,0.26796 0.153605,-0.002 0.153328,-0.26978 -0.344712,0.0241 -0.07704,-0.13291 0.267674,-0.15696 -0.231922,0.13423 0.07838,0.13212 0.310297,-0.002 -0.193199,-0.28649 0.07658,-0.13317 0.269776,0.15333 -0.232199,-0.13374 -0.07523,0.13394 0.156969,0.26767 0.151513,-0.31056 0.153615,-2.7e-4 0.0021,0.3103 -2.77e-4,-0.26796 -0.153605,0.002 -0.153327,0.26977 0.344712,-0.0241 0.07704,0.1329 z" />
            <path
               sodipodi:type="star"
               style="fill:#ffff00;fill-rule:evenodd;stroke:#000000;stroke-width:0.00466753"
               id="path5857-0-2"
               sodipodi:sides="6"
               sodipodi:cx="25.833269"
               sodipodi:cy="255.24748"
               sodipodi:r1="0.15495589"
               sodipodi:r2="0.0015495589"
               sodipodi:arg1="1.0404222"
               sodipodi:arg2="1.5640209"
               inkscape:flatsided="false"
               inkscape:rounded="2.02"
               inkscape:randomized="0"
               d="m 25.911655,255.38115 c -0.267674,0.15697 0.231922,-0.13422 -0.07838,-0.13212 -0.310297,0.002 0.193198,0.2865 -0.07658,0.13317 -0.269776,-0.15333 0.2322,0.13374 0.07523,-0.13393 -0.156969,-0.26768 -0.151513,0.31056 -0.153615,2.6e-4 -0.0021,-0.31029 2.77e-4,0.26796 0.153605,-0.002 0.153328,-0.26978 -0.344712,0.0241 -0.07704,-0.13291 0.267674,-0.15696 -0.231922,0.13423 0.07838,0.13212 0.310297,-0.002 -0.193199,-0.28649 0.07658,-0.13317 0.269776,0.15333 -0.232199,-0.13374 -0.07523,0.13394 0.156969,0.26767 0.151513,-0.31056 0.153615,-2.7e-4 0.0021,0.3103 -2.77e-4,-0.26796 -0.153605,0.002 -0.153327,0.26977 0.344712,-0.0241 0.07704,0.1329 z"
               transform="rotate(26.073801,25.833269,255.24748)" />
          </g>
          <g
             id="g11115">
            <path
               style="fill:#e6e6e6;stroke:#000000;stroke-width:0.26458332px;stroke-linecap:butt;stroke-linejoin:miter;stroke-opacity:1"
               d="m 24.473958,254.28867 c 24.878277,-1.90578 16.749488,-10.0191 24.940152,-1.88054 8.190664,8.13855 -12.503965,28.27476 -12.503965,28.27476 l 1.277396,-2.69019 c 0,0 12.490321,-14.17321 10.275294,-17.85459 -2.215011,-3.68135 -0.813871,-6.32108 -0.813871,-6.32108 l -4.000894,-1.95619 c 0,0 -4.978874,3.27342 -19.174112,2.42783 z"
               id="path10862-3"
               inkscape:connector-curvature="0" />
            <path
               style="fill:none;stroke:#000000;stroke-width:0.26458332px;stroke-linecap:butt;stroke-linejoin:miter;stroke-opacity:1"
               d="m 19.347656,256.6274 c 1.984375,2.26785 12.213354,-2.24424 12.213354,-2.24424 0,0 -10.134485,4.46485 -12.213354,2.24424 z"
               id="path11111"
               inkscape:connector-curvature="0" />
          </g>
        </g>
        <path
           style="opacity:1;fill:#f9f9f9;fill-opacity:1;fill-rule:evenodd;stroke:#cccccc;stroke-width:0.08280697"
           d="m 23.147386,15.152093 c -0.364351,-0.03648 -0.859469,-0.07433 -1.100264,-0.0841 -0.47601,-0.01932 -0.626806,-0.112195 -0.329359,-0.202861 0.103135,-0.03144 0.774979,-0.317022 1.492987,-0.634633 l 1.305468,-0.577476 0.146749,0.181227 c 0.115471,0.142601 0.243159,0.183936 0.599091,0.193935 l 0.452344,0.01271 0.025,-0.298783 0.025,-0.298784 -0.439036,0.0326 -0.439035,0.0326 0.457651,-0.24334 0.457651,-0.243339 1.985155,0.0824 c 1.091836,0.04532 2.339154,0.06202 2.77182,0.03709 0.763207,-0.04396 0.778023,-0.04147 0.496843,0.08353 -1.265754,0.562706 -4.039067,1.461566 -5.558038,1.801419 -0.999259,0.223574 -1.243168,0.23663 -2.350028,0.125793 z m 3.938775,-1.238325 c 0.08809,-0.04715 0.16017,-0.158935 0.16017,-0.248421 0,-0.128168 -0.05712,-0.162894 -0.269123,-0.163612 -0.148017,-5.1e-4 -0.408859,-0.02401 -0.579649,-0.05224 l -0.310526,-0.05133 v 0.300659 0.300659 h 0.419479 c 0.230713,0 0.491555,-0.03857 0.579649,-0.08572 z"
           id="path11161"
           inkscape:connector-curvature="0" />
        <path
           style="opacity:1;fill:#e6e6e6;fill-opacity:1;fill-rule:evenodd;stroke:#cccccc;stroke-width:0.04140348"
           d="M 22.831842,37.494681 C 20.928451,36.644802 19.490053,35.948194 17.966932,35.138631 10.100304,30.95739 5.6484798,26.876137 4.8345548,23.099391 4.775024,22.823158 4.7599011,22.576123 4.7624627,21.92176 c 0.00297,-0.757893 0.012477,-0.862531 0.1122235,-1.234705 0.2416899,-0.9018 1.5243989,-3.873949 1.9367152,-4.48754 0.210473,-0.313216 0.4152152,-0.510905 0.6390461,-0.617033 0.2686827,-0.127393 0.7209064,-0.131346 1.599567,-0.01398 2.0846595,0.278447 3.5897385,0.304706 5.5839375,0.09742 2.300157,-0.239087 5.033674,-0.808042 7.953348,-1.655413 0.601322,-0.174521 1.139892,-0.32567 1.196822,-0.335887 0.1374,-0.02466 -0.901621,0.446951 -1.883859,0.85508 -3.596251,1.494276 -6.919567,2.436804 -9.729818,2.759481 -0.650673,0.07471 -2.3857329,0.105746 -2.5976346,0.04646 -0.108495,-0.03035 -0.1718833,0.03517 -1.4582447,1.507264 l -1.3448193,1.538997 0.2453169,0.262244 c 0.6097223,0.651795 1.0426585,1.549394 1.2500172,2.591639 0.1039732,0.522599 0.1277599,1.513607 0.059405,2.474944 -0.031514,0.443216 -0.026483,0.553921 0.034815,0.765964 0.3125063,1.081039 1.5892091,2.466351 3.7697415,4.090434 2.212101,1.647596 5.747582,3.763361 9.388926,5.618687 l 1.191035,0.606852 0.591589,0.522533 c 0.62096,0.548473 0.769249,0.693098 0.707316,0.68984 -0.02061,-0.0012 -0.549837,-0.230749 -1.176065,-0.510362 z"
           id="path11171"
           inkscape:connector-curvature="0" />
      </g>
      <g
         transform="translate(30.804077,17.725741)"
         id="g11610">
        <g
           id="g11600">
          <g
             transform="translate(-33.341873,-13.229841)"
             id="g11386">
            <g
               id="g11376"
               transform="translate(0.20045215,-0.40090429)">
              <path
                 d="m 27.385911,27.083925 -3.207532,1.506342 -3.530976,-0.299235 -2.908297,-2.024633 -1.506343,-3.207533 0.299235,-3.530976 2.024634,-2.908297 3.207532,-1.506342 3.530976,0.299235 2.908297,2.024633 1.506343,3.207533 -0.299235,3.530976 z"
                 inkscape:randomized="0"
                 inkscape:rounded="0"
                 inkscape:flatsided="true"
                 sodipodi:arg2="1.1317413"
                 sodipodi:arg1="0.86994192"
                 sodipodi:r2="6.6125088"
                 sodipodi:r1="6.8457727"
                 sodipodi:cy="21.851759"
                 sodipodi:cx="22.971272"
                 sodipodi:sides="12"
                 id="path10854"
                 style="opacity:1;fill:#cccccc;fill-opacity:1;fill-rule:evenodd;stroke:#333333;stroke-width:0.15260485"
                 sodipodi:type="star" />
              <path
                 d="m 25.873407,25.525202 -2.213887,1.0397 -2.437132,-0.206537 -2.007349,-1.397432 -1.0397,-2.213886 0.206536,-2.437132 1.397432,-2.00735 2.213886,-1.0397 2.437132,0.206536 2.00735,1.397432 1.0397,2.213887 -0.206536,2.437132 z"
                 inkscape:randomized="0"
                 inkscape:rounded="0"
                 inkscape:flatsided="true"
                 sodipodi:arg2="1.1317413"
                 sodipodi:arg1="0.86994192"
                 sodipodi:r2="4.5640516"
                 sodipodi:r1="4.7250538"
                 sodipodi:cy="21.913883"
                 sodipodi:cx="22.826357"
                 sodipodi:sides="12"
                 id="path10854-6"
                 style="opacity:1;fill:#cccccc;fill-opacity:1;fill-rule:evenodd;stroke:#333333;stroke-width:0.10533012"
                 sodipodi:type="star" />
              <path
                 d="m 24.681299,24.063263 -1.317657,0.618807 -1.450527,-0.122927 -1.194731,-0.83172 -0.618807,-1.317657 0.122926,-1.450528 0.831721,-1.194731 1.317657,-0.618806 1.450528,0.122926 1.19473,0.831721 0.618807,1.317656 -0.122926,1.450528 z"
                 inkscape:randomized="0"
                 inkscape:rounded="0"
                 inkscape:flatsided="true"
                 sodipodi:arg2="1.1317413"
                 sodipodi:arg1="0.86994192"
                 sodipodi:r2="2.7164235"
                 sodipodi:r1="2.8122487"
                 sodipodi:cy="21.913885"
                 sodipodi:cx="22.867762"
                 sodipodi:sides="12"
                 id="path10854-6-9"
                 style="opacity:1;fill:#cccccc;fill-opacity:1;fill-rule:evenodd;stroke:#333333;stroke-width:0.06269018"
                 sodipodi:type="star" />
              <path
                 d="m 23.477174,22.952811 -0.548068,0.257388 -0.603334,-0.05113 -0.496939,-0.345948 -0.257387,-0.548068 0.05113,-0.603334 0.345947,-0.496939 0.548069,-0.257387 0.603334,0.05113 0.496938,0.345947 0.257388,0.548069 -0.05113,0.603334 z"
                 inkscape:randomized="0"
                 inkscape:rounded="0"
                 inkscape:flatsided="true"
                 sodipodi:arg2="1.1317413"
                 sodipodi:arg1="0.86994192"
                 sodipodi:r2="1.1298734"
                 sodipodi:r1="1.169731"
                 sodipodi:cy="22.058796"
                 sodipodi:cx="22.722849"
                 sodipodi:sides="12"
                 id="path10854-6-9-9"
                 style="opacity:1;fill:#cccccc;fill-opacity:1;fill-rule:evenodd;stroke:#333333;stroke-width:0.02607545"
                 sodipodi:type="star" />
            </g>
            <path
               sodipodi:type="spiral"
               style="fill:none;fill-rule:evenodd;stroke:#000000;stroke-width:0.26458332"
               id="path11378"
               sodipodi:cx="23.252449"
               sodipodi:cy="21.910713"
               sodipodi:expansion="1.618"
               sodipodi:revolution="4"
               sodipodi:radius="6.5388923"
               sodipodi:argument="-31.100151"
               sodipodi:t0="0"
               d="m 23.252449,21.910713 c 0.03455,0.01129 -0.0092,0.06281 -0.02288,0.07002 -0.09235,0.0486 -0.179034,-0.05951 -0.192047,-0.140236 -0.03217,-0.199597 0.171154,-0.341291 0.350241,-0.343971 0.329624,-0.0049 0.54379,0.325684 0.524385,0.629718 -0.03075,0.481728 -0.516598,0.782187 -0.968952,0.731032 -0.65452,-0.07402 -1.0534,-0.73997 -0.962099,-1.361921 0.124296,-0.846712 0.993087,-1.35512 1.804368,-1.21613 1.057215,0.181123 1.685531,1.273916 1.491935,2.293057 -0.244122,1.285117 -1.580857,2.043156 -2.825414,1.788511 -1.529643,-0.312975 -2.426761,-1.912596 -2.105006,-3.399316 0.387418,-1.790127 2.268036,-2.835294 4.012976,-2.44068 2.06599,0.46722 3.267843,2.646236 2.794881,4.664858 -0.552178,2.356721 -3.046376,3.723605 -5.353618,3.167033 -2.661864,-0.642116 -4.201869,-3.467738 -3.556619,-6.078074 0.736878,-2.981012 3.909678,-4.701995 6.837168,-3.963169 3.313793,0.83632 5.223407,4.371618 4.386259,7.629946" />
          </g>
        </g>
      </g>
      <g
         id="g11883">
        <path
           style="opacity:1;fill:#999999;fill-opacity:1;fill-rule:evenodd;stroke:#999999;stroke-width:0.04464286"
           d="m 114.79433,83.000713 c -0.31402,-0.09183 -0.37718,-0.123393 -0.30231,-0.151089 0.10456,-0.03868 0.88622,-0.190162 1.23254,-0.238864 l 0.22077,-0.03105 -0.22077,0.16717 c -0.12142,0.09194 -0.27755,0.214297 -0.34696,0.271899 -0.14915,0.123787 -0.0921,0.125554 -0.58327,-0.01807 z"
           id="path11814"
           inkscape:connector-curvature="0"
           transform="scale(0.26458333)" />
        <g
           id="g11852">
          <g
             transform="rotate(27.667449,29.214485,20.30073)"
             id="g11783">
            <g
               id="g11823">
              <path
                 inkscape:connector-curvature="0"
                 id="path11682"
                 d="m 28.017486,17.769605 c 0.09449,2.114305 3.295478,3.000186 3.295478,3.000186 0,0 -1.925315,1.240235 0.921319,0.236236"
                 style="fill:none;stroke:#000000;stroke-width:0.26458332px;stroke-linecap:butt;stroke-linejoin:miter;stroke-opacity:1" />
            </g>
            <path
               style="fill:none;stroke:#000000;stroke-width:0.26458332px;stroke-linecap:butt;stroke-linejoin:miter;stroke-opacity:1"
               d="m 28.415039,17.032302 c 2.061556,-0.47875 3.777242,2.365108 3.777242,2.365108 0,0 0.675539,-2.188302 0.475766,0.823579"
               id="path11682-8"
               inkscape:connector-curvature="0" />
            <g
               id="g11431"
               transform="matrix(0.80303001,-0.93976592,0.93976592,0.80303001,-16.802251,39.046601)">
              <path
                 inkscape:connector-curvature="0"
                 d="m 35.740099,21.819569 c -0.07885,0.232251 -0.117856,0.474562 -0.141508,0.717863 -0.02403,0.313065 -0.04382,0.626358 -0.06227,0.9398 -0.01774,0.531392 -0.04677,1.062073 -0.05229,1.593832 0.01013,0.645681 0.0021,1.291003 -0.02992,1.935939 -0.03412,0.701441 -0.131847,1.396836 -0.235671,2.090627 -0.09647,0.684501 -0.214862,1.365515 -0.353073,2.042753 -0.117632,0.618751 -0.262458,1.231518 -0.426314,1.839508 -0.135486,0.472529 -0.280466,0.943165 -0.455672,1.402619 -0.114776,0.263273 -0.224103,0.530366 -0.367484,0.779732 -0.05834,0.08465 -0.02819,0.04548 -0.08955,0.118207 0,0 -1.257167,-0.0976 -1.257167,-0.0976 v 0 c 0.06537,-0.05679 0.03253,-0.02603 0.09798,-0.09275 0.169739,-0.230524 0.278456,-0.498292 0.40376,-0.754029 0.191745,-0.451629 0.345535,-0.918321 0.485673,-1.388309 0.173631,-0.603793 0.321432,-1.2145 0.443184,-1.830938 0.138884,-0.675248 0.258816,-1.354132 0.359457,-2.036181 0.100406,-0.690101 0.197785,-1.381578 0.227052,-2.07919 0.02928,-0.64335 0.03208,-1.287085 0.02133,-1.930979 -1.76e-4,-0.532372 0.01472,-1.06464 0.0097,-1.597066 0.0014,-0.316622 0.02559,-0.631519 0.04998,-0.94709 0.0026,-0.03129 0.02215,-0.268356 0.02649,-0.301025 0.01966,-0.147669 0.06264,-0.291727 0.08277,-0.439378 0,0 1.263527,0.03365 1.263527,0.03365 z"
                 id="path11181"
                 style="opacity:1;fill:#e6e6e6;fill-opacity:1;fill-rule:evenodd;stroke:#000000;stroke-width:0.23185951" />
              <g
                 id="g11370">
                <g
                   id="g10958"
                   transform="matrix(0.87631942,0,0,0.87631942,5.1655131,-209.39392)">
                  <g
                     id="g10953">
                    <path
                       style="opacity:1;fill:#cccccc;fill-opacity:1;fill-rule:evenodd;stroke:#333333;stroke-width:0.26458332"
                       id="path10936"
                       sodipodi:type="arc"
                       sodipodi:cx="36.191219"
                       sodipodi:cy="264.06882"
                       sodipodi:rx="2.3151042"
                       sodipodi:ry="2.1733632"
                       sodipodi:start="3.894231"
                       sodipodi:end="3.7342541"
                       sodipodi:open="true"
                       d="m 34.501453,262.58318 a 2.3151042,2.1733632 0 0 1 3.203466,-0.15881 2.3151042,2.1733632 0 0 1 0.297113,2.99858 2.3151042,2.1733632 0 0 1 -3.179707,0.3986 2.3151042,2.1733632 0 0 1 -0.551385,-2.96671" />
                  </g>
                  <path
                     inkscape:connector-curvature="0"
                     id="path10950"
                     d="m 34.555171,262.52825 c -0.595346,-0.038 -0.845777,-0.47528 -0.595346,-0.038 0.25043,0.43733 0.25043,0.43733 0.25043,0.43733 z"
                     style="fill:#333333;stroke:#333333;stroke-width:0.26458332px;stroke-linecap:butt;stroke-linejoin:miter;stroke-opacity:1" />
                </g>
                <path
                   style="opacity:1;fill:#e6e6e6;fill-opacity:1;fill-rule:evenodd;stroke:#000000;stroke-width:0.23185951"
                   id="path11185"
                   d="m 32.314625,35.053981 c 0.101107,-0.162732 0.18259,-0.337172 0.263066,-0.510815 0.1065,-0.212069 0.207634,-0.426689 0.307807,-0.641808 0.121485,-0.251933 0.244769,-0.502902 0.358379,-0.758524 0.133003,-0.304092 0.280709,-0.601357 0.412431,-0.906 0.1281,-0.300271 0.265314,-0.59645 0.40124,-0.893215 0.125021,-0.270652 0.248025,-0.542328 0.366609,-0.81588 0.09498,-0.225643 0.188778,-0.452076 0.271536,-0.68253 0.06616,-0.183782 0.109303,-0.374504 0.164682,-0.561528 0.04697,-0.159131 0.08944,-0.31955 0.136981,-0.478506 0.03815,-0.132525 0.06973,-0.266804 0.106566,-0.399733 0.03389,-0.111319 0.07087,-0.221971 0.100085,-0.334649 0.02547,-0.09591 0.05521,-0.190546 0.08285,-0.28582 0.02466,-0.07712 0.0551,-0.152401 0.08725,-0.226721 0.03463,-0.07878 0.06496,-0.159254 0.09914,-0.238228 0.03289,-0.08062 0.06092,-0.162925 0.09053,-0.244738 0.03051,-0.07738 0.06084,-0.154714 0.09291,-0.231454 0.03122,-0.07308 0.05998,-0.147335 0.08499,-0.222804 0.0278,-0.08711 0.06378,-0.171136 0.101554,-0.254299 0.04695,-0.09887 0.09166,-0.198749 0.136649,-0.298527 0.05781,-0.114693 0.116206,-0.229315 0.180443,-0.340573 0.05507,-0.09653 0.11423,-0.190722 0.175726,-0.283279 0.07407,-0.09943 0.135884,-0.206925 0.201727,-0.311724 0.05388,-0.08754 0.118026,-0.167035 0.18155,-0.24742 0.0506,-0.05433 0.0942,-0.114588 0.136745,-0.175299 0.04923,-0.05722 0.09585,-0.116524 0.138352,-0.178927 0.05056,-0.07966 0.101441,-0.159052 0.14836,-0.240962 0.05151,-0.08787 0.08944,-0.182589 0.130053,-0.275742 0.03695,-0.105369 0.09098,-0.203166 0.13729,-0.30439 0.04438,-0.09115 0.07773,-0.186927 0.11626,-0.280553 0.03677,-0.07939 0.06759,-0.161489 0.104278,-0.240874 0.0325,-0.06704 0.07668,-0.127514 0.115263,-0.191143 0.03253,-0.05311 0.06336,-0.106753 0.09158,-0.162338 0,0 1.268701,0.05486 1.268701,0.05486 v 0 c -0.02512,0.05941 -0.05115,0.120652 -0.09234,0.170804 -0.03189,0.06441 -0.06842,0.127872 -0.1141,0.183352 -0.0372,0.07861 -0.07289,0.157562 -0.107359,0.237632 -0.04319,0.09212 -0.07238,0.190073 -0.119338,0.280527 -0.0432,0.102249 -0.100025,0.197812 -0.137062,0.302532 -0.0401,0.09845 -0.08115,0.196655 -0.12804,0.292068 -0.04831,0.08167 -0.09357,0.164941 -0.146981,0.243477 -0.03913,0.07116 -0.08709,0.135444 -0.136337,0.199783 -0.05645,0.051 -0.0882,0.123062 -0.139795,0.179041 -0.07182,0.0666 -0.128641,0.148212 -0.186494,0.226835 -0.07039,0.102573 -0.130688,0.211509 -0.199214,0.315317 -0.06454,0.08836 -0.122522,0.18167 -0.179072,0.275244 -0.06704,0.104615 -0.120316,0.217169 -0.178293,0.326876 -0.04709,0.09738 -0.08549,0.198819 -0.131824,0.296283 -0.03436,0.07939 -0.07291,0.156835 -0.09985,0.23927 -0.02263,0.07878 -0.05124,0.156274 -0.08354,0.23148 -0.02766,0.07773 -0.06657,0.150648 -0.09524,0.228141 -0.02938,0.08448 -0.06001,0.168253 -0.09102,0.252065 -0.03313,0.08071 -0.06861,0.160287 -0.09814,0.242442 -0.03335,0.06739 -0.05436,0.13965 -0.08791,0.206961 -0.02628,0.09476 -0.05943,0.187418 -0.08637,0.282034 -0.02819,0.114816 -0.0667,0.226538 -0.102798,0.339083 -0.04051,0.133411 -0.07399,0.268408 -0.110527,0.402888 -0.05338,0.157063 -0.09484,0.31785 -0.142582,0.476683 -0.05904,0.188566 -0.103927,0.381488 -0.172594,0.56704 -0.08255,0.23438 -0.183899,0.462241 -0.281336,0.690732 -0.12009,0.274577 -0.246946,0.546201 -0.373952,0.817633 -0.134451,0.296844 -0.274559,0.591156 -0.403543,0.890507 -0.130325,0.304687 -0.278124,0.60154 -0.406254,0.907253 -0.111402,0.256131 -0.227603,0.509834 -0.350187,0.760821 -0.09739,0.215565 -0.194941,0.431009 -0.301566,0.64221 -0.07966,0.174511 -0.164546,0.346637 -0.239946,0.522997 0,0 -1.267987,-0.0659 -1.267987,-0.0659 z"
                   inkscape:connector-curvature="0" />
                <path
                   style="opacity:1;fill:#000000;fill-opacity:1;fill-rule:evenodd;stroke:#000000;stroke-width:0.23185951"
                   id="path11207"
                   d="m 33.639818,31.629728 c 0.02739,0.01954 0.0583,0.03295 0.08885,0.04662 0.03139,0.01288 0.06356,0.02357 0.09567,0.03453 0.0385,0.01314 0.07686,0.02629 0.114439,0.04198 0.04294,0.01963 0.08538,0.0397 0.129684,0.05608 0.05216,0.01761 0.101944,0.04101 0.153799,0.05941 0.05707,0.01902 0.114084,0.03812 0.1706,0.05871 0.04895,0.01665 0.09887,0.03032 0.147683,0.04732 0.03098,0.01051 0.06173,0.02164 0.09254,0.0326 0.01817,0.0053 0.03571,0.01236 0.05062,0.02401 0.0112,0.0098 0.02282,0.01884 0.03521,0.02708 0.01544,0.01262 0.03267,0.02217 0.05064,0.03058 0.01992,0.0088 0.04007,0.01569 0.06146,0.01954 0.01855,0.0026 0.03633,0.0079 0.0548,0.01078 0.01989,0.0035 0.03955,-4.64e-4 0.05924,-0.0035 0.01027,-0.0018 0.02061,-0.0018 0.03096,-0.0026 0,0 -0.08212,0.306475 -0.08212,0.306475 v 0 c -0.01034,6.93e-4 -0.02068,0.0018 -0.03096,0.0026 -0.01974,0.0026 -0.03939,0.007 -0.05935,0.0035 -0.01853,-0.0026 -0.03621,-0.0088 -0.05468,-0.01122 -0.02133,-0.0044 -0.0415,-0.01113 -0.06144,-0.01963 -0.01788,-0.0088 -0.03511,-0.01761 -0.05093,-0.02953 -0.01245,-0.0079 -0.02405,-0.01726 -0.03518,-0.02717 -0.0147,-0.01201 -0.0321,-0.02007 -0.05017,-0.02576 -0.03058,-0.01192 -0.0609,-0.02445 -0.09165,-0.03593 -0.04865,-0.01761 -0.09806,-0.03304 -0.147089,-0.04951 -0.05651,-0.02059 -0.113203,-0.04066 -0.170605,-0.05871 -0.05197,-0.01797 -0.101938,-0.04075 -0.154167,-0.0581 -0.0445,-0.01569 -0.08697,-0.03567 -0.129981,-0.05495 -0.03766,-0.01534 -0.07613,-0.02804 -0.114833,-0.04049 -0.03229,-0.01043 -0.0643,-0.02156 -0.09569,-0.03444 -0.03027,-0.01376 -0.06032,-0.02795 -0.08959,-0.04382 0,0 0.08225,-0.306957 0.08225,-0.306957 z"
                   inkscape:connector-curvature="0" />
                <path
                   style="opacity:1;fill:#000000;fill-opacity:1;fill-rule:evenodd;stroke:#000000;stroke-width:0.23185951"
                   id="path11209"
                   d="m 34.126308,29.093765 c 0.03628,0.02901 0.07706,0.0517 0.117597,0.07414 0.04336,0.02305 0.08645,0.04671 0.131934,0.06528 0.04644,0.01831 0.09296,0.03619 0.140468,0.05153 0.04981,0.01989 0.0995,0.03987 0.149962,0.0581 0.04944,0.0177 0.09828,0.03707 0.14657,0.05775 0.04537,0.02068 0.09182,0.03865 0.138259,0.05679 0.03646,0.01314 0.07311,0.02541 0.10914,0.0397 0.0233,0.01122 0.04779,0.01963 0.07131,0.03041 0.01839,0.0088 0.03707,0.01709 0.05453,0.0276 0.01843,0.0095 0.03453,0.02261 0.05161,0.03409 0.02235,0.01612 0.04398,0.03304 0.06657,0.04881 0.03221,0.022 0.0647,0.04355 0.09749,0.06467 0.03649,0.02261 0.07208,0.04688 0.10991,0.0673 0.03029,0.01604 0.06102,0.03102 0.09147,0.04671 0.02179,0.012 0.04444,0.02217 0.06662,0.03347 0.01973,0.01069 0.03959,0.02103 0.05906,0.03225 0.0164,0.0079 0.03208,0.01761 0.04779,0.02699 0.01834,0.0089 0.03548,0.02016 0.05386,0.02892 0.01403,0.0094 0.03004,0.01437 0.04543,0.02086 0.01013,0.0035 0.0053,0.0018 0.01468,0.0061 0,0 -0.08236,0.30736 -0.08236,0.30736 v 0 c -0.0094,-0.0044 -0.0045,-0.0026 -0.01468,-0.0061 -0.0154,-0.0061 -0.03144,-0.01165 -0.0453,-0.02138 -0.0183,-0.009 -0.03517,-0.02068 -0.05382,-0.02909 -0.01595,-0.0089 -0.03169,-0.01831 -0.04779,-0.02699 -0.01927,-0.01166 -0.039,-0.02226 -0.05891,-0.03286 -0.02214,-0.01148 -0.04488,-0.02173 -0.06636,-0.03444 -0.03013,-0.01656 -0.06077,-0.03207 -0.09098,-0.04855 -0.03759,-0.02094 -0.07305,-0.04539 -0.109764,-0.06783 -0.03301,-0.02042 -0.06558,-0.04154 -0.09795,-0.06301 -0.02263,-0.01534 -0.04492,-0.03093 -0.0671,-0.04688 -0.01711,-0.01148 -0.03345,-0.02427 -0.05164,-0.034 -0.01771,-0.01008 -0.03625,-0.01884 -0.05443,-0.02804 -0.02356,-0.01078 -0.04786,-0.01998 -0.0709,-0.03199 -0.03563,-0.01551 -0.07231,-0.02796 -0.108496,-0.04206 -0.04635,-0.0184 -0.09246,-0.03724 -0.138087,-0.0574 -0.04815,-0.02103 -0.09703,-0.04031 -0.146435,-0.05828 -0.05061,-0.01788 -0.09992,-0.03864 -0.150074,-0.05766 -0.04748,-0.01542 -0.09429,-0.03242 -0.140569,-0.05118 -0.04545,-0.01875 -0.08874,-0.04198 -0.131861,-0.06555 -0.04006,-0.02226 -0.0794,-0.04566 -0.119069,-0.06862 0,0 0.08225,-0.306957 0.08225,-0.306957 z"
                   inkscape:connector-curvature="0" />
                <path
                   style="opacity:1;fill:#000000;fill-opacity:1;fill-rule:evenodd;stroke:#000000;stroke-width:0.23185951"
                   id="path11211"
                   d="m 34.419615,26.38642 c 0.04234,0.03829 0.08901,0.07116 0.136969,0.101907 0.04713,0.02918 0.09384,0.05906 0.144416,0.08202 0.04863,0.02165 0.09951,0.03698 0.150202,0.05275 0.05655,0.01604 0.110658,0.03865 0.164974,0.06082 0.0648,0.02655 0.130272,0.05144 0.193637,0.08132 0.07175,0.03207 0.143333,0.06441 0.214904,0.09687 0.05977,0.02655 0.120627,0.05048 0.180047,0.07782 0.05112,0.02383 0.102691,0.04662 0.154454,0.06897 0.05003,0.02121 0.09787,0.04715 0.145467,0.07326 0.04658,0.02278 0.09108,0.04907 0.135466,0.07571 0.0385,0.02226 0.07703,0.04434 0.114974,0.06756 0.02779,0.01551 0.05588,0.03067 0.08252,0.0482 0.01915,0.01078 0.03636,0.02419 0.05319,0.03812 0.01201,0.01095 0.02288,0.02305 0.03475,0.03409 0.01676,0.01621 0.03795,0.02603 0.05889,0.03558 0.03441,0.0149 0.07014,0.02673 0.105904,0.03795 0.02667,0.01095 0.05487,0.01665 0.08243,0.02462 0.02017,0.0053 0.04043,0.01008 0.06017,0.01665 0.01514,0.0044 0.03003,0.0094 0.04475,0.01507 0,0 -0.0818,0.305257 -0.0818,0.305257 v 0 c -0.01493,-0.0053 -0.03008,-0.0091 -0.04507,-0.01393 -0.0198,-0.0061 -0.04006,-0.01131 -0.06008,-0.017 -0.0273,-0.009 -0.05541,-0.01525 -0.08188,-0.02673 -0.03553,-0.01192 -0.07099,-0.0241 -0.106101,-0.03716 -0.02105,-0.0088 -0.04267,-0.01718 -0.05961,-0.03286 -0.01189,-0.01122 -0.0227,-0.02349 -0.03456,-0.03479 -0.01672,-0.01437 -0.03393,-0.02804 -0.05282,-0.03952 -0.02665,-0.01779 -0.05433,-0.03409 -0.08193,-0.05039 -0.03793,-0.02349 -0.07594,-0.04671 -0.114603,-0.06888 -0.04429,-0.02699 -0.08861,-0.05389 -0.135188,-0.07677 -0.04757,-0.02611 -0.09564,-0.05153 -0.145522,-0.073 -0.05168,-0.0227 -0.103226,-0.04574 -0.154147,-0.07011 -0.05942,-0.0276 -0.119883,-0.05275 -0.179439,-0.0801 -0.07109,-0.03356 -0.142746,-0.06599 -0.214711,-0.0976 -0.06428,-0.02743 -0.129139,-0.05346 -0.194361,-0.07861 -0.05444,-0.02164 -0.10883,-0.04364 -0.165357,-0.05941 -0.05081,-0.01542 -0.101629,-0.03102 -0.150248,-0.05258 -0.05056,-0.02313 -0.09727,-0.05345 -0.144073,-0.08334 -0.04699,-0.03093 -0.09279,-0.06362 -0.138422,-0.09648 0,0 0.08179,-0.305222 0.08179,-0.305222 z"
                   inkscape:connector-curvature="0" />
                <path
                   style="opacity:1;fill:#000000;fill-opacity:1;fill-rule:evenodd;stroke:#000000;stroke-width:0.23185951"
                   id="path11213"
                   d="m 34.4161,24.002498 c 0.02595,0.02585 0.0537,0.04925 0.08429,0.0694 0.03474,0.02156 0.07025,0.04171 0.106837,0.05994 0.04394,0.02191 0.08896,0.04154 0.133669,0.06178 0.04724,0.02068 0.09394,0.04268 0.142174,0.06091 0.05035,0.0177 0.100384,0.0361 0.150412,0.05468 0.05745,0.02138 0.115082,0.04215 0.173192,0.06161 0.06487,0.01989 0.127669,0.04566 0.191423,0.06879 0.06438,0.02138 0.127912,0.04469 0.190719,0.07037 0.05005,0.02243 0.101955,0.04022 0.153041,0.06003 0.04233,0.01437 0.08422,0.02988 0.12582,0.04627 0.02963,0.01069 0.05855,0.02331 0.08845,0.03321 0.02247,0.0079 0.04395,0.01753 0.0656,0.02708 0.01634,0.0088 0.03213,0.01796 0.04889,0.0255 0.01375,0.007 0.02737,0.01498 0.04166,0.02112 0.01732,0.0053 0.03241,0.01542 0.04684,0.02585 0.02026,0.01393 0.04084,0.02725 0.06176,0.04022 0.02407,0.01639 0.04976,0.03006 0.0751,0.04434 0.02823,0.01612 0.05878,0.02629 0.08914,0.03733 0.0191,0.0061 0.03822,0.01288 0.05742,0.01902 0.01697,0.0079 0.03515,0.01166 0.05264,0.01788 0.01746,0.0061 0.03492,0.01209 0.05194,0.01937 0.01806,0.007 0.0363,0.0142 0.05463,0.02094 0.0244,0.0061 0.04835,0.01464 0.0729,0.02068 0.02923,0.007 0.05906,0.01166 0.08815,0.0191 0.01931,0.0053 0.03843,0.01174 0.0572,0.01884 0.0233,0.0079 0.04544,0.01893 0.06793,0.02892 0.02954,0.0135 0.05859,0.02804 0.08794,0.04198 0.03228,0.01446 0.06472,0.02857 0.0972,0.04259 0.0191,0.007 0.03797,0.01534 0.05634,0.02436 0.01519,0.0061 0.02979,0.01464 0.04352,0.02375 0.01616,0.01122 0.03332,0.02068 0.05034,0.0305 0.01691,0.0092 0.03373,0.0184 0.05057,0.02769 0.01419,0.007 0.02827,0.01402 0.04223,0.02138 0.01379,0.0079 0.02851,0.01288 0.04301,0.01893 0.01612,0.007 0.03359,0.01017 0.05053,0.01472 0.01867,0.0035 0.03638,0.0097 0.05473,0.01402 0.01882,0.0061 0.03612,0.01577 0.0531,0.02559 0.01864,0.01209 0.03893,0.02094 0.05857,0.0312 0.01454,0.0092 0.03049,0.0156 0.04575,0.0234 0,0 -0.08201,0.306046 -0.08201,0.306046 v 0 c -0.015,-0.0088 -0.0308,-0.01507 -0.04569,-0.02366 -0.02008,-0.0094 -0.04011,-0.01858 -0.05869,-0.03076 -0.01686,-0.01008 -0.03485,-0.01823 -0.05331,-0.02489 -0.01841,-0.0044 -0.03592,-0.01139 -0.05466,-0.01428 -0.01699,-0.0044 -0.03461,-0.007 -0.0507,-0.01411 -0.01437,-0.0061 -0.02934,-0.01104 -0.04303,-0.01893 -0.014,-0.007 -0.02801,-0.01463 -0.04216,-0.02164 -0.01679,-0.0096 -0.03336,-0.01937 -0.05034,-0.02857 -0.01711,-0.0095 -0.03435,-0.01875 -0.05054,-0.0298 -0.01363,-0.0092 -0.02862,-0.01674 -0.04355,-0.02357 -0.01832,-0.0094 -0.03687,-0.01832 -0.0558,-0.02638 -0.0321,-0.01507 -0.06401,-0.03058 -0.09673,-0.04434 -0.03004,-0.01209 -0.05868,-0.02734 -0.08842,-0.04013 -0.02268,-0.0095 -0.04495,-0.01981 -0.06829,-0.02761 -0.01888,-0.007 -0.03801,-0.01306 -0.05709,-0.01928 -0.02855,-0.0091 -0.05847,-0.01428 -0.0876,-0.02112 -0.0248,-0.0053 -0.04941,-0.01052 -0.07354,-0.01823 -0.01834,-0.007 -0.03669,-0.01315 -0.05477,-0.02042 -0.01697,-0.007 -0.03433,-0.01358 -0.05195,-0.01928 -0.01744,-0.0061 -0.03547,-0.01069 -0.05266,-0.01788 -0.0192,-0.0061 -0.03809,-0.01358 -0.05696,-0.02077 -0.02964,-0.01262 -0.0604,-0.02261 -0.0891,-0.03751 -0.02523,-0.01446 -0.05095,-0.02804 -0.07513,-0.04425 -0.02105,-0.01253 -0.0418,-0.02532 -0.06206,-0.03917 -0.01465,-0.01 -0.02994,-0.02007 -0.04709,-0.02498 -0.01435,-0.0061 -0.02795,-0.01385 -0.04162,-0.02129 -0.01681,-0.0079 -0.03242,-0.0177 -0.04862,-0.02655 -0.02161,-0.0097 -0.04314,-0.01963 -0.06544,-0.02769 -0.02966,-0.01078 -0.05849,-0.02384 -0.08786,-0.0354 -0.04124,-0.01744 -0.083,-0.03348 -0.125404,-0.04785 -0.05065,-0.02121 -0.102799,-0.03873 -0.152332,-0.06274 -0.06266,-0.02603 -0.125997,-0.04995 -0.190468,-0.07125 -0.0638,-0.02287 -0.126808,-0.04802 -0.191631,-0.068 -0.0582,-0.0191 -0.116157,-0.03882 -0.173598,-0.06012 -0.05023,-0.01788 -0.100284,-0.03628 -0.15067,-0.05372 -0.04801,-0.01884 -0.09488,-0.04031 -0.142213,-0.06082 -0.0446,-0.02042 -0.08975,-0.03961 -0.133857,-0.06108 -0.0368,-0.01761 -0.07264,-0.0368 -0.107196,-0.05854 -0.03025,-0.01981 -0.05674,-0.04399 -0.08511,-0.06634 0,0 0.08218,-0.306711 0.08218,-0.306711 z"
                   inkscape:connector-curvature="0" />
                <path
                   style="opacity:1;fill:#000000;fill-opacity:1;fill-rule:evenodd;stroke:#000000;stroke-width:0.23185951"
                   id="path11215"
                   d="m 34.534154,21.620855 c 0.01526,-0.02059 0.0315,-0.04022 0.05073,-0.05714 0.02154,-0.01814 0.04445,-0.03453 0.0677,-0.05039 0.02178,-0.01349 0.04413,-0.02603 0.06718,-0.03716 0.02339,-0.01034 0.04515,-0.02384 0.06771,-0.03575 0.02229,-0.01244 0.04447,-0.02498 0.06539,-0.03952 0.01755,-0.01174 0.03564,-0.02278 0.0542,-0.03286 0.01561,-0.0089 0.03024,-0.01919 0.04594,-0.02796 0.01365,-0.007 0.0279,-0.01332 0.04187,-0.01998 0.01317,-0.007 0.02621,-0.01349 0.03821,-0.02217 0.01097,-0.007 0.02071,-0.01604 0.03044,-0.02489 0.01129,-0.0099 0.02254,-0.01989 0.03419,-0.02936 0.01004,-0.0097 0.02121,-0.01814 0.03262,-0.02611 0.0125,-0.0095 0.02712,-0.01429 0.04128,-0.02042 0.01208,-0.0061 0.02516,-0.0079 0.03837,-0.0088 0,0 -0.05811,0.216872 -0.05811,0.216872 v 0 c -0.01317,8.76e-4 -0.02622,0.0035 -0.03836,0.0088 -0.01431,0.0061 -0.02873,0.01069 -0.04121,0.02015 -0.01134,0.0079 -0.02237,0.01683 -0.03265,0.02629 -0.01185,0.0094 -0.02312,0.01945 -0.03428,0.02971 -0.0097,0.0088 -0.01927,0.01753 -0.03033,0.02454 -0.01215,0.0088 -0.02505,0.01569 -0.03828,0.02235 -0.01396,0.0061 -0.02819,0.01209 -0.04172,0.01937 -0.01565,0.0088 -0.03033,0.01866 -0.04584,0.0276 -0.01855,0.0097 -0.03642,0.02068 -0.05399,0.03207 -0.02103,0.01437 -0.04336,0.02664 -0.06536,0.03943 -0.02254,0.01192 -0.04454,0.02489 -0.0677,0.03567 -0.02289,0.01122 -0.04523,0.02348 -0.06703,0.03663 -0.02334,0.01595 -0.04657,0.03225 -0.06784,0.05091 -0.01961,0.01735 -0.03673,0.03698 -0.05118,0.05889 0,0 0.05805,-0.216653 0.05805,-0.216653 z"
                   inkscape:connector-curvature="0" />
                <path
                   style="opacity:1;fill:#000000;fill-opacity:1;fill-rule:evenodd;stroke:#000000;stroke-width:0.23185951"
                   id="path11217"
                   d="m 34.784807,21.566488 c 0.02441,-0.007 0.04911,-0.01332 0.07365,-0.02016 0.0357,-0.0088 0.07112,-0.01779 0.106214,-0.02857 0.03345,-0.0092 0.06617,-0.02068 0.09894,-0.03198 0.02584,-0.0089 0.05195,-0.01674 0.07804,-0.0248 0.02043,-0.007 0.04091,-0.007 0.06208,-0.0053 0.01667,4.91e-4 0.03292,0.0035 0.04925,0.0061 0.01433,0.0026 0.02844,0.0061 0.04204,0.01139 0,0 -0.05814,0.216977 -0.05814,0.216977 v 0 c -0.01354,-0.0053 -0.02753,-0.0094 -0.04193,-0.01174 -0.01626,-0.0035 -0.03246,-0.0061 -0.04907,-0.007 -0.02101,-0.0018 -0.04153,-0.0018 -0.06188,0.0053 -0.02618,0.007 -0.05223,0.01498 -0.07784,0.0241 -0.03269,0.01016 -0.06516,0.02103 -0.09831,0.02971 -0.03549,0.01069 -0.07087,0.02182 -0.106839,0.03085 -0.02491,0.007 -0.05041,0.01262 -0.07434,0.0227 0,0 0.05815,-0.217029 0.05815,-0.217029 z"
                   inkscape:connector-curvature="0" />
                <path
                   style="opacity:1;fill:#000000;fill-opacity:1;fill-rule:evenodd;stroke:#000000;stroke-width:0.23185951"
                   id="path11219"
                   d="m 35.210159,21.533529 c 0.02434,0.0088 0.04973,0.0095 0.07523,0.0089 0.02641,-0.0026 0.05266,-0.007 0.0789,-0.01122 0.02101,-0.0035 0.04216,-0.0053 0.06339,-0.0061 0.01705,-2.02e-4 0.03411,-3.07e-4 0.05116,-3.51e-4 0.01131,-7.18e-4 0.02233,0.0026 0.03337,0.0044 0,0 -0.05815,0.217029 -0.05815,0.217029 v 0 c -0.01102,-0.0018 -0.02196,-0.0053 -0.03323,-0.0044 -0.01704,-1.23e-4 -0.03409,-3.77e-4 -0.05112,1.92e-4 -0.02103,4.65e-4 -0.04203,0.0018 -0.06287,0.0044 -0.02633,0.0035 -0.05236,0.0097 -0.07897,0.01148 -0.02561,3.5e-4 -0.05077,-7.63e-4 -0.0758,-0.007 0,0 0.05808,-0.216757 0.05808,-0.216757 z"
                   inkscape:connector-curvature="0" />
                <path
                   style="opacity:1;fill:#000000;fill-opacity:1;fill-rule:evenodd;stroke:#000000;stroke-width:0.23185951"
                   id="path11221"
                   d="m 38.98763,22.978501 c -0.0011,-0.02717 -0.0054,-0.05381 -0.01102,-0.08036 -0.0074,-0.02962 -0.01662,-0.0588 -0.02744,-0.08737 -0.01486,-0.03435 -0.03386,-0.0666 -0.05256,-0.09896 -0.02314,-0.0411 -0.05042,-0.0794 -0.08059,-0.115543 -0.02295,-0.02743 -0.04948,-0.05161 -0.07576,-0.0758 -0.02198,-0.01972 -0.04595,-0.03698 -0.07008,-0.05389 -0.02363,-0.01639 -0.04933,-0.02953 -0.07376,-0.04461 -0.01755,-0.01087 -0.03572,-0.02059 -0.05376,-0.0305 -0.007,-0.0035 -0.01358,-0.007 -0.02029,-0.01104 0,0 0.05809,-0.216784 0.05809,-0.216784 v 0 c 0.0067,0.0044 0.01306,0.0088 0.02013,0.01165 0.01809,0.01017 0.03601,0.02068 0.05332,0.03207 0.02417,0.0156 0.0499,0.02857 0.07376,0.04461 0.024,0.01735 0.04793,0.03479 0.06986,0.05477 0.02647,0.02445 0.05237,0.0496 0.07529,0.07755 0.02921,0.03681 0.05618,0.0751 0.08068,0.115175 0.01871,0.0319 0.03778,0.06362 0.05299,0.09738 0.01087,0.02848 0.02006,0.05766 0.02746,0.08728 0.0053,0.02568 0.01,0.05135 0.01175,0.07755 0,0 -0.0581,0.216819 -0.0581,0.216819 z"
                   inkscape:connector-curvature="0" />
                <path
                   style="opacity:1;fill:#000000;fill-opacity:1;fill-rule:evenodd;stroke:#000000;stroke-width:0.23185951"
                   id="path11223"
                   d="m 39.167077,22.95109 c -0.01166,-0.01902 -0.02101,-0.03935 -0.03178,-0.05889 -0.0076,-0.01323 -0.01583,-0.02594 -0.02242,-0.03978 -0.0051,-0.01201 -0.01044,-0.02392 -0.01523,-0.03602 -0.0059,-0.01402 -0.0091,-0.02874 -0.01331,-0.0432 -0.0046,-0.01437 -0.007,-0.02927 -0.01016,-0.04399 -0.0032,-0.02252 -0.0068,-0.04478 -0.01273,-0.06678 -0.0088,-0.03479 -0.01931,-0.06897 -0.03003,-0.103212 -0.01162,-0.03812 -0.02513,-0.07571 -0.0427,-0.111486 -0.016,-0.03172 -0.03501,-0.06169 -0.05617,-0.09015 -0.01602,-0.02103 -0.03419,-0.04022 -0.05267,-0.05906 -0.01335,-0.01402 -0.02887,-0.02568 -0.04465,-0.03681 -0.01442,-0.0088 -0.02805,-0.0184 -0.04387,-0.02445 -0.0025,-8.77e-4 -0.0049,-0.0018 -0.0073,-0.0026 0,0 0.05801,-0.216521 0.05801,-0.216521 v 0 c 0.0025,8.76e-4 0.0049,0.0018 0.0073,0.0026 0.01572,0.0061 0.02943,0.01595 0.04377,0.02489 0.01583,0.01122 0.03121,0.02331 0.04444,0.03759 0.01845,0.01937 0.03634,0.03935 0.05214,0.06108 0.02087,0.02883 0.04035,0.05862 0.05604,0.09062 0.01748,0.03602 0.03038,0.07387 0.04258,0.111941 0.01102,0.03347 0.0211,0.06713 0.03062,0.101031 0.006,0.02138 0.0098,0.04312 0.01319,0.06502 0.0034,0.01463 0.0058,0.02953 0.0102,0.0439 0.0041,0.01446 0.0075,0.02892 0.0134,0.04285 0.0049,0.01209 0.0103,0.02401 0.01521,0.0361 0.0067,0.01402 0.01496,0.02717 0.02209,0.04101 0.01011,0.01946 0.0192,0.03952 0.03217,0.0574 0,0 -0.05816,0.217056 -0.05816,0.217056 z"
                   inkscape:connector-curvature="0" />
                <path
                   style="opacity:1;fill:#000000;fill-opacity:1;fill-rule:evenodd;stroke:#000000;stroke-width:0.23185951"
                   id="path11225"
                   d="m 38.634568,22.883316 c -0.0058,-0.0312 -0.01458,-0.06161 -0.02054,-0.09274 -0.0051,-0.02866 -0.0095,-0.0574 -0.01196,-0.0864 -0.0018,-0.02752 -0.0018,-0.05503 -0.0021,-0.08264 -3.4e-5,-0.02655 1e-5,-0.05302 2.8e-5,-0.07957 4.64e-4,-0.02243 -0.0011,-0.04487 6.96e-4,-0.06721 0.0014,-0.01192 0.0031,-0.02384 0.0043,-0.03575 0,0 0.05798,-0.216372 0.05798,-0.216372 v 0 c -0.0014,0.01218 -0.003,0.02427 -0.0046,0.03646 -0.0018,0.02261 -4.63e-4,0.04539 -9.64e-4,0.06809 -4.4e-5,0.02655 -1.21e-4,0.0531 -7.4e-5,0.07966 4.2e-5,0.0276 1.9e-4,0.05521 0.0021,0.08272 0.0025,0.02927 0.0068,0.05827 0.01175,0.08728 0.0056,0.03032 0.01364,0.05994 0.02136,0.08974 0,0 -0.05807,0.216749 -0.05807,0.216749 z"
                   inkscape:connector-curvature="0" />
                <path
                   style="opacity:1;fill:#000000;fill-opacity:1;fill-rule:evenodd;stroke:#000000;stroke-width:0.23185951"
                   id="path11227"
                   d="m 38.378361,22.891658 c -0.0038,-0.0198 -0.0091,-0.039 -0.01447,-0.05836 -0.0053,-0.01183 -0.0088,-0.02419 -0.01371,-0.0361 -0.0046,-0.0135 -0.0082,-0.02725 -0.01064,-0.04128 -0.0041,-0.01902 -0.0076,-0.03812 -0.01335,-0.0567 -0.0052,-0.01849 -0.01009,-0.03698 -0.01613,-0.05521 -0.005,-0.01463 -0.01059,-0.02901 -0.01702,-0.04312 -0.0018,-0.0061 -0.005,-0.01104 -0.0077,-0.01647 0,0 0.05821,-0.217222 0.05821,-0.217222 v 0 c 0.0027,0.0053 0.0058,0.01087 0.0076,0.01674 0.0063,0.01428 0.0118,0.02901 0.01683,0.04382 0.006,0.01831 0.01062,0.03707 0.01604,0.05556 0.0057,0.01849 0.0093,0.03733 0.01352,0.05617 0.0025,0.01376 0.0063,0.02717 0.01087,0.0404 0.0049,0.01218 0.0085,0.0248 0.01345,0.03707 0.005,0.01919 0.0097,0.03847 0.01465,0.05766 0,0 -0.05815,0.217038 -0.05815,0.217038 z"
                   inkscape:connector-curvature="0" />
              </g>
            </g>
          </g>
          <path
             inkscape:connector-curvature="0"
             id="path11810"
             d="m 30.876629,21.514809 c -0.77528,-0.787825 -1.344814,-1.713338 -1.53098,-2.487898 -0.05696,-0.237003 -0.07218,-0.367514 -0.07162,-0.614211 7.94e-4,-0.303412 0.03637,-0.496407 0.138396,-0.748633 l 0.03765,-0.09308 0.07677,-0.03005 c 0.04223,-0.01652 0.217046,-0.08759 0.388488,-0.157919 0.171439,-0.07033 0.317994,-0.127875 0.325681,-0.127875 0.02729,0 0.22647,0.104391 0.331173,0.173566 0.467395,0.308798 0.839073,0.815747 1.119788,1.527327 0.2467,0.625357 0.413618,1.396827 0.451713,2.087728 0.0044,0.07958 0.01098,0.144694 0.01463,0.144694 0.0037,0 0.105397,-0.09719 0.226071,-0.215971 0.120674,-0.118784 0.261929,-0.249951 0.313902,-0.291483 0.139483,-0.111462 0.128738,-0.105009 0.118565,-0.07123 -0.01699,0.05644 -0.161894,0.349686 -0.263224,0.532727 l -0.102065,0.184372 -0.225084,0.0067 c -0.397439,0.01179 -0.75791,0.0963 -1.106681,0.259456 l -0.113829,0.05325 z"
             style="opacity:1;fill:#999999;fill-opacity:1;fill-rule:evenodd;stroke:#999999;stroke-width:0.01181176" />
          <g
             transform="translate(-0.18898808,-0.27310003)"
             id="g11808">
            <path
               style="fill:none;stroke:#000000;stroke-width:0.26458332px;stroke-linecap:butt;stroke-linejoin:miter;stroke-opacity:1"
               d="m 29.990047,19.671298 c 1.405599,-0.507905 1.500095,0.224423 1.405599,-0.519717"
               id="path11789"
               inkscape:connector-curvature="0" />
            <path
               style="fill:none;stroke:#000000;stroke-width:0.26458332px;stroke-linecap:butt;stroke-linejoin:miter;stroke-opacity:1"
               d="m 30.242096,20.401676 c 1.45856,-0.326005 1.145172,-0.994602 1.464901,-0.316039"
               id="path11789-0"
               inkscape:connector-curvature="0" />
          </g>
        </g>
      </g>
    </g>
  </g>
</svg>
