<?xml version="1.0" encoding="UTF-8" standalone="no"?>
<!-- Created with Inkscape (http://www.inkscape.org/) -->

<svg
   xmlns:dc="http://purl.org/dc/elements/1.1/"
   xmlns:cc="http://creativecommons.org/ns#"
   xmlns:rdf="http://www.w3.org/1999/02/22-rdf-syntax-ns#"
   xmlns:svg="http://www.w3.org/2000/svg"
   xmlns="http://www.w3.org/2000/svg"
   xmlns:sodipodi="http://sodipodi.sourceforge.net/DTD/sodipodi-0.dtd"
   xmlns:inkscape="http://www.inkscape.org/namespaces/inkscape"
   width="200mm"
   height="200mm"
   viewBox="0 0 200 200"
   version="1.1"
   id="svg8"
   inkscape:version="0.92.3 (2405546, 2018-03-11)"
   sodipodi:docname="kohboh.svg">
  <defs
     id="defs2">
    <inkscape:perspective
       sodipodi:type="inkscape:persp3d"
       inkscape:vp_x="89.357512 : 208.74877 : 1"
       inkscape:vp_y="1507.7603 : 82.537357 : 0"
       inkscape:vp_z="99.649823 : -78.112919 : 1"
       inkscape:persp3d-origin="41.137412 : 69.911874 : 1"
       id="perspective236" />
  </defs>
  <sodipodi:namedview
     id="base"
     pagecolor="#ffffff"
     bordercolor="#666666"
     borderopacity="1.0"
     inkscape:pageopacity="0.0"
     inkscape:pageshadow="2"
     inkscape:zoom="0.70710678"
     inkscape:cx="375.19029"
     inkscape:cy="389.09574"
     inkscape:document-units="mm"
     inkscape:current-layer="layer1"
     showgrid="false"
     units="px"
     inkscape:window-width="1920"
     inkscape:window-height="1017"
     inkscape:window-x="-8"
     inkscape:window-y="-8"
     inkscape:window-maximized="1" />
  <metadata
     id="metadata5">
    <rdf:RDF>
      <cc:Work
         rdf:about="">
        <dc:format>image/svg+xml</dc:format>
        <dc:type
           rdf:resource="http://purl.org/dc/dcmitype/StillImage" />
        <dc:title></dc:title>
      </cc:Work>
    </rdf:RDF>
  </metadata>
  <g
     inkscape:label="Layer 1"
     inkscape:groupmode="layer"
     id="layer1"
     transform="translate(0,-97)">
    <g
       sodipodi:type="inkscape:box3d"
       id="g238"
       inkscape:perspectiveID="#perspective236"
       inkscape:corner0="0.59636887 : 0.064894223 : 0 : 1"
       inkscape:corner7="-0.0060489057 : 0.0060530447 : -0.30879465 : 1"
       style="fill:#cccccc;stroke:#999999">
      <path
         sodipodi:type="inkscape:box3dside"
         id="path240"
         style="fill:#cccccc;fill-rule:evenodd;stroke:#999999;stroke-width:1.51001775;stroke-linejoin:round"
         inkscape:box3dsidetype="6"
         d="M 120.44358,171.86643 64.868461,174.9087 56.526962,126.89439 125.43048,123.1225 Z"
         points="64.868461,174.9087 56.526962,126.89439 125.43048,123.1225 120.44358,171.86643 " />
      <path
         sodipodi:type="inkscape:box3dside"
         id="path248"
         style="fill:#cccccc;fill-rule:evenodd;stroke:#999999;stroke-width:1.51001775;stroke-linejoin:round"
         inkscape:box3dsidetype="13"
         d="M 64.868461,174.9087 50.026041,227.43041 27.66099,160.87105 56.526962,126.89439 Z"
         points="50.026041,227.43041 27.66099,160.87105 56.526962,126.89439 64.868461,174.9087 " />
      <path
         sodipodi:type="inkscape:box3dside"
         id="path244"
         style="fill:#cccccc;fill-rule:evenodd;stroke:#999999;stroke-width:1.51001775;stroke-linejoin:round"
         inkscape:box3dsidetype="3"
         d="m 120.44358,171.86643 18.84077,50.67783 -89.258309,4.88615 14.84242,-52.52171 z"
         points="139.28435,222.54426 50.026041,227.43041 64.868461,174.9087 120.44358,171.86643 " />
      <path
         sodipodi:type="inkscape:box3dside"
         id="path242"
         style="fill:#cccccc;fill-rule:evenodd;stroke:#999999;stroke-width:1.51001775;stroke-linejoin:round"
         inkscape:box3dsidetype="5"
         d="m 120.44358,171.86643 18.84077,50.67783 17.86297,-68.76151 -31.71684,-30.66025 z"
         points="139.28435,222.54426 157.14732,153.78275 125.43048,123.1225 120.44358,171.86643 " />
      <path
         sodipodi:type="inkscape:box3dside"
         id="path246"
         style="fill:#cccccc;fill-rule:evenodd;stroke:#999999;stroke-width:1.51001775;stroke-linejoin:round"
         inkscape:box3dsidetype="14"
         d="m 139.28435,222.54426 -89.258309,4.88615 -22.365051,-66.55936 129.48633,-7.0883 z"
         points="50.026041,227.43041 27.66099,160.87105 157.14732,153.78275 139.28435,222.54426 " />
      <path
         sodipodi:type="inkscape:box3dside"
         id="path250"
         style="fill:#cccccc;fill-rule:evenodd;stroke:#999999;stroke-width:1.51001775;stroke-linejoin:round"
         inkscape:box3dsidetype="11"
         d="m 125.43048,123.1225 31.71684,30.66025 -129.48633,7.0883 28.865972,-33.97666 z"
         points="157.14732,153.78275 27.66099,160.87105 56.526962,126.89439 125.43048,123.1225 " />
    </g>
    <path
       sodipodi:type="star"
       style="fill:#00ff00;stroke:#0000ff;stroke-width:0.26458332"
       id="path382"
       sodipodi:sides="4"
       sodipodi:cx="59.868374"
       sodipodi:cy="182.12756"
       sodipodi:r1="9.0471163"
       sodipodi:r2="6.3972769"
       sodipodi:arg1="0.47519907"
       sodipodi:arg2="1.2605972"
       inkscape:flatsided="true"
       inkscape:rounded="2"
       inkscape:randomized="0"
       d="M 67.913085,186.26675 C 56.205671,209.02063 78.483057,201.87968 55.729178,190.17227 32.9753,178.46486 40.11625,200.74224 51.823663,177.98836 63.531076,155.23448 41.253691,162.37543 64.00757,174.08285 c 22.753878,11.70741 15.612928,-10.56997 3.905515,12.1839 z"
       inkscape:transform-center-y="-3.8009996e-006"
       transform="matrix(0.60507353,0,0,0.61990868,23.776052,59.440328)" />
    <path
       sodipodi:type="star"
       style="fill:#ff6600;stroke:#ff00ff;stroke-width:0.14063297"
       id="path386"
       sodipodi:sides="4"
       sodipodi:cx="117.68698"
       sodipodi:cy="167.15727"
       sodipodi:r1="5.4566331"
       sodipodi:r2="3.858422"
       sodipodi:arg1="1.0412021"
       sodipodi:arg2="1.8266003"
       inkscape:flatsided="true"
       inkscape:rounded="2"
       inkscape:randomized="0"
       d="m 120.44358,171.86641 c -13.31946,7.79684 0.3311,11.36692 -7.46574,-1.95254 -7.79684,-13.31946 -11.36692,0.3311 1.95254,-7.46574 13.31946,-7.79684 -0.3311,-11.36692 7.46574,1.95254 7.79684,13.31946 11.36692,-0.3311 -1.95254,7.46574 z"
       inkscape:transform-center-x="3.7716003e-006"
       inkscape:transform-center-y="1.3300823e-005" />
    <g
       sodipodi:type="inkscape:box3d"
       id="g388"
       style="fill:#999999;stroke:#ececec"
       inkscape:perspectiveID="#perspective236"
       inkscape:corner0="0.25021125 : 0.066186042 : 0 : 1"
       inkscape:corner7="0.15744677 : 0.0092969537 : 0.25 : 1">
      <path
         sodipodi:type="inkscape:box3dside"
         id="path390"
         style="fill:#999999;fill-rule:evenodd;stroke:#ececec;stroke-width:1.51001775;stroke-linejoin:round"
         inkscape:box3dsidetype="6"
         d="m 130.60861,194.93246 -68.608492,3.75575 6.274067,29.39998 57.175355,-3.12988 z"
         points="62.000118,198.68821 68.274185,228.08819 125.44954,224.95831 130.60861,194.93246 " />
      <path
         sodipodi:type="inkscape:box3dside"
         id="path398"
         style="fill:#999999;fill-rule:evenodd;stroke:#ececec;stroke-width:1.51001775;stroke-linejoin:round"
         inkscape:box3dsidetype="13"
         d="m 62.000118,198.68821 -2.19258,8.85106 7.07705,29.76554 1.389597,-9.21662 z"
         points="59.807538,207.53927 66.884588,237.30481 68.274185,228.08819 62.000118,198.68821 " />
      <path
         sodipodi:type="inkscape:box3dside"
         id="path400"
         style="fill:#999999;fill-rule:evenodd;stroke:#ececec;stroke-width:1.51001775;stroke-linejoin:round"
         inkscape:box3dsidetype="11"
         d="m 125.44954,224.95831 2.37882,9.01033 -60.943772,3.33617 1.389597,-9.21662 z"
         points="127.82836,233.96864 66.884588,237.30481 68.274185,228.08819 125.44954,224.95831 " />
      <path
         sodipodi:type="inkscape:box3dside"
         id="path392"
         style="fill:#999999;fill-rule:evenodd;stroke:#ececec;stroke-width:1.51001775;stroke-linejoin:round"
         inkscape:box3dsidetype="5"
         d="m 130.60861,194.93246 3.3061,8.55005 -6.08635,30.48613 -2.37882,-9.01033 z"
         points="133.91471,203.48251 127.82836,233.96864 125.44954,224.95831 130.60861,194.93246 " />
      <path
         sodipodi:type="inkscape:box3dside"
         id="path396"
         style="fill:#999999;fill-rule:evenodd;stroke:#ececec;stroke-width:1.51001775;stroke-linejoin:round"
         inkscape:box3dsidetype="14"
         d="m 133.91471,203.48251 -74.107172,4.05676 7.07705,29.76554 60.943772,-3.33617 z"
         points="59.807538,207.53927 66.884588,237.30481 127.82836,233.96864 133.91471,203.48251 " />
      <path
         sodipodi:type="inkscape:box3dside"
         id="path394"
         style="fill:#999999;fill-rule:evenodd;stroke:#ececec;stroke-width:1.51001775;stroke-linejoin:round"
         inkscape:box3dsidetype="3"
         d="m 130.60861,194.93246 3.3061,8.55005 -74.107172,4.05676 2.19258,-8.85106 z"
         points="133.91471,203.48251 59.807538,207.53927 62.000118,198.68821 130.60861,194.93246 " />
    </g>
    <path
       style="fill:#000000;stroke:#000000;stroke-width:0.39952552"
       id="path410"
       d="m 51.314691,227.5846 c -0.136536,0.77663 -0.07126,1.56833 -0.03396,2.35083 -0.01374,0.60985 0.110276,1.20333 0.207577,1.80131 0.08968,0.56819 0.111757,1.1434 0.125241,1.71746 0.0092,0.56555 0.0074,1.13119 0.0066,1.69678 -8e-4,0.56493 -0.0012,1.12986 -0.0017,1.69479 -1.94e-4,0.565 -1.94e-4,1.13 -1.99e-4,1.69501 -0.0318,0.49966 -0.159246,0.98533 -0.219667,1.48217 -0.02828,0.5175 -0.0612,1.02615 -0.169264,1.53366 -0.12133,0.50587 -0.128472,1.02713 -0.186602,1.54134 -0.0728,0.57862 -0.258844,1.13147 -0.392817,1.69652 -0.148495,0.49303 -0.287782,0.98966 -0.442962,1.48096 -0.138801,0.54159 -0.298689,1.07867 -0.420584,1.62454 -0.09368,0.56571 -0.247563,1.1175 -0.336764,1.68403 -0.03768,0.50743 -0.194059,0.99257 -0.281194,1.4916 -0.124667,0.54737 -0.234953,1.09896 -0.381163,1.64124 -0.100296,0.51496 -0.270137,1.0102 -0.406582,1.51541 -0.112843,0.43393 -0.288622,0.84624 -0.471832,1.2539 -0.192336,0.45243 -0.372565,0.90897 -0.562587,1.36229 -0.167602,0.40475 -0.366473,0.7954 -0.560667,1.1878 -0.180366,0.45093 -0.421319,0.87194 -0.631239,1.3087 -0.203414,0.3808 -0.41014,0.76109 -0.589539,1.15405 -0.194089,0.37315 -0.392434,0.74511 -0.56554,1.12872 -0.200498,0.3902 -0.396393,0.7801 -0.615882,1.16049 -0.206865,0.40816 -0.515302,0.74847 -0.750347,1.13821 -0.25378,0.38395 -0.506019,0.76993 -0.745676,1.16276 -0.264354,0.49492 -0.502231,1.00337 -0.748016,1.50764 -0.231712,0.51417 -0.520392,0.99829 -0.775702,1.50024 -0.229927,0.42042 -0.490638,0.82219 -0.7371,1.23241 -0.187157,0.39062 -0.467198,0.72256 -0.679956,1.09723 -0.231969,0.33468 -0.449024,0.67707 -0.675478,1.01512 -0.222759,0.35354 -0.490866,0.68008 -0.789859,0.97168 -0.350683,0.28584 -0.707001,0.56552 -1.062697,0.84557 -0.317124,0.27194 -0.602692,0.57696 -0.913168,0.85574 -0.357467,0.2767 -0.711451,0.55745 -1.066186,0.83783 -0.295641,0.27709 -0.614354,0.52842 -0.845556,0.86404 -0.158136,0.20824 -0.08364,0.10102 -0.223558,0.32142 0,0 -3.828415,1.73296 -3.828415,1.73296 v 0 c 0.108541,-0.27785 0.04476,-0.14633 0.189253,-0.39564 0.270146,-0.31271 0.446725,-0.69452 0.822287,-0.92433 0.299811,-0.33859 0.68561,-0.60914 1.060397,-0.85701 0.322493,-0.26854 0.602097,-0.56626 0.918605,-0.8375 0.300551,-0.33755 0.686861,-0.60614 1.060812,-0.85473 0.311849,-0.26186 0.576863,-0.54663 0.834025,-0.85985 0.201234,-0.36114 0.434956,-0.69428 0.668215,-1.03172 0.262553,-0.3291 0.430094,-0.72931 0.704566,-1.05454 0.196421,-0.44612 0.514785,-0.81597 0.727562,-1.25549 0.314266,-0.45684 0.52315,-0.98696 0.801963,-1.46684 0.228352,-0.51343 0.485975,-1.01379 0.730652,-1.51901 0.190862,-0.43396 0.497993,-0.79315 0.719738,-1.21192 0.28057,-0.34571 0.47277,-0.75954 0.775966,-1.09307 0.192419,-0.39688 0.450704,-0.75288 0.606707,-1.16622 0.237701,-0.34513 0.361654,-0.76362 0.565272,-1.12986 0.244791,-0.35512 0.373553,-0.78554 0.590484,-1.1591 0.266196,-0.38829 0.429293,-0.84638 0.65113,-1.26105 0.146245,-0.41054 0.373776,-0.78732 0.571127,-1.17432 0.156046,-0.46707 0.379852,-0.90718 0.556642,-1.36636 0.140416,-0.41302 0.358869,-0.789 0.501421,-1.20271 0.107709,-0.52118 0.327351,-1.00323 0.40696,-1.53095 0.145536,-0.52958 0.249436,-1.06494 0.396646,-1.5944 0.06454,-0.50689 0.223534,-0.98749 0.288117,-1.4907 0.07231,-0.57819 0.222417,-1.13573 0.325897,-1.70664 0.102877,-0.56272 0.284327,-1.10183 0.399573,-1.66132 0.147725,-0.48583 0.265772,-0.97991 0.461809,-1.44974 0.112209,-0.56508 0.312657,-1.10341 0.40203,-1.67292 0.104297,-0.51287 0.05513,-1.04529 0.170861,-1.55888 0.104011,-0.49858 0.213997,-0.98012 0.191344,-1.49578 0.04249,-0.48862 0.11917,-0.97015 0.242929,-1.44531 0,-0.56505 -1.3e-5,-1.1301 1.26e-4,-1.69515 1.89e-4,-0.56503 4.01e-4,-1.13006 0.0012,-1.6951 7.99e-4,-0.56298 0.0029,-1.12599 -0.0029,-1.68895 -0.0086,-0.55687 -0.02129,-1.1151 -0.09783,-1.66763 -0.09234,-0.61476 -0.244333,-1.22141 -0.219994,-1.84783 -0.03073,-0.80129 -0.09037,-1.60762 -0.0095,-2.40734 0,0 3.758484,-1.85654 3.758484,-1.85654 z"
       inkscape:connector-curvature="0" />
    <path
       style="fill:#000000;stroke:#000000;stroke-width:0.39952552"
       id="path416"
       d="m 141.47842,221.888 c 0.0445,0.82602 0.16664,1.6369 0.33253,2.44573 0.0829,0.59272 0.24081,1.16976 0.35472,1.75641 0.0586,0.56864 0.19135,1.12402 0.29023,1.68608 0.0903,0.56244 0.20601,1.12377 0.34105,1.6774 0.12518,0.57543 0.31999,1.12701 0.53542,1.67353 0.20319,0.53219 0.51857,1.00508 0.79607,1.49884 0.30267,0.52235 0.58616,1.05641 0.8531,1.59793 0.27071,0.50974 0.48387,1.0443 0.758,1.55256 0.2274,0.53187 0.50709,1.03927 0.74036,1.56841 0.24737,0.56501 0.51396,1.12102 0.77281,1.68078 0.2717,0.64762 0.55455,1.29009 0.83877,1.93231 0.30388,0.67871 0.60976,1.35604 0.92221,2.03131 0.36562,0.81689 0.81271,1.59258 1.22671,2.38493 0.36491,0.68462 0.73123,1.36671 1.11106,2.04303 0.41672,0.66152 0.7578,1.36219 1.08307,2.07137 0.26622,0.66905 0.5872,1.30947 0.92995,1.94136 0.38981,0.60844 0.76947,1.22173 1.15604,1.83303 0.42709,0.67296 0.99175,1.23817 1.49802,1.84849 0.62997,0.828 1.31398,1.60767 2.0759,2.3167 0.81997,0.87105 1.80216,1.55542 2.75698,2.26607 0.82916,0.65545 1.73686,1.18121 2.65151,1.70328 0.75202,0.45704 1.50717,0.91004 2.27196,1.34526 0.60506,0.34835 1.20604,0.70196 1.79796,1.07269 0.54047,0.32693 1.12666,0.57432 1.66045,0.91064 0.2345,0.11175 0.4278,0.28431 0.64087,0.4298 0,0 -3.5408,2.25539 -3.5408,2.25539 v 0 c -0.20086,-0.14451 -0.39877,-0.29439 -0.61801,-0.41084 -0.54659,-0.3157 -1.11874,-0.58636 -1.65644,-0.91836 -0.59167,-0.36205 -1.18586,-0.7188 -1.78461,-1.0689 -0.75143,-0.45162 -1.50937,-0.89176 -2.25638,-1.35076 -0.92451,-0.53131 -1.8236,-1.09616 -2.66353,-1.75656 -0.9613,-0.72764 -1.95394,-1.42366 -2.78944,-2.3003 -0.76434,-0.72841 -1.4599,-1.52169 -2.11735,-2.34747 -0.52814,-0.6168 -1.09431,-1.20558 -1.53178,-1.89415 -0.39292,-0.619 -0.78731,-1.235 -1.17827,-1.85439 -0.34286,-0.64205 -0.67289,-1.28799 -0.93362,-1.96935 -0.32254,-0.69892 -0.65839,-1.38993 -1.0724,-2.04088 -0.376,-0.68365 -0.74808,-1.36811 -1.11261,-2.05808 -0.40461,-0.80323 -0.84989,-1.58549 -1.23488,-2.39874 -0.31682,-0.67649 -0.62927,-1.35397 -0.93655,-2.0344 -0.27761,-0.64209 -0.56023,-1.28204 -0.8389,-1.92351 -0.2571,-0.56367 -0.52997,-1.11989 -0.77891,-1.68731 -0.2226,-0.52056 -0.51131,-1.00988 -0.72665,-1.53392 -0.28014,-0.51242 -0.48279,-1.05799 -0.7608,-1.57114 -0.26099,-0.53571 -0.54567,-1.06064 -0.8463,-1.57498 -0.28615,-0.51079 -0.60576,-1.00286 -0.8202,-1.55096 -0.22055,-0.56198 -0.43686,-1.1237 -0.56142,-1.71672 -0.15372,-0.55972 -0.25581,-1.13926 -0.35936,-1.70925 -0.0901,-0.56198 -0.24353,-1.11122 -0.28708,-1.68006 -0.10329,-0.58873 -0.2776,-1.16144 -0.34344,-1.75683 -0.15515,-0.81858 -0.27407,-1.63675 -0.35718,-2.46604 0,0 3.71116,-1.94943 3.71116,-1.94943 z"
       inkscape:connector-curvature="0" />
    <path
       style="fill:#000000;stroke:#000000;stroke-width:0.39952552"
       id="path424"
       d="m 144.60809,209.54261 c 0.74626,0.26377 1.47114,0.57735 2.2493,0.73699 0.38297,0.21752 0.83809,0.20239 1.24499,0.31985 0.20419,0.0589 0.39449,0.15869 0.5949,0.22945 0.1824,0.10147 0.41325,0.024 0.6014,0.0758 0.25785,0.071 0.47685,0.20056 0.74235,0.25519 0.2127,0.17633 0.5016,0.16759 0.74114,0.26421 0.25682,0.10359 0.45071,0.24191 0.7213,0.3096 0.64765,0.32508 1.20373,0.7691 1.74008,1.25315 0.50255,0.41752 0.99622,0.84347 1.53741,1.21128 0.59995,0.39228 1.07702,0.9247 1.59461,1.4102 0.3848,0.42563 0.799,0.80615 1.11817,1.2854 0.26984,0.34376 0.45492,0.74443 0.67928,1.11873 0.24336,0.39381 0.46145,0.81899 0.74586,1.18573 0.33387,0.43645 0.55685,0.94583 0.86737,1.39572 0.31994,0.4494 0.54139,0.96255 0.85124,1.41667 0.28997,0.45053 0.48282,0.95883 0.79975,1.39245 0.26915,0.45184 0.55471,0.89426 0.81156,1.35382 0.27697,0.40028 0.52501,0.82692 0.73749,1.26536 0.21073,0.37943 0.41354,0.76623 0.59195,1.16242 0.2323,0.36651 0.35228,0.78502 0.51882,1.18211 0.14587,0.43326 0.29497,0.86444 0.45216,1.29407 0.20685,0.56428 0.41387,1.12898 0.57112,1.70939 0.14617,0.55683 0.3229,1.10455 0.48815,1.65576 0.18165,0.41946 0.30328,0.86011 0.47215,1.28409 0.15704,0.42113 0.34892,0.82853 0.52243,1.24368 0.18249,0.4531 0.35413,0.9082 0.52283,1.36657 0.15422,0.36378 0.27107,0.75134 0.46657,1.09648 0.14405,0.35792 0.34028,0.6734 0.55233,0.98926 0.30189,0.41157 0.62844,0.81671 1.02567,1.13936 0.40471,0.3343 0.74682,0.75522 1.16775,1.06764 0.31332,0.26659 0.55237,0.63706 0.8886,0.8741 0.25083,0.0394 0.769,0.5369 0.96244,0.73265 0.37313,0.2641 0.70135,0.58226 1.08095,0.83619 0.41581,0.25966 0.78335,0.6023 1.22739,0.81791 0.14889,0.21536 0.38353,0.24277 0.5837,0.35523 0.21193,0.11914 0.30742,0.24304 0.54529,0.28698 0.13892,0.20441 0.36784,0.18308 0.55042,0.27528 0.21874,0.11038 0.31973,0.23582 0.55981,0.2782 0.14254,0.2046 0.37797,0.18672 0.56404,0.28108 0.21994,0.11159 0.32382,0.23817 0.56512,0.28225 0.44885,0.22613 0.8868,0.45903 1.38988,0.53181 0.2376,0.11794 0.47729,0.23797 0.74174,0.28079 0.12427,0.0201 0.25561,-0.009 0.37703,0.0236 0.10978,0.0302 0.20964,0.0889 0.31445,0.13348 0.31284,0.19478 0.68248,0.0772 1.01464,0.14376 0.11612,0.0232 0.22558,0.0722 0.33836,0.10827 0.50126,0.15243 1.02535,0.16309 1.5445,0.17036 0.55718,0.19074 1.13521,0.25616 1.71968,0.2771 0.437,0.0636 0.90337,-0.0681 1.33742,0.003 0.12533,0.0204 0.24384,0.0704 0.36576,0.1057 0.45758,0.16373 0.93834,0.17216 1.41766,0.17793 0.34775,0.002 0.6955,-8e-5 1.04323,-0.002 0,0 -2.11578,3.61756 -2.11578,3.61756 v 0 c -0.38522,-0.0106 -0.77081,-0.0211 -1.15425,-0.0627 -0.5177,-0.0631 -1.02294,-0.18853 -1.53859,-0.25413 -0.51427,0.13772 -1.09845,-0.0545 -1.62061,-0.0604 -0.55789,-0.0806 -1.11172,-0.24214 -1.67455,-0.24824 -0.60087,-0.0698 -1.1899,-0.19188 -1.77947,-0.32522 -0.52274,1.9e-4 -1.00818,-0.21878 -1.50388,-0.35881 -0.50023,-0.002 -0.92726,-0.34439 -1.41036,-0.43065 -0.53921,-0.20594 -1.05393,-0.46559 -1.58837,-0.68209 -0.36991,-0.20106 -0.74408,-0.40057 -1.12904,-0.56318 -0.3839,-0.20926 -0.76948,-0.40932 -1.16068,-0.60071 -0.43892,-0.26005 -0.87293,-0.52339 -1.29396,-0.81122 -0.46195,-0.31625 -0.92205,-0.63445 -1.37057,-0.9695 -0.40852,-0.33159 -0.838,-0.63854 -1.22644,-0.99434 -0.33249,-0.21988 -0.64567,-0.47644 -0.95668,-0.72538 -0.28132,-0.28652 -0.56821,-0.56772 -0.85925,-0.84432 -0.38833,-0.37499 -0.78994,-0.73593 -1.17802,-1.11121 -0.48066,-0.47339 -0.94182,-0.97037 -1.32797,-1.52542 -0.25681,-0.37521 -0.48815,-0.76165 -0.66435,-1.181 -0.21929,-0.41855 -0.40439,-0.85586 -0.56825,-1.29875 -0.18383,-0.44449 -0.3107,-0.91305 -0.51117,-1.35194 -0.17141,-0.42538 -0.38017,-0.83565 -0.53771,-1.26492 -0.19536,-0.49322 -0.33745,-0.99883 -0.55096,-1.48612 -0.15085,-0.58282 -0.35872,-1.14908 -0.51993,-1.72924 -0.0968,-0.49408 -0.29446,-0.95389 -0.45481,-1.42899 -0.17353,-0.41208 -0.32965,-0.8356 -0.44387,-1.26677 -0.16429,-0.39719 -0.2846,-0.80392 -0.51365,-1.1715 -0.13968,-0.38842 -0.38012,-0.73822 -0.56256,-1.10718 -0.15876,-0.40275 -0.43656,-0.75537 -0.65616,-1.12547 -0.22424,-0.4073 -0.48456,-0.795 -0.71439,-1.19861 -0.30146,-0.4636 -0.56224,-0.94962 -0.82633,-1.43418 -0.28901,-0.46461 -0.54188,-0.95083 -0.84559,-1.40684 -0.27703,-0.4401 -0.51934,-0.9015 -0.82585,-1.32317 -0.28954,-0.42705 -0.56809,-0.86458 -0.82693,-1.31053 -0.21407,-0.34995 -0.38869,-0.72103 -0.63828,-1.04705 -0.2243,-0.35044 -0.60218,-0.59666 -0.85041,-0.92983 -0.43445,-0.43945 -0.89987,-0.8395 -1.41131,-1.18869 -0.55259,-0.4348 -1.10376,-0.86828 -1.62854,-1.33697 -0.36417,-0.29373 -0.77302,-0.57728 -1.22826,-0.70226 -0.43125,-0.19196 -0.8776,-0.35507 -1.33542,-0.46874 -0.47043,-0.15812 -0.96315,-0.19528 -1.42378,-0.40025 -0.57143,-0.17915 -1.16724,-0.29438 -1.73561,-0.49334 -0.83702,-0.27574 -1.66051,-0.59295 -2.48448,-0.90492 0,0 2.78483,-3.1367 2.78483,-3.1367 z"
       inkscape:connector-curvature="0" />
    <path
       style="fill:#000000;stroke:#000000;stroke-width:0.39952552"
       id="path430"
       d="m 169.00831,264.7984 c 0.62715,0.42087 1.27111,0.81544 1.91266,1.21514 0.55105,0.31745 1.02782,0.75798 1.59234,1.05141 0.50323,0.27425 0.99009,0.57409 1.49133,0.85097 0.51008,0.31377 1.02157,0.62488 1.52422,0.9527 0.5617,0.2598 1.12006,0.55274 1.65811,0.86444 0.47887,0.21539 0.97446,0.39321 1.44356,0.62823 0.48177,0.16578 0.98047,0.33175 1.41596,0.59846 0.13258,0.15101 0.33592,0.0743 0.4905,0.13168 0.23641,0.0879 0.39143,0.21475 0.64149,0.26321 0.26679,-0.0291 0.76378,0.083 1.00022,0.006 0.0457,-0.0151 0.0643,-0.0717 0.0966,-0.10767 0.19449,-0.11853 0.41847,-0.13152 0.63845,-0.15865 0,0 -1.78084,3.80043 -1.78084,3.80043 v 0 c -0.25272,0.0581 -0.50322,0.11732 -0.76563,0.0968 -0.62785,-0.0951 -1.27172,-0.13137 -1.8602,-0.39539 -0.44882,-0.19637 -0.91569,-0.32676 -1.34117,-0.57984 -0.46504,-0.10223 -0.892,-0.39948 -1.34588,-0.54228 -0.53796,-0.2052 -1.04511,-0.4939 -1.55992,-0.74936 -0.59048,-0.3029 -1.1704,-0.628 -1.74718,-0.95554 -0.49526,-0.30068 -0.98401,-0.61117 -1.48582,-0.90101 -0.49812,-0.30938 -1.03413,-0.55537 -1.52075,-0.88533 -0.52327,-0.35967 -1.03959,-0.72935 -1.58183,-1.06057 -0.66585,-0.40766 -1.30399,-0.85831 -1.97779,-1.25323 0,0 3.0616,-2.87051 3.0616,-2.87051 z"
       inkscape:connector-curvature="0" />
    <path
       style="fill:#000000;stroke:#000000;stroke-width:0.39952552"
       id="path432"
       d="m 140.06504,220.7479 c 0.39766,0.52002 0.70728,1.09277 0.98708,1.68191 0,0 -3.70398,1.91148 -3.70398,1.91148 v 0 c -0.18617,-0.43029 -0.40219,-0.84511 -0.72224,-1.19397 0,0 3.43914,-2.39942 3.43914,-2.39942 z"
       inkscape:connector-curvature="0" />
    <path
       style="fill:#000000;stroke:#000000;stroke-width:0.39952552"
       id="path448"
       d="m 46.065637,218.26652 c -0.595581,0.54874 -1.112343,1.16442 -1.721423,1.70167 -0.203895,0.36237 -0.608569,0.53725 -0.876871,0.8417 -0.49174,0.55798 0.380771,-0.2455 -0.366656,0.40736 -0.25648,0.41308 0.07745,-0.082 -0.351455,0.37646 -0.04098,0.0438 -0.04843,0.11265 -0.09016,0.15571 -0.06919,0.0714 -0.167509,0.11008 -0.236659,0.18163 -0.03619,0.0375 -0.04852,0.0921 -0.07277,0.13816 -0.07808,0.0569 -0.15616,0.11401 -0.234239,0.17095 -0.02041,0.0426 -0.04086,0.0852 -0.06129,0.12775 -0.04133,0.0538 -0.09365,0.10072 -0.123973,0.16139 -0.02362,0.0473 -0.0044,0.11099 -0.03404,0.15473 -0.05596,0.0824 -0.152063,0.13092 -0.213195,0.20964 -0.08956,0.11536 -0.144674,0.25457 -0.232017,0.37161 -0.09981,0.33289 -0.403001,0.57721 -0.625205,0.82839 -0.407664,0.46079 0.391007,-0.21804 -0.342638,0.35958 -0.222087,0.44911 -0.650426,0.73232 -0.803761,1.21474 -0.06976,0.0817 -0.139511,0.16334 -0.209275,0.245 -0.03165,0.0661 -0.04972,0.14059 -0.09493,0.19824 -0.06741,0.0859 -0.167273,0.14209 -0.237566,0.22576 -0.130345,0.15508 -0.24777,0.356 -0.31175,0.54732 -0.14019,0.14255 -0.255831,0.21477 -0.313627,0.40436 -0.01578,0.0518 0.01329,0.1143 -0.01253,0.16182 -0.04707,0.0868 -0.140281,0.14089 -0.19572,0.22269 -0.03481,0.0513 -0.04772,0.11446 -0.07156,0.17176 -0.05237,0.0711 -0.104734,0.14225 -0.157105,0.21326 -0.118823,0.10359 -0.02501,0.26217 -0.07953,0.37927 -0.04441,0.0954 -0.135147,0.16237 -0.189574,0.25243 -0.114777,0.18992 -0.25505,0.4433 -0.331763,0.65019 -0.287239,0.51922 -0.599483,1.01289 -0.989604,1.46881 -0.03911,0.0758 -0.06596,0.15924 -0.117373,0.22725 -0.071,0.0939 -0.172292,0.16171 -0.246008,0.25355 -0.241342,0.30066 -0.32644,0.58054 -0.603184,0.87397 -0.250933,0.44275 -0.521716,0.84907 -0.828292,1.25615 -0.02437,0.066 -0.03352,0.13983 -0.07313,0.19793 -0.06178,0.0906 -0.159139,0.15221 -0.225296,0.23964 -0.09802,0.12956 -0.18432,0.26799 -0.265054,0.40896 -0.03503,0.0612 -0.03384,0.13998 -0.07358,0.19819 -0.06191,0.0906 -0.150413,0.15991 -0.225624,0.23988 -0.08995,0.22599 -0.280623,0.36609 -0.339249,0.60754 -0.01534,0.0633 0.0063,0.1353 -0.02153,0.19412 -0.2326,0.30904 -0.148556,0.15446 -0.272967,0.45179 -0.08272,0.1131 0.03592,0.24893 -0.0051,0.36268 -0.035,0.0971 -0.122312,0.16714 -0.17127,0.25805 -0.190729,0.35416 0.02285,0.23651 -0.294351,0.63801 -0.186737,0.13409 -0.02816,0.37661 -0.08716,0.52959 -0.125105,0.32455 -0.234392,0.22498 -0.275048,0.6338 -0.174714,0.1131 -0.129061,0.32727 -0.217426,0.47857 -0.05939,0.10163 -0.156023,0.1772 -0.222089,0.27466 -0.161555,0.092 -0.07387,0.27667 -0.142561,0.40067 -0.05187,0.0936 -0.137441,0.16415 -0.206174,0.24622 -0.157239,0.0811 -0.0427,0.24589 -0.100583,0.35407 -0.04867,0.0909 -0.143361,0.14979 -0.20113,0.23517 -0.03604,0.0533 -0.03688,0.12684 -0.07736,0.17673 -0.464593,0.57298 -0.09936,-0.0412 -0.335633,0.38178 2.95e-4,0.0462 0.02393,0.0986 7.99e-4,0.13862 -0.04867,0.0844 -0.145173,0.13228 -0.20236,0.21118 -0.03333,0.0461 -0.03524,0.10902 -0.06473,0.15754 -0.0442,0.0728 -0.113327,0.1288 -0.154486,0.20332 -0.03084,0.0559 -0.03903,0.12156 -0.05853,0.18235 -0.05211,0.0788 -0.104206,0.15765 -0.156318,0.23647 -0.03831,0.29187 -0.314311,0.423 -0.410221,0.69079 -0.02146,0.0598 -0.0029,0.13197 -0.03348,0.18784 -0.244238,0.29224 -0.15822,0.14497 -0.283679,0.42589 -0.0036,0.0553 0.01495,0.11672 -0.01072,0.16592 -0.04702,0.0901 -0.14084,0.14828 -0.197215,0.23289 -0.176702,0.26542 -0.290557,0.56367 -0.468291,0.83163 -0.02697,0.0746 -0.03879,0.15644 -0.08095,0.22354 -0.06167,0.0982 -0.158775,0.16992 -0.225711,0.26457 -0.228826,0.32357 -0.323433,0.60808 -0.600927,0.90905 -0.06019,0.27012 -0.367603,0.33286 -0.453638,0.58747 -0.0157,0.0464 0.01758,0.10434 -0.0068,0.14677 -0.452527,0.78689 -0.03333,-0.19979 -0.261153,0.36691 -0.397216,0.33229 -0.618895,0.8187 -0.985418,1.17894 -0.235429,0.41064 0.05431,-0.0467 -0.355791,0.40496 -0.04316,0.0476 -0.05409,0.11914 -0.09859,0.16545 -0.07224,0.075 -0.173393,0.11809 -0.246046,0.19285 -0.456634,0.46946 0.549115,-0.31791 -0.32301,0.32095 -0.06541,0.20363 -0.257869,0.32112 -0.371997,0.48965 -0.03816,0.0563 -0.04103,0.13273 -0.08225,0.18682 -0.486723,0.63909 -0.04616,-0.10615 -0.336536,0.41221 -0.08121,0.0707 -0.162416,0.14134 -0.243619,0.21197 -0.03192,0.0547 -0.05204,0.11809 -0.09573,0.16384 -0.07151,0.0749 -0.172208,0.11748 -0.244162,0.1918 -0.214542,0.22183 0.09358,0.10842 -0.25511,0.46594 -0.108933,0.30876 0.0316,-0.0106 -0.285365,0.3473 -0.0354,0.04 -0.04699,0.0959 -0.07049,0.14375 -0.08156,0.0624 -0.172954,0.11356 -0.244666,0.18702 -0.03512,0.0359 -0.04595,0.0894 -0.06893,0.13424 -0.08088,0.0583 -0.161763,0.11657 -0.242643,0.17496 -0.1822,0.42358 -0.672889,0.57605 -0.901438,0.95811 -0.278461,0.23455 -0.635409,0.34954 -0.91582,0.57352 -0.03064,0.0245 -0.03484,0.0702 -0.05225,0.1054 -0.07239,0.0448 -0.14478,0.0895 -0.217169,0.13424 -0.102379,0.0424 -0.211242,0.0719 -0.307119,0.12745 -0.03695,0.0214 -0.04717,0.074 -0.08224,0.0983 -0.274032,0.19089 -0.207882,0.0578 -0.530299,0.22487 -0.03527,0.0183 -0.05217,0.0599 -0.07825,0.09 -0.07266,0.0353 -0.145309,0.0705 -0.217973,0.10585 -0.09765,0.0328 -0.20103,0.0518 -0.292945,0.0983 -0.03367,0.0171 -0.04137,0.0658 -0.07284,0.0867 -0.265048,0.17555 -0.186441,0.0387 -0.499834,0.19734 -0.03299,0.0168 -0.04686,0.0572 -0.07029,0.0859 -0.06985,0.0337 -0.139722,0.0674 -0.209587,0.10102 -0.149552,0.0445 -0.436838,0.17608 -0.565037,0.28192 -0.0243,0.0201 -0.0012,0.0696 -0.02401,0.0914 -0.106305,0.10192 -0.370144,0.19006 -0.48746,0.23745 -0.285984,0.0183 -0.395947,0.18197 -0.644135,0.26961 -0.09367,0.0331 -0.195641,0.0429 -0.285558,0.0852 -0.03256,0.0153 -0.04686,0.0545 -0.07029,0.0818 -0.06815,0.0316 -0.136279,0.0633 -0.204434,0.095 -0.290734,0.12201 -0.630148,0.12941 -0.888284,0.31895 -0.02325,0.0171 -0.01404,0.0559 -0.02117,0.084 -0.06125,0.0353 -0.122478,0.0707 -0.183723,0.10585 0.0065,0.17903 -0.189803,0.15428 -0.228356,0.32874 0,0 -1.21841,-4.02375 -1.21841,-4.02375 v 0 c 0.236999,-0.15222 0.434745,-0.33083 0.697269,-0.4407 0.395418,-0.23906 0.853618,-0.31201 1.254218,-0.53392 0.367639,-0.19102 0.781076,-0.30729 1.13291,-0.52122 0.300012,-0.30659 0.733267,-0.39629 1.089874,-0.61276 0.358662,-0.20835 0.757065,-0.34646 1.10957,-0.56365 0.307209,-0.19636 0.682315,-0.33332 0.939222,-0.59195 0.268401,-0.25939 0.662756,-0.36605 0.83436,-0.7113 0.362042,-0.29499 0.604734,-0.67297 0.955358,-0.97974 0.09857,-0.25834 -0.04995,0.085 0.225787,-0.2812 0.02197,-0.0291 0.0062,-0.0763 0.02677,-0.1063 0.04682,-0.0687 0.124652,-0.11265 0.170126,-0.18216 0.02126,-0.0325 0.0157,-0.0759 0.02357,-0.114 0.05827,-0.0663 0.116559,-0.13273 0.174836,-0.19901 0.176243,-0.40878 0.684588,-0.60462 0.853199,-1.03062 0.365497,-0.39638 0.658853,-0.86516 1.091037,-1.20167 0.141579,-0.27102 -0.05347,0.0704 0.260235,-0.29889 0.03073,-0.0362 0.03447,-0.09 0.06398,-0.1273 0.155663,-0.19654 0.313496,-0.36728 0.465707,-0.56914 0.13711,-0.25389 0.379738,-0.56204 0.565389,-0.79513 0.05089,-0.0639 0.121299,-0.11234 0.164045,-0.18197 0.02017,-0.0328 0.01193,-0.0761 0.01786,-0.11416 0.05389,-0.0667 0.107785,-0.13333 0.161672,-0.20006 0.01602,-0.0471 0.0193,-0.10087 0.04811,-0.14149 0.02804,-0.0396 0.349505,-0.36569 0.392421,-0.43127 0.0268,-0.0409 0.02126,-0.0973 0.04606,-0.13953 0.04642,-0.079 0.110035,-0.14662 0.165057,-0.21993 0.11754,-0.31919 0.360535,-0.56812 0.513822,-0.87036 0.02872,-0.0566 0.02713,-0.12548 0.05552,-0.18229 0.04732,-0.0947 0.113191,-0.17877 0.169779,-0.26815 0.136294,-0.29053 0.344294,-0.54782 0.469162,-0.8415 0.01857,-0.0438 -0.0036,-0.0989 0.01777,-0.14149 0.04559,-0.0912 0.118295,-0.1661 0.177438,-0.24917 0.04717,-0.0705 0.09433,-0.14104 0.141504,-0.21154 0.01419,-0.0538 0.01582,-0.11265 0.0426,-0.16145 0.191655,-0.34936 0.173526,-0.16172 0.34517,-0.49057 0.02969,-0.0569 0.02969,-0.12624 0.05942,-0.18315 0.04967,-0.095 0.117827,-0.17912 0.176746,-0.26867 0.151796,-0.29564 0.37885,-0.54443 0.532719,-0.83481 0.02037,-0.0385 3.93e-4,-0.0915 0.0233,-0.12835 0.05335,-0.0861 0.132474,-0.15331 0.198722,-0.22998 0.249627,-0.31749 0.257968,-0.75639 0.558372,-1.07383 0.02869,-0.24882 0.215992,-0.38359 0.290051,-0.61539 0.01602,-0.0501 -0.0097,-0.10737 0.0048,-0.15794 0.230998,-0.80517 0.03012,0.19347 0.14845,-0.44494 0.0328,-0.063 0.192435,-0.3539 0.211085,-0.4436 0.0097,-0.0465 -0.02804,-0.0968 -0.01374,-0.14209 0.07959,-0.25302 0.299708,-0.44568 0.381547,-0.69879 -0.02765,-0.23839 0.148087,-0.36722 0.207398,-0.58959 0.01374,-0.0515 -0.01344,-0.10977 0.0053,-0.1597 0.04246,-0.11325 0.262771,-0.43781 0.329948,-0.54036 0.04698,-0.0755 0.09397,-0.15115 0.14096,-0.22672 0.01869,-0.0609 0.02493,-0.127 0.05604,-0.18258 0.19216,-0.34303 0.49552,-0.62595 0.701187,-0.96075 0.128487,-0.31947 0.385326,-0.55677 0.564587,-0.84716 0.03212,-0.0521 0.03612,-0.11839 0.06869,-0.17009 0.057,-0.0906 0.131734,-0.1687 0.197601,-0.25304 0.278026,-0.44275 0.569081,-0.86986 0.893603,-1.28245 0.231181,-0.48822 0.670696,-0.86331 0.9323,-1.33578 0.246536,-0.44904 0.491929,-0.88326 0.706993,-1.34664 0.284171,-0.44986 0.416561,-0.95765 0.769942,-1.36502 0.136687,-0.26592 0.05546,-0.13243 0.249508,-0.39689 0.02581,-0.0465 0.01862,-0.10767 0.04731,-0.15247 0.139133,-0.2172 0.385127,-0.36281 0.45466,-0.623 0.324782,-0.38095 0.61135,-0.77621 0.855811,-1.20957 0.393366,-0.45468 0.732019,-0.94832 1.16375,-1.36787 0.108978,-0.28687 -0.04891,0.0846 0.221829,-0.31429 0.0276,-0.0406 0.02362,-0.0973 0.04974,-0.13877 0.139631,-0.22255 0.29103,-0.42976 0.452158,-0.6383 0.297866,-0.4282 0.621542,-0.83689 1.034672,-1.16291 0.154345,-0.25859 -0.0406,0.0397 0.284534,-0.29973 0.219823,-0.22943 0.411519,-0.49632 0.664363,-0.69909 0.389849,-0.45128 0.886451,-0.81305 1.289692,-1.25347 0.513714,-0.52397 1.023761,-1.06021 1.479307,-1.63439 0,0 1.440921,3.93811 1.440921,3.93811 z"
       inkscape:connector-curvature="0" />
    <path
       style="fill:#000000;stroke:#000000;stroke-width:0.39952552"
       id="path450"
       d="m 143.49976,208.99426 c 0.53906,0.47662 1.10451,0.91096 1.73972,1.24865 0.46231,0.2575 0.98837,0.33007 1.48936,0.47928 0.51587,0.11461 1.01601,0.26759 1.47986,0.52513 0.30089,0.13998 0.5638,0.35457 0.88829,0.43371 0.47068,0.16006 0.95119,0.28351 1.42639,0.42885 0.53779,0.1134 1.021,0.3758 1.52166,0.5885 0.47298,0.16337 0.94859,0.32889 1.4019,0.54206 0.60192,0.24861 1.02794,0.70234 1.45242,1.17351 0.23745,0.41515 0.68274,0.68384 0.9018,1.10639 0.23747,0.37409 0.5095,0.69463 0.80976,1.02604 0.22241,0.39826 0.56868,0.73546 0.67772,1.19469 0.1919,0.35785 0.46263,0.68891 0.577,1.08523 0.0136,0.0488 0.002,0.10162 0.003,0.15241 0.0245,0.0711 0.0491,0.14224 0.0735,0.21338 0.0344,0.0847 0.0814,0.16539 0.10329,0.25418 0.009,0.0368 -0.0211,0.0763 -0.0121,0.1131 0.0707,0.29993 0.34531,0.52175 0.33282,0.84147 0.23366,0.42229 0.30046,0.87158 0.49447,1.30275 0.0371,0.0917 0.0874,0.17918 0.11114,0.27522 0.0106,0.0406 -0.0196,0.084 -0.0121,0.12518 0.0328,0.17205 0.1368,0.27892 0.18414,0.44808 0.009,0.0349 -0.008,0.072 -0.0106,0.10812 0.0307,0.0645 0.0613,0.12896 0.092,0.19354 0.0447,0.0824 0.10072,0.15958 0.13409,0.24719 0.0136,0.0338 -0.0106,0.0746 0.001,0.10872 0.0251,0.0696 0.23961,0.40624 0.25697,0.44623 0.0151,0.0341 0.006,0.0741 0.009,0.11113 0.0385,0.0661 0.077,0.13213 0.11552,0.19828 0.25558,0.4435 0.46116,0.90275 0.71564,1.34714 0.12654,0.38369 0.32727,0.77969 0.55773,1.11535 0.29914,0.44911 0.54469,0.92781 0.80012,1.40666 0.19039,0.58154 0.48174,1.1272 0.74101,1.68103 0.27478,0.57775 0.62804,1.1238 0.8674,1.71748 0.13138,0.31997 0.37322,0.55889 0.55729,0.84544 0.0252,0.0393 0.034,0.0867 0.0509,0.13017 0.0504,0.069 0.10087,0.13801 0.15136,0.20709 0.17909,0.42832 0.58006,0.75483 0.72996,1.19129 0.12231,0.28536 0.34507,0.49009 0.51126,0.75143 0.022,0.0347 0.0251,0.0784 0.0376,0.11763 0.0489,0.0678 0.0978,0.1356 0.14678,0.20334 0.1853,0.40915 0.58994,0.71073 0.74638,1.14678 0.28423,0.33631 0.34702,0.77822 0.59549,1.11883 0.13364,0.18732 0.2492,0.3622 0.35813,0.56298 0.0136,0.0263 -4e-4,0.0628 0.0153,0.0882 0.22537,0.3663 0.10873,0.0521 0.18219,0.27109 0.25943,0.21319 0.41235,0.49961 0.61518,0.75558 0,0 -2.32568,3.50143 -2.32568,3.50143 v 0 c -0.21088,-0.49601 0.1907,0.40689 -0.24593,-0.34541 -0.0169,-0.029 0.0183,-0.0683 0.009,-0.10042 -0.0136,-0.0474 -0.0515,-0.0846 -0.0772,-0.12684 -0.26129,-0.22795 -0.76493,-0.76146 -0.83243,-1.09028 -0.28459,-0.48461 0.19459,0.30484 -0.3269,-0.40965 -0.039,-0.0533 -0.0467,-0.12428 -0.0812,-0.18065 -0.17098,-0.27923 -0.1973,-0.30179 -0.28944,-0.6035 -0.27854,-0.3864 -0.091,-0.29153 -0.25498,-0.56295 -0.12276,-0.20345 -0.2905,-0.39477 -0.46126,-0.55678 -0.25619,-0.56983 0.23376,0.48236 -0.25903,-0.37432 -0.0202,-0.0352 0.006,-0.0832 -0.008,-0.12155 -0.0803,-0.2286 -0.34971,-0.31344 -0.3981,-0.55874 -0.0636,-0.0802 -0.14134,-0.151 -0.19081,-0.24057 -0.27972,-0.50622 0.32077,0.27669 -0.12201,-0.32797 -0.0649,-0.0886 -0.15494,-0.15773 -0.21574,-0.24927 -0.034,-0.0512 -0.043,-0.11521 -0.0645,-0.17276 -0.0506,-0.0696 -0.10102,-0.13922 -0.15161,-0.20875 -0.25851,-0.55011 0.21172,0.41532 -0.2678,-0.386 -0.0254,-0.0424 -0.0106,-0.10012 -0.03,-0.14526 -0.11733,-0.26293 -0.40272,-0.399 -0.48479,-0.68368 -0.39326,-0.547 -0.6351,-1.19104 -0.94752,-1.78676 -0.34604,-0.59608 -0.6264,-1.22453 -0.95222,-1.83026 -0.0566,-0.44549 0.0329,0.0578 -0.15567,-0.43617 -0.11702,-0.30644 0.13168,0.0282 -0.0951,-0.31581 -0.0572,-0.0867 -0.14254,-0.15367 -0.19327,-0.24432 -0.026,-0.0465 -0.0207,-0.10464 -0.031,-0.15698 -0.36105,-0.65071 0.26721,0.45354 -0.32399,-0.44882 -0.0377,-0.0575 -0.043,-0.13167 -0.0769,-0.19162 -0.13273,-0.23457 -0.2881,-0.45858 -0.43845,-0.68232 -0.046,-0.27985 -0.18008,-0.38326 -0.30049,-0.63576 -0.0948,-0.19879 -0.0367,-0.44052 -0.26391,-0.58977 -0.12367,-0.26801 -0.0411,-0.12171 -0.27225,-0.42422 -0.0233,-0.0441 -0.003,-0.10087 -0.018,-0.14844 -0.0701,-0.2257 -0.31291,-0.34816 -0.30263,-0.59656 -0.13575,-0.29251 -0.0485,-0.13334 -0.28057,-0.46664 -0.0263,-0.0539 -0.0121,-0.1202 -0.0287,-0.17779 -0.0692,-0.23815 -0.29437,-0.40843 -0.25243,-0.6685 -0.0432,-0.27414 -0.1825,-0.4098 -0.27616,-0.66477 -0.0596,-0.16222 0.0525,-0.39854 -0.10615,-0.54264 -0.25263,-0.4134 -0.0812,-0.25284 -0.19556,-0.60538 -0.11114,-0.34249 -0.0914,-0.0754 -0.27803,-0.48229 -0.0266,-0.058 -0.0196,-0.12623 -0.0294,-0.18925 -0.0622,-0.17379 -0.17459,-0.32797 -0.22743,-0.50481 -0.0685,-0.22925 0.0983,-0.51258 -0.12593,-0.71643 -0.15351,-0.20545 -0.29763,-0.43852 -0.38178,-0.68364 -0.0136,-0.0375 0.0136,-0.0799 0.006,-0.11884 -0.0313,-0.15348 -0.14149,-0.23082 -0.24402,-0.34489 0.0243,-0.23232 -0.15109,-0.26711 -0.30076,-0.43181 -0.0355,-0.0391 -0.043,-0.098 -0.077,-0.13831 -0.3104,-0.36828 -0.15869,-0.0672 -0.28677,-0.36366 -0.0616,-0.0702 -0.13771,-0.13001 -0.18484,-0.21066 -0.20899,-0.35758 0.30458,0.18072 -0.10223,-0.26543 -0.19343,-0.21212 -0.3869,-0.40155 -0.57751,-0.61818 -0.15141,-0.26337 -0.0548,-0.12805 -0.30766,-0.39262 -0.0461,-0.0722 0.0498,-0.11355 -0.0205,-0.17807 -0.0541,-0.0495 -0.13047,-0.0696 -0.18656,-0.11688 -0.018,-0.0151 -0.0192,-0.0427 -0.0287,-0.064 -0.41169,-0.19274 -0.82551,-0.38648 -1.26728,-0.50989 -0.46018,-0.17084 -0.87897,-0.43374 -1.35762,-0.54586 -0.43396,-0.1282 -0.88087,-0.21999 -1.29849,-0.39551 -0.32115,-0.0735 -0.63046,-0.15252 -0.93005,-0.29379 -0.071,-0.0335 -0.13771,-0.0754 -0.20662,-0.1131 -0.0208,-0.023 -0.0355,-0.0538 -0.0625,-0.0689 -0.0843,-0.047 -0.17723,-0.0764 -0.26584,-0.11461 -0.0574,-0.0329 -0.11461,-0.0658 -0.17195,-0.0988 -0.006,-0.0171 -0.002,-0.0421 -0.0175,-0.0512 -0.25957,-0.1507 -0.57431,-0.15289 -0.85197,-0.25179 -0.62391,-0.19641 -1.27799,-0.29957 -1.86428,-0.60662 -0.38324,-0.20115 -0.77099,-0.38483 -1.12876,-0.63093 -0.85133,-0.58563 0.0784,0.0288 -0.65112,-0.51958 -0.11868,-0.0892 -0.24723,-0.16479 -0.37086,-0.24719 0,0 1.76577,-3.80356 1.76577,-3.80356 z"
       inkscape:connector-curvature="0" />
    <path
       style="fill:#000000;stroke:#000000;stroke-width:0.39952552"
       id="path452"
       d="m 140.58933,220.19083 c 0.38669,0.62051 0.87402,1.1742 1.32991,1.74523 0.26875,0.50044 0.79316,0.97307 0.89098,1.5473 0.27798,0.51694 0.46334,1.05652 0.56383,1.63339 0.0273,0.59645 0.0657,1.16227 0.1621,1.75663 0.002,0.45568 0.10857,0.90837 0.30078,1.31808 -0.024,0.21463 0.16536,0.37045 0.24308,0.55507 0.0136,0.034 -0.006,0.076 0.008,0.11023 0.12639,0.31876 0.11688,0.0856 0.1128,0.27898 0.18164,0.30597 0.63671,0.77835 0.704,1.11451 0.13409,0.2542 0.57018,0.88792 0.59705,1.14129 0.25694,0.31849 0.30312,0.72018 0.53705,1.0332 0.33019,0.42511 0.53921,0.91523 0.76508,1.40575 0.0349,0.0975 0.0835,0.19118 0.10449,0.29258 0.009,0.0452 -0.021,0.0918 -0.0151,0.13756 0.043,0.33518 0.23486,0.68378 0.32766,1.00969 -0.0776,0.29767 0.1507,0.56417 0.20169,0.84834 0.008,0.0408 -0.0136,0.0818 -0.0205,0.12261 0.0214,0.0655 0.0427,0.13107 0.0642,0.19668 0.0344,0.0817 0.0815,0.15924 0.10329,0.2452 0.009,0.0346 -0.0228,0.0716 -0.0136,0.10616 0.0758,0.30099 0.35706,0.51695 0.35047,0.84029 0.26137,0.5123 0.44525,1.04055 0.54672,1.60615 -0.10963,0.29144 0.0962,0.56642 0.12971,0.85092 0.005,0.0411 -0.0189,0.0805 -0.0282,0.12065 0.0186,0.0645 0.037,0.12911 0.0556,0.19362 0.0794,0.33104 0.24748,0.63313 0.34717,0.9581 0.18909,0.61632 -0.25918,-0.47555 0.11129,0.37607 0.0849,0.30468 0.26584,0.55453 0.3865,0.84623 0.0151,0.0356 0.006,0.077 0.009,0.11552 0.0376,0.0663 0.0752,0.13258 0.11295,0.19896 0.11265,0.28914 0.303,0.52971 0.43223,0.81526 0.0156,0.0343 0.008,0.075 0.0106,0.11249 0.0391,0.0663 0.0782,0.13273 0.11733,0.19913 0.11672,0.28831 0.30758,0.5306 0.43733,0.81714 0.0156,0.0344 0.008,0.0752 0.0106,0.1128 0.0391,0.0664 0.0782,0.13288 0.11733,0.19943 0.0222,0.29063 0.39772,0.59294 0.56636,0.81142 0.43552,0.40203 0.7948,0.88054 1.10197,1.38732 0.008,0.0471 0.0151,0.0942 0.0226,0.14134 0,0 -2.5669,3.3259 -2.5669,3.3259 v 0 c -0.0528,-0.0844 -0.10585,-0.16893 -0.15879,-0.25338 0.0686,-0.37988 -0.0403,-0.30362 -0.22353,-0.61289 -0.0199,-0.0338 -0.006,-0.0782 -0.008,-0.11733 -0.0302,-0.0463 -0.0604,-0.0926 -0.0904,-0.13877 -0.0784,-0.0669 -0.15663,-0.13378 -0.23494,-0.20059 -0.029,-0.0462 -0.0494,-0.0991 -0.087,-0.13862 -0.26315,-0.27693 -0.58142,-0.48725 -0.79779,-0.80909 -0.1211,-0.26593 -0.0397,-0.12096 -0.26854,-0.42039 -0.0222,-0.0427 -2.4e-4,-0.0977 -0.0136,-0.14406 -0.0628,-0.21646 -0.30478,-0.32716 -0.28211,-0.56387 -0.12111,-0.26563 -0.0397,-0.12065 -0.26885,-0.41997 -0.0223,-0.0429 -4.1e-4,-0.098 -0.0136,-0.14435 -0.0643,-0.21865 -0.30653,-0.33121 -0.28793,-0.57081 -0.12805,-0.2744 -0.0436,-0.12487 -0.27577,-0.43502 -0.0252,-0.0482 -0.009,-0.10947 -0.0257,-0.16121 -0.0793,-0.24167 -0.31955,-0.38991 -0.32063,-0.65667 -0.0781,-0.17991 -0.20019,-0.33862 -0.27731,-0.51895 -0.0601,-0.14043 -0.006,-0.31603 -0.11567,-0.44345 -0.0429,-0.0956 -0.11053,-0.17927 -0.14934,-0.27659 -0.0237,-0.0596 -0.0243,-0.12623 -0.0364,-0.18932 -0.0738,-0.18219 -0.19224,-0.34507 -0.25812,-0.53029 -0.0234,-0.0658 -0.008,-0.13968 -0.016,-0.20893 -0.0373,-0.27992 -0.14481,-0.53986 -0.25797,-0.7965 0.0136,-0.3869 0.0895,-0.79605 -0.0791,-1.15808 -0.25785,-0.4174 -0.0767,-0.24322 -0.19214,-0.59333 -0.10178,-0.30871 -0.10903,-0.11401 -0.28434,-0.47247 -0.0273,-0.0559 -0.0219,-0.12246 -0.0328,-0.18375 -0.0714,-0.17687 -0.1896,-0.33314 -0.25468,-0.51244 -0.022,-0.0606 -0.003,-0.12911 -0.0106,-0.19318 -0.0313,-0.26552 -0.14466,-0.50278 -0.27087,-0.73565 0.003,-0.28313 3.5e-4,-0.54134 -0.11687,-0.80585 -0.0444,-0.10042 -0.11854,-0.18817 -0.14904,-0.29359 -0.0168,-0.0577 0.008,-0.1199 0.0121,-0.17994 0.008,-0.17871 0.0136,-0.32979 -0.0767,-0.49312 -0.0483,-0.0871 -0.13077,-0.15504 -0.16701,-0.24786 -0.0301,-0.077 0.0809,-0.16837 0.0121,-0.24748 -0.25905,-0.44079 0.16383,0.25165 -0.32601,-0.39915 -0.0376,-0.05 -0.0441,-0.11809 -0.0776,-0.17083 -0.17326,-0.27171 -0.19344,-0.27582 -0.28143,-0.56478 -0.30066,-0.39433 -0.09,-0.26605 -0.27748,-0.56009 -0.0556,-0.0871 -0.14149,-0.15392 -0.18866,-0.24578 -0.0471,-0.0918 0.0551,-0.22949 -0.0797,-0.29916 -0.31265,-0.39498 -0.0752,-0.25216 -0.25868,-0.51454 -0.0569,-0.0814 -0.1442,-0.13998 -0.19437,-0.22569 -0.0204,-0.0349 -0.006,-0.0806 -0.008,-0.12095 -0.0302,-0.0509 -0.0606,-0.10177 -0.0907,-0.1526 -0.18384,-0.18975 -0.38794,-0.43677 -0.51398,-0.67253 -0.0245,-0.0459 -0.008,-0.1051 -0.0234,-0.15445 -0.0596,-0.17767 -0.18148,-0.31195 -0.28998,-0.46131 -0.0654,-0.28968 -0.2206,-0.46241 -0.33584,-0.73237 -0.12246,-0.287 -0.10903,-0.64793 -0.2929,-0.91648 -0.029,-0.32044 -0.0533,-0.64707 -0.13469,-0.95976 -0.0317,-0.12171 -0.0927,-0.23573 -0.11477,-0.35963 -0.002,-0.0121 0.0121,-0.48035 0.0136,-0.49948 0.0151,-0.38752 0.0942,-0.79577 -0.0649,-1.1618 -0.23172,-0.39523 -0.0722,-0.27465 -0.18535,-0.61563 -0.10042,-0.3028 -0.11567,-0.15784 -0.28748,-0.4836 -0.0365,-0.0693 -0.048,-0.14904 -0.072,-0.22357 -0.36167,-0.64789 -0.89969,-1.1846 -1.36937,-1.75171 0,0 2.29526,-3.51357 2.29526,-3.51357 z"
       inkscape:connector-curvature="0" />
    <path
       style="fill:#000000;stroke:#000000;stroke-width:0.39952552"
       id="path454"
       d="m 50.792503,225.75293 c 0.07091,1.4299 -0.341717,2.86932 -0.600099,4.2475 -0.06463,0.34469 -0.189251,0.66702 -0.24085,1.01846 -0.08432,1.16921 -0.04263,0.46441 0.430597,-2.37056 0.0145,-0.0865 -0.02442,0.17445 -0.05108,0.25794 -0.01874,0.0587 -0.06895,0.10495 -0.08391,0.16464 -0.0368,0.14692 -0.0032,0.35277 0.01057,0.49581 0.161976,0.9226 0.02269,0.34145 -0.582867,0.16087 -0.422894,-0.12609 -0.872824,-0.13983 -1.31088,-0.16212 0.277019,-0.15414 0.109008,-0.30842 0.182375,-0.46187 0.151054,-0.31589 0.251574,-0.17912 0.273484,-0.57889 -0.146713,-1.11254 0.167597,-1.65257 -0.549743,2.35547 -0.01329,0.074 0.04373,-0.1439 0.06013,-0.21723 0.04163,-0.18612 0.04853,-0.30102 0.06923,-0.49148 0.111047,-0.27974 -0.06191,-0.61796 -0.02325,-0.8894 0.152702,-1.07213 0.368977,-2.13426 0.556751,-3.2008 0.01389,-0.0793 0.06264,-0.31583 0.04843,-0.2366 -0.161404,0.89986 -0.32668,1.79902 -0.490021,2.69853 0.03496,-0.0121 0.07239,-0.0533 0.104916,-0.0358 0.129257,0.0698 0.217302,0.20041 0.342526,0.27715 0.651441,0.39921 0.373716,0.17475 1.003647,0.36602 0.0145,0.005 8e-4,0.0338 0.01208,0.0436 0.0302,0.0263 0.07004,0.039 0.105052,0.0584 -0.255188,0.14542 -0.07296,0.18033 -0.361326,0.34111 -0.176583,0.0985 -0.436753,0.11024 -0.356849,0.34791 1.304782,0.16665 0.416454,1.22002 0.855816,-2.69431 0.0045,-0.0406 -0.09356,0.005 -0.116619,0.0382 -0.05323,0.0779 0.0328,0.32098 0.04453,0.36728 0.195292,0.55111 0.28819,1.12498 0.342045,1.70467 0.04245,0.57337 0.04296,1.1487 0.04462,1.72331 2.59e-4,0.5657 -0.0012,1.13141 -0.002,1.69711 -8.01e-4,0.56491 -8.01e-4,1.12982 -8.01e-4,1.69474 -0.144448,0.43339 0.08116,0.94142 0.161021,1.38103 0.07121,0.22563 0.0203,0.42892 -0.0056,0.65302 0,0 -2.745939,3.16406 -2.745939,3.16406 v 0 c -0.161321,-0.30338 -0.359769,-0.59861 -0.317851,-0.95827 -0.0042,-0.53918 -0.07228,-1.04896 -0.301609,-1.54641 -2.9e-5,-0.56527 -9.2e-5,-1.13053 -6.8e-5,-1.69581 8.7e-5,-0.56565 1.36e-4,-1.13132 0.002,-1.69697 0.0024,-0.55102 0.0057,-1.10203 0.01389,-1.653 0.0062,-0.45768 0.03253,-0.91989 -0.03041,-1.37453 -0.04008,-0.14436 -0.37441,-0.85133 -0.372213,-0.88194 0.150715,-2.09823 -0.19628,-2.93843 1.106402,-3.912 0.184781,-0.11642 0.386413,-0.20761 0.560291,-0.33982 0.06866,-0.0522 0.0447,-0.18929 0.162763,-0.20119 0.144146,-0.10193 0.315369,-0.16204 0.451747,-0.27665 0.146215,-0.05 0.523937,-0.19738 0.705382,-0.19996 0.836455,-0.0121 1.789835,0.30454 2.024992,1.19464 -0.190962,1.06009 -0.381005,2.12035 -0.572889,3.18028 -0.01419,0.0784 -0.05845,0.31283 -0.04529,0.23435 0.15265,-0.90997 0.342133,-1.8143 0.463758,-2.72893 0.0082,-0.0616 -0.103829,0.0826 -0.119835,0.14254 -0.0017,0.005 0.01057,0.57727 0.01057,0.58068 0.03736,1.58861 0.0024,3.31941 -0.86401,4.69168 -0.0042,0.006 -0.306328,0.43604 -0.322941,0.46874 -0.02481,0.0489 -0.0151,0.1119 -0.04394,0.15851 -0.14253,0.22989 -0.386569,0.37562 -0.507221,0.61968 -0.163062,0.0837 -0.307463,0.22731 -0.489196,0.25074 -0.747991,0.0965 -1.726314,0.0441 -2.111808,-0.7398 -0.02413,-0.0491 -0.07097,-0.47771 -0.07452,-0.50696 -0.06434,-0.34735 -0.200929,-0.69532 -0.252129,-1.04131 -0.01566,-0.10585 -0.01027,-0.21524 0.0056,-0.32109 0.448759,-2.9812 0.257574,-2.2251 0.618717,-3.57155 0.04574,-0.16315 0.143392,-0.50211 0.179274,-0.66755 0.0241,-0.11114 0.07734,-0.44796 0.05939,-0.33574 -0.76327,4.77066 -0.542599,2.92092 -0.276647,1.90459 0,0 3.211537,-2.69481 3.211537,-2.69481 z"
       inkscape:connector-curvature="0" />
  </g>
</svg>
