<?xml version="1.0" encoding="UTF-8" standalone="no"?>
<!-- Created with Inkscape (http://www.inkscape.org/) -->

<svg
   xmlns:dc="http://purl.org/dc/elements/1.1/"
   xmlns:cc="http://creativecommons.org/ns#"
   xmlns:rdf="http://www.w3.org/1999/02/22-rdf-syntax-ns#"
   xmlns:svg="http://www.w3.org/2000/svg"
   xmlns="http://www.w3.org/2000/svg"
   xmlns:sodipodi="http://sodipodi.sourceforge.net/DTD/sodipodi-0.dtd"
   xmlns:inkscape="http://www.inkscape.org/namespaces/inkscape"
   width="202"
   height="202"
   viewBox="0 0 53.445832 53.445835"
   version="1.1"
   id="svg15695"
   inkscape:version="0.92.3 (2405546, 2018-03-11)"
   sodipodi:docname="levdzell.svg">
  <defs
     id="defs15689">
    <inkscape:path-effect
       effect="spiro"
       id="path-effect1094"
       is_visible="true" />
    <inkscape:path-effect
       effect="spiro"
       id="path-effect1090"
       is_visible="true" />
    <inkscape:path-effect
       effect="spiro"
       id="path-effect1086"
       is_visible="true" />
    <inkscape:path-effect
       effect="spiro"
       id="path-effect1082"
       is_visible="true" />
    <inkscape:path-effect
       effect="spiro"
       id="path-effect1045"
       is_visible="true" />
    <inkscape:path-effect
       effect="spiro"
       id="path-effect1019"
       is_visible="true" />
    <inkscape:path-effect
       effect="spiro"
       id="path-effect982"
       is_visible="true" />
    <inkscape:path-effect
       effect="spiro"
       id="path-effect929"
       is_visible="true" />
    <inkscape:path-effect
       effect="spiro"
       id="path-effect925"
       is_visible="true" />
    <inkscape:path-effect
       effect="spiro"
       id="path-effect921"
       is_visible="true" />
    <inkscape:path-effect
       effect="spiro"
       id="path-effect917"
       is_visible="true" />
    <inkscape:path-effect
       effect="spiro"
       id="path-effect909"
       is_visible="true" />
    <inkscape:path-effect
       effect="spiro"
       id="path-effect15879"
       is_visible="true" />
    <inkscape:path-effect
       effect="spiro"
       id="path-effect15875"
       is_visible="true" />
    <inkscape:path-effect
       effect="spiro"
       id="path-effect15740"
       is_visible="true" />
    <inkscape:path-effect
       effect="spiro"
       id="path-effect15736"
       is_visible="true" />
    <inkscape:path-effect
       effect="spiro"
       id="path-effect15732"
       is_visible="true" />
    <inkscape:path-effect
       effect="spiro"
       id="path-effect15726"
       is_visible="true" />
    <inkscape:path-effect
       effect="spiro"
       id="path-effect15707"
       is_visible="true" />
    <inkscape:path-effect
       effect="spiro"
       id="path-effect15703"
       is_visible="true" />
    <inkscape:path-effect
       effect="spiro"
       id="path-effect15699"
       is_visible="true" />
    <inkscape:path-effect
       effect="spiro"
       id="path-effect15740-2"
       is_visible="true" />
    <inkscape:path-effect
       effect="spiro"
       id="path-effect15740-3"
       is_visible="true" />
    <inkscape:path-effect
       effect="spiro"
       id="path-effect15740-2-1"
       is_visible="true" />
    <inkscape:path-effect
       effect="spiro"
       id="path-effect929-9"
       is_visible="true" />
    <inkscape:path-effect
       effect="spiro"
       id="path-effect925-3"
       is_visible="true" />
    <inkscape:path-effect
       effect="spiro"
       id="path-effect921-2"
       is_visible="true" />
    <inkscape:path-effect
       effect="spiro"
       id="path-effect917-1"
       is_visible="true" />
    <inkscape:path-effect
       effect="spiro"
       id="path-effect909-8"
       is_visible="true" />
    <inkscape:path-effect
       effect="spiro"
       id="path-effect982-3"
       is_visible="true" />
    <inkscape:path-effect
       effect="spiro"
       id="path-effect1019-8"
       is_visible="true" />
    <inkscape:path-effect
       effect="spiro"
       id="path-effect1094-4"
       is_visible="true" />
    <inkscape:path-effect
       effect="spiro"
       id="path-effect1090-1"
       is_visible="true" />
  </defs>
  <sodipodi:namedview
     id="base"
     pagecolor="#ffffff"
     bordercolor="#666666"
     borderopacity="1.0"
     inkscape:pageopacity="0.0"
     inkscape:pageshadow="2"
     inkscape:zoom="1.979899"
     inkscape:cx="7.1002413"
     inkscape:cy="110.69406"
     inkscape:document-units="mm"
     inkscape:current-layer="layer6"
     showgrid="false"
     units="px"
     gridtolerance="1"
     objecttolerance="1"
     inkscape:window-width="1920"
     inkscape:window-height="1017"
     inkscape:window-x="-8"
     inkscape:window-y="-8"
     inkscape:window-maximized="1"
     showguides="false" />
  <metadata
     id="metadata15692">
    <rdf:RDF>
      <cc:Work
         rdf:about="">
        <dc:format>image/svg+xml</dc:format>
        <dc:type
           rdf:resource="http://purl.org/dc/dcmitype/StillImage" />
        <dc:title></dc:title>
      </cc:Work>
    </rdf:RDF>
  </metadata>
  <g
     inkscape:label="Layer 1"
     inkscape:groupmode="layer"
     id="layer1"
     transform="translate(0,-243.55415)" />
  <g
     inkscape:groupmode="layer"
     id="layer6"
     inkscape:label="Layer 2">
    <g
       id="g1015">
      <path
         inkscape:original-d="M 24.127453,16.696273 C 23.771358,16.228287 23.325909,15.671475 22.92474,15.159473 22.523571,14.647471 22.5241,14.001041 22.323383,13.422221 22.122667,12.843402 20.942755,11.773795 20.252045,10.949978 19.561334,10.126162 19.405956,10.058815 18.982514,9.6136308 18.559073,9.1684461 18.403695,8.9006475 18.113888,8.5445527 17.824082,8.188458 18.336878,8.0988388 18.447975,7.8763788 c 0.111098,-0.2224601 0.401169,-0.04481 0.601357,-0.066817 0.200187,-0.022008 1.247522,0.5788195 1.870886,0.868626 0.623365,0.2898066 0.579349,0.5342745 0.868626,0.8018084 0.289278,0.2675343 0.757528,0.6233638 1.135896,0.9354428"
         inkscape:path-effect="#path-effect909"
         inkscape:connector-curvature="0"
         id="path907"
         d="m 24.127453,16.696273 c -0.524918,-0.396548 -0.94394,-0.931965 -1.202713,-1.5368 -0.241229,-0.56383 -0.343828,-1.180678 -0.601357,-1.737252 C 21.869546,12.441385 20.986224,11.743066 20.252045,10.949978 19.834233,10.498642 19.456269,10.005838 18.982514,9.6136308 18.800601,9.463031 18.605005,9.3276713 18.440008,9.1587075 18.275012,8.9897437 18.139565,8.7793147 18.113888,8.5445527 c -0.01437,-0.1314051 0.007,-0.2671057 0.06483,-0.3859613 0.05785,-0.1188556 0.152546,-0.2201522 0.269261,-0.2822126 0.09052,-0.04813 0.192441,-0.072322 0.294655,-0.08021 0.102214,-0.00789 0.205052,8.29e-5 0.306702,0.013393 0.690665,0.090436 1.332128,0.4271101 1.870886,0.868626 0.304846,0.2498233 0.580307,0.5330801 0.868626,0.8018084 0.359037,0.334641 0.738618,0.6472368 1.135896,0.9354428"
         style="opacity:1;fill:none;fill-opacity:1;fill-rule:nonzero;stroke:#000000;stroke-width:0.26458332" />
      <path
         sodipodi:nodetypes="csccscscc"
         inkscape:original-d="m 22.067252,9.6083317 c 0.02338,-1.3887475 0.04648,-2.7771952 0.06931,-4.1653429 0.02283,-1.3881478 -0.09213,-1.1110579 -0.138606,-1.6661372 -0.04648,-0.5550789 0.514767,-1.5029315 0.629998,-1.9822772 0.115232,-0.4793458 0.362581,0.6352227 0.708823,0.4335667 0.346242,-0.2016563 0.373027,0.8635672 0.488259,1.5202242 0.115231,0.656657 -0.04801,1.0127221 -0.02518,1.5431565 0.02283,0.5304345 0.09267,1.1104583 0.138607,1.6661372 0.04593,0.5556788 0.04648,0.6560572 0.06931,0.9845355"
         inkscape:path-effect="#path-effect917"
         inkscape:connector-curvature="0"
         id="path915"
         d="m 22.067252,9.6083317 c 0.07795,-1.3868122 0.101078,-2.776705 0.06931,-4.1653429 -0.01276,-0.557808 -0.03465,-1.117953 -0.138606,-1.6661372 -0.07466,-0.3936992 -0.191971,-0.7916616 -0.133584,-1.1881008 0.02919,-0.1982196 0.104673,-0.392982 0.237302,-0.5431584 0.132629,-0.1501763 0.325923,-0.2517037 0.52628,-0.251018 0.143641,4.916e-4 0.284205,0.052505 0.403668,0.1322639 0.119463,0.07976 0.219098,0.1862932 0.305155,0.3013028 0.323528,0.4323739 0.45802,0.9810552 0.488259,1.5202242 0.02882,0.5138167 -0.02989,1.0285539 -0.02518,1.5431565 0.0051,0.5575038 0.08453,1.1112392 0.138607,1.6661372 0.03192,0.3274787 0.05503,0.6558152 0.06931,0.9845355"
         style="opacity:1;fill:none;fill-opacity:1;fill-rule:nonzero;stroke:#000000;stroke-width:0.28687614" />
      <path
         sodipodi:nodetypes="ccccccccscsc"
         inkscape:original-d="m 23.938445,7.7907274 c -0.878118,0.1517671 0.32369,-0.050788 0.485124,-0.075733 0.161432,-0.024945 0.138881,-0.5051898 0.20791,-0.7573349 0.06903,-0.2521453 2.75e-4,-0.9091021 0,-1.363203 -2.74e-4,-0.4541012 2.75e-4,-1.1615472 0,-1.7418709 -2.74e-4,-0.5803233 0.09267,-1.1110577 0.138607,-1.666137 0.04593,-0.5550791 0.231286,-0.6566568 0.346518,-0.9845355 0.11523,-0.32787871 0.418944,-0.33626664 0.511073,-0.46218929 0.09213,-0.12592254 0.195559,0.18382327 0.472498,0.20936747 0.27694,0.0255442 0.418405,1.55921982 0.464341,1.96343162 0.04593,0.404212 -0.153972,1.0154958 -0.131142,1.9245976 0.02283,0.909102 0.09267,1.6658372 0.138607,2.4992058"
         inkscape:path-effect="#path-effect921"
         inkscape:connector-curvature="0"
         id="path919"
         d="m 23.938445,7.7907274 c 0.07924,0.034242 0.168223,0.045562 0.253508,0.032248 0.08528,-0.013314 0.166587,-0.051218 0.231616,-0.1079814 0.101992,-0.089029 0.160181,-0.2197355 0.186417,-0.352552 0.02624,-0.1328166 0.02339,-0.2694132 0.02149,-0.4047829 -0.0064,-0.4543628 -9.3e-4,-0.9087964 0,-1.363203 0.0012,-0.5806251 -0.005,-1.1612661 0,-1.7418709 0.0048,-0.5582952 0.02039,-1.1204804 0.138607,-1.666137 0.07387,-0.3409751 0.187835,-0.6738254 0.346518,-0.9845355 0.05457,-0.1068463 0.115298,-0.21226717 0.198898,-0.29831822 0.0836,-0.0860511 0.192794,-0.15195855 0.312175,-0.16387107 0.08858,-0.008839 0.178571,0.0124533 0.258555,0.0515224 0.07998,0.0390691 0.150571,0.0953329 0.213943,0.1578451 0.247305,0.24394842 0.38576,0.58158402 0.444253,0.92400052 0.05849,0.3424166 0.04293,0.6928064 0.02009,1.0394311 -0.04229,0.6416747 -0.10894,1.2819141 -0.131142,1.9245976 -0.02885,0.8349766 0.01761,1.6725398 0.138607,2.4992058"
         style="opacity:1;fill:none;fill-opacity:1;fill-rule:nonzero;stroke:#000000;stroke-width:0.28687614" />
      <path
         sodipodi:nodetypes="cccscsccsc"
         inkscape:original-d="m 26.566446,7.2810075 c 0.212629,0.053252 0.424984,0.106803 0.637064,0.1606549 0.21208,0.053851 0.263112,-0.5259895 0.360846,-0.8469998 0.09774,-0.32101 0.06562,-2.0352633 0.09801,-3.0524452 0.03239,-1.017182 0.196294,-0.607219 0.294029,-0.9103784 0.09774,-0.3031598 0.392314,-0.1788058 0.588059,-0.2677586 0.195745,-0.088953 0.228965,0.285309 0.343035,0.4284134 0.114071,0.1431043 0.268288,0.6514898 0.251668,1.044502 -0.01661,0.3930122 0.0017,1.4565687 -0.03119,2.13519 -0.03294,0.6786209 -0.260165,1.484245 -0.1951,2.1628663"
         inkscape:path-effect="#path-effect925"
         inkscape:connector-curvature="0"
         id="path923"
         d="m 26.566446,7.2810075 c 0.06632,0.100183 0.170924,0.1743203 0.28742,0.2036983 0.116496,0.029378 0.243751,0.013712 0.349644,-0.043043 0.141757,-0.075978 0.238298,-0.2190539 0.289898,-0.3713861 0.0516,-0.1523323 0.06312,-0.3149704 0.07095,-0.4756137 0.0496,-1.0173847 -0.03187,-2.0421661 0.09801,-3.0524452 0.04108,-0.3195709 0.10777,-0.6474695 0.294029,-0.9103784 0.06686,-0.09437 0.149855,-0.1798009 0.252399,-0.2332823 0.102543,-0.053481 0.226377,-0.072326 0.33566,-0.034476 0.08939,0.030962 0.16336,0.097276 0.217992,0.1745125 0.05463,0.077237 0.09164,0.1653885 0.125043,0.2539009 0.126743,0.3358598 0.207662,0.688231 0.251668,1.044502 0.08742,0.7077958 0.02972,1.4246213 -0.03119,2.13519 -0.06183,0.72124 -0.12686,1.4422049 -0.1951,2.1628663"
         style="opacity:1;fill:none;fill-opacity:1;fill-rule:nonzero;stroke:#000000;stroke-width:0.28687614" />
      <path
         sodipodi:nodetypes="ccscscssscccsccc"
         inkscape:original-d="m 28.971713,8.0267181 c 0.06708,0.1890511 0.03367,0.4284801 0.100226,0.6180607 0.06655,0.1895803 0.557076,-0.1561719 0.835217,-0.233861 0.278141,-0.077689 0.334352,-0.5793486 0.50113,-0.868626 0.166779,-0.2892772 0.445714,-0.891163 0.668174,-1.3363474 0.22246,-0.4451848 0.401169,-0.356624 0.601357,-0.5345391 0.200187,-0.1779151 0.334351,0.1333701 0.50113,0.2004521 0.166779,0.067082 -0.22246,1.1133584 -0.334087,1.6704344 -0.111627,0.5570762 -0.267005,0.556547 -0.400904,0.8352173 -0.133899,0.2786703 -0.378367,0.6010918 -0.567948,0.9020347 -0.18958,0.3009429 -0.244732,0.3338224 -0.367495,0.5011304 -0.122764,0.1673079 -0.111098,1.4251728 -0.167044,2.1381558 -0.05595,0.712984 -0.04428,1.202449 -0.06682,1.80407 -0.02254,0.601621 -0.111098,0.734726 -0.167044,1.102486 -0.05594,0.367761 -0.155642,0.66791 -0.233861,1.002261 -0.07822,0.334352 -1.157903,0.445185 -1.737252,0.668174"
         inkscape:path-effect="#path-effect929"
         inkscape:connector-curvature="0"
         id="path927"
         d="m 28.971713,8.0267181 c -0.07322,0.091895 -0.105498,0.215234 -0.08669,0.3312147 0.01881,0.1159806 0.08841,0.2227975 0.186916,0.286846 0.06609,0.042969 0.143865,0.06685 0.222506,0.072256 0.07864,0.00541 0.158077,-0.00733 0.23248,-0.033367 0.148805,-0.05207 0.274911,-0.1554386 0.380231,-0.2727506 0.224262,-0.2497973 0.36317,-0.5625883 0.50113,-0.868626 0.204775,-0.4542553 0.415726,-0.9067539 0.668174,-1.3363474 0.07036,-0.1197283 0.144768,-0.2387183 0.242486,-0.3373912 0.09772,-0.098673 0.22153,-0.1765913 0.358871,-0.1971479 0.09294,-0.013911 0.189416,-8.718e-4 0.276342,0.034833 0.08693,0.035705 0.164237,0.093754 0.224788,0.1656192 0.09803,0.1163511 0.150821,0.2669647 0.162327,0.4186742 0.01151,0.1517096 -0.01653,0.3046 -0.06633,0.4483639 -0.0996,0.2875276 -0.282613,0.5372277 -0.430082,0.8033963 -0.149694,0.2701856 -0.26331,0.5586734 -0.400904,0.8352173 -0.158543,0.3186485 -0.349047,0.6214011 -0.567948,0.9020347 -0.127545,0.1635139 -0.265432,0.3206103 -0.367495,0.5011304 -0.17881,0.3162628 -0.237555,0.6877638 -0.24002,1.0510678 -0.0025,0.363303 0.048,0.724636 0.07298,1.087088 0.04144,0.601358 0.01257,1.206538 -0.06682,1.80407 -0.04896,0.368462 -0.117048,0.734163 -0.167044,1.102486 -0.04638,0.341648 -0.0796,0.693916 -0.233861,1.002261 -0.152317,0.304453 -0.421359,0.548657 -0.739096,0.670864 -0.317738,0.122207 -0.681082,0.121228 -0.998156,-0.0027"
         style="opacity:1;fill:none;fill-opacity:1;fill-rule:nonzero;stroke:#000000;stroke-width:0.26458332" />
      <g
         transform="translate(3.4962798,3.874256)"
         id="g978">
        <path
           style="opacity:1;fill:none;fill-opacity:1;fill-rule:nonzero;stroke:#000000;stroke-width:0.26458332"
           d="m 26.045672,33.068898 c 0.524918,0.396548 0.94394,0.931965 1.202713,1.5368 0.24123,0.56383 0.343828,1.180678 0.601358,1.737252 0.453837,0.980836 1.337159,1.679155 2.071337,2.472243 0.417811,0.451336 0.795775,0.944141 1.269531,1.336348 0.181913,0.1506 0.37751,0.285959 0.542506,0.454923 0.164996,0.168964 0.300443,0.379393 0.32612,0.614155 0.01437,0.131405 -0.007,0.267105 -0.06483,0.385961 -0.05785,0.118855 -0.152546,0.220151 -0.26926,0.282212 -0.09052,0.04813 -0.192441,0.07232 -0.294655,0.08021 -0.102214,0.0079 -0.205052,-8.1e-5 -0.306702,-0.01339 -0.690666,-0.09043 -1.332128,-0.42711 -1.870886,-0.868626 -0.304846,-0.249823 -0.580307,-0.53308 -0.868626,-0.801808 -0.359037,-0.334641 -0.738618,-0.647237 -1.135896,-0.935443"
           id="path907-4"
           inkscape:connector-curvature="0"
           inkscape:path-effect="#path-effect909-8"
           inkscape:original-d="m 26.045672,33.068898 c 0.356095,0.467986 0.801544,1.024798 1.202713,1.5368 0.401169,0.512002 0.40064,1.158432 0.601358,1.737252 0.200715,0.578819 1.380627,1.648426 2.071337,2.472243 0.690711,0.823816 0.846089,0.891163 1.269531,1.336348 0.423441,0.445184 0.578819,0.712983 0.868626,1.069078 0.289806,0.356094 -0.22299,0.445713 -0.334087,0.668173 -0.111098,0.22246 -0.401169,0.04481 -0.601357,0.06682 -0.200187,0.02201 -1.247522,-0.578819 -1.870886,-0.868626 -0.623365,-0.289806 -0.579349,-0.534274 -0.868626,-0.801808 -0.289278,-0.267534 -0.757528,-0.623364 -1.135896,-0.935443" />
        <path
           style="opacity:1;fill:none;fill-opacity:1;fill-rule:nonzero;stroke:#000000;stroke-width:0.28687614"
           d="m 28.105874,40.15684 c -0.07795,1.386812 -0.101077,2.776704 -0.06931,4.165342 0.01276,0.557808 0.03465,1.117953 0.138605,1.666138 0.07466,0.393699 0.191971,0.791662 0.133584,1.188101 -0.02919,0.198219 -0.104674,0.392982 -0.237302,0.543158 -0.132629,0.150176 -0.325923,0.251704 -0.52628,0.251018 -0.143641,-4.92e-4 -0.284205,-0.0525 -0.403668,-0.132264 -0.119464,-0.07976 -0.219098,-0.186293 -0.305155,-0.301303 -0.323528,-0.432374 -0.458019,-0.981055 -0.488258,-1.520224 -0.02882,-0.513817 0.02989,-1.028554 0.02518,-1.543157 -0.0051,-0.557504 -0.08453,-1.111239 -0.138607,-1.666137 -0.03192,-0.327479 -0.05503,-0.655815 -0.06931,-0.984535"
           id="path915-9"
           inkscape:connector-curvature="0"
           inkscape:path-effect="#path-effect917-1"
           inkscape:original-d="m 28.105874,40.15684 c -0.02338,1.388747 -0.04648,2.777195 -0.06931,4.165342 -0.02283,1.388148 0.09213,1.111058 0.138605,1.666138 0.04648,0.555079 -0.514767,1.502931 -0.629998,1.982277 -0.115232,0.479346 -0.362581,-0.635223 -0.708823,-0.433567 -0.346242,0.201656 -0.373027,-0.863567 -0.488258,-1.520224 -0.115232,-0.656657 0.04801,-1.012722 0.02518,-1.543157 -0.02283,-0.530434 -0.09267,-1.110458 -0.138607,-1.666137 -0.04593,-0.555679 -0.04648,-0.656057 -0.06931,-0.984535"
           sodipodi:nodetypes="csccscscc" />
        <path
           style="opacity:1;fill:none;fill-opacity:1;fill-rule:nonzero;stroke:#000000;stroke-width:0.28687614"
           d="m 26.23468,41.974444 c -0.07924,-0.03424 -0.168222,-0.04556 -0.253507,-0.03225 -0.08528,0.01331 -0.166587,0.05122 -0.231616,0.10798 -0.101993,0.08903 -0.160182,0.219735 -0.186418,0.352552 -0.02624,0.132816 -0.02339,0.269413 -0.02149,0.404783 0.0064,0.454363 9.3e-4,0.908796 0,1.363203 -0.0012,0.580625 0.005,1.161266 0,1.741871 -0.0048,0.558295 -0.02039,1.12048 -0.138607,1.666137 -0.07387,0.340975 -0.187834,0.673825 -0.346518,0.984535 -0.05457,0.106846 -0.115298,0.212267 -0.198899,0.298318 -0.0836,0.08605 -0.192793,0.151958 -0.312174,0.163871 -0.08858,0.0088 -0.178571,-0.01245 -0.258555,-0.05152 -0.07998,-0.03907 -0.150571,-0.09533 -0.213943,-0.157845 -0.247305,-0.243948 -0.38576,-0.581584 -0.444254,-0.924001 -0.05849,-0.342416 -0.04293,-0.692806 -0.02009,-1.039431 0.04229,-0.641674 0.10894,-1.281914 0.131142,-1.924597 0.02885,-0.834977 -0.01761,-1.67254 -0.138607,-2.499206"
           id="path919-0"
           inkscape:connector-curvature="0"
           inkscape:path-effect="#path-effect921-2"
           inkscape:original-d="m 26.23468,41.974444 c 0.878118,-0.151767 -0.32369,0.05079 -0.485123,0.07573 -0.161433,0.02495 -0.138882,0.50519 -0.207911,0.757335 -0.06903,0.252145 -2.64e-4,0.909102 0,1.363203 2.65e-4,0.454101 -2.64e-4,1.161547 0,1.741871 2.65e-4,0.580323 -0.09267,1.111057 -0.138607,1.666137 -0.04593,0.555079 -0.231286,0.656656 -0.346518,0.984535 -0.11523,0.327879 -0.418944,0.336267 -0.511073,0.462189 -0.09213,0.125923 -0.195558,-0.183823 -0.472498,-0.209367 -0.276939,-0.02554 -0.418405,-1.55922 -0.464341,-1.963432 -0.04593,-0.404212 0.153972,-1.015496 0.131142,-1.924597 -0.02283,-0.909102 -0.09267,-1.665838 -0.138607,-2.499206"
           sodipodi:nodetypes="ccccccccscsc" />
        <path
           style="opacity:1;fill:none;fill-opacity:1;fill-rule:nonzero;stroke:#000000;stroke-width:0.28687614"
           d="m 23.606679,42.484164 c -0.06632,-0.100183 -0.170924,-0.17432 -0.28742,-0.203698 -0.116496,-0.02938 -0.243751,-0.01371 -0.349644,0.04304 -0.141757,0.07598 -0.238298,0.219054 -0.289898,0.371386 -0.0516,0.152332 -0.06312,0.314971 -0.07095,0.475614 -0.0496,1.017385 0.03187,2.042166 -0.09801,3.052445 -0.04108,0.319571 -0.107771,0.647469 -0.294029,0.910378 -0.06686,0.09437 -0.149855,0.179801 -0.252399,0.233283 -0.102543,0.05348 -0.226377,0.07233 -0.33566,0.03448 -0.08939,-0.03096 -0.16336,-0.09728 -0.217992,-0.174513 -0.05463,-0.07724 -0.09164,-0.165388 -0.125043,-0.253901 -0.126743,-0.33586 -0.207662,-0.688231 -0.251668,-1.044502 -0.08743,-0.707796 -0.02972,-1.424621 0.03119,-2.13519 0.06183,-0.72124 0.12686,-1.442205 0.1951,-2.162866"
           id="path923-9"
           inkscape:connector-curvature="0"
           inkscape:path-effect="#path-effect925-3"
           inkscape:original-d="m 23.606679,42.484164 c -0.212629,-0.05325 -0.424984,-0.106803 -0.637064,-0.160655 -0.21208,-0.05385 -0.263112,0.525989 -0.360846,0.847 -0.09774,0.32101 -0.06562,2.035263 -0.09801,3.052445 -0.03239,1.017182 -0.196294,0.607219 -0.294029,0.910378 -0.09774,0.30316 -0.392314,0.178806 -0.588059,0.267759 -0.195745,0.08895 -0.228965,-0.285309 -0.343035,-0.428414 -0.114071,-0.143104 -0.268288,-0.651489 -0.251668,-1.044502 0.01661,-0.393012 -0.0017,-1.456568 0.03119,-2.13519 0.03294,-0.67862 0.260165,-1.484245 0.1951,-2.162866"
           sodipodi:nodetypes="cccscsccsc" />
        <path
           style="opacity:1;fill:none;fill-opacity:1;fill-rule:nonzero;stroke:#000000;stroke-width:0.26458332"
           d="m 21.201412,41.738453 c 0.07322,-0.0919 0.105498,-0.215234 0.08669,-0.331215 -0.01881,-0.115981 -0.08841,-0.222798 -0.186916,-0.286846 -0.06608,-0.04297 -0.143865,-0.06685 -0.222506,-0.07226 -0.07864,-0.0054 -0.158077,0.0073 -0.23248,0.03337 -0.148805,0.05207 -0.274911,0.155439 -0.380231,0.272751 -0.224262,0.249797 -0.36317,0.562588 -0.50113,0.868626 -0.204775,0.454255 -0.415725,0.906754 -0.668174,1.336348 -0.07036,0.119728 -0.144768,0.238718 -0.242486,0.337391 -0.09772,0.09867 -0.22153,0.176591 -0.358871,0.197148 -0.09294,0.01391 -0.189416,8.72e-4 -0.276342,-0.03483 -0.08693,-0.03571 -0.164237,-0.09375 -0.224788,-0.165619 -0.09803,-0.116351 -0.150821,-0.266965 -0.162327,-0.418674 -0.01151,-0.15171 0.01653,-0.3046 0.06633,-0.448364 0.0996,-0.287528 0.282613,-0.537228 0.430082,-0.803397 0.149694,-0.270186 0.26331,-0.558673 0.400904,-0.835217 0.158543,-0.318649 0.349047,-0.621401 0.567948,-0.902035 0.127545,-0.163514 0.265432,-0.32061 0.367495,-0.50113 0.178811,-0.316263 0.237555,-0.687764 0.240021,-1.051067 0.0025,-0.363304 -0.048,-0.724637 -0.07298,-1.087089 -0.04144,-0.601358 -0.01257,-1.206538 0.06682,-1.80407 0.04896,-0.368462 0.117048,-0.734163 0.167044,-1.102486 0.04638,-0.341648 0.0796,-0.693916 0.233861,-1.002261 0.152317,-0.304453 0.421359,-0.548657 0.739096,-0.670864 0.317738,-0.122207 0.681082,-0.121228 0.998156,0.0027"
           id="path927-0"
           inkscape:connector-curvature="0"
           inkscape:path-effect="#path-effect929-9"
           inkscape:original-d="m 21.201412,41.738453 c -0.06708,-0.189051 -0.03367,-0.42848 -0.100226,-0.618061 -0.06655,-0.18958 -0.557076,0.156172 -0.835217,0.233861 -0.278141,0.07769 -0.334352,0.579349 -0.50113,0.868626 -0.166779,0.289278 -0.445714,0.891164 -0.668174,1.336348 -0.22246,0.445185 -0.401169,0.356624 -0.601357,0.534539 -0.200187,0.177915 -0.334351,-0.13337 -0.50113,-0.200452 -0.166779,-0.06708 0.22246,-1.113358 0.334087,-1.670435 0.111627,-0.557076 0.267005,-0.556547 0.400904,-0.835217 0.133899,-0.27867 0.378367,-0.601092 0.567948,-0.902035 0.18958,-0.300942 0.244732,-0.333822 0.367495,-0.50113 0.122764,-0.167308 0.111098,-1.425173 0.167044,-2.138156 0.05595,-0.712984 0.04428,-1.202449 0.06682,-1.80407 0.02254,-0.601621 0.111098,-0.734726 0.167044,-1.102486 0.05594,-0.367761 0.155642,-0.66791 0.233861,-1.002261 0.07822,-0.334352 1.157903,-0.445185 1.737252,-0.668174"
           sodipodi:nodetypes="ccscscssscccsccc" />
      </g>
      <path
         inkscape:original-d="m 23.614212,16.244068 c -0.22246,1.024269 -0.539679,2.16692 -0.762668,3.191718 -0.222989,1.024797 -0.22246,3.563329 -0.334087,5.34539 -0.111626,1.782062 0.267534,1.157903 0.400905,1.737252 0.13337,0.57935 0.401168,2.093346 0.601356,3.140416 0.200188,1.04707 -0.13337,3.385151 -0.200452,5.078121 -0.06708,1.692971 0.579348,1.692442 0.868626,2.539061"
         inkscape:path-effect="#path-effect982"
         inkscape:connector-curvature="0"
         id="path980"
         d="m 23.614212,16.244068 c -0.289917,1.054952 -0.544332,2.119661 -0.762668,3.191718 -0.358276,1.759179 -0.619475,3.572927 -0.334087,5.34539 0.09452,0.58701 0.248065,1.162662 0.400905,1.737252 0.274522,1.032046 0.549066,2.073764 0.601356,3.140416 0.08309,1.69485 -0.398121,3.392788 -0.200452,5.078121 0.104992,0.895166 0.403307,1.767165 0.868626,2.539061"
         style="opacity:1;fill:none;fill-opacity:1;fill-rule:nonzero;stroke:#000000;stroke-width:0.26458332"
         sodipodi:nodetypes="csscscc" />
      <path
         inkscape:original-d="m 29.868765,37.241704 c 0.22246,-1.024269 0.562115,-2.115619 0.785104,-3.140417 0.222989,-1.024797 0.22246,-3.563329 0.334087,-5.34539 0.111626,-1.782062 -0.267534,-1.157903 -0.400905,-1.737252 -0.13337,-0.57935 -0.401168,-2.093346 -0.601356,-3.140416 -0.200188,-1.04707 0.13337,-3.385151 0.200452,-5.078121 0.06708,-1.692971 -0.579348,-1.692442 -0.868626,-2.539061"
         inkscape:path-effect="#path-effect982-3"
         inkscape:connector-curvature="0"
         id="path980-4"
         d="m 29.868765,37.241704 c 0.30231,-1.036092 0.564275,-2.083955 0.785104,-3.140417 0.367384,-1.757594 0.620833,-3.572854 0.334087,-5.34539 -0.09495,-0.586934 -0.248212,-1.162629 -0.400905,-1.737252 -0.27426,-1.032109 -0.548979,-2.073774 -0.601356,-3.140416 -0.08322,-1.694844 0.398085,-3.392783 0.200452,-5.078121 -0.104973,-0.895169 -0.40329,-1.767173 -0.868626,-2.539061"
         style="opacity:1;fill:none;fill-opacity:1;fill-rule:nonzero;stroke:#000000;stroke-width:0.26458332"
         sodipodi:nodetypes="csscscc" />
    </g>
    <path
       style="opacity:1;fill:#00ffff;fill-opacity:1;fill-rule:nonzero;stroke:#000000;stroke-width:0.17857143"
       d="m 96.953005,3.3243926 c -1.435518,0.357849 -1.793572,2.126209 -2.319686,3.3018276 -1.278411,3.369856 -0.716234,7.0531868 -0.924716,10.5711978 -0.130795,3.721791 0.09543,7.477703 -0.324238,11.175803 -0.406866,1.083582 -1.828541,2.195421 -2.962819,1.504953 -0.593079,-0.917475 -0.181657,-2.181903 -0.449609,-3.22253 -0.650832,-4.719875 -0.286729,-9.503876 -0.644141,-14.242942 -0.459948,-1.912974 -1.290631,-4.1802533 -3.245327,-4.9954661 -1.591766,-0.5258923 -2.963875,1.154685 -2.890276,2.6569471 -0.09466,2.820748 0.910552,5.54241 0.887276,8.364956 0.230707,5.991499 0.0052,12.020101 -0.144042,17.998396 0.705249,1.085382 2.160183,1.624741 2.895856,2.587541 -0.347907,0.924825 -0.929727,0.539753 -1.489307,-0.0727 -3.624234,-2.66815 -6.451513,-6.516133 -10.705866,-8.262962 -1.563668,-0.504559 -3.510438,-1.25568 -5.023368,-0.251116 -1.143581,0.973602 -0.72609,2.746159 0.3125,3.631418 1.988958,1.930619 4.16451,3.663927 5.939942,5.811943 2.905385,3.320739 6.501946,6.154407 8.598633,10.106026 1.722627,3.34664 1.989288,7.398974 4.560547,10.295061 0.640351,0.948852 1.758593,1.673016 2.287248,2.611607 -0.171047,0.437504 -0.60758,0.598104 -0.911691,0.169852 -0.364506,-0.157479 -0.793079,-0.916461 -1.191754,-0.674873 -1.864823,8.904364 -4.260388,17.861764 -4.033901,27.03125 0.291782,8.325462 4.383258,16.058348 4.175151,24.434968 -0.01843,7.07426 -1.952255,14.32763 0.06145,21.29476 0.544518,1.77644 1.286334,3.50131 2.183252,5.12442 1.360459,-0.43294 2.847745,-0.94034 4.313966,-0.5556 0.449581,0.0225 0.927045,0.26653 0.552456,0.74638 -0.220138,0.66129 -0.980654,-0.10936 -1.455777,0.0617 -2.512875,-0.24443 -4.799607,1.80723 -5.142997,4.2477 -0.81743,4.22611 -1.407212,8.5224 -1.144575,12.83706 -0.08618,2.40562 0.322334,4.88564 -0.267603,7.24002 -1.180423,2.41712 -3.039382,4.43805 -4.210942,6.87058 -1.00478,2.15476 -2.381139,4.1598 -3.12374,6.42497 -0.333264,1.31685 0.867073,3.18302 2.339564,2.55545 1.687503,-1.201 2.299686,-3.3605 3.276082,-5.0983 1.169095,-2.07822 1.850852,-4.915 4.182066,-6.01777 1.27769,-0.57106 3.261088,0.11781 3.129882,1.74456 -0.159092,6.07826 -1.557192,12.23749 -0.541991,18.32031 0.364729,1.25379 0.463395,3.01304 1.781529,3.65897 1.359403,0.0677 2.012496,-1.56147 2.256557,-2.68102 0.83552,-4.80702 0.272332,-9.73848 0.883789,-14.56089 0.313011,-1.60445 2.344655,-2.81307 3.790455,-1.75607 1.15866,0.75841 0.79294,2.42332 1.05549,3.59861 0.63781,6.10642 -0.59126,12.23292 -0.10125,18.34231 0.37391,1.33497 1.27641,2.91632 2.75635,3.15674 1.31845,-0.32097 1.64824,-1.95304 2.20459,-3.00538 1.3755,-3.89332 0.95912,-8.11596 1.10755,-12.1718 0.0736,-3.28128 -0.11493,-6.59005 0.22615,-9.85281 0.37824,-1.16188 1.83949,-2.18882 3.01305,-1.551 0.40001,1.9782 0.41831,4.06074 0.66092,6.07318 0.3757,3.96668 -0.11724,7.99361 0.52665,11.93568 0.46222,1.85821 1.47612,4.09141 3.51458,4.57729 1.65112,0.0705 2.6631,-1.75895 2.51953,-3.24986 -0.13858,-2.75343 -0.97509,-5.43354 -0.9305,-8.20545 -0.1416,-5.86716 0.0157,-11.76152 0.10042,-17.61347 -0.70285,-1.08734 -2.05918,-1.69587 -2.79506,-2.67299 0.33471,-1.04171 1.03419,-0.28084 1.60126,0.22141 3.74806,2.8071 6.667,6.97311 11.32494,8.3692 1.40886,0.40059 3.51731,1.13497 4.55252,-0.3554 0.8271,-1.34509 -0.038,-2.91853 -1.1449,-3.78493 -3.75737,-3.1756 -6.87449,-7.01181 -10.35471,-10.47453 -2.2139,-2.205 -4.0059,-4.85149 -4.86862,-7.87886 -0.96904,-3.01422 -1.95089,-6.22212 -4.38731,-8.41017 -0.3163,-0.52989 -1.28634,-0.94602 -1.19305,-1.62366 0.319,-0.87128 0.71205,0.0397 1.22105,0.10707 0.63402,-0.73754 0.51908,-1.93284 0.84818,-2.83201 1.86105,-8.86302 4.1144,-17.90142 3.13741,-27.02374 -0.83099,-6.09533 -3.15024,-11.925372 -3.79062,-18.036619 -0.6205,-6.884645 1.19559,-13.721798 0.58524,-20.606514 -0.25714,-3.060839 -1.25353,-6.025075 -2.71066,-8.71582 -1.47303,0.469545 -3.202,0.792902 -4.66727,0.109514 0.0707,-0.457523 0.40888,-1.023771 0.92634,-0.623953 2.51276,0.576825 5.29898,-1.166302 5.71289,-3.753489 1.22324,-5.445859 1.62561,-11.086758 1.11333,-16.640236 -0.11362,-2.13057 0.27317,-4.360532 1.67863,-6.04457 2.41963,-3.163762 4.04408,-6.82803 5.84538,-10.351953 0.56031,-1.240286 0.14022,-3.473066 -1.5339,-3.415529 -1.83672,0.365013 -2.32456,2.504132 -3.17964,3.893355 -1.14744,2.114927 -1.98576,4.451302 -3.49307,6.344508 -1.03414,1.239394 -3.378,1.8609 -4.31327,0.208566 -0.52254,-1.31295 0.057,-2.79719 0.03,-4.163643 0.4085,-5.076339 1.12255,-10.235256 0.31907,-15.306325 -0.38028,-1.175193 -0.51178,-2.794457 -1.69777,-3.4537902 -1.41541,-0.1120193 -2.00259,1.5843292 -2.32631,2.6907782 -0.61646,3.058431 -0.39581,6.222164 -0.57291,9.324801 -0.19101,1.976045 0.19053,4.093352 -0.5735,5.954216 -0.67983,1.579336 -3.0655,1.962375 -4.03251,0.443988 -0.761782,-2.027779 -0.546505,-4.283802 -0.674464,-6.417386 -0.175391,-4.565301 0.550514,-9.108262 0.402075,-13.6687606 -0.218877,-1.7071744 -0.860707,-3.900125 -2.712402,-4.4311523 -0.06307,-0.00464 -0.12645,-0.010328 -0.189732,-0.00384 z"
       id="path1066"
       inkscape:connector-curvature="0"
       transform="scale(0.26458333)" />
    <g
       id="g1078"
       transform="translate(-19.37128,-0.09449405)">
      <g
         transform="translate(19.465774,0.56696429)"
         id="g1064">
        <g
           id="g1050">
          <path
             sodipodi:nodetypes="cscccccc"
             inkscape:original-d="m 22.811912,25.760916 c 0.629461,0.01644 0.63503,0.233592 1.26953,0.250562 0.6345,0.01697 1.113888,-0.189582 1.353052,-0.183752 0.239164,0.0058 0.323215,-0.479123 0.484426,-0.718287 0.161211,-0.239165 0.86889,-0.167308 1.30294,-0.250565 0.434046,-0.08326 0.401169,0.601091 0.601355,0.902034 0.200187,0.300943 0.312079,0.02201 0.467723,0.03341 0.155641,0.0114 1.392293,-0.0114 2.088041,-0.0167"
             inkscape:path-effect="#path-effect1019"
             inkscape:connector-curvature="0"
             id="path1017"
             d="m 22.811912,25.760916 c 0.421036,0.09392 0.844383,0.177474 1.26953,0.250562 0.232392,0.03995 0.467733,0.0769 0.703008,0.06115 0.235274,-0.01575 0.473442,-0.08865 0.650044,-0.244902 0.108587,-0.09607 0.18952,-0.219194 0.261983,-0.344773 0.07246,-0.125579 0.138077,-0.255601 0.222443,-0.373514 0.147121,-0.205622 0.357103,-0.373709 0.602641,-0.434008 0.122769,-0.03015 0.252842,-0.03274 0.375562,-0.0024 0.12272,0.03035 0.237712,0.09414 0.324737,0.185837 0.126779,0.13358 0.187047,0.31466 0.260275,0.48364 0.03661,0.08449 0.07759,0.167774 0.132557,0.241651 0.05497,0.07388 0.124814,0.138376 0.208523,0.176743 0.07194,0.03297 0.151796,0.04569 0.230907,0.04763 0.07911,0.0019 0.158055,-0.0065 0.236816,-0.01422 0.693673,-0.06759 1.393375,-0.07318 2.088041,-0.0167"
             style="opacity:1;fill:none;fill-opacity:1;fill-rule:nonzero;stroke:#000000;stroke-width:0.26458332" />
          <path
             sodipodi:nodetypes="cscscccc"
             inkscape:original-d="m 23.043965,26.981444 c 0.629461,-0.01644 1.269795,-0.03314 1.904295,-0.05011 0.6345,-0.01697 0.345488,0.172878 0.584652,0.167048 0.239164,-0.0058 -4.197861,1.706398 0.367496,0.785104 0.396831,-0.08008 1.119455,-0.08326 1.553505,0 0.434046,0.08326 0.401169,-0.601091 0.601356,-0.902034 0.200186,-0.300943 0.312078,-0.02201 0.467723,-0.03341 0.15564,-0.0114 1.392293,0.0114 2.08804,0.0167"
             inkscape:path-effect="#path-effect1019-8"
             inkscape:connector-curvature="0"
             id="path1017-3"
             d="m 23.043965,26.981444 c 0.632236,-0.06539 1.269495,-0.08216 1.904295,-0.05011 0.103184,0.0052 0.206877,0.01179 0.307515,0.03516 0.100639,0.02337 0.198877,0.06444 0.277137,0.131891 0.110674,0.09539 0.172672,0.234925 0.218476,0.373667 0.0458,0.138741 0.07952,0.282921 0.14902,0.411437 0.07418,0.137163 0.188235,0.252153 0.323815,0.329188 0.135581,0.07703 0.292184,0.116101 0.448104,0.113769 0.15592,-0.0023 0.310797,-0.04584 0.446129,-0.123307 0.135333,-0.07747 0.250965,-0.188587 0.335457,-0.31965 0.100204,-0.155434 0.155512,-0.334891 0.235582,-0.501592 0.04004,-0.08335 0.0867,-0.16415 0.146644,-0.234558 0.05994,-0.07041 0.133775,-0.130323 0.21913,-0.165884 0.145761,-0.06073 0.310342,-0.04628 0.467723,-0.03341 0.694347,0.05677 1.392874,0.06236 2.08804,0.0167"
             style="opacity:1;fill:none;fill-opacity:1;fill-rule:nonzero;stroke:#000000;stroke-width:0.26458332" />
          <path
             inkscape:original-d="m 25.668355,27.281012 c -0.217421,-0.300414 -0.08883,-0.969117 -0.133635,-1.453278 -0.04481,-0.484162 0.178444,-0.356624 0.26727,-0.534539 0.08882,-0.177915 0.523667,-0.412306 0.785104,-0.618061 0.261436,-0.205756 0.456849,0.200188 0.684878,0.300678 0.228028,0.100491 0.234124,0.556547 0.350792,0.835217 0.116666,0.278671 0.111625,0.912907 0.167042,1.369757 0.05542,0.45685 -0.111098,0.344958 -0.167042,0.517834 -0.05595,0.172876 -0.289279,0.31155 -0.434313,0.467722 -0.145037,0.156172 -0.57882,0.01087 -0.868627,0.0167 -0.289806,0.0058 -0.434048,-0.601621 -0.651469,-0.902034 z"
             inkscape:path-effect="#path-effect1045"
             inkscape:connector-curvature="0"
             id="path1043"
             d="m 25.668355,27.281012 c -0.245537,-0.436821 -0.295393,-0.979005 -0.133635,-1.453278 0.06446,-0.188994 0.160188,-0.365994 0.26727,-0.534539 0.09248,-0.145566 0.194937,-0.286877 0.324581,-0.40061 0.129643,-0.113733 0.289051,-0.199014 0.460523,-0.217451 0.129022,-0.01387 0.26116,0.01075 0.379151,0.06477 0.117991,0.05401 0.221948,0.136816 0.305727,0.235912 0.196745,0.232715 0.275548,0.539915 0.350792,0.835217 0.114373,0.448866 0.23458,0.911499 0.167042,1.369757 -0.02657,0.180285 -0.08233,0.356491 -0.167042,0.517834 -0.10034,0.191099 -0.245108,0.363853 -0.434313,0.467722 -0.13158,0.07223 -0.281723,0.109221 -0.43182,0.110666 -0.150097,0.0014 -0.299963,-0.03228 -0.436807,-0.09397 -0.176989,-0.07978 -0.332487,-0.206662 -0.446154,-0.364047 -0.113667,-0.157385 -0.185226,-0.34489 -0.205315,-0.537987 z"
             style="opacity:1;fill:none;fill-opacity:1;fill-rule:nonzero;stroke:#000000;stroke-width:0.26458332" />
        </g>
        <path
           style="opacity:1;fill:#ffcc00;fill-opacity:1;fill-rule:nonzero;stroke:#000000;stroke-width:0.03156727"
           d="m 110.72853,97.72754 c -1.31935,-0.01562 -2.63883,0.05433 -3.95024,0.189326 -0.57211,0.06316 -1.16137,0.05305 -1.71312,-0.134761 -0.19983,-0.0034 -0.12392,0.244265 -0.0904,0.360187 0.27511,1.10756 0.50072,2.226508 0.54041,3.366848 -0.0133,0.15619 0.1615,0.22259 0.27348,0.1257 0.86548,-0.38823 1.83646,-0.18203 2.75044,-0.14487 1.88586,0.12857 3.77835,0.11706 5.66733,0.0876 0.2377,-0.0216 0.49106,0.0141 0.71912,-0.0616 0.10546,-0.15223 -0.0409,-0.34444 -0.0489,-0.51075 -0.25646,-1.051894 -0.54171,-2.094748 -0.7837,-3.148648 -0.1152,-0.155772 -0.36241,-0.05784 -0.53276,-0.102529 -0.94336,-0.03188 -1.88787,-0.02484 -2.83168,-0.02645 z"
           id="path1052"
           inkscape:connector-curvature="0"
           transform="scale(0.26458333)" />
        <path
           style="opacity:1;fill:#ffcc00;fill-opacity:1;fill-rule:nonzero;stroke:#000000;stroke-width:0.03156727"
           d="m 86.564097,97.880506 c -0.181835,0.07702 -0.01935,0.299045 -0.01315,0.436675 0.267586,1.030838 0.522233,2.066619 0.819103,3.088929 0.0892,0.2003 0.341468,0.0671 0.503535,0.0833 1.141774,-0.0972 2.285312,-0.16126 3.431828,-0.15077 1.271046,0.0118 2.550877,-0.041 3.810948,0.10942 0.243312,0.0255 0.479916,0.0891 0.717601,0.14211 0.20259,-0.0571 0.04303,-0.29649 0.04221,-0.43801 -0.152234,-0.87546 -0.151567,-1.767862 -0.0342,-2.650215 -0.09211,-0.186531 -0.291658,0.01126 -0.425548,0.04096 -0.691121,0.290728 -1.436989,0.446805 -2.181646,0.411557 -1.280728,0.0046 -2.526375,-0.300024 -3.783123,-0.51139 -0.956893,-0.168316 -1.904397,-0.383354 -2.856303,-0.563473 -0.01042,-5.86e-4 -0.0209,-5.45e-4 -0.03126,9.25e-4 z"
           id="path1056"
           inkscape:connector-curvature="0"
           transform="scale(0.26458333)" />
      </g>
      <path
         transform="scale(0.26458333)"
         inkscape:connector-curvature="0"
         id="path1068"
         d="m 174.29418,95.82374 c -1.03675,0.0055 -1.87546,0.757683 -2.44289,1.558287 -0.78916,1.155862 -1.5553,2.424588 -1.66028,3.854523 -0.0902,1.18384 0.0371,2.41258 0.59718,3.4768 0.41575,0.7432 0.62828,1.55107 0.90441,2.34775 0.68083,0.81686 1.64395,1.46306 2.72929,1.52639 0.70254,0.0295 1.45229,-0.1073 1.97591,-0.61261 0.94725,-0.82128 1.13994,-2.13404 1.80316,-3.14566 0.0922,-1.14403 0.0269,-2.30678 -0.25074,-3.42503 -0.32763,-1.30724 -0.56161,-2.660903 -1.15926,-3.880011 -0.46996,-0.942083 -1.39218,-1.740988 -2.49678,-1.700439 z"
         style="opacity:1;fill:#ffffff;fill-opacity:1;fill-rule:nonzero;stroke:#000000;stroke-width:0.04464286" />
    </g>
    <path
       style="opacity:1;fill:#ffffff;fill-opacity:1;fill-rule:nonzero;stroke:#000000;stroke-width:0.26458332"
       d="m 26.70638,26.975689 0.04725,-1.317012"
       id="path1080"
       inkscape:connector-curvature="0"
       inkscape:path-effect="#path-effect1082"
       inkscape:original-d="m 26.70638,26.975689 c 0.01601,-0.43927 0.03176,-0.878273 0.04725,-1.317012" />
    <path
       style="opacity:1;fill:#ffffff;fill-opacity:1;fill-rule:nonzero;stroke:#000000;stroke-width:0.26458332"
       d="m 26.741816,26.898912 0.336634,0.561057"
       id="path1084"
       inkscape:connector-curvature="0"
       inkscape:path-effect="#path-effect1086"
       inkscape:original-d="m 26.741816,26.898912 c 0.112477,0.186753 0.224686,0.373774 0.336634,0.561057" />
    <path
       style="opacity:1;fill:none;fill-opacity:1;fill-rule:nonzero;stroke:#000000;stroke-width:0.26458332"
       d="m 23.853805,10.716118 c 0.296171,0.05726 0.581259,0.171295 0.835217,0.334087 0.536918,0.344175 0.912934,0.886767 1.236122,1.436573 0.278248,0.473353 0.534826,0.987723 0.534538,1.5368 -1.2e-4,0.228609 -0.04582,0.457104 -0.133634,0.668174"
       id="path1088"
       inkscape:connector-curvature="0"
       inkscape:path-effect="#path-effect1090"
       inkscape:original-d="m 23.853805,10.716118 c 0.267534,0.09996 0.557076,0.22246 0.835217,0.334087 0.278142,0.111626 0.824346,0.957451 1.236122,1.436573 0.411776,0.479123 0.356624,1.024269 0.534538,1.5368 0.177917,0.512531 -0.08882,0.445184 -0.133634,0.668174" />
    <path
       style="opacity:1;fill:none;fill-opacity:1;fill-rule:nonzero;stroke:#000000;stroke-width:0.26458332"
       d="m 23.954031,9.6804481 c 0.734414,0.268855 1.469407,0.5361259 2.204974,0.8018089 0.616397,0.22264 1.234543,0.444576 1.870887,0.601356 0.209989,0.05174 0.42174,0.09632 0.634764,0.133635"
       id="path1092"
       inkscape:connector-curvature="0"
       inkscape:path-effect="#path-effect1094"
       inkscape:original-d="m 23.954031,9.6804481 c 0.72412,0.2670048 1.470247,0.5342749 2.204974,0.8018089 0.734726,0.267534 1.247523,0.400639 1.870887,0.601356 0.623363,0.200717 0.423442,0.08882 0.634764,0.133635" />
    <path
       style="opacity:1;fill:none;fill-opacity:1;fill-rule:nonzero;stroke:#000000;stroke-width:0.26458332"
       d="m 29.532138,42.718345 c -0.296171,-0.05726 -0.581259,-0.171295 -0.835217,-0.334087 -0.536918,-0.344175 -0.912934,-0.886767 -1.236122,-1.436573 -0.278248,-0.473353 -0.534826,-0.987723 -0.534538,-1.5368 1.2e-4,-0.228609 0.04582,-0.457104 0.133634,-0.668174"
       id="path1088-6"
       inkscape:connector-curvature="0"
       inkscape:path-effect="#path-effect1090-1"
       inkscape:original-d="m 29.532138,42.718345 c -0.267534,-0.09996 -0.557076,-0.22246 -0.835217,-0.334087 -0.278142,-0.111626 -0.824346,-0.957451 -1.236122,-1.436573 -0.411776,-0.479124 -0.356624,-1.024269 -0.534538,-1.5368 -0.177917,-0.512531 0.08882,-0.445184 0.133634,-0.668174" />
    <path
       style="opacity:1;fill:none;fill-opacity:1;fill-rule:nonzero;stroke:#000000;stroke-width:0.26458332"
       d="m 29.431912,43.754014 c -0.734414,-0.268854 -1.469407,-0.536125 -2.204974,-0.801808 -0.616397,-0.22264 -1.234543,-0.444576 -1.870887,-0.601356 -0.209989,-0.05174 -0.42174,-0.09632 -0.634764,-0.133635"
       id="path1092-2"
       inkscape:connector-curvature="0"
       inkscape:path-effect="#path-effect1094-4"
       inkscape:original-d="M 29.431912,43.754014 C 28.707792,43.48701 27.961665,43.21974 27.226938,42.952206 26.492212,42.684672 25.979415,42.551567 25.356051,42.35085 24.732688,42.150133 24.932609,42.26203 24.721287,42.217215" />
  </g>
</svg>
