<?xml version="1.0" encoding="UTF-8" standalone="no"?>
<!-- Created with Inkscape (http://www.inkscape.org/) -->

<svg
   xmlns:dc="http://purl.org/dc/elements/1.1/"
   xmlns:cc="http://creativecommons.org/ns#"
   xmlns:rdf="http://www.w3.org/1999/02/22-rdf-syntax-ns#"
   xmlns:svg="http://www.w3.org/2000/svg"
   xmlns="http://www.w3.org/2000/svg"
   xmlns:sodipodi="http://sodipodi.sourceforge.net/DTD/sodipodi-0.dtd"
   xmlns:inkscape="http://www.inkscape.org/namespaces/inkscape"
   width="202"
   height="202"
   viewBox="0 0 53.445832 53.445835"
   version="1.1"
   id="svg15916"
   sodipodi:docname="osteoplang.svg"
   inkscape:version="0.92.3 (2405546, 2018-03-11)">
  <defs
     id="defs15910">
    <inkscape:path-effect
       effect="spiro"
       id="path-effect16194"
       is_visible="true" />
    <inkscape:path-effect
       effect="spiro"
       id="path-effect16168"
       is_visible="true" />
    <inkscape:path-effect
       effect="spiro"
       id="path-effect16116"
       is_visible="true" />
    <inkscape:path-effect
       effect="spiro"
       id="path-effect16108"
       is_visible="true" />
    <inkscape:path-effect
       effect="spiro"
       id="path-effect16096"
       is_visible="true" />
    <inkscape:path-effect
       effect="spiro"
       id="path-effect16092"
       is_visible="true" />
    <inkscape:path-effect
       effect="spiro"
       id="path-effect16088"
       is_visible="true" />
    <inkscape:path-effect
       effect="spiro"
       id="path-effect16084"
       is_visible="true" />
    <inkscape:path-effect
       effect="spiro"
       id="path-effect16080"
       is_visible="true" />
    <inkscape:path-effect
       effect="spiro"
       id="path-effect16076"
       is_visible="true" />
    <inkscape:path-effect
       effect="spiro"
       id="path-effect16072"
       is_visible="true" />
    <inkscape:path-effect
       effect="spiro"
       id="path-effect16068"
       is_visible="true" />
    <inkscape:path-effect
       effect="spiro"
       id="path-effect16064"
       is_visible="true" />
    <inkscape:path-effect
       effect="spiro"
       id="path-effect16060"
       is_visible="true" />
    <inkscape:path-effect
       effect="spiro"
       id="path-effect16056"
       is_visible="true" />
    <inkscape:path-effect
       effect="spiro"
       id="path-effect16052"
       is_visible="true" />
    <inkscape:path-effect
       effect="spiro"
       id="path-effect16048"
       is_visible="true" />
    <inkscape:path-effect
       effect="spiro"
       id="path-effect16044"
       is_visible="true" />
    <inkscape:path-effect
       effect="spiro"
       id="path-effect16040"
       is_visible="true" />
    <inkscape:path-effect
       effect="spiro"
       id="path-effect16036"
       is_visible="true" />
    <inkscape:path-effect
       effect="spiro"
       id="path-effect16032"
       is_visible="true" />
    <inkscape:path-effect
       effect="spiro"
       id="path-effect16028"
       is_visible="true" />
    <inkscape:path-effect
       effect="spiro"
       id="path-effect16024"
       is_visible="true" />
    <inkscape:path-effect
       effect="spiro"
       id="path-effect16020"
       is_visible="true" />
    <inkscape:path-effect
       effect="spiro"
       id="path-effect16008"
       is_visible="true" />
    <inkscape:path-effect
       effect="spiro"
       id="path-effect16004"
       is_visible="true" />
    <inkscape:path-effect
       effect="spiro"
       id="path-effect16000"
       is_visible="true" />
    <inkscape:path-effect
       effect="spiro"
       id="path-effect15994"
       is_visible="true" />
    <inkscape:path-effect
       effect="spiro"
       id="path-effect15980"
       is_visible="true" />
    <inkscape:path-effect
       effect="spiro"
       id="path-effect15976"
       is_visible="true" />
    <inkscape:path-effect
       effect="spiro"
       id="path-effect15968"
       is_visible="true" />
    <inkscape:path-effect
       effect="spiro"
       id="path-effect15964"
       is_visible="true" />
    <inkscape:path-effect
       effect="spiro"
       id="path-effect15956"
       is_visible="true" />
    <inkscape:path-effect
       effect="spiro"
       id="path-effect15952"
       is_visible="true" />
    <inkscape:path-effect
       effect="spiro"
       id="path-effect15948"
       is_visible="true" />
    <inkscape:path-effect
       effect="spiro"
       id="path-effect15944"
       is_visible="true" />
    <inkscape:path-effect
       effect="spiro"
       id="path-effect15940"
       is_visible="true" />
    <inkscape:path-effect
       effect="spiro"
       id="path-effect15936"
       is_visible="true" />
    <inkscape:path-effect
       effect="spiro"
       id="path-effect15932"
       is_visible="true" />
    <inkscape:path-effect
       effect="spiro"
       id="path-effect15928"
       is_visible="true" />
    <inkscape:path-effect
       effect="spiro"
       id="path-effect15924"
       is_visible="true" />
    <inkscape:path-effect
       effect="spiro"
       id="path-effect15920"
       is_visible="true" />
    <inkscape:path-effect
       effect="spiro"
       id="path-effect15944-1"
       is_visible="true" />
    <inkscape:path-effect
       effect="spiro"
       id="path-effect15924-4"
       is_visible="true" />
    <inkscape:path-effect
       effect="spiro"
       id="path-effect15932-8"
       is_visible="true" />
  </defs>
  <sodipodi:namedview
     id="base"
     pagecolor="#ffffff"
     bordercolor="#666666"
     borderopacity="1.0"
     inkscape:pageopacity="0.0"
     inkscape:pageshadow="2"
     inkscape:zoom="1.979899"
     inkscape:cx="198.76439"
     inkscape:cy="46.053074"
     inkscape:document-units="mm"
     inkscape:current-layer="layer1"
     showgrid="false"
     units="px"
     objecttolerance="1"
     gridtolerance="1"
     guidetolerance="1"
     inkscape:window-width="1920"
     inkscape:window-height="1017"
     inkscape:window-x="-8"
     inkscape:window-y="-8"
     inkscape:window-maximized="1" />
  <metadata
     id="metadata15913">
    <rdf:RDF>
      <cc:Work
         rdf:about="">
        <dc:format>image/svg+xml</dc:format>
        <dc:type
           rdf:resource="http://purl.org/dc/dcmitype/StillImage" />
        <dc:title></dc:title>
      </cc:Work>
    </rdf:RDF>
  </metadata>
  <g
     inkscape:label="Layer 1"
     inkscape:groupmode="layer"
     id="layer1"
     transform="translate(0,-243.55415)">
    <g
       id="g16334"
       transform="matrix(1,0,0,1.1124879,-0.53453906,-27.786276)">
      <path
         inkscape:original-d="m 7.8430062,262.69864 c -1.606135,-0.22075 -3.212533,-0.44123 -4.8191971,-0.66145 -1.6066632,-0.22023 -0.8186835,-0.0633 -1.2284223,-0.0945 -0.4097388,-0.0312 -0.2517195,0.69269 -0.3779763,1.03943 -0.1262565,0.34675 0.3782409,0.37772 0.5669642,0.56697 0.1887236,0.18925 0.4412374,-0.0633 0.6614584,-0.0945 0.220222,-0.0312 0.378241,-0.12626 0.566964,-0.18899 0.188724,-0.0627 1.4491741,0.37771 2.1733631,0.56696 0.72419,0.18925 0.819213,0.0627 1.228423,0.0945 0.40921,0.0318 0.441237,-0.0632 0.661458,-0.0945 0.220222,-0.0312 0.378241,0.18873 0.566965,0.28348"
         inkscape:path-effect="#path-effect15920"
         inkscape:connector-curvature="0"
         id="path15918"
         d="m 7.8430062,262.69864 c -1.6289601,0.0927 -3.2754496,-0.1333 -4.8191971,-0.66145 -0.2002115,-0.0685 -0.400259,-0.14241 -0.6094488,-0.17429 -0.2091899,-0.0319 -0.4317041,-0.0187 -0.6189735,0.0798 -0.1771163,0.0932 -0.3118879,0.25975 -0.3767246,0.44909 -0.064837,0.18933 -0.061412,0.39946 -0.00125,0.59034 0.04205,0.13341 0.1117883,0.25896 0.2087977,0.35974 0.097009,0.10078 0.2217977,0.17607 0.3581665,0.20723 0.1101729,0.0252 0.2255209,0.0215 0.3367279,0.001 0.1112069,-0.0201 0.2188576,-0.0563 0.3247305,-0.0958 0.1868769,-0.0698 0.371168,-0.15083 0.566964,-0.18899 0.3726599,-0.0726 0.7588268,0.0156 1.1148727,0.14746 0.356046,0.13184 0.6957365,0.30742 1.0584904,0.4195 0.3960954,0.12238 0.8201678,0.16658 1.228423,0.0945 0.2200897,-0.0389 0.4385936,-0.11126 0.661458,-0.0945 0.2160979,0.0163 0.4243059,0.12035 0.566965,0.28348"
         style="fill:none;stroke:#000000;stroke-width:0.26458332px;stroke-linecap:butt;stroke-linejoin:miter;stroke-opacity:1" />
      <path
         inkscape:original-d="m 7.1815472,266.28942 c 0.598727,-2.29962 1.197189,-4.59898 1.795387,-6.89807 0.598198,-2.29909 0.315245,-0.75622 0.47247,-1.13393 0.157226,-0.37771 0.7562168,-0.56723 1.1339288,-0.85044 0.377712,-0.28322 0.819213,0.62969 1.228423,0.94494 0.409209,0.31524 0.315244,0.94467 0.47247,1.41741 0.157225,0.47273 0.504233,1.63763 0.755952,2.45684 0.25172,0.81922 0.378241,1.07067 0.566964,1.6064 0.188724,0.53573 0.693222,0.75569 1.039435,1.13393 0.346214,0.37824 0.819213,-0.0633 1.228423,-0.0945 0.409209,-0.0312 0.69322,-0.12626 1.039434,-0.18899 0.346214,-0.0627 1.071197,-0.0633 1.606399,-0.0945 0.535201,-0.0312 -0.06273,-0.37824 -0.09449,-0.56696 -0.03176,-0.18872 -0.377712,-2.6e-4 -0.566964,0 -0.189253,2.6e-4 -0.629696,-0.0633 -0.944941,-0.0945 -0.315245,-0.0312 -0.503704,-0.25224 -0.755952,-0.37797 -0.252249,-0.12573 -0.629696,-2.7e-4 -0.944941,0 -0.315245,2.6e-4 -0.755687,0.12573 -1.133928,0.18899 -0.378241,0.0633 -0.377712,0.0627 -0.566965,0.0945"
         inkscape:path-effect="#path-effect15924"
         inkscape:connector-curvature="0"
         id="path15922"
         d="m 7.1815472,266.28942 c 0.4290639,-2.33906 1.0296652,-4.64663 1.795387,-6.89807 0.1320518,-0.38827 0.2700723,-0.77724 0.47247,-1.13393 0.1219944,-0.21499 0.2689358,-0.41928 0.4592706,-0.57701 0.1903352,-0.15772 0.4275592,-0.26664 0.6746582,-0.27343 0.27308,-0.007 0.53995,0.11066 0.747418,0.28839 0.207468,0.17772 0.360367,0.41145 0.481005,0.65655 0.220292,0.44757 0.339684,0.93656 0.47247,1.41741 0.228091,0.82598 0.499846,1.63912 0.755952,2.45684 0.169826,0.54224 0.333465,1.08838 0.566964,1.6064 0.108585,0.2409 0.233333,0.47704 0.402352,0.68016 0.169019,0.20311 0.385578,0.37273 0.637083,0.45377 0.198574,0.064 0.412174,0.0709 0.619306,0.046 0.207131,-0.0249 0.409187,-0.0808 0.609117,-0.14045 0.339515,-0.10123 0.68611,-0.21507 1.039434,-0.18899 0.284607,0.021 0.555416,0.13207 0.838462,0.16851 0.141523,0.0182 0.287432,0.0173 0.424434,-0.0226 0.137002,-0.0399 0.264859,-0.12134 0.343503,-0.2404 0.05904,-0.0894 0.08854,-0.19955 0.07365,-0.30563 -0.01488,-0.10607 -0.07616,-0.20645 -0.168145,-0.26133 -0.0832,-0.0496 -0.184637,-0.0601 -0.281163,-0.0518 -0.09653,0.008 -0.190593,0.0339 -0.285801,0.0518 -0.315655,0.0594 -0.649641,0.0319 -0.944941,-0.0945 -0.25946,-0.11102 -0.486178,-0.2951 -0.755952,-0.37797 -0.303844,-0.0933 -0.630924,-0.0493 -0.944941,0 -0.378564,0.0594 -0.756101,0.12509 -1.133928,0.18899 -0.188913,0.0319 -0.377902,0.0634 -0.566965,0.0945"
         style="fill:none;stroke:#000000;stroke-width:0.26458332px;stroke-linecap:butt;stroke-linejoin:miter;stroke-opacity:1" />
      <path
         inkscape:original-d="m 12.898437,262.27342 c 2.819337,-0.0633 5.638409,-0.0948 8.457218,-0.14174 2.818807,-0.047 2.614599,0.66119 3.921503,0.99219"
         inkscape:path-effect="#path-effect15928"
         inkscape:connector-curvature="0"
         id="path15926"
         d="m 12.898437,262.27342 c 2.780359,-0.55197 5.659925,-0.60023 8.457218,-0.14174 1.332221,0.21836 2.64574,0.55069 3.921503,0.99219"
         style="fill:none;stroke:#000000;stroke-width:0.26458332px;stroke-linecap:butt;stroke-linejoin:miter;stroke-opacity:1" />
      <path
         sodipodi:nodetypes="csssccscsssscccc"
         inkscape:original-d="m 7.1815472,266.28942 c -0.1622458,8.01493 -2.110102,8.06322 -3.1183032,12.18973 -1.0081989,4.1265 -0.6926918,4.53545 -1.0394346,6.80357 -0.3467426,2.26812 0.3782409,2.33059 0.5669645,3.49628 0.1887233,1.16569 0.5672288,-0.25225 0.8504462,-0.37798 0.2832177,-0.12572 0.4412369,-0.56723 0.6614583,-0.85044 0.2202217,-0.28322 2.646e-4,-1.19719 0,-1.79539 -2.646e-4,-0.5982 0.5042329,-1.0082 0.7559524,-1.5119 0.2517196,-0.50371 0.6932211,-0.44124 1.0394347,-0.66146 0.3462134,-0.22022 0.4412366,-0.0633 0.6614583,-0.0945 0.2202215,-0.0312 1.1341931,-0.50423 1.7008928,-0.75595 0.5666996,-0.25172 0.5042328,-0.50423 0.7559524,-0.75595 0.25172,-0.25172 0.315245,-0.50423 0.47247,-0.75595 0.157226,-0.25172 0.567229,-0.44124 0.850447,-0.66146 0.283217,-0.22022 0.441236,-0.31525 0.661458,-0.47247 0.220221,-0.15723 0.567229,-0.31525 0.850446,-0.47247"
         inkscape:path-effect="#path-effect15932"
         inkscape:connector-curvature="0"
         id="path15930"
         d="m 7.1815472,266.28942 c -1.727414,3.84455 -2.7873512,7.98794 -3.1183032,12.18973 -0.181007,2.29808 -0.1587114,4.67325 -1.0394346,6.80357 -0.1362168,0.32948 -0.2931897,0.65038 -0.4191776,0.98391 -0.1259879,0.33353 -0.2212161,0.68324 -0.227122,1.03972 -0.00591,0.35648 0.083158,0.72198 0.2965895,1.00757 0.1067158,0.14279 0.2435188,0.2639 0.4014611,0.34657 0.1579422,0.0827 0.3371131,0.12619 0.5152135,0.11851 0.3151505,-0.0136 0.6027637,-0.18264 0.8504462,-0.37798 0.2860727,-0.22562 0.546515,-0.50471 0.6614583,-0.85044 0.095012,-0.28578 0.083818,-0.59534 0.053656,-0.89498 -0.030161,-0.29965 -0.078301,-0.60026 -0.053656,-0.90041 0.047023,-0.5727 0.35825,-1.09713 0.7559524,-1.5119 0.2880267,-0.30039 0.6358637,-0.55987 1.0394347,-0.66146 0.2161409,-0.0544 0.4409687,-0.0619 0.6614583,-0.0945 0.6200655,-0.0916 1.1979485,-0.38188 1.7008928,-0.75595 0.2873407,-0.21371 0.5563221,-0.45865 0.7559524,-0.75595 0.165843,-0.24698 0.282117,-0.52733 0.47247,-0.75595 0.230667,-0.27704 0.552703,-0.45822 0.850447,-0.66146 0.223801,-0.15277 0.436969,-0.32071 0.661458,-0.47247 0.269004,-0.18185 0.553929,-0.34014 0.850446,-0.47247"
         style="fill:none;stroke:#000000;stroke-width:0.26458332px;stroke-linecap:butt;stroke-linejoin:miter;stroke-opacity:1" />
      <path
         sodipodi:nodetypes="cssccccccscc"
         inkscape:original-d="m 5.2916666,284.99924 c 0.4727347,-3.33905 0.9452052,-6.99282 1.4174107,-10.29985 0.4722056,-3.30703 1.4491732,-4.97695 2.1733632,-7.46503 0.7241897,-2.48808 1.1971895,-2.89808 1.7953865,-4.34673 0.598198,-1.44864 0.819213,0.75569 1.228423,1.13393 0.409209,0.37824 0.441237,0.94468 0.661458,1.41741 0.220222,0.47274 1.260185,0.69269 1.889881,1.03944 0.629696,0.34674 1.260185,-2.7e-4 1.889881,0 0.629696,2.6e-4 1.449173,-0.18926 2.173363,-0.28349 0.72419,-0.0942 0.504233,-0.0633 0.755953,-0.0945 0.251719,-0.0312 0.945205,0.18872 1.41741,0.28348 0.472206,0.0948 0.630225,-0.50423 0.944941,-0.75595"
         inkscape:path-effect="#path-effect15936"
         inkscape:connector-curvature="0"
         id="path15934"
         d="m 5.2916666,284.99924 c -0.3183703,-3.48131 0.1705242,-7.03394 1.4174107,-10.29985 0.4662784,-1.2213 1.0362281,-2.40175 1.479567,-3.63157 0.4433389,-1.22981 0.7606155,-2.52789 0.6937962,-3.83346 -0.047022,-0.91876 -0.2826266,-1.84562 -0.101236,-2.74752 0.090695,-0.45095 0.2924094,-0.88958 0.6287049,-1.20341 0.1681478,-0.15691 0.3684195,-0.28067 0.587026,-0.35214 0.2186066,-0.0715 0.4555646,-0.0897 0.6808916,-0.0437 0.283137,0.0579 0.540097,0.21546 0.744685,0.41958 0.204587,0.20412 0.359596,0.45337 0.483738,0.71435 0.224478,0.4719 0.356437,0.99309 0.661458,1.41741 0.215498,0.29978 0.510509,0.53827 0.83799,0.70876 0.32748,0.17048 0.68698,0.27456 1.051891,0.33068 0.624179,0.096 1.260644,0.0536 1.889881,0 0.728359,-0.062 1.456777,-0.13905 2.173363,-0.28349 0.249694,-0.0503 0.501659,-0.10914 0.755953,-0.0945 0.241698,0.0139 0.47397,0.0936 0.705277,0.16504 0.231307,0.0715 0.470675,0.13604 0.712133,0.11844 0.213835,-0.0156 0.422383,-0.0974 0.589803,-0.23131 0.16742,-0.13393 0.292993,-0.31944 0.355138,-0.52464"
         style="fill:none;stroke:#000000;stroke-width:0.26458332px;stroke-linecap:butt;stroke-linejoin:miter;stroke-opacity:1" />
      <path
         sodipodi:nodetypes="cccscc"
         inkscape:original-d="m 12.85119,279.51858 c 1.51217,-0.9452 3.024074,-1.89014 4.535715,-2.83482 1.51164,-0.94467 2.079133,-3.52804 3.118303,-5.29166 1.03917,-1.76363 2.205126,-1.19719 3.307292,-1.79539 1.102166,-0.5982 0.819213,-1.63816 1.228422,-2.45685 0.40921,-0.81868 -2.425082,-0.85071 -3.496279,-1.32292"
         inkscape:path-effect="#path-effect15940"
         inkscape:connector-curvature="0"
         id="path15938"
         d="m 12.85119,279.51858 c 1.821758,-0.24338 3.518644,-1.30394 4.535715,-2.83482 0.571446,-0.86013 0.927794,-1.84115 1.355183,-2.78121 0.427389,-0.94007 0.951325,-1.87219 1.76312,-2.51045 0.988596,-0.77726 2.302071,-1.03975 3.307292,-1.79539 0.383005,-0.28791 0.716951,-0.64745 0.942558,-1.07017 0.225607,-0.42271 0.33915,-0.9105 0.285864,-1.38668 -0.04272,-0.38175 -0.192681,-0.75092 -0.428277,-1.05433 -0.235595,-0.3034 -0.556123,-0.54013 -0.915398,-0.67607 -0.359274,-0.13594 -0.756225,-0.17069 -1.133656,-0.0993 -0.377431,0.0715 -0.734217,0.24888 -1.018948,0.50673"
         style="fill:none;stroke:#000000;stroke-width:0.26458332px;stroke-linecap:butt;stroke-linejoin:miter;stroke-opacity:1" />
      <path
         sodipodi:nodetypes="cscccccccccc"
         inkscape:original-d="m 25.067982,263.06486 c 3.162955,-5.03384 6.514632,-10.20916 9.677056,-15.24247 3.162424,-5.03331 0.668438,-0.5348 1.00226,-0.80181 0.333822,-0.267 0.891164,0.62337 1.33635,0.93544 0.445182,0.31208 1.024797,1.247 1.536798,1.87089 0.512003,0.6239 1.514792,1.29154 2.271791,1.93771 0.757,0.64616 1.871152,1.69244 2.80633,2.53906 0.93518,0.84661 2.138421,1.20244 3.207234,1.80407 1.068814,0.60162 0.93571,0.22246 1.403165,0.33408 0.467458,0.11163 1.425702,0.17792 2.138156,0.26727 0.712454,0.0894 0.980255,0.48973 1.469983,0.73499 0.48973,0.24526 0.401169,0.44519 0.601358,0.66818"
         inkscape:path-effect="#path-effect15944"
         inkscape:connector-curvature="0"
         id="path15942"
         d="m 25.067982,263.06486 c 2.973525,-5.23518 6.204399,-10.32418 9.677056,-15.24247 0.127382,-0.18041 0.256389,-0.36208 0.41905,-0.51146 0.162662,-0.14939 0.363713,-0.26596 0.58321,-0.29035 0.142157,-0.0158 0.287353,0.008 0.42098,0.0588 0.133628,0.051 0.25603,0.1289 0.365408,0.22107 0.218755,0.18433 0.384067,0.42256 0.549962,0.65561 0.468593,0.65827 0.964575,1.3004 1.536798,1.87089 0.705133,0.703 1.516918,1.28841 2.271791,1.93771 0.956595,0.8228 1.822574,1.74893 2.80633,2.53906 0.961348,0.77213 2.038006,1.41256 3.207234,1.80407 0.456563,0.15288 0.926305,0.26755 1.403165,0.33408 0.71205,0.0994 1.440932,0.0919 2.138156,0.26727 0.535854,0.1348 1.047205,0.37922 1.469983,0.73499 0.230006,0.19355 0.433024,0.41913 0.601358,0.66818"
         style="fill:none;stroke:#000000;stroke-width:0.26458332px;stroke-linecap:butt;stroke-linejoin:miter;stroke-opacity:1" />
      <path
         inkscape:original-d="m 24.989701,262.98994 c 2.249783,0.95745 4.499302,1.91516 6.748554,2.87314 2.249254,0.95798 5.523836,2.09335 8.285355,3.14042 2.761523,1.04707 2.361147,0.66791 3.541324,1.00226 1.180174,0.33435 5.479288,1.73699 8.218537,2.60588 2.739248,0.86889 2.65e-4,4.45423 0,6.68174 -2.64e-4,2.22751 -1.692444,3.20697 -2.53906,4.81085 -0.846619,1.60388 -1.915168,2.71697 -2.873148,4.07586 -0.957982,1.35888 -2.761522,0.71245 -4.142679,1.06908 -1.381156,0.35662 -5.21149,0.13337 -7.817633,0.20045 -2.606143,0.0671 -3.29606,-1.29207 -4.944485,-1.93771 -1.648429,-0.64563 -1.781533,-3.29658 -2.672697,-4.94448 -0.891162,-1.6479 -0.133368,-1.55934 -0.200451,-2.33861 -0.06708,-0.77927 1.069343,-2.18297 1.603616,-3.27405 0.534276,-1.09109 2.405692,-1.29207 3.608139,-1.93771 1.202449,-0.64563 2.58387,-0.9357 3.875407,-1.40316 1.29154,-0.46746 2.138424,-2.7e-4 3.207237,0 1.068813,2.6e-4 0.846616,-2.7e-4 1.269529,0"
         inkscape:path-effect="#path-effect15948"
         inkscape:connector-curvature="0"
         id="path15946"
         d="m 24.989701,262.98994 c 2.234002,0.99363 4.483904,1.9515 6.748554,2.87314 2.735975,1.11345 5.493986,2.17419 8.285355,3.14042 1.160582,0.40173 2.33194,0.78841 3.541324,1.00226 1.457104,0.25765 2.951252,0.26114 4.404599,0.5392 0.726673,0.13903 1.444285,0.34804 2.104908,0.68115 0.660623,0.3331 1.264153,0.79437 1.70903,1.38553 0.702983,0.93413 0.970591,2.14662 0.907555,3.31402 -0.06304,1.1674 -0.434825,2.29846 -0.907555,3.36772 -0.733421,1.65891 -1.711385,3.1969 -2.53906,4.81085 -0.38386,0.74852 -0.736346,1.51514 -1.18163,2.22883 -0.445284,0.71369 -0.991955,1.37986 -1.691518,1.84703 -0.599624,0.40043 -1.293477,0.64236 -1.99874,0.79234 -0.705263,0.14998 -1.425862,0.2115 -2.143939,0.27674 -2.601538,0.23635 -5.225672,0.5254 -7.817633,0.20045 -1.782095,-0.22342 -3.582194,-0.76726 -4.944485,-1.93771 -1.446355,-1.24267 -2.266399,-3.08139 -2.672697,-4.94448 -0.167369,-0.76747 -0.272485,-1.55641 -0.200451,-2.33861 0.113985,-1.23773 0.689584,-2.43172 1.603616,-3.27405 1.009371,-0.93019 2.347639,-1.39436 3.608139,-1.93771 1.265794,-0.54563 2.512093,-1.19988 3.875407,-1.40316 1.05918,-0.15793 2.136918,-0.035 3.207237,0 0.423026,0.0138 0.846503,0.0138 1.269529,0"
         style="fill:none;stroke:#000000;stroke-width:0.26458332px;stroke-linecap:butt;stroke-linejoin:miter;stroke-opacity:1" />
      <path
         sodipodi:nodetypes="ccccccsccsccccc"
         inkscape:original-d="m 52.48152,258.06131 c 0.133901,0.31155 0.08175,0.54069 0.237394,0.85277 0.155644,0.31207 -0.177917,0.62336 -0.267269,0.93544 -0.08935,0.31208 -0.890635,-0.22299 -1.33635,-0.33409 -0.445711,-0.1111 -0.222459,-0.66844 -0.334086,-1.00226 -0.111625,-0.33382 -1.291537,-0.35662 -1.937703,-0.53454 -0.646165,-0.17791 -2.004258,-0.66844 -3.006783,-1.00226 -1.002525,-0.33382 -2.583341,-1.47025 -3.875408,-2.20497 -1.292066,-0.73473 -2.004255,-1.69297 -3.006783,-2.53906 -1.002525,-0.84609 -1.336082,-1.24753 -2.00452,-1.87089 -0.668438,-0.62336 -1.246995,0.26701 -1.870887,0.4009 -0.623893,0.1339 -1.959711,3.47424 -2.939966,5.21176 -0.980252,1.73752 -1.781532,3.38515 -2.672693,5.07812 -0.891165,1.69297 -1.246995,1.6479 -1.870888,2.47224 -0.623892,0.82435 -0.356094,0.22246 -0.534537,0.33409"
         inkscape:path-effect="#path-effect15952"
         inkscape:connector-curvature="0"
         id="path15950"
         d="m 52.48152,258.06131 c 0.129666,0.26684 0.210526,0.55731 0.237394,0.85277 0.01521,0.16725 0.01305,0.33762 -0.02656,0.50082 -0.03961,0.16319 -0.11849,0.31944 -0.240706,0.43462 -0.0972,0.0916 -0.220048,0.15516 -0.350381,0.18435 -0.130333,0.0292 -0.267811,0.0243 -0.396509,-0.0114 -0.257397,-0.0714 -0.473082,-0.26655 -0.58946,-0.50699 -0.07703,-0.15914 -0.112661,-0.33447 -0.15266,-0.50669 -0.04,-0.17221 -0.0864,-0.34648 -0.181426,-0.49557 -0.09417,-0.14773 -0.233002,-0.26417 -0.388208,-0.34544 -0.155207,-0.0813 -0.326534,-0.12857 -0.4998,-0.1545 -0.346534,-0.0518 -0.699617,-0.0198 -1.049695,-0.0346 -1.064176,-0.0449 -2.058605,-0.51703 -3.006783,-1.00226 -1.323629,-0.67737 -2.626,-1.39887 -3.875408,-2.20497 -1.107309,-0.71442 -2.186116,-1.50802 -3.006783,-2.53906 -0.290246,-0.36465 -0.546453,-0.75692 -0.859611,-1.10209 -0.313159,-0.34517 -0.694995,-0.64719 -1.144909,-0.7688 -0.317245,-0.0857 -0.656146,-0.0774 -0.975598,-2.8e-4 -0.319453,0.0771 -0.620258,0.2213 -0.895289,0.40118 -0.850423,0.55619 -1.441039,1.43665 -1.8652,2.36004 -0.424161,0.9234 -0.703167,1.90595 -1.074766,2.85172 -0.700224,1.78217 -1.721563,3.41626 -2.672693,5.07812 -0.517174,0.90363 -1.038875,1.84632 -1.870888,2.47224 -0.168118,0.12647 -0.347183,0.23839 -0.534537,0.33409"
         style="fill:none;stroke:#000000;stroke-width:0.26458332px;stroke-linecap:butt;stroke-linejoin:miter;stroke-opacity:1" />
      <path
         sodipodi:nodetypes="ccsccc"
         inkscape:original-d="m 40.05094,273.67701 c 0.60162,-0.46798 1.309284,-1.06564 1.910375,-1.53309 0.601091,-0.46746 0.668438,-0.22299 1.002261,-0.33409 0.333822,-0.1111 1.425702,0.13337 2.138156,0.20045 0.712454,0.0671 0.534805,0.62337 0.801809,0.93545 0.267004,0.31207 0.579347,0.53427 0.868627,0.8018"
         inkscape:path-effect="#path-effect15956"
         inkscape:connector-curvature="0"
         id="path15954"
         d="m 40.05094,273.67701 c 0.489793,-0.66478 1.155311,-1.19886 1.910375,-1.53309 0.32243,-0.14272 0.659985,-0.24936 1.002261,-0.33409 0.359267,-0.0889 0.72806,-0.15425 1.097817,-0.1381 0.369758,0.0161 0.742829,0.11839 1.040339,0.33855 0.331352,0.2452 0.544303,0.61357 0.801809,0.93545 0.247087,0.30886 0.541017,0.58018 0.868627,0.8018"
         style="fill:none;stroke:#000000;stroke-width:0.26458332px;stroke-linecap:butt;stroke-linejoin:miter;stroke-opacity:1" />
      <path
         inkscape:original-d="m 46.638532,273.74753 c -0.512003,0.15565 -1.024268,0.31155 -1.5368,0.46773 -0.51253,0.15617 -0.979723,0.13337 -1.469983,0.20045"
         inkscape:path-effect="#path-effect15964"
         inkscape:connector-curvature="0"
         id="path15962"
         d="m 46.638532,273.74753 c -0.498123,0.19814 -1.012751,0.35477 -1.5368,0.46773 -0.483901,0.1043 -0.975822,0.17138 -1.469983,0.20045"
         style="fill:none;stroke:#000000;stroke-width:0.26458332px;stroke-linecap:butt;stroke-linejoin:miter;stroke-opacity:1" />
      <path
         inkscape:original-d="m 45.970359,272.94573 c 0.557075,0.0665 1.113888,0.13337 1.670433,0.20045 0.556549,0.0671 0.93571,0.48973 1.403165,0.73499 0.467458,0.24526 0.49026,0.44518 0.734991,0.66817 0.244732,0.22299 -0.04428,0.93518 -0.06682,1.40317 -0.02254,0.46798 -0.177914,1.33608 -0.267269,2.00452 -0.08935,0.66844 -0.40064,1.55881 -0.601356,2.33861 -0.200718,0.7798 -1.736987,2.67243 -2.605878,4.00904 -0.868892,1.33661 -1.246992,1.33608 -1.870888,2.00452 -0.623892,0.66844 -3.830597,0.53428 -5.746294,0.80181 -1.915695,0.26753 -3.474239,-0.0894 -5.211755,-0.13363 -1.737516,-0.0443 -1.469718,-0.84662 -2.204974,-1.26954 -0.735256,-0.42291 -0.935178,-2.2275 -1.403165,-3.34086 -0.467987,-1.11336 0.445715,-2.49478 0.668174,-3.74178 0.222459,-1.24699 3.474767,-1.69297 5.211754,-2.53906 1.73699,-0.84609 3.029321,-0.35662 4.543584,-0.53454 1.514263,-0.17791 0.712983,0.53428 1.069078,0.80181 0.356095,0.26754 1.024797,0.3561 1.5368,0.53454 0.512001,0.17845 1.024798,-0.17844 1.536798,-0.26727 0.512003,-0.0888 1.826607,-0.35662 2.739515,-0.53454 0.912905,-0.17791 0.356624,-0.71298 0.534537,-1.06908 0.177917,-0.35609 -0.133368,-0.40117 -0.200451,-0.60135 -0.06708,-0.20019 -0.445185,-0.44572 -0.668173,-0.66818"
         inkscape:path-effect="#path-effect15968"
         inkscape:connector-curvature="0"
         id="path15966"
         d="m 45.970359,272.94573 c 0.562425,-0.0593 1.13801,0.01 1.670433,0.20045 0.49802,0.17838 0.952062,0.45868 1.403165,0.73499 0.143226,0.0877 0.287125,0.17565 0.416614,0.28262 0.129489,0.10698 0.244993,0.23447 0.318377,0.38555 0.104554,0.21525 0.117225,0.46503 0.0873,0.70245 -0.02992,0.23742 -0.0999,0.46764 -0.154123,0.70072 -0.152833,0.65697 -0.180271,1.33565 -0.267269,2.00452 -0.104109,0.80043 -0.295057,1.59181 -0.601356,2.33861 -0.606712,1.47924 -1.640821,2.73432 -2.605878,4.00904 -0.554486,0.73241 -1.10683,1.49452 -1.870888,2.00452 -0.817663,0.54578 -1.816526,0.75775 -2.797861,0.81627 -0.981335,0.0585 -1.96541,-0.0249 -2.948433,-0.0145 -1.745219,0.0186 -3.52887,0.32901 -5.211755,-0.13363 -0.827891,-0.22759 -1.613113,-0.64753 -2.204974,-1.26954 -0.846658,-0.88979 -1.241117,-2.12336 -1.403165,-3.34086 -0.08561,-0.64323 -0.113559,-1.29819 -0.02014,-1.94033 0.09342,-0.64214 0.312096,-1.27274 0.688311,-1.80145 0.571329,-0.80291 1.465425,-1.32063 2.387106,-1.66931 0.921682,-0.34868 1.891971,-0.55165 2.824648,-0.86975 0.746373,-0.25456 1.470607,-0.58338 2.240652,-0.75339 0.385023,-0.085 0.78104,-0.12951 1.174382,-0.10212 0.393341,0.0274 0.784513,0.12834 1.12855,0.32097 0.389103,0.21786 0.705284,0.5439 1.069078,0.80181 0.449556,0.31872 0.985727,0.53406 1.5368,0.53454 0.520951,4.6e-4 1.022012,-0.18736 1.536798,-0.26727 0.466515,-0.0724 0.942055,-0.0558 1.412293,-0.0977 0.470238,-0.0419 0.952064,-0.15024 1.327222,-0.43684 0.164846,-0.12593 0.305693,-0.28495 0.401578,-0.46891 0.09588,-0.18395 0.145807,-0.39312 0.132959,-0.60017 -0.01321,-0.21288 -0.09165,-0.4179 -0.200451,-0.60135 -0.16236,-0.27376 -0.39441,-0.50582 -0.668173,-0.66818"
         style="fill:none;stroke:#000000;stroke-width:0.26458332px;stroke-linecap:butt;stroke-linejoin:miter;stroke-opacity:1" />
      <path
         sodipodi:nodetypes="cssc"
         inkscape:original-d="m 41.753452,272.27385 c -2.360615,-0.60162 -4.981357,-1.33291 -7.342501,-1.934 -2.361144,-0.60109 -4.231502,-1.69297 -6.34765,-2.53906 -2.116149,-0.84609 -1.959713,-0.35663 -2.939966,-0.53454"
         inkscape:path-effect="#path-effect15976"
         inkscape:connector-curvature="0"
         id="path15974"
         d="m 41.753452,272.27385 c -2.513833,-0.34378 -4.985499,-0.99481 -7.342501,-1.934 -2.118598,-0.84419 -4.151992,-1.92245 -6.34765,-2.53906 -0.960369,-0.2697 -1.946125,-0.44893 -2.939966,-0.53454"
         style="fill:none;stroke:#000000;stroke-width:0.26458332px;stroke-linecap:butt;stroke-linejoin:miter;stroke-opacity:1" />
      <path
         inkscape:original-d="m 27.261492,263.92538 c 1.314338,-0.28981 2.628415,-0.57935 3.942225,-0.86863 1.31381,-0.28927 1.514793,-0.98025 2.271792,-1.46998 0.756999,-0.48973 1.871149,-0.17844 2.806329,-0.26727 0.935178,-0.0888 2.450235,-0.66844 3.674957,-1.00226 1.224719,-0.33382 1.96024,-2.6e-4 2.939963,0 0.979725,2.6e-4 1.470247,-0.71298 2.204974,-1.06908 0.734726,-0.35609 3.652948,0.26701 5.479026,0.40091 1.826077,0.1339 0.445714,0.0888 0.668173,0.13363"
         inkscape:path-effect="#path-effect15980"
         inkscape:connector-curvature="0"
         id="path15978"
         d="m 27.261492,263.92538 c 1.360985,0.19876 2.790806,-0.11629 3.942225,-0.86863 0.75819,-0.49541 1.413989,-1.17937 2.271792,-1.46998 0.446492,-0.15126 0.923481,-0.18612 1.394748,-0.19806 0.471268,-0.0119 0.944935,-0.002 1.411581,-0.0692 0.630141,-0.0904 1.23108,-0.31774 1.830066,-0.53328 0.598987,-0.21554 1.210007,-0.42246 1.844891,-0.46898 0.490569,-0.036 0.982262,0.0249 1.472568,0.0643 0.490306,0.0394 0.990568,0.0565 1.467395,-0.0643 0.793884,-0.20108 1.445792,-0.76195 2.204974,-1.06908 0.863808,-0.34945 1.832078,-0.35497 2.753458,-0.2159 0.92138,0.13907 1.815718,0.41568 2.725568,0.61681 0.221796,0.049 0.44458,0.0936 0.668173,0.13363"
         style="fill:none;stroke:#000000;stroke-width:0.26458332px;stroke-linecap:butt;stroke-linejoin:miter;stroke-opacity:1" />
      <path
         transform="matrix(0.26458333,0,0,0.26458333,0,243.55415)"
         inkscape:connector-curvature="0"
         id="path15982"
         d="m 39.976139,52.767914 c -3.185426,0.431778 -4.337018,4.184809 -5.458984,6.713169 -2.03701,6.063799 -3.922073,12.259751 -5.088588,18.527484 -1.266697,3.895095 -1.854562,8.045066 -3.496486,11.837231 -6.173162,14.850372 -9.569899,30.753682 -10.438975,46.796682 -0.528109,8.13914 -1.310453,16.43592 -4.797798,23.9205 -1.1408919,2.8972 -2.3505813,7.09612 0.781947,9.21456 2.184512,1.7081 5.020083,-0.32905 6.545062,-1.99847 1.779316,-3.25355 0.732292,-7.23286 1.131449,-10.76663 -0.0035,-12.11288 0.409023,-24.46933 4.614923,-35.97235 3.24795,-10.16077 9.478914,-19.75497 9.318499,-30.744274 -0.05932,-5.130527 -1.802111,-11.078966 1.67341,-15.511998 2.222776,-2.705032 6.738706,-2.934686 8.917411,-0.03976 2.768291,3.056217 2.921548,8.185157 7.011719,10.099749 5.657554,2.653554 12.158372,1.269116 18.093797,0.501712 2.595953,-0.648614 5.251446,-0.653496 7.779528,0.302557 1.925197,0.736496 3.623718,-0.537037 4.842354,-1.90081 3.875421,-3.381104 10.617393,-2.192069 12.780414,2.600447 0.551786,1.285807 0.932525,3.363114 2.813897,3.062221 15.194322,1.893628 28.354572,10.514689 42.888532,14.762836 5.68121,1.66303 11.48869,3.28042 17.40653,3.68304 4.12923,-0.86698 8.8365,-3.44284 12.81738,-0.83497 2.05466,0.8927 2.77447,3.84122 5.35913,3.5483 4.67959,0.2927 9.118,2.59144 12.52731,5.72068 2.08842,2.78039 -0.0959,6.28374 -0.16294,9.36232 -0.58142,6.85587 -2.25901,13.74432 -6.22866,19.47417 -3.84627,5.54507 -7.60345,11.30407 -12.57394,15.92146 -5.38657,4.5673 -12.9872,3.76162 -19.55827,4.11369 -7.20034,-0.0988 -14.48436,0.6818 -21.63174,-0.31835 -6.48851,-1.1114 -12.29805,-5.77995 -14.22154,-12.16658 -1.58981,-5.25308 -2.21744,-11.07018 -0.7115,-16.40276 2.03697,-6.75743 9.05238,-9.90889 15.26576,-11.77036 5.69924,-1.40845 11.05981,-4.20734 16.89105,-4.9435 3.46415,-0.55991 6.94647,0.4072 9.56892,2.77343 2.70883,2.3161 6.27632,3.83595 9.86537,2.89342 4.03628,-1.02619 8.35522,-0.66996 12.29771,-2.03683 2.91467,-1.19881 3.61001,-5.36721 1.18304,-7.40653 -1.06825,-2.1522 -3.05682,-0.50876 -4.73982,-0.21624 -2.70129,0.55067 -5.50298,1.52607 -8.22893,1.41113 -0.30688,-1.01631 1.66781,-0.74421 2.25028,-0.98075 2.81154,-0.487 5.85425,-0.99861 8.35867,-2.1568 -2.08267,-1.7453 -3.36031,-4.28006 -5.50153,-5.91797 -4.34045,-2.55743 -9.69843,-0.48871 -13.63421,1.89802 -2.01878,1.08459 -3.46067,3.20128 -5.37177,4.20217 -6.20307,0.22014 -12.55005,-0.80754 -18.66143,0.56415 -7.62839,2.60174 -15.11579,5.75587 -22.23005,9.54799 -7.22673,4.14692 -10.74902,13.18753 -8.88036,21.20955 1.53893,9.22081 5.95018,18.72584 14.5384,23.29157 8.41097,4.51576 18.29254,5.24091 27.66533,4.85388 8.72839,-0.59711 17.56339,-0.93219 26.12557,-2.82877 6.79763,-1.65661 11.15835,-7.6651 14.06041,-13.62654 4.67232,-9.57157 10.79093,-18.54396 13.98437,-28.77511 2.145,-7.28039 0.97188,-16.34591 -5.3962,-21.18443 -6.76312,-5.22611 -15.8085,-5.10056 -23.88463,-6.19629 C 157.61815,99.655327 147.57749,95.097202 137.38235,91.555116 123.27269,86.352815 109.49564,80.309326 95.592768,74.604549 81.467196,69.23609 65.915875,68.546592 51.082446,70.766658 c -1.821596,0.146138 -0.488857,2.231546 -0.269253,3.168946 0.275046,0.967355 0.765846,2.73314 2.147739,1.981026 3.541396,-0.555269 7.449132,-1.698914 10.695453,0.434571 2.070672,1.116558 4.693193,-0.05413 6.660158,1.060965 1.423317,2.065605 -1.536854,4.174923 -3.476565,3.420759 -3.2126,-1.109591 -6.420393,0.154918 -9.594725,0.634766 -3.40355,0.453219 -5.56395,-3.147027 -6.653182,-5.871931 -2.688861,-6.641252 -3.8538,-13.858837 -6.933593,-20.340402 -0.81893,-1.238 -2.111503,-2.467771 -3.682339,-2.487444 z"
         style="opacity:1;fill:#ffb380;fill-opacity:1;fill-rule:evenodd;stroke:#ffb380;stroke-width:0.35714287" />
      <path
         transform="matrix(0.26458333,0,0,0.26458333,0,243.55415)"
         inkscape:connector-curvature="0"
         id="path15984"
         d="m 135.2719,13.49336 c -2.872,0.649573 -3.89295,3.998479 -5.7111,5.971841 -11.98633,17.31676 -23.50019,35.006036 -33.712032,53.431758 -0.05347,1.074764 1.829205,1.268828 2.515612,1.855386 1.6608,0.620739 3.75763,2.337742 5.33386,0.602064 5.2939,-4.359007 7.91754,-10.956664 11.44456,-16.661457 4.37563,-7.190911 7.0442,-15.202047 10.14654,-22.963264 2.41714,-5.051076 6.81134,-10.558257 12.88435,-10.584542 4.95494,0.19495 7.37566,5.321844 10.41573,8.473791 5.58309,6.238347 13.18776,10.156283 20.31378,14.336906 5.63443,2.935248 11.46554,6.521266 18.06792,6.146473 2.78234,-0.153982 5.63895,1.515218 6.12304,4.391043 0.33493,1.903382 2.47491,4.606446 4.49917,2.947825 2.73945,-2.758468 0.42631,-7.341393 -2.37235,-9.126675 -5.54167,-3.706168 -12.68446,-2.318175 -18.68991,-4.773649 -10.38241,-3.448957 -17.38413,-12.390497 -25.65695,-19.037577 -4.72392,-3.715286 -8.63705,-8.2944 -12.26587,-13.047032 -0.87984,-0.922322 -1.9465,-2.043154 -3.33635,-1.962891 z"
         style="opacity:1;fill:#ffb380;fill-opacity:1;fill-rule:evenodd;stroke:#ffb380;stroke-width:0.35714287" />
      <path
         transform="matrix(0.26458333,0,0,0.26458333,0,243.55415)"
         inkscape:connector-curvature="0"
         id="path15986"
         d="m 8.1415967,69.632451 c -3.287897,-0.191159 -3.1234654,5.791292 0.108817,5.462472 2.5101383,-0.380862 5.0065193,-1.635009 7.5555213,-0.574748 2.787214,0.861969 5.458434,2.43454 8.499166,1.956584 1.525782,-0.442172 4.553285,0.998347 4.733723,-1.195556 C 29.06016,74.487864 30.299366,72.649026 28.638946,72.9423 22.163694,72.707898 15.688069,71.923285 9.5548221,69.762194 9.0903885,69.668451 8.6159878,69.611717 8.1415967,69.632451 Z"
         style="opacity:1;fill:#ffb380;fill-opacity:1;fill-rule:evenodd;stroke:#ffb380;stroke-width:0.35714287" />
      <path
         transform="matrix(0.26458333,0,0,0.26458333,0,243.55415)"
         inkscape:connector-curvature="0"
         id="path15988"
         d="m 39.105604,73.525447 c -3.902663,0.255975 -6.101736,4.680248 -5.53153,8.228237 0.259153,7.458368 0.842669,15.254195 -2.306423,22.241276 -4.334335,11.55843 -9.795179,23.0073 -10.646981,35.51682 -0.246526,4.90573 -0.866186,9.89069 -0.376674,14.77818 0.9234,0.65556 1.845203,-1.1564 2.595564,-1.52274 2.607854,-2.64163 6.7291,-1.90915 9.790736,-3.74512 3.527793,-1.43939 5.153864,-5.05513 7.574638,-7.6709 3.593955,-2.90392 7.510539,-5.74998 12.100307,-6.69922 6.753566,-2.26577 12.497784,-7.31919 15.306273,-13.90613 2.885889,-5.54342 4.751279,-12.22267 10.031339,-16.03946 4.574422,-3.1917 10.405843,-4.59377 14.282225,-8.736746 3.072415,-3.288695 3.071375,-9.111556 -0.708007,-11.872908 -2.947828,-2.643579 -7.578593,-1.726809 -10.070453,1.075614 -2.032211,2.305787 -5.161847,1.246741 -7.691822,0.625 -5.045146,-0.09892 -9.988946,1.664845 -15.067657,1.337472 -4.321462,0.24687 -9.452901,-0.822833 -11.54716,-5.076311 -1.907673,-2.76833 -2.657097,-6.943857 -6.039342,-8.353097 -0.549069,-0.159037 -1.126351,-0.192925 -1.695033,-0.179967 z"
         style="opacity:1;fill:#ffe6d5;fill-opacity:1;fill-rule:evenodd;stroke:#ffe6d5;stroke-width:0.35714287" />
      <path
         transform="matrix(0.26458333,0,0,0.26458333,0,243.55415)"
         inkscape:connector-curvature="0"
         id="path15990"
         d="m 137.43987,26.038003 c -6.10419,0.564548 -9.82849,6.402745 -11.97493,11.554223 -2.36155,5.669231 -4.12314,11.583162 -7.19463,16.944409 -3.69841,6.73989 -7.08467,13.793042 -12.00999,19.74286 -0.42646,0.80956 -2.30618,1.249971 -1.86454,2.294921 2.92769,0.568929 6.10174,-0.169039 8.9216,-1.088171 5.24659,-1.66304 8.76113,-6.541854 14.07296,-7.958983 5.17549,-0.896867 10.67322,-0.255642 15.58615,-2.529392 2.96555,-1.127518 5.92896,-2.26384 9.15995,-1.820497 3.34876,-0.123303 6.80978,0.24375 10.09221,-0.169839 4.85371,-2.194432 9.59865,-5.749754 15.20703,-5.145452 5.13998,0.0039 10.10832,2.094076 15.1423,2.508371 -0.0939,-2.058312 -0.98479,-4.652006 -3.35101,-5.008371 -3.34978,-0.696959 -6.88787,-0.234711 -10.09905,-1.671317 -9.64851,-4.014039 -18.93684,-9.145768 -27.11356,-15.664062 -3.98631,-2.848117 -6.27647,-7.306323 -9.92815,-10.476423 -1.29501,-1.074262 -2.96561,-1.626749 -4.64634,-1.512277 z"
         style="opacity:1;fill:#ffe6d5;fill-opacity:1;fill-rule:evenodd;stroke:#ffe6d5;stroke-width:0.35714287" />
      <path
         inkscape:original-d="m 43.030393,272.74527 c 0.155644,-0.31155 -0.445185,0.44519 -0.668173,0.66818 -0.222991,0.22299 0.133898,0.17791 0.200451,0.26727 0.06655,0.0893 0.312079,-0.6239 0.467722,-0.93545 z"
         inkscape:path-effect="#path-effect15994"
         inkscape:connector-curvature="0"
         id="path15992"
         d="m 43.030393,272.74527 c -0.09247,-0.0308 -0.193543,-0.0354 -0.288408,-0.013 -0.09487,0.0224 -0.183233,0.0717 -0.252156,0.14058 -0.06892,0.0689 -0.118191,0.1573 -0.140586,0.25216 -0.02239,0.0949 -0.01785,0.19594 0.01298,0.28841 0.03583,0.10749 0.107291,0.20277 0.200451,0.26727 0.123975,0.0858 0.285712,0.11482 0.431782,0.0774 0.146069,-0.0374 0.273942,-0.14061 0.341375,-0.27548 0.06743,-0.13487 0.07326,-0.29908 0.01556,-0.43839 -0.0577,-0.13931 -0.177942,-0.2513 -0.320991,-0.29898 z"
         style="fill:none;stroke:#000000;stroke-width:0.26458332px;stroke-linecap:butt;stroke-linejoin:miter;stroke-opacity:1" />
      <path
         inkscape:transform-center-y="0.0052184236"
         inkscape:transform-center-x="0.0051331135"
         d="m 42.6995,273.15204 c 0.256144,-0.40682 -0.339231,-0.0335 0.138534,-0.0869 0.477766,-0.0534 -0.185329,-0.2861 0.154291,0.0541 0.33962,0.34025 0.10813,-0.32327 0.05386,0.15439 -0.05427,0.47767 0.320166,-0.11702 -0.08712,0.13838 -0.407289,0.25539 0.291109,0.17735 -0.162506,0.0182 -0.453614,-0.15919 0.04284,0.33818 -0.115517,-0.11573 -0.158359,-0.4539 -0.237685,0.24435 0.01846,-0.16247 z"
         inkscape:randomized="0"
         inkscape:rounded="2.94"
         inkscape:flatsided="true"
         sodipodi:arg2="-2.1308721"
         sodipodi:arg1="-2.5796711"
         sodipodi:r2="0.16977282"
         sodipodi:r1="0.18843362"
         sodipodi:cy="273.25244"
         sodipodi:cx="42.858959"
         sodipodi:sides="7"
         id="path15996"
         style="opacity:1;fill:#ffe6d5;fill-opacity:1;fill-rule:evenodd;stroke:#ffe6d5;stroke-width:0.26458332"
         sodipodi:type="star" />
      <path
         inkscape:original-d="m 39.990201,273.56379 c -0.03871,0.58438 -0.07769,1.16904 -0.11693,1.75395 -0.03924,0.58492 0.222991,0.21133 0.334087,0.31738"
         inkscape:path-effect="#path-effect16000"
         inkscape:connector-curvature="0"
         id="path15998"
         d="m 39.990201,273.56379 c -0.222683,0.22821 -0.36065,0.53727 -0.381859,0.85542 -0.02121,0.31814 0.07451,0.64278 0.264929,0.89853 0.09218,0.12381 0.205719,0.23167 0.334087,0.31738"
         style="fill:none;stroke:#000000;stroke-width:0.26458332px;stroke-linecap:butt;stroke-linejoin:miter;stroke-opacity:1" />
      <path
         inkscape:original-d="m 37.467846,273.53038 c -0.389503,0.73472 -0.779272,1.46972 -1.169304,2.20497 -0.390033,0.73526 0.07822,0.0443 0.11693,0.0668"
         inkscape:path-effect="#path-effect16004"
         inkscape:connector-curvature="0"
         id="path16002"
         d="m 37.467846,273.53038 c -0.285337,-0.12144 -0.616325,-0.13169 -0.908633,-0.0282 -0.292308,0.10354 -0.543047,0.31985 -0.688331,0.59381 -0.145285,0.27397 -0.183678,0.60288 -0.105399,0.90294 0.07828,0.30006 0.272456,0.5683 0.533059,0.73638 0.03774,0.0243 0.07679,0.0466 0.11693,0.0668"
         style="fill:none;stroke:#000000;stroke-width:0.26458332px;stroke-linecap:butt;stroke-linejoin:miter;stroke-opacity:1" />
      <path
         inkscape:original-d="m 32.456544,274.71638 c -0.16678,0.83495 -0.322686,1.68131 -0.484426,2.52236 -0.16174,0.84105 0.133898,0.0666 0.200451,0.10023"
         inkscape:path-effect="#path-effect16008"
         inkscape:connector-curvature="0"
         id="path16006"
         d="m 32.456544,274.71638 c -0.273614,0.0459 -0.532276,0.17719 -0.730758,0.37103 -0.198482,0.19383 -0.335899,0.44931 -0.388224,0.72176 -0.05232,0.27246 -0.01932,0.56066 0.09323,0.81424 0.112556,0.25357 0.304165,0.47137 0.541325,0.61533 0.06393,0.0388 0.131048,0.0724 0.200451,0.10023"
         style="fill:none;stroke:#000000;stroke-width:0.26458332px;stroke-linecap:butt;stroke-linejoin:miter;stroke-opacity:1" />
      <path
         inkscape:original-d="m 8.4858073,275.28433 c 0.1338995,1.09109 0.3120792,2.27153 0.4677217,3.40769 0.1556427,1.13616 0.3566239,1.55881 0.534539,2.33861 0.1779151,0.7798 -0.1333701,0.66791 -0.200452,1.00226"
         inkscape:path-effect="#path-effect16020"
         inkscape:connector-curvature="0"
         id="path16018"
         d="m 8.4858073,275.28433 c -0.022006,1.15097 0.1364192,2.30521 0.4677217,3.40769 0.2312377,0.76949 0.5495661,1.53527 0.534539,2.33861 -0.00641,0.34246 -0.074649,0.68368 -0.200452,1.00226"
         style="fill:none;stroke:#000000;stroke-width:0.26458332px;stroke-linecap:butt;stroke-linejoin:miter;stroke-opacity:1" />
      <path
         inkscape:original-d="m 10.95805,266.86534 c 0.401169,0.89064 0.802074,1.78154 1.202713,2.6727 0.40064,0.89116 0.356624,1.78153 0.534539,2.67269 0.177916,0.89117 0.534804,2.09335 0.801809,3.14042 0.267005,1.04707 1.024798,1.11336 1.5368,1.67044 0.512002,0.55707 0.356624,0.48972 0.534539,0.73499"
         inkscape:path-effect="#path-effect16024"
         inkscape:connector-curvature="0"
         id="path16022"
         d="m 10.95805,266.86534 c 0.512598,0.8348 0.917875,1.73541 1.202713,2.6727 0.26451,0.8704 0.424867,1.76963 0.534539,2.67269 0.06575,0.54142 0.113655,1.08605 0.22272,1.62043 0.109065,0.53439 0.282117,1.06253 0.579089,1.51999 0.412708,0.63574 1.038607,1.09921 1.5368,1.67044 0.199376,0.2286 0.378485,0.47488 0.534539,0.73499"
         style="fill:none;stroke:#000000;stroke-width:0.26458332px;stroke-linecap:butt;stroke-linejoin:miter;stroke-opacity:1" />
      <path
         inkscape:original-d="m 17.172067,267.8676 c 0.512531,0.40064 1.024798,0.80155 1.5368,1.20272 0.512002,0.40117 0.222989,0.57882 0.334087,0.86862 0.111097,0.28981 0.356624,0.66791 0.534539,1.00226"
         inkscape:path-effect="#path-effect16028"
         inkscape:connector-curvature="0"
         id="path16026"
         d="m 17.172067,267.8676 c 0.654715,0.15047 1.233398,0.60335 1.5368,1.20272 0.140202,0.27697 0.222749,0.57884 0.334087,0.86862 0.136142,0.35434 0.316125,0.6918 0.534539,1.00226"
         style="fill:none;stroke:#000000;stroke-width:0.26458332px;stroke-linecap:butt;stroke-linejoin:miter;stroke-opacity:1" />
      <path
         inkscape:original-d="m 32.874151,257.37728 c 0.156173,1.00199 0.312078,2.00425 0.467722,3.00678 0.155644,1.00252 -0.222459,0.48973 -0.334087,0.73499"
         inkscape:path-effect="#path-effect16032"
         inkscape:connector-curvature="0"
         id="path16030"
         d="m 32.874151,257.37728 c 0.60801,0.85773 0.786457,2.00489 0.467722,3.00678 -0.08178,0.25706 -0.194186,0.50435 -0.334087,0.73499"
         style="fill:none;stroke:#000000;stroke-width:0.26458332px;stroke-linecap:butt;stroke-linejoin:miter;stroke-opacity:1" />
      <path
         inkscape:original-d="m 36.950012,252.90051 c -0.06655,0.93518 -0.133371,1.87062 -0.200451,2.80633 -0.06708,0.93571 2.64e-4,1.42517 0,2.13816 -2.65e-4,0.71298 0.534802,0.66791 0.801806,1.00226 0.267007,0.33435 -0.04428,0.89063 -0.06682,1.33635"
         inkscape:path-effect="#path-effect16036"
         inkscape:connector-curvature="0"
         id="path16034"
         d="m 36.950012,252.90051 c 0.05879,0.93879 -0.0088,1.88542 -0.200451,2.80633 -0.07438,0.35747 -0.167605,0.7128 -0.195405,1.07686 -0.0278,0.36406 0.01447,0.74416 0.195405,1.0613 0.106295,0.18632 0.255819,0.34358 0.403156,0.49948 0.147338,0.15589 0.295617,0.31464 0.39865,0.50278 0.112733,0.20585 0.167192,0.44321 0.155471,0.67762 -0.01172,0.23441 -0.08959,0.46515 -0.222291,0.65873"
         style="fill:none;stroke:#000000;stroke-width:0.26458332px;stroke-linecap:butt;stroke-linejoin:miter;stroke-opacity:1" />
      <path
         inkscape:original-d="m 43.765385,256.77592 c 2.64e-4,0.33382 2.64e-4,0.66791 0,1.00226 -2.65e-4,0.33435 0.267533,0.66791 0.400904,1.00226 0.133369,0.33435 -0.177916,0.3561 -0.267268,0.53454"
         inkscape:path-effect="#path-effect16040"
         inkscape:connector-curvature="0"
         id="path16038"
         d="m 43.765385,256.77592 c -0.12593,0.31811 -0.12593,0.68415 0,1.00226 0.06691,0.16902 0.166774,0.32263 0.250606,0.48393 0.08383,0.1613 0.152963,0.33657 0.150298,0.51833 -0.003,0.20604 -0.104247,0.4085 -0.267268,0.53454"
         style="fill:none;stroke:#000000;stroke-width:0.26458332px;stroke-linecap:butt;stroke-linejoin:miter;stroke-opacity:1" />
      <path
         inkscape:original-d="m 43.750743,274.43953 c 0.988515,-0.22469 1.976765,-0.44124 2.964751,-0.66146 0.987986,-0.22022 0.05539,-0.0239 0.08268,-0.0354"
         inkscape:path-effect="#path-effect16044"
         inkscape:connector-curvature="0"
         id="path16042"
         d="m 43.750743,274.43953 c 1.017215,-0.0405 2.026795,-0.26573 2.964751,-0.66146 0.02762,-0.0117 0.05518,-0.0235 0.08268,-0.0354"
         style="fill:none;stroke:#000000;stroke-width:0.26458332px;stroke-linecap:butt;stroke-linejoin:miter;stroke-opacity:1" />
      <path
         inkscape:original-d="m 40.123837,273.49697 c 0.540372,-0.41787 1.080479,-0.84662 1.620322,-1.26953 0.539842,-0.42291 0.757528,-0.22299 1.135896,-0.33409 0.378367,-0.1111 0.802073,-0.14503 1.202713,-0.21715 0.400638,-0.0721 0.479121,0.15564 0.718286,0.23386 0.239165,0.0782 0.300942,0.22246 0.451017,0.33408 0.150074,0.11163 0.211854,0.17792 0.317383,0.26727 0.105529,0.0894 0.167307,0.26701 0.250566,0.40091 0.08326,0.1339 0.27867,0.28927 0.417608,0.43431 0.138938,0.14504 0.289806,0.21132 0.434313,0.31738 0.144505,0.10606 0.27867,0.20019 0.417608,0.30068 0.138938,0.10049 0.234127,0.2336 0.350792,0.35079 0.116666,0.1172 0.178443,0.60109 0.267269,0.90204 0.08883,0.30094 -0.222459,0.43405 -0.334086,0.65146 -0.111628,0.21743 -0.222459,0.22247 -0.334087,0.33409 -0.111628,0.11163 -0.667909,0.17792 -1.00226,0.26727 -0.334352,0.0894 -0.434049,0.0554 -0.651471,0.0835 -0.217421,0.0281 -0.523139,0.0888 -0.785103,0.13364 -0.261967,0.0448 -0.679045,0.1111 -1.018966,0.16704 -0.339921,0.0559 -0.656773,0.0109 -0.985557,0.0167 -0.328782,0.006 -0.601091,-0.17845 -0.902033,-0.26727 -0.300943,-0.0888 -0.745863,-0.5014 -1.119193,-0.7517 -0.373327,-0.2503 -0.411774,-0.24526 -0.618059,-0.36749"
         inkscape:path-effect="#path-effect16048"
         inkscape:connector-curvature="0"
         id="path16046"
         d="m 40.123837,273.49697 c 0.402531,-0.56756 0.972943,-1.01448 1.620322,-1.26953 0.367415,-0.14475 0.755488,-0.22809 1.135896,-0.33409 0.394603,-0.10996 0.794109,-0.24622 1.202713,-0.21715 0.253586,0.018 0.501603,0.1009 0.718286,0.23386 0.159546,0.0979 0.301351,0.22165 0.451017,0.33408 0.110845,0.0833 0.227551,0.16168 0.317383,0.26727 0.102252,0.12019 0.164033,0.26895 0.250566,0.40091 0.110593,0.16865 0.26041,0.30797 0.417608,0.43431 0.139794,0.11236 0.286504,0.2158 0.434313,0.31738 0.141404,0.0972 0.284122,0.19288 0.417608,0.30068 0.128944,0.10413 0.249316,0.21975 0.350792,0.35079 0.09882,0.12761 0.179596,0.27024 0.228661,0.424 0.04906,0.15376 0.06577,0.31894 0.03861,0.47804 -0.04152,0.24315 -0.181203,0.45788 -0.334086,0.65146 -0.09798,0.12406 -0.204153,0.24405 -0.334087,0.33409 -0.143717,0.0996 -0.311943,0.15915 -0.482823,0.19621 -0.17088,0.0371 -0.345562,0.0526 -0.519437,0.0711 -0.217727,0.0231 -0.434953,0.051 -0.651471,0.0835 -0.262527,0.0395 -0.523963,0.0858 -0.785103,0.13364 -0.338627,0.062 -0.677127,0.12636 -1.018966,0.16704 -0.327045,0.0389 -0.658554,0.056 -0.985557,0.0167 -0.31288,-0.0376 -0.619819,-0.12705 -0.902033,-0.26727 -0.40293,-0.2002 -0.747453,-0.49824 -1.119193,-0.7517 -0.198162,-0.13511 -0.40471,-0.25792 -0.618059,-0.36749"
         style="fill:none;stroke:#000000;stroke-width:0.26458332px;stroke-linecap:butt;stroke-linejoin:miter;stroke-opacity:1" />
      <path
         inkscape:original-d="m 26.960814,278.49157 c 0.891161,0.57882 1.826606,1.13563 2.739511,1.70384 0.912908,0.56821 0.289807,-0.46799 0.434314,-0.70158"
         inkscape:path-effect="#path-effect16052"
         inkscape:connector-curvature="0"
         id="path16050"
         d="m 26.960814,278.49157 c -0.111178,0.34952 -0.102435,0.73598 0.02444,1.08011 0.126871,0.34412 0.371078,0.64378 0.682526,0.83748 0.311447,0.19371 0.688193,0.28026 1.052953,0.2419 0.36476,-0.0384 0.715259,-0.20139 0.979597,-0.45565 0.200318,-0.19268 0.351172,-0.43636 0.434314,-0.70158"
         style="fill:none;stroke:#000000;stroke-width:0.26458332px;stroke-linecap:butt;stroke-linejoin:miter;stroke-opacity:1" />
      <path
         inkscape:original-d="m 27.161265,284.13764 c 0.969118,-0.0782 1.937969,-0.15618 2.906556,-0.23386 0.968587,-0.0777 -0.06655,-0.26754 -0.100227,-0.40091"
         inkscape:path-effect="#path-effect16056"
         inkscape:connector-curvature="0"
         id="path16054"
         d="m 27.161265,284.13764 c 0.02236,0.38662 0.206208,0.76138 0.498282,1.01569 0.292075,0.2543 0.688568,0.38483 1.07459,0.35377 0.386022,-0.0311 0.756545,-0.2233 1.004203,-0.52103 0.247659,-0.29773 0.369228,-0.69707 0.329481,-1.08229 -0.01419,-0.13748 -0.04804,-0.27292 -0.100227,-0.40091"
         style="fill:none;stroke:#000000;stroke-width:0.26458332px;stroke-linecap:butt;stroke-linejoin:miter;stroke-opacity:1" />
      <path
         inkscape:original-d="m 30.86963,288.51418 c 0.579348,-0.60163 1.158433,-1.18071 1.737252,-1.77066 0.578818,-0.58996 -0.133371,-0.20072 -0.200451,-0.30068"
         inkscape:path-effect="#path-effect16060"
         inkscape:connector-curvature="0"
         id="path16058"
         d="m 30.86963,288.51418 c 0.244646,0.11261 0.524292,0.1477 0.789176,0.099 0.264884,-0.0487 0.513779,-0.18091 0.702395,-0.37316 0.188617,-0.19224 0.31608,-0.44361 0.35971,-0.70937 0.04363,-0.26577 0.0032,-0.54469 -0.114029,-0.78715 -0.05261,-0.10878 -0.120269,-0.21028 -0.200451,-0.30068"
         style="fill:none;stroke:#000000;stroke-width:0.26458332px;stroke-linecap:butt;stroke-linejoin:miter;stroke-opacity:1" />
      <path
         inkscape:original-d="m 36.215021,289.65007 c 0.300942,-0.79094 0.60162,-1.58161 0.902033,-2.37202 0.300416,-0.7904 -0.133369,-0.0894 -0.200451,-0.13363"
         inkscape:path-effect="#path-effect16064"
         inkscape:connector-curvature="0"
         id="path16062"
         d="m 36.215021,289.65007 c 0.278993,0.0135 0.561654,-0.0634 0.795372,-0.21631 0.233718,-0.15296 0.417304,-0.38122 0.516588,-0.6423 0.09928,-0.26108 0.113759,-0.55365 0.04073,-0.82326 -0.07303,-0.2696 -0.233183,-0.51487 -0.45066,-0.69015 -0.06261,-0.0505 -0.12979,-0.0953 -0.200451,-0.13363"
         style="fill:none;stroke:#000000;stroke-width:0.26458332px;stroke-linecap:butt;stroke-linejoin:miter;stroke-opacity:1" />
      <path
         inkscape:original-d="m 41.493593,289.24917 c 0.100491,-0.66844 0.200718,-1.33662 0.300678,-2.00453 0.09996,-0.6679 -0.133369,-0.0894 -0.200451,-0.13363"
         inkscape:path-effect="#path-effect16068"
         inkscape:connector-curvature="0"
         id="path16066"
         d="m 41.493593,289.24917 c 0.187502,-0.0776 0.354391,-0.20435 0.479395,-0.36419 0.125004,-0.15984 0.207835,-0.35236 0.237935,-0.55303 0.0301,-0.20067 0.0074,-0.40902 -0.06521,-0.5985 -0.07261,-0.18947 -0.194953,-0.35964 -0.351445,-0.48881 -0.06204,-0.0512 -0.129321,-0.0961 -0.200451,-0.13363"
         style="fill:none;stroke:#000000;stroke-width:0.26458332px;stroke-linecap:butt;stroke-linejoin:miter;stroke-opacity:1" />
      <path
         inkscape:original-d="m 45.970359,288.44736 c -0.255868,-0.81321 -0.512003,-1.62616 -0.768401,-2.43884 -0.256397,-0.81268 -0.244731,-0.0448 -0.367495,-0.0668"
         inkscape:path-effect="#path-effect16072"
         inkscape:connector-curvature="0"
         id="path16070"
         d="m 45.970359,288.44736 c 0.306824,-0.39522 0.405161,-0.94353 0.254805,-1.42075 -0.150356,-0.47722 -0.545241,-0.87013 -1.023206,-1.01809 -0.119225,-0.0369 -0.242908,-0.0594 -0.367495,-0.0668"
         style="fill:none;stroke:#000000;stroke-width:0.26458332px;stroke-linecap:butt;stroke-linejoin:miter;stroke-opacity:1" />
      <path
         inkscape:original-d="m 48.943733,285.03967 c -0.40064,-0.56821 -0.801545,-1.13616 -1.202714,-1.70384 -0.401169,-0.56768 -0.467458,-0.11163 -0.701582,-0.16704"
         inkscape:path-effect="#path-effect16076"
         inkscape:connector-curvature="0"
         id="path16074"
         d="m 48.943733,285.03967 c -0.02622,-0.36433 -0.153648,-0.72085 -0.364293,-1.01926 -0.210645,-0.29841 -0.503911,-0.53787 -0.838421,-0.68458 -0.221342,-0.0971 -0.460242,-0.15396 -0.701582,-0.16704"
         style="fill:none;stroke:#000000;stroke-width:0.26458332px;stroke-linecap:butt;stroke-linejoin:miter;stroke-opacity:1" />
      <path
         inkscape:original-d="m 50.981662,280.89699 c -0.48973,-0.34548 -1.024268,-0.73525 -1.5368,-1.10248 -0.51253,-0.36723 -0.267005,-2.7e-4 -0.400905,0"
         inkscape:path-effect="#path-effect16080"
         inkscape:connector-curvature="0"
         id="path16078"
         d="m 50.981662,280.89699 c -0.13782,-0.29955 -0.354636,-0.56233 -0.622559,-0.75453 -0.267924,-0.19221 -0.586322,-0.31339 -0.914241,-0.34795 -0.133143,-0.014 -0.267762,-0.014 -0.400905,0"
         style="fill:none;stroke:#000000;stroke-width:0.26458332px;stroke-linecap:butt;stroke-linejoin:miter;stroke-opacity:1" />
      <path
         inkscape:original-d="m 52.518463,277.22204 c -0.857226,-0.31208 -1.714717,-0.6239 -2.57247,-0.93544 -0.857755,-0.31155 -0.244734,0.0666 -0.367495,0.10022"
         inkscape:path-effect="#path-effect16084"
         inkscape:connector-curvature="0"
         id="path16082"
         d="m 52.518463,277.22204 c -0.301086,-0.3731 -0.70546,-0.66196 -1.156025,-0.8258 -0.450565,-0.16384 -0.946033,-0.20219 -1.416445,-0.10964 -0.124691,0.0245 -0.247613,0.058 -0.367495,0.10022"
         style="fill:none;stroke:#000000;stroke-width:0.26458332px;stroke-linecap:butt;stroke-linejoin:miter;stroke-opacity:1" />
      <path
         inkscape:original-d="m 49.74554,271.00802 c -0.578819,0.61223 -1.135632,1.24699 -1.703843,1.87089 -0.568211,0.62389 2.65e-4,0.28927 0,0.43431"
         inkscape:path-effect="#path-effect16088"
         inkscape:connector-curvature="0"
         id="path16086"
         d="m 49.74554,271.00802 c -0.443019,0.0878 -0.856011,0.32087 -1.160106,0.65478 -0.304096,0.33391 -0.497663,0.76684 -0.543737,1.21611 -0.01479,0.14427 -0.01479,0.29004 0,0.43431"
         style="fill:none;stroke:#000000;stroke-width:0.26458332px;stroke-linecap:butt;stroke-linejoin:miter;stroke-opacity:1" />
      <path
         inkscape:original-d="m 43.197438,269.93894 c -0.378367,0.41178 -0.801544,0.82382 -1.202714,1.23612 -0.401169,0.41231 -0.177916,0.6011 -0.267269,0.90204"
         inkscape:path-effect="#path-effect16092"
         inkscape:connector-curvature="0"
         id="path16090"
         d="m 43.197438,269.93894 c -0.517098,0.27241 -0.944569,0.71175 -1.202714,1.23612 -0.139175,0.2827 -0.229973,0.58915 -0.267269,0.90204"
         style="fill:none;stroke:#000000;stroke-width:0.26458332px;stroke-linecap:butt;stroke-linejoin:miter;stroke-opacity:1" />
      <path
         inkscape:original-d="m 18.608641,264.25947 c 0.45685,-0.71299 0.935708,-1.44798 1.403165,-2.17157 0.467457,-0.72359 0.289806,-0.0671 0.434313,-0.10023"
         inkscape:path-effect="#path-effect16096"
         inkscape:connector-curvature="0"
         id="path16094"
         d="m 18.608641,264.25947 c -0.04183,-0.46238 0.07535,-0.93767 0.327311,-1.32762 0.251967,-0.38995 0.637124,-0.69208 1.075854,-0.84395 0.140668,-0.0487 0.286533,-0.0823 0.434313,-0.10023"
         style="fill:none;stroke:#000000;stroke-width:0.26458332px;stroke-linecap:butt;stroke-linejoin:miter;stroke-opacity:1" />
      <path
         inkscape:original-d="m 28.631247,268.00124 c 0.690711,-0.79094 1.40343,-1.58161 2.104748,-2.37202 0.701317,-0.79041 0.356624,0.022 0.53454,0.0334"
         inkscape:path-effect="#path-effect16108"
         inkscape:connector-curvature="0"
         id="path16106"
         d="m 28.631247,268.00124 c -0.03622,-0.58627 0.169818,-1.18384 0.55967,-1.6232 0.389853,-0.43936 0.958666,-0.71503 1.545078,-0.74882 0.17866,-0.0103 0.358551,9.5e-4 0.53454,0.0334"
         style="fill:none;stroke:#000000;stroke-width:0.26458332px;stroke-linecap:butt;stroke-linejoin:miter;stroke-opacity:1" />
      <path
         inkscape:original-d="m 35.847525,270.77416 c 0.590484,-0.83548 1.180706,-1.6707 1.77066,-2.50565 0.589955,-0.83495 0.156173,-0.0671 0.23386,-0.10023"
         inkscape:path-effect="#path-effect16116"
         inkscape:connector-curvature="0"
         id="path16114"
         d="m 35.847525,270.77416 c 0.05599,-0.53129 0.250308,-1.04741 0.55862,-1.4837 0.308313,-0.43629 0.72993,-0.79178 1.21204,-1.02195 0.07656,-0.0365 0.154596,-0.07 0.23386,-0.10023"
         style="fill:none;stroke:#000000;stroke-width:0.26458332px;stroke-linecap:butt;stroke-linejoin:miter;stroke-opacity:1" />
      <path
         inkscape:original-d="m 5.2916666,284.81025 c 0.1262568,-2.07913 0.2522487,-4.158 0.3779761,-6.23661 0.1257276,-2.0786 0.2837468,-1.38617 0.4252232,-2.07887 0.1414767,-0.69269 0.6302251,-1.57516 0.9449406,-2.36235 0.3147155,-0.78718 0.4727347,-1.41767 0.7087052,-2.12611 0.2359705,-0.70844 0.5672289,-1.51217 0.8504465,-2.26786 0.2832177,-0.75569 0.2207506,-1.0712 0.3307292,-1.6064 0.1099785,-0.5352 -0.062731,-1.0082 -0.094494,-1.5119 -0.031762,-0.50371 2.646e-4,-1.51217 0,-2.26786 -2.646e-4,-0.75569 0.2522487,-0.53573 0.3779763,-0.8032 0.1257274,-0.26747 0.6302248,-0.40974 0.9449403,-0.61421 0.314715,-0.20447 0.693221,0.15722 1.039435,0.23623 0.346213,0.079 0.472734,0.47221 0.708705,0.70871 0.23597,0.2365 0.441237,0.94468 0.661458,1.41741 0.220222,0.47273 0.378241,0.47221 0.566964,0.70871 0.188724,0.2365 1.071198,0.31471 1.606399,0.47247 0.535202,0.15775 1.386178,-0.0318 2.078869,-0.0473 0.692692,-0.0155 1.449174,-0.18925 2.173363,-0.28348 0.72419,-0.0942 0.598727,0.0627 0.897694,0.0945 0.298966,0.0318 0.598727,0.0627 0.897693,0.0945 0.298967,0.0318 0.472735,-0.31524 0.708706,-0.47247 0.23597,-0.15722 0.409738,-0.25224 0.614211,-0.37797 0.204472,-0.12573 0.913707,-0.12626 1.370164,-0.18899 0.456456,-0.0627 0.756217,0.5982 1.133928,0.89769 0.377712,0.2995 0.315245,0.6927 0.47247,1.03944"
         inkscape:path-effect="#path-effect16168"
         inkscape:connector-curvature="0"
         id="path16166"
         d="m 5.2916666,284.81025 c -0.033659,-2.08445 0.092827,-4.17148 0.3779761,-6.23661 0.096862,-0.7015 0.2126711,-1.40336 0.4252232,-2.07887 0.2546489,-0.8093 0.6443343,-1.56898 0.9449406,-2.36235 0.264716,-0.69865 0.4597056,-1.42171 0.7087052,-2.12611 0.269111,-0.7613 0.6009851,-1.4999 0.8504465,-2.26786 0.1693805,-0.52143 0.3008744,-1.05896 0.3307292,-1.6064 0.027535,-0.50491 -0.031651,-1.01016 -0.094494,-1.5119 -0.094577,-0.75511 -0.1963863,-1.53263 0,-2.26786 0.076825,-0.28762 0.1996379,-0.56483 0.3779763,-0.8032 0.2306483,-0.30829 0.5650586,-0.5515 0.9449403,-0.61421 0.358178,-0.0591 0.730195,0.0461 1.039435,0.23623 0.287031,0.1765 0.527644,0.42454 0.708705,0.70871 0.28047,0.4402 0.416473,0.95652 0.661458,1.41741 0.143062,0.26914 0.326253,0.52173 0.566964,0.70871 0.223779,0.17383 0.490887,0.28585 0.765609,0.35529 0.274722,0.0694 0.558089,0.0978 0.84079,0.11718 0.692639,0.0474 1.390329,0.0416 2.078869,-0.0473 0.725315,-0.0937 1.442035,-0.27948 2.173363,-0.28348 0.301534,-0.002 0.603599,0.0279 0.897694,0.0945 0.148374,0.0336 0.294766,0.0766 0.444815,0.10165 0.15005,0.0251 0.305801,0.0317 0.452878,-0.007 0.138443,-0.0366 0.263718,-0.11205 0.377866,-0.19852 0.114148,-0.0865 0.218986,-0.18454 0.33084,-0.27395 0.188219,-0.15045 0.39593,-0.27591 0.614211,-0.37797 0.426273,-0.1993 0.915154,-0.30898 1.370164,-0.18899 0.238282,0.0628 0.458216,0.18659 0.647607,0.34425 0.189392,0.15766 0.349142,0.34872 0.486321,0.55344 0.212814,0.31759 0.373125,0.67027 0.47247,1.03944"
         style="fill:none;stroke:#000000;stroke-width:0.26458332px;stroke-linecap:butt;stroke-linejoin:miter;stroke-opacity:1" />
      <path
         sodipodi:nodetypes="cscccccccccc"
         inkscape:original-d="m 25.161774,263.10268 c 3.162955,-5.03384 6.514632,-10.20916 9.677056,-15.24247 3.162424,-5.03331 0.668438,-0.5348 1.002261,-0.80181 0.333821,-0.267 0.891164,0.62337 1.33635,0.93544 0.445181,0.31208 1.024796,1.247 1.536798,1.87089 0.512002,0.6239 1.514791,1.29154 2.271791,1.93771 0.757,0.64616 1.871151,1.69244 2.806329,2.53906 0.935181,0.84661 2.138422,1.20244 3.207235,1.80407 1.068814,0.60162 0.93571,0.22246 1.403165,0.33408 0.467458,0.11163 1.425702,0.17792 2.138156,0.26727 0.712454,0.0894 0.980256,0.48973 1.469984,0.73499 0.489728,0.24526 0.401166,0.44519 0.601355,0.66818"
         inkscape:path-effect="#path-effect15944-1"
         inkscape:connector-curvature="0"
         id="path15942-6"
         d="m 25.161774,263.10268 c 2.973522,-5.23518 6.204397,-10.32418 9.677056,-15.24247 0.127382,-0.18041 0.256389,-0.36208 0.419051,-0.51146 0.162662,-0.14939 0.363713,-0.26596 0.58321,-0.29035 0.142157,-0.0158 0.287353,0.008 0.42098,0.0588 0.133627,0.051 0.25603,0.1289 0.365408,0.22107 0.218755,0.18433 0.384067,0.42256 0.549962,0.65561 0.468593,0.65827 0.964575,1.3004 1.536798,1.87089 0.705132,0.703 1.516918,1.28841 2.271791,1.93771 0.956594,0.8228 1.822573,1.74893 2.806329,2.53906 0.961349,0.77213 2.038006,1.41256 3.207235,1.80407 0.456563,0.15288 0.926305,0.26755 1.403165,0.33408 0.71205,0.0994 1.440932,0.0919 2.138156,0.26727 0.535854,0.1348 1.047206,0.37922 1.469984,0.73499 0.230006,0.19355 0.433022,0.41913 0.601355,0.66818"
         style="fill:none;stroke:#000000;stroke-width:0.26458332px;stroke-linecap:butt;stroke-linejoin:miter;stroke-opacity:1" />
      <path
         inkscape:original-d="m 27.261531,263.78533 c 0.205002,-0.18926 0.409739,-0.37825 0.614212,-0.56697 0.204473,-0.18872 0.598728,-0.75622 0.897694,-1.13393 0.298966,-0.37771 0.756216,-1.16569 1.133928,-1.74814 0.377713,-0.58245 0.567229,-1.0082 0.850447,-1.5119 0.283218,-0.50371 0.819214,-1.63816 1.228423,-2.45685 0.40921,-0.81868 0.315244,-0.88221 0.47247,-1.32291 0.157226,-0.44071 0.346744,-0.81922 0.519718,-1.22843 0.172974,-0.40921 0.409739,-1.0082 0.614212,-1.5119 0.204472,-0.50371 0.661723,-0.72472 0.992187,-1.08668 0.330465,-0.36197 0.724718,-0.47274 1.086681,-0.70871 0.361963,-0.23597 0.661723,-0.12626 0.992187,-0.18899 0.330465,-0.0627 0.504233,0.15723 0.755952,0.23624 0.251719,0.079 0.56723,0.5667 0.850448,0.85045 0.283217,0.28374 0.598725,0.62969 0.897691,0.94494 0.298969,0.31524 1.039701,1.00767 1.559153,1.5119 0.519453,0.50423 0.88221,0.6297 1.322916,0.94494 0.440709,0.31525 1.480672,0.94468 2.220611,1.41741 0.739939,0.47274 1.827149,0.88168 2.740327,1.32292 0.913177,0.44123 1.449173,0.34621 2.173364,0.51972 0.724188,0.1735 0.787715,0.0312 1.181174,0.0472 0.393462,0.016 0.37824,0.5667 0.566965,0.85045 0.188725,0.28375 0.06326,0.44071 0.09449,0.66146"
         inkscape:path-effect="#path-effect16194"
         inkscape:connector-curvature="0"
         id="path16192"
         d="m 27.261531,263.78533 c 0.217365,-0.17467 0.422743,-0.36425 0.614212,-0.56697 0.331311,-0.35078 0.619797,-0.73948 0.897694,-1.13393 0.400135,-0.56795 0.780241,-1.15016 1.133928,-1.74814 0.294378,-0.49771 0.570294,-1.00605 0.850447,-1.5119 0.443999,-0.80169 0.900543,-1.60108 1.228423,-2.45685 0.167543,-0.43729 0.300659,-0.88728 0.47247,-1.32291 0.163141,-0.41365 0.360712,-0.81318 0.519718,-1.22843 0.194857,-0.50888 0.333501,-1.04485 0.614212,-1.5119 0.253882,-0.42241 0.613965,-0.77072 0.992187,-1.08668 0.333089,-0.27826 0.687656,-0.53796 1.086681,-0.70871 0.312396,-0.13368 0.653107,-0.21104 0.992187,-0.18899 0.266061,0.0173 0.528831,0.0966 0.755952,0.23624 0.343099,0.21097 0.588345,0.54463 0.850448,0.85045 0.282783,0.32995 0.593386,0.63473 0.897691,0.94494 0.507239,0.51709 0.99962,1.0519 1.559153,1.5119 0.418797,0.3443 0.871977,0.64397 1.322916,0.94494 0.730554,0.4876 1.45844,0.98088 2.220611,1.41741 0.880743,0.50444 1.80401,0.93116 2.740327,1.32292 0.693519,0.29017 1.42303,0.56628 2.173364,0.51972 0.199575,-0.0124 0.397358,-0.0476 0.597139,-0.0561 0.199781,-0.008 0.406273,0.0117 0.584035,0.10327 0.156147,0.0804 0.281923,0.21249 0.373299,0.3625 0.09138,0.15 0.150128,0.31779 0.193666,0.48795 0.05532,0.2162 0.08706,0.43842 0.09449,0.66146"
         style="fill:none;stroke:#000000;stroke-width:0.26458332px;stroke-linecap:butt;stroke-linejoin:miter;stroke-opacity:1" />
      <path
         inkscape:original-d="m 7.188921,266.20206 c 0.598727,-2.29962 1.197189,-4.59898 1.795387,-6.89807 0.598198,-2.29909 0.315245,-0.75622 0.47247,-1.13393 0.157226,-0.37771 0.756217,-0.56723 1.133929,-0.85044 0.377712,-0.28322 0.819213,0.62969 1.228423,0.94494 0.409209,0.31524 0.315244,0.94467 0.47247,1.41741 0.157225,0.47273 0.504233,1.63763 0.755952,2.45684 0.25172,0.81922 0.378241,1.07067 0.566964,1.6064 0.188724,0.53573 0.693222,0.75569 1.039435,1.13393 0.346214,0.37824 0.819213,-0.0633 1.228423,-0.0945 0.409209,-0.0312 0.69322,-0.12626 1.039434,-0.18899 0.346213,-0.0627 1.071196,-0.0633 1.606399,-0.0945 0.535201,-0.0312 -0.06273,-0.37824 -0.09449,-0.56696 -0.03176,-0.18872 -0.377712,-2.6e-4 -0.566965,0 -0.189252,2.6e-4 -0.629695,-0.0633 -0.94494,-0.0945 -0.315245,-0.0312 -0.503704,-0.25224 -0.755952,-0.37797 -0.252249,-0.12573 -0.629696,-2.7e-4 -0.944941,0 -0.315245,2.6e-4 -0.755687,0.12573 -1.133928,0.18899 -0.378241,0.0633 -0.377712,0.0627 -0.566965,0.0945"
         inkscape:path-effect="#path-effect15924-4"
         inkscape:connector-curvature="0"
         id="path15922-2"
         d="m 7.188921,266.20206 c 0.4290639,-2.33906 1.0296652,-4.64663 1.795387,-6.89807 0.1320518,-0.38827 0.2700722,-0.77724 0.47247,-1.13393 0.1219944,-0.21499 0.2689359,-0.41928 0.4592707,-0.57701 0.1903353,-0.15772 0.4275593,-0.26664 0.6746583,-0.27343 0.27308,-0.007 0.53995,0.11066 0.747418,0.28839 0.207468,0.17772 0.360367,0.41145 0.481005,0.65655 0.220292,0.44757 0.339684,0.93656 0.47247,1.41741 0.228091,0.82598 0.499846,1.63912 0.755952,2.45684 0.169826,0.54224 0.333465,1.08838 0.566964,1.6064 0.108585,0.2409 0.233333,0.47704 0.402352,0.68016 0.169019,0.20311 0.385578,0.37273 0.637083,0.45377 0.198574,0.064 0.412174,0.0709 0.619306,0.046 0.207131,-0.0249 0.409187,-0.0808 0.609117,-0.14045 0.339515,-0.10123 0.68611,-0.21507 1.039434,-0.18899 0.284607,0.021 0.555416,0.13207 0.838462,0.16851 0.141523,0.0182 0.287432,0.0173 0.424434,-0.0226 0.137002,-0.0399 0.264859,-0.12134 0.343503,-0.2404 0.05904,-0.0894 0.08854,-0.19955 0.07366,-0.30563 -0.01488,-0.10607 -0.07616,-0.20645 -0.168145,-0.26133 -0.0832,-0.0496 -0.184638,-0.0601 -0.281164,-0.0518 -0.09653,0.008 -0.190593,0.0339 -0.285801,0.0518 -0.315655,0.0594 -0.64964,0.0319 -0.94494,-0.0945 -0.25946,-0.11102 -0.486178,-0.2951 -0.755952,-0.37797 -0.303844,-0.0933 -0.630924,-0.0493 -0.944941,0 -0.378564,0.0594 -0.756101,0.12509 -1.133928,0.18899 -0.188913,0.0319 -0.377902,0.0634 -0.566965,0.0945"
         style="fill:none;stroke:#000000;stroke-width:0.26458332px;stroke-linecap:butt;stroke-linejoin:miter;stroke-opacity:1" />
      <path
         sodipodi:nodetypes="csssccscsssscccc"
         inkscape:original-d="m 7.2014843,266.0964 c -0.1622459,8.01493 -2.0982902,8.21677 -3.1064915,12.34328 -1.0081989,4.1265 -0.6926918,4.53545 -1.0394346,6.80357 -0.3467426,2.26812 0.3782409,2.33059 0.5669645,3.49628 0.1887233,1.16569 0.5672288,-0.25225 0.8504463,-0.37798 0.2832177,-0.12572 0.4412369,-0.56723 0.6614584,-0.85044 0.2202217,-0.28322 2.646e-4,-1.19719 0,-1.79539 -2.646e-4,-0.5982 0.5042329,-1.0082 0.7559524,-1.5119 0.2517196,-0.50371 0.6932209,-0.44124 1.0394346,-0.66146 0.3462134,-0.22022 0.4412366,-0.0633 0.6614583,-0.0945 0.2202215,-0.0312 1.1341931,-0.50423 1.7008928,-0.75595 0.5666996,-0.25172 0.5042328,-0.50423 0.7559525,-0.75595 0.25172,-0.25172 0.315245,-0.50423 0.47247,-0.75595 0.157226,-0.25172 0.567229,-0.44124 0.850447,-0.66146 0.283217,-0.22022 0.441236,-0.31525 0.661458,-0.47247 0.220221,-0.15723 1.252311,-0.4688 1.535528,-0.62602"
         inkscape:path-effect="#path-effect15932-8"
         inkscape:connector-curvature="0"
         id="path15930-6"
         d="m 7.2014843,266.0964 c -1.7221666,3.89973 -2.7774889,8.09293 -3.1064915,12.34328 -0.1779095,2.2984 -0.1581104,4.67342 -1.0394346,6.80357 -0.1363114,0.32946 -0.2933375,0.65035 -0.4193516,0.98389 -0.1260141,0.33354 -0.2212401,0.68327 -0.2271253,1.03977 -0.00589,0.3565 0.083219,0.722 0.2966865,1.00758 0.106734,0.14279 0.2435539,0.2639 0.4015098,0.34655 0.1579558,0.0827 0.3371368,0.12618 0.5152451,0.11849 0.3151491,-0.0136 0.6027622,-0.18264 0.8504463,-0.37798 0.2860755,-0.22562 0.5465163,-0.50471 0.6614584,-0.85044 0.095011,-0.28578 0.083816,-0.59534 0.053655,-0.89498 -0.030161,-0.29965 -0.0783,-0.60026 -0.053655,-0.90041 0.047024,-0.5727 0.3582508,-1.09713 0.7559524,-1.5119 0.2880263,-0.30039 0.635863,-0.55987 1.0394346,-0.66146 0.2161412,-0.0544 0.4409691,-0.0619 0.6614583,-0.0945 0.6200616,-0.0916 1.1979158,-0.38193 1.7008928,-0.75595 0.2873638,-0.21369 0.5564044,-0.45859 0.7559525,-0.75595 0.165776,-0.24703 0.281894,-0.52751 0.47247,-0.75595 0.230914,-0.2768 0.553519,-0.45708 0.850447,-0.66146 0.223217,-0.15364 0.435027,-0.32361 0.661458,-0.47247 0.464794,-0.30557 0.989574,-0.51952 1.535528,-0.62602"
         style="fill:none;stroke:#000000;stroke-width:0.26458332px;stroke-linecap:butt;stroke-linejoin:miter;stroke-opacity:1" />
    </g>
  </g>
</svg>
