<svg xmlns="http://www.w3.org/2000/svg" viewBox="0 0 64.863 182.903">
  <title>s48 2 </title>
  <g id="0bcad619-cf9d-4642-b9e3-2915421af6fa" data-name="Layer 2">
    <g id="25e6a33e-cf71-491a-8cda-25c922ea3955" data-name="Layer 1">
      <path d="M63.354,96.431,37.6,122.192a5.379,5.379,0,0,1,.235,1.532V149.88a5.362,5.362,0,0,1-.246,1.564,10.555,10.555,0,0,0,4.956,1.972c1.3.212,5.67.929,5.605-.829-.246-6.6,9.994-6.571,10.24,0,.443,11.81-12.845,13.008-22.238,9.427a5.8,5.8,0,0,1-.641.68,26.873,26.873,0,0,0-.14,5.28A17.519,17.519,0,0,0,36,171.6c4.045-.526,8.015,4.915,4.39,8.779-4.861,5.185-11.319,1.649-13.568-4.034-2.035-5.145-2.144-11-1.28-16.48a16.822,16.822,0,0,0-4.817-2.4c-.771-.232-3.147-.327-2.481-.911-.806.71-.966,2.618-1.178,3.58-1.409,6.444-11.277,3.7-9.874-2.724,1.26-5.761,4.642-11.1,11.216-10.765a23.4,23.4,0,0,1,9.192,2.536V125.932L5.489,103.825A4.7,4.7,0,0,1,4,100.012c-3.314-.97-5.686-5.359-2.5-8.547L27.7,65.275a5.5,5.5,0,0,1-.1-1V31.238c-3.376-1.411-9.892-2.8-9.643.027.58,6.574-9.663,6.513-10.239,0C6.68,19.554,19.8,18,29.355,21.056a5.763,5.763,0,0,1,.747-.792,25.952,25.952,0,0,0-.092-4.888,22.485,22.485,0,0,0-.744-3.55c-.024-.109-.082-.2-.109-.307-3.97.826-8.144-4.769-4.686-8.855C29.1-2.8,35.8.986,38.151,6.426a32.239,32.239,0,0,1,1.983,16.135,17.656,17.656,0,0,0,5.212,2.232,15.215,15.215,0,0,0,1.8.365c.277,0,.485,0,.659,0a9.822,9.822,0,0,0,.867-3.536c1.079-6.495,10.943-3.723,9.875,2.725-.973,5.874-4.274,11.182-10.851,11.075a23.859,23.859,0,0,1-9.861-2.447V63.186a5.733,5.733,0,0,1,.491.4Q49.71,74.97,61.085,86.345a4.986,4.986,0,0,1,1.334,2.29C64.808,90.287,66.017,93.773,63.354,96.431Zm-50.625.15q9,9,17.994,18L52.78,92.523Q43.318,83.061,33.853,73.6,22.769,84.682,11.681,95.769A5.6,5.6,0,0,1,12.729,96.581Z"/>
    </g>
  </g>
</svg>
