<?xml version="1.0" encoding="UTF-8" standalone="no"?>
<!-- Created with Inkscape (http://www.inkscape.org/) -->

<svg
   xmlns:dc="http://purl.org/dc/elements/1.1/"
   xmlns:cc="http://creativecommons.org/ns#"
   xmlns:rdf="http://www.w3.org/1999/02/22-rdf-syntax-ns#"
   xmlns:svg="http://www.w3.org/2000/svg"
   xmlns="http://www.w3.org/2000/svg"
   xmlns:sodipodi="http://sodipodi.sourceforge.net/DTD/sodipodi-0.dtd"
   xmlns:inkscape="http://www.inkscape.org/namespaces/inkscape"
   width="202"
   height="202"
   viewBox="0 0 53.445832 53.445835"
   version="1.1"
   id="svg27464"
   inkscape:version="0.92.3 (2405546, 2018-03-11)"
   sodipodi:docname="sapiosuant.svg">
  <defs
     id="defs27458">
    <inkscape:perspective
       sodipodi:type="inkscape:persp3d"
       inkscape:vp_x="0 : 26.722918 : 1"
       inkscape:vp_y="0 : 1000 : 0"
       inkscape:vp_z="53.445832 : 26.722918 : 1"
       inkscape:persp3d-origin="26.722916 : 17.815278 : 1"
       id="perspective28231" />
    <inkscape:path-effect
       effect="spiro"
       id="path-effect27998"
       is_visible="true" />
    <inkscape:path-effect
       effect="spiro"
       id="path-effect27994"
       is_visible="true" />
    <inkscape:path-effect
       effect="spiro"
       id="path-effect27990"
       is_visible="true" />
    <inkscape:path-effect
       effect="spiro"
       id="path-effect27986"
       is_visible="true" />
    <inkscape:path-effect
       effect="spiro"
       id="path-effect27982"
       is_visible="true" />
    <inkscape:path-effect
       effect="spiro"
       id="path-effect27978"
       is_visible="true" />
    <inkscape:path-effect
       effect="spiro"
       id="path-effect27974"
       is_visible="true" />
    <inkscape:path-effect
       effect="spiro"
       id="path-effect27970"
       is_visible="true" />
    <inkscape:path-effect
       effect="spiro"
       id="path-effect27966"
       is_visible="true" />
    <inkscape:path-effect
       effect="spiro"
       id="path-effect27962"
       is_visible="true" />
    <inkscape:path-effect
       effect="spiro"
       id="path-effect27958"
       is_visible="true" />
    <inkscape:path-effect
       effect="spiro"
       id="path-effect27954"
       is_visible="true" />
    <inkscape:path-effect
       effect="spiro"
       id="path-effect27950"
       is_visible="true" />
    <inkscape:path-effect
       effect="spiro"
       id="path-effect27946"
       is_visible="true" />
    <inkscape:path-effect
       effect="spiro"
       id="path-effect27942"
       is_visible="true" />
    <inkscape:path-effect
       effect="spiro"
       id="path-effect27906"
       is_visible="true" />
    <inkscape:path-effect
       effect="spiro"
       id="path-effect27892"
       is_visible="true" />
    <inkscape:path-effect
       effect="spiro"
       id="path-effect27888"
       is_visible="true" />
    <inkscape:path-effect
       effect="spiro"
       id="path-effect27884"
       is_visible="true" />
    <inkscape:path-effect
       effect="spiro"
       id="path-effect27880"
       is_visible="true" />
    <inkscape:path-effect
       effect="spiro"
       id="path-effect27876"
       is_visible="true" />
    <inkscape:path-effect
       effect="spiro"
       id="path-effect27872"
       is_visible="true" />
    <inkscape:path-effect
       effect="spiro"
       id="path-effect27868"
       is_visible="true" />
    <inkscape:path-effect
       effect="spiro"
       id="path-effect27842"
       is_visible="true" />
    <inkscape:path-effect
       effect="spiro"
       id="path-effect27838"
       is_visible="true" />
    <inkscape:path-effect
       effect="spiro"
       id="path-effect27834"
       is_visible="true" />
    <inkscape:path-effect
       effect="spiro"
       id="path-effect27826"
       is_visible="true" />
    <inkscape:path-effect
       effect="spiro"
       id="path-effect27822"
       is_visible="true" />
    <inkscape:path-effect
       effect="spiro"
       id="path-effect27818"
       is_visible="true" />
    <inkscape:path-effect
       effect="spiro"
       id="path-effect27814"
       is_visible="true" />
    <inkscape:path-effect
       effect="spiro"
       id="path-effect27810"
       is_visible="true" />
    <inkscape:path-effect
       effect="spiro"
       id="path-effect27806"
       is_visible="true" />
    <inkscape:path-effect
       effect="spiro"
       id="path-effect27802"
       is_visible="true" />
    <inkscape:path-effect
       effect="spiro"
       id="path-effect27798"
       is_visible="true" />
    <inkscape:path-effect
       effect="spiro"
       id="path-effect27790"
       is_visible="true" />
    <inkscape:path-effect
       effect="spiro"
       id="path-effect27760"
       is_visible="true" />
    <inkscape:path-effect
       effect="spiro"
       id="path-effect27756"
       is_visible="true" />
    <inkscape:path-effect
       effect="spiro"
       id="path-effect27752"
       is_visible="true" />
    <inkscape:path-effect
       effect="spiro"
       id="path-effect27748"
       is_visible="true" />
    <inkscape:path-effect
       effect="spiro"
       id="path-effect27744"
       is_visible="true" />
    <inkscape:path-effect
       effect="spiro"
       id="path-effect27740"
       is_visible="true" />
    <inkscape:path-effect
       effect="spiro"
       id="path-effect27736"
       is_visible="true" />
    <inkscape:path-effect
       effect="spiro"
       id="path-effect27732"
       is_visible="true" />
    <inkscape:path-effect
       effect="spiro"
       id="path-effect26248"
       is_visible="true" />
    <inkscape:path-effect
       effect="spiro"
       id="path-effect26248-8"
       is_visible="true" />
    <inkscape:path-effect
       effect="spiro"
       id="path-effect25917"
       is_visible="true" />
    <inkscape:path-effect
       effect="spiro"
       id="path-effect25925"
       is_visible="true" />
    <inkscape:path-effect
       effect="spiro"
       id="path-effect25929"
       is_visible="true" />
    <inkscape:path-effect
       effect="spiro"
       id="path-effect25937"
       is_visible="true" />
    <inkscape:path-effect
       effect="spiro"
       id="path-effect25941"
       is_visible="true" />
    <inkscape:path-effect
       effect="spiro"
       id="path-effect25945"
       is_visible="true" />
    <inkscape:path-effect
       effect="spiro"
       id="path-effect25949"
       is_visible="true" />
    <inkscape:path-effect
       effect="spiro"
       id="path-effect25953"
       is_visible="true" />
    <inkscape:path-effect
       effect="spiro"
       id="path-effect25957"
       is_visible="true" />
    <inkscape:path-effect
       effect="spiro"
       id="path-effect25917-2"
       is_visible="true" />
    <inkscape:path-effect
       effect="spiro"
       id="path-effect25925-7"
       is_visible="true" />
    <inkscape:path-effect
       effect="spiro"
       id="path-effect25929-9"
       is_visible="true" />
    <inkscape:path-effect
       effect="spiro"
       id="path-effect25937-6"
       is_visible="true" />
    <inkscape:path-effect
       effect="spiro"
       id="path-effect25941-4"
       is_visible="true" />
    <inkscape:path-effect
       effect="spiro"
       id="path-effect25945-8"
       is_visible="true" />
    <inkscape:path-effect
       effect="spiro"
       id="path-effect25949-2"
       is_visible="true" />
    <inkscape:path-effect
       effect="spiro"
       id="path-effect25953-2"
       is_visible="true" />
    <inkscape:path-effect
       effect="spiro"
       id="path-effect25957-5"
       is_visible="true" />
    <inkscape:path-effect
       effect="spiro"
       id="path-effect25917-7"
       is_visible="true" />
    <inkscape:path-effect
       effect="spiro"
       id="path-effect25925-3"
       is_visible="true" />
    <inkscape:path-effect
       effect="spiro"
       id="path-effect25929-7"
       is_visible="true" />
    <inkscape:path-effect
       effect="spiro"
       id="path-effect25937-9"
       is_visible="true" />
    <inkscape:path-effect
       effect="spiro"
       id="path-effect25941-9"
       is_visible="true" />
    <inkscape:path-effect
       effect="spiro"
       id="path-effect25945-5"
       is_visible="true" />
    <inkscape:path-effect
       effect="spiro"
       id="path-effect25949-3"
       is_visible="true" />
    <inkscape:path-effect
       effect="spiro"
       id="path-effect25953-5"
       is_visible="true" />
    <inkscape:path-effect
       effect="spiro"
       id="path-effect25957-53"
       is_visible="true" />
    <inkscape:path-effect
       effect="spiro"
       id="path-effect26457"
       is_visible="true" />
    <inkscape:path-effect
       effect="spiro"
       id="path-effect26457-5"
       is_visible="true" />
    <inkscape:path-effect
       effect="spiro"
       id="path-effect26457-5-7"
       is_visible="true" />
    <inkscape:path-effect
       effect="spiro"
       id="path-effect27760-7"
       is_visible="true" />
  </defs>
  <sodipodi:namedview
     id="base"
     pagecolor="#ffffff"
     bordercolor="#666666"
     borderopacity="1.0"
     inkscape:pageopacity="0.0"
     inkscape:pageshadow="2"
     inkscape:zoom="2.8284271"
     inkscape:cx="11.794944"
     inkscape:cy="89.479282"
     inkscape:document-units="mm"
     inkscape:current-layer="g27318"
     showgrid="false"
     units="px"
     inkscape:window-width="1920"
     inkscape:window-height="1017"
     inkscape:window-x="-8"
     inkscape:window-y="-8"
     inkscape:window-maximized="1" />
  <metadata
     id="metadata27461">
    <rdf:RDF>
      <cc:Work
         rdf:about="">
        <dc:format>image/svg+xml</dc:format>
        <dc:type
           rdf:resource="http://purl.org/dc/dcmitype/StillImage" />
        <dc:title></dc:title>
      </cc:Work>
    </rdf:RDF>
  </metadata>
  <g
     inkscape:label="Layer 1"
     inkscape:groupmode="layer"
     id="layer1"
     transform="translate(0,-243.55415)">
    <g
       transform="translate(0.17973119,242.07888)"
       id="g27318">
      <g
         id="g28302">
        <g
           id="g28227">
          <g
             id="g28155">
            <g
               id="g28046">
              <g
                 id="g27938"
                 transform="matrix(-1,0,0,1,49.500568,0)">
                <g
                   transform="translate(-1.6704345,-12.428033)"
                   id="g27786">
                  <path
                     style="opacity:1;fill:none;fill-opacity:1;fill-rule:evenodd;stroke:#000000;stroke-width:0.26458332"
                     d="m 12.860447,27.045359 c -0.04289,0.130117 -0.04811,0.272408 -0.01488,0.40532 0.03323,0.132911 0.104798,0.256004 0.203869,0.350632 0.121645,0.116189 0.280796,0.18726 0.444311,0.226758 0.163516,0.0395 0.332576,0.04931 0.50063,0.05673 0.112704,0.005 0.225875,0.0089 0.338123,-0.0024 0.112247,-0.01128 0.224184,-0.03832 0.323335,-0.09213 0.09583,-0.05201 0.177542,-0.128007 0.242956,-0.215241 0.06541,-0.08723 0.11497,-0.185593 0.15388,-0.28745 0.07782,-0.203713 0.113495,-0.420649 0.170128,-0.631239 0.05377,-0.199959 0.131296,-0.402004 0.280701,-0.545369 0.0747,-0.07168 0.166768,-0.126744 0.267602,-0.150225 0.100834,-0.02348 0.210475,-0.01399 0.302144,0.03414 0.113805,0.05974 0.192362,0.174924 0.226023,0.298971 0.03366,0.124046 0.02602,0.256302 -0.0014,0.381871 -0.05488,0.251139 -0.186553,0.482335 -0.224601,0.736569 -0.02802,0.187206 -0.0039,0.377713 0,0.566964 0.0052,0.254781 -0.02673,0.510292 -0.09449,0.755952"
                     id="path27734"
                     inkscape:connector-curvature="0"
                     inkscape:path-effect="#path-effect27736"
                     inkscape:original-d="m 12.860447,27.045359 c 0.03176,0.220221 0.126257,0.503704 0.188988,0.755952 0.06273,0.252249 0.630225,0.188725 0.944941,0.283483 0.314715,0.09476 0.441237,-0.06326 0.661458,-0.09449 0.220222,-0.03123 0.378241,-0.756218 0.566964,-1.13393 0.188724,-0.377712 0.567229,-0.441237 0.850447,-0.661459 0.283217,-0.220221 2.65e-4,0.944676 0,1.417411 -2.65e-4,0.472735 2.65e-4,0.377713 0,0.566964 -2.65e-4,0.189254 -0.06273,0.503703 -0.09449,0.755952" />
                  <path
                     style="opacity:1;fill:none;fill-opacity:1;fill-rule:evenodd;stroke:#000000;stroke-width:0.26458332"
                     d="m 11.479902,25.788724 c 0.0186,-0.155606 0.07658,-0.306347 0.167043,-0.434313 0.06565,-0.09287 0.14863,-0.174089 0.245754,-0.233268 0.09713,-0.05918 0.208567,-0.0959 0.322194,-0.100818 0.128878,-0.0056 0.259045,0.03038 0.367496,0.100226 0.100827,0.06494 0.182726,0.158786 0.233861,0.267269 0.04826,0.102376 0.069,0.215926 0.07516,0.328937 0.0062,0.113011 -0.0018,0.226249 -0.0083,0.339237 -0.01915,0.329387 -0.0267,0.659447 -0.02262,0.989365"
                     id="path27738"
                     inkscape:connector-curvature="0"
                     inkscape:path-effect="#path-effect27740"
                     inkscape:original-d="m 11.479902,25.788724 c 0.05595,-0.145035 0.111627,-0.289806 0.167043,-0.434313 0.05542,-0.144506 0.378897,-0.222989 0.567948,-0.334086 0.189051,-0.111098 0.245262,0.06655 0.367496,0.100226 0.122234,0.03367 0.156171,0.177915 0.233861,0.267269 0.07769,0.08935 0.04481,0.445185 0.06682,0.668174 0.02201,0.222989 -0.01482,0.659312 -0.02262,0.989365" />
                  <path
                     style="opacity:1;fill:none;fill-opacity:1;fill-rule:evenodd;stroke:#000000;stroke-width:0.26458332"
                     d="m 10.811728,24.853281 c 0.290285,0.255281 0.520838,0.578056 0.668174,0.935443 0.126281,0.306315 0.191914,0.636173 0.334087,0.935444 0.145295,0.305842 0.368556,0.572415 0.635439,0.780798 0.266882,0.208384 0.576653,0.359331 0.901361,0.455323 0.1636,0.04837 0.331395,0.08308 0.50113,0.100227 0.13323,0.01346 0.267964,0.01607 0.400904,0 0.100222,-0.01212 0.199736,-0.03484 0.300678,-0.03341 0.183247,0.0026 0.358245,0.08569 0.501131,0.200451 0.154283,0.123915 0.275636,0.283319 0.416231,0.422571 0.0703,0.06963 0.145929,0.134596 0.23063,0.185736 0.0847,0.05114 0.178949,0.08823 0.277262,0.09938 0.0989,0.01121 0.200155,-0.0042 0.292979,-0.04016 0.09282,-0.03593 0.17731,-0.092 0.249736,-0.160279 0.144854,-0.136551 0.23962,-0.318815 0.303822,-0.507247 0.0388,-0.113875 0.06829,-0.233079 0.133635,-0.334086 0.09437,-0.145859 0.252483,-0.237297 0.367496,-0.367496 0.100378,-0.113631 0.166007,-0.254651 0.267269,-0.367495 0.08134,-0.09065 0.185299,-0.161457 0.300678,-0.200452 0.06943,-0.02346 0.143069,-0.03545 0.216255,-0.03159 0.07319,0.0039 0.145886,0.02382 0.209042,0.061 0.06316,0.03718 0.11645,0.09186 0.148884,0.157578 0.03243,0.06572 0.04336,0.142438 0.02718,0.213916 -0.01615,0.07134 -0.05764,0.13423 -0.102664,0.191881 -0.04502,0.05765 -0.09462,0.112269 -0.131197,0.175614 -0.06944,0.120256 -0.08697,0.262678 -0.100226,0.400906 -0.0089,0.09236 -0.01648,0.185073 -0.035,0.275984 -0.01852,0.09091 -0.04839,0.180558 -0.09863,0.258553 -0.08169,0.126803 -0.210619,0.214031 -0.334087,0.300678 -0.189693,0.133123 -0.37465,0.273073 -0.567948,0.400905 -0.133989,0.08861 -0.272003,0.17141 -0.400904,0.267271 -0.209436,0.155753 -0.392666,0.344378 -0.601356,0.501129 -0.172922,0.129885 -0.362106,0.236964 -0.534539,0.367496 -0.176356,0.133501 -0.334417,0.291218 -0.467722,0.467722 -0.200191,0.265067 -0.344511,0.574685 -0.400904,0.902033 -0.0361,0.209533 -0.0361,0.425235 0,0.634768"
                     id="path27742"
                     inkscape:connector-curvature="0"
                     inkscape:path-effect="#path-effect27744"
                     inkscape:original-d="m 10.811728,24.853281 c 0.245262,0.356095 0.445714,0.623364 0.668174,0.935443 0.22246,0.312079 0.222989,0.623365 0.334087,0.935444 0.111097,0.312079 1.024797,0.823816 1.5368,1.236121 0.512001,0.412305 0.334351,0.06655 0.50113,0.100227 0.166779,0.03367 0.267534,-2.65e-4 0.400904,0 0.13337,2.64e-4 0.200717,-0.02254 0.300678,-0.03341 0.09996,-0.01088 0.334352,0.133371 0.501131,0.200451 0.166779,0.06708 0.616346,0.471524 0.924123,0.707683 0.307776,0.23616 0.564623,-0.472053 0.846537,-0.707683 0.281915,-0.235628 0.08935,-0.222988 0.133635,-0.334086 0.04428,-0.111098 0.245262,-0.245262 0.367496,-0.367496 0.122234,-0.122234 0.178444,-0.245261 0.267269,-0.367495 0.08882,-0.122234 0.200717,-0.1339 0.300678,-0.200452 0.09996,-0.06655 0.401169,0.267004 0.601357,0.400904 0.200188,0.133899 -0.155643,0.244732 -0.233861,0.367495 -0.07822,0.122764 -0.06655,0.267005 -0.100226,0.400906 -0.03367,0.133897 -0.08882,0.356094 -0.133635,0.534537 -0.04481,0.178446 -0.22246,0.200189 -0.334087,0.300678 -0.111627,0.100491 -0.378367,0.267007 -0.567948,0.400905 -0.18958,0.1339 -0.267004,0.177916 -0.400904,0.267271 -0.133899,0.08935 -0.400639,0.333822 -0.601356,0.501129 -0.200717,0.167309 -0.356095,0.244732 -0.534539,0.367496 -0.178445,0.122764 -0.31155,0.311549 -0.467722,0.467722 -0.156172,0.15617 -0.267005,0.601091 -0.400904,0.902033 -0.1339,0.300943 2.64e-4,0.422913 0,0.634768" />
                  <path
                     style="opacity:1;fill:none;fill-opacity:1;fill-rule:evenodd;stroke:#000000;stroke-width:0.26458332"
                     d="m 10.811728,24.853281 c 0.01764,-0.128224 -0.01232,-0.262446 -0.08279,-0.371009 -0.07047,-0.108563 -0.180881,-0.190557 -0.30518,-0.226643 -0.124299,-0.03609 -0.261448,-0.02596 -0.379102,0.02798 -0.1176543,0.05394 -0.2148259,0.15126 -0.2685975,0.268993 -0.033758,0.07391 -0.050533,0.154252 -0.066817,0.233861 -0.026467,0.129388 -0.052432,0.261091 -0.040543,0.392622 0.00594,0.06576 0.021527,0.13104 0.050112,0.190566 0.028585,0.05953 0.070496,0.113193 0.1240658,0.151803 0.032595,0.02349 0.069193,0.0413 0.100226,0.06682 0.044746,0.0368 0.075641,0.08779 0.099823,0.140435 0.02418,0.05264 0.0425,0.107849 0.06722,0.160244 0.05545,0.117545 0.141709,0.21815 0.200453,0.334086 0.09287,0.183285 0.112062,0.393938 0.12638,0.598909 0.01432,0.204971 0.02647,0.414978 0.107481,0.603804 0.08906,0.207595 0.254111,0.37257 0.367495,0.567948 0.05001,0.08617 0.08971,0.177841 0.133635,0.267269 0.03962,0.08066 0.08281,0.15975 0.133635,0.233862 0.08068,0.117656 0.179659,0.221496 0.267269,0.334087 0.12918,0.166014 0.232936,0.350103 0.334087,0.534538 0.117702,0.214614 0.23343,0.432821 0.300678,0.668173 0.104713,0.366468 0.08692,0.755291 0.06682,1.135896 -0.0088,0.167193 -0.01794,0.334421 -0.03341,0.501131 -0.01445,0.155713 -0.03447,0.311345 -0.03341,0.467723 0.0017,0.245522 0.05527,0.490436 0.03341,0.734989 -0.01927,0.215558 -0.0964,0.421578 -0.133635,0.634767 -0.08835,0.505802 0.05143,1.023434 0.233861,1.503391 0.180747,0.475515 0.404691,0.9346 0.668174,1.369756"
                     id="path27754"
                     inkscape:connector-curvature="0"
                     inkscape:path-effect="#path-effect27756"
                     inkscape:original-d="m 10.811728,24.853281 c -0.344959,-0.100491 -0.690182,-0.200717 -1.0356695,-0.300678 -0.3454876,-0.09996 -0.04428,0.155643 -0.066817,0.233861 -0.022537,0.07822 0.089355,0.489729 0.1336349,0.734991 0.04428,0.245262 0.067082,0.04428 0.100226,0.06682 0.033144,0.02254 0.1116266,0.200188 0.1670426,0.300679 0.05542,0.10049 0.1339,0.222459 0.200453,0.334086 0.06655,0.111627 0.156171,0.801544 0.233861,1.202713 0.07769,0.401169 0.245261,0.378368 0.367495,0.567948 0.122234,0.189582 0.08935,0.177916 0.133635,0.267269 0.04428,0.08935 0.08935,0.155643 0.133635,0.233862 0.04428,0.07822 0.178444,0.222459 0.267269,0.334087 0.08882,0.111625 0.222989,0.356095 0.334087,0.534538 0.111098,0.178445 0.200717,0.445185 0.300678,0.668173 0.09996,0.222991 0.04481,0.756999 0.06682,1.135896 0.02201,0.378897 -0.02201,0.333822 -0.03341,0.501131 -0.0114,0.167307 -0.02201,0.31155 -0.03341,0.467723 -0.0114,0.15617 0.02254,0.489728 0.03341,0.734989 0.01087,0.245263 -0.08882,0.422912 -0.133635,0.634767 -0.04481,0.211852 0.156172,1.001995 0.233861,1.503391 0.07769,0.501394 0.445714,0.912905 0.668174,1.369756" />
                  <path
                     style="opacity:1;fill:#ff7f2a;fill-opacity:1;fill-rule:evenodd;stroke:#ff0000;stroke-width:0.26458332"
                     d="m 13.768397,26.507011 c -0.245089,-0.358102 -0.4218,-0.762826 -0.517834,-1.186008 -0.131268,-0.578442 -0.11144,-1.18069 -0.05011,-1.770661 0.07688,-0.73954 0.220614,-1.480857 0.534539,-2.15486 0.270664,-0.581121 0.665227,-1.107273 0.851922,-1.720548 0.0351,-0.115304 0.06388,-0.235791 0.133635,-0.334087 0.02973,-0.04189 0.06611,-0.07852 0.100226,-0.11693 0.02683,-0.0302 0.05277,-0.06236 0.06682,-0.100226 0.0084,-0.02258 0.01244,-0.04697 0.02447,-0.06784 0.006,-0.01043 0.0141,-0.01989 0.02439,-0.02614 0.0103,-0.0062 0.02295,-0.0091 0.03466,-0.0063 0.0069,0.0016 0.01322,0.0052 0.01847,0.0099 0.0053,0.0047 0.0094,0.01057 0.01239,0.01696 0.006,0.01278 0.0071,0.02738 0.0056,0.0414 -0.003,0.02803 -0.01618,0.05416 -0.01975,0.08213 -0.0027,0.02143 2.83e-4,0.04334 0.0068,0.06395 0.0065,0.02061 0.01632,0.04002 0.02735,0.0586 0.02207,0.03715 0.04917,0.07157 0.06612,0.111312 0.0177,0.04151 0.02356,0.08708 0.02606,0.132134 0.0025,0.04506 0.0018,0.09035 0.0073,0.135136 0.01039,0.08468 0.0425,0.165264 0.08063,0.241583 0.03813,0.07632 0.08252,0.149408 0.119821,0.226139 0.06244,0.128458 0.104324,0.265691 0.150339,0.400904 0.06298,0.185073 0.135034,0.372457 0.133635,0.567948 -0.0015,0.20355 -0.08269,0.398558 -0.100226,0.601356 -0.01289,0.149087 0.01036,0.303771 0.08352,0.434313 0.03375,0.06022 0.07732,0.114238 0.117847,0.170119 0.04053,0.05588 0.07863,0.114809 0.09931,0.180672 0.02369,0.07547 0.02333,0.156639 0.01287,0.235044 -0.01046,0.07841 -0.03071,0.155124 -0.04628,0.232678 -0.05635,0.280754 -0.05362,0.580139 -0.183747,0.835217 -0.03944,0.07732 -0.09015,0.148293 -0.13313,0.223701 -0.04298,0.07541 -0.07873,0.157387 -0.08403,0.244021 -0.0058,0.09501 0.02539,0.188489 0.0648,0.275129 0.03941,0.08664 0.08751,0.169569 0.118951,0.25941 0.02621,0.07489 0.0405,0.154832 0.03341,0.233861 -0.0078,0.08641 -0.04056,0.168536 -0.07757,0.247007 -0.037,0.07847 -0.07871,0.155126 -0.106182,0.237419 -0.03296,0.09875 -0.04487,0.204016 -0.08352,0.300678 -0.04084,0.102138 -0.109646,0.190136 -0.167043,0.283974 -0.05156,0.0843 -0.09427,0.173987 -0.149936,0.25563 -0.05567,0.08164 -0.126709,0.156523 -0.21756,0.195387 -0.09356,0.04002 -0.199045,0.03847 -0.300678,0.03341 -0.24092,-0.01199 -0.481045,-0.03991 -0.718287,-0.08352 z"
                     id="path27758"
                     inkscape:connector-curvature="0"
                     inkscape:path-effect="#path-effect27760"
                     inkscape:original-d="m 13.768397,26.507011 c -0.239693,-0.02758 -0.344958,-0.790937 -0.517834,-1.186008 -0.172877,-0.395072 -0.03314,-1.180705 -0.05011,-1.770661 -0.01697,-0.589955 0.356624,-1.436838 0.534539,-2.15486 0.177916,-0.718023 0.568213,-1.147297 0.851922,-1.720548 0.283709,-0.573251 0.08936,-0.222989 0.133635,-0.334087 0.04428,-0.111098 0.06708,-0.07822 0.100226,-0.11693 0.03314,-0.03871 0.04481,-0.06708 0.06682,-0.100226 0.02201,-0.03314 0.05595,-0.06708 0.08352,-0.100226 0.02758,-0.03314 0.0114,0.09996 0.0167,0.150339 0.0053,0.05038 0.06708,0.155642 0.100226,0.23386 0.03314,0.07822 0.02254,0.177916 0.03341,0.26727 0.01087,0.08935 0.133899,0.31155 0.200452,0.467722 0.06655,0.156171 0.100491,0.267005 0.150339,0.400904 0.04985,0.133899 0.08935,0.378367 0.133635,0.567948 0.04428,0.18958 -0.06655,0.40064 -0.100226,0.601356 -0.03367,0.200717 0.05595,0.289278 0.08352,0.434313 0.02758,0.145036 0.145035,0.233596 0.217156,0.350791 0.07212,0.117195 -0.02201,0.31155 -0.03341,0.467722 -0.0114,0.156172 -0.122233,0.556547 -0.183747,0.835217 -0.06151,0.278671 -0.144507,0.31155 -0.217157,0.467722 -0.07265,0.156172 0.122763,0.356095 0.183748,0.534539 0.06098,0.178444 0.02254,0.155643 0.03341,0.233861 0.01087,0.07822 -0.122234,0.322686 -0.183748,0.484426 -0.06151,0.16174 -0.05542,0.200187 -0.08352,0.300678 -0.02811,0.100491 -0.111097,0.189051 -0.167043,0.283974 -0.05595,0.09492 -0.244733,0.300414 -0.367496,0.451017 -0.122763,0.150604 -0.200187,0.02201 -0.300678,0.03341 -0.100491,0.0114 -0.478593,-0.05595 -0.718287,-0.08352 z" />
                  <path
                     style="opacity:1;fill:#ffff00;fill-opacity:1;fill-rule:evenodd;stroke:#ff0000;stroke-width:0.06944097"
                     d="m 14.20505,26.401497 c -0.06534,-0.09174 -0.112593,-0.196325 -0.138249,-0.306 -0.03487,-0.149062 -0.02975,-0.304637 -0.01338,-0.456845 0.02056,-0.191175 0.05933,-0.382714 0.142709,-0.555972 0.07223,-0.150081 0.1772,-0.285118 0.227443,-0.443916 0.0094,-0.0298 0.01721,-0.06099 0.03568,-0.0862 0.0079,-0.01085 0.01766,-0.02026 0.02676,-0.03017 0.0071,-0.0078 0.01402,-0.01604 0.01784,-0.02586 0.0023,-0.0059 0.0035,-0.01225 0.0067,-0.01766 0.0016,-0.0027 0.0038,-0.0051 0.0065,-0.0067 0.0027,-0.0016 0.0061,-0.0023 0.0091,-0.0015 0.0018,4.56e-4 0.0034,0.0014 0.0047,0.0026 0.0013,0.0012 0.0024,0.0027 0.0032,0.0044 0.0015,0.0033 0.0018,0.007 0.0015,0.01064 -7.28e-4,0.0072 -0.004,0.01397 -0.0048,0.02117 -6.36e-4,0.0056 2.28e-4,0.01124 0.002,0.01656 0.0018,0.0053 0.0044,0.01032 0.0073,0.0151 0.0059,0.0096 0.013,0.0184 0.01747,0.02868 0.0046,0.01068 0.0062,0.02245 0.0069,0.03408 6.8e-4,0.01163 5.39e-4,0.02332 0.002,0.03488 0.0028,0.02196 0.0114,0.04279 0.02157,0.06245 0.01017,0.01966 0.022,0.03844 0.03195,0.05822 0.01663,0.03306 0.02783,0.06853 0.04014,0.103437 0.01681,0.04767 0.03607,0.09598 0.03568,0.146535 -4.08e-4,0.05257 -0.02212,0.102785 -0.02676,0.155155 -0.0034,0.03854 0.0029,0.07859 0.0223,0.112056 0.009,0.01556 0.02066,0.02942 0.03148,0.04379 0.01082,0.01437 0.021,0.02959 0.0265,0.04672 0.0062,0.01945 0.0061,0.04043 0.0034,0.06066 -0.0028,0.02023 -0.0081,0.04001 -0.01227,0.06001 -0.0075,0.03625 -0.01094,0.0732 -0.01696,0.109713 -0.006,0.03652 -0.0148,0.07306 -0.0321,0.10578 -0.01054,0.01994 -0.02407,0.03812 -0.03555,0.05753 -0.01148,0.01941 -0.02104,0.04064 -0.02243,0.06314 -0.0015,0.02462 0.0068,0.0488 0.01734,0.07111 0.01052,0.02231 0.02334,0.0436 0.03172,0.0668 0.007,0.01928 0.01078,0.03993 0.0089,0.06034 -0.0021,0.0224 -0.01082,0.04362 -0.02069,0.06382 -0.0099,0.02021 -0.02101,0.03991 -0.02837,0.06116 -0.0088,0.02545 -0.01206,0.05268 -0.0223,0.07758 -0.01089,0.02649 -0.02918,0.04913 -0.0446,0.07327 -0.0139,0.02177 -0.02558,0.04495 -0.04053,0.06602 -0.01495,0.02106 -0.03377,0.04032 -0.05758,0.05035 -0.02502,0.01054 -0.05316,0.01 -0.08027,0.0086 -0.06428,-0.0033 -0.128355,-0.01052 -0.191766,-0.02155 z"
                     id="path27758-6"
                     inkscape:connector-curvature="0"
                     inkscape:path-effect="#path-effect27760-7"
                     inkscape:original-d="m 14.20505,26.401497 c -0.06399,-0.0071 -0.09209,-0.204069 -0.138249,-0.306 -0.04615,-0.101932 -0.0088,-0.304632 -0.01338,-0.456845 -0.0045,-0.152214 0.09521,-0.370717 0.142709,-0.555972 0.0475,-0.185256 0.1517,-0.296012 0.227443,-0.443916 0.07574,-0.147903 0.02386,-0.05753 0.03568,-0.0862 0.01182,-0.02866 0.01791,-0.02018 0.02676,-0.03017 0.0088,-0.01 0.01196,-0.01731 0.01784,-0.02586 0.0059,-0.0086 0.01494,-0.01731 0.0223,-0.02586 0.0074,-0.0086 0.003,0.02579 0.0045,0.03879 0.0014,0.013 0.01791,0.04016 0.02676,0.06034 0.0088,0.02018 0.006,0.0459 0.0089,0.06896 0.0029,0.02305 0.03575,0.08038 0.05352,0.120676 0.01777,0.04029 0.02683,0.06889 0.04014,0.103437 0.01331,0.03455 0.02385,0.09762 0.03568,0.146535 0.01182,0.04891 -0.01777,0.103369 -0.02676,0.155155 -0.009,0.05179 0.01494,0.07464 0.0223,0.112056 0.0074,0.03742 0.03872,0.06027 0.05798,0.09051 0.01925,0.03024 -0.0059,0.08038 -0.0089,0.120676 -0.003,0.04029 -0.03263,0.143594 -0.04906,0.215493 -0.01642,0.0719 -0.03858,0.08038 -0.05798,0.120677 -0.0194,0.04029 0.03277,0.09187 0.04906,0.137915 0.01628,0.04604 0.006,0.04016 0.0089,0.06034 0.0029,0.02018 -0.03263,0.08326 -0.04906,0.124986 -0.01642,0.04173 -0.0148,0.05165 -0.0223,0.07758 -0.0075,0.02593 -0.02966,0.04878 -0.0446,0.07327 -0.01494,0.02449 -0.06534,0.07751 -0.09811,0.116366 -0.03278,0.03886 -0.05345,0.0057 -0.08027,0.0086 -0.02683,0.0029 -0.127773,-0.01443 -0.191766,-0.02155 z" />
                </g>
                <path
                   inkscape:original-d="m 13.05011,20.075839 c 0.1339,0.72359 0.267534,1.447445 0.400905,2.171564 0.13337,0.72412 0.401169,0.712454 0.601356,1.069078 0.200188,0.356624 1.425702,0.623365 2.138156,0.935444 0.712454,0.312079 1.559337,0.489729 2.338608,0.734991 0.779272,0.245262 1.648427,0.445184 2.472244,0.668174 0.823816,0.222989 0.712983,-0.1339 1.069078,-0.200452 0.356095,-0.06655 0.802073,-0.757529 1.202713,-1.135896 0.400639,-0.378367 1.960241,-0.757528 2.939964,-1.135895"
                   inkscape:path-effect="#path-effect27790"
                   inkscape:connector-curvature="0"
                   id="path27788"
                   d="m 13.05011,20.075839 c 0.01593,0.739105 0.15188,1.475491 0.400905,2.171564 0.138752,0.387839 0.317382,0.7707 0.601356,1.069078 0.272103,0.285905 0.628277,0.480075 0.998295,0.617437 0.370018,0.137362 0.757077,0.221786 1.139861,0.318007 0.792868,0.199305 1.5721,0.450688 2.338608,0.734991 0.80415,0.298265 1.615116,0.637331 2.472244,0.668174 0.36631,0.01318 0.742721,-0.03358 1.069078,-0.200452 0.246911,-0.126252 0.455687,-0.316071 0.645058,-0.518662 0.189371,-0.202591 0.362567,-0.420143 0.557655,-0.617234 0.761456,-0.769272 1.859088,-1.193357 2.939964,-1.135895"
                   style="opacity:1;fill:none;fill-opacity:1;fill-rule:evenodd;stroke:#000000;stroke-width:0.26458332" />
                <path
                   inkscape:original-d="m 11.212633,23.95125 c 0.345488,0.389502 0.69071,0.779269 1.035669,1.169301 0.344958,0.390031 1.603882,1.068813 2.405425,1.603617 0.801544,0.534803 1.960242,0.667909 2.939965,1.00226 0.979724,0.334352 2.272056,0.489729 3.407687,0.734992 1.135631,0.245261 0.802073,0.31155 1.202713,0.46772 0.400639,0.156173 0.133899,0.84609 0.200452,1.269532"
                   inkscape:path-effect="#path-effect27798"
                   inkscape:connector-curvature="0"
                   id="path27796"
                   d="m 11.212633,23.95125 c 0.307114,0.421423 0.654419,0.813542 1.035669,1.169301 0.70742,0.660123 1.529537,1.19249 2.405425,1.603617 0.938633,0.440579 1.936132,0.742527 2.939965,1.00226 1.125248,0.291149 2.263393,0.531175 3.407687,0.734992 0.215157,0.03832 0.431466,0.0756 0.638933,0.14429 0.207467,0.06869 0.407481,0.170683 0.56378,0.32343 0.164191,0.16046 0.274877,0.374767 0.310682,0.601536 0.03581,0.226769 -0.0035,0.464754 -0.11023,0.667996"
                   style="opacity:1;fill:none;fill-opacity:1;fill-rule:evenodd;stroke:#000000;stroke-width:0.26458332" />
                <path
                   inkscape:original-d="m 22.404544,30.198672 c -0.334354,9.621967 -0.48973,1.647896 -0.734991,2.472243 -0.245262,0.824346 -0.08883,1.380627 -0.133635,2.071338 -0.04481,0.69071 -0.04428,1.603354 -0.06682,2.405427 -0.02254,0.802072 0.178444,0.578819 0.26727,0.868625 0.08882,0.289806 0.222989,1.202448 0.334087,1.804069 0.111098,0.601621 -0.846088,1.246994 -1.269528,1.870888 -0.423441,0.623894 -0.890634,1.425173 -1.336348,2.138156 -0.445714,0.712983 -1.291538,1.826077 -1.937704,2.739513 -0.646166,0.913435 -1.425173,2.58334 -2.138156,3.875408 -0.712984,1.292067 -1.469718,0.979723 -2.204974,1.469982"
                   inkscape:path-effect="#path-effect27802"
                   inkscape:connector-curvature="0"
                   id="path27800"
                   d="m 22.404544,30.198672 c -0.380474,0.775433 -0.630044,1.614896 -0.734991,2.472243 -0.08408,0.686898 -0.07584,1.381731 -0.133635,2.071338 -0.06726,0.802481 -0.223396,1.615501 -0.06682,2.405427 0.05897,0.297494 0.161294,0.584462 0.26727,0.868625 0.108333,0.290483 0.221192,0.580449 0.292898,0.882069 0.07171,0.301619 0.101291,0.617855 0.04119,0.922 -0.07396,0.374266 -0.279288,0.710375 -0.517436,1.008419 -0.238149,0.298044 -0.511758,0.566184 -0.752092,0.862469 -0.529989,0.653373 -0.886059,1.427506 -1.336348,2.138156 -0.59893,0.945237 -1.364846,1.778251 -1.937704,2.739513 -0.757343,1.27083 -1.171823,2.75524 -2.138156,3.875408 -0.584127,0.677117 -1.355279,1.191218 -2.204974,1.469982"
                   style="opacity:1;fill:none;fill-opacity:1;fill-rule:evenodd;stroke:#000000;stroke-width:0.26458332" />
                <path
                   inkscape:original-d="m 26.146317,28.92914 c -0.579349,-0.02201 -0.846089,0.756999 -1.26953,1.135896 -0.423442,0.378897 -0.31155,2.137892 -0.467722,3.207234 -0.156172,1.069343 -0.356095,1.826078 -0.534539,2.739515 -0.178444,0.913434 0.267534,0.979722 0.400904,1.469982 0.13337,0.490257 0.22299,0.40064 0.334087,0.601356 0.111098,0.200715 1.559337,0.48973 2.338608,0.734991 0.779272,0.245261 0.802073,-0.712983 1.202713,-1.069078 0.40064,-0.356095 0.712984,-1.381157 1.069078,-2.071338 0.356095,-0.690182 -0.08882,-2.049333 -0.133635,-3.073601 -0.04481,-1.024268 -0.177914,-1.514793 -0.267269,-2.271789 -0.08936,-0.757 -0.623364,-0.891165 -0.935442,-1.33635 -0.312079,-0.445183 -1.157904,-0.04481 -1.737253,-0.06682 z"
                   inkscape:path-effect="#path-effect27806"
                   inkscape:connector-curvature="0"
                   id="path27804"
                   d="m 26.146317,28.92914 c -0.541704,0.208549 -1.002261,0.620627 -1.26953,1.135896 -0.250544,0.483025 -0.329847,1.036044 -0.361732,1.579246 -0.03188,0.543202 -0.02041,1.090624 -0.10599,1.627988 -0.07343,0.461063 -0.217192,0.907442 -0.337624,1.358516 -0.120433,0.451073 -0.218415,0.91462 -0.196915,1.380999 0.02353,0.510465 0.189631,1.004695 0.400904,1.469982 0.09496,0.20914 0.199898,0.41494 0.334087,0.601356 0.257647,0.357924 0.625258,0.638797 1.044186,0.776606 0.418928,0.137809 0.887606,0.128657 1.294422,-0.04162 0.500737,-0.209582 0.874054,-0.637053 1.202713,-1.069078 0.474307,-0.62348 0.903888,-1.305567 1.069078,-2.071338 0.217305,-1.007364 -0.04156,-2.047187 -0.133635,-3.073601 -0.06828,-0.761179 -0.04602,-1.540281 -0.267269,-2.271789 -0.16085,-0.531812 -0.465163,-1.040488 -0.935442,-1.33635 -0.256811,-0.161565 -0.556501,-0.25427 -0.859683,-0.265931 -0.303182,-0.01166 -0.609107,0.05775 -0.87757,0.199111 z"
                   style="opacity:1;fill:none;fill-opacity:1;fill-rule:evenodd;stroke:#000000;stroke-width:0.26458332" />
                <path
                   inkscape:original-d="m 26.213134,23.182847 c 0.734726,-3.941961 0.490259,-2.628415 0.734991,-3.942226 0.244732,-1.313811 -0.267004,-0.401169 -0.400903,-0.601356 -0.133899,-0.200188 -0.356095,-0.802073 -0.534539,-1.202713 -0.178445,-0.40064 2.64e-4,-0.222989 0,-0.334087 -2.65e-4,-0.111098 0.356623,-1.381157 0.534539,-2.071339 0.177915,-0.690181 0.178444,-0.891163 0.267269,-1.336347 0.08882,-0.445185 0.178444,-0.802074 0.26727,-1.202713 0.08882,-0.40064 0.222989,-1.069343 0.334087,-1.603617 0.111097,-0.534275 0.623893,-1.6038821 0.935443,-2.4054261 0.31155,-0.801544 0.534804,-1.1584326 0.801808,-1.737252 0.267005,-0.5788194 0.267535,-0.5793485 0.400905,-0.8686259 0.13337,-0.2892774 0.668438,-0.2675341 1.002261,-0.4009043 0.333822,-0.1333702 0.802073,-2.646e-4 1.202712,0 0.40064,2.646e-4 0.712984,0.22246 1.069079,0.3340869 0.356094,0.1116269 0.267534,0.1333702 0.400904,0.2004521 0.13337,0.067082 0.133899,0.9797237 0.200452,1.4699824 0.06655,0.4902587 0.04481,0.8906339 0.06682,1.3363477 0.02201,0.4457138 -0.177915,0.6679092 -0.267269,1.0022607 -0.08935,0.3343515 -0.267005,0.8906335 -0.400904,1.3363475 -0.1339,0.445714 -0.133371,0.890634 -0.200453,1.336348 -0.06708,0.445714 -0.267005,1.246993 -0.400904,1.870886 -0.133899,0.623894 -0.13337,0.57882 -0.200452,0.868626 -0.06708,0.289807 -0.356095,1.157904 -0.534539,1.737252 -0.178444,0.579349 -0.267005,1.024269 -0.400904,1.5368 -0.1339,0.512531 -0.40064,0.48973 -0.601357,0.734991 -0.200717,0.245262 -0.13337,-2.64e-4 -0.200452,0 -0.06708,2.65e-4 -0.267005,0.133371 -0.400904,0.200453"
                   inkscape:path-effect="#path-effect27810"
                   inkscape:connector-curvature="0"
                   id="path27808"
                   d="m 26.213134,23.182847 c 0.564386,-0.458281 0.958741,-1.121337 1.091991,-1.836038 0.133249,-0.714701 0.0043,-1.475317 -0.357,-2.106188 -0.119778,-0.209131 -0.26344,-0.4034 -0.400903,-0.601356 -0.253101,-0.364483 -0.492465,-0.760969 -0.534539,-1.202713 -0.01057,-0.110995 -0.0084,-0.222904 0,-0.334087 0.05361,-0.712553 0.355556,-1.379551 0.534539,-2.071339 0.113808,-0.43988 0.177985,-0.890841 0.267269,-1.336347 0.0807,-0.402688 0.181937,-0.80098 0.26727,-1.202713 0.113465,-0.534169 0.198847,-1.074541 0.334087,-1.603617 0.213468,-0.835115 0.549422,-1.6347292 0.935443,-2.4054261 0.285922,-0.5708474 0.601352,-1.1310872 0.801808,-1.737252 0.05052,-0.15277 0.09363,-0.3081846 0.153307,-0.4576156 0.05968,-0.1494311 0.137054,-0.2940868 0.247598,-0.4110103 0.126151,-0.133432 0.291144,-0.2257152 0.464476,-0.28633 0.173333,-0.060615 0.355668,-0.091088 0.537785,-0.1145743 0.39917,-0.051478 0.806442,-0.070403 1.202712,0 0.36812,0.065402 0.717798,0.2060576 1.069079,0.3340869 0.141179,0.051455 0.286552,0.1029711 0.400904,0.2004521 0.0981,0.083623 0.167842,0.1974881 0.209872,0.3193442 0.04203,0.1218561 0.05737,0.2516863 0.05782,0.3805864 8.97e-4,0.2578002 -0.05651,0.5124732 -0.06724,0.7700518 -0.01858,0.4462031 0.103137,0.8912371 0.06682,1.3363477 -0.0282,0.3456855 -0.150401,0.6757092 -0.267269,1.0022607 -0.156837,0.4382345 -0.306494,0.8805695 -0.400904,1.3363475 -0.09138,0.441155 -0.130268,0.891328 -0.200453,1.336348 -0.09938,0.630139 -0.261248,1.248432 -0.400904,1.870886 -0.06506,0.289962 -0.125352,0.581102 -0.200452,0.868626 -0.153133,0.58628 -0.367109,1.154894 -0.534539,1.737252 -0.146289,0.508826 -0.256815,1.027346 -0.400904,1.5368 -0.04594,0.162424 -0.0966,0.326719 -0.191522,0.466297 -0.04746,0.06979 -0.105883,0.132721 -0.175396,0.180585 -0.06951,0.04786 -0.150403,0.08031 -0.234439,0.08811 -0.06657,0.0062 -0.133664,-0.003 -0.200452,0 -0.153716,0.0069 -0.303171,0.08161 -0.400904,0.200453"
                   style="opacity:1;fill:none;fill-opacity:1;fill-rule:evenodd;stroke:#000000;stroke-width:0.26458332" />
                <path
                   inkscape:original-d="m 29.888093,19.441075 c 2.64e-4,1.180175 2.64e-4,2.360615 -3e-6,3.54132"
                   inkscape:path-effect="#path-effect27814"
                   inkscape:connector-curvature="0"
                   id="path27812"
                   d="m 29.888093,19.441075 -3e-6,3.54132"
                   style="opacity:1;fill:none;fill-opacity:1;fill-rule:evenodd;stroke:#000000;stroke-width:0.26458332" />
                <path
                   inkscape:original-d="m 29.88809,22.982395 c 0.646165,-0.02254 1.336611,-0.04481 2.004523,-0.06682 0.667909,-0.02201 0.579347,0.13337 0.868624,0.200452 0.289277,0.06708 0.891165,1.113359 1.336347,1.670435 0.445186,0.557076 0.445715,0.890634 0.668176,1.336347 0.222459,0.445714 0.267534,0.801544 0.400902,1.202713 0.133371,0.401169 0.267536,1.246992 0.400905,1.870888 0.133371,0.623892 0.312079,1.202446 0.467722,1.804069 0.155644,0.60162 0.712984,1.202447 1.069078,1.804069 0.356095,0.601621 0.222989,0.712454 0.334087,1.069078 0.111099,0.356624 0.668438,0.222459 1.00226,0.334087 0.333822,0.111625 0.802074,0.578818 1.202714,0.868625 0.40064,0.289808 0.891162,0.801544 1.336347,1.202713 0.445185,0.40117 0.312079,1.291537 0.467722,1.937705 0.155642,0.646166 -0.356094,0.623364 -0.53454,0.935443"
                   inkscape:path-effect="#path-effect27818"
                   inkscape:connector-curvature="0"
                   id="path27816"
                   d="m 29.88809,22.982395 c 0.661861,-0.106069 1.337068,-0.128577 2.004523,-0.06682 0.29743,0.02752 0.598393,0.07318 0.868624,0.200452 0.328909,0.154903 0.593565,0.422871 0.802364,0.720493 0.208799,0.297623 0.36727,0.626858 0.533983,0.949942 0.228444,0.442718 0.474357,0.877413 0.668176,1.336347 0.164537,0.389599 0.290548,0.794446 0.400902,1.202713 0.166493,0.615958 0.297905,1.241194 0.400905,1.870888 0.100757,0.615981 0.17886,1.250767 0.467722,1.804069 0.162679,0.311604 0.386762,0.585988 0.592019,0.871349 0.205257,0.285361 0.395915,0.590701 0.477059,0.93272 0.04388,0.184941 0.05459,0.376198 0.09189,0.562578 0.0373,0.18638 0.105601,0.374327 0.242198,0.5065 0.128283,0.124127 0.303923,0.186728 0.478233,0.225196 0.174311,0.03847 0.353389,0.05648 0.524027,0.108891 0.238476,0.07324 0.452322,0.211367 0.64598,0.368632 0.193658,0.157265 0.369924,0.334652 0.556734,0.499993 0.449664,0.397989 0.964986,0.730819 1.336347,1.202713 0.212701,0.270282 0.373422,0.582835 0.457984,0.916217 0.08456,0.333382 0.09192,0.687513 0.0097,1.021488 -0.08693,0.353257 -0.274329,0.681204 -0.53454,0.935443"
                   style="opacity:1;fill:none;fill-opacity:1;fill-rule:evenodd;stroke:#000000;stroke-width:0.26458332" />
                <path
                   inkscape:original-d="m 30.823535,25.588272 c 0.178443,0.445185 0.312079,0.890634 0.46772,1.336348 0.155643,0.445714 0.267533,2.048801 0.400904,3.073601 0.133371,1.024797 0.08936,2.093346 0.133636,3.140416 0.04428,1.04707 0.08935,2.583341 0.133633,3.875408 0.04428,1.292066 -0.756999,1.380627 -1.135893,2.071338"
                   inkscape:path-effect="#path-effect27822"
                   inkscape:connector-curvature="0"
                   id="path27820"
                   d="m 30.823535,25.588272 c 0.190076,0.432491 0.346606,0.879721 0.46772,1.336348 0.265428,1.000719 0.359232,2.039118 0.400904,3.073601 0.04218,1.047116 0.03211,2.097381 0.133636,3.140416 0.125886,1.293242 0.421683,2.608384 0.133633,3.875408 -0.176837,0.777841 -0.575086,1.50406 -1.135893,2.071338"
                   style="opacity:1;fill:none;fill-opacity:1;fill-rule:evenodd;stroke:#000000;stroke-width:0.26458332" />
                <path
                   inkscape:original-d="m 30.823535,39.085383 c 0.15617,1.113359 0.312079,2.226982 0.46772,3.34087 0.155643,1.113888 0.57935,1.915168 0.868627,2.873147 0.289277,0.95798 1.069342,2.31607 1.603616,3.474503 0.534275,1.158433 0.401169,0.757 0.601358,1.135896 0.200186,0.378897 0.401169,1.336082 0.601355,2.00452 0.200187,0.668441 0.40117,0.489731 0.601356,0.734992"
                   inkscape:path-effect="#path-effect27826"
                   inkscape:connector-curvature="0"
                   id="path27824"
                   d="m 30.823535,39.085383 c 0.05905,1.124342 0.215736,2.243539 0.46772,3.34087 0.224077,0.9758 0.523164,1.933439 0.868627,2.873147 0.440715,1.198808 0.958524,2.37213 1.603616,3.474503 0.216663,0.370247 0.448852,0.734938 0.601358,1.135896 0.248565,0.653506 0.27815,1.384526 0.601355,2.00452 0.147362,0.282679 0.353456,0.534572 0.601356,0.734992"
                   style="opacity:1;fill:none;fill-opacity:1;fill-rule:evenodd;stroke:#000000;stroke-width:0.26458332" />
                <path
                   inkscape:original-d="m 30.823535,25.588272 c 0.490257,-0.02254 1.024797,0.04428 1.536798,0.06682 0.512003,0.02254 0.623895,0.712454 0.935445,1.069078 0.311549,0.356624 0.267533,1.157903 0.400904,1.737252 0.133369,0.579348 0.534803,2.271525 0.801807,3.407685 0.267007,1.136161 0.49026,1.336085 0.734991,2.004523 0.244734,0.668438 0.668438,1.113359 1.00226,1.670434"
                   inkscape:path-effect="#path-effect27834"
                   inkscape:connector-curvature="0"
                   id="path27832"
                   d="m 30.823535,25.588272 c 0.486996,-0.210681 1.069926,-0.185336 1.536798,0.06682 0.424305,0.229165 0.740363,0.628064 0.935445,1.069078 0.241188,0.545243 0.308892,1.148188 0.400904,1.737252 0.180235,1.153865 0.4637,2.289842 0.801807,3.407685 0.206218,0.681793 0.433556,1.359152 0.734991,2.004523 0.275286,0.589388 0.611759,1.150175 1.00226,1.670434"
                   style="opacity:1;fill:none;fill-opacity:1;fill-rule:evenodd;stroke:#000000;stroke-width:0.26458332" />
                <path
                   inkscape:original-d="m 40.912957,39.152198 c -0.08883,-0.490257 -0.177914,-1.024795 -0.267269,-1.536798 -0.08935,-0.512 -0.08883,-0.534802 -0.133633,-0.801809 -0.04481,-0.267004 -0.578821,-0.312079 -0.868627,-0.46772 -0.289806,-0.155644 -0.177916,-0.178445 -0.267269,-0.267269 -0.08936,-0.08883 -0.756999,-0.534805 -1.135896,-0.801809 -0.378896,-0.267004 -0.40064,0.356095 -0.601355,0.534538 -0.200718,0.178445 -0.311552,0.534276 -0.467723,0.801809 -0.156173,0.267534 -0.222461,0.31155 -0.334086,0.467723 -0.111628,0.15617 -0.133372,0.534273 -0.200454,0.801809 -0.06708,0.267533 0.178446,0.578818 0.267271,0.868624 0.08882,0.289806 0.490257,0.712454 0.734992,1.069078 0.244731,0.356624 0.490257,0.133371 0.734988,0.200454 0.244735,0.06708 0.534805,0.08882 0.80181,0.133633 0.267007,0.04481 -0.534273,0.445185 -0.80181,0.668173 -0.267533,0.222991 -0.712454,-0.04481 -1.069078,-0.06681 -0.356624,-0.02201 -0.445182,-0.445714 -0.668173,-0.668176 -0.222988,-0.222459 -0.40064,-0.534802 -0.601356,-0.801806 -0.200715,-0.267007 -0.08883,-0.356624 -0.133635,-0.534541 -0.04481,-0.177914 -0.08882,-0.668438 -0.133633,-1.00226 -0.04481,-0.333822 0.312076,-1.470247 0.467719,-2.204971"
                   inkscape:path-effect="#path-effect27838"
                   inkscape:connector-curvature="0"
                   id="path27836"
                   d="M 40.912957,39.152198 C 40.723204,38.66441 40.631761,38.138611 40.645688,37.6154 c 0.0037,-0.138411 0.01464,-0.277199 0.0019,-0.415076 -0.0127,-0.137877 -0.05096,-0.277136 -0.135574,-0.386733 -0.10159,-0.131583 -0.25858,-0.207264 -0.414023,-0.266188 -0.155442,-0.05892 -0.317833,-0.107044 -0.454604,-0.201532 -0.104058,-0.07189 -0.189039,-0.16789 -0.267269,-0.267269 -0.151833,-0.192882 -0.283989,-0.403934 -0.465675,-0.569 -0.09084,-0.08253 -0.194052,-0.152934 -0.308682,-0.196796 -0.114631,-0.04386 -0.241229,-0.0603 -0.361539,-0.03601 -0.135496,0.02735 -0.25715,0.104861 -0.355431,0.202062 -0.09828,0.0972 -0.175166,0.213731 -0.245924,0.332476 -0.158458,0.26592 -0.290348,0.548115 -0.467723,0.801809 -0.109838,0.157098 -0.236693,0.30262 -0.334086,0.467723 -0.14206,0.240823 -0.217724,0.522742 -0.200454,0.801809 0.01882,0.30406 0.143904,0.59008 0.267271,0.868624 0.08878,0.20045 0.178033,0.401618 0.293837,0.587768 0.115805,0.186149 0.259861,0.358044 0.441155,0.48131 0.213917,0.145447 0.476898,0.217906 0.734988,0.200454 0.143428,-0.0097 0.284941,-0.0462 0.428672,-0.04356 0.07187,0.0013 0.144266,0.01272 0.210291,0.04113 0.06603,0.02841 0.125494,0.07466 0.162847,0.136066 0.02735,0.04497 0.04228,0.09715 0.04466,0.149721 0.0024,0.05258 -0.0077,0.105481 -0.02746,0.154245 -0.03959,0.09753 -0.11732,0.176604 -0.207834,0.230331 -0.09051,0.05373 -0.193423,0.08366 -0.297185,0.101351 -0.103761,0.01769 -0.209104,0.02362 -0.313985,0.03252 -0.18035,0.01531 -0.360358,0.0395 -0.541356,0.03922 -0.180999,-2.79e-4 -0.365277,-0.02621 -0.527722,-0.106033 -0.142601,-0.07007 -0.262866,-0.178898 -0.36852,-0.297567 -0.105655,-0.118669 -0.198427,-0.248141 -0.299653,-0.370609 -0.213781,-0.258642 -0.469854,-0.49309 -0.601356,-0.801806 -0.07215,-0.16939 -0.102885,-0.35301 -0.133635,-0.534541 -0.05632,-0.332496 -0.11472,-0.665558 -0.133633,-1.00226 -0.04263,-0.759023 0.120612,-1.52862 0.467719,-2.204971"
                   style="opacity:1;fill:none;fill-opacity:1;fill-rule:evenodd;stroke:#000000;stroke-width:0.26458332" />
                <path
                   inkscape:original-d="m 36.95643,36.990857 c 0.01206,0.05092 0.02389,0.117853 0.03543,0.177178 0.01154,0.05932 0.212876,0.472205 0.318916,0.708705 0.106042,0.236498 0.260125,0.417084 0.389789,0.626023 0.129665,0.208939 0.299495,0.32259 0.448847,0.484283 0.14935,0.161689 0.197125,0.109976 0.295294,0.165364 0.09817,0.05539 0.09476,-0.04751 0.14174,-0.07087 0.04698,-0.02336 2.64e-4,-0.197128 0,-0.295294 -2.65e-4,-0.09817 -0.141476,-0.157755 -0.212611,-0.236236 -0.07114,-0.07848 -0.157226,-0.197127 -0.236236,-0.295293 -0.07901,-0.09817 -0.07848,-0.102635 -0.118118,-0.153554 -0.03963,-0.05092 -0.1651,-0.315243 -0.248047,-0.472469 -0.08295,-0.157226 -0.180848,-0.441237 -0.271669,-0.661458 -0.09082,-0.220223 -0.04698,-0.197128 -0.07087,-0.295294 -0.02389,-0.09817 -0.02336,-0.362492 -0.03544,-0.543343"
                   inkscape:path-effect="#path-effect27842"
                   inkscape:connector-curvature="0"
                   id="path27840"
                   d="m 36.95643,36.990857 c 0.0084,0.05968 0.02019,0.118874 0.03543,0.177178 0.06569,0.251332 0.193027,0.481472 0.318916,0.708705 0.119251,0.215252 0.238952,0.431594 0.389789,0.626023 0.135009,0.174026 0.293299,0.328343 0.448847,0.484283 0.04112,0.04122 0.08247,0.08292 0.13117,0.114832 0.0487,0.03191 0.105989,0.05371 0.164124,0.05053 0.05429,-0.003 0.107333,-0.02877 0.14174,-0.07087 0.03315,-0.04057 0.04806,-0.09434 0.04614,-0.146692 -0.0019,-0.05236 -0.01981,-0.10331 -0.04614,-0.148602 -0.05342,-0.09187 -0.138972,-0.159613 -0.212611,-0.236236 -0.0874,-0.09094 -0.158917,-0.19564 -0.236236,-0.295293 -0.03959,-0.05103 -0.0808,-0.100846 -0.118118,-0.153554 -0.102959,-0.14541 -0.174574,-0.310154 -0.248047,-0.472469 -0.09837,-0.217311 -0.201679,-0.433419 -0.271669,-0.661458 -0.02972,-0.09683 -0.05333,-0.195534 -0.07087,-0.295294 -0.0315,-0.17911 -0.0434,-0.361659 -0.03544,-0.543343"
                   style="opacity:1;fill:none;fill-opacity:1;fill-rule:evenodd;stroke:#000000;stroke-width:0.26458332" />
                <path
                   inkscape:original-d="m 37.393455,36.128597 c 0.267996,0.161163 0.535731,0.330465 0.803198,0.496094 0.26747,0.165629 0.512109,0.732062 0.767765,1.098492 0.255656,0.366429 0.149879,0.519453 0.224422,0.779576 0.07454,0.260122 0.149882,-0.110509 0.224425,-0.165365 0.07454,-0.05486 -0.0076,-0.590851 -0.01183,-0.88588 -0.0042,-0.295029 -0.172974,-0.512109 -0.259858,-0.767766 -0.08688,-0.255656 -0.480081,-0.543604 -0.720515,-0.815011 C 38.180627,35.597332 37.98823,35.74248 37.771417,35.67975"
                   inkscape:path-effect="#path-effect27868"
                   inkscape:connector-curvature="0"
                   id="path27866"
                   d="m 37.393455,36.128597 c 0.275473,0.152372 0.543618,0.317991 0.803198,0.496094 0.192725,0.132232 0.383006,0.273485 0.529987,0.455212 0.146981,0.181727 0.248359,0.409793 0.237778,0.64328 -0.0071,0.155888 -0.06307,0.308386 -0.05354,0.464143 0.0048,0.07788 0.02709,0.15651 0.07532,0.21784 0.02412,0.03066 0.05452,0.0566 0.08941,0.07405 0.03489,0.01745 0.07432,0.02624 0.113235,0.02354 0.04827,-0.0033 0.09438,-0.02421 0.13224,-0.05433 0.03786,-0.03013 0.06791,-0.06918 0.09219,-0.111034 0.07622,-0.131457 0.0961,-0.2895 0.0839,-0.440965 -0.01221,-0.151465 -0.05449,-0.298661 -0.09573,-0.444915 -0.07341,-0.260364 -0.144731,-0.522972 -0.259858,-0.767766 -0.156791,-0.333384 -0.400065,-0.633242 -0.720515,-0.815011 -0.197949,-0.112283 -0.422355,-0.177564 -0.649645,-0.188987"
                   style="opacity:1;fill:none;fill-opacity:1;fill-rule:evenodd;stroke:#000000;stroke-width:0.26458332" />
                <path
                   inkscape:original-d="m 25.99512,16.981743 c -0.267469,-0.2365 -0.535202,-0.472735 -0.8032,-0.708705 -0.267997,-0.235971 -0.472205,-1.260186 -0.708705,-1.889881 -0.2365,-0.629696 -0.125728,-2.803588 -0.188988,-4.204985 -0.06326,-1.4013975 0.819213,-1.9531421 1.228422,-2.9293159 0.40921,-0.9761739 2.835086,-1.0082011 4.252234,-1.5119048"
                   inkscape:path-effect="#path-effect27872"
                   inkscape:connector-curvature="0"
                   id="path27870"
                   d="m 25.99512,16.981743 c -0.313252,-0.176745 -0.588826,-0.419898 -0.8032,-0.708705 -0.404447,-0.544876 -0.577453,-1.224118 -0.708705,-1.889881 -0.272772,-1.383606 -0.403584,-2.81117 -0.188988,-4.204985 0.163159,-1.0597272 0.538083,-2.1089045 1.228422,-2.9293159 0.507688,-0.603346 1.178138,-1.0684018 1.921099,-1.3325657 0.742961,-0.2641638 1.55651,-0.3267519 2.331135,-0.1793391"
                   style="opacity:1;fill:none;fill-opacity:1;fill-rule:evenodd;stroke:#000000;stroke-width:0.26458332" />
                <path
                   inkscape:original-d="m 33.46015,6.3984096 c 0.819214,0.3147158 1.701157,0.6611937 2.551337,0.9921875 0.850183,0.3309937 0.850713,1.9526125 1.27567,2.9293159 0.424961,0.976703 -0.598196,2.45658 -0.897691,3.685268 -0.299498,1.228687 -1.574636,1.82662 -2.362354,2.740327 -0.787714,0.913707 -1.889614,1.007672 -2.834819,1.511905"
                   inkscape:path-effect="#path-effect27876"
                   inkscape:connector-curvature="0"
                   id="path27874"
                   d="m 33.46015,6.3984096 c 0.935803,-0.017296 1.873088,0.3472036 2.551337,0.9921875 0.789971,0.7512259 1.204473,1.8415085 1.27567,2.9293159 0.0837,1.278912 -0.278407,2.563167 -0.897691,3.685268 -0.58677,1.063188 -1.402938,1.995889 -2.362354,2.740327 -0.850186,0.659683 -1.813352,1.173372 -2.834819,1.511905"
                   style="opacity:1;fill:none;fill-opacity:1;fill-rule:evenodd;stroke:#000000;stroke-width:0.26458332" />
                <path
                   inkscape:original-d="m 30.625328,11.264853 c 0.299495,0.06273 0.598728,0.125728 0.897694,0.188988 0.298966,0.06326 0.504232,-0.378241 0.755951,-0.566964"
                   inkscape:path-effect="#path-effect27880"
                   inkscape:connector-curvature="0"
                   id="path27878"
                   d="m 30.625328,11.264853 c 0.255148,0.184585 0.589782,0.255034 0.897694,0.188988 0.317776,-0.06816 0.601539,-0.280984 0.755951,-0.566964"
                   style="opacity:1;fill:none;fill-opacity:1;fill-rule:evenodd;stroke:#000000;stroke-width:0.26458332" />
                <path
                   inkscape:original-d="m 31.239539,9.3277251 c 0.252249,0.062731 0.504233,0.1257277 0.755952,0.1889882 0.251719,0.063261 0.630227,-0.3152447 0.944941,-0.4724704"
                   inkscape:path-effect="#path-effect27884"
                   inkscape:connector-curvature="0"
                   id="path27882"
                   d="m 31.239539,9.3277251 c 0.225651,0.1363308 0.492693,0.2030913 0.755952,0.1889882 0.36171,-0.019377 0.712413,-0.194729 0.944941,-0.4724704"
                   style="opacity:1;fill:none;fill-opacity:1;fill-rule:evenodd;stroke:#000000;stroke-width:0.26458332" />
                <path
                   inkscape:original-d="m 29.349658,11.028618 c -0.298966,0.03123 -0.598197,0.06273 -0.897692,0.09449 -0.299498,0.03176 -0.251722,-0.346743 -0.377978,-0.519717"
                   inkscape:path-effect="#path-effect27888"
                   inkscape:connector-curvature="0"
                   id="path27886"
                   d="m 29.349658,11.028618 c -0.120151,0.106473 -0.274049,0.174278 -0.433706,0.191083 -0.159657,0.0168 -0.324299,-0.01747 -0.463986,-0.09659 -0.192163,-0.108847 -0.333632,-0.303366 -0.377978,-0.519717"
                   style="opacity:1;fill:none;fill-opacity:1;fill-rule:evenodd;stroke:#000000;stroke-width:0.26458332" />
                <path
                   inkscape:original-d="M 29.963869,9.0442429 C 29.71215,8.9337354 29.428667,8.7919944 29.160671,8.6662668 28.892672,8.5405395 29.192432,8.1935321 29.207918,7.9575616"
                   inkscape:path-effect="#path-effect27892"
                   inkscape:connector-curvature="0"
                   id="path27890"
                   d="M 29.963869,9.0442429 C 29.808456,9.0813746 29.640594,9.0640813 29.496016,8.9960444 29.351438,8.9280075 29.231119,8.8096859 29.160671,8.6662668 29.10602,8.5550074 29.081185,8.4292725 29.089431,8.30559 c 0.0082,-0.1236826 0.04955,-0.2450081 0.118487,-0.3480284"
                   style="opacity:1;fill:none;fill-opacity:1;fill-rule:evenodd;stroke:#000000;stroke-width:0.26458332" />
                <g
                   transform="translate(-0.41760864,2.706104)"
                   id="g27902">
                  <path
                     sodipodi:type="star"
                     style="opacity:1;fill:none;fill-opacity:1;fill-rule:evenodd;stroke:#000000;stroke-width:0.26458332"
                     id="path27896"
                     sodipodi:sides="9"
                     sodipodi:cx="28.167542"
                     sodipodi:cy="12.675814"
                     sodipodi:r1="0.26411888"
                     sodipodi:r2="0.24819057"
                     sodipodi:arg1="1.2490458"
                     sodipodi:arg2="1.5981116"
                     inkscape:flatsided="true"
                     inkscape:rounded="0"
                     inkscape:randomized="0"
                     d="m 28.251063,12.926379 -0.1806,-0.0049 -0.135177,-0.119867 -0.0265,-0.178714 0.09457,-0.153937 0.171397,-0.05713 0.168021,0.06641 0.08603,0.158872 -0.03622,0.177 z"
                     inkscape:transform-center-x="-0.0012522694"
                     inkscape:transform-center-y="-0.0067277331" />
                  <path
                     sodipodi:type="star"
                     style="opacity:1;fill:none;fill-opacity:1;fill-rule:evenodd;stroke:#000000;stroke-width:0.26458332"
                     id="path27898"
                     sodipodi:sides="9"
                     sodipodi:cx="30.65649"
                     sodipodi:cy="12.909674"
                     sodipodi:r1="0.30801293"
                     sodipodi:r2="0.28943747"
                     sodipodi:arg1="0.70862627"
                     sodipodi:arg2="1.0576921"
                     inkscape:flatsided="true"
                     inkscape:rounded="0"
                     inkscape:randomized="0"
                     d="m 30.890351,13.110126 -0.183561,0.103426 -0.207097,-0.03876 -0.13373,-0.162813 0.0022,-0.210682 0.137118,-0.15997 0.207865,-0.03441 0.18135,0.107256 0.06998,0.198732 z"
                     inkscape:transform-center-x="-0.0087340523"
                     inkscape:transform-center-y="0.00056115704" />
                </g>
                <path
                   inkscape:original-d="m 17.774138,51.188589 c 0.488483,-0.771967 0.976703,-1.575166 1.464657,-2.362351 0.487955,-0.787186 0.850711,-1.606664 1.27567,-2.4096 0.424959,-0.802934 2.110632,-2.551602 3.165551,-3.827008 1.054919,-1.275405 1.039699,-0.913706 1.559151,-1.370163 0.519453,-0.456456 1.134193,0.09423 1.700893,0.14174 0.566701,0.04751 1.0082,0.5667 1.511906,0.850448 0.503703,0.283744 0.756216,1.00767 1.133927,1.511903 0.377712,0.504232 0.945206,3.307027 1.41741,4.960937 0.472208,1.653911 0.56723,1.291154 0.850448,1.937129 0.283218,0.645974 0.756216,1.574635 1.133927,2.36235 0.377712,0.787715 -0.692689,0.09423 -1.039434,0.141743"
                   inkscape:path-effect="#path-effect27906"
                   inkscape:connector-curvature="0"
                   id="path27904"
                   d="m 17.774138,51.188589 c 0.543272,-0.751487 1.03313,-1.541581 1.464657,-2.362351 0.423089,-0.804722 0.791045,-1.640366 1.27567,-2.4096 0.883406,-1.402209 2.12406,-2.537863 3.165551,-3.827008 0.220752,-0.273244 0.433494,-0.554486 0.683432,-0.801315 0.249938,-0.246829 0.541616,-0.460364 0.875719,-0.568848 0.275659,-0.08951 0.571968,-0.104512 0.859852,-0.07101 0.287884,0.0335 0.568432,0.114342 0.841041,0.212748 0.546953,0.197437 1.072099,0.470043 1.511906,0.850448 0.479452,0.414695 0.845806,0.947251 1.133927,1.511903 0.783871,1.536212 1.001926,3.287087 1.41741,4.960937 0.171463,0.69077 0.389645,1.394706 0.850448,1.937129 0.310979,0.366061 0.720267,0.642878 1.006899,1.0283 0.143316,0.192711 0.254675,0.414187 0.288998,0.651882 0.03432,0.237695 -0.0144,0.492698 -0.16197,0.682168 -0.11895,0.15272 -0.299049,0.256389 -0.490852,0.282544 -0.191803,0.02616 -0.393084,-0.02551 -0.548582,-0.140801"
                   style="opacity:1;fill:none;fill-opacity:1;fill-rule:evenodd;stroke:#000000;stroke-width:0.26458332" />
              </g>
              <path
                 style="opacity:1;fill:none;fill-opacity:1;fill-rule:evenodd;stroke:#000000;stroke-width:0.26458332"
                 d="m 13.933001,52.649311 c -0.407164,0.169038 -0.798453,0.376291 -1.167048,0.618146 -0.539371,0.353911 -1.04181,0.787658 -1.653645,0.992187 -0.101691,0.03399 -0.205781,0.06137 -0.304701,0.102743 -0.09892,0.04137 -0.193885,0.09815 -0.262264,0.18074 -0.04531,0.05472 -0.0779,0.119907 -0.09449,0.188986"
                 id="path27940"
                 inkscape:connector-curvature="0"
                 inkscape:path-effect="#path-effect27942"
                 inkscape:original-d="m 13.933001,52.649311 c -0.388751,0.205785 -0.777767,0.411832 -1.167048,0.618146 -0.38928,0.206314 -1.102166,0.661194 -1.653645,0.992187 -0.551481,0.330994 -0.377712,0.188725 -0.566965,0.283483 -0.189252,0.09476 -0.06273,0.125727 -0.09449,0.188986" />
              <path
                 style="opacity:1;fill:none;fill-opacity:1;fill-rule:evenodd;stroke:#000000;stroke-width:0.26458332"
                 d="m 17.552324,53.125717 c 0.720911,0.261183 1.382739,0.684027 1.922706,1.228421 0.133616,0.134712 0.25986,0.276736 0.377977,0.425225"
                 id="path27944"
                 inkscape:connector-curvature="0"
                 inkscape:path-effect="#path-effect27946"
                 inkscape:original-d="m 17.552324,53.125717 c 0.641167,0.40921 1.282069,0.818682 1.922706,1.228421 0.640638,0.409739 0.252249,0.283218 0.377977,0.425225" />
              <path
                 style="opacity:1;fill:none;fill-opacity:1;fill-rule:evenodd;stroke:#000000;stroke-width:0.26458332"
                 d="m 10.450853,54.732113 9.402154,0.04725"
                 id="path27948"
                 inkscape:connector-curvature="0"
                 inkscape:path-effect="#path-effect27950"
                 inkscape:original-d="m 10.450853,54.732113 c 3.134316,0.01548 6.268367,0.03123 9.402154,0.04725" />
              <path
                 style="opacity:1;fill:none;fill-opacity:1;fill-rule:evenodd;stroke:#000000;stroke-width:0.26458332"
                 d="m 10.309108,53.267457 2.126116,0.330729"
                 id="path27952"
                 inkscape:connector-curvature="0"
                 inkscape:path-effect="#path-effect27954"
                 inkscape:original-d="m 10.309108,53.267457 c 0.70897,0.109979 1.417675,0.22022 2.126116,0.330729" />
              <path
                 style="opacity:1;fill:none;fill-opacity:1;fill-rule:evenodd;stroke:#000000;stroke-width:0.26458332"
                 d="m 10.309108,53.267457 3.623893,-0.618146"
                 id="path27956"
                 inkscape:connector-curvature="0"
                 inkscape:path-effect="#path-effect27958"
                 inkscape:original-d="m 10.309108,53.267457 c 1.208229,-0.206314 2.416193,-0.412364 3.623893,-0.618146" />
              <path
                 style="opacity:1;fill:none;fill-opacity:1;fill-rule:evenodd;stroke:#000000;stroke-width:0.26458332"
                 d="m 16.592962,51.991787 3.260045,1.41741"
                 id="path27960"
                 inkscape:connector-curvature="0"
                 inkscape:path-effect="#path-effect27962"
                 inkscape:original-d="m 16.592962,51.991787 c 1.071197,0.487955 2.173628,0.944676 3.260045,1.41741" />
              <path
                 style="opacity:1;fill:none;fill-opacity:1;fill-rule:evenodd;stroke:#000000;stroke-width:0.26458332"
                 d="m 18.860819,53.834422 0.992188,-0.425225"
                 id="path27964"
                 inkscape:connector-curvature="0"
                 inkscape:path-effect="#path-effect27966"
                 inkscape:original-d="m 18.860819,53.834422 c 0.330994,-0.142007 0.661723,-0.28375 0.992188,-0.425225" />
              <path
                 style="opacity:1;fill:none;fill-opacity:1;fill-rule:evenodd;stroke:#000000;stroke-width:0.21764877"
                 d="M 36.248128,51.837627 39.7248,54.824755"
                 id="path27968"
                 inkscape:connector-curvature="0"
                 inkscape:path-effect="#path-effect27970"
                 inkscape:original-d="m 36.248128,51.837627 c 1.159066,0.995439 2.317956,1.991147 3.476672,2.987128" />
              <path
                 style="opacity:1;fill:none;fill-opacity:1;fill-rule:evenodd;stroke:#000000;stroke-width:0.26458332"
                 d="M 31.726431,51.188589 30.058363,54.63762"
                 id="path27972"
                 inkscape:connector-curvature="0"
                 inkscape:path-effect="#path-effect27974"
                 inkscape:original-d="m 31.726431,51.188589 c -0.555758,1.149413 -1.111782,2.299088 -1.668068,3.449031" />
              <path
                 style="opacity:1;fill:none;fill-opacity:1;fill-rule:evenodd;stroke:#000000;stroke-width:0.26458332"
                 d="m 30.058363,54.63762 3.023811,-1.464656"
                 id="path27976"
                 inkscape:connector-curvature="0"
                 inkscape:path-effect="#path-effect27978"
                 inkscape:original-d="m 30.058363,54.63762 c 1.008202,-0.488484 2.016138,-0.976704 3.023811,-1.464656" />
              <path
                 style="opacity:1;fill:none;fill-opacity:1;fill-rule:evenodd;stroke:#000000;stroke-width:0.23600312"
                 d="m 39.726254,54.825825 -6.7349,-1.661379"
                 id="path27980"
                 inkscape:connector-curvature="0"
                 inkscape:path-effect="#path-effect27982"
                 inkscape:original-d="m 39.726254,54.825825 c -2.244757,-0.55406 -4.489724,-1.107853 -6.7349,-1.661379" />
              <path
                 style="opacity:1;fill:none;fill-opacity:1;fill-rule:evenodd;stroke:#000000;stroke-width:0.2708762"
                 d="m 31.807251,51.108555 -4.06213,2.864959"
                 id="path27984"
                 inkscape:connector-curvature="0"
                 inkscape:path-effect="#path-effect27986"
                 inkscape:original-d="m 31.807251,51.108555 c -1.353774,0.954713 -2.707817,1.909701 -4.06213,2.864959" />
              <path
                 style="opacity:1;fill:none;fill-opacity:1;fill-rule:evenodd;stroke:#000000;stroke-width:0.26458332"
                 d="m 27.743258,53.976162 3.118305,-0.992188"
                 id="path27988"
                 inkscape:connector-curvature="0"
                 inkscape:path-effect="#path-effect27990"
                 inkscape:original-d="m 27.743258,53.976162 c 1.039699,-0.330994 2.079133,-0.661723 3.118305,-0.992188" />
              <path
                 style="opacity:1;fill:none;fill-opacity:1;fill-rule:evenodd;stroke:#000000;stroke-width:0.25928563"
                 d="m 35.489887,53.784558 1.137697,0.949695"
                 id="path27992"
                 inkscape:connector-curvature="0"
                 inkscape:path-effect="#path-effect27994"
                 inkscape:original-d="m 35.489887,53.784558 c 0.379498,0.316312 0.75873,0.632877 1.137697,0.949695" />
              <path
                 style="opacity:1;fill:none;fill-opacity:1;fill-rule:evenodd;stroke:#000000;stroke-width:0.22498509"
                 d="m 37.568837,54.266226 -1.069577,0.47084"
                 id="path27996"
                 inkscape:connector-curvature="0"
                 inkscape:path-effect="#path-effect27998"
                 inkscape:original-d="m 37.568837,54.266226 c -0.356278,0.156743 -0.712802,0.313691 -1.069577,0.47084" />
            </g>
            <path
               transform="matrix(0.26458333,0,0,0.26458333,-0.17973119,1.47527)"
               inkscape:connector-curvature="0"
               id="path28048"
               d="m 85.707031,140.1057 c -1.947611,-1.03325 -4.928494,-4.66784 -6.623259,-8.07572 -1.314339,-2.64292 -1.43802,-6.70453 -0.492815,-16.18389 0.825099,-8.27483 2.265599,-11.01502 6.315272,-12.01321 1.061995,-0.26177 2.140957,-0.013 4.099123,0.94502 3.887601,1.90203 4.627899,3.40469 5.47448,11.11218 0.386022,3.51444 1.070807,7.7399 1.521744,9.3899 1.811286,6.62759 -0.605857,13.38346 -5.444294,15.21669 -1.962167,0.74345 -2.846289,0.67218 -4.850251,-0.39097 z"
               style="opacity:1;fill:none;fill-opacity:1;fill-rule:evenodd;stroke:none;stroke-width:0.5" />
            <path
               transform="matrix(0.26458333,0,0,0.26458333,-0.17973119,1.47527)"
               inkscape:connector-curvature="0"
               id="path28054"
               d="m 45.184235,199.01298 c 1.495671,-0.82438 3.070671,-1.80716 3.5,-2.18394 0.429328,-0.37679 1.938539,-1.26519 3.353802,-1.97424 3.036656,-1.52136 4.330461,-3.38186 5.469874,-7.86571 0.448515,-1.76501 2.128884,-5.68411 3.734154,-8.70911 4.780538,-9.00854 8.183045,-18.59654 9.668808,-27.24595 1.105176,-6.43381 1.060664,-9.61675 -0.149806,-10.71221 -1.387905,-1.25604 -3.091347,-5.52888 -3.40125,-8.53155 -0.147802,-1.43206 -0.0096,-4.83272 0.307115,-7.55702 0.316716,-2.7243 0.785928,-9.11577 1.042693,-14.20327 0.340164,-6.73995 0.760976,-10.335432 1.550765,-13.250002 0.596156,-2.2 1.111037,-4.5625 1.144181,-5.25 0.05518,-1.144645 -0.137716,-1.262755 -2.288652,-1.40133 -2.819143,-0.181625 -4.876253,0.76673 -6.563357,3.025805 -1.460491,1.95563 -2.002165,3.67498 -3.074114,9.757657 -1.668001,9.46492 -4.661529,18.31609 -7.959625,23.53477 -1.349747,2.13574 -1.358183,2.19993 -0.586714,4.46407 0.855279,2.51011 1.00765,7.29788 0.325698,10.23406 -0.238243,1.02577 -1.378826,2.99452 -2.534631,4.375 -2.026497,2.42043 -2.193442,2.50969 -4.679903,2.50231 -1.418142,-0.004 -2.888517,-0.20405 -3.267498,-0.4441 -1.139629,-0.72183 -0.154608,-1.4991 1.573219,-1.24141 3.071924,0.45814 6.372864,-3.0356 7.575435,-8.01789 0.403567,-1.67199 -1.716795,-6.35666 -4.290199,-9.47864 -2.04225,-2.47761 -3.431561,-2.39012 -6.255498,0.39393 -1.229699,1.21233 -2.865448,2.46504 -3.634998,2.7838 -1.80736,0.74863 -2.528902,2.39934 -2.528902,5.78549 0,2.77538 -0.638856,3.63887 -1.184857,1.60148 -0.493462,-1.84135 -0.358931,-3.80232 0.382613,-5.57709 0.976575,-2.33727 8.891981,-9.17563 11.100339,-9.58992 2.058041,-0.38609 4.1936,-1.96319 4.223852,-3.11928 0.04156,-1.58836 1.368332,-4.60622 3.184238,-7.24283 1.54343,-2.24099 2.041129,-3.70319 3.274201,-9.61929 1.699718,-8.155007 2.278621,-9.899612 5.056998,-15.240007 2.68677,-5.16431 4.537242,-6.79901 8.216866,-7.25875 1.545077,-0.193045 3.722655,-0.228475 4.839062,-0.07873 3.418402,0.4585 3.406688,0.48166 3.406688,-6.73547 0,-6.968925 -0.378857,-8.413635 -2.206369,-8.413635 -0.644152,0 -1.400855,-0.28125 -1.681561,-0.625 -0.828343,-1.014381 -4.984262,-16.14567 -6.145458,-22.375 -0.589514,-3.1625 -1.689556,-8.1125 -2.444537,-11 -1.492882,-5.709673 -1.805422,-13.203661 -0.610703,-14.64321 1.014875,-1.222849 6.437999,-2.491591 9.035403,-2.113836 2.911654,0.423459 4.338908,1.335071 4.768208,3.045538 0.185792,0.740252 1.687353,4.223982 3.336802,7.741623 2.50635,5.345074 3.281135,7.695443 4.716475,14.307797 0.94461,4.351649 2.283185,10.091062 2.974605,12.754253 1.61479,6.219754 1.584265,7.198369 -0.31767,10.184945 -2.519255,3.95594 -3.40401,6.2962 -3.39227,8.97289 0.0132,3.00521 0.89561,5.65638 2.64695,7.952505 1.08799,1.42643 1.72193,1.75653 3.93357,2.048275 3.93432,0.51899 6.59321,1.88734 10.037513,5.16562 1.70447,1.62232 3.5905,3.204805 4.19117,3.516635 2.1986,1.14137 6.06868,0.64379 12.85175,-1.652365 3.60587,-1.22063 8.58112,-2.81798 11.05612,-3.549665 3.81205,-1.12696 4.81354,-1.65625 6.55093,-3.462145 2.55127,-2.651875 3.94907,-7.20278 3.94907,-12.857195 0,-4.833775 -0.42187,-5.449757 -7.13072,-10.411665 -3.41362,-2.524733 -5.16644,-4.158422 -5.3646,-5 -0.16188,-0.6875 -0.61766,-1.877828 -1.01283,-2.645173 -0.63992,-1.242598 -0.6299,-1.429168 0.0916,-1.706027 0.91158,-0.349805 3.07545,1.932088 4.66035,4.914533 1.57427,2.962428 3.35546,3.197417 6.23634,0.822748 1.59393,-1.313846 2.43591,-1.628625 4.52856,-1.693014 4.62516,-0.142314 8.10674,-2.689035 9.77624,-7.151173 1.56779,-4.190288 3.52274,-7.056332 4.71508,-6.912513 0.69479,0.0838 1.05037,0.561883 1.16504,1.566366 0.0908,0.795161 -0.0269,1.582661 -0.26155,1.75 -1.00399,0.716072 -2.09164,3.050398 -2.40977,5.171889 -0.22979,1.532306 -1.23297,3.64562 -3.04671,6.418212 -1.48726,2.273526 -2.92303,4.946665 -3.19059,5.94031 -0.31575,1.17263 -0.31421,4.217047 0.005,8.675322 0.45279,6.335805 0.41286,7.090965 -0.51471,9.73361 -2.82345,8.043945 -10.30541,14.17565 -21.7461,17.82161 -2.2,0.7011 -7.68769,2.061135 -12.19487,3.022292 -4.50718,0.96116 -8.70585,2.08236 -9.33038,2.49157 -0.62453,0.40921 -1.39162,1.52005 -1.70465,2.46853 -0.49212,1.49114 -0.40401,2.11944 0.65109,4.64271 1.64015,3.92244 2.18588,6.99915 2.86784,16.1682 l 0.57642,7.75 -1.30773,3.78759 c -1.34828,3.90506 -1.64236,7.01714 -0.85803,9.0801 0.24734,0.65053 1.50045,2.40893 2.7847,3.90755 1.28424,1.49862 3.43,4.52476 4.76834,6.72476 1.33833,2.2 3.98968,6.17459 5.89188,8.83242 1.90219,2.65783 4.82849,7.62519 6.50288,11.03858 3.64915,7.43908 6.36326,10.68669 10.74793,12.86059 2.71223,1.34471 13.09587,9.44378 12.66285,9.8768 -0.0885,0.0885 -5.11683,-1.04073 -11.17415,-2.50931 l -11.0133,-2.67016 -4.36229,2.192 c -2.39925,1.2056 -4.46548,2.0888 -4.59161,1.96267 -0.12613,-0.12613 0.76749,-2.22154 1.98581,-4.65646 3.22264,-6.44072 3.19932,-6.20938 0.96126,-9.53702 -1.0692,-1.58956 -3.37149,-5.63721 -5.11631,-8.99478 -3.50365,-6.7421 -5.18899,-9.08449 -13.18916,-18.33118 -5.378623,-6.21668 -8.068863,-8.31415 -10.663823,-8.31415 -2.23317,0 -7.513995,2.07532 -9.839243,3.86675 -4.535585,3.49431 -6.794648,8.46574 -9.776563,21.51486 -1.73658,7.59943 -2.620887,9.57804 -5.527842,12.36839 -3.737331,3.58741 -4.451695,6.34491 -2.221489,8.57512 0.99564,0.99564 1.63376,1.22624 2.875,1.03897 1.742278,-0.26287 4.117671,0.76017 6.595332,2.84049 l 1.5,1.25945 -15.75,0.009 -15.75,0.009 2.719403,-1.49888 z m 47.825687,-58.09873 c 1.94217,-1.31243 3.39046,-3.4557 4.410365,-6.52675 1.046145,-3.15007 1.00273,-5.86777 -0.16164,-10.11757 -0.5259,-1.91947 -1.17753,-5.98436 -1.448065,-9.03307 -0.603205,-6.79764 -1.62799,-9.11517 -4.966965,-11.23269 -1.785625,-1.13241 -2.910465,-1.47376 -4.851675,-1.47232 -5.684235,0.004 -7.885833,3.41452 -8.896559,13.78094 -1.027266,10.53606 -0.884783,12.97434 0.97827,16.741 4.064249,8.21698 9.879704,11.27745 14.936269,7.86046 z M 75.214832,53.573609 c 0,-1.373751 -1.389922,-2.357741 -2.416911,-1.711045 -1.184162,0.745669 -1.343342,2.240528 -0.318389,2.989992 1.101112,0.805153 2.7353,0.04105 2.7353,-1.278947 z m 9.180815,-0.293631 c 0.4723,-1.230795 -0.20717,-2.25 -1.5,-2.25 -1.29283,0 -1.9723,1.019205 -1.5,2.25 0.15829,0.4125 0.83329,0.75 1.5,0.75 0.666705,0 1.341705,-0.3375 1.5,-0.75 z M 71.089832,38.214835 c 0.61875,-0.165818 1.125,-0.622941 1.125,-1.015829 0,-0.548735 -0.415302,-0.63643 -1.791409,-0.37827 -1.397594,0.26219 -2.106212,0.103327 -3.223397,-0.722644 -1.547942,-1.144443 -2.554269,-0.606271 -1.420598,0.75972 1.175904,1.416877 3.177984,1.92849 5.310404,1.357023 z m 10.125,-1.684857 c 0.55,-0.55 1,-1.211721 1,-1.470491 0,-0.968769 -0.851305,-0.943613 -1.702322,0.0503 -0.646872,0.755492 -1.252263,0.954272 -2.280162,0.748692 -1.652369,-0.330473 -2.2276,0.0659 -1.451955,1.000493 0.826372,0.995718 3.292706,0.812738 4.434439,-0.328996 z M 69.65389,30.578224 c 1.236171,-0.782978 0.118868,-1.460859 -1.950374,-1.183315 -1.486865,0.19943 -2.260666,0.04392 -2.968397,-0.596572 -0.920875,-0.83338 -2.020287,-0.699956 -2.020287,0.245181 0,1.393741 5.308109,2.567731 6.939058,1.534706 z m 7.117747,-1.578647 c 1.221643,-0.653803 1.971656,-2.502763 1.596756,-3.936384 -0.386622,-1.478442 -1.398251,-1.0062 -1.427254,0.666262 -0.02334,1.346068 -0.877299,2.277872 -2.101307,2.292867 -0.34375,0.0042 -0.625,0.345156 -0.625,0.757656 0,0.875664 1.146882,0.974167 2.556805,0.219599 z"
               style="opacity:1;fill:#e3dbe2;fill-opacity:1;fill-rule:evenodd;stroke:#c8b7b7;stroke-width:0.5" />
            <path
               transform="matrix(0.26458333,0,0,0.26458333,-0.17973119,1.47527)"
               inkscape:connector-curvature="0"
               id="path28074"
               d="m 89.65481,56.895653 c -0.108655,-0.481794 -0.475646,-1.761712 -0.815538,-2.844263 -0.832584,-2.651776 -1.073548,-3.60596 -1.535387,-6.079914 -0.216234,-1.158309 -0.5966,-3.013979 -0.84526,-4.123713 -0.248658,-1.109732 -0.708828,-3.290487 -1.022598,-4.846122 -0.760668,-3.771293 -1.068302,-4.910165 -2.005552,-7.424621 -0.729352,-1.956708 -1.329124,-3.284458 -2.9235,-6.471925 -1.590177,-3.179071 -1.993198,-4.095947 -2.575045,-5.85825 -0.407516,-1.234285 -0.716598,-1.942753 -1.104391,-2.53145 l -0.182829,-0.277546 0.87764,-0.06282 c 2.687524,-0.192357 5.987008,0.536223 8.495242,1.875889 3.185586,1.701443 5.563721,4.215396 7.258622,7.673166 2.449593,4.997421 3.12646,11.682214 1.977496,19.529902 -0.727129,4.966456 -1.579166,7.851086 -2.897923,9.811107 -0.416695,0.619317 -1.58232,1.845059 -2.125566,2.235188 l -0.377859,0.271358 z"
               style="opacity:1;fill:#9d93ac;fill-opacity:1;fill-rule:evenodd;stroke:#9d93ac;stroke-width:0.08838835" />
            <path
               transform="matrix(0.26458333,0,0,0.26458333,-0.17973119,1.47527)"
               inkscape:connector-curvature="0"
               id="path28076"
               d="M 67.943515,62.13523 C 58.942164,58.545442 51.616367,51.07105 48.67084,42.471635 c -1.7994,-5.253318 -1.76606,-10.506874 0.09463,-14.911496 2.013388,-4.766087 6.245045,-7.926474 11.200996,-8.365398 l 0.685009,-0.06067 v 0.666673 c 0,0.366671 0.06171,1.217371 0.13714,1.890444 0.11457,1.022361 0.120344,1.434703 0.03509,2.505402 -0.05613,0.704897 -0.118792,1.309201 -0.139252,1.342897 -0.02046,0.0337 -0.03839,0.630318 -0.03985,1.325826 -0.0036,1.712797 0.149344,2.410004 1.129641,5.149567 1.065067,2.976463 1.373606,4.259757 1.881693,7.826447 0.401112,2.815748 0.628516,3.972194 1.720691,8.750446 0.866679,3.791716 0.930791,4.029003 1.994071,7.380427 0.431851,1.361181 0.883952,2.832847 1.004671,3.270369 0.343667,1.245568 0.860253,3.333663 0.831553,3.361223 -0.01428,0.01371 -0.582812,-0.197142 -1.263402,-0.468565 z"
               style="opacity:1;fill:#9d93ac;fill-opacity:1;fill-rule:evenodd;stroke:#9d93ac;stroke-width:0.08838835" />
            <path
               transform="matrix(0.26458333,0,0,0.26458333,-0.17973119,1.47527)"
               inkscape:connector-curvature="0"
               id="path28078"
               d="m 82.619243,52.893844 c -0.08629,-0.06587 -0.120284,-0.120881 -0.145582,-0.235563 -0.02949,-0.133686 -0.02505,-0.16531 0.04168,-0.296875 0.06166,-0.121554 0.09972,-0.156496 0.218112,-0.200232 0.131612,-0.04862 0.155204,-0.04897 0.286475,-0.0042 0.20474,0.06976 0.310144,0.240394 0.284738,0.460943 -0.01546,0.134234 -0.03657,0.174408 -0.13654,0.259877 -0.09942,0.085 -0.143575,0.101172 -0.277279,0.101562 -0.125806,3.68e-4 -0.182549,-0.01749 -0.271606,-0.08547 z"
               style="opacity:1;fill:#ff2ad4;fill-opacity:1;fill-rule:evenodd;stroke:#9d93ac;stroke-width:0.03125" />
            <path
               transform="matrix(0.26458333,0,0,0.26458333,-0.17973119,1.47527)"
               inkscape:connector-curvature="0"
               id="path28080"
               d="m 73.185825,53.944806 c -0.160666,-0.08719 -0.182462,-0.11201 -0.242188,-0.275813 -0.08119,-0.222662 -0.08115,-0.236862 0.0013,-0.452297 0.05862,-0.15319 0.08796,-0.186927 0.236359,-0.271833 0.156476,-0.08953 0.184285,-0.09535 0.363758,-0.07613 0.229736,0.0246 0.225591,0.02233 0.391033,0.214508 0.123371,0.14331 0.129421,0.159947 0.129421,0.355865 0,0.195218 -0.0067,0.213756 -0.132812,0.369641 -0.117268,0.144906 -0.152625,0.168178 -0.302087,0.198823 -0.232148,0.0476 -0.244652,0.04583 -0.44478,-0.06277 z"
               style="opacity:1;fill:#ff2ad4;fill-opacity:1;fill-rule:evenodd;stroke:#9d93ac;stroke-width:0.03125" />
            <path
               transform="matrix(0.26458333,0,0,0.26458333,-0.17973119,1.47527)"
               inkscape:connector-curvature="0"
               id="path28084"
               d="m 146.07114,51.185169 c 0.0587,-0.328864 0.0593,-0.30067 -0.0812,-3.825792 -0.11887,-2.982271 -0.10678,-3.268007 0.16025,-3.788782 0.17046,-0.332445 0.55385,-0.688982 0.92706,-0.86213 0.4393,-0.203812 1.13354,-0.185936 1.59788,0.04114 0.59322,0.290102 1.22139,1.091156 1.40897,1.796746 0.0653,0.245528 0.0407,0.346258 -0.4311,1.765859 -0.52219,1.571237 -0.76036,2.117698 -1.24164,2.84876 -0.4652,0.706623 -1.51301,1.741455 -2.21526,2.187805 l -0.17398,0.110585 z"
               style="opacity:1;fill:#c4b7c8;fill-opacity:1;fill-rule:evenodd;stroke:#c4b7c8;stroke-width:0.0625" />
            <path
               transform="matrix(0.26458333,0,0,0.26458333,-0.17973119,1.47527)"
               inkscape:connector-curvature="0"
               id="path28086"
               d="m 134.05827,56.051599 c -0.13422,-0.393063 -0.17951,-1.047412 -0.16763,-2.421875 0.008,-0.927155 -0.0152,-1.703849 -0.0588,-1.96875 -0.0396,-0.240625 -0.23565,-0.915625 -0.43565,-1.5 -0.44171,-1.290627 -0.53858,-1.800695 -0.43591,-2.295245 0.20396,-0.982487 1.06317,-1.337619 1.89691,-0.784045 0.63565,0.422045 0.92566,1.019759 1.38792,2.86054 0.41073,1.635562 0.6062,2.117025 1.15247,2.83875 l 0.31128,0.411261 -0.2362,0.120502 c -0.36417,0.185784 -0.79444,0.552242 -1.47755,1.2584 -0.89531,0.925534 -1.08689,1.104862 -1.43666,1.344794 -0.3318,0.2276 -0.45718,0.261609 -0.50019,0.135668 z"
               style="opacity:1;fill:#c4b7c8;fill-opacity:1;fill-rule:evenodd;stroke:#c4b7c8;stroke-width:0.0625" />
            <path
               transform="matrix(0.26458333,0,0,0.26458333,-0.17973119,1.47527)"
               inkscape:connector-curvature="0"
               id="path28088"
               d="m 109.27186,196.51174 c 0.50679,-0.47429 9.6817,-6.83271 9.71502,-6.73274 0.0213,0.064 -0.44156,1.09308 -1.02865,2.28684 l -1.06744,2.17046 -3.84295,1.22224 c -2.11362,0.67222 -3.86906,1.22274 -3.90098,1.22336 -0.0319,6.3e-4 0.0243,-0.0759 0.125,-0.17016 z"
               style="opacity:1;fill:#c4b7c8;fill-opacity:1;fill-rule:evenodd;stroke:#c4b7c8;stroke-width:0.125" />
            <path
               transform="matrix(0.26458333,0,0,0.26458333,-0.17973119,1.47527)"
               inkscape:connector-curvature="0"
               id="path28090"
               d="m 138.03633,199.68066 c -0.57396,-0.47994 -0.99584,-0.87382 -0.9375,-0.87528 0.0583,-0.001 0.96037,0.20678 2.00453,0.46275 l 1.89847,0.46541 -0.93479,0.41225 c -0.51414,0.22674 -0.94657,0.41118 -0.96097,0.40987 -0.0144,-10e-4 -0.49578,-0.39506 -1.06974,-0.875 z"
               style="opacity:1;fill:#c4b7c8;fill-opacity:1;fill-rule:evenodd;stroke:#c4b7c8;stroke-width:0.125" />
            <path
               transform="matrix(0.26458333,0,0,0.26458333,-0.17973119,1.47527)"
               inkscape:connector-curvature="0"
               id="path28092"
               d="m 71.328224,196.76814 c -0.988086,-0.65769 -1.917582,-1.15827 -3.053418,-1.64443 -0.947946,-0.40573 -1.065807,-0.43025 -1.17036,-0.24342 -0.09316,0.16646 -0.136731,0.17462 -0.21927,0.0411 -0.08424,-0.13629 -0.184864,-0.12763 -0.552137,0.0475 -1.008481,0.48091 -2.287995,0.12837 -2.902098,-0.7996 -0.369954,-0.55904 -0.520631,-1.61296 -0.332032,-2.32241 l 0.105984,-0.39868 5.519853,2.39868 c 3.03592,1.31927 5.496909,2.42207 5.468866,2.45065 -0.09631,0.0982 -1.967967,0.88553 -2.104998,0.88553 -0.07538,0 -0.417558,-0.1867 -0.76039,-0.4149 z"
               style="opacity:1;fill:#c4b7c8;fill-opacity:1;fill-rule:evenodd;stroke:#c4b7c8;stroke-width:0.125" />
            <path
               transform="matrix(0.26458333,0,0,0.26458333,-0.17973119,1.47527)"
               inkscape:connector-curvature="0"
               id="path28094"
               d="m 44.829893,196.00304 c -1.255037,-0.21105 -1.539624,-0.29236 -1.25,-0.35712 0.525951,-0.11759 5.633631,-0.96288 5.81827,-0.96288 0.08344,0 -0.395159,0.36563 -1.063544,0.8125 -0.79955,0.53457 -1.328892,0.80707 -1.547485,0.79663 -0.182733,-0.009 -1.063491,-0.13883 -1.957241,-0.28913 z"
               style="opacity:1;fill:#c4b7c8;fill-opacity:1;fill-rule:evenodd;stroke:#c4b7c8;stroke-width:0.125" />
          </g>
          <path
             sodipodi:type="star"
             style="opacity:1;fill:none;fill-opacity:1;fill-rule:evenodd;stroke:#0b0b28;stroke-width:0.26458332"
             id="path28161"
             sodipodi:sides="9"
             sodipodi:cx="19.248257"
             sodipodi:cy="15.62079"
             sodipodi:r1="0.31085518"
             sodipodi:r2="0.29210833"
             sodipodi:arg1="0.99129702"
             sodipodi:arg2="1.3403629"
             inkscape:flatsided="true"
             inkscape:rounded="0"
             inkscape:randomized="0"
             d="m 19.418483,15.880894 -0.207017,0.04857 -0.189802,-0.09586 -0.08378,-0.195439 0.06145,-0.203565 0.177922,-0.116441 0.211142,0.02517 0.145569,0.154998 0.01188,0.212306 z"
             inkscape:transform-center-x="0.0063889445"
             inkscape:transform-center-y="0.0030157296" />
          <path
             sodipodi:type="star"
             style="opacity:1;fill:none;fill-opacity:1;fill-rule:evenodd;stroke:#0b0b28;stroke-width:0.26458332"
             id="path28163"
             sodipodi:sides="9"
             sodipodi:cx="21.758573"
             sodipodi:cy="15.38297"
             sodipodi:r1="0.23008092"
             sodipodi:r2="0.21620534"
             sodipodi:arg1="0.75367133"
             sodipodi:arg2="1.1027372"
             inkscape:flatsided="true"
             inkscape:rounded="0"
             inkscape:randomized="0"
             d="m 21.926344,15.540419 -0.140457,0.071 -0.153237,-0.03589 -0.09432,-0.125994 0.0087,-0.157142 0.107701,-0.114762 0.156272,-0.01868 0.131721,0.08614 0.04554,0.150653 z"
             inkscape:transform-center-x="-0.0047426681"
             inkscape:transform-center-y="0.0022176654" />
        </g>
        <path
           transform="matrix(0.26458333,0,0,0.26458333,-0.17973119,1.47527)"
           inkscape:connector-curvature="0"
           id="path28233"
           d="m 39.512065,139.34257 c -0.332351,-0.22283 -0.555554,-0.91438 -0.507422,-1.57216 0.03421,-0.4675 0.135463,-0.92923 0.423015,-1.92898 0.467324,-1.62478 0.74356,-2.36199 1.153405,-3.07818 0.909726,-1.58972 2.223102,-2.58687 3.80166,-2.88631 0.562223,-0.10666 0.508777,-0.13572 0.852253,0.46342 0.167536,0.29225 0.296804,0.53869 0.287262,0.54765 -0.0095,0.009 -0.255998,0.15985 -0.547679,0.33531 -0.70648,0.42499 -1.9772,1.26345 -2.472911,1.63172 -1.371977,1.01924 -2.106126,1.98299 -2.412661,3.16721 -0.122742,0.47419 -0.121492,1.11338 0.0036,1.83001 0.153932,0.88202 0.08709,1.33484 -0.224193,1.51871 -0.157811,0.0932 -0.177214,0.0917 -0.356306,-0.0284 z"
           style="opacity:1;fill:#c8b7b7;fill-opacity:1;fill-rule:evenodd;stroke:#0b0b28;stroke-width:0.04419417" />
        <path
           transform="matrix(0.26458333,0,0,0.26458333,-0.17973119,1.47527)"
           inkscape:connector-curvature="0"
           id="path28235"
           d="m 42.341768,141.80374 c -0.0785,-0.0946 -0.06679,-0.32618 0.02552,-0.50468 0.04158,-0.0804 0.298035,-0.37673 0.569904,-0.65849 0.560969,-0.5814 1.514801,-1.80935 1.862528,-2.3978 0.227438,-0.38489 1.012689,-2.07135 1.353262,-2.90636 0.241384,-0.59182 0.5027,-1.41832 0.592114,-1.87275 0.0421,-0.21396 0.09055,-0.37306 0.107668,-0.35355 0.01712,0.0195 0.187214,0.24362 0.377989,0.49802 0.369015,0.49208 0.371413,0.49979 0.281975,0.90747 -0.143928,0.65607 -0.449217,1.40187 -0.958793,2.3423 -0.845527,1.56041 -1.373118,2.39794 -1.926302,3.05791 -0.44736,0.53372 -1.651466,1.75467 -1.840683,1.86643 -0.18486,0.10919 -0.365178,0.1179 -0.445179,0.0215 z"
           style="opacity:1;fill:#c8b7b7;fill-opacity:1;fill-rule:evenodd;stroke:#0b0b28;stroke-width:0.04419417" />
      </g>
    </g>
  </g>
</svg>
