<svg xmlns="http://www.w3.org/2000/svg" viewBox="0 0 60.541 170.716">
  <title>sAsset 179</title>
  <g id="e340cb72-3852-4629-9c7b-da6dbf4a74d2" data-name="Layer 2">
    <g id="467284b1-18cb-4543-99f6-71e5e65671c2" data-name="Layer 1">
      <path d="M59.133,90.006,35.089,114.049a4.993,4.993,0,0,1,.22,1.431v24.413a5.007,5.007,0,0,1-.229,1.459,9.853,9.853,0,0,0,4.626,1.842c1.214.2,5.291.866,5.231-.775-.23-6.161,9.328-6.132,9.557,0,.414,11.023-11.988,12.142-20.756,8.8a5.348,5.348,0,0,1-.6.634,25.154,25.154,0,0,0-.131,4.928,16.361,16.361,0,0,0,.589,3.387c3.776-.491,7.481,4.587,4.1,8.194C33.159,173.2,27.131,169.9,25.031,164.6c-1.9-4.8-2-10.264-1.194-15.381a15.674,15.674,0,0,0-4.5-2.236c-.719-.217-2.937-.306-2.315-.851-.752.663-.9,2.443-1.1,3.342-1.316,6.015-10.525,3.453-9.216-2.542,1.175-5.378,4.333-10.364,10.468-10.049a21.83,21.83,0,0,1,8.58,2.368V117.541L5.123,96.906a4.39,4.39,0,0,1-1.386-3.558c-3.093-.905-5.307-5-2.332-7.977L25.85,60.925a5.132,5.132,0,0,1-.092-.933V29.156c-3.151-1.316-9.232-2.615-9,.026.541,6.135-9.019,6.078-9.558,0C6.235,18.251,18.484,16.8,27.4,19.653a5.409,5.409,0,0,1,.7-.739,24.181,24.181,0,0,0-.086-4.562,20.894,20.894,0,0,0-.694-3.314c-.022-.1-.077-.188-.1-.287-3.7.771-7.6-4.45-4.375-8.264C27.156-2.613,33.417.92,35.609,6a30.087,30.087,0,0,1,1.851,15.06,16.482,16.482,0,0,0,4.864,2.083,14.483,14.483,0,0,0,1.682.341c.259,0,.453,0,.615,0a9.168,9.168,0,0,0,.81-3.3c1.006-6.063,10.214-3.476,9.216,2.542-.908,5.483-3.989,10.437-10.127,10.338a22.275,22.275,0,0,1-9.2-2.284v28.2a5.323,5.323,0,0,1,.458.376Q46.4,69.975,57.014,80.592a4.648,4.648,0,0,1,1.246,2.137C60.49,84.271,61.618,87.524,59.133,90.006Zm-47.253.14q8.4,8.4,16.8,16.8Q38.971,96.652,49.263,86.358L31.6,68.692q-10.347,10.347-20.7,20.7A5.146,5.146,0,0,1,11.88,90.146Z"/>
    </g>
  </g>
</svg>
