<?xml version="1.0" encoding="UTF-8" standalone="no"?>
<!-- Created with Inkscape (http://www.inkscape.org/) -->

<svg
   xmlns:dc="http://purl.org/dc/elements/1.1/"
   xmlns:cc="http://creativecommons.org/ns#"
   xmlns:rdf="http://www.w3.org/1999/02/22-rdf-syntax-ns#"
   xmlns:svg="http://www.w3.org/2000/svg"
   xmlns="http://www.w3.org/2000/svg"
   xmlns:sodipodi="http://sodipodi.sourceforge.net/DTD/sodipodi-0.dtd"
   xmlns:inkscape="http://www.inkscape.org/namespaces/inkscape"
   width="202"
   height="202"
   viewBox="0 0 53.445832 53.445835"
   version="1.1"
   id="svg15695"
   inkscape:version="0.92.3 (2405546, 2018-03-11)"
   sodipodi:docname="sorba.svg"
   inkscape:export-filename="C:\Users\Cole\Desktop\sorbax.png"
   inkscape:export-xdpi="8190.1538"
   inkscape:export-ydpi="8190.1538">
  <defs
     id="defs15689">
    <inkscape:path-effect
       effect="simplify"
       id="path-effect376"
       is_visible="true"
       steps="1"
       threshold="0.5"
       smooth_angles="360"
       helper_size="0"
       simplify_individual_paths="false"
       simplify_just_coalesce="false"
       simplifyindividualpaths="false"
       simplifyJustCoalesce="false" />
    <inkscape:path-effect
       effect="spiro"
       id="path-effect350"
       is_visible="true" />
    <inkscape:path-effect
       effect="spiro"
       id="path-effect344"
       is_visible="true" />
    <inkscape:path-effect
       effect="spiro"
       id="path-effect266"
       is_visible="true" />
    <inkscape:path-effect
       effect="spiro"
       id="path-effect262"
       is_visible="true" />
    <inkscape:path-effect
       effect="spiro"
       id="path-effect258"
       is_visible="true" />
    <inkscape:path-effect
       effect="spiro"
       id="path-effect254"
       is_visible="true" />
    <inkscape:path-effect
       effect="spiro"
       id="path-effect250"
       is_visible="true" />
    <inkscape:path-effect
       effect="spiro"
       id="path-effect246"
       is_visible="true" />
    <inkscape:path-effect
       effect="spiro"
       id="path-effect242"
       is_visible="true" />
    <inkscape:path-effect
       effect="spiro"
       id="path-effect238"
       is_visible="true" />
    <inkscape:path-effect
       effect="spiro"
       id="path-effect234"
       is_visible="true" />
    <inkscape:path-effect
       effect="spiro"
       id="path-effect230"
       is_visible="true" />
    <inkscape:path-effect
       effect="spiro"
       id="path-effect226"
       is_visible="true" />
    <inkscape:path-effect
       effect="spiro"
       id="path-effect222"
       is_visible="true" />
    <inkscape:path-effect
       effect="spiro"
       id="path-effect218"
       is_visible="true" />
    <inkscape:path-effect
       effect="spiro"
       id="path-effect210"
       is_visible="true" />
    <inkscape:path-effect
       effect="spiro"
       id="path-effect206"
       is_visible="true" />
    <inkscape:path-effect
       effect="spiro"
       id="path-effect202"
       is_visible="true" />
    <inkscape:path-effect
       effect="spiro"
       id="path-effect198"
       is_visible="true" />
    <inkscape:path-effect
       effect="spiro"
       id="path-effect194"
       is_visible="true" />
    <inkscape:path-effect
       effect="spiro"
       id="path-effect190"
       is_visible="true" />
    <inkscape:path-effect
       effect="spiro"
       id="path-effect182"
       is_visible="true" />
    <inkscape:path-effect
       effect="spiro"
       id="path-effect178"
       is_visible="true" />
    <inkscape:path-effect
       effect="spiro"
       id="path-effect174"
       is_visible="true" />
    <inkscape:path-effect
       effect="spiro"
       id="path-effect170"
       is_visible="true" />
    <inkscape:path-effect
       effect="spiro"
       id="path-effect162"
       is_visible="true" />
    <inkscape:path-effect
       effect="spiro"
       id="path-effect158"
       is_visible="true" />
    <inkscape:path-effect
       effect="spiro"
       id="path-effect154"
       is_visible="true" />
    <inkscape:path-effect
       effect="spiro"
       id="path-effect150"
       is_visible="true" />
    <inkscape:path-effect
       effect="spiro"
       id="path-effect146"
       is_visible="true" />
    <inkscape:path-effect
       effect="spiro"
       id="path-effect142"
       is_visible="true" />
    <inkscape:path-effect
       effect="spiro"
       id="path-effect138"
       is_visible="true" />
    <inkscape:path-effect
       effect="spiro"
       id="path-effect116"
       is_visible="true" />
    <inkscape:path-effect
       effect="spiro"
       id="path-effect112"
       is_visible="true" />
    <inkscape:path-effect
       effect="spiro"
       id="path-effect15879"
       is_visible="true" />
    <inkscape:path-effect
       effect="spiro"
       id="path-effect15875"
       is_visible="true" />
    <inkscape:path-effect
       effect="spiro"
       id="path-effect15740"
       is_visible="true" />
    <inkscape:path-effect
       effect="spiro"
       id="path-effect15736"
       is_visible="true" />
    <inkscape:path-effect
       effect="spiro"
       id="path-effect15732"
       is_visible="true" />
    <inkscape:path-effect
       effect="spiro"
       id="path-effect15726"
       is_visible="true" />
    <inkscape:path-effect
       effect="spiro"
       id="path-effect15707"
       is_visible="true" />
    <inkscape:path-effect
       effect="spiro"
       id="path-effect15703"
       is_visible="true" />
    <inkscape:path-effect
       effect="spiro"
       id="path-effect15699"
       is_visible="true" />
    <inkscape:path-effect
       effect="spiro"
       id="path-effect15740-2"
       is_visible="true" />
    <inkscape:path-effect
       effect="spiro"
       id="path-effect15740-3"
       is_visible="true" />
    <inkscape:path-effect
       effect="spiro"
       id="path-effect15740-2-1"
       is_visible="true" />
    <inkscape:path-effect
       effect="spiro"
       id="path-effect116-5"
       is_visible="true" />
    <inkscape:path-effect
       effect="spiro"
       id="path-effect266-7"
       is_visible="true" />
  </defs>
  <sodipodi:namedview
     id="base"
     pagecolor="#ffffff"
     bordercolor="#666666"
     borderopacity="1.0"
     inkscape:pageopacity="0.0"
     inkscape:pageshadow="2"
     inkscape:zoom="4"
     inkscape:cx="38.231055"
     inkscape:cy="115.62739"
     inkscape:document-units="mm"
     inkscape:current-layer="g32204"
     showgrid="false"
     units="px"
     gridtolerance="1"
     objecttolerance="1"
     inkscape:window-width="1920"
     inkscape:window-height="1017"
     inkscape:window-x="-8"
     inkscape:window-y="-8"
     inkscape:window-maximized="1" />
  <metadata
     id="metadata15692">
    <rdf:RDF>
      <cc:Work
         rdf:about="">
        <dc:format>image/svg+xml</dc:format>
        <dc:type
           rdf:resource="http://purl.org/dc/dcmitype/StillImage" />
        <dc:title />
      </cc:Work>
    </rdf:RDF>
  </metadata>
  <g
     inkscape:label="Layer 1"
     inkscape:groupmode="layer"
     id="layer1"
     transform="translate(0,-243.55415)" />
  <g
     inkscape:groupmode="layer"
     id="layer6"
     inkscape:label="Layer 2">
    <g
       id="g32204">
      <path
         inkscape:original-d="m 5.8473009,50.366271 c 2.6594331,-1.400246 5.3185641,-2.868492 7.9773931,-4.302308 2.658829,-1.433816 1.293933,-0.478321 1.940447,-0.717051 0.646513,-0.238732 0.359643,-0.956358 0.539013,-1.434103 0.179369,-0.477748 0.215907,0.750908 0.323408,1.126794 0.107501,0.375884 0.647117,0.887493 0.970223,1.331665 0.323106,0.444176 2.084486,1.228947 3.126276,1.843849 1.041789,0.6149 1.150195,1.02407 1.724843,1.536538 0.574645,0.512466 1.365801,1.433816 2.048247,2.151154"
         inkscape:path-effect="#path-effect112"
         inkscape:connector-curvature="0"
         id="path110"
         d="m 5.8473009,50.366271 c 0.8138166,-1.36106 2.0007119,-2.496513 3.3964721,-3.249264 1.39576,-0.752751 2.996561,-1.120737 4.580921,-1.053044 0.374279,0.01599 0.7547,0.05522 1.1195,-0.02999 0.1824,-0.04261 0.35921,-0.11709 0.50662,-0.232656 0.14741,-0.115566 0.264197,-0.273923 0.314327,-0.454401 0.03897,-0.1403 0.03712,-0.288528 0.02776,-0.433838 -0.0094,-0.145311 -0.02595,-0.290923 -0.01545,-0.436156 0.0105,-0.145232 0.0505,-0.292727 0.142125,-0.405901 0.04581,-0.05659 0.104148,-0.103589 0.170944,-0.132554 0.0668,-0.02896 0.142133,-0.0394 0.21363,-0.02565 0.105144,0.02021 0.196175,0.09183 0.254147,0.181845 0.05797,0.09002 0.08531,0.19704 0.09401,0.303755 0.0174,0.21343 -0.0362,0.427362 -0.02475,0.641194 0.01522,0.284394 0.146227,0.553711 0.326744,0.773995 0.180517,0.220285 0.408822,0.396277 0.643479,0.55767 0.997447,0.686025 2.140604,1.141011 3.126276,1.843849 0.627727,0.447604 1.182043,0.989035 1.724843,1.536538 0.697131,0.703171 1.380066,1.420418 2.048247,2.151154"
         style="opacity:1;fill:none;fill-opacity:1;fill-rule:evenodd;stroke:#0b0b28;stroke-width:0.294238" />
      <path
         sodipodi:nodetypes="cccsssc"
         inkscape:original-d="m 5.891602,50.269866 c -0.075923,0.180795 -0.3427232,0.470528 -0.419253,0.651897 -0.076528,0.18137 -0.9906612,0.120436 -1.4864452,0.181084 -0.495784,0.06065 0.3560323,-1.473093 0.5335961,-2.209212 0.1775626,-0.736117 0.6101247,-1.78697 0.9147347,-2.680026 0.3046101,-0.893054 1.6519081,-1.955982 2.4774087,-2.933541 0.8255017,-0.977561 3.3797407,-1.617961 5.0691587,-2.426511"
         inkscape:path-effect="#path-effect116"
         inkscape:connector-curvature="0"
         id="path114"
         d="m 5.891602,50.269866 c -0.092897,0.243055 -0.2366301,0.466547 -0.419253,0.651897 -0.1952948,0.198211 -0.4415608,0.355073 -0.7155805,0.403456 -0.1370099,0.02419 -0.2794844,0.0207 -0.413698,-0.01595 C 4.208857,51.272609 4.0832116,51.202286 3.9859038,51.102847 3.8418997,50.955689 3.765755,50.750135 3.7541795,50.544566 3.7426041,50.338997 3.7919516,50.133352 3.8722404,49.943757 4.0328181,49.564567 4.311409,49.248978 4.5194999,48.893635 4.9977094,48.077028 5.0833174,47.092466 5.4342346,46.213609 5.9149633,45.009645 6.873316,44.05628 7.9116433,43.280068 9.421663,42.151237 11.154543,41.32174 12.980802,40.853557"
         style="opacity:1;fill:none;fill-opacity:1;fill-rule:evenodd;stroke:#0b0b28;stroke-width:0.294238" />
      <path
         sodipodi:nodetypes="cccsssc"
         inkscape:original-d="m 24.435538,51.805285 c 0.03274,0.192155 0.226886,0.530069 0.260095,0.722908 0.03321,0.192841 0.93942,0.322185 1.409473,0.483791 0.470054,0.161609 -0.01049,-1.511409 -0.01544,-2.266603 -0.0049,-0.75519 -0.186734,-1.870264 -0.279758,-2.804884 -0.09302,-0.934617 -1.164942,-2.250422 -1.747069,-3.375119 -0.582126,-1.124699 -2.928786,-2.27738 -4.392834,-3.415557"
         inkscape:path-effect="#path-effect116-5"
         inkscape:connector-curvature="0"
         id="path114-0"
         d="m 24.435538,51.805285 c 0.03352,0.25589 0.122906,0.504315 0.260095,0.722908 0.147251,0.234625 0.355256,0.438226 0.612361,0.541321 0.128552,0.05155 0.268068,0.07718 0.406333,0.06908 0.138265,-0.0081 0.275085,-0.05046 0.390779,-0.126607 0.171083,-0.112597 0.289496,-0.295219 0.346389,-0.491969 0.05689,-0.19675 0.05567,-0.406945 0.02137,-0.608865 -0.06859,-0.403838 -0.264031,-0.773866 -0.383204,-1.165769 -0.274019,-0.901113 -0.135172,-1.874193 -0.279758,-2.804884 -0.197027,-1.268246 -0.912093,-2.400398 -1.747069,-3.375119 -1.214892,-1.418221 -2.718943,-2.587666 -4.392834,-3.415557"
         style="opacity:1;fill:none;fill-opacity:1;fill-rule:evenodd;stroke:#0b0b28;stroke-width:0.294238" />
      <path
         sodipodi:nodetypes="cccssssssc"
         inkscape:original-d="m 12.73415,40.906482 c 0.467447,-0.205158 0.839306,-0.681655 1.306149,-0.886238 0.466842,-0.204586 0.647118,-0.888065 0.970223,-1.331668 0.323107,-0.443602 0.790855,-2.800201 1.185829,-4.199874 0.394974,-1.399669 0.287775,-4.575757 0.431211,-6.863206 0.143434,-2.287448 1.725143,-8.468322 2.587262,-12.702052 0.862119,-4.233731 3.018775,-4.439176 4.52771,-6.6583349 1.508934,-2.2191586 7.043404,-3.2782366 10.564655,-4.9169246 3.52125,-1.6386875 4.599881,-0.1368679 6.899366,-0.2048716 2.299488,-0.068004 2.156355,1.0240722 3.234079,1.5365388"
         inkscape:path-effect="#path-effect138"
         inkscape:connector-curvature="0"
         id="path136"
         d="m 12.73415,40.906482 c 0.484363,-0.21284 0.929396,-0.514801 1.306149,-0.886238 0.392563,-0.387025 0.708946,-0.846252 0.970223,-1.331668 0.693421,-1.288278 0.999993,-2.748682 1.185829,-4.199874 0.29125,-2.274362 0.30598,-4.573694 0.431211,-6.863206 0.237203,-4.336601 0.887916,-8.705229 2.587262,-12.702052 1.05821,-2.488886 2.534808,-4.830028 4.52771,-6.6583349 2.896673,-2.6574354 6.720888,-4.0934375 10.564655,-4.9169246 2.270259,-0.4863794 4.649279,-0.7773659 6.899366,-0.2048716 1.163976,0.2961529 2.269229,0.821268 3.234079,1.5365388"
         style="opacity:1;fill:none;fill-opacity:1;fill-rule:evenodd;stroke:#0b0b28;stroke-width:0.294238" />
      <path
         sodipodi:nodetypes="ccscsssc"
         inkscape:original-d="m 20.185048,41.351909 c -0.215304,-0.205157 -0.574646,-0.41003 -0.862421,-0.614613 -0.287776,-0.204587 0.07217,-1.22952 0.107798,-1.843847 0.03563,-0.614329 1.437669,-2.59533 2.156051,-3.892565 0.718384,-1.297235 1.509539,-3.346528 2.263854,-5.01936 0.754317,-1.672835 3.018775,-6.283024 4.52771,-9.424105 1.508935,-3.141081 4.743618,-3.414818 7.114973,-5.121796 2.371354,-1.706978 3.818098,0.107062 5.722308,0.175639"
         inkscape:path-effect="#path-effect142"
         inkscape:connector-curvature="0"
         id="path140"
         d="m 20.185048,41.351909 c -0.360101,-0.06116 -0.687082,-0.294191 -0.862421,-0.614613 -0.152916,-0.279446 -0.190296,-0.611416 -0.154029,-0.927894 0.03627,-0.316478 0.142061,-0.620776 0.261827,-0.915953 0.558226,-1.375819 1.425593,-2.599922 2.156051,-3.892565 0.903791,-1.599379 1.599193,-3.306737 2.263854,-5.01936 1.264979,-3.259456 2.454916,-6.608479 4.52771,-9.424105 1.767014,-2.400263 4.227562,-4.382568 7.114973,-5.121796 1.873321,-0.479603 3.881928,-0.417951 5.722308,0.175639"
         style="opacity:1;fill:none;fill-opacity:1;fill-rule:evenodd;stroke:#0b0b28;stroke-width:0.294238" />
      <path
         inkscape:original-d="M 27.493219,5.6255639 C 26.307692,6.069166 24.978126,6.5813457 23.720128,7.059667 22.462129,7.5379883 20.701956,7.6057044 19.192418,7.8791539 17.68288,8.1526035 15.886773,7.5374138 14.233498,7.3669746 12.580223,7.1965344 12.293354,6.7520721 11.322828,6.4450507"
         inkscape:path-effect="#path-effect146"
         inkscape:connector-curvature="0"
         id="path144"
         d="M 27.493219,5.6255639 C 26.27392,6.1974533 25.011461,6.6772975 23.720128,7.059667 22.245918,7.4961872 20.728172,7.806322 19.192418,7.8791539 17.526938,7.9581379 15.854642,7.7567886 14.233498,7.3669746 13.243148,7.1288388 12.269684,6.8205045 11.322828,6.4450507"
         style="opacity:1;fill:none;fill-opacity:1;fill-rule:evenodd;stroke:#0b0b28;stroke-width:0.294238" />
      <path
         inkscape:original-d="m 34.112709,9.614351 c -1.329262,0.955782 -2.65883,1.91185 -3.988698,2.868205 -1.329866,0.956356 -3.01817,0.614329 -4.527708,0.921924 -1.509538,0.307594 -2.083881,1.365525 -3.126275,2.048717"
         inkscape:path-effect="#path-effect150"
         inkscape:connector-curvature="0"
         id="path148"
         d="m 34.112709,9.614351 c -0.967789,1.357775 -2.393482,2.382967 -3.988698,2.868205 -1.475177,0.448725 -3.061903,0.44347 -4.527708,0.921924 -1.198354,0.391156 -2.289315,1.106086 -3.126275,2.048717"
         style="opacity:1;fill:none;fill-opacity:1;fill-rule:evenodd;stroke:#0b0b28;stroke-width:0.294238" />
      <path
         inkscape:original-d="m 36.295712,14.531275 c -0.96992,0.358239 -1.958111,0.733837 -2.937621,1.101186 -0.979509,0.367348 -7.312308,-0.102724 -10.968916,-0.153654"
         inkscape:path-effect="#path-effect154"
         inkscape:connector-curvature="0"
         id="path152"
         d="m 36.295712,14.531275 c -0.946896,0.44657 -1.930499,0.81528 -2.937621,1.101186 -3.567673,1.012806 -7.431013,0.958688 -10.968916,-0.153654"
         style="opacity:1;fill:none;fill-opacity:1;fill-rule:evenodd;stroke:#0b0b28;stroke-width:0.294238" />
      <path
         sodipodi:nodetypes="cc"
         inkscape:original-d="m 36.192216,14.560331 c -0.507885,-1.123 -0.825503,-2.39058 -1.333992,-3.513006"
         inkscape:path-effect="#path-effect158"
         inkscape:connector-curvature="0"
         id="path156"
         d="M 36.192216,14.560331 34.858224,11.047325"
         style="opacity:1;fill:none;fill-opacity:1;fill-rule:evenodd;stroke:#0b0b28;stroke-width:0.294238" />
      <path
         inkscape:original-d="m 44.246155,4.543773 c 0.772886,0.6314014 1.509538,1.2972346 2.263855,1.9462819 0.754316,0.6490478 0.467446,1.8777058 0.700717,2.8169885 0.23327,0.9392826 0.215906,2.2533026 0.323405,3.3803846 0.107501,1.127082 0.898657,1.228944 1.347534,1.843847 0.448877,0.614902 1.581409,1.945995 2.371656,2.919423"
         inkscape:path-effect="#path-effect162"
         inkscape:connector-curvature="0"
         id="path160"
         d="m 44.246155,4.543773 c 0.948258,0.3624769 1.763234,1.0631279 2.263855,1.9462819 0.481883,0.8500977 0.669016,1.8403245 0.700717,2.8169885 0.01849,0.5696559 -0.01326,1.1401076 0.0071,1.7096986 0.02039,0.569591 0.09515,1.145377 0.316281,1.670686 0.296857,0.705194 0.836114,1.274749 1.347534,1.843847 0.838389,0.932942 1.63025,1.907694 2.371656,2.919423"
         style="opacity:1;fill:none;fill-opacity:1;fill-rule:evenodd;stroke:#0b0b28;stroke-width:0.294238" />
      <path
         sodipodi:nodetypes="ccccssssc"
         inkscape:original-d="m 51.20912,17.403332 c 0.152759,0.168724 0.305216,0.337734 0.457368,0.507032 0.152156,0.169298 -0.03781,0.80855 -0.05717,1.213255 -0.01935,0.404704 -1.054186,0.01178 -1.58173,0.0181 -0.527545,0.0063 -0.889025,-0.640113 -1.333988,-0.959738 -0.444964,-0.319627 -1.943513,-0.821196 -2.915721,-1.231364 -0.972208,-0.410168 -1.257459,-0.398669 -1.886641,-0.597573 -0.629184,-0.198904 -1.39721,-0.398669 -2.09627,-0.597574 -0.699057,-0.198904 -0.800091,-0.217586 -1.143418,-0.271624"
         inkscape:path-effect="#path-effect170"
         inkscape:connector-curvature="0"
         id="path168"
         d="m 51.20912,17.403332 c 0.187811,0.131957 0.345402,0.306659 0.457368,0.507032 0.105555,0.188899 0.170876,0.403091 0.167615,0.619457 -0.0033,0.216366 -0.07842,0.434418 -0.224785,0.593798 -0.09642,0.104992 -0.221205,0.18248 -0.355865,0.229239 -0.134661,0.04676 -0.278967,0.06332 -0.421305,0.05558 -0.284675,-0.01547 -0.556519,-0.12617 -0.80456,-0.266722 C 49.55065,18.871463 49.146416,18.490957 48.6936,18.181981 47.818768,17.585045 46.787622,17.270123 45.777879,16.950617 45.148939,16.751606 44.52156,16.547632 43.891238,16.353044 43.196905,16.138695 42.498924,15.935719 41.794968,15.75547 41.415446,15.658293 41.034229,15.567733 40.65155,15.483846"
         style="opacity:1;fill:none;fill-opacity:1;fill-rule:evenodd;stroke:#0b0b28;stroke-width:0.294238" />
      <path
         sodipodi:nodetypes="cccsc"
         inkscape:original-d="m 51.280276,17.425088 c -0.439895,-0.09418 -0.98789,-0.111257 -1.428385,-0.20487 -0.440498,-0.09362 -1.490968,-0.905138 -2.236906,-1.357276 -0.745937,-0.452139 -1.580801,-1.502681 -2.371657,-2.253591 -0.790854,-0.750909 -1.205989,-1.389485 -1.799206,-2.072104"
         inkscape:path-effect="#path-effect174"
         inkscape:connector-curvature="0"
         id="path172"
         d="m 51.280276,17.425088 c -0.483179,0.01462 -0.968795,-0.05503 -1.428385,-0.20487 -0.83427,-0.272004 -1.56125,-0.797382 -2.236906,-1.357276 -0.840247,-0.696284 -1.624767,-1.45799 -2.371657,-2.253591 -0.626238,-0.66708 -1.226576,-1.358475 -1.799206,-2.072104"
         style="opacity:1;fill:none;fill-opacity:1;fill-rule:evenodd;stroke:#0b0b28;stroke-width:0.294238" />
      <path
         inkscape:original-d="M 41.955348,9.4350877 C 41.460952,9.2305032 41.740046,9.6738185 41.63194,9.7936132 41.523834,9.913409 41.560375,10.185998 41.524142,10.38262 c -0.03623,0.196622 0.70102,0.289949 1.051076,0.435353 0.350057,0.145404 0.575248,-0.512467 0.862422,-0.76827 0.287172,-0.2558025 -0.987888,-0.4100298 -1.482288,-0.6146153 z"
         inkscape:path-effect="#path-effect178"
         inkscape:connector-curvature="0"
         id="path176"
         d="m 41.955348,9.4350877 c -0.130071,0.096576 -0.240704,0.2192217 -0.323408,0.3585255 -0.0524,0.088259 -0.09384,0.183725 -0.114887,0.2841868 -0.02104,0.100461 -0.02119,0.206152 0.0071,0.30482 0.0289,0.100812 0.0871,0.192387 0.162823,0.264944 0.07572,0.07256 0.168566,0.126356 0.267663,0.160678 0.198192,0.06864 0.416714,0.05899 0.62059,0.0097 0.197187,-0.04765 0.387348,-0.132728 0.542877,-0.262973 0.155528,-0.130244 0.274881,-0.307413 0.319545,-0.505297 0.04182,-0.1852848 0.01612,-0.3850485 -0.07123,-0.5537157 -0.08735,-0.1686671 -0.235682,-0.30492 -0.411142,-0.3776729 -0.175461,-0.072753 -0.376684,-0.081437 -0.55776,-0.024072 -0.181076,0.057365 -0.340592,0.1803319 -0.442153,0.3408456 z"
         style="opacity:1;fill:none;fill-opacity:1;fill-rule:evenodd;stroke:#0b0b28;stroke-width:0.294238" />
      <path
         inkscape:original-d="m 4.8244114,48.350387 c 0.4449649,-0.434886 0.8896279,-0.869486 1.333989,-1.303798 0.4443613,-0.434309 2.3379592,-1.159217 3.5064862,-1.738394 1.1685264,-0.579179 4.4977504,-0.941918 6.7461734,-1.412445 2.248424,-0.470529 1.270768,0.265301 1.905699,0.398383 0.634931,0.133078 2.541234,1.617384 3.811398,2.426507 1.270163,0.809125 2.515824,2.293429 3.773283,3.440574"
         inkscape:path-effect="#path-effect182"
         inkscape:connector-curvature="0"
         id="path180"
         d="M 4.8244114,48.350387 C 5.210602,47.860891 5.6601938,47.421475 6.1584004,47.046589 7.2045266,46.25941 8.4402392,45.771088 9.6648866,45.308195 11.832545,44.488862 14.101336,43.708073 16.41106,43.89575 c 0.648621,0.0527 1.291837,0.182372 1.905699,0.398383 1.428753,0.502762 2.651961,1.451925 3.811398,2.426507 1.303319,1.095525 2.562444,2.243626 3.773283,3.440574"
         style="opacity:1;fill:none;fill-opacity:1;fill-rule:evenodd;stroke:#0b0b28;stroke-width:0.294238" />
      <path
         sodipodi:nodetypes="cssssscc"
         inkscape:original-d="m 15.51676,37.400094 c 1.042393,-1.22952 2.497728,-2.655087 3.503584,-3.918176 1.005856,-1.263089 1.006459,-4.097721 1.509237,-6.146155 0.502776,-2.048432 0.647117,-4.097723 0.970223,-6.146154 0.323106,-2.048431 1.797012,1.638688 2.695066,2.458462 0.898052,0.819774 -1.437067,4.711766 -2.156052,7.068079 -0.718986,2.356312 -0.359041,1.706978 -0.539014,2.560898 -0.179972,0.853919 -0.287171,1.758195 -0.43121,2.50968"
         inkscape:path-effect="#path-effect190"
         inkscape:connector-curvature="0"
         id="path188"
         d="m 15.51676,37.400094 c 1.391386,-1.080485 2.584788,-2.415107 3.503584,-3.918176 1.123493,-1.837936 1.84142,-4.017799 1.509237,-6.146155 -0.179141,-1.147786 -0.655972,-2.247135 -0.700052,-3.40798 -0.02204,-0.580423 0.07032,-1.175863 0.347895,-1.686085 0.13879,-0.25511 0.323121,-0.486558 0.548029,-0.670299 0.224908,-0.18374 0.490793,-0.319029 0.774351,-0.38179 0.334241,-0.07398 0.688402,-0.04559 1.011808,0.06665 0.323406,0.112243 0.616091,0.306703 0.855945,0.550957 0.479709,0.488507 0.738674,1.161954 0.827313,1.840852 0.161396,1.236149 -0.204112,2.482188 -0.689648,3.630389 -0.485536,1.148202 -1.09611,2.247314 -1.466404,3.43769 -0.259335,0.833678 -0.396718,1.699489 -0.539014,2.560898 -0.138342,0.837475 -0.282083,1.674058 -0.43121,2.50968"
         style="opacity:1;fill:none;fill-opacity:1;fill-rule:evenodd;stroke:#0b0b28;stroke-width:0.294238" />
      <path
         inkscape:original-d="m 40.645137,15.410768 c 0.07217,0.955781 0.07217,1.91185 0.107798,2.868205 0.03563,0.956356 -0.862118,2.731337 -1.293629,4.097437 -0.431513,1.366099 -1.077726,1.433816 -1.617042,2.151154"
         inkscape:path-effect="#path-effect194"
         inkscape:connector-curvature="0"
         id="path192"
         d="m 40.645137,15.410768 c 0.166336,0.945202 0.202717,1.913184 0.107798,2.868205 -0.142675,1.435517 -0.58443,2.841212 -1.293629,4.097437 -0.442261,0.783389 -0.987415,1.50861 -1.617042,2.151154"
         style="opacity:1;fill:none;fill-opacity:1;fill-rule:evenodd;stroke:#0b0b28;stroke-width:0.294238" />
      <path
         sodipodi:nodetypes="ccsc"
         inkscape:original-d="m 36.009627,15.308331 c 0.359641,0.853346 0.718984,1.77527 1.078023,2.663335 0.35904,0.888064 -0.143436,2.389884 -0.215604,3.585256 -0.07217,1.195372 0.739597,1.897887 0.990833,2.785952"
         inkscape:path-effect="#path-effect198"
         inkscape:connector-curvature="0"
         id="path196"
         d="m 36.009627,15.308331 c 0.621803,0.74854 1.0041,1.693032 1.078023,2.663335 0.09109,1.195604 -0.273142,2.387568 -0.215604,3.585256 0.04798,0.998796 0.397364,1.981159 0.990833,2.785952"
         style="opacity:1;fill:none;fill-opacity:1;fill-rule:evenodd;stroke:#0b0b28;stroke-width:0.294238" />
      <path
         inkscape:original-d="M 11.358027,6.2989864 C 8.9687035,11.096115 6.4674582,15.96381 4.0775318,20.761513"
         inkscape:path-effect="#path-effect202"
         inkscape:connector-curvature="0"
         id="path200"
         d="M 11.358027,6.2989864 4.0775318,20.761513"
         style="opacity:1;fill:none;fill-opacity:1;fill-rule:evenodd;stroke:#0b0b28;stroke-width:0.294238"
         sodipodi:nodetypes="cc" />
      <path
         inkscape:original-d="m 17.457207,20.523776 c -1.526903,2.543538 -3.125974,5.053219 -4.689413,7.580256"
         inkscape:path-effect="#path-effect206"
         inkscape:connector-curvature="0"
         id="path204"
         d="m 17.457207,20.523776 -4.689413,7.580256"
         style="opacity:1;fill:none;fill-opacity:1;fill-rule:evenodd;stroke:#0b0b28;stroke-width:0.294238" />
      <path
         inkscape:original-d="M 4.0896834,20.728648 C 3.5509723,22.572207 3.0119591,24.416054 2.4726442,26.260187"
         inkscape:path-effect="#path-effect210"
         inkscape:connector-curvature="0"
         id="path208"
         d="M 4.0896834,20.728648 2.4726442,26.260187"
         style="opacity:1;fill:none;fill-opacity:1;fill-rule:evenodd;stroke:#0b0b28;stroke-width:0.294238" />
      <path
         inkscape:original-d="M 8.2939849,28.974739 C 9.8214904,28.650071 11.348694,28.359837 12.875596,28.052815"
         inkscape:path-effect="#path-effect218"
         inkscape:connector-curvature="0"
         id="path216"
         d="M 8.2939849,28.974739 12.875596,28.052815"
         style="opacity:1;fill:none;fill-opacity:1;fill-rule:evenodd;stroke:#0b0b28;stroke-width:0.294238" />
      <path
         sodipodi:nodetypes="cc"
         inkscape:original-d="m 2.5134669,26.172752 c -0.1272534,-0.116609 1.2306225,0.45861 1.7918217,0.702051"
         inkscape:path-effect="#path-effect222"
         inkscape:connector-curvature="0"
         id="path220"
         d="m 2.5134669,26.172752 1.7918217,0.702051"
         style="opacity:1;fill:none;fill-opacity:1;fill-rule:evenodd;stroke:#0b0b28;stroke-width:0.294238" />
      <path
         inkscape:original-d="M 7.6451021,22.432277 C 6.5494109,23.883165 5.4534176,25.33434 4.3571228,26.785804"
         inkscape:path-effect="#path-effect226"
         inkscape:connector-curvature="0"
         id="path224"
         d="M 7.6451021,22.432277 4.3571228,26.785804"
         style="opacity:1;fill:none;fill-opacity:1;fill-rule:evenodd;stroke:#0b0b28;stroke-width:0.294238"
         sodipodi:nodetypes="cc" />
      <path
         sodipodi:nodetypes="cc"
         inkscape:original-d="M 8.2939851,28.897913 C 8.1685171,28.726899 8.1146159,28.402518 7.970577,28.232078"
         inkscape:path-effect="#path-effect230"
         inkscape:connector-curvature="0"
         id="path228"
         d="M 8.2939851,28.897913 7.970577,28.232078"
         style="opacity:1;fill:none;fill-opacity:1;fill-rule:evenodd;stroke:#0b0b28;stroke-width:0.294238" />
      <path
         inkscape:original-d="m 7.8279503,28.363108 c 1.0603605,-0.768556 2.2271127,-1.642247 3.2689027,-2.41023"
         inkscape:path-effect="#path-effect234"
         inkscape:connector-curvature="0"
         id="path232"
         d="m 7.8279503,28.363108 3.2689027,-2.41023"
         style="opacity:1;fill:none;fill-opacity:1;fill-rule:evenodd;stroke:#0b0b28;stroke-width:0.294238"
         sodipodi:nodetypes="cc" />
      <path
         sodipodi:nodetypes="cc"
         inkscape:original-d="m 5.1677093,26.618712 c 0.6471177,0.460674 1.4845032,0.90353 2.131017,1.364778"
         inkscape:path-effect="#path-effect238"
         inkscape:connector-curvature="0"
         id="path236"
         d="m 5.1677093,26.618712 2.131017,1.364778"
         style="opacity:1;fill:none;fill-opacity:1;fill-rule:evenodd;stroke:#0b0b28;stroke-width:0.294238" />
      <path
         inkscape:original-d="M 11.150754,25.901661 C 9.8214904,26.58428 8.4919249,27.267188 7.1620575,27.95038"
         inkscape:path-effect="#path-effect242"
         inkscape:connector-curvature="0"
         id="path240"
         d="M 11.150754,25.901661 7.1620575,27.95038"
         style="opacity:1;fill:none;fill-opacity:1;fill-rule:evenodd;stroke:#0b0b28;stroke-width:0.294238" />
      <path
         inkscape:original-d="m 5.3294133,26.721147 c 0.7549202,-1.400243 1.5095384,-2.8002 2.2638548,-4.199871"
         inkscape:path-effect="#path-effect246"
         inkscape:connector-curvature="0"
         id="path244"
         d="M 5.3294133,26.721147 7.5932681,22.521276"
         style="opacity:1;fill:none;fill-opacity:1;fill-rule:evenodd;stroke:#0b0b28;stroke-width:0.294238" />
      <path
         inkscape:original-d="m 4.1272062,20.935128 c 1.1681632,0.477748 2.4063047,1.005391 3.5738646,1.483713"
         inkscape:path-effect="#path-effect250"
         inkscape:connector-curvature="0"
         id="path248"
         d="m 4.1272062,20.935128 3.5738646,1.483713"
         style="opacity:1;fill:none;fill-opacity:1;fill-rule:evenodd;stroke:#0b0b28;stroke-width:0.294238"
         sodipodi:nodetypes="cc" />
      <path
         inkscape:original-d="M 10.868687,25.916589 C 9.8448643,24.789507 8.7793985,23.596567 7.7549719,22.470059"
         inkscape:path-effect="#path-effect254"
         inkscape:connector-curvature="0"
         id="path252"
         d="M 10.868687,25.916589 7.7549719,22.470059"
         style="opacity:1;fill:none;fill-opacity:1;fill-rule:evenodd;stroke:#0b0b28;stroke-width:0.294238"
         sodipodi:nodetypes="cc" />
      <path
         inkscape:original-d="m 12.767794,28.20647 c -0.538712,-0.717338 -1.077725,-1.434389 -1.61704,-2.151154"
         inkscape:path-effect="#path-effect258"
         inkscape:connector-curvature="0"
         id="path256"
         d="m 12.767794,28.20647 -1.61704,-2.151154"
         style="opacity:1;fill:none;fill-opacity:1;fill-rule:evenodd;stroke:#0b0b28;stroke-width:0.294238" />
      <path
         sodipodi:nodetypes="cc"
         inkscape:original-d="M 10.962099,26.029706 C -905.86491,602.8986 17.475475,13.626137 20.691285,7.6680684"
         inkscape:path-effect="#path-effect262"
         inkscape:connector-curvature="0"
         id="path260"
         d="M 10.962099,26.029706 20.691285,7.6680684"
         style="opacity:1;fill:none;fill-opacity:1;fill-rule:evenodd;stroke:#0b0b28;stroke-width:0.294238" />
      <path
         inkscape:original-d="m 2.9963998,26.503883 c -0.2692049,0.699693 -0.5504044,1.437675 -0.8202127,2.137938 -0.2698084,0.700267 -0.3770073,2.697192 -0.5659637,4.046221 -0.1889564,1.349026 -0.017665,1.689903 -0.026951,2.535287 -0.00929,0.845384 -0.1793691,1.348453 -0.2695065,2.023109"
         inkscape:path-effect="#path-effect266"
         inkscape:connector-curvature="0"
         id="path264"
         d="m 2.9963998,26.503883 c -0.3357946,0.686572 -0.6106288,1.402945 -0.8202127,2.137938 -0.3744951,1.313322 -0.5391698,2.680811 -0.5659637,4.046221 -0.016583,0.845083 0.019092,1.691297 -0.026951,2.535287 -0.037097,0.680005 -0.1272963,1.357106 -0.2695065,2.023109"
         style="opacity:1;fill:none;fill-opacity:1;fill-rule:evenodd;stroke:#0b0b28;stroke-width:0.294238"
         sodipodi:nodetypes="ccscc" />
      <path
         inkscape:transform-center-y="4.1714875"
         inkscape:transform-center-x="3.4811291"
         inkscape:original-d="m 8.3392991,28.772921 c -0.3480648,0.667547 -0.696141,1.3355 -1.044225,2.003854 -0.3480863,0.668358 -1.7970593,2.118323 -2.6956069,3.178094 -0.8985468,1.059769 -1.2765417,1.176737 -1.9148285,1.765715 -0.638287,0.588978 -0.9047156,1.052772 -1.3570891,1.579767"
         inkscape:path-effect="#path-effect266-7"
         inkscape:connector-curvature="0"
         id="path264-4"
         d="M 8.3392991,28.772921 C 8.049614,29.469199 7.6998168,30.140455 7.2950741,30.776775 6.547563,31.951982 5.6160707,33.002818 4.5994672,33.954869 3.9656786,34.548413 3.2975236,35.105479 2.6846387,35.720584 2.1942002,36.212799 1.740191,36.741305 1.3275496,37.300351"
         style="opacity:1;fill:none;fill-opacity:1;fill-rule:evenodd;stroke:#0b0b28;stroke-width:0.294238" />
      <path
         inkscape:connector-curvature="0"
         id="path296"
         d="m 15.995831,36.620257 c 0.308671,-1.257857 0.535295,-3.17558 0.650538,-5.504918 0.205528,-4.154206 0.187091,-4.803217 0.29411,-5.922979 0.713808,-7.468766 3.043997,-13.263322 6.757495,-16.7136251 0.894316,-0.8309312 1.535967,-1.3350774 2.606139,-2.0054456 2.484927,-1.5565861 5.958022,-2.6565459 9.632288,-3.2507535 1.369119,-0.221416 3.666087,-0.2420817 4.633018,-0.041683 1.198518,0.2483955 2.309322,0.6878069 3.217119,1.2726249 0.23059,0.1485498 0.59061,0.3493044 0.80004,0.446121 0.209434,0.096817 0.705976,0.3561807 1.024827,0.6549674 0.632554,0.59275 0.998403,1.3131956 1.214876,2.1222906 0.15457,0.5777266 0.302701,2.0167567 0.246195,2.4690923 -0.06534,0.523023 0.0341,1.803881 0.218769,2.369722 0.191926,0.588089 0.557687,1.11678 1.572371,2.27281 0.997484,1.136438 2.143175,2.446512 2.090264,2.49679 -0.02291,0.02177 -0.376001,-0.08136 -0.562322,-0.107919 -0.451057,-0.06427 -1.518047,-0.485035 -2.130561,-0.919523 -0.674424,-0.478405 -2.985093,-2.749161 -3.733234,-3.631585 -0.945005,-1.114623 -0.916396,-1.155254 -1.065321,-1.100951 -0.0733,0.02673 -0.133269,0.07444 -0.133269,0.106038 0,0.172811 2.134996,2.518489 3.138762,3.448493 1.828165,1.693826 2.980911,2.373565 4.188373,2.469755 0.494848,0.03942 0.712084,0.02752 0.894807,0.255149 0.286927,0.357455 0.16603,0.995971 -0.07324,1.257766 -0.421487,0.461157 -1.075307,0.232741 -2.246882,-0.655627 -0.947505,-0.718462 -1.739438,-1.063794 -4.242597,-1.85004 -2.461317,-0.773103 -4.460328,-1.333874 -5.533869,-1.487642 -4.309534,-0.617275 -8.533214,1.506403 -11.500413,5.782445 -1.358056,1.957096 -2.085066,3.708999 -4.036044,8.702014 -0.462499,1.183646 -1.065476,2.619229 -1.318721,3.181814 -0.538474,1.196219 -1.270646,2.621418 -1.27608,2.459999 -0.0057,-0.168172 0.44149,-2.71065 0.572452,-3.254938 0.186457,-0.774929 0.481181,-1.969669 1.120215,-3.383169 1.186308,-2.624032 1.59197,-3.887784 1.295668,-5.216611 -0.319573,-1.433194 -1.112905,-2.201057 -2.313348,-2.19506 -0.89212,0.0045 -1.565046,0.451935 -2.011419,1.337538 -0.226725,0.449823 -0.208866,0.426253 -0.278192,1.209446 8.15e-4,0.855326 -0.02846,0.974952 0.310853,2.138196 0.540398,1.852649 0.531678,2.49977 0.327318,3.788094 -0.340455,2.146292 -1.689346,4.660284 -3.661679,6.575826 -0.510124,0.495437 -0.846461,0.833351 -0.813327,0.698324 z M 30.179851,16.40563 c 1.736648,-0.170378 4.032073,-0.761623 5.54175,-1.427418 0.593184,-0.261606 0.59514,-0.298643 0.563696,-0.450112 -0.0675,-0.325171 -1.278466,-3.482721 -1.34614,-3.502989 -0.03754,-0.01124 -0.08233,-0.01429 -0.142413,0.02179 -0.09029,0.05424 -0.0012,0.349938 0.514538,1.705164 0.343079,0.901751 0.73194,1.699369 0.73194,1.733183 0,0.09549 -1.641693,0.685992 -2.61643,0.965851 -3.21036,0.921731 -6.432558,0.992899 -9.775221,0.215902 -0.450698,-0.104764 -0.980681,-0.225521 -0.980681,-0.25319 0,-0.08493 0.996252,-0.913195 1.385717,-1.166064 0.928174,-0.602639 1.88926,-0.82984 3.959376,-1.166295 0.738441,-0.120018 1.640198,-0.300157 2.003907,-0.400308 1.50862,-0.415417 2.991853,-1.37252 3.893727,-2.51255 0.323188,-0.4085339 0.341905,-0.4542961 0.228918,-0.5597262 -0.112628,-0.1050962 -0.143525,-0.090287 -0.364897,0.174915 -0.792624,0.9495572 -1.633297,1.7258272 -2.659668,2.2135202 -0.828426,0.393638 -1.43246,0.45254 -3.263073,0.757018 -1.817792,0.302345 -2.789947,0.592164 -3.671103,1.09443 -0.743906,0.424032 -1.729661,1.329741 -1.783173,1.595738 -0.04526,0.224994 -0.0086,0.241011 1.234122,0.539459 2.120693,0.50929 4.263538,0.64552 6.545108,0.421682 z m 12.778158,-5.542429 c 0.253447,-0.121788 0.585693,-0.493581 0.646373,-0.723311 0.174383,-0.6602122 -0.53136,-1.3254999 -1.229481,-1.1590049 -0.239751,0.057179 -0.771815,0.50667 -0.91825,0.775749 -0.148714,0.2732649 -0.13492,0.7157889 0.02862,0.9177179 0.279623,0.345292 0.964439,0.433105 1.472752,0.188849 z"
         style="opacity:1;fill:#ffd5d5;fill-opacity:1;fill-rule:evenodd;stroke:#0b0b28;stroke-width:0.07430632"
         sodipodi:nodetypes="cssssssscsscsccccscsccccsssssccssscccsscccccccccsssssscccscsscccccccccc"
         inkscape:export-filename="C:\Users\Cole\Desktop\path296.png"
         inkscape:export-xdpi="81.312309"
         inkscape:export-ydpi="81.312309" />
      <path
         inkscape:connector-curvature="0"
         id="path302"
         d="m 24.691437,48.764636 c -0.54503,-0.511393 -1.488351,-1.35394 -2.096269,-1.872331 -3.021533,-2.576557 -4.563775,-3.244218 -7.279769,-3.151521 -1.707478,0.05828 -2.903869,0.351593 -5.6027551,1.373621 -2.1567083,0.81671 -3.2116908,1.372388 -4.0526573,2.134602 -0.2446355,0.221727 -0.4447053,0.390027 -0.4445997,0.374005 0.00118,-0.177708 0.3088187,-1.440036 0.4631883,-1.73214 0.989811,-1.872949 3.7198203,-3.736894 6.7020468,-4.670856 0.356366,-0.111605 0.665089,-0.222814 0.686052,-0.247131 0.02096,-0.02432 0.177332,-0.129875 0.347488,-0.234576 0.860085,-0.529224 1.678042,-1.733048 2.169203,-2.972982 0.16022,-0.404475 0.251641,-0.38684 0.768834,-0.843403 1.682722,-1.485458 3.133913,-3.661922 3.836103,-5.57883 0.381088,-1.040335 0.552906,-1.893896 0.549908,-2.921173 -0.0027,-0.915614 -0.03942,-1.351423 -0.426427,-2.626272 -0.330763,-1.089565 -0.406354,-1.557909 -0.371327,-2.300635 0.02816,-0.597088 0.0613,-0.725754 0.292925,-1.137143 0.405553,-0.720309 1.078238,-1.111835 1.798585,-1.030768 1.311051,0.147545 2.16249,1.475156 2.055189,3.22477 -0.06481,1.05677 -0.325444,1.920344 -1.159305,3.727164 -1.012773,2.194484 -1.183736,2.523309 -1.693197,5.464464 l -0.311556,2.066626 -0.45337,0.722851 c -0.681104,1.08595 -1.306764,2.449072 -1.422864,2.978164 -0.219819,1.001775 0.0425,1.507557 1.086206,2.094343 1.046398,0.588304 2.043437,1.216802 2.926782,2.059644 1.242271,1.185309 2.061306,2.342663 2.441124,3.409423 0.200663,0.563585 0.359564,1.805023 0.321034,2.390011 l -0.02386,0.362168 z"
         style="opacity:1;fill:#c8beb7;fill-opacity:1;fill-rule:evenodd;stroke:#0b0b28;stroke-width:0.07430632"
         sodipodi:nodetypes="cscccccsccsssccccsssscsccssccc" />
      <path
         inkscape:connector-curvature="0"
         id="path308"
         d="m 12.002869,26.921649 c -0.475035,-0.632448 -0.754715,-0.908708 -0.786407,-0.908708 -0.02613,0 -0.10331,-0.06501 -0.10331,-0.07632 0,-0.01127 2.234672,-4.065616 4.864884,-9.029835 l 4.782201,-9.0258527 0.210407,-0.03234 c 1.207876,-0.1856518 2.627944,-0.5532881 4.046814,-1.0476643 0.301635,-0.1050988 0.795144,-0.3070609 0.800136,-0.3023169 0.005,0.00474 -0.423792,0.2634315 -0.656305,0.4283731 -1.886841,1.338496 -3.37768,2.9746083 -4.672869,5.1282118 -1.312612,2.182573 -2.364187,4.913079 -3.013013,7.823543 -0.06123,0.274656 -0.087,0.545894 -0.100139,0.567021 -0.01314,0.02113 -1.085936,1.668643 -2.341114,3.696874 -1.255178,2.02823 -2.298759,3.762685 -2.308964,3.773495 -0.01021,0.01081 -0.3307,-0.473081 -0.722317,-0.994472 z"
         style="opacity:1;fill:#c83737;fill-opacity:1;fill-rule:evenodd;stroke:#0b0b28;stroke-width:0.02627125"
         sodipodi:nodetypes="csssccsccsccsccc" />
      <path
         inkscape:connector-curvature="0"
         id="path310"
         d="M 9.5067634,24.236008 C 7.797007,22.349302 7.8735988,22.384541 7.7739053,22.463161 7.7076143,22.515441 7.6428097,22.53703 7.6730387,22.44653 7.7062837,22.347 7.6415515,22.213723 6.0490685,21.562756 5.0996851,21.174672 4.2236979,20.849767 4.2236979,20.820536 c 0,-0.04054 7.0721291,-14.16124 7.1136731,-14.204391 0.005,-0.00515 0.340149,0.1373064 0.729699,0.2761588 2.437696,0.8689011 5.147076,1.2868053 7.353309,1.1341998 0.482117,-0.033348 0.986219,-0.1249359 0.993908,-0.1176299 0.01635,0.015531 -9.410194,17.8262383 -9.459617,17.8731563 -0.01833,0.01741 -0.700686,-0.718619 -1.4355042,-1.529489 z"
         style="opacity:1;fill:#ffffff;fill-opacity:1;fill-rule:evenodd;stroke:#0b0b28;stroke-width:0.0525425"
         sodipodi:nodetypes="cccsscsscccc" />
      <path
         inkscape:connector-curvature="0"
         id="path312"
         d="m 6.4520179,27.242229 c -0.41504,-0.267093 -0.9285697,-0.529133 -0.9693816,-0.55199 -0.0576,-0.03226 0.3053447,-0.459816 1.1344211,-1.996836 0.5874356,-1.089042 1.0212338,-2.106136 1.0448403,-2.098516 0.05447,0.01758 3.2834093,3.245081 3.0118583,3.369011 -0.03474,0.02429 -3.4049725,1.786865 -3.4356266,1.795957 -0.01732,0.0051 -0.3710715,-0.25053 -0.7861115,-0.517626 z"
         style="opacity:1;fill:#999999;fill-opacity:1;fill-rule:evenodd;stroke:#0b0b28;stroke-width:0.0525425"
         sodipodi:nodetypes="ccscccc" />
      <path
         inkscape:connector-curvature="0"
         id="path314"
         d="M 3.4468679,26.362802 C 3.0391552,26.20187 2.6476268,26.105029 2.6576493,26.07686 2.6676723,26.04869 3.0552726,24.890349 3.43814,23.573506 c 0.382867,-1.316842 0.6891761,-2.468754 0.7160562,-2.468853 0.026879,-10e-5 0.8076552,0.290713 1.6662618,0.670721 l 1.5719135,0.695707 -0.2006702,0.266104 C 7.0813327,22.883542 6.3725137,23.825165 5.6165477,24.829681 4.8605821,25.834195 4.242339,26.684861 4.2275162,26.684677 4.2126922,26.68447 3.8545803,26.523735 3.4468679,26.362802 Z"
         style="opacity:1;fill:#999999;fill-opacity:1;fill-rule:evenodd;stroke:#0b0b28;stroke-width:0.0525425"
         sodipodi:nodetypes="ccscscsscc" />
      <path
         inkscape:connector-curvature="0"
         id="path316"
         d="m 8.3126505,28.543734 c -0.055822,-0.118477 -0.1480796,-0.216236 -0.1342776,-0.237458 0.013803,-0.02122 0.6703527,-0.485912 1.3882621,-1.012437 0.71791,-0.526525 1.434414,-1.087545 1.48107,-1.125446 0.07456,-0.06057 0.07369,0.136379 0.653181,0.906482 0.362617,0.481895 0.746777,0.895602 0.732423,0.90924 -0.02839,0.02696 -3.9006944,0.837835 -4.0152983,0.839908 -0.038507,5.74e-4 -0.049539,-0.161816 -0.1053602,-0.280289 z"
         style="opacity:1;fill:#999999;fill-opacity:1;fill-rule:evenodd;stroke:#0b0b28;stroke-width:0.0525425"
         sodipodi:nodetypes="ccscsccc" />
      <path
         inkscape:connector-curvature="0"
         id="path322"
         d="m 1.5790856,36.704838 c 0,-0.0087 0.014851,-0.114794 0.033002,-0.235816 0.059514,-0.396807 0.07446,-0.770982 0.103572,-1.240774 0.00786,-0.126763 0.022292,-0.890655 0.028509,-1.661804 0.010903,-1.352436 0.025283,-1.540039 0.070225,-2.08421 0.145623,-1.763261 0.5507246,-3.316664 1.2617301,-4.808564 l 0.029602,-0.06853 -0.087967,-0.05559 c -0.2323069,-0.103763 -0.062754,-0.04279 0.5733596,0.206204 0.3617694,0.141603 0.6592991,0.25542 0.6611772,0.252924 0.00187,-0.0026 0.023272,-0.05063 0.047544,-0.106972 0.024272,-0.05634 0.040171,-0.132604 0.045438,-0.137893 0.00527,-0.0053 0.044144,0.03454 0.076288,0.05706 0.057709,0.04033 0.058717,0.04052 0.080161,0.01534 0.011944,-0.01403 0.4666357,-0.614616 1.0104247,-1.334654 0.5437888,-0.72004 1.1315802,-1.521937 1.134407,-1.519251 0.011087,0.01054 -1.3188255,2.530979 -1.3488475,2.555287 -0.04374,0.03542 -0.1712777,0.209527 -0.1619105,0.223928 0.00417,0.0064 0.4347709,0.294721 1.0140584,0.665704 1.0385919,0.665125 1.0537317,0.674243 1.0879005,0.655218 0.1008801,-0.05617 2.4524283,-1.263565 2.4555216,-1.260628 0.00202,0.002 -0.5172988,0.358781 -0.9796999,0.699564 -0.4913763,0.36214 -0.8207242,0.611033 -0.8158452,0.619316 0.00459,0.0078 -0.086397,0.03175 -0.070823,0.04815 0.02825,0.02977 -0.017222,0.0113 -0.044115,0.02997 -0.014824,0.0103 0.099965,0.06747 0.08329,0.07143 -0.016677,0.004 -0.034454,-0.0046 -0.034454,0.0011 0,0.0057 0.071384,0.13262 0.1497866,0.293417 0.2482953,0.281776 0.2233143,0.264493 0.068431,0.600699 -0.6853301,1.487658 -1.7550645,2.881616 -3.154274,4.272162 -0.2739014,0.272207 -0.3408228,0.365316 -1.1680465,1.113648 -1.0380823,0.939082 -1.4828069,1.352688 -1.9995917,1.972235 -0.076367,0.09155 -0.1411005,0.168859 -0.1438527,0.171794 -0.00275,0.0029 -0.005,-0.0017 -0.005,-0.01044 z"
         style="opacity:1;fill:#ff0000;fill-opacity:1;fill-rule:evenodd;stroke:#0b0b28;stroke-width:0.01313563"
         sodipodi:nodetypes="cccsscccccccccccccccccccccscccscccc" />
      <path
         inkscape:connector-curvature="0"
         id="path332"
         d="M 4.812611,26.837333 C 4.7351159,26.94598 4.6454413,27.083387 4.489098,27.08397 4.4159948,27.232052 4.2168525,27.263003 4.0712577,27.199662 3.8042013,27.096306 3.5384103,26.989689 3.268765,26.892402 2.9347178,27.61139 2.6660841,28.363683 2.4728548,29.122117 2.2078884,30.16999 2.0656131,31.234441 2.0413926,32.315149 c -0.031368,1.017241 -0.02012,2.045292 -0.060897,3.066809 -0.00943,0.183451 -0.025604,0.366531 -0.045683,0.54919 0.6828191,-0.742458 1.455414,-1.403387 2.1961941,-2.092081 0.6809792,-0.62403 1.3263916,-1.285521 1.9007656,-2.004632 0.6395613,-0.787612 1.1973845,-1.653543 1.630475,-2.547041 0.058218,-0.127483 0.1281661,-0.250033 0.1749685,-0.385085 -0.066689,-0.19398 -0.1845108,-0.368057 -0.2514274,-0.562673 -0.040541,-0.05281 0.04421,-0.183373 0.00969,-0.169273 -0.1489372,0.06208 -0.2971475,0.198434 -0.4707197,0.141881 -0.2678158,-0.129227 -0.5074433,-0.306046 -0.760372,-0.4594 -0.4711833,-0.30662 -0.9533334,-0.598853 -1.4137571,-0.919951 -0.047889,-0.03678 -0.087564,-0.08626 -0.1013808,-0.144027 -0.012213,0.01615 -0.024426,0.03231 -0.036636,0.04847 z"
         style="opacity:1;fill:#ff6600;fill-opacity:1;fill-rule:evenodd;stroke:#ff0000;stroke-width:0.01313563" />
      <path
         inkscape:connector-curvature="0"
         id="path334"
         d="m 4.8510105,27.168401 c -0.063847,0.0683 -0.1538622,0.105452 -0.2374238,0.142249 -0.1611921,0.17036 -0.442103,0.195127 -0.6522636,0.09746 -0.1878408,-0.06734 -0.3722957,-0.142799 -0.5591208,-0.2126 -0.7104758,1.605539 -1.0656979,3.335795 -1.1094508,5.077089 -0.030973,0.999707 -0.026462,2.003332 -0.062455,3.005297 0.9002357,-0.887297 1.8823807,-1.697806 2.7525983,-2.612841 0.961032,-1.01854 1.7999906,-2.149843 2.4095474,-3.39208 C 7.4520842,29.147657 7.5227421,29.02842 7.5699205,28.899709 7.51469,28.774536 7.4497204,28.65344 7.3959783,28.527652 7.2143951,28.583964 7.0125544,28.547099 6.8585184,28.44187 6.1942723,28.029672 5.5334075,27.611935 4.8845846,27.178064 c -0.010779,-5.7e-5 -0.02483,-0.0317 -0.033574,-0.0097 z"
         style="opacity:1;fill:#ffff00;fill-opacity:1;fill-rule:evenodd;stroke:#ffff00;stroke-width:0.01313563" />
      <path
         inkscape:connector-curvature="0"
         id="path338"
         d="m 16.797951,44.073129 c -0.111361,0.0053 -0.01394,0.128214 -0.03474,0.187816 0.02683,0.337407 -0.01046,0.682509 0.02533,1.015491 0.242492,0.612884 0.848749,0.981325 1.403331,1.316739 1.179713,0.701385 2.478339,1.264563 3.463308,2.22326 0.971302,0.910908 1.899349,1.863089 2.790696,2.844982 0.192094,0.177534 0.153314,0.459008 0.292252,0.667458 0.185514,0.367422 0.572952,0.726542 1.035916,0.653328 0.368869,-0.0322 0.608431,-0.378302 0.610969,-0.711048 0.0385,-0.573808 -0.313306,-1.07737 -0.454565,-1.617625 -0.07225,-0.14909 -0.03123,-0.344027 -0.181811,-0.45174 -1.483172,-1.455858 -3.022861,-2.864259 -4.665469,-4.157779 -0.97591,-0.763832 -2.056382,-1.446875 -3.285728,-1.77416 -0.326699,-0.08935 -0.659021,-0.175165 -0.999489,-0.196722 z"
         style="opacity:1;fill:#ff2a2a;fill-opacity:1;fill-rule:evenodd;stroke:#ffff00;stroke-width:0.02627125" />
      <path
         inkscape:connector-curvature="0"
         id="path340"
         d="m 15.327825,44.003607 c -1.937707,0.073 -3.775459,0.739558 -5.5611743,1.402506 -1.4485663,0.558282 -2.9482551,1.141621 -4.0796844,2.202257 -0.2799549,0.27153 -0.5538487,0.553983 -0.7905172,0.859951 -0.2302407,0.452342 -0.5276373,0.868195 -0.7985769,1.298406 -0.2176754,0.343708 -0.3630888,0.824987 -0.079004,1.17356 0.1747463,0.220909 0.4872344,0.297938 0.7617177,0.22434 0.5054822,-0.113194 0.8198079,-0.554528 1.0281779,-0.973217 0.5879575,-0.972385 1.4101823,-1.806726 2.3358704,-2.49506 1.133771,-0.812764 2.4636968,-1.380918 3.8639728,-1.614399 0.942912,-0.195041 1.915026,-0.08039 2.867584,-0.184732 0.331567,-0.064 0.685802,-0.278784 0.76025,-0.610612 0.04262,-0.362441 -0.03455,-0.736435 0.05227,-1.092884 0.09907,-0.130458 0.09423,-0.26093 -0.111094,-0.199625 -0.08326,0.0032 -0.166528,0.0063 -0.249792,0.0095 z"
         style="opacity:1;fill:#ff2a2a;fill-opacity:1;fill-rule:evenodd;stroke:#ffff00;stroke-width:0.02627125" />
      <path
         inkscape:connector-curvature="0"
         id="path362"
         d="m 42.632946,9.1950255 c -0.195283,0.00169 -0.409298,0.1313002 -0.539786,0.2692885 -0.164758,0.1570842 -0.343512,0.3159068 -0.422442,0.5308733 -0.074,0.1713087 -0.06064,0.3844677 0.07521,0.5252197 0.149601,0.169472 0.396271,0.22699 0.620522,0.206449 0.362818,-0.02551 0.738023,-0.20987 0.89313,-0.535346 0.130585,-0.2637794 0.089,-0.6253603 -0.146521,-0.8125287 C 42.984558,9.2728628 42.803052,9.1917584 42.632946,9.1950255 Z"
         style="opacity:1;fill:#000080;fill-opacity:1;fill-rule:evenodd;stroke:#000000;stroke-width:0.00928829"
         sodipodi:nodetypes="cccccccc" />
      <path
         inkscape:connector-curvature="0"
         id="path364"
         d="m 37.923317,15.271501 c -0.548438,0.01428 -1.112117,0.02328 -1.643293,0.147201 0.420658,0.608313 0.725729,1.309601 0.877365,2.026783 0.144407,1.059527 -0.01591,2.125277 -0.116344,3.18147 -0.06723,0.856915 -0.01645,1.739131 0.338627,2.540111 0.15208,0.359301 0.339938,0.713553 0.57543,1.025594 0.558535,-0.572627 1.012667,-1.248063 1.408821,-1.934687 0.914102,-1.631079 1.357371,-3.49258 1.28299,-5.338683 -0.02687,-0.431349 0.01047,-0.883698 -0.128645,-1.298709 -0.363792,-0.178926 -0.795681,-0.200156 -1.194256,-0.273744 -0.463305,-0.06462 -0.933031,-0.07809 -1.400695,-0.07534 z"
         style="opacity:1;fill:none;fill-opacity:1;fill-rule:evenodd;stroke:#000000;stroke-width:0.03715316" />
      <path
         inkscape:connector-curvature="0"
         id="path416"
         d="m 42.982695,10.146891 -0.09671,0.104578 0.09005,0.05704 0.120056,-0.07606 z"
         style="opacity:1;fill:#ffffff;fill-opacity:1;fill-rule:evenodd;stroke:none;stroke-width:0.294238" />
      <path
         inkscape:connector-curvature="0"
         id="path420"
         d="m 37.719341,15.278594 c -0.474836,0.0075 -0.958091,0.02988 -1.418794,0.135692 -0.007,0.08511 0.09669,0.162014 0.131919,0.244386 0.480861,0.77746 0.795178,1.673877 0.786811,2.58472 0.02967,0.917465 -0.167182,1.823225 -0.194052,2.739436 -0.03923,0.788673 0.06374,1.595993 0.413676,2.318654 0.144192,0.299552 0.288089,0.609083 0.507894,0.865363 0.0846,-0.0066 0.122025,-0.111014 0.183384,-0.15878 0.537267,-0.601659 0.97507,-1.278593 1.358983,-1.976508 0.642666,-1.229384 1.036604,-2.578637 1.137708,-3.948425 0.01675,-0.652628 0.02131,-1.306661 -0.01231,-1.958851 -0.0173,-0.171284 -0.01018,-0.399199 -0.0775,-0.557254 -0.419794,-0.181951 -0.911557,-0.168756 -1.361403,-0.240835 -0.482407,-0.05576 -0.971236,-0.04488 -1.456317,-0.0476 z"
         style="opacity:1;fill:#de8787;fill-opacity:1;fill-rule:evenodd;stroke:none;stroke-width:0.01838988"
         sodipodi:nodetypes="ccccccccccccccc" />
      <g
         transform="rotate(19.127998,23.171391,18.314298)"
         id="g32132">
        <path
           style="opacity:1;fill:none;fill-opacity:1;fill-rule:evenodd;stroke:#000000;stroke-width:0.294238"
           d="m 9.3607074,11.828752 0.2964573,0.486571"
           id="path342"
           inkscape:connector-curvature="0"
           inkscape:path-effect="#path-effect344"
           inkscape:original-d="m 9.3607074,11.828752 c 0.099121,0.161903 0.19794,0.324093 0.2964573,0.486571" />
        <path
           style="opacity:1;fill:none;fill-opacity:1;fill-rule:evenodd;stroke:#000000;stroke-width:0.294238"
           d="m 8.9273254,12.853887 c 0.233874,-2.88e-4 0.6266024,0 0.6266024,0 l -0.033688,1.536539 -0.5322753,0.339318"
           id="path346"
           inkscape:connector-curvature="0" />
        <path
           style="opacity:1;fill:none;fill-opacity:1;fill-rule:evenodd;stroke:#000000;stroke-width:0.294238"
           d="m 9.5404528,14.403229 c 0.024506,0.08749 0.083651,0.164767 0.1617038,0.211274 0.056581,0.03371 0.1215623,0.05125 0.1868452,0.05998 0.065283,0.0087 0.1313532,0.009 0.1972012,0.01045 0.161734,0.0035 0.323345,0.0142 0.485112,0.0128 0.220496,-0.0019 0.440127,-0.02617 0.660291,-0.03841 0.174977,-0.0097 0.350376,-0.01187 0.525538,-0.0064"
           id="path348"
           inkscape:connector-curvature="0"
           inkscape:path-effect="#path-effect350"
           inkscape:original-d="m 9.5404528,14.403229 c 0.054202,0.068 0.1081037,0.140563 0.1617038,0.211274 0.053599,0.07071 0.2563329,0.04667 0.3840464,0.07043 0.127714,0.02376 0.32371,0.0082 0.485112,0.0128 0.161402,0.0046 0.440496,-0.0259 0.660291,-0.03841 0.219795,-0.01252 0.350661,-0.0046 0.525538,-0.0064" />
        <path
           style="opacity:1;fill:none;fill-opacity:1;fill-rule:evenodd;stroke:#000000;stroke-width:0.294238"
           d="m 10.416349,11.784711 -0.03369,1.562149 -0.01011,0.169658 -0.03369,0.144052 -0.05727,0.17286 -0.08085,0.182464 -0.124647,0.211274 -0.1583352,0.115241"
           id="path352"
           inkscape:connector-curvature="0" />
        <path
           style="opacity:1;fill:none;fill-opacity:1;fill-rule:evenodd;stroke:#000000;stroke-width:0.294238"
           d="m 9.8268708,13.351604 1.9009352,0.0046"
           id="path354"
           inkscape:connector-curvature="0" />
        <path
           style="opacity:1;fill:none;fill-opacity:1;fill-rule:evenodd;stroke:#000000;stroke-width:0.32353207"
           d="m 9.9193959,12.360182 1.7040201,0.0046"
           id="path356"
           inkscape:connector-curvature="0" />
        <path
           style="opacity:1;fill:none;fill-opacity:1;fill-rule:evenodd;stroke:#000000;stroke-width:0.29881093"
           d="m 11.258559,11.791557 0.01347,2.589317"
           id="path366"
           inkscape:connector-curvature="0" />
        <path
           style="opacity:1;fill:none;fill-opacity:1;fill-rule:evenodd;stroke:#000000;stroke-width:0.294238"
           d="m 12.195092,14.640113 0.101067,-0.01921 0.09433,-0.07042 0.128015,-0.460963 -0.0046,-2.109617"
           id="path368"
           inkscape:connector-curvature="0" />
        <path
           style="opacity:1;fill:none;fill-opacity:1;fill-rule:evenodd;stroke:#000000;stroke-width:0.33286026"
           d="m 12.372362,12.038753 2.704047,-0.02263"
           id="path370"
           inkscape:connector-curvature="0"
           sodipodi:nodetypes="cc" />
        <path
           style="opacity:1;fill:none;fill-opacity:1;fill-rule:evenodd;stroke:#000000;stroke-width:0.37122869"
           d="m 14.954243,11.859864 -0.02393,1.009677"
           id="path372"
           inkscape:connector-curvature="0" />
        <path
           style="fill:none;stroke:#000000;stroke-width:0.2692309px;stroke-linecap:butt;stroke-linejoin:miter;stroke-opacity:1"
           d="m 14.891324,12.553262 c -0.769579,-0.002 -1.539158,-0.004 -2.308737,-0.006"
           id="path374"
           inkscape:connector-curvature="0"
           inkscape:path-effect="#path-effect376"
           inkscape:original-d="m 14.891324,12.553262 -2.308737,-0.006" />
        <path
           style="opacity:1;fill:none;fill-opacity:1;fill-rule:evenodd;stroke:#000000;stroke-width:0.31306067"
           d="m 12.537795,13.820625 2.623779,-0.03201"
           id="path378"
           inkscape:connector-curvature="0" />
        <path
           style="opacity:1;fill:none;fill-opacity:1;fill-rule:evenodd;stroke:#000000;stroke-width:0.294238"
           d="m 13.029125,14.780412 0.0034,-0.976342"
           id="path388"
           inkscape:connector-curvature="0" />
        <path
           style="opacity:1;fill:none;fill-opacity:1;fill-rule:evenodd;stroke:#000000;stroke-width:0.294238"
           d="m 12.821653,14.734271 0.832101,-0.220878"
           id="path390"
           inkscape:connector-curvature="0" />
        <path
           style="opacity:1;fill:none;fill-opacity:1;fill-rule:evenodd;stroke:#000000;stroke-width:0.33739871"
           d="m 12.863994,13.215645 2.266969,-0.01781"
           id="path392"
           inkscape:connector-curvature="0" />
        <path
           style="opacity:1;fill:none;fill-opacity:1;fill-rule:evenodd;stroke:#000000;stroke-width:0.294238"
           d="M 14.251759,13.831473 V 12.812881"
           id="path396"
           inkscape:connector-curvature="0"
           sodipodi:nodetypes="cc" />
        <path
           style="opacity:1;fill:none;fill-opacity:1;fill-rule:evenodd;stroke:#000000;stroke-width:0.294238"
           d="m 13.738017,13.801419 0.181917,0.243286 c 0,0 0.235817,0.320111 0.256031,0.345721 0.02022,0.02561 0.154966,0.140849 0.154966,0.140849 l 0.141491,0.08963 c 0,0 0.282981,0.08323 0.309932,0.102431 0.02696,0.01921 0.235819,0.03201 0.235819,0.03201"
           id="path398"
           inkscape:connector-curvature="0"
           sodipodi:nodetypes="ccccccc" />
        <path
           style="opacity:1;fill:none;fill-opacity:1;fill-rule:evenodd;stroke:#000000;stroke-width:0.294238"
           d="M 14.344406,14.51847 14.91037,14.159944"
           id="path400"
           inkscape:connector-curvature="0" />
        <path
           style="opacity:1;fill:none;fill-opacity:1;fill-rule:evenodd;stroke:#000000;stroke-width:0.29423803"
           d="M 13.452409,13.841816 V 12.823224"
           id="path396-2"
           inkscape:connector-curvature="0"
           sodipodi:nodetypes="cc" />
      </g>
    </g>
  </g>
</svg>
