<?xml version="1.0" encoding="UTF-8" standalone="no"?>
<!-- Created with Inkscape (http://www.inkscape.org/) -->

<svg
   xmlns:dc="http://purl.org/dc/elements/1.1/"
   xmlns:cc="http://creativecommons.org/ns#"
   xmlns:rdf="http://www.w3.org/1999/02/22-rdf-syntax-ns#"
   xmlns:svg="http://www.w3.org/2000/svg"
   xmlns="http://www.w3.org/2000/svg"
   xmlns:sodipodi="http://sodipodi.sourceforge.net/DTD/sodipodi-0.dtd"
   xmlns:inkscape="http://www.inkscape.org/namespaces/inkscape"
   width="201"
   height="201"
   viewBox="0 0 53.181249 53.181252"
   version="1.1"
   id="svg9832"
   sodipodi:docname="spiekgulx.svg"
   inkscape:version="0.92.3 (2405546, 2018-03-11)">
  <defs
     id="defs9826">
    <inkscape:path-effect
       effect="spiro"
       id="path-effect1133"
       is_visible="true" />
    <inkscape:path-effect
       effect="spiro"
       id="path-effect1129"
       is_visible="true" />
    <inkscape:path-effect
       effect="spiro"
       id="path-effect1125"
       is_visible="true" />
    <inkscape:path-effect
       effect="spiro"
       id="path-effect1121"
       is_visible="true" />
    <inkscape:path-effect
       effect="spiro"
       id="path-effect1105"
       is_visible="true" />
    <inkscape:path-effect
       effect="spiro"
       id="path-effect1101"
       is_visible="true" />
    <inkscape:path-effect
       effect="spiro"
       id="path-effect1079"
       is_visible="true" />
    <inkscape:path-effect
       effect="spiro"
       id="path-effect1029"
       is_visible="true" />
    <inkscape:path-effect
       effect="spiro"
       id="path-effect1025"
       is_visible="true" />
    <inkscape:path-effect
       effect="spiro"
       id="path-effect1021"
       is_visible="true" />
    <inkscape:path-effect
       effect="spiro"
       id="path-effect1017"
       is_visible="true" />
    <inkscape:path-effect
       effect="spiro"
       id="path-effect148"
       is_visible="true" />
    <inkscape:path-effect
       effect="spiro"
       id="path-effect144"
       is_visible="true" />
    <inkscape:path-effect
       effect="spiro"
       id="path-effect140"
       is_visible="true" />
    <inkscape:path-effect
       effect="spiro"
       id="path-effect16515"
       is_visible="true" />
    <inkscape:path-effect
       effect="spiro"
       id="path-effect16511"
       is_visible="true" />
    <inkscape:path-effect
       effect="spiro"
       id="path-effect16507"
       is_visible="true" />
    <inkscape:path-effect
       effect="spiro"
       id="path-effect16503"
       is_visible="true" />
    <inkscape:path-effect
       effect="spiro"
       id="path-effect16499"
       is_visible="true" />
    <inkscape:path-effect
       effect="spiro"
       id="path-effect16495"
       is_visible="true" />
    <inkscape:path-effect
       effect="spiro"
       id="path-effect16491"
       is_visible="true" />
    <inkscape:path-effect
       effect="spiro"
       id="path-effect16487"
       is_visible="true" />
    <inkscape:path-effect
       effect="spiro"
       id="path-effect16483"
       is_visible="true" />
    <inkscape:path-effect
       effect="spiro"
       id="path-effect16479"
       is_visible="true" />
    <inkscape:path-effect
       effect="spiro"
       id="path-effect16475"
       is_visible="true" />
    <inkscape:path-effect
       effect="spiro"
       id="path-effect16471"
       is_visible="true" />
    <inkscape:path-effect
       effect="spiro"
       id="path-effect16467"
       is_visible="true" />
    <inkscape:path-effect
       effect="spiro"
       id="path-effect16463"
       is_visible="true" />
    <inkscape:path-effect
       effect="spiro"
       id="path-effect16459"
       is_visible="true" />
    <inkscape:path-effect
       effect="spiro"
       id="path-effect16451"
       is_visible="true" />
    <inkscape:path-effect
       effect="spiro"
       id="path-effect16447"
       is_visible="true" />
    <inkscape:path-effect
       effect="spiro"
       id="path-effect16443"
       is_visible="true" />
    <inkscape:path-effect
       effect="spiro"
       id="path-effect16439"
       is_visible="true" />
    <inkscape:path-effect
       effect="spiro"
       id="path-effect16429"
       is_visible="true" />
    <inkscape:path-effect
       effect="spiro"
       id="path-effect16392"
       is_visible="true" />
    <inkscape:path-effect
       effect="spiro"
       id="path-effect16378"
       is_visible="true" />
    <inkscape:path-effect
       effect="spiro"
       id="path-effect16342"
       is_visible="true" />
    <inkscape:path-effect
       effect="spiro"
       id="path-effect16338"
       is_visible="true" />
    <inkscape:path-effect
       effect="spiro"
       id="path-effect16342-5"
       is_visible="true" />
    <inkscape:path-effect
       effect="spiro"
       id="path-effect16392-1"
       is_visible="true" />
    <inkscape:path-effect
       effect="spiro"
       id="path-effect1025-1"
       is_visible="true" />
    <inkscape:path-effect
       effect="spiro"
       id="path-effect1021-5"
       is_visible="true" />
    <inkscape:path-effect
       effect="spiro"
       id="path-effect1079-4"
       is_visible="true" />
  </defs>
  <sodipodi:namedview
     id="base"
     pagecolor="#ffffff"
     bordercolor="#666666"
     borderopacity="1.0"
     inkscape:pageopacity="0.0"
     inkscape:pageshadow="2"
     inkscape:zoom="2.8"
     inkscape:cx="76.271421"
     inkscape:cy="68.651671"
     inkscape:document-units="mm"
     inkscape:current-layer="layer1"
     showgrid="false"
     units="px"
     inkscape:window-width="1920"
     inkscape:window-height="1017"
     inkscape:window-x="-8"
     inkscape:window-y="-8"
     inkscape:window-maximized="1"
     objecttolerance="1"
     gridtolerance="1"
     guidetolerance="1"
     showguides="false" />
  <metadata
     id="metadata9829">
    <rdf:RDF>
      <cc:Work
         rdf:about="">
        <dc:format>image/svg+xml</dc:format>
        <dc:type
           rdf:resource="http://purl.org/dc/dcmitype/StillImage" />
        <dc:title></dc:title>
      </cc:Work>
    </rdf:RDF>
  </metadata>
  <g
     inkscape:label="Layer 1"
     inkscape:groupmode="layer"
     id="layer1"
     transform="translate(0,-243.81873)">
    <g
       id="g9862" />
    <g
       id="g1455">
      <path
         sodipodi:nodetypes="ccccccc"
         inkscape:connector-curvature="0"
         id="path1346"
         d="m 16.403667,285.42387 -0.902034,-0.66817 -2.772226,1.29671 -0.325489,2.72764 2.345527,1.15616 2.500904,-0.87841 0.155578,-2.04702"
         style="opacity:1;fill:#4d4d4d;fill-opacity:1;fill-rule:nonzero;stroke:#4d4d4d;stroke-width:0.26458332;stroke-opacity:1" />
      <path
         sodipodi:nodetypes="ccccccc"
         inkscape:connector-curvature="0"
         id="path1346-3"
         d="m 36.845522,285.97415 0.902034,-0.66817 2.843097,1.20221 0.136501,2.51503 -1.75494,1.25066 -2.926127,-0.71305 -0.202825,-1.99977"
         style="opacity:1;fill:#4d4d4d;fill-opacity:1;fill-rule:nonzero;stroke:#4d4d4d;stroke-width:0.26458332;stroke-opacity:1" />
      <g
         transform="translate(-0.04724702,-0.14174107)"
         id="g1344">
        <g
           id="g1257"
           transform="translate(-11.717262,-0.16536458)">
          <ellipse
             transform="scale(-1,1)"
             ry="3.1064918"
             rx="3.2364209"
             cy="293.84622"
             cx="-37.60236"
             id="path1167"
             style="opacity:1;fill:#4d4d4d;fill-opacity:1;fill-rule:nonzero;stroke:#000000;stroke-width:0.26458332;stroke-opacity:1" />
          <path
             inkscape:connector-curvature="0"
             id="path1253"
             d="m 38.718937,292.01542 c 0,0 0.377975,0.73233 0.401597,0.94494 0.02363,0.21261 -0.09449,1.44103 -0.188986,1.63002 -0.0945,0.18899 -0.637836,1.03944 -0.637836,1.03944 l 0.472471,-0.0709 0.755952,-0.63783 c 0,0 0.212611,-1.13393 0.188989,-1.25205 -0.02363,-0.11811 -0.165364,-1.1103 -0.377978,-1.34654 -0.212612,-0.23623 -0.614209,-0.3071 -0.614209,-0.3071 z"
             style="opacity:1;fill:#808080;fill-opacity:1;fill-rule:nonzero;stroke:#808080;stroke-width:0.26458332;stroke-opacity:1" />
        </g>
        <g
           id="g1210"
           transform="matrix(-1,0,0,1,53.40649,0.5669649)">
          <path
             inkscape:connector-curvature="0"
             id="path134"
             d="m 21.220178,271.48977 6.282077,-26.80389"
             style="opacity:1;fill:none;fill-opacity:1;fill-rule:nonzero;stroke:#806600;stroke-width:0.26458332;stroke-opacity:1" />
          <path
             inkscape:connector-curvature="0"
             id="path136"
             d="m 27.407263,244.77988 4.870047,26.48411"
             style="opacity:1;fill:none;fill-opacity:1;fill-rule:nonzero;stroke:#806600;stroke-width:0.26458332;stroke-opacity:1" />
          <path
             inkscape:original-d="m 21.220178,271.48977 c -0.06737,0.94436 -0.135754,1.88893 -0.203762,2.8338 -0.06841,0.94485 1.967353,3.31734 2.950629,4.9764 0.983286,1.65907 3.118697,-0.0155 4.677641,-0.0228 1.558942,-0.007 2.42202,-5.34235 3.63264,-8.01314"
             inkscape:path-effect="#path-effect140"
             inkscape:connector-curvature="0"
             id="path138"
             d="m 21.220178,271.48977 c -0.21789,0.92576 -0.286962,1.88639 -0.203762,2.8338 0.08806,1.00277 0.350055,1.99816 0.840035,2.87749 0.489979,0.87934 1.215338,1.63867 2.110594,2.09891 0.717401,0.36881 1.530873,0.53946 2.337376,0.52409 0.806502,-0.0154 1.605525,-0.21397 2.340265,-0.54689 1.458314,-0.66079 2.66273,-1.86499 3.323782,-3.32318 0.661052,-1.4582 0.77297,-3.15767 0.308858,-4.68996"
             style="opacity:1;fill:none;fill-opacity:1;fill-rule:nonzero;stroke:#806600;stroke-width:0.26458332;stroke-opacity:1" />
          <g
             transform="rotate(-85.617031,25.325357,262.08113)"
             id="g166"
             style="stroke:#ffffff">
            <path
               style="opacity:1;fill:#ffffff;fill-opacity:1;fill-rule:nonzero;stroke:#fff6d5;stroke-width:0.26458332;stroke-opacity:1"
               d="m 9.8620578,262.39077 c 1.6181262,-0.67208 3.3239822,-1.13259 5.0604962,-1.36613 4.56873,-0.61444 9.180306,0.34299 13.738887,1.02867 2.46689,0.37106 4.945634,0.66331 7.431178,0.87615"
               id="path142"
               inkscape:connector-curvature="0"
               inkscape:path-effect="#path-effect144"
               inkscape:original-d="m 9.8620578,262.39077 c 1.6871102,-0.45513 3.3739422,-0.91051 5.0604962,-1.36613 1.686544,-0.45562 9.159546,0.68602 13.738887,1.02867 4.579351,0.34264 4.954407,0.58434 7.431178,0.87615" />
            <path
               style="opacity:1;fill:#ffffff;fill-opacity:1;fill-rule:nonzero;stroke:#ffeeaa;stroke-width:0.26458332;stroke-opacity:1"
               d="m 9.9684297,262.33224 c -0.065845,0.15002 -0.052843,0.33213 0.033648,0.47127 0.05104,0.0821 0.125368,0.1486 0.209644,0.19597 0.08427,0.0474 0.178294,0.0761 0.273903,0.0904 0.191218,0.0286 0.385955,5.6e-4 0.576798,-0.0305 1.631603,-0.26513 3.221995,-0.74773 4.854105,-1.00973 2.686396,-0.43125 5.429208,-0.25724 8.142868,-0.0604 3.959,0.28718 7.914648,0.62058 11.865866,1.0001"
               id="path146"
               inkscape:connector-curvature="0"
               inkscape:path-effect="#path-effect148"
               inkscape:original-d="m 9.9684297,262.33224 c 0.011494,0.15734 0.022711,0.31443 0.033648,0.47127 0.01093,0.15685 0.707182,0.17082 1.060345,0.25587 0.353173,0.085 3.236355,-0.67291 4.854105,-1.00973 1.61776,-0.33682 5.428867,-0.04 8.142868,-0.0604 2.714011,-0.0204 7.910859,0.66698 11.865866,1.0001" />
            <path
               style="opacity:1;fill:#fff6d5;fill-opacity:1;fill-rule:nonzero;stroke:#fff6d5;stroke-width:0.04464286;stroke-opacity:1"
               d="m 67.9784,64.369327 c -3.868852,-0.0097 -7.739468,0.216881 -11.573985,0.737741 -6.238856,0.845435 -12.382895,2.44092 -18.219367,4.806344 -0.338566,0.09726 -0.633494,0.380748 -0.597273,0.756313 -0.02541,0.748532 0.435824,1.446244 1.098633,1.773856 0.970728,0.544831 2.123943,0.334672 3.169888,0.194828 5.862757,-0.968663 11.581965,-2.637568 17.415737,-3.654253 8.109195,-1.419004 16.38331,-1.307583 24.57015,-0.848953 8.170036,0.494468 16.328837,1.176381 24.492587,1.801464 0.37786,0.105257 4.11418,0.236157 3.87584,-0.108243 -0.21581,-0.315128 -4.0156,-0.808671 -4.34624,-0.902565 C 101.18654,67.893968 94.521857,66.770873 87.824893,65.867147 81.246192,64.988782 74.621832,64.346299 67.9784,64.369327 Z"
               id="path156"
               inkscape:connector-curvature="0"
               transform="matrix(0.26458333,0,0,0.26458333,0,243.81873)"
               sodipodi:nodetypes="ccccccccccccc" />
          </g>
          <path
             inkscape:connector-curvature="0"
             id="path186"
             d="m 27.339867,245.62162 c -0.492827,1.77271 -0.865069,3.59128 -1.307255,5.38236 -1.63557,6.97931 -3.28785,13.95542 -4.895955,20.94076 -0.114433,1.0822 -0.125928,2.19194 0.05079,3.2685 0.368334,1.84502 1.588196,3.60728 3.419402,4.22901 1.010491,0.38579 2.147343,0.30278 3.181385,0.0558 2.829377,-0.80168 4.932767,-3.67358 4.737288,-6.62552 -0.06038,-1.4036 -0.481317,-2.75929 -0.690237,-4.1435 -1.450975,-7.68039 -2.799035,-15.38076 -4.300056,-23.0513 -0.02756,-0.0835 -0.128421,-0.0994 -0.195363,-0.0561 z m -0.358881,5.77005 c 0.149484,0.0922 0.01304,0.39063 0.0321,0.53976 -0.786137,4.82845 -1.627994,9.65092 -2.238809,14.50577 -0.263443,2.1996 -0.299297,4.43435 0.07214,6.62428 0.137085,1.2707 0.456408,2.53945 0.379692,3.81958 -0.0014,0.42277 -0.462594,0.59111 -0.823994,0.53128 -0.660122,-2.09077 -1.006557,-4.27054 -0.960212,-6.46275 -0.04041,-4.03485 1.1087,-7.94362 1.973729,-11.85942 0.589149,-2.53404 1.090265,-5.08866 1.540551,-7.64982 0.01214,-0.006 0.0057,-0.0495 0.02479,-0.0487 z"
             style="opacity:1;fill:#ffe680;fill-opacity:1;fill-rule:nonzero;stroke:#ffeeaa;stroke-width:0.06681738;stroke-opacity:1" />
          <path
             inkscape:original-d="m 19.796503,277.91218 c -0.267469,0.29897 -0.5667,0.66119 -0.850447,0.99219 -0.283746,0.33099 -1.543138,2.1101 -2.315104,3.16555 -0.771966,1.05545 -0.251719,1.82662 -0.377976,2.74033 -0.126257,0.9137 1.858647,2.26759 2.787574,3.40178 0.928927,1.1342 7.591286,0.37772 11.386533,0.56697 3.795247,0.18925 4.472982,-2.74059 6.709076,-4.11049 2.236095,-1.3699 -1.039169,-3.43355 -1.559149,-5.14993 -0.519983,-1.71638 -1.574639,-1.41767 -2.362354,-2.12611"
             inkscape:path-effect="#path-effect1017"
             inkscape:connector-curvature="0"
             id="path1015"
             d="m 19.796503,277.91218 c -0.279761,0.3339 -0.563267,0.66465 -0.850447,0.99219 -0.86538,0.98699 -1.779143,1.96731 -2.315104,3.16555 -0.382484,0.85511 -0.557434,1.82093 -0.377976,2.74033 0.145018,0.74296 0.516694,1.43201 1.012585,2.00396 0.49589,0.57194 1.112963,1.03074 1.774989,1.39782 1.697124,0.94101 3.675302,1.28136 5.615827,1.27166 1.940525,-0.01 3.862327,-0.35281 5.770706,-0.70469 1.362167,-0.25117 2.743626,-0.51402 3.983163,-1.13219 0.619768,-0.30908 1.199427,-0.70693 1.67825,-1.2073 0.478823,-0.50037 0.854825,-1.10582 1.047663,-1.771 0.260222,-0.89761 0.176926,-1.87352 -0.129684,-2.75636 -0.30661,-0.88284 -0.826894,-1.6792 -1.429465,-2.39357 -0.68521,-0.81235 -1.482567,-1.52996 -2.362354,-2.12611"
             style="opacity:1;fill:none;fill-opacity:1;fill-rule:nonzero;stroke:#dbdee3;stroke-width:0.26458332;stroke-opacity:1" />
          <path
             sodipodi:nodetypes="cc"
             inkscape:original-d="m 33.37528,277.40579 c -0.233595,0.37837 -0.634498,0.81267 -0.868625,1.2027"
             inkscape:path-effect="#path-effect1021"
             inkscape:connector-curvature="0"
             id="path1019"
             d="m 33.37528,277.40579 -0.868625,1.2027"
             style="opacity:1;fill:none;fill-opacity:1;fill-rule:nonzero;stroke:#dbdee3;stroke-width:0.26458332;stroke-opacity:1" />
          <path
             sodipodi:nodetypes="cc"
             inkscape:original-d="m 19.711127,277.97373 c 0.356624,0.33383 0.660086,0.7236 0.993909,1.03568"
             inkscape:path-effect="#path-effect1025"
             inkscape:connector-curvature="0"
             id="path1023"
             d="m 19.711127,277.97373 0.993909,1.03568"
             style="opacity:1;fill:none;fill-opacity:1;fill-rule:nonzero;stroke:#dbdee3;stroke-width:0.26458332;stroke-opacity:1" />
          <path
             inkscape:original-d="m 20.546345,278.95929 c -0.500866,0.62336 -1.001996,1.24699 -1.503391,1.87088 -0.501395,0.6239 -0.890634,1.53654 -1.336348,2.3052 -0.445714,0.76867 0.467986,2.02653 0.701583,3.04019 0.233596,1.01366 2.294328,1.09109 3.441095,1.63703 1.146767,0.54594 2.205238,0.267 3.30746,0.40091 1.102222,0.13389 2.517053,-0.40117 3.775181,-0.60136 1.258131,-0.20019 2.917957,-0.71299 4.376539,-1.06908 1.458582,-0.3561 1.447975,-1.62615 2.171565,-2.43884 0.723591,-0.81268 -0.422912,-2.22751 -0.634764,-3.34087 -0.211855,-1.11335 -1.581081,-1.44797 -2.372019,-2.17156"
             inkscape:path-effect="#path-effect1029"
             inkscape:connector-curvature="0"
             id="path1027"
             d="m 20.546345,278.95929 c -0.508197,0.6179 -1.009371,1.24158 -1.503391,1.87088 -0.552498,0.70379 -1.108773,1.43988 -1.336348,2.3052 -0.275268,1.04667 -0.009,2.22389 0.701583,3.04019 0.424511,0.48766 0.986774,0.84093 1.582452,1.0923 0.595678,0.25137 1.22716,0.406 1.858643,0.54473 1.087523,0.23892 2.194512,0.43461 3.30746,0.40091 1.275196,-0.0386 2.519373,-0.3765 3.775181,-0.60136 1.484578,-0.26583 3.032037,-0.38574 4.376539,-1.06908 0.499283,-0.25376 0.962757,-0.58376 1.343058,-0.99491 0.380301,-0.41116 0.675911,-0.90505 0.828507,-1.44393 0.15907,-0.56174 0.15999,-1.16282 0.03873,-1.73392 -0.121257,-0.5711 -0.362131,-1.11308 -0.673497,-1.60695 -0.578546,-0.91766 -1.40697,-1.67608 -2.372019,-2.17156"
             style="opacity:1;fill:none;fill-opacity:1;fill-rule:nonzero;stroke:#dbdee3;stroke-width:0.26458332;stroke-opacity:1" />
          <path
             transform="matrix(0.26458333,0,0,0.26458333,0,243.81873)"
             inkscape:connector-curvature="0"
             id="path1035"
             d="m 126.00664,127.53406 c -0.58825,0.26896 -0.82231,0.98954 -1.25142,1.45306 -0.50212,0.78834 -1.22044,1.47132 -1.56806,2.33565 0.22216,0.59123 0.97573,0.71264 1.4216,1.11224 4.91243,3.20353 8.8548,8.25119 9.86923,14.10333 0.10127,1.49011 0.1242,2.99788 -0.0201,4.47368 -0.70068,3.84428 -3.21145,7.15369 -6.42747,9.27393 -3.45094,2.33895 -7.55741,3.42791 -11.59681,4.11865 -4.30737,0.74321 -8.62457,1.43375 -12.90394,2.3305 -3.0716,0.61476 -6.122066,1.15001 -9.246685,1.07427 -2.850592,0.0946 -5.67771,-0.28066 -8.460119,-0.81076 -4.052819,-0.82589 -8.211891,-1.55573 -11.914725,-3.49567 -2.649488,-1.43586 -5.049601,-3.58097 -6.296301,-6.36997 -1.604772,-3.55549 -1.537821,-7.89509 0.354004,-11.37992 1.458643,-2.97721 3.674578,-5.4802 5.683768,-8.09744 1.265705,-1.6246 2.62923,-3.17563 3.853934,-4.83015 0.166749,-0.61018 -0.553298,-0.93716 -0.843157,-1.37416 -0.633117,-0.61823 -1.178877,-1.35472 -1.897147,-1.87169 -0.627251,-0.0897 -0.878562,0.66232 -1.294972,0.99415 -3.279079,3.83406 -6.8755,7.47067 -9.411732,11.86959 -1.721222,2.99209 -2.904164,6.38455 -2.785379,9.8743 -0.0529,3.89756 1.756675,7.60202 4.335368,10.44344 3.122379,3.47384 7.357487,5.75894 11.712845,7.31028 5.377089,1.87938 11.114291,2.55527 16.791636,2.41331 7.942022,-0.13372 15.765162,-1.6877 23.548752,-3.13201 5.61509,-1.08471 11.35829,-2.57319 16.03553,-6.01614 3.73268,-2.69445 6.63412,-6.83859 7.06614,-11.50281 0.46086,-4.37193 -0.91055,-8.75501 -3.1723,-12.46369 -2.70939,-4.39543 -6.37629,-8.16141 -10.48423,-11.26677 -0.3424,-0.20474 -0.67041,-0.58017 -1.09828,-0.5692 z"
             style="opacity:1;fill:#6c5353;fill-opacity:1;fill-rule:nonzero;stroke:#dbdee3;stroke-width:0.08928572;stroke-opacity:1" />
          <path
             sodipodi:nodetypes="cc"
             inkscape:original-d="m 18.827078,279.07161 c 0.178172,0.002 0.400779,0.24203 0.993909,1.03568"
             inkscape:path-effect="#path-effect1025-1"
             inkscape:connector-curvature="0"
             id="path1023-9"
             d="m 18.827078,279.07161 0.993909,1.03568"
             style="opacity:1;fill:none;fill-opacity:1;fill-rule:nonzero;stroke:#dbdee3;stroke-width:0.26458332;stroke-opacity:1" />
          <path
             sodipodi:nodetypes="cc"
             inkscape:original-d="m 34.310429,278.20853 c -0.233595,0.37837 -0.634498,0.81267 -0.868625,1.2027"
             inkscape:path-effect="#path-effect1021-5"
             inkscape:connector-curvature="0"
             id="path1019-7"
             d="m 34.310429,278.20853 -0.868625,1.2027"
             style="opacity:1;fill:none;fill-opacity:1;fill-rule:nonzero;stroke:#dbdee3;stroke-width:0.26458332;stroke-opacity:1" />
          <path
             transform="matrix(0.26458333,0,0,0.26458333,0,243.81873)"
             inkscape:connector-curvature="0"
             id="path1073"
             d="m 74.589225,129.19736 c -0.761061,0.21214 -1.169802,1.01343 -1.721607,1.5242 -0.566886,0.72381 -1.332077,1.32783 -1.751294,2.14296 0.248916,0.69485 0.977001,1.10388 1.422414,1.68118 0.695798,0.64225 1.255694,1.48436 2.091293,1.95041 0.650962,0.12561 0.885336,-0.7112 1.28906,-1.0619 0.629855,-0.85773 1.411378,-1.62492 1.925923,-2.55713 0.185553,-0.7952 -0.66784,-1.30317 -1.083715,-1.85153 -0.633324,-0.61248 -1.199173,-1.33275 -1.952871,-1.79942 -0.06965,-0.0282 -0.145263,-0.0325 -0.219203,-0.0288 z"
             style="opacity:1;fill:#800000;fill-opacity:1;fill-rule:nonzero;stroke:#dbdee3;stroke-width:0.08928572;stroke-opacity:1" />
          <path
             transform="matrix(0.26458333,0,0,0.26458333,0,243.81873)"
             inkscape:connector-curvature="0"
             id="path1075"
             d="m 126.11284,127.19017 c -0.9186,0.12102 -1.23263,1.18657 -1.79426,1.78083 -0.47727,0.74848 -1.21651,1.39701 -1.42945,2.28062 0.024,0.83097 1.01319,1.0867 1.54231,1.51275 0.62994,0.37814 1.17402,0.87805 1.81585,1.23052 0.63443,0.0781 0.81758,-0.7044 1.1912,-1.06664 0.67361,-0.98515 1.4677,-1.9122 2.03525,-2.95702 0.0588,-0.62061 -0.70006,-0.9028 -1.05447,-1.29982 -0.71068,-0.50512 -1.3464,-1.20409 -2.18872,-1.47601 -0.039,-0.005 -0.0784,-0.006 -0.11771,-0.005 z"
             style="opacity:1;fill:#0000ff;fill-opacity:1;fill-rule:nonzero;stroke:#dbdee3;stroke-width:0.08928572;stroke-opacity:1" />
          <path
             inkscape:original-d="m 16.407721,285.23404 c -0.57882,0.0554 -1.180176,0.11109 -1.770661,0.16704 -0.590485,0.0559 -1.224721,1.55881 -1.837478,2.33861 -0.612757,0.7798 1.915696,1.06881 2.873148,1.60362 0.957451,0.5348 0.86889,-0.46799 1.302938,-0.70159 0.434049,-0.23359 0.22299,-1.26979 0.334087,-1.90429"
             inkscape:path-effect="#path-effect1079"
             inkscape:connector-curvature="0"
             id="path1077"
             d="m 16.407721,285.23404 c -0.592898,-0.0754 -1.20233,-0.0179 -1.770661,0.16704 -0.511597,0.16652 -0.997325,0.44233 -1.348733,0.84973 -0.351409,0.40739 -0.556912,0.9552 -0.488745,1.48888 0.0391,0.30612 0.166104,0.59908 0.35406,0.84385 0.187956,0.24477 0.435731,0.44167 0.711756,0.57969 0.552051,0.27603 1.204232,0.31134 1.807332,0.18008 0.489994,-0.10664 0.968176,-0.32823 1.302938,-0.70159 0.226661,-0.2528 0.380757,-0.56993 0.439429,-0.90436 0.05867,-0.33442 0.02173,-0.68507 -0.105342,-0.99993"
             style="opacity:1;fill:none;fill-opacity:1;fill-rule:nonzero;stroke:#000000;stroke-width:0.26458332;stroke-opacity:1" />
          <path
             inkscape:original-d="m 37.093262,284.86858 c 0.57882,0.0554 1.180176,0.11109 1.770661,0.16704 0.590485,0.0559 1.224721,1.55881 1.837478,2.33861 0.612757,0.7798 -1.915696,1.06881 -2.873147,1.60362 -0.957452,0.5348 -0.868891,-0.46799 -1.302939,-0.70159 -0.434049,-0.23359 -0.22299,-1.26979 -0.334087,-1.90429"
             inkscape:path-effect="#path-effect1079-4"
             inkscape:connector-curvature="0"
             id="path1077-2"
             d="m 37.093262,284.86858 c 0.592898,-0.0754 1.20233,-0.0179 1.770661,0.16704 0.511597,0.16652 0.997325,0.44233 1.348733,0.84973 0.351409,0.40739 0.556912,0.9552 0.488745,1.48888 -0.0391,0.30612 -0.166104,0.59908 -0.35406,0.84385 -0.187956,0.24476 -0.43573,0.44167 -0.711756,0.57968 -0.552051,0.27604 -1.204231,0.31135 -1.807331,0.18009 -0.489994,-0.10664 -0.968177,-0.32823 -1.302939,-0.70159 -0.226661,-0.2528 -0.380758,-0.56993 -0.439429,-0.90436 -0.05867,-0.33442 -0.02173,-0.68507 0.105342,-0.99993"
             style="opacity:1;fill:none;fill-opacity:1;fill-rule:nonzero;stroke:#000000;stroke-width:0.26458332;stroke-opacity:1" />
          <path
             inkscape:original-d="m 36.167597,286.41665 c 0.197127,-0.25225 0.393988,-0.50424 0.590587,-0.75596 0.196598,-0.25171 0.223649,-0.52834 0.335079,-0.79211"
             inkscape:path-effect="#path-effect1101"
             inkscape:connector-curvature="0"
             id="path1099"
             d="m 36.167597,286.41665 c 0.230553,-0.22306 0.429944,-0.47828 0.590587,-0.75596 0.143934,-0.24879 0.256778,-0.51555 0.335079,-0.79211"
             style="opacity:1;fill:none;fill-opacity:1;fill-rule:nonzero;stroke:#000000;stroke-width:0.26458332;stroke-opacity:1" />
          <path
             inkscape:original-d="m 17.309755,286.73743 c -0.27325,-0.31587 -0.531015,-0.66297 -0.79692,-0.99406 -0.265904,-0.33109 -0.109978,-0.33099 -0.165365,-0.49609"
             inkscape:path-effect="#path-effect1105"
             inkscape:connector-curvature="0"
             id="path1103"
             d="m 17.309755,286.73743 c -0.34339,-0.25748 -0.620292,-0.60289 -0.79692,-0.99406 -0.07186,-0.15914 -0.127365,-0.32566 -0.165365,-0.49609"
             style="opacity:1;fill:none;fill-opacity:1;fill-rule:nonzero;stroke:#000000;stroke-width:0.26458332;stroke-opacity:1" />
          <path
             transform="matrix(0.26458333,0,0,0.26458333,0,243.81873)"
             inkscape:connector-curvature="0"
             id="path1107"
             d="m 59.48971,156.63806 c -2.752212,-0.0629 -5.471528,0.88777 -7.703399,2.46718 -1.850174,1.49377 -3.408762,3.65233 -3.318509,6.13194 -0.03896,3.16849 2.562781,5.80575 5.491964,6.6168 1.921008,0.57089 4.001267,0.35504 5.924535,-0.0932 2.844661,-0.75382 5.542253,-3.0251 5.837479,-6.09742 0.09986,-1.19563 0.15068,-2.56499 -0.800774,-3.45883 -1.350601,-1.5675 -2.654602,-3.24578 -3.198405,-5.28284 -0.46229,-0.60756 -1.55954,-0.15613 -2.232891,-0.28361 z"
             style="opacity:1;fill:#ececec;fill-opacity:1;fill-rule:nonzero;stroke:#000000;stroke-width:0.12626907;stroke-opacity:1" />
          <path
             transform="matrix(0.26458333,0,0,0.26458333,0,243.81873)"
             inkscape:connector-curvature="0"
             id="path1109"
             d="m 140.30438,155.29152 c -0.60581,2.03503 -1.81978,3.8456 -3.16339,5.48013 -0.9885,1.29054 -0.80368,3.07995 -0.45377,4.56837 0.87753,3.0892 4.01057,4.9237 7.0316,5.36151 3.01298,0.43356 6.41387,-0.27395 8.43784,-2.70443 1.59487,-1.8421 2.11184,-4.59199 1.01753,-6.81455 -1.47103,-3.47676 -5.23514,-5.33934 -8.8037,-5.84593 -1.31595,-0.15551 -2.69407,-0.28096 -3.99171,-0.0747 z"
             style="opacity:1;fill:#ececec;fill-opacity:1;fill-rule:nonzero;stroke:#000000;stroke-width:0.12626907;stroke-opacity:1" />
          <ellipse
             ry="0.57877606"
             rx="0.11811756"
             cy="287.42065"
             cx="14.953683"
             id="path1111"
             style="opacity:1;fill:#000000;fill-opacity:1;fill-rule:nonzero;stroke:#000000;stroke-width:0.26458332;stroke-opacity:1" />
          <ellipse
             ry="0.47247022"
             rx="0.16536458"
             cy="286.98361"
             cx="38.435452"
             id="path1113"
             style="opacity:1;fill:#000000;fill-opacity:1;fill-rule:nonzero;stroke:#000000;stroke-width:0.26458332;stroke-opacity:1" />
          <path
             sodipodi:nodetypes="cccccc"
             inkscape:original-d="m 25.407309,288.19679 c 0.256398,-0.45685 -0.03871,-0.96355 0.217157,-1.41987 0.255868,-0.45632 0.100491,-1.1111 0.233861,-1.67878 0.13337,-0.56769 0.02253,-1.25866 0.06682,-1.87089 0.04428,-0.61223 0.04481,-0.7798 0.06682,-1.1693 0.02201,-0.38951 -0.13337,-0.60163 -0.200452,-0.90204"
             inkscape:path-effect="#path-effect1121"
             inkscape:connector-curvature="0"
             id="path1119"
             d="m 25.407309,288.19679 c 0.06667,-0.47414 0.13906,-0.94748 0.217157,-1.41987 0.09219,-0.55764 0.192469,-1.11509 0.233861,-1.67878 0.04571,-0.62245 0.01929,-1.24858 0.06682,-1.87089 0.02976,-0.38964 0.08851,-0.77913 0.06682,-1.1693 -0.01717,-0.30891 -0.08518,-0.61493 -0.200452,-0.90204"
             style="opacity:1;fill:none;fill-opacity:1;fill-rule:nonzero;stroke:#e6e6e6;stroke-width:0.26458332;stroke-opacity:1" />
          <path
             sodipodi:nodetypes="cccsc"
             inkscape:original-d="m 27.628987,287.71236 c -0.133371,-0.63503 -0.133369,-1.26979 -0.267269,-1.90429 -0.133901,-0.6345 -0.127801,-1.0081 -0.217156,-1.5201 -0.08935,-0.512 -0.138938,-1.66513 -0.116928,-2.48895 0.02201,-0.82381 2.64e-4,-0.51253 0,-0.76839"
             inkscape:path-effect="#path-effect1125"
             inkscape:connector-curvature="0"
             id="path1123"
             d="m 27.628987,287.71236 c -0.08079,-0.63589 -0.169894,-1.27073 -0.267269,-1.90429 -0.07776,-0.50595 -0.160831,-1.01132 -0.217156,-1.5201 -0.09143,-0.82591 -0.112082,-1.65801 -0.116928,-2.48895 -0.0015,-0.25613 -0.0015,-0.51226 0,-0.76839"
             style="opacity:1;fill:none;fill-opacity:1;fill-rule:nonzero;stroke:#e6e6e6;stroke-width:0.26458332;stroke-opacity:1" />
          <path
             sodipodi:nodetypes="cc"
             inkscape:original-d="m 25.791509,281.24779 c 0.345488,-0.0392 0.866106,-0.13667 1.211064,-0.1754"
             inkscape:path-effect="#path-effect1129"
             inkscape:connector-curvature="0"
             id="path1127"
             d="m 25.791509,281.24779 1.211064,-0.1754"
             style="opacity:1;fill:none;fill-opacity:1;fill-rule:nonzero;stroke:#e6e6e6;stroke-width:0.26458332;stroke-opacity:1" />
          <path
             sodipodi:nodetypes="cc"
             inkscape:original-d="m 26.000313,282.19158 c 0.267534,-0.0225 0.729689,-0.0504 1.00226,-0.0752"
             inkscape:path-effect="#path-effect1133"
             inkscape:connector-curvature="0"
             id="path1131"
             d="m 26.000313,282.19158 1.00226,-0.0752"
             style="opacity:1;fill:#ffcc00;fill-opacity:1;fill-rule:nonzero;stroke:#e6e6e6;stroke-width:0.26458332;stroke-opacity:1" />
          <path
             sodipodi:nodetypes="cccccccccc"
             transform="matrix(0.26458333,0,0,0.26458333,0,243.81873)"
             inkscape:connector-curvature="0"
             id="path1135"
             d="m 101.5646,140.92349 c -0.86587,0.0842 -2.46037,0.29785 -3.319469,0.43194 -0.284581,0.0917 -0.382645,0.4287 -0.275067,0.68931 0.257864,0.85271 0.403983,1.73619 0.492163,2.62032 0.04416,0.31835 0.403586,0.43562 0.680943,0.35292 0.616903,-0.0697 1.96605,-0.22087 2.57896,-0.31992 0.28219,-0.0796 0.36308,-0.38817 0.35008,-0.64824 0.0359,-0.91168 0.0691,-1.82815 0.0378,-2.73838 -0.0228,-0.26427 -0.29697,-0.42183 -0.54545,-0.38795 z"
             style="opacity:1;fill:#ffcc00;fill-opacity:1;fill-rule:nonzero;stroke:#e6e6e6;stroke-width:0.03156727;stroke-opacity:1" />
          <path
             sodipodi:nodetypes="cccccccccc"
             transform="matrix(0.26458333,0,0,0.26458333,0,243.81873)"
             inkscape:connector-curvature="0"
             id="path1139"
             d="m 101.08334,144.93778 c -0.89195,0.0837 -1.861923,-0.0392 -2.684155,0.31912 -0.632794,5.3362 -0.287546,10.78871 -1.296465,16.10391 -0.234715,1.89486 -0.458681,5.70928 -0.519592,7.61505 0.509416,0.92421 1.794518,0.25886 2.623848,0.28353 1.698664,-0.33969 3.524774,-0.34918 5.132854,-1.00131 0.60436,-0.68608 -0.33726,-3.64644 -0.27916,-4.46079 -0.79364,-5.66874 -1.83718,-11.30299 -1.94501,-17.02393 -0.10385,-0.72868 0.16494,-2.07081 -1.03236,-1.83558 z"
             style="opacity:1;fill:#6c5353;fill-opacity:1;fill-rule:nonzero;stroke:#6c5353;stroke-width:0.17857143;stroke-opacity:1" />
          <path
             inkscape:connector-curvature="0"
             id="path1143"
             d="m 19.950056,277.79406 0.330729,0.0354 -0.02363,-0.41341 0.295294,0.0945 0.07087,-0.44884 0.236235,0.0827 0.129929,-0.46066"
             style="opacity:1;fill:none;fill-opacity:0;fill-rule:nonzero;stroke:#00ffff;stroke-width:0.26458332;stroke-opacity:1" />
          <path
             inkscape:connector-curvature="0"
             id="path1145"
             d="m 20.706008,278.44371 0.295294,-0.33073 0.177176,0.0945 0.153553,-0.17717 0.05906,-0.34254 0.165364,-0.0827"
             style="opacity:1;fill:none;fill-opacity:0;fill-rule:nonzero;stroke:#00ffff;stroke-width:0.26458332;stroke-opacity:1" />
          <path
             inkscape:connector-curvature="0"
             id="path1147"
             d="m 26.092169,280.82969 c 0,0 0.08268,-0.12993 -0.03544,-0.34254 -0.118117,-0.21262 -0.129929,-0.16537 -0.118117,-0.21262 0.01181,-0.0472 0.118117,-0.2008 0.118117,-0.2008"
             style="opacity:1;fill:none;fill-opacity:0;fill-rule:nonzero;stroke:#00ffff;stroke-width:0.26458332;stroke-opacity:1" />
          <path
             inkscape:connector-curvature="0"
             id="path1149"
             d="m 26.741816,280.78244 c 0.03543,-0.0473 0.2008,-0.12993 0.118117,-0.16537 -0.08268,-0.0354 -0.129928,-0.0472 -0.129928,-0.0472 l 0.15355,-0.21262 -0.295293,-0.25985"
             style="opacity:1;fill:none;fill-opacity:0;fill-rule:nonzero;stroke:#00ffff;stroke-width:0.26458332;stroke-opacity:1" />
          <path
             inkscape:connector-curvature="0"
             id="path1151"
             d="m 32.328776,278.20157 c 0,0 0.11221,-0.15946 -0.141742,-0.15355 -0.253953,0.006 -0.383882,0.2008 -0.377976,0.13583 0.0059,-0.065 0.02363,-0.26576 -0.106304,-0.34254 -0.129932,-0.0768 -0.194895,-0.16536 -0.194895,-0.16536 0,0 -0.230331,0.0827 -0.301199,0.0768"
             style="opacity:1;fill:none;fill-opacity:0;fill-rule:nonzero;stroke:#00ffff;stroke-width:0.26458332;stroke-opacity:1" />
          <path
             inkscape:connector-curvature="0"
             id="path1153"
             d="m 32.789434,277.67004 -0.106305,-0.33073 -0.112212,0.25396 -0.17127,-0.34845 -0.112213,0.0591 -0.194894,-0.33664 -0.31301,0.12993"
             style="opacity:1;fill:none;fill-opacity:0;fill-rule:nonzero;stroke:#00ffff;stroke-width:0.26458332;stroke-opacity:1" />
          <path
             sodipodi:nodetypes="cccccsccccccccccccccc"
             inkscape:connector-curvature="0"
             id="path1155"
             d="m 23.032924,290.62163 c 0,0 -1.015811,1.6064 -1.063058,1.86626 -0.04725,0.25986 -0.188988,0.61421 -0.188988,0.61421 l 1.228422,-0.0709 c 0,0 1.866258,-0.99219 2.22061,-1.08668 0.354353,-0.0945 1.724517,-0.4016 1.866257,-0.4016 0.141742,0 2.055246,0.0945 2.055246,0.0945 0,0 1.393788,0.4961 1.653646,0.68508 0.259858,0.18899 0.54334,0.35436 0.732329,0.51972 0.188987,0.16536 0.496094,0.33073 0.496094,0.33073 l 1.063059,-0.4016 -0.02363,-0.44885 -0.448847,-0.75595 c 0,0 -0.637834,-1.03943 -0.826823,-1.22842 -0.188987,-0.18899 -0.755952,-0.75595 -0.755952,-0.75595 l -0.320105,-0.38168 -0.537261,-0.29817 -1.767708,0.30576 -1.700892,0.17212 -2.584543,0.16135 z"
             style="opacity:1;fill:none;fill-opacity:0;fill-rule:nonzero;stroke:#1a1a1a;stroke-width:0.26458332;stroke-opacity:1" />
          <path
             transform="matrix(0.26458333,0,0,0.26458333,0,243.81873)"
             inkscape:connector-curvature="0"
             id="path1159"
             d="m 113.91109,170.49757 c -2.23995,0.37643 -4.4743,0.79389 -6.71779,1.14447 -3.40645,0.35107 -6.80166,0.70387 -10.223332,0.88091 -1.865788,0.12378 -3.737457,0.21728 -5.599576,0.36002 -0.389066,0.12143 -0.603034,0.52517 -0.913956,0.77057 -1.093761,1.10405 -2.2551,2.14334 -3.294786,3.30024 -0.667165,0.85074 -1.157419,1.82032 -1.740307,2.72841 -0.797317,1.36322 -1.669908,2.6978 -2.26325,4.16699 -0.167681,0.59046 -0.327754,1.18689 -0.508875,1.7718 -0.0915,0.38081 0.338295,0.6329 0.671751,0.51719 1.202322,-0.0913 2.413926,-0.11439 3.611661,-0.2266 0.912083,-0.42938 1.794283,-0.93683 2.700634,-1.38524 1.735503,-0.87178 3.456583,-1.80737 5.251624,-2.52978 1.349785,-0.46064 2.74504,-0.69831 4.133646,-1.02821 1.086446,-0.2279 2.162566,-0.49252 3.259396,-0.65109 2.65029,0.069 5.29839,0.2256 7.95239,0.34982 1.9589,0.73923 3.93261,1.4288 5.81816,2.34627 0.9546,0.5839 1.86378,1.24137 2.77518,1.89021 0.69531,0.53179 1.37539,1.115 2.17953,1.47487 0.44526,0.0217 0.84425,-0.25439 1.26559,-0.37114 0.83441,-0.32569 1.69489,-0.60388 2.51017,-0.96623 0.37504,-0.24622 0.15234,-0.75291 0.18051,-1.12237 0.0238,-0.38306 -0.0793,-0.74753 -0.31448,-1.05258 -1.30362,-2.18568 -2.59506,-4.38566 -4.08088,-6.45423 -1.42911,-1.63528 -3.07456,-3.05432 -4.43037,-4.75184 -0.60919,-0.41851 -1.28934,-0.73362 -1.92627,-1.11172 -0.0986,-0.0159 -0.19496,-0.0735 -0.29637,-0.0507 z"
             style="opacity:1;fill:none;fill-opacity:0;fill-rule:nonzero;stroke:#333333;stroke-width:0.04464286;stroke-opacity:1" />
          <path
             transform="matrix(0.26458333,0,0,0.26458333,0,243.81873)"
             inkscape:connector-curvature="0"
             id="path1165"
             d="m 110.52389,171.11571 c -6.16814,1.11226 -12.467559,1.29119 -18.730738,1.80033 -1.201495,0.44324 -2.006538,1.57077 -2.966778,2.37664 -2.137023,1.8649 -3.377512,4.46951 -4.787672,6.87503 -0.572004,1.11153 -1.18581,2.2973 -1.247647,3.56242 0.435658,0.65734 1.374962,0.19625 2.031627,0.29162 1.056125,-0.0413 2.150324,0.0174 3.043437,-0.65087 2.47323,-1.18797 4.86802,-2.57668 7.435531,-3.54963 2.346031,-0.56075 4.668542,-1.22976 7.069,-1.49159 2.66811,0.008 5.37461,0.15567 8.04358,0.34677 2.72023,1.07436 5.54734,1.95241 7.86736,3.79821 0.90543,0.59939 1.72072,1.35328 2.68292,1.85674 1.24276,-0.19447 2.39607,-0.86174 3.60089,-1.23605 0.58245,-0.59391 0.35965,-1.65962 -0.0471,-2.3308 -1.80155,-3.10226 -3.63748,-6.25024 -6.2755,-8.73153 -0.84609,-0.78635 -1.53674,-1.74638 -2.39736,-2.50001 -0.84231,-0.45069 -1.68387,-1.2791 -2.70214,-0.86693 -0.87314,0.14989 -1.74628,0.29977 -2.61941,0.44965 z m 5.79037,0.89893 c 0.0308,0.10345 -0.0339,-0.0851 0,0 z"
             style="opacity:1;fill:#666666;fill-opacity:1;fill-rule:nonzero;stroke:#333333;stroke-width:0.12626907;stroke-opacity:1" />
        </g>
      </g>
    </g>
  </g>
</svg>
