<?xml version="1.0" encoding="UTF-8" standalone="no"?>
<!-- Created with Inkscape (http://www.inkscape.org/) -->

<svg
   xmlns:dc="http://purl.org/dc/elements/1.1/"
   xmlns:cc="http://creativecommons.org/ns#"
   xmlns:rdf="http://www.w3.org/1999/02/22-rdf-syntax-ns#"
   xmlns:svg="http://www.w3.org/2000/svg"
   xmlns="http://www.w3.org/2000/svg"
   xmlns:sodipodi="http://sodipodi.sourceforge.net/DTD/sodipodi-0.dtd"
   xmlns:inkscape="http://www.inkscape.org/namespaces/inkscape"
   width="202"
   height="202"
   viewBox="0 0 53.445832 53.445835"
   version="1.1"
   id="svg15695"
   inkscape:version="0.92.3 (2405546, 2018-03-11)"
   sodipodi:docname="thisslime.svg">
  <defs
     id="defs15689">
    <inkscape:path-effect
       effect="spiro"
       id="path-effect1898"
       is_visible="true" />
    <inkscape:path-effect
       effect="spiro"
       id="path-effect1825"
       is_visible="true" />
    <inkscape:path-effect
       effect="spiro"
       id="path-effect1821"
       is_visible="true" />
    <inkscape:path-effect
       effect="spiro"
       id="path-effect1817"
       is_visible="true" />
    <inkscape:path-effect
       effect="spiro"
       id="path-effect1813"
       is_visible="true" />
    <inkscape:path-effect
       effect="spiro"
       id="path-effect1803"
       is_visible="true" />
    <inkscape:path-effect
       effect="spiro"
       id="path-effect1799"
       is_visible="true" />
    <inkscape:path-effect
       effect="spiro"
       id="path-effect1789"
       is_visible="true" />
    <inkscape:path-effect
       effect="spiro"
       id="path-effect1707"
       is_visible="true" />
    <inkscape:path-effect
       effect="spiro"
       id="path-effect1703"
       is_visible="true" />
    <inkscape:path-effect
       effect="spiro"
       id="path-effect1558"
       is_visible="true" />
    <inkscape:path-effect
       effect="spiro"
       id="path-effect1554"
       is_visible="true" />
    <inkscape:path-effect
       effect="spiro"
       id="path-effect1550"
       is_visible="true" />
    <inkscape:path-effect
       effect="spiro"
       id="path-effect1520"
       is_visible="true" />
    <inkscape:path-effect
       effect="spiro"
       id="path-effect1516"
       is_visible="true" />
    <inkscape:path-effect
       effect="spiro"
       id="path-effect1512"
       is_visible="true" />
    <inkscape:path-effect
       effect="spiro"
       id="path-effect1508"
       is_visible="true" />
    <inkscape:path-effect
       effect="spiro"
       id="path-effect1504"
       is_visible="true" />
    <inkscape:path-effect
       effect="spiro"
       id="path-effect931"
       is_visible="true" />
    <inkscape:path-effect
       effect="spiro"
       id="path-effect909"
       is_visible="true" />
    <inkscape:path-effect
       effect="spiro"
       id="path-effect15879"
       is_visible="true" />
    <inkscape:path-effect
       effect="spiro"
       id="path-effect15875"
       is_visible="true" />
    <inkscape:path-effect
       effect="spiro"
       id="path-effect15740"
       is_visible="true" />
    <inkscape:path-effect
       effect="spiro"
       id="path-effect15736"
       is_visible="true" />
    <inkscape:path-effect
       effect="spiro"
       id="path-effect15732"
       is_visible="true" />
    <inkscape:path-effect
       effect="spiro"
       id="path-effect15726"
       is_visible="true" />
    <inkscape:path-effect
       effect="spiro"
       id="path-effect15707"
       is_visible="true" />
    <inkscape:path-effect
       effect="spiro"
       id="path-effect15703"
       is_visible="true" />
    <inkscape:path-effect
       effect="spiro"
       id="path-effect15699"
       is_visible="true" />
    <inkscape:path-effect
       effect="spiro"
       id="path-effect15740-2"
       is_visible="true" />
    <inkscape:path-effect
       effect="spiro"
       id="path-effect15740-3"
       is_visible="true" />
    <inkscape:path-effect
       effect="spiro"
       id="path-effect15740-2-1"
       is_visible="true" />
    <inkscape:path-effect
       effect="spiro"
       id="path-effect909-5"
       is_visible="true" />
    <inkscape:path-effect
       effect="spiro"
       id="path-effect1520-9"
       is_visible="true" />
    <inkscape:path-effect
       effect="spiro"
       id="path-effect1520-3"
       is_visible="true" />
    <inkscape:path-effect
       effect="spiro"
       id="path-effect1558-9"
       is_visible="true" />
    <inkscape:path-effect
       effect="spiro"
       id="path-effect1554-6"
       is_visible="true" />
    <inkscape:path-effect
       effect="spiro"
       id="path-effect1550-5"
       is_visible="true" />
    <inkscape:path-effect
       effect="spiro"
       id="path-effect1520-3-3"
       is_visible="true" />
    <inkscape:path-effect
       effect="spiro"
       id="path-effect1520-9-6"
       is_visible="true" />
    <inkscape:path-effect
       effect="spiro"
       id="path-effect1520-8"
       is_visible="true" />
    <inkscape:path-effect
       effect="spiro"
       id="path-effect1516-1"
       is_visible="true" />
    <inkscape:path-effect
       effect="spiro"
       id="path-effect1512-7"
       is_visible="true" />
    <inkscape:path-effect
       effect="spiro"
       id="path-effect1508-2"
       is_visible="true" />
    <inkscape:path-effect
       effect="spiro"
       id="path-effect1898-7"
       is_visible="true" />
  </defs>
  <sodipodi:namedview
     id="base"
     pagecolor="#ffffff"
     bordercolor="#666666"
     borderopacity="1.0"
     inkscape:pageopacity="0.0"
     inkscape:pageshadow="2"
     inkscape:zoom="3.959798"
     inkscape:cx="67.101828"
     inkscape:cy="72.124031"
     inkscape:document-units="mm"
     inkscape:current-layer="layer6"
     showgrid="false"
     units="px"
     gridtolerance="1"
     objecttolerance="1"
     inkscape:window-width="1920"
     inkscape:window-height="1017"
     inkscape:window-x="-8"
     inkscape:window-y="-8"
     inkscape:window-maximized="1" />
  <metadata
     id="metadata15692">
    <rdf:RDF>
      <cc:Work
         rdf:about="">
        <dc:format>image/svg+xml</dc:format>
        <dc:type
           rdf:resource="http://purl.org/dc/dcmitype/StillImage" />
        <dc:title></dc:title>
      </cc:Work>
    </rdf:RDF>
  </metadata>
  <g
     inkscape:label="Layer 1"
     inkscape:groupmode="layer"
     id="layer1"
     transform="translate(0,-243.55415)" />
  <g
     inkscape:groupmode="layer"
     id="layer6"
     inkscape:label="Layer 2">
    <ellipse
       style="opacity:1;fill:#ff0000;fill-opacity:1;fill-rule:nonzero;stroke:#000000;stroke-width:0.20763779"
       id="path1641"
       cx="26.718971"
       cy="20.591789"
       rx="10.28525"
       ry="10.281077" />
    <g
       id="g1890"
       transform="translate(1.3229167,0.85044643)">
      <g
         transform="translate(1.984375,-1.4174107)"
         id="g1750">
        <g
           id="g1655"
           transform="rotate(26.469841,8.83269,9.468911)"
           inkscape:transform-center-x="8.1477394"
           inkscape:transform-center-y="8.3987889">
          <path
             inkscape:original-d="m 18.458625,12.820865 c -1.84835,0.935179 -3.696964,1.870622 -5.545843,2.80633 -1.848879,0.935708 -4.0533234,4.632407 -6.0803817,6.949008 -2.0270586,2.3166 -0.3560948,3.474239 -0.534539,5.211756"
             inkscape:path-effect="#path-effect1508"
             inkscape:connector-curvature="0"
             id="path1506"
             d="m 18.458625,12.820865 c -1.948881,0.716673 -3.814113,1.660526 -5.545843,2.80633 -2.61014,1.727007 -4.983826,4.017634 -6.0803817,6.949008 -0.6185858,1.653638 -0.8045694,3.466978 -0.534539,5.211756"
             style="opacity:1;fill:none;fill-opacity:1;fill-rule:nonzero;stroke:#000000;stroke-width:0.26458332" />
          <path
             inkscape:original-d="m 13.580956,30.193384 c 0.289807,-1.225251 0.579349,-2.450234 0.868626,-3.674956 0.289278,-1.224721 2.717505,-4.632936 4.075861,-6.949008 1.358355,-2.316071 0.178444,-1.826606 0.267269,-2.739512 0.08882,-0.912906 0.222989,-0.08936 0.334087,-0.133635"
             inkscape:path-effect="#path-effect1512"
             inkscape:connector-curvature="0"
             id="path1510"
             d="m 13.580956,30.193384 c -0.0822,-1.274725 0.224417,-2.571926 0.868626,-3.674956 0.696007,-1.191718 1.749958,-2.12538 2.626566,-3.191296 0.438303,-0.532957 0.836295,-1.105842 1.109649,-1.739428 0.273354,-0.633587 0.418233,-1.332734 0.339646,-2.018284 -0.05564,-0.485385 -0.221077,-0.955057 -0.252098,-1.442635 -0.01551,-0.243789 0.0037,-0.492572 0.08523,-0.722832 0.08157,-0.23026 0.228989,-0.44143 0.434139,-0.574045 0.101358,-0.06552 0.215503,-0.111179 0.334087,-0.133635"
             style="opacity:1;fill:none;fill-opacity:1;fill-rule:nonzero;stroke:#000000;stroke-width:0.26458332" />
          <path
             inkscape:original-d="m 6.2978613,27.721142 c -0.088825,0.667908 -0.1333704,1.336082 -0.2004523,2.00452 -0.067082,0.668438 0.8466182,0.667909 1.2695303,1.00226 0.4229121,0.334351 3.2520437,0.801545 4.8776687,1.202714 1.625625,0.401169 0.891163,-1.158433 1.336348,-1.737252"
             inkscape:path-effect="#path-effect1516"
             inkscape:connector-curvature="0"
             id="path1514"
             d="m 6.2978613,27.721142 c -0.2538645,0.259074 -0.4161764,0.606135 -0.4522685,0.967056 -0.036092,0.360921 0.054281,0.73325 0.2518162,1.037464 0.1483013,0.228391 0.3526107,0.415965 0.5737031,0.574942 0.2210924,0.158978 0.4599555,0.291229 0.6958272,0.427318 0.7573381,0.436956 1.4970758,0.920742 2.3218785,1.210901 0.4124012,0.145079 0.8448852,0.24025 1.2819622,0.249528 0.437078,0.0093 0.879323,-0.06933 1.273828,-0.257715 0.68415,-0.326697 1.196069,-0.992193 1.336348,-1.737252"
             style="opacity:1;fill:none;fill-opacity:1;fill-rule:nonzero;stroke:#000000;stroke-width:0.26458332" />
          <path
             inkscape:original-d="m 6.3311011,30.082179 c 0.063261,0.330465 0.1262565,0.661194 0.1889882,0.992188 0.062731,0.330994 0.3152447,0.629695 0.4724701,0.944941 0.1572255,0.315243 0.1420056,0.172974 0.2126115,0.259857"
             inkscape:path-effect="#path-effect1520"
             inkscape:connector-curvature="0"
             id="path1518"
             d="m 6.3311011,30.082179 c 0.02076,0.336939 0.08443,0.671211 0.1889882,0.992188 0.1095227,0.336219 0.2645838,0.658896 0.4724701,0.944941 0.065832,0.09058 0.1368578,0.177392 0.2126115,0.259857"
             style="opacity:1;fill:none;fill-opacity:1;fill-rule:nonzero;stroke:#000000;stroke-width:0.26458332" />
          <path
             inkscape:original-d="m 9.3367837,31.683334 c 0.063261,0.330465 0.1262565,0.661194 0.1889882,0.992188 0.062731,0.330994 0.3152447,0.629695 0.4724701,0.944941 0.157226,0.315243 0.142006,0.172974 0.212612,0.259857"
             inkscape:path-effect="#path-effect1520-9"
             inkscape:connector-curvature="0"
             id="path1518-5"
             d="m 9.3367837,31.683334 c 0.02076,0.336939 0.08443,0.671211 0.1889882,0.992188 0.1095226,0.336219 0.2645836,0.658896 0.4724701,0.944941 0.065832,0.09058 0.136858,0.177392 0.212612,0.259857"
             style="opacity:1;fill:none;fill-opacity:1;fill-rule:nonzero;stroke:#000000;stroke-width:0.26458332" />
          <path
             inkscape:original-d="m 12.147982,31.966816 c 0.06326,0.330465 0.126256,0.661194 0.188988,0.992188 0.06273,0.330994 0.315245,0.629695 0.47247,0.944941 0.157225,0.315243 0.142006,0.172974 0.212611,0.259857"
             inkscape:path-effect="#path-effect1520-3"
             inkscape:connector-curvature="0"
             id="path1518-59"
             d="m 12.147982,31.966816 c 0.02076,0.336939 0.08443,0.671211 0.188988,0.992188 0.109523,0.336219 0.264584,0.658896 0.47247,0.944941 0.06583,0.09058 0.136857,0.177391 0.212611,0.259857"
             style="opacity:1;fill:none;fill-opacity:1;fill-rule:nonzero;stroke:#000000;stroke-width:0.26458332" />
          <path
             inkscape:original-d="m 7.2051709,32.23192 c -0.031233,-0.527857 -0.046982,-1.086946 -0.07087,-1.630024"
             inkscape:path-effect="#path-effect1550"
             inkscape:connector-curvature="0"
             id="path1548"
             d="m 7.2051709,32.23192 -0.07087,-1.630024"
             style="opacity:1;fill:none;fill-opacity:1;fill-rule:nonzero;stroke:#000000;stroke-width:0.26458332" />
          <path
             inkscape:original-d="m 10.323475,33.743823 c -0.07848,-0.315243 -0.157226,-0.630224 -0.236235,-0.944938 -0.07901,-0.314717 2.64e-4,-0.535731 0,-0.803201"
             inkscape:path-effect="#path-effect1554"
             inkscape:connector-curvature="0"
             id="path1552"
             d="m 10.323475,33.743823 c -0.120579,-0.302506 -0.200273,-0.621278 -0.236235,-0.944938 -0.02963,-0.26664 -0.02963,-0.536561 0,-0.803201"
             style="opacity:1;fill:none;fill-opacity:1;fill-rule:nonzero;stroke:#000000;stroke-width:0.26458332" />
          <path
             inkscape:original-d="m 13.111049,34.027305 c -0.07061,-0.37824 -0.141476,-0.756216 -0.212611,-1.133927 -0.07113,-0.377711 0.07901,-0.960953 0.118117,-1.441035"
             inkscape:path-effect="#path-effect1558"
             inkscape:connector-curvature="0"
             id="path1556"
             d="m 13.111049,34.027305 c -0.115315,-0.36781 -0.186849,-0.749326 -0.212611,-1.133927 -0.03233,-0.482654 0.0076,-0.970087 0.118117,-1.441035"
             style="opacity:1;fill:none;fill-opacity:1;fill-rule:nonzero;stroke:#000000;stroke-width:0.26458332" />
          <path
             inkscape:connector-curvature="0"
             id="path1560"
             d="m 12.810428,31.720028 c -0.17355,0.107518 -0.350683,0.221099 -0.522855,0.329483 -0.01964,0.248557 0.06295,0.498311 0.119923,0.739068 0.109958,0.343599 0.240342,0.693682 0.459222,0.982634 0.08675,-0.01741 0.0037,-0.14472 0.0062,-0.205119 -0.116356,-0.600403 -0.128919,-1.227997 -0.03228,-1.830101 -0.0055,-0.01122 -0.01809,-0.01757 -0.03022,-0.01596 z"
             style="opacity:1;fill:#999999;fill-opacity:1;fill-rule:nonzero;stroke:#000000;stroke-width:0.02362351" />
          <path
             inkscape:connector-curvature="0"
             id="path1562"
             d="m 9.5157782,32.00923 c -0.064776,0.06958 0.027262,0.188619 0.023855,0.272918 0.097367,0.424932 0.2565466,0.844778 0.5106278,1.200968 0.08971,0.0079 0.0173,-0.123444 0.01546,-0.175054 C 9.9636713,32.934873 9.9527418,32.549282 9.9509223,32.163938 9.8317294,32.087018 9.6579897,32.047653 9.5157793,32.00923 Z"
             style="opacity:1;fill:#999999;fill-opacity:1;fill-rule:nonzero;stroke:#000000;stroke-width:0.02362351" />
          <path
             inkscape:connector-curvature="0"
             id="path1564"
             d="m 6.5053491,30.36103 c -0.055478,0.08601 0.020833,0.208407 0.025657,0.304149 0.095193,0.415631 0.2501783,0.824367 0.4836792,1.181732 0.087849,0.0446 0.043523,-0.114834 0.050217,-0.156504 -0.019481,-0.342799 -0.014883,-0.693756 -0.055246,-1.031176 -0.1649444,-0.0979 -0.316184,-0.22752 -0.4940176,-0.300231 z"
             style="opacity:1;fill:#999999;fill-opacity:1;fill-rule:nonzero;stroke:#000000;stroke-width:0.02362351" />
        </g>
        <path
           style="opacity:1;fill:#deaa87;fill-opacity:1;fill-rule:nonzero;stroke:#000000;stroke-width:0.08928572"
           d="m 48.018308,63.210948 c -7.187818,0.0437 -14.388492,0.865538 -21.363023,2.622512 -8.515016,2.177812 -16.7996695,6.10265 -23.0182445,12.431586 -4.09710621,4.209492 -7.2717997,9.328198 -9.1312191,14.905444 -0.1550203,0.593205 -0.8678686,0.709377 -1.3319614,1.021554 -2.1789618,1.239987 -3.276643,4.037378 -2.534343,6.432816 0.7028309,2.16962 2.1413875,3.99509 3.3333532,5.91014 1.2328552,1.79431 2.3496824,3.68983 3.7955419,5.32428 0.23128,0.1194 0.3210657,0.28909 0.4542759,0.50467 1.95688379,2.2312 4.5520508,4.08483 7.5228445,4.6045 1.7361634,0.12886 3.5745384,0.11909 5.1527625,-0.71813 1.604722,-0.7762 3.105311,-1.97593 3.778425,-3.67571 1.894611,-3.97424 4.925498,-7.37426 8.542468,-9.85903 5.554056,-3.667339 12.238537,-4.986035 17.970332,-8.308518 3.436219,-2.002392 6.572717,-4.967651 7.747803,-8.870152 0.757502,-2.392138 1.067045,-5.103306 2.85348,-7.005266 0.897417,-0.90564 2.122782,-1.515305 3.407157,-1.51716 0.299317,-0.21926 0.177924,-0.779527 0.331338,-1.113268 0.81616,-4.144256 2.101626,-8.19295 3.705702,-12.098053 -0.276577,-0.301398 -0.824204,-0.163034 -1.201323,-0.261047 -3.331052,-0.25656 -6.675044,-0.339955 -10.015369,-0.331168 z"
           id="path1732"
           inkscape:connector-curvature="0"
           transform="scale(0.26458333)" />
      </g>
      <ellipse
         ry="0.61806077"
         rx="0.56794775"
         cy="24.549774"
         cx="0.74825346"
         id="path1775"
         style="opacity:1;fill:#808080;fill-opacity:1;fill-rule:nonzero;stroke:#000000;stroke-width:0.26458332" />
      <ellipse
         ry="0.65146947"
         rx="0.58465207"
         cy="26.587706"
         cx="2.4353924"
         id="path1777"
         style="opacity:1;fill:#808080;fill-opacity:1;fill-rule:nonzero;stroke:#000000;stroke-width:0.26458332" />
      <circle
         r="0.61806077"
         cy="28.024279"
         cx="4.506731"
         id="path1779"
         style="opacity:1;fill:#808080;fill-opacity:1;fill-rule:nonzero;stroke:#000000;stroke-width:0.26458332" />
    </g>
    <g
       id="g1870"
       transform="translate(-1.889881,0.85044643)">
      <g
         transform="translate(1.984375,-1.4174107)"
         id="g1767">
        <g
           id="g1726"
           transform="rotate(-28.085927,21.677384,23.967585)"
           inkscape:transform-center-x="-9.5868119"
           inkscape:transform-center-y="7.8795312">
          <g
             transform="translate(-1.3363476,10.891233)"
             id="g1669">
            <path
               style="opacity:1;fill:none;fill-opacity:1;fill-rule:nonzero;stroke:#000000;stroke-width:0.26458332"
               d="m 36.775624,12.931579 c 1.948881,0.716673 3.814113,1.660526 5.545843,2.80633 2.61014,1.727007 4.983825,4.017635 6.080381,6.949008 0.618586,1.653638 0.804569,3.466979 0.534539,5.211757"
               id="path1506-3"
               inkscape:connector-curvature="0"
               inkscape:path-effect="#path-effect1508-2"
               inkscape:original-d="m 36.775624,12.931579 c 1.84835,0.935179 3.696964,1.870622 5.545843,2.80633 1.848878,0.935708 4.053323,4.632407 6.080381,6.949008 2.027059,2.316601 0.356095,3.47424 0.534539,5.211757" />
            <path
               style="opacity:1;fill:none;fill-opacity:1;fill-rule:nonzero;stroke:#000000;stroke-width:0.26458332"
               d="m 41.653293,30.304099 c 0.08219,-1.274725 -0.224417,-2.571926 -0.868626,-3.674956 -0.696007,-1.191718 -1.749958,-2.12538 -2.626566,-3.191296 -0.438303,-0.532958 -0.836295,-1.105843 -1.109649,-1.739429 -0.273354,-0.633587 -0.418233,-1.332734 -0.339646,-2.018284 0.05564,-0.485385 0.221077,-0.955057 0.252098,-1.442635 0.01551,-0.243789 -0.0037,-0.492572 -0.08523,-0.722832 -0.08157,-0.23026 -0.228989,-0.44143 -0.434139,-0.574045 -0.101358,-0.06552 -0.215503,-0.111179 -0.334087,-0.133635"
               id="path1510-3"
               inkscape:connector-curvature="0"
               inkscape:path-effect="#path-effect1512-7"
               inkscape:original-d="m 41.653293,30.304099 c -0.289807,-1.225251 -0.579349,-2.450234 -0.868626,-3.674956 -0.289278,-1.224721 -2.717505,-4.632937 -4.075861,-6.949009 -1.358355,-2.316071 -0.178444,-1.826606 -0.267269,-2.739512 -0.08882,-0.912906 -0.222989,-0.08936 -0.334087,-0.133635" />
            <path
               style="opacity:1;fill:none;fill-opacity:1;fill-rule:nonzero;stroke:#000000;stroke-width:0.26458332"
               d="m 48.936387,27.831857 c 0.253865,0.259074 0.416177,0.606135 0.452269,0.967056 0.03609,0.360921 -0.05428,0.73325 -0.251816,1.037464 -0.148301,0.228391 -0.352611,0.415965 -0.573703,0.574942 -0.221093,0.158978 -0.459956,0.291229 -0.695828,0.427318 -0.757338,0.436956 -1.497076,0.920742 -2.321879,1.210901 -0.412401,0.145079 -0.844885,0.24025 -1.281962,0.249528 -0.437078,0.0093 -0.879323,-0.06933 -1.273828,-0.257715 -0.684149,-0.326697 -1.196069,-0.992193 -1.336347,-1.737252"
               id="path1514-1"
               inkscape:connector-curvature="0"
               inkscape:path-effect="#path-effect1516-1"
               inkscape:original-d="m 48.936387,27.831857 c 0.08882,0.667908 0.133371,1.336082 0.200453,2.00452 0.06708,0.668438 -0.846619,0.667909 -1.269531,1.00226 -0.422912,0.334351 -3.252043,0.801545 -4.877669,1.202714 -1.625624,0.401169 -0.891162,-1.158433 -1.336347,-1.737252" />
            <path
               style="opacity:1;fill:none;fill-opacity:1;fill-rule:nonzero;stroke:#000000;stroke-width:0.26458332"
               d="m 48.903148,30.192894 c -0.02076,0.336939 -0.08443,0.671211 -0.188989,0.992188 -0.109523,0.336219 -0.264584,0.658896 -0.47247,0.944941 -0.06583,0.09058 -0.136857,0.177391 -0.212611,0.259857"
               id="path1518-57"
               inkscape:connector-curvature="0"
               inkscape:path-effect="#path-effect1520-8"
               inkscape:original-d="m 48.903148,30.192894 c -0.06326,0.330465 -0.126257,0.661194 -0.188989,0.992188 -0.06273,0.330994 -0.315244,0.629695 -0.47247,0.944941 -0.157225,0.315243 -0.142005,0.172974 -0.212611,0.259857" />
            <path
               style="opacity:1;fill:none;fill-opacity:1;fill-rule:nonzero;stroke:#000000;stroke-width:0.26458332"
               d="m 45.897465,31.794049 c -0.02076,0.336939 -0.08443,0.671211 -0.188988,0.992188 -0.109523,0.336219 -0.264583,0.658896 -0.47247,0.944941 -0.06583,0.09058 -0.136858,0.177392 -0.212612,0.259857"
               id="path1518-5-0"
               inkscape:connector-curvature="0"
               inkscape:path-effect="#path-effect1520-9-6"
               inkscape:original-d="m 45.897465,31.794049 c -0.06326,0.330465 -0.126257,0.661194 -0.188988,0.992188 -0.06273,0.330994 -0.315245,0.629695 -0.47247,0.944941 -0.157226,0.315243 -0.142006,0.172974 -0.212612,0.259857" />
            <path
               style="opacity:1;fill:none;fill-opacity:1;fill-rule:nonzero;stroke:#000000;stroke-width:0.26458332"
               d="m 43.086267,32.077531 c -0.02076,0.336939 -0.08443,0.671211 -0.188988,0.992188 -0.109523,0.336219 -0.264583,0.658896 -0.47247,0.944941 -0.06583,0.09058 -0.136858,0.177392 -0.212612,0.259857"
               id="path1518-59-6"
               inkscape:connector-curvature="0"
               inkscape:path-effect="#path-effect1520-3-3"
               inkscape:original-d="m 43.086267,32.077531 c -0.06326,0.330465 -0.126256,0.661194 -0.188988,0.992188 -0.06273,0.330994 -0.315245,0.629695 -0.47247,0.944941 -0.157226,0.315243 -0.142006,0.172974 -0.212612,0.259857" />
            <path
               style="opacity:1;fill:none;fill-opacity:1;fill-rule:nonzero;stroke:#000000;stroke-width:0.26458332"
               d="m 48.029078,32.342635 0.07087,-1.630024"
               id="path1548-3"
               inkscape:connector-curvature="0"
               inkscape:path-effect="#path-effect1550-5"
               inkscape:original-d="m 48.029078,32.342635 c 0.03123,-0.527857 0.04698,-1.086946 0.07087,-1.630024" />
            <path
               style="opacity:1;fill:none;fill-opacity:1;fill-rule:nonzero;stroke:#000000;stroke-width:0.26458332"
               d="m 44.910774,33.854538 c 0.120579,-0.302506 0.200273,-0.621278 0.236235,-0.944938 0.02963,-0.26664 0.02963,-0.536561 0,-0.803201"
               id="path1552-1"
               inkscape:connector-curvature="0"
               inkscape:path-effect="#path-effect1554-6"
               inkscape:original-d="m 44.910774,33.854538 c 0.07848,-0.315243 0.157225,-0.630224 0.236235,-0.944938 0.07901,-0.314717 -2.65e-4,-0.535731 0,-0.803201" />
            <path
               style="opacity:1;fill:none;fill-opacity:1;fill-rule:nonzero;stroke:#000000;stroke-width:0.26458332"
               d="m 42.1232,34.13802 c 0.115315,-0.36781 0.186849,-0.749326 0.212611,-1.133927 0.03233,-0.482654 -0.0076,-0.970087 -0.118117,-1.441035"
               id="path1556-5"
               inkscape:connector-curvature="0"
               inkscape:path-effect="#path-effect1558-9"
               inkscape:original-d="m 42.1232,34.13802 c 0.07061,-0.37824 0.141476,-0.756216 0.212611,-1.133927 0.07114,-0.377711 -0.07901,-0.960953 -0.118117,-1.441035" />
            <path
               style="opacity:1;fill:#999999;fill-opacity:1;fill-rule:nonzero;stroke:#000000;stroke-width:0.02362351"
               d="m 42.423821,31.830743 c 0.17355,0.107518 0.350683,0.221099 0.522855,0.329482 0.01964,0.248558 -0.06295,0.498311 -0.119923,0.739069 -0.109959,0.343599 -0.240342,0.693682 -0.459222,0.982633 -0.08675,-0.01741 -0.0037,-0.144719 -0.0062,-0.205118 0.116355,-0.600403 0.128919,-1.227997 0.03228,-1.830102 0.0055,-0.01122 0.01809,-0.01757 0.03022,-0.01595 z"
               id="path1560-3"
               inkscape:connector-curvature="0" />
            <path
               style="opacity:1;fill:#999999;fill-opacity:1;fill-rule:nonzero;stroke:#000000;stroke-width:0.02362351"
               d="m 45.71847,32.119945 c 0.06478,0.06958 -0.02726,0.188619 -0.02386,0.272918 -0.09737,0.424931 -0.256546,0.844778 -0.510627,1.200968 -0.08971,0.0079 -0.0173,-0.123444 -0.01546,-0.175054 0.102046,-0.37319 0.112976,-0.75878 0.114795,-1.144125 0.119193,-0.07692 0.292933,-0.116284 0.435143,-0.154707 z"
               id="path1562-3"
               inkscape:connector-curvature="0" />
            <path
               style="opacity:1;fill:#999999;fill-opacity:1;fill-rule:nonzero;stroke:#000000;stroke-width:0.02362351"
               d="m 48.7289,30.471745 c 0.05548,0.08601 -0.02083,0.208407 -0.02566,0.304149 -0.09519,0.415631 -0.250178,0.824367 -0.483679,1.181732 -0.08785,0.0446 -0.04352,-0.114834 -0.05022,-0.156504 0.01948,-0.342799 0.01488,-0.693756 0.05525,-1.031176 0.164944,-0.0979 0.316184,-0.227521 0.494017,-0.300231 z"
               id="path1564-9"
               inkscape:connector-curvature="0" />
          </g>
        </g>
        <path
           style="opacity:1;fill:#deaa87;fill-opacity:1;fill-rule:nonzero;stroke:#000000;stroke-width:0.12626907"
           d="m 140.7321,65.128075 c -4.04362,0.0087 -8.09332,0.300066 -12.09816,0.825188 -0.0953,0.544508 0.31923,1.144885 0.42006,1.699597 1.2668,3.778669 2.26206,7.664051 2.86393,11.595894 0.21504,0.307296 0.5717,-0.216969 0.87574,-0.09248 2.35845,-0.278504 4.3144,1.603984 5.18345,3.622838 1.20428,2.791675 1.57769,5.995307 3.59102,8.396153 3.17349,4.081598 8.09446,6.179185 12.8296,7.863793 4.9607,1.831882 10.21093,3.442902 14.24599,7.026582 2.66087,2.26039 4.74222,5.11918 6.35297,8.19586 2.10635,3.20016 6.56348,4.42102 10.07163,2.9718 3.53166,-1.34695 6.14616,-4.32326 8.17087,-7.41007 1.62038,-2.65108 3.44334,-5.20668 4.73003,-8.04359 1.01126,-2.339421 0.2763,-5.295695 -1.81561,-6.789422 -0.72125,-0.601602 -1.93579,-0.72502 -2.12734,-1.78281 -2.80478,-7.202454 -7.65081,-13.639894 -14.01664,-18.063756 -8.38312,-5.917767 -18.61315,-8.544914 -28.70419,-9.551514 -3.51253,-0.361126 -7.04325,-0.492199 -10.57335,-0.464061 z"
           id="path1734"
           inkscape:connector-curvature="0"
           transform="scale(0.26458333)" />
      </g>
      <circle
         r="0.66817379"
         cy="28.475296"
         cx="49.892437"
         id="path1781"
         style="opacity:1;fill:#808080;fill-opacity:1;fill-rule:nonzero;stroke:#000000;stroke-width:0.26458332" />
      <ellipse
         ry="0.66817379"
         rx="0.65146947"
         cy="26.971903"
         cx="51.713215"
         id="path1783"
         style="opacity:1;fill:#808080;fill-opacity:1;fill-rule:nonzero;stroke:#000000;stroke-width:0.26458332" />
      <ellipse
         ry="0.71828681"
         rx="0.61806077"
         cy="24.95068"
         cx="53.250011"
         id="path1785"
         style="opacity:1;fill:#808080;fill-opacity:1;fill-rule:nonzero;stroke:#000000;stroke-width:0.26458332" />
    </g>
    <g
       id="g1849"
       transform="translate(0.09449405,-6.8035714)">
      <g
         style="fill:#deaa87"
         transform="translate(0.5143926,5.8997386)"
         id="g1711">
        <path
           style="opacity:1;fill:#deaa87;fill-opacity:1;fill-rule:nonzero;stroke:#000000;stroke-width:0.26458332"
           d="m 21.582014,6.4063964 c -0.180865,0.64656 -0.07065,1.3331516 -0.06682,2.0045214 0.0019,0.3334828 -0.02273,0.6691548 0.0262,0.9990341 0.02446,0.1649396 0.06758,0.3279817 0.13922,0.4785498 0.07164,0.1505683 0.172551,0.2885753 0.302303,0.3933033 0.129435,0.104472 0.284894,0.173804 0.445989,0.215229 0.161095,0.04143 0.328111,0.05575 0.494433,0.0579 0.332645,0.0043 0.666309,-0.03943 0.997282,-0.0059 0.478914,0.04859 0.928117,0.256321 1.403166,0.334087 0.763042,0.124911 1.537641,-0.09147 2.27179,-0.334087 0.479237,-0.158373 0.965265,-0.330839 1.469983,-0.334087 0.239355,-0.0015 0.477587,0.03527 0.716943,0.0368 0.239355,0.0015 0.488198,-0.03597 0.686222,-0.170433 0.175957,-0.1194769 0.297615,-0.3073448 0.367641,-0.5081726 0.07003,-0.2008279 0.09208,-0.4151868 0.100081,-0.6277226 0.0134,-0.3561505 -0.01125,-0.7128531 0,-1.069078 0.01284,-0.4064363 0.07234,-0.8104466 0.08179,-1.2169758 0.0094,-0.4065292 -0.03432,-0.8243654 -0.215419,-1.18845 C 30.603678,5.0706142 30.25182,4.7638166 29.86737,4.5355097 29.238115,4.1618244 28.510243,3.9759768 27.780963,3.9147145 27.051683,3.8534523 26.317523,3.9123705 25.591057,4.0009706 24.768916,4.1012393 23.937205,4.24401 23.195715,4.6130122 22.82497,4.7975134 22.479948,5.0383651 22.196799,5.3405553 21.91365,5.6427456 21.693574,6.0075898 21.582014,6.4063964 Z"
           id="path1701"
           inkscape:connector-curvature="0"
           inkscape:path-effect="#path-effect1703"
           inkscape:original-d="m 21.582014,6.4063964 c -1.336612,0.8020732 -0.04428,1.3360831 -0.06682,2.0045214 -0.02254,0.6684386 0.312079,1.2469931 0.467721,1.8708872 0.155643,0.623893 1.292068,0.177915 1.937704,0.267269 0.645637,0.08935 0.935708,0.22246 1.403166,0.334087 0.467457,0.111627 1.514791,-0.222989 2.27179,-0.334087 0.757,-0.111098 0.980252,-0.222989 1.469983,-0.334087 0.48973,-0.111098 0.935707,-0.08935 1.403165,-0.133635 0.467458,-0.04428 0.312078,-0.7575278 0.467722,-1.1358952 0.155641,-0.3783671 2.65e-4,-0.7129833 0,-1.069078 C 30.936184,7.520284 30.847622,6.2724971 30.802812,5.470953 30.758003,4.6694092 30.179449,4.8470597 29.86737,4.5355097 29.555291,4.2239599 27.01676,4.1788857 25.591057,4.0009706 24.165355,3.8230556 22.918626,5.6043234 21.582014,6.4063964 Z" />
        <path
           style="opacity:1;fill:#deaa87;fill-opacity:1;fill-rule:nonzero;stroke:#000000;stroke-width:0.26458332"
           d="m 21.356535,12.887112 c 0.100381,0.276208 0.310722,0.500826 0.548494,0.673546 0.455827,0.331119 1.018669,0.492188 1.580328,0.536424 0.56166,0.04424 1.126116,-0.02231 1.682456,-0.111206 1.147346,-0.18334 2.276993,-0.461796 3.406856,-0.732771 0.523197,-0.125478 1.06633,-0.258814 1.48351,-0.59858 0.20859,-0.169883 0.380003,-0.39112 0.465337,-0.646244 0.08533,-0.255123 0.07921,-0.544979 -0.04232,-0.784979 -0.122864,-0.242631 -0.355499,-0.419641 -0.612961,-0.507269 -0.257462,-0.08763 -0.537954,-0.09156 -0.806267,-0.04714 -0.397283,0.06578 -0.769543,0.233114 -1.135729,0.40065 -0.366186,0.167537 -0.736266,0.338438 -1.132156,0.412138 -0.551209,0.102615 -1.119649,0.01081 -1.665608,-0.116824 -0.545958,-0.127636 -1.087242,-0.291718 -1.646201,-0.335599 -0.55896,-0.04388 -1.151333,0.04504 -1.60172,0.378978 -0.225193,0.166968 -0.408946,0.393535 -0.508419,0.655634 -0.09947,0.262098 -0.111354,0.559762 -0.0156,0.823241 z"
           id="path1705"
           inkscape:connector-curvature="0"
           inkscape:path-effect="#path-effect1707"
           inkscape:original-d="m 21.356535,12.887112 c -1.812692,0.468808 0.365842,0.448701 0.548494,0.673546 0.182654,0.224844 2.175367,0.283149 3.262784,0.425218 1.087416,0.142068 2.271416,-0.488843 3.406856,-0.732771 1.135436,-0.243931 1.271194,-1.35353 1.906526,-2.029803 0.63533,-0.676273 -0.945974,-0.369934 -1.419228,-0.554408 -0.473254,-0.184473 -1.511746,0.541525 -2.267885,0.812788 -0.756141,0.271259 -3.624853,0.936625 -5.437547,1.40543 z" />
      </g>
      <path
         inkscape:original-d="m 24.977745,16.530691 c -0.189052,-0.234126 -0.378368,-0.467987 -0.567948,-0.701583 -0.189581,-0.233596 0.222989,-0.412305 0.334087,-0.618061 0.111097,-0.205756 0.86889,-0.345488 1.302939,-0.517835 0.434048,-0.172346 1.22525,0.155643 1.837477,0.233861 0.612228,0.07822 0.04481,1.024269 0.06682,1.5368"
         inkscape:path-effect="#path-effect1789"
         inkscape:connector-curvature="0"
         id="path1787"
         d="m 24.977745,16.530691 c -0.162781,-0.0258 -0.314942,-0.113675 -0.418642,-0.241775 -0.1037,-0.1281 -0.157967,-0.295223 -0.149306,-0.459808 0.0063,-0.120077 0.04505,-0.237371 0.104599,-0.341831 0.05955,-0.10446 0.139535,-0.196437 0.229488,-0.27623 0.177017,-0.157023 0.391769,-0.267015 0.614957,-0.345615 0.223189,-0.0786 0.455708,-0.127053 0.687982,-0.17222 0.314785,-0.06121 0.634193,-0.117044 0.954345,-0.09864 0.320153,0.01841 0.645148,0.117557 0.883132,0.332499 0.211755,0.191253 0.342622,0.469347 0.355017,0.754417 0.0124,0.285069 -0.09384,0.573472 -0.288197,0.782383"
         style="opacity:1;fill:none;fill-opacity:1;fill-rule:nonzero;stroke:#000000;stroke-width:0.26458332" />
      <ellipse
         ry="0.28397387"
         rx="0.12528259"
         cy="15.762291"
         cx="25.520636"
         id="path1791"
         style="opacity:1;fill:none;fill-opacity:1;fill-rule:nonzero;stroke:#000000;stroke-width:0.26458332" />
      <ellipse
         ry="0.26726952"
         rx="0.11693042"
         cy="15.695473"
         cx="27.132605"
         id="path1793"
         style="opacity:1;fill:#808080;fill-opacity:1;fill-rule:nonzero;stroke:#000000;stroke-width:0.26458332" />
      <path
         inkscape:connector-curvature="0"
         id="path1795"
         d="m 26.749301,14.713201 c -0.42557,0.02037 -0.845472,0.114489 -1.254744,0.228916 -0.375051,0.111157 -0.770747,0.323114 -0.927033,0.703461 -0.115259,0.271901 0.01287,0.620052 0.290588,0.733627 0.112688,0.03662 0.21024,0.101268 0.328851,0.125624 0.367093,0.10373 0.74135,0.218297 1.127661,0.190419 0.491784,0.0095 0.974235,-0.10363 1.440179,-0.251156 0.102698,-0.004 0.154485,-0.08127 0.19793,-0.163781 0.261392,-0.37411 0.218818,-0.939573 -0.126686,-1.247966 -0.278614,-0.287906 -0.698174,-0.327614 -1.076746,-0.319144 z m 0.395129,0.607784 c 0.181621,0.03358 0.22238,0.259656 0.214644,0.413596 -0.0079,0.139242 -0.07505,0.325486 -0.236567,0.342569 -0.174096,-0.0476 -0.226155,-0.245492 -0.211784,-0.405013 -0.0016,-0.143824 0.05636,-0.352561 0.233707,-0.351152 z m -1.615264,0.04587 c 0.176043,0.03891 0.228679,0.248721 0.226847,0.402405 0.0013,0.151843 -0.05301,0.369145 -0.235362,0.384591 -0.166135,-0.0077 -0.224494,-0.209141 -0.229424,-0.344657 -0.01143,-0.161944 0.02179,-0.363076 0.191186,-0.435847 0.01496,-0.0052 0.03093,-0.0075 0.04675,-0.0065 z"
         style="opacity:1;fill:#808080;fill-opacity:1;fill-rule:nonzero;stroke:#000000;stroke-width:0.01670435" />
      <path
         inkscape:original-d="m 23.080171,16.545908 c -0.03123,0.145413 -0.06273,0.291092 -0.09449,0.437035"
         inkscape:path-effect="#path-effect1799"
         inkscape:connector-curvature="0"
         id="path1797"
         d="m 23.080171,16.545908 -0.09449,0.437035"
         style="opacity:1;fill:#808080;fill-opacity:1;fill-rule:nonzero;stroke:#000000;stroke-width:0.26458332" />
      <path
         inkscape:original-d="m 30.025483,16.167931 c 2.65e-4,0.01942 2.65e-4,0.03911 0,0.05906 -2.64e-4,0.01995 0.110509,0.298967 0.165365,0.448847"
         inkscape:path-effect="#path-effect1803"
         inkscape:connector-curvature="0"
         id="path1801"
         d="m 30.025483,16.167931 c -7.53e-4,0.01968 -7.53e-4,0.03938 0,0.05906 0.0062,0.161992 0.06498,0.321555 0.165365,0.448847"
         style="opacity:1;fill:#ff8080;fill-opacity:1;fill-rule:nonzero;stroke:#000000;stroke-width:0.26458332" />
      <path
         inkscape:connector-curvature="0"
         id="path1805"
         d="m 29.611763,16.227401 c -0.515761,-0.0052 -1.00465,0.180265 -1.489401,0.332716 -0.628383,0.203988 -1.277813,0.39141 -1.943037,0.363112 -0.593798,-0.0042 -1.145729,-0.287603 -1.733198,-0.36127 -0.411379,-0.02206 -0.823638,-9.78e-4 -1.235297,0.0018 -0.05222,0.03356 -0.03713,0.117822 -0.05923,0.173332 -0.0049,0.03758 -0.04271,0.121806 0.02416,0.118616 0.483983,-0.07568 0.982738,-0.04917 1.461982,0.05821 0.623906,0.127141 1.235216,0.326456 1.871263,0.387065 0.256835,-0.0024 0.515677,0.0041 0.77091,-0.02742 0.466302,-0.08439 0.888482,-0.312811 1.321134,-0.495045 0.401354,-0.174682 0.818848,-0.339777 1.261917,-0.347492 0.04612,0.0061 0.09302,-0.03222 0.06494,-0.07995 -0.004,-0.06134 -0.01593,-0.135249 -0.09722,-0.115605 -0.07275,-0.0073 -0.145849,-0.0092 -0.218929,-0.0081 z"
         style="opacity:1;fill:#ff8080;fill-opacity:1;fill-rule:nonzero;stroke:#000000;stroke-width:0.01181176" />
      <ellipse
         ry="0.78510422"
         rx="0.20045215"
         cy="12.3379"
         cx="24.025597"
         id="path1807"
         style="opacity:1;fill:#ffcc00;fill-opacity:1;fill-rule:nonzero;stroke:#000000;stroke-width:0.26458332" />
      <ellipse
         ry="0.75169551"
         rx="0.20880431"
         cy="12.388013"
         cx="29.212296"
         id="path1809"
         style="opacity:1;fill:#ffcc00;fill-opacity:1;fill-rule:nonzero;stroke:#000000;stroke-width:0.26458332" />
      <path
         inkscape:original-d="M 23.198288,10.781771 C 22.938694,10.017679 22.678836,9.2381034 22.418713,8.4666666"
         inkscape:path-effect="#path-effect1813"
         inkscape:connector-curvature="0"
         id="path1811"
         d="M 23.198288,10.781771 22.418713,8.4666666"
         style="opacity:1;fill:#e9c6af;fill-opacity:1;fill-rule:nonzero;stroke:#784421;stroke-width:0.26458332" />
      <path
         inkscape:original-d="M 24.592076,10.143936 C 23.87576,9.5924559 23.15918,9.0412407 22.442336,8.4902901"
         inkscape:path-effect="#path-effect1817"
         inkscape:connector-curvature="0"
         id="path1815"
         d="M 24.592076,10.143936 22.442336,8.4902901"
         style="opacity:1;fill:#e9c6af;fill-opacity:1;fill-rule:nonzero;stroke:#784421;stroke-width:0.26458332" />
      <path
         inkscape:original-d="M 28.938802,9.8132068 C 29.553278,9.0569898 30.16749,8.3010374 30.781437,7.5453496"
         inkscape:path-effect="#path-effect1821"
         inkscape:connector-curvature="0"
         id="path1819"
         d="M 28.938802,9.8132068 30.781437,7.5453496"
         style="opacity:1;fill:#e9c6af;fill-opacity:1;fill-rule:nonzero;stroke:#784421;stroke-width:0.26458332" />
      <path
         inkscape:original-d="M 30.521576,10.616406 C 30.60846,9.6475776 30.71083,8.6632647 30.805059,7.6870906"
         inkscape:path-effect="#path-effect1825"
         inkscape:connector-curvature="0"
         id="path1823"
         d="M 30.521576,10.616406 30.805059,7.6870906"
         style="opacity:1;fill:#e9c6af;fill-opacity:1;fill-rule:nonzero;stroke:#784421;stroke-width:0.26458332" />
      <path
         transform="scale(0.26458333)"
         inkscape:connector-curvature="0"
         id="path1827"
         d="m 85.84601,33.582333 c -0.09753,0.378961 0.227889,0.787757 0.284915,1.17311 0.586413,1.772696 1.142015,3.557209 1.793244,5.307429 0.371634,0.07095 0.740116,-0.40165 1.130023,-0.521764 0.893085,-0.48315 1.866419,-0.823407 2.802211,-1.221226 0.111941,-0.289993 -0.38652,-0.436615 -0.532056,-0.643089 -1.771866,-1.407101 -3.53698,-2.845444 -5.409455,-4.110503 l -0.0035,-3.49e-4 z"
         style="opacity:1;fill:#e9c6af;fill-opacity:1;fill-rule:nonzero;stroke:#784421;stroke-width:0.08928572" />
      <path
         transform="scale(0.26458333)"
         inkscape:connector-curvature="0"
         id="path1829"
         d="m 115.71138,30.053455 c -1.95798,2.25008 -3.79012,4.614879 -5.68865,6.917899 0.11916,0.36043 0.79622,0.275778 1.14467,0.453753 1.27581,0.38407 2.5401,0.875141 3.70379,1.534075 0.30978,-0.162455 0.12375,-0.681788 0.24089,-0.973773 0.26696,-2.618017 0.56261,-5.236596 0.74352,-7.861153 -0.007,-0.07203 -0.0895,-0.09514 -0.14422,-0.0708 z"
         style="opacity:1;fill:#e9c6af;fill-opacity:1;fill-rule:nonzero;stroke:#784421;stroke-width:0.08928572" />
    </g>
    <path
       style="opacity:1;fill:none;fill-opacity:1;fill-rule:nonzero;stroke:#000000;stroke-width:0.26458332"
       d="m 18.804315,27.176489 c -2.589519,2.821809 -4.90341,5.896431 -6.898065,9.165921 -0.419719,0.687973 -0.829891,1.395185 -1.039435,2.173364 -0.240028,0.891387 -0.20498,1.835041 -0.07893,2.749534 0.126045,0.914492 0.340835,1.815308 0.456911,2.731119 0.363473,2.867712 -0.281118,5.853187 -1.7953873,8.315478"
       id="path1896"
       inkscape:connector-curvature="0"
       inkscape:path-effect="#path-effect1898"
       inkscape:original-d="m 18.804315,27.176489 c -2.267592,2.992046 -4.598445,6.110348 -6.898065,9.165921 -2.2996198,3.055572 -0.692692,1.448644 -1.039435,2.173364 -0.346742,0.724717 0.252249,3.653504 0.377977,5.480653 0.125727,1.827152 -1.196661,5.543388 -1.7953873,8.315478" />
    <path
       style="opacity:1;fill:none;fill-opacity:1;fill-rule:nonzero;stroke:#000000;stroke-width:0.26458332"
       d="m 24.195739,30.464686 c -2.205421,0.0287 -4.372406,1.127626 -5.698676,2.88993 -1.32627,1.762303 -1.782351,4.148819 -1.199389,6.275991 0.08943,0.326335 0.201591,0.645988 0.296913,0.970652 0.518842,1.767168 0.528411,3.645047 0.377977,5.480653 -0.23228,2.834306 -0.837584,5.637819 -1.795387,8.315478"
       id="path1896-0"
       inkscape:connector-curvature="0"
       inkscape:path-effect="#path-effect1898-7"
       inkscape:original-d="m 24.195739,30.464686 c -2.267592,2.992046 -4.598445,6.110348 -6.898065,9.165921 -2.29962,3.055572 0.643656,0.245932 0.296913,0.970652 -0.346742,0.724717 0.252249,3.653504 0.377977,5.480653 0.125727,1.827152 -1.196661,5.543388 -1.795387,8.315478"
       sodipodi:nodetypes="csssc" />
  </g>
</svg>
