<?xml version="1.0" encoding="UTF-8" standalone="no"?>
<!-- Created with Inkscape (http://www.inkscape.org/) -->

<svg
   xmlns:dc="http://purl.org/dc/elements/1.1/"
   xmlns:cc="http://creativecommons.org/ns#"
   xmlns:rdf="http://www.w3.org/1999/02/22-rdf-syntax-ns#"
   xmlns:svg="http://www.w3.org/2000/svg"
   xmlns="http://www.w3.org/2000/svg"
   xmlns:sodipodi="http://sodipodi.sourceforge.net/DTD/sodipodi-0.dtd"
   xmlns:inkscape="http://www.inkscape.org/namespaces/inkscape"
   width="202"
   height="202"
   viewBox="0 0 53.445832 53.445835"
   version="1.1"
   id="svg12669"
   inkscape:version="0.92.3 (2405546, 2018-03-11)"
   sodipodi:docname="tutewtoo.svg">
  <defs
     id="defs12663">
    <inkscape:path-effect
       effect="spiro"
       id="path-effect12721"
       is_visible="true" />
    <inkscape:path-effect
       effect="spiro"
       id="path-effect12717"
       is_visible="true" />
    <inkscape:path-effect
       effect="spiro"
       id="path-effect12707"
       is_visible="true" />
    <inkscape:path-effect
       effect="spiro"
       id="path-effect12721-6"
       is_visible="true" />
    <inkscape:path-effect
       effect="spiro"
       id="path-effect12721-62"
       is_visible="true" />
  </defs>
  <sodipodi:namedview
     id="base"
     pagecolor="#ffffff"
     bordercolor="#666666"
     borderopacity="1.0"
     inkscape:pageopacity="0.0"
     inkscape:pageshadow="2"
     inkscape:zoom="2.8"
     inkscape:cx="59.178939"
     inkscape:cy="143.06229"
     inkscape:document-units="mm"
     inkscape:current-layer="layer1"
     showgrid="false"
     units="px"
     inkscape:window-width="1920"
     inkscape:window-height="1017"
     inkscape:window-x="-8"
     inkscape:window-y="-8"
     inkscape:window-maximized="1" />
  <metadata
     id="metadata12666">
    <rdf:RDF>
      <cc:Work
         rdf:about="">
        <dc:format>image/svg+xml</dc:format>
        <dc:type
           rdf:resource="http://purl.org/dc/dcmitype/StillImage" />
        <dc:title></dc:title>
      </cc:Work>
    </rdf:RDF>
  </metadata>
  <g
     inkscape:label="Layer 1"
     inkscape:groupmode="layer"
     id="layer1"
     transform="translate(0,-243.55415)">
    <g
       id="g12778">
      <path
         inkscape:original-d="m 19.182292,251.17037 c -6.016386,0.34675 -8.000232,9.32315 -12.0007444,13.98512 -4.0005126,4.66197 -0.5037037,2.51958 -0.7559523,3.77976 -0.2522488,1.26019 4.4729827,-1.51217 6.7090777,-2.26785 2.236094,-0.75569 7.559788,-5.66991 11.339285,-8.50447 3.779497,-2.83455 -1.19666,3.14954 -1.795387,4.7247 -0.598727,1.57517 -8.000231,6.61432 -12.000744,9.92188 -4.0005122,3.30756 -2.3935842,-0.37824 -3.5907735,-0.56696 -1.1971891,-0.18873 0.3152447,2.0156 0.4724702,3.0238 0.1572257,1.0082 10.5835983,-3.96901 15.8750003,-5.95312 5.291402,-1.98411 4.598975,-7.55979 6.898065,-11.33929 2.299092,-3.77949 1.0082,-0.8822 1.511906,-1.32291 0.503703,-0.44071 3.024074,3.77949 4.535712,5.66964 1.511642,1.89015 3.024074,7.81124 4.535715,11.71726 1.511641,3.90602 -3.653504,6.9923 -5.480656,10.48884 -1.827149,3.49655 -7.937234,2.64557 -11.906248,3.96875 -3.969015,1.32318 -6.866303,2.89755 -10.299851,4.34673 -3.4335488,1.44917 -0.25172,1.57463 -0.377977,2.36235 -0.126256,0.78771 1.890146,-2.7e-4 2.834822,0 0.944676,2.6e-4 1.512169,-1.13419 2.267857,-1.70089 0.755688,-0.56671 5.228935,-1.38618 7.843006,-2.07887 2.61407,-0.6927 3.276058,0.81868 4.91369,1.22842 1.637633,0.40974 3.465047,1.63763 5.197173,2.45684 1.732127,0.81922 3.465047,-0.31524 5.197173,-0.47246 1.732124,-0.15723 -1.70063,-1.57517 -2.55134,-2.36236 -0.850712,-0.78718 -2.645568,-1.26018 -3.96875,-1.88988 -1.323181,-0.62969 0.693222,-1.82715 1.039435,-2.74033 0.346212,-0.91317 5.732904,-7.05581 8.598958,-10.58333 2.866054,-3.52751 -4.661443,-17.95413 -6.992559,-26.9308 -2.33112,-8.97667 -12.031978,0.69269 -18.048363,1.03943 z"
         inkscape:path-effect="#path-effect12707"
         inkscape:connector-curvature="0"
         id="path12705"
         d="m 19.182292,251.17037 c -5.332144,3.19495 -8.988929,8.54743 -12.0007444,13.98512 -0.323032,0.58322 -0.6433789,1.17594 -0.820133,1.81879 -0.1767541,0.64285 -0.1999544,1.34882 0.064181,1.96097 0.1497665,0.34709 0.3883761,0.65417 0.6816429,0.89271 0.2932668,0.23853 0.6403382,0.40887 1.0060723,0.50448 0.7314682,0.19123 1.5249858,0.0785 2.2096245,-0.24221 0.684638,-0.32076 1.264712,-0.83964 1.723899,-1.44027 0.459186,-0.60064 0.802727,-1.28233 1.087839,-1.98256 0.617788,-1.51728 0.968954,-3.12708 1.43666,-4.69712 0.467706,-1.57005 1.071102,-3.1355 2.110811,-4.40152 0.519854,-0.63301 1.146549,-1.18394 1.86597,-1.57558 0.71942,-0.39164 1.533474,-0.6205 2.352548,-0.61232 0.819074,0.008 1.641231,0.25976 2.297115,0.75044 0.655884,0.49068 1.135666,1.22466 1.276181,2.03163 0.148243,0.85136 -0.07841,1.7309 -0.449495,2.51134 -0.371082,0.78044 -0.882064,1.48422 -1.345892,2.21336 -1.530922,2.40663 -2.577094,5.1365 -4.433991,7.30157 -0.928448,1.08254 -2.065732,2.01345 -3.391795,2.53829 -1.326063,0.52484 -2.852678,0.61632 -4.174958,0.082 -0.597558,-0.24146 -1.1445605,-0.60354 -1.7584023,-0.79994 -0.3069209,-0.0982 -0.6311259,-0.1537 -0.9521309,-0.12541 -0.3210049,0.0283 -0.6391946,0.14452 -0.8802403,0.35839 -0.2142063,0.19006 -0.3604201,0.45144 -0.427975,0.72973 -0.067555,0.27828 -0.058462,0.57258 0.00834,0.85104 0.1336031,0.55694 0.488237,1.03693 0.8921055,1.44303 1.1504831,1.15684 2.7533703,1.81879 4.3801673,1.94297 1.626796,0.12418 3.271387,-0.26846 4.73237,-0.9947 2.921964,-1.45247 5.035005,-4.1331 6.762463,-6.90139 2.344147,-3.75655 4.178568,-7.84486 6.898065,-11.33929 0.416494,-0.53518 0.880471,-1.07559 1.511906,-1.32291 0.323332,-0.12665 0.677808,-0.16877 1.023303,-0.13389 0.345495,0.0349 0.681858,0.14576 0.986631,0.31219 0.609545,0.33284 1.082908,0.88054 1.413888,1.4911 0.66196,1.22112 0.775024,2.65271 1.11189,4.00024 0.51039,2.04166 1.542514,3.90679 2.494083,5.78386 0.951569,1.87708 1.845415,3.83807 2.041632,5.9334 0.192804,2.05888 -0.314127,4.1581 -1.311247,5.96971 -0.997119,1.81161 -2.46999,3.34094 -4.169409,4.51913 -3.46848,2.40467 -7.736581,3.31555 -11.906248,3.96875 -1.89231,0.29644 -3.804306,0.55401 -5.617329,1.1718 -1.813023,0.61779 -3.546925,1.63249 -4.682522,3.17493 -0.253221,0.34394 -0.477997,0.71913 -0.574782,1.13512 -0.04839,0.208 -0.06381,0.42468 -0.0338,0.63612 0.03,0.21143 0.106258,0.4175 0.230607,0.59111 0.152108,0.21237 0.373342,0.37134 0.617559,0.46406 0.244218,0.0927 0.510556,0.12086 0.770839,0.0987 0.520566,-0.0443 1.004995,-0.28331 1.446424,-0.56276 0.798715,-0.50564 1.497886,-1.15248 2.267857,-1.70089 2.249176,-1.60198 5.091728,-2.31469 7.843006,-2.07887 1.687572,0.14464 3.329511,0.62909 4.91369,1.22842 1.794053,0.67873 3.530278,1.50775 5.197173,2.45684 0.905326,0.51547 1.836497,1.08124 2.876328,1.14507 0.519916,0.0319 1.057043,-0.0715 1.496202,-0.35162 0.21958,-0.14007 0.412617,-0.32314 0.557132,-0.53981 0.144514,-0.21668 0.239801,-0.46713 0.267511,-0.7261 0.03404,-0.3181 -0.03477,-0.64372 -0.177354,-0.9301 -0.142588,-0.28638 -0.357026,-0.53421 -0.608097,-0.73247 -0.502144,-0.39653 -1.135497,-0.5903 -1.765889,-0.69979 -0.767696,-0.13333 -1.558979,-0.15538 -2.301488,-0.39164 -0.371254,-0.11813 -0.728899,-0.29108 -1.027492,-0.54134 -0.298594,-0.25025 -0.536052,-0.58137 -0.63977,-0.9569 -0.135472,-0.49051 -0.03483,-1.02272 0.179563,-1.48422 0.214397,-0.4615 0.535626,-0.86392 0.859872,-1.25611 2.901335,-3.5093 6.323968,-6.63905 8.598958,-10.58333 2.595233,-4.49951 3.524461,-9.98618 2.301684,-15.0345 -1.222777,-5.04833 -4.648328,-9.57332 -9.294243,-11.8963 -2.811525,-1.40578 -6.009402,-2.00321 -9.145788,-1.79353 -3.136387,0.20969 -6.206175,1.21731 -8.902575,2.83296 z"
         style="fill:none;stroke:#000000;stroke-width:0.26458332px;stroke-linecap:butt;stroke-linejoin:miter;stroke-opacity:1" />
      <path
         transform="matrix(0.26458333,0,0,0.26458333,0,243.55415)"
         inkscape:connector-curvature="0"
         id="path12709"
         d="M 110.10509,18.558044 C 88.634473,18.713455 68.09563,29.203645 53.725957,44.871998 42.591973,56.507988 33.820811,70.213966 26.408011,84.45217 c -2.290062,3.975114 -3.49916,9.545446 -0.193127,13.332296 3.864999,4.519724 11.088675,3.746964 15.357143,0.2281 6.454333,-5.119203 8.481433,-13.598607 10.857283,-21.086775 2.86443,-9.930143 5.549404,-20.948425 13.795342,-27.899694 5.861096,-5.090858 15.289903,-6.798641 21.751532,-1.86384 4.799653,3.535501 6.680032,10.387652 4.031818,15.790909 -3.196032,7.256507 -8.080572,13.610239 -11.655565,20.678657 -5.3534,9.761222 -11.043232,20.466637 -21.306917,25.836517 -5.845609,3.08128 -13.02149,4.12679 -19.191218,1.37062 -3.701773,-1.3291 -7.738318,-4.41021 -11.806968,-2.59342 -3.145483,1.77401 -2.989282,6.16762 -0.979353,8.75 3.624854,5.23042 9.774671,8.49424 15.998884,9.35896 5.475681,0.22048 11.167256,0.40347 16.26324,-1.95878 13.612847,-5.38519 22.944457,-17.59892 30.192536,-29.805311 8.320343,-13.604114 15.234289,-28.143725 24.993939,-40.819998 2.21782,-2.887022 5.37667,-5.731785 9.29456,-5.215855 5.81393,0.07872 9.8117,5.46792 11.3221,10.596314 2.2912,7.187703 3.17445,14.831339 6.60758,21.643785 4.39661,10.164418 10.52885,19.763845 12.91087,30.673545 2.09185,11.72099 -1.35513,24.16917 -9.06599,33.2394 -8.89289,11.14201 -22.13251,17.77425 -35.67787,21.40579 -13.014875,3.70654 -26.647103,4.50837 -39.709268,7.99153 -8.375639,2.52076 -16.920821,7.11391 -21.172573,15.09138 -1.410953,2.56139 -0.770257,6.66045 2.527204,7.27678 5.045204,1.21988 9.037659,-3.10804 12.795723,-5.71782 7.298761,-5.801 16.159764,-9.91365 25.566636,-10.314 7.744193,-0.52678 15.503008,0.70101 22.771478,3.39972 10.37469,3.33337 19.78528,8.88399 29.53441,13.62401 4.05034,2.12971 10.57916,1.42702 12.31097,-3.38518 1.23311,-4.19489 -2.86517,-7.9491 -6.66504,-8.79534 -5.4072,-1.58739 -12.20655,-0.7543 -16.16002,-5.50712 -3.03201,-3.33023 -1.61374,-8.42046 1.07422,-11.52274 12.2659,-15.75685 28.12843,-29.07567 36.72015,-47.45605 9.81127,-20.23583 10.62524,-45.014705 0.45342,-65.282469 -8.23532,-16.713326 -23.60012,-30.185829 -41.81992,-34.739157 -5.87454,-1.544098 -11.95659,-2.283312 -18.03013,-2.21889 z"
         style="opacity:1;fill:#ccff00;fill-opacity:1;fill-rule:evenodd;stroke:#806600;stroke-width:0.35714287" />
      <path
         inkscape:original-d="m 38.624441,260.67883 c 0.08242,0.0633 0.283747,-0.1105 0.425225,-0.16536 0.141475,-0.0549 2.42561,-1.04757 3.638021,-1.57096 1.212408,-0.52339 0.330993,-0.16563 0.496093,-0.24805 0.1651,-0.0824 -0.03123,-0.5751 -0.04725,-0.86226 -0.01601,-0.28715 0.472736,0.28322 0.708708,0.42522 0.235968,0.14201 -0.03911,0.36197 -0.05906,0.54334 -0.01995,0.18138 0.118383,0.18085 0.177176,0.27167 0.0588,0.0908 0.370366,0.0155 0.555154,0.0236 0.184785,0.008 0.05539,0.54308 0.08268,0.81501 0.0273,0.27194 -0.558826,-0.25225 -0.838634,-0.37798 -0.27981,-0.12572 -0.32259,0.10998 -0.484282,0.16537 -0.161693,0.0554 -2.590448,1.10216 -3.886068,1.65364 -1.29562,0.55148 -0.26747,0.0942 -0.4016,0.14175 -0.134131,0.0475 -0.04698,0.54307 -0.07087,0.81501 -0.02389,0.27193 -0.251719,0.30684 -0.377976,0.46066 -0.126256,0.15381 -0.401333,-0.14988 -0.602398,-0.22443 -0.201064,-0.0745 -0.03911,-0.5436 -0.05906,-0.81501 -0.01995,-0.27141 0.220753,-0.22075 0.330729,-0.33073 0.10998,-0.10998 -0.141475,-0.29949 -0.212611,-0.44884 -0.07114,-0.14936 -0.487955,-0.079 -0.73233,-0.11812 -0.244371,-0.0391 -0.07848,-0.50424 -0.118115,-0.75596 -0.03964,-0.25171 0.409739,-0.142 0.614209,-0.21261 0.204473,-0.0706 0.393991,0.0864 0.59059,0.12993 0.196598,0.0436 0.01601,0.33047 0.02363,0.4961 0.0076,0.16563 0.165629,0.12572 0.248047,0.18898 z"
         inkscape:path-effect="#path-effect12717"
         inkscape:connector-curvature="0"
         id="path12715"
         d="m 38.624441,260.67883 c 0.143271,-0.0511 0.285089,-0.10622 0.425225,-0.16536 1.221266,-0.51536 2.332974,-1.33872 3.638021,-1.57096 0.09474,-0.0169 0.190979,-0.0307 0.280462,-0.0661 0.04474,-0.0177 0.08759,-0.0408 0.125036,-0.071 0.03745,-0.0302 0.06943,-0.0677 0.0906,-0.1109 0.03252,-0.0664 0.03816,-0.14341 0.02902,-0.21678 -0.0091,-0.0734 -0.03224,-0.14419 -0.05503,-0.21453 -0.02279,-0.0704 -0.04551,-0.14132 -0.05384,-0.21479 -0.0083,-0.0735 -0.0014,-0.15049 0.0326,-0.21616 0.02222,-0.0429 0.05557,-0.0799 0.09544,-0.10726 0.03987,-0.0273 0.08615,-0.0451 0.133938,-0.0524 0.09558,-0.0146 0.195532,0.0134 0.274268,0.0695 0.07874,0.0561 0.1367,0.13889 0.169971,0.22968 0.03327,0.0908 0.04265,0.1893 0.03509,0.28569 -0.0072,0.0912 -0.0291,0.18053 -0.04567,0.27052 -0.01657,0.09 -0.02781,0.18246 -0.01339,0.27282 0.0088,0.0553 0.02739,0.10934 0.05711,0.15681 0.02972,0.0475 0.07081,0.0882 0.120068,0.11486 0.08252,0.0446 0.181126,0.0473 0.274624,0.0394 0.0935,-0.008 0.187149,-0.0249 0.28053,-0.0158 0.100899,0.01 0.198951,0.0514 0.274087,0.11945 0.07514,0.0681 0.126488,0.16262 0.139548,0.26315 0.01306,0.10053 -0.01298,0.20618 -0.07378,0.2873 -0.0608,0.0811 -0.156194,0.13615 -0.257174,0.14511 -0.07781,0.007 -0.156237,-0.0127 -0.227324,-0.0451 -0.07109,-0.0324 -0.135708,-0.0772 -0.198788,-0.12332 -0.06308,-0.0461 -0.125272,-0.0938 -0.192998,-0.13271 -0.06773,-0.0389 -0.141796,-0.0691 -0.219524,-0.0769 -0.08644,-0.009 -0.173837,0.0108 -0.254447,0.0431 -0.08061,0.0324 -0.15541,0.0774 -0.229835,0.12223 -1.215116,0.73152 -2.479908,1.46833 -3.886068,1.65364 -0.07181,0.009 -0.144182,0.0175 -0.213841,0.0374 -0.06966,0.0199 -0.137287,0.0524 -0.187759,0.10437 -0.04898,0.0504 -0.07941,0.11686 -0.09424,0.18557 -0.01483,0.0687 -0.01481,0.13986 -0.0089,0.2099 0.01185,0.14007 0.04702,0.27974 0.03225,0.41954 -0.0111,0.10509 -0.05124,0.20744 -0.117347,0.28987 -0.06611,0.0824 -0.158334,0.1443 -0.260629,0.17079 -0.109214,0.0283 -0.227088,0.0158 -0.331695,-0.0264 -0.104606,-0.0422 -0.196294,-0.11319 -0.270703,-0.19799 -0.09824,-0.11195 -0.168259,-0.25135 -0.184077,-0.39945 -0.01582,-0.1481 0.02591,-0.30438 0.125017,-0.41556 0.05236,-0.0587 0.118306,-0.10333 0.179723,-0.15252 0.06142,-0.0492 0.120406,-0.10571 0.151006,-0.17821 0.03567,-0.0845 0.02783,-0.18451 -0.01382,-0.26625 -0.04165,-0.0817 -0.114952,-0.14535 -0.198793,-0.18259 -0.113813,-0.0506 -0.242151,-0.0538 -0.366648,-0.057 -0.124497,-0.003 -0.253067,-0.008 -0.365682,-0.0611 -0.135509,-0.064 -0.234977,-0.19844 -0.257714,-0.34656 -0.02274,-0.14812 0.03143,-0.30569 0.139599,-0.4094 0.07949,-0.0762 0.183448,-0.12255 0.289668,-0.15163 0.106219,-0.0291 0.216021,-0.0422 0.324541,-0.061 0.107159,-0.0185 0.215345,-0.0427 0.323556,-0.0319 0.0541,0.005 0.107789,0.0198 0.155117,0.0465 0.04733,0.0268 0.08807,0.0664 0.111917,0.11527 0.01837,0.0376 0.02635,0.0797 0.02815,0.12156 0.0018,0.0419 -0.0024,0.0837 -0.0073,0.1253 -0.0099,0.0832 -0.02257,0.16941 0.0028,0.24924 0.01678,0.0528 0.05015,0.1001 0.09419,0.13365 0.04404,0.0335 0.09854,0.0532 0.153862,0.0553 z"
         style="fill:#eeffaa;stroke:#eeffaa;stroke-width:0.26458332px;stroke-linecap:butt;stroke-linejoin:miter;stroke-opacity:1" />
    </g>
  </g>
</svg>
