<?xml version="1.0" encoding="UTF-8" standalone="no"?>
<!-- Created with Inkscape (http://www.inkscape.org/) -->

<svg
   xmlns:dc="http://purl.org/dc/elements/1.1/"
   xmlns:cc="http://creativecommons.org/ns#"
   xmlns:rdf="http://www.w3.org/1999/02/22-rdf-syntax-ns#"
   xmlns:svg="http://www.w3.org/2000/svg"
   xmlns="http://www.w3.org/2000/svg"
   xmlns:sodipodi="http://sodipodi.sourceforge.net/DTD/sodipodi-0.dtd"
   xmlns:inkscape="http://www.inkscape.org/namespaces/inkscape"
   width="220"
   height="220"
   viewBox="0 0 58.208335 58.208335"
   version="1.1"
   id="svg11975"
   inkscape:version="0.92.3 (2405546, 2018-03-11)"
   sodipodi:docname="yuggle.svg">
  <defs
     id="defs11969" />
  <sodipodi:namedview
     id="base"
     pagecolor="#ffffff"
     bordercolor="#666666"
     borderopacity="1.0"
     inkscape:pageopacity="0.0"
     inkscape:pageshadow="2"
     inkscape:zoom="2.8"
     inkscape:cx="36.389297"
     inkscape:cy="121.34223"
     inkscape:document-units="mm"
     inkscape:current-layer="layer4"
     showgrid="false"
     units="px"
     inkscape:window-width="1920"
     inkscape:window-height="1017"
     inkscape:window-x="-8"
     inkscape:window-y="-8"
     inkscape:window-maximized="1" />
  <metadata
     id="metadata11972">
    <rdf:RDF>
      <cc:Work
         rdf:about="">
        <dc:format>image/svg+xml</dc:format>
        <dc:type
           rdf:resource="http://purl.org/dc/dcmitype/StillImage" />
        <dc:title></dc:title>
      </cc:Work>
    </rdf:RDF>
  </metadata>
  <g
     inkscape:label="Layer 1"
     inkscape:groupmode="layer"
     id="layer1"
     transform="translate(0,-238.79165)" />
  <g
     inkscape:groupmode="layer"
     id="layer4"
     inkscape:label="Layer 2">
    <g
       id="g12189">
      <g
         id="g12121">
        <g
           style=""
           id="g12018"
           transform="translate(1.6063988,-242.7604)">
          <g
             id="g12012">
            <path
               style="fill:none;stroke:#000000;stroke-width:0.26458332px;stroke-linecap:butt;stroke-linejoin:miter;stroke-opacity:1"
               d="m 23.296,270.52851 c 5.33075,61.37317 13.530872,1.65617 12.711039,-2.11037"
               id="path11977"
               inkscape:connector-curvature="0"
               sodipodi:nodetypes="cc" />
            <path
               style="fill:none;stroke:#000000;stroke-width:0.26458332px;stroke-linecap:butt;stroke-linejoin:miter;stroke-opacity:1"
               d="M 36.007039,268.41814 C 78.595819,223.90658 29.258867,255.0779 26.970317,258.17975"
               id="path11977-7"
               inkscape:connector-curvature="0"
               sodipodi:nodetypes="cc" />
            <path
               style="fill:none;stroke:#000000;stroke-width:0.26458332px;stroke-linecap:butt;stroke-linejoin:miter;stroke-opacity:1"
               d="M 26.970317,258.17975 C -28.913701,232.25564 19.621112,269.36483 23.296,270.52851"
               id="path11977-2"
               inkscape:connector-curvature="0"
               sodipodi:nodetypes="cc" />
          </g>
        </g>
        <path
           style="opacity:1;fill:#ffff00;fill-opacity:1;fill-rule:evenodd;stroke:#999999;stroke-width:0.35714287"
           d="m 200.83021,7.8923831 c -8.8147,0.7549264 -16.93787,4.7508359 -24.90227,8.3128999 -19.84977,9.632001 -38.75684,21.173111 -56.83092,33.804776 -3.93992,2.592389 -7.35396,5.924461 -11.24742,8.543596 C 96.655252,53.96067 85.752744,48.56673 74.547512,43.944762 57.674362,36.948987 40.768911,29.665032 22.943073,25.437723 18.48073,24.677384 13.554748,23.294124 9.1909803,25.161496 7.3043561,26.008619 7.2476877,28.289432 8.0811868,29.91596 c 3.0796872,7.245509 8.9737422,12.808583 14.3051722,18.421692 17.533804,17.181114 36.9492,32.333928 56.862335,46.641235 4.81134,3.562218 10.059629,6.532203 15.035758,9.798263 1.205867,3.74949 0.846442,7.88038 1.469157,11.76811 2.461232,23.88826 4.757001,47.90302 10.200431,71.33605 1.82625,6.60796 3.33053,13.70745 7.69565,19.18448 1.43045,1.90719 4.41246,1.84339 5.74428,-0.15206 5.43489,-6.70671 7.37319,-15.39326 9.77118,-23.49465 6.32849,-24.97645 10.21315,-50.5532 12.32667,-76.22058 0.23422,-3.28702 0.50156,-6.65027 0.17475,-9.908795 3.13606,-4.491178 7.37887,-8.152414 10.97691,-12.286068 16.15122,-17.44845 32.36276,-35.017664 45.87728,-54.637467 3.50767,-5.570906 7.60081,-11.325165 8.29438,-18.050656 0.31372,-2.6398028 -2.23068,-4.4888625 -4.67773,-4.3966242 -0.43499,-0.031523 -0.87128,-0.039362 -1.3072,-0.026507 z"
           id="path12049"
           inkscape:connector-curvature="0"
           transform="scale(0.26458333)" />
        <g
           id="g12047"
           transform="translate(-0.89433619,-237.46202)">
          <path
             d="m 35.246277,255.80058 c 9.24e-4,0.005 -0.008,0.003 -0.0097,0.002 -0.0129,-0.008 -0.0056,-0.0265 0.0033,-0.034 0.02326,-0.0196 0.05718,-0.004 0.07113,0.0191 0.02674,0.0437 -0.0014,0.0982 -0.04342,0.11939 -0.06873,0.0346 -0.148813,-0.009 -0.177892,-0.0751 -0.04315,-0.0981 0.01893,-0.20827 0.113667,-0.24599 0.131723,-0.0525 0.276147,0.031 0.323219,0.15862 0.06246,0.1693 -0.04517,0.35206 -0.20966,0.40917 -0.210748,0.0732 -0.435715,-0.0612 -0.503555,-0.26653 -0.08457,-0.25592 0.07918,-0.52685 0.329033,-0.60608 0.304716,-0.0966 0.62523,0.0989 0.716514,0.39697 0.109345,0.35704 -0.120363,0.73068 -0.470189,0.83466 -0.412806,0.1227 -0.843016,-0.14351 -0.960329,-0.54856 -0.136686,-0.47193 0.168296,-0.96209 0.631946,-1.09336 0.534367,-0.15129 1.087765,0.19469 1.233608,0.72025 0.166507,0.60003 -0.222648,1.21991 -0.813372,1.38094 -0.668871,0.18232 -1.358412,-0.25215 -1.535215,-0.91122 -0.198738,-0.74084 0.283154,-1.50317 1.013705,-1.69634 0.815873,-0.21573 1.65407,0.31565 1.864197,1.12076 0.233311,0.89394 -0.349593,1.81103 -1.232307,2.03869 -0.974993,0.25146 -1.973974,-0.38497 -2.219734,-1.34828 -0.270171,-1.05899 0.421777,-2.14281 1.468631,-2.40724 1.145897,-0.28944 2.31746,0.45998 2.601108,1.59329 0.309267,1.23568 -0.499542,2.49786 -1.722195,2.80128"
             sodipodi:t0="0"
             sodipodi:argument="-23.75934"
             sodipodi:radius="2.4091351"
             sodipodi:revolution="6"
             sodipodi:expansion="1.73"
             sodipodi:cy="255.80058"
             sodipodi:cx="35.246277"
             id="path12022"
             style="fill:none;fill-rule:evenodd;stroke:#000000;stroke-width:0.26458332"
             sodipodi:type="spiral" />
          <path
             d="m 24.173702,257.04227 c 9.25e-4,0.005 -0.008,0.003 -0.0097,0.002 -0.0129,-0.008 -0.0056,-0.0265 0.0033,-0.034 0.02326,-0.0196 0.05718,-0.004 0.07113,0.0191 0.02674,0.0437 -0.0014,0.0982 -0.04342,0.1194 -0.06873,0.0346 -0.148812,-0.009 -0.177892,-0.0751 -0.04315,-0.0981 0.01893,-0.20828 0.113667,-0.246 0.131723,-0.0524 0.276148,0.031 0.323219,0.15862 0.06247,0.16931 -0.04517,0.35206 -0.209659,0.40918 -0.210749,0.0732 -0.435716,-0.0613 -0.503556,-0.26654 -0.08457,-0.25592 0.07918,-0.52684 0.329033,-0.60608 0.304717,-0.0966 0.62523,0.0989 0.716514,0.39697 0.109346,0.35704 -0.120362,0.73068 -0.470189,0.83466 -0.412806,0.1227 -0.843016,-0.14351 -0.960328,-0.54855 -0.136686,-0.47194 0.168295,-0.96209 0.631945,-1.09336 0.534367,-0.1513 1.087765,0.19468 1.233608,0.72025 0.166507,0.60003 -0.222648,1.21991 -0.813371,1.38093 -0.668871,0.18233 -1.358413,-0.25215 -1.535216,-0.91122 -0.198737,-0.74083 0.283154,-1.50316 1.013705,-1.69634 0.815873,-0.21573 1.65407,0.31565 1.864198,1.12076 0.233311,0.89394 -0.349593,1.81104 -1.232308,2.0387 -0.974993,0.25146 -1.973974,-0.38498 -2.219734,-1.34829 -0.270171,-1.05899 0.421777,-2.14281 1.468631,-2.40723 1.145897,-0.28944 2.31746,0.45997 2.601108,1.59328 0.309267,1.23568 -0.499542,2.49787 -1.722195,2.80129"
             sodipodi:t0="0"
             sodipodi:argument="-23.75934"
             sodipodi:radius="2.4091351"
             sodipodi:revolution="6"
             sodipodi:expansion="1.73"
             sodipodi:cy="257.04227"
             sodipodi:cx="24.173702"
             id="path12022-4"
             style="fill:none;fill-rule:evenodd;stroke:#000000;stroke-width:0.26458332"
             sodipodi:type="spiral" />
        </g>
        <path
           style="fill:none;stroke:#806600;stroke-width:0.26458332px;stroke-linecap:butt;stroke-linejoin:miter;stroke-opacity:1"
           d="m 30.001003,25.400998 c 1.588651,29.344926 0.601358,28.263754 0.601358,28.263754"
           id="path12055"
           inkscape:connector-curvature="0" />
        <path
           style="fill:none;stroke:#806600;stroke-width:0.19754429px;stroke-linecap:butt;stroke-linejoin:miter;stroke-opacity:1"
           d="M 36.614907,16.865315 C 53.326537,2.7680647 53.331802,3.6727474 53.331802,3.6727474"
           id="path12055-3"
           inkscape:connector-curvature="0" />
        <path
           style="fill:none;stroke:#806600;stroke-width:0.18947463px;stroke-linecap:butt;stroke-linejoin:miter;stroke-opacity:1"
           d="M 21.497341,17.977211 C 3.6950323,7.1081358 3.8652093,7.9971607 3.8652093,7.9971607"
           id="path12055-3-7"
           inkscape:connector-curvature="0" />
        <path
           style="opacity:1;fill:#ff0000;fill-opacity:1;fill-rule:evenodd;stroke:#ff0000;stroke-width:0.26458332"
           id="path12089"
           d="m 27.580547,24.313679 c 0.05531,-0.111498 0.10145,-0.227436 0.151361,-0.341457 0.07836,-0.187723 0.175847,-0.365972 0.276135,-0.542592 0.103751,-0.184968 0.222961,-0.359663 0.350644,-0.528717 0.130852,-0.170823 0.27618,-0.33003 0.432057,-0.478186 0.145896,-0.140198 0.302958,-0.26776 0.467529,-0.385228 0.142684,-0.09745 0.295153,-0.179514 0.448585,-0.258529 0.114999,-0.05684 0.237371,-0.09103 0.363495,-0.111227 0.09861,-0.01533 0.197533,-0.0071 0.292637,0.02167 0.08734,0.02831 0.155118,0.08934 0.216871,0.154777 0.0745,0.0885 0.123555,0.192204 0.167325,0.298216 0.07101,0.160041 0.128805,0.325217 0.189902,0.489174 0.08053,0.202278 0.1488,0.408992 0.218073,0.615281 0.06682,0.19917 0.125812,0.401169 0.174516,0.605534 0.03872,0.176162 0.07738,0.352496 0.105214,0.530753 0.01521,0.123882 0.02484,0.248258 0.03962,0.372204 0,0 -0.04166,0.155489 -0.04166,0.155489 v 0 c -0.01019,-0.133787 -0.01831,-0.267737 -0.03184,-0.401214 -0.025,-0.184824 -0.05963,-0.368178 -0.09999,-0.550254 -0.04698,-0.207131 -0.105402,-0.411562 -0.172495,-0.613085 -0.06835,-0.204965 -0.136551,-0.410015 -0.219572,-0.609669 -0.06104,-0.152835 -0.130874,-0.301626 -0.200173,-0.450849 -0.04557,-0.100312 -0.096,-0.199767 -0.171937,-0.281009 -0.0647,-0.06296 -0.129167,-0.124887 -0.216964,-0.154424 -0.09439,-0.02978 -0.191061,-0.04291 -0.290139,-0.03099 -0.124026,0.01366 -0.2442,0.04242 -0.358709,0.09336 -0.152215,0.0687 -0.302353,0.143427 -0.44228,0.235006 -0.162632,0.11609 -0.319919,0.240113 -0.465408,0.377304 -0.15581,0.147893 -0.301521,0.305749 -0.431718,0.476921 -0.127608,0.170586 -0.248152,0.345902 -0.351641,0.532437 -0.102587,0.180279 -0.202065,0.362472 -0.279546,0.555317 -0.05595,0.135021 -0.11145,0.270215 -0.168341,0.404839 0,0 0.04846,-0.180852 0.04846,-0.180852 z"
           inkscape:connector-curvature="0" />
        <path
           style="opacity:1;fill:#ff0000;fill-opacity:1;fill-rule:evenodd;stroke:#ff0000;stroke-width:0.26458332"
           id="path12099"
           d="m 28.455255,22.946792 c 0.04406,-0.05133 0.07981,-0.108923 0.121435,-0.162123 0.02593,-0.0344 0.0535,-0.06804 0.08451,-0.09801 0.02656,-0.03027 0.05482,-0.059 0.08459,-0.08609 0.02698,-0.02605 0.05261,-0.05355 0.08027,-0.07889 0.02913,-0.02883 0.05271,-0.06225 0.08078,-0.092 0.03199,-0.03351 0.06317,-0.06805 0.09314,-0.103419 0.03198,-0.02854 0.06159,-0.05944 0.09331,-0.08829 0.03687,-0.03406 0.07659,-0.06484 0.112617,-0.09979 0.02856,-0.02893 0.05942,-0.05373 0.09372,-0.07548 0.04134,-0.02332 0.08566,-0.0412 0.131493,-0.05339 0.0475,-0.01334 0.09436,-0.02875 0.141795,-0.04228 0.04651,-0.01017 0.09165,-0.02411 0.135628,-0.04207 0.03798,-0.01174 0.07495,-0.02603 0.112239,-0.03993 0.04163,-0.01739 0.08601,-0.02374 0.130604,-0.0275 0.04511,-0.0023 0.09042,-0.0056 0.135109,0.0022 0.03971,0.0093 0.08044,0.01167 0.119907,0.02194 0.03834,0.0084 0.07625,0.01702 0.114001,0.02779 0.03852,0.01271 0.07344,0.03157 0.107154,0.05372 0.03227,0.02078 0.0524,0.05211 0.07608,0.08112 0.02162,0.02889 0.04502,0.05686 0.07097,0.082 0.02217,0.02554 0.04924,0.04621 0.06797,0.07456 0.0226,0.0303 0.04145,0.06306 0.06204,0.09472 0.01836,0.03197 0.03603,0.06412 0.05358,0.09656 0.01855,0.03281 0.03119,0.06718 0.04321,0.102798 0.01535,0.04399 0.02141,0.09022 0.03237,0.13536 0.01098,0.04692 0.01479,0.09481 0.02477,0.141919 0.01193,0.04648 0.01196,0.0947 0.01968,0.141753 0.01225,0.04505 0.01188,0.09252 0.02283,0.137618 0.0059,0.03747 0.02249,0.06907 0.04228,0.100658 0.0026,0.0053 0.0053,0.01055 0.0079,0.01582 l -0.05046,0.188339 0.4016,0.755952 c -0.0027,-0.0051 -0.407,-0.766252 -0.4096,-0.771402 -0.02029,-0.03258 -0.03527,-0.06626 -0.04121,-0.104628 -0.0087,-0.04648 -0.01037,-0.09418 -0.02212,-0.140227 -0.008,-0.04709 -0.0077,-0.09543 -0.01963,-0.141995 -0.01005,-0.04707 -0.01392,-0.09488 -0.02479,-0.141804 -0.01098,-0.04408 -0.0172,-0.08934 -0.03327,-0.131991 -0.01339,-0.03407 -0.02612,-0.06792 -0.04395,-0.100049 -0.01767,-0.03285 -0.03468,-0.06592 -0.0531,-0.09836 -0.02008,-0.03131 -0.04029,-0.06251 -0.06273,-0.09218 -0.0191,-0.02809 -0.04597,-0.049 -0.06792,-0.07475 -0.02588,-0.02594 -0.04881,-0.05482 -0.07032,-0.08443 -0.02328,-0.02902 -0.04627,-0.05756 -0.07637,-0.08006 -0.03342,-0.02302 -0.06662,-0.04518 -0.107,-0.05429 -0.038,-0.01016 -0.075,-0.02175 -0.113982,-0.02786 -0.03947,-0.01121 -0.0794,-0.01499 -0.119684,-0.02278 -0.04458,-0.0098 -0.08877,-0.0097 -0.134306,-0.0052 -0.04501,0.0042 -0.08986,0.01106 -0.13132,0.03019 -0.03632,0.01595 -0.07413,0.02787 -0.112065,0.03927 -0.04394,0.01594 -0.08941,0.02753 -0.134728,0.03873 -0.04765,0.01308 -0.09448,0.02893 -0.141922,0.04275 -0.04644,0.01199 -0.09075,0.03071 -0.131988,0.05524 -0.03289,0.02345 -0.06383,0.04866 -0.09379,0.07573 -0.03721,0.03307 -0.07812,0.06191 -0.112255,0.09844 -0.03168,0.03028 -0.06182,0.06199 -0.09418,0.09157 -0.03025,0.03388 -0.0625,0.06595 -0.0923,0.100276 -0.02859,0.03175 -0.05306,0.06668 -0.08234,0.09782 -0.02707,0.02431 -0.05241,0.05051 -0.07925,0.07509 -0.03124,0.02738 -0.05879,0.05794 -0.08554,0.08964 -0.02915,0.02695 -0.05588,0.0567 -0.08155,0.08694 -0.04631,0.05279 -0.911166,1.292333 -0.948609,1.351642 l 0.874686,-1.366852 z"
           inkscape:connector-curvature="0"
           sodipodi:nodetypes="ccccccccccccccccccccccccccccccccccccccccccccccccccccccccccccccccc" />
      </g>
      <path
         inkscape:connector-curvature="0"
         id="path12127"
         d="M 41.735806,7.8029707 C 38.745728,9.465053 40.78366,9.7156181 40.78366,9.7156181 c 0,0 2.305198,-0.050113 2.639285,-1.8124214 0.334087,-1.7623084 -1.687139,-0.100226 -1.687139,-0.100226 z"
         style="fill:#aa8800;stroke:#aa8800;stroke-width:0.26458332px;stroke-linecap:butt;stroke-linejoin:miter;stroke-opacity:1" />
      <path
         inkscape:connector-curvature="0"
         id="path12127-2"
         d="m 33.072776,48.315775 c -0.56691,-1.679934 -0.820919,-0.640107 -0.820919,-0.640107 0,0 -0.13292,1.20155 0.660262,1.509097 0.793181,0.307544 0.160657,-0.86899 0.160657,-0.86899 z"
         style="fill:#aa8800;stroke:#aa8800;stroke-width:0.13114178px;stroke-linecap:butt;stroke-linejoin:miter;stroke-opacity:1" />
      <path
         inkscape:connector-curvature="0"
         id="path12127-2-1"
         d="m 18.940918,21.109618 c -1.287911,-1.138968 -0.805563,-0.203319 -0.805563,-0.203319 0,0 0.64095,1.019931 1.23553,0.965563 0.594579,-0.05437 -0.429967,-0.762244 -0.429967,-0.762244 z"
         style="fill:#aa8800;stroke:#aa8800;stroke-width:0.10533845px;stroke-linecap:butt;stroke-linejoin:miter;stroke-opacity:1" />
      <path
         inkscape:connector-curvature="0"
         id="path12165"
         d="m 27.562169,39.599692 c -0.267268,1.637025 1.002261,0.334087 1.002261,0.334087 0,0 -0.367496,-2.80633 -0.634765,-1.536801 -0.267269,1.269532 -0.367496,1.202714 -0.367496,1.202714 z"
         style="fill:#aa8800;stroke:#aa8800;stroke-width:0.26458332px;stroke-linecap:butt;stroke-linejoin:miter;stroke-opacity:1" />
      <path
         inkscape:connector-curvature="0"
         id="path12167"
         d="m 35.59692,35.532108 c 0,0 -0.02871,-1.153574 -0.565472,-0.677723 -0.536756,0.47585 -0.899054,1.62464 -0.899054,1.62464 0,0 0.821263,1.702768 1.105738,0.38175 0.284476,-1.321013 0.358788,-1.328668 0.358788,-1.328668 z"
         style="fill:#786721;stroke:#786721;stroke-width:0.26458332px;stroke-linecap:butt;stroke-linejoin:miter;stroke-opacity:1" />
    </g>
  </g>
</svg>
