<?xml version="1.0" encoding="UTF-8" standalone="no"?>
<!-- Created with Inkscape (http://www.inkscape.org/) -->

<svg
   xmlns:dc="http://purl.org/dc/elements/1.1/"
   xmlns:cc="http://creativecommons.org/ns#"
   xmlns:rdf="http://www.w3.org/1999/02/22-rdf-syntax-ns#"
   xmlns:svg="http://www.w3.org/2000/svg"
   xmlns="http://www.w3.org/2000/svg"
   xmlns:sodipodi="http://sodipodi.sourceforge.net/DTD/sodipodi-0.dtd"
   xmlns:inkscape="http://www.inkscape.org/namespaces/inkscape"
   width="201"
   height="201"
   viewBox="0 0 53.181249 53.181252"
   version="1.1"
   id="svg9832"
   sodipodi:docname="zeen.svg"
   inkscape:version="0.92.3 (2405546, 2018-03-11)">
  <defs
     id="defs9826">
    <inkscape:path-effect
       effect="spiro"
       id="path-effect2530"
       is_visible="true" />
    <inkscape:path-effect
       effect="spiro"
       id="path-effect2500"
       is_visible="true" />
    <inkscape:path-effect
       effect="spiro"
       id="path-effect2452"
       is_visible="true" />
    <inkscape:path-effect
       effect="spiro"
       id="path-effect2448"
       is_visible="true" />
    <inkscape:path-effect
       effect="spiro"
       id="path-effect2444"
       is_visible="true" />
    <inkscape:path-effect
       effect="spiro"
       id="path-effect2440"
       is_visible="true" />
    <inkscape:path-effect
       effect="spiro"
       id="path-effect2436"
       is_visible="true" />
    <inkscape:path-effect
       effect="spiro"
       id="path-effect2432"
       is_visible="true" />
    <inkscape:path-effect
       effect="spiro"
       id="path-effect2398"
       is_visible="true" />
    <inkscape:path-effect
       effect="spiro"
       id="path-effect2394"
       is_visible="true" />
    <inkscape:path-effect
       effect="spiro"
       id="path-effect2390"
       is_visible="true" />
    <inkscape:path-effect
       effect="spiro"
       id="path-effect2344"
       is_visible="true" />
    <inkscape:path-effect
       effect="spiro"
       id="path-effect2340"
       is_visible="true" />
    <inkscape:path-effect
       effect="spiro"
       id="path-effect2336"
       is_visible="true" />
    <inkscape:path-effect
       effect="spiro"
       id="path-effect2332"
       is_visible="true" />
    <inkscape:path-effect
       effect="spiro"
       id="path-effect2310"
       is_visible="true" />
    <inkscape:path-effect
       effect="spiro"
       id="path-effect2270"
       is_visible="true" />
    <inkscape:path-effect
       effect="spiro"
       id="path-effect2266"
       is_visible="true" />
    <inkscape:path-effect
       effect="spiro"
       id="path-effect2262"
       is_visible="true" />
    <inkscape:path-effect
       effect="spiro"
       id="path-effect2258"
       is_visible="true" />
    <inkscape:path-effect
       effect="spiro"
       id="path-effect2227"
       is_visible="true" />
    <inkscape:path-effect
       effect="spiro"
       id="path-effect2093"
       is_visible="true" />
    <inkscape:path-effect
       effect="spiro"
       id="path-effect2089"
       is_visible="true" />
    <inkscape:path-effect
       effect="spiro"
       id="path-effect2085"
       is_visible="true" />
    <inkscape:path-effect
       effect="spiro"
       id="path-effect2081"
       is_visible="true" />
    <inkscape:path-effect
       effect="spiro"
       id="path-effect2077"
       is_visible="true" />
    <inkscape:path-effect
       effect="spiro"
       id="path-effect2073"
       is_visible="true" />
    <inkscape:path-effect
       effect="spiro"
       id="path-effect2069"
       is_visible="true" />
    <inkscape:path-effect
       effect="spiro"
       id="path-effect2065"
       is_visible="true" />
    <inkscape:path-effect
       effect="spiro"
       id="path-effect1963"
       is_visible="true" />
    <inkscape:path-effect
       effect="spiro"
       id="path-effect1959"
       is_visible="true" />
    <inkscape:path-effect
       effect="spiro"
       id="path-effect1955"
       is_visible="true" />
    <inkscape:path-effect
       effect="spiro"
       id="path-effect1951"
       is_visible="true" />
    <inkscape:path-effect
       effect="spiro"
       id="path-effect1947"
       is_visible="true" />
    <inkscape:path-effect
       effect="spiro"
       id="path-effect1943"
       is_visible="true" />
    <inkscape:path-effect
       effect="spiro"
       id="path-effect1939"
       is_visible="true" />
    <inkscape:path-effect
       effect="spiro"
       id="path-effect1935"
       is_visible="true" />
    <inkscape:path-effect
       effect="spiro"
       id="path-effect1880"
       is_visible="true" />
    <inkscape:path-effect
       effect="spiro"
       id="path-effect1876"
       is_visible="true" />
    <inkscape:path-effect
       effect="spiro"
       id="path-effect1868"
       is_visible="true" />
    <inkscape:path-effect
       effect="spiro"
       id="path-effect1864"
       is_visible="true" />
    <inkscape:path-effect
       effect="spiro"
       id="path-effect1136"
       is_visible="true" />
    <inkscape:path-effect
       effect="spiro"
       id="path-effect1088"
       is_visible="true" />
    <inkscape:path-effect
       effect="spiro"
       id="path-effect1084"
       is_visible="true" />
    <inkscape:path-effect
       effect="spiro"
       id="path-effect1080"
       is_visible="true" />
    <inkscape:path-effect
       effect="spiro"
       id="path-effect1076"
       is_visible="true" />
    <inkscape:path-effect
       effect="spiro"
       id="path-effect1072"
       is_visible="true" />
    <inkscape:path-effect
       effect="spiro"
       id="path-effect1064"
       is_visible="true" />
    <inkscape:path-effect
       effect="spiro"
       id="path-effect1060"
       is_visible="true" />
    <inkscape:path-effect
       effect="spiro"
       id="path-effect1046"
       is_visible="true" />
    <inkscape:path-effect
       effect="spiro"
       id="path-effect1042"
       is_visible="true" />
    <inkscape:path-effect
       effect="spiro"
       id="path-effect1038"
       is_visible="true" />
    <inkscape:path-effect
       effect="spiro"
       id="path-effect1003"
       is_visible="true" />
    <inkscape:path-effect
       effect="spiro"
       id="path-effect999"
       is_visible="true" />
    <inkscape:path-effect
       effect="spiro"
       id="path-effect995"
       is_visible="true" />
    <inkscape:path-effect
       effect="spiro"
       id="path-effect991"
       is_visible="true" />
    <inkscape:path-effect
       effect="spiro"
       id="path-effect981"
       is_visible="true" />
    <inkscape:path-effect
       effect="spiro"
       id="path-effect977"
       is_visible="true" />
    <inkscape:path-effect
       effect="spiro"
       id="path-effect973"
       is_visible="true" />
    <inkscape:path-effect
       effect="spiro"
       id="path-effect969"
       is_visible="true" />
    <inkscape:path-effect
       effect="spiro"
       id="path-effect965"
       is_visible="true" />
    <inkscape:path-effect
       effect="spiro"
       id="path-effect953"
       is_visible="true" />
    <inkscape:path-effect
       effect="spiro"
       id="path-effect949"
       is_visible="true" />
    <inkscape:path-effect
       effect="spiro"
       id="path-effect945"
       is_visible="true" />
    <inkscape:path-effect
       effect="spiro"
       id="path-effect941"
       is_visible="true" />
    <inkscape:path-effect
       effect="spiro"
       id="path-effect16515"
       is_visible="true" />
    <inkscape:path-effect
       effect="spiro"
       id="path-effect16511"
       is_visible="true" />
    <inkscape:path-effect
       effect="spiro"
       id="path-effect16507"
       is_visible="true" />
    <inkscape:path-effect
       effect="spiro"
       id="path-effect16503"
       is_visible="true" />
    <inkscape:path-effect
       effect="spiro"
       id="path-effect16499"
       is_visible="true" />
    <inkscape:path-effect
       effect="spiro"
       id="path-effect16495"
       is_visible="true" />
    <inkscape:path-effect
       effect="spiro"
       id="path-effect16491"
       is_visible="true" />
    <inkscape:path-effect
       effect="spiro"
       id="path-effect16487"
       is_visible="true" />
    <inkscape:path-effect
       effect="spiro"
       id="path-effect16483"
       is_visible="true" />
    <inkscape:path-effect
       effect="spiro"
       id="path-effect16479"
       is_visible="true" />
    <inkscape:path-effect
       effect="spiro"
       id="path-effect16475"
       is_visible="true" />
    <inkscape:path-effect
       effect="spiro"
       id="path-effect16471"
       is_visible="true" />
    <inkscape:path-effect
       effect="spiro"
       id="path-effect16467"
       is_visible="true" />
    <inkscape:path-effect
       effect="spiro"
       id="path-effect16463"
       is_visible="true" />
    <inkscape:path-effect
       effect="spiro"
       id="path-effect16459"
       is_visible="true" />
    <inkscape:path-effect
       effect="spiro"
       id="path-effect16451"
       is_visible="true" />
    <inkscape:path-effect
       effect="spiro"
       id="path-effect16447"
       is_visible="true" />
    <inkscape:path-effect
       effect="spiro"
       id="path-effect16443"
       is_visible="true" />
    <inkscape:path-effect
       effect="spiro"
       id="path-effect16439"
       is_visible="true" />
    <inkscape:path-effect
       effect="spiro"
       id="path-effect16429"
       is_visible="true" />
    <inkscape:path-effect
       effect="spiro"
       id="path-effect16392"
       is_visible="true" />
    <inkscape:path-effect
       effect="spiro"
       id="path-effect16378"
       is_visible="true" />
    <inkscape:path-effect
       effect="spiro"
       id="path-effect16342"
       is_visible="true" />
    <inkscape:path-effect
       effect="spiro"
       id="path-effect16338"
       is_visible="true" />
    <inkscape:path-effect
       effect="spiro"
       id="path-effect16342-5"
       is_visible="true" />
    <inkscape:path-effect
       effect="spiro"
       id="path-effect16392-1"
       is_visible="true" />
    <inkscape:path-effect
       effect="spiro"
       id="path-effect1136-5"
       is_visible="true" />
    <inkscape:path-effect
       effect="spiro"
       id="path-effect1136-7"
       is_visible="true" />
    <inkscape:path-effect
       effect="spiro"
       id="path-effect1136-78"
       is_visible="true" />
    <inkscape:path-effect
       effect="spiro"
       id="path-effect1136-6"
       is_visible="true" />
    <inkscape:path-effect
       effect="spiro"
       id="path-effect1136-4"
       is_visible="true" />
    <inkscape:path-effect
       effect="spiro"
       id="path-effect1136-0"
       is_visible="true" />
    <inkscape:path-effect
       effect="spiro"
       id="path-effect1136-1"
       is_visible="true" />
    <inkscape:path-effect
       effect="spiro"
       id="path-effect1136-58"
       is_visible="true" />
    <inkscape:path-effect
       effect="spiro"
       id="path-effect1136-51"
       is_visible="true" />
    <inkscape:path-effect
       effect="spiro"
       id="path-effect1136-2"
       is_visible="true" />
    <inkscape:path-effect
       effect="spiro"
       id="path-effect1136-9"
       is_visible="true" />
    <inkscape:path-effect
       effect="spiro"
       id="path-effect1136-76"
       is_visible="true" />
    <inkscape:path-effect
       effect="spiro"
       id="path-effect1136-98"
       is_visible="true" />
    <inkscape:path-effect
       effect="spiro"
       id="path-effect1136-66"
       is_visible="true" />
    <inkscape:path-effect
       effect="spiro"
       id="path-effect1136-75"
       is_visible="true" />
    <inkscape:path-effect
       effect="spiro"
       id="path-effect1136-3"
       is_visible="true" />
    <inkscape:path-effect
       effect="spiro"
       id="path-effect1136-8"
       is_visible="true" />
    <inkscape:path-effect
       effect="spiro"
       id="path-effect1136-67"
       is_visible="true" />
    <inkscape:path-effect
       effect="spiro"
       id="path-effect1136-39"
       is_visible="true" />
    <inkscape:path-effect
       effect="spiro"
       id="path-effect1136-14"
       is_visible="true" />
    <inkscape:path-effect
       effect="spiro"
       id="path-effect1136-15"
       is_visible="true" />
    <inkscape:path-effect
       effect="spiro"
       id="path-effect1136-397"
       is_visible="true" />
    <inkscape:path-effect
       effect="spiro"
       id="path-effect1136-143"
       is_visible="true" />
    <inkscape:path-effect
       effect="spiro"
       id="path-effect1136-49"
       is_visible="true" />
    <inkscape:path-effect
       effect="spiro"
       id="path-effect1136-44"
       is_visible="true" />
    <inkscape:path-effect
       effect="spiro"
       id="path-effect1136-753"
       is_visible="true" />
    <inkscape:path-effect
       effect="spiro"
       id="path-effect1136-45"
       is_visible="true" />
    <inkscape:path-effect
       effect="spiro"
       id="path-effect945-3"
       is_visible="true" />
    <inkscape:path-effect
       effect="spiro"
       id="path-effect949-3"
       is_visible="true" />
    <inkscape:path-effect
       effect="spiro"
       id="path-effect941-6"
       is_visible="true" />
    <inkscape:path-effect
       effect="spiro"
       id="path-effect953-6"
       is_visible="true" />
    <inkscape:path-effect
       effect="spiro"
       id="path-effect1136-35"
       is_visible="true" />
    <inkscape:path-effect
       effect="spiro"
       id="path-effect1136-5-2"
       is_visible="true" />
    <inkscape:path-effect
       effect="spiro"
       id="path-effect1136-7-1"
       is_visible="true" />
    <inkscape:path-effect
       effect="spiro"
       id="path-effect1136-78-0"
       is_visible="true" />
    <inkscape:path-effect
       effect="spiro"
       id="path-effect1136-6-7"
       is_visible="true" />
    <inkscape:path-effect
       effect="spiro"
       id="path-effect1136-4-6"
       is_visible="true" />
    <inkscape:path-effect
       effect="spiro"
       id="path-effect1136-0-1"
       is_visible="true" />
    <inkscape:path-effect
       effect="spiro"
       id="path-effect1136-1-5"
       is_visible="true" />
    <inkscape:path-effect
       effect="spiro"
       id="path-effect1136-58-9"
       is_visible="true" />
    <inkscape:path-effect
       effect="spiro"
       id="path-effect1136-51-8"
       is_visible="true" />
    <inkscape:path-effect
       effect="spiro"
       id="path-effect1136-2-6"
       is_visible="true" />
    <inkscape:path-effect
       effect="spiro"
       id="path-effect1136-9-7"
       is_visible="true" />
    <inkscape:path-effect
       effect="spiro"
       id="path-effect1136-76-9"
       is_visible="true" />
    <inkscape:path-effect
       effect="spiro"
       id="path-effect1136-98-2"
       is_visible="true" />
    <inkscape:path-effect
       effect="spiro"
       id="path-effect1136-66-6"
       is_visible="true" />
    <inkscape:path-effect
       effect="spiro"
       id="path-effect1136-75-3"
       is_visible="true" />
    <inkscape:path-effect
       effect="spiro"
       id="path-effect1136-3-2"
       is_visible="true" />
    <inkscape:path-effect
       effect="spiro"
       id="path-effect1136-8-4"
       is_visible="true" />
    <inkscape:path-effect
       effect="spiro"
       id="path-effect1136-67-5"
       is_visible="true" />
    <inkscape:path-effect
       effect="spiro"
       id="path-effect1136-39-2"
       is_visible="true" />
    <inkscape:path-effect
       effect="spiro"
       id="path-effect1136-14-4"
       is_visible="true" />
    <inkscape:path-effect
       effect="spiro"
       id="path-effect1136-15-3"
       is_visible="true" />
    <inkscape:path-effect
       effect="spiro"
       id="path-effect1136-397-5"
       is_visible="true" />
    <inkscape:path-effect
       effect="spiro"
       id="path-effect1136-143-1"
       is_visible="true" />
    <inkscape:path-effect
       effect="spiro"
       id="path-effect1136-49-5"
       is_visible="true" />
    <inkscape:path-effect
       effect="spiro"
       id="path-effect1136-44-3"
       is_visible="true" />
    <inkscape:path-effect
       effect="spiro"
       id="path-effect1136-753-3"
       is_visible="true" />
    <inkscape:path-effect
       effect="spiro"
       id="path-effect1136-45-3"
       is_visible="true" />
    <inkscape:path-effect
       effect="spiro"
       id="path-effect965-7"
       is_visible="true" />
    <inkscape:path-effect
       effect="spiro"
       id="path-effect969-1"
       is_visible="true" />
    <inkscape:path-effect
       effect="spiro"
       id="path-effect973-4"
       is_visible="true" />
    <inkscape:path-effect
       effect="spiro"
       id="path-effect977-5"
       is_visible="true" />
    <inkscape:path-effect
       effect="spiro"
       id="path-effect981-2"
       is_visible="true" />
    <inkscape:path-effect
       effect="spiro"
       id="path-effect991-8"
       is_visible="true" />
    <inkscape:path-effect
       effect="spiro"
       id="path-effect995-4"
       is_visible="true" />
    <inkscape:path-effect
       effect="spiro"
       id="path-effect999-5"
       is_visible="true" />
    <inkscape:path-effect
       effect="spiro"
       id="path-effect1003-7"
       is_visible="true" />
    <inkscape:path-effect
       effect="spiro"
       id="path-effect1038-0"
       is_visible="true" />
    <inkscape:path-effect
       effect="spiro"
       id="path-effect1042-0"
       is_visible="true" />
    <inkscape:path-effect
       effect="spiro"
       id="path-effect1046-4"
       is_visible="true" />
    <inkscape:path-effect
       effect="spiro"
       id="path-effect1060-2"
       is_visible="true" />
    <inkscape:path-effect
       effect="spiro"
       id="path-effect1064-1"
       is_visible="true" />
    <inkscape:path-effect
       effect="spiro"
       id="path-effect1072-3"
       is_visible="true" />
    <inkscape:path-effect
       effect="spiro"
       id="path-effect1076-3"
       is_visible="true" />
    <inkscape:path-effect
       effect="spiro"
       id="path-effect1080-0"
       is_visible="true" />
    <inkscape:path-effect
       effect="spiro"
       id="path-effect1084-8"
       is_visible="true" />
    <inkscape:path-effect
       effect="spiro"
       id="path-effect1088-1"
       is_visible="true" />
    <inkscape:path-effect
       effect="spiro"
       id="path-effect1864-4"
       is_visible="true" />
    <inkscape:path-effect
       effect="spiro"
       id="path-effect1876-5"
       is_visible="true" />
    <inkscape:path-effect
       effect="spiro"
       id="path-effect1880-2"
       is_visible="true" />
    <inkscape:path-effect
       effect="spiro"
       id="path-effect1868-0"
       is_visible="true" />
    <inkscape:path-effect
       effect="spiro"
       id="path-effect1935-2"
       is_visible="true" />
    <inkscape:path-effect
       effect="spiro"
       id="path-effect1939-8"
       is_visible="true" />
    <inkscape:path-effect
       effect="spiro"
       id="path-effect1947-6"
       is_visible="true" />
    <inkscape:path-effect
       effect="spiro"
       id="path-effect1943-8"
       is_visible="true" />
    <inkscape:path-effect
       effect="spiro"
       id="path-effect1951-2"
       is_visible="true" />
    <inkscape:path-effect
       effect="spiro"
       id="path-effect1955-1"
       is_visible="true" />
    <inkscape:path-effect
       effect="spiro"
       id="path-effect1959-8"
       is_visible="true" />
    <inkscape:path-effect
       effect="spiro"
       id="path-effect1963-0"
       is_visible="true" />
    <inkscape:path-effect
       effect="spiro"
       id="path-effect2227-9"
       is_visible="true" />
    <inkscape:path-effect
       effect="spiro"
       id="path-effect2270-3"
       is_visible="true" />
    <inkscape:path-effect
       effect="spiro"
       id="path-effect2266-8"
       is_visible="true" />
    <inkscape:path-effect
       effect="spiro"
       id="path-effect2310-2"
       is_visible="true" />
    <inkscape:path-effect
       effect="spiro"
       id="path-effect2344-1"
       is_visible="true" />
    <inkscape:path-effect
       effect="spiro"
       id="path-effect2344-1-2"
       is_visible="true" />
    <inkscape:path-effect
       effect="spiro"
       id="path-effect2344-2"
       is_visible="true" />
    <inkscape:path-effect
       effect="spiro"
       id="path-effect2500-4"
       is_visible="true" />
    <inkscape:path-effect
       effect="spiro"
       id="path-effect2530-6"
       is_visible="true" />
  </defs>
  <sodipodi:namedview
     id="base"
     pagecolor="#ffffff"
     bordercolor="#666666"
     borderopacity="1.0"
     inkscape:pageopacity="0.0"
     inkscape:pageshadow="2"
     inkscape:zoom="2"
     inkscape:cx="140.81999"
     inkscape:cy="29.914355"
     inkscape:document-units="mm"
     inkscape:current-layer="layer1"
     showgrid="false"
     units="px"
     inkscape:window-width="1920"
     inkscape:window-height="1017"
     inkscape:window-x="-8"
     inkscape:window-y="-8"
     inkscape:window-maximized="1"
     objecttolerance="1"
     gridtolerance="1"
     guidetolerance="1" />
  <metadata
     id="metadata9829">
    <rdf:RDF>
      <cc:Work
         rdf:about="">
        <dc:format>image/svg+xml</dc:format>
        <dc:type
           rdf:resource="http://purl.org/dc/dcmitype/StillImage" />
        <dc:title></dc:title>
      </cc:Work>
    </rdf:RDF>
  </metadata>
  <g
     inkscape:label="Layer 1"
     inkscape:groupmode="layer"
     id="layer1"
     transform="translate(0,-243.81873)">
    <g
       id="g9862" />
    <path
       style="opacity:1;fill:#000000;fill-opacity:1;fill-rule:nonzero;stroke:#000000;stroke-width:0.26458332"
       d="M 6.0643319,269.6064 26.737629,246.50095"
       id="path2256"
       inkscape:connector-curvature="0"
       inkscape:path-effect="#path-effect2258"
       inkscape:original-d="M 6.0643319,269.6064 C 12.955695,261.90432 19.846795,254.2025 26.737629,246.50095" />
    <path
       style="opacity:1;fill:#000000;fill-opacity:1;fill-rule:nonzero;stroke:#000000;stroke-width:0.26458332"
       d="m 26.737629,246.31386 21.702287,22.3571"
       id="path2260"
       inkscape:connector-curvature="0"
       inkscape:path-effect="#path-effect2262"
       inkscape:original-d="m 26.737629,246.31386 c 7.23436,7.4521 14.468454,14.90447 21.702287,22.3571" />
    <path
       style="opacity:1;fill:none;fill-opacity:1;fill-rule:nonzero;stroke:#000000;stroke-width:0.26458332"
       d="m 9.1942707,269.21873 c -1.2367115,-0.12944 -2.507069,0.0784 -3.6380208,0.59531 -1.0786635,0.49298 -2.028217,1.26532 -2.7305579,2.22096 -0.7023409,0.95565 -1.1559253,2.0925 -1.3043379,3.26915"
       id="path2264"
       inkscape:connector-curvature="0"
       inkscape:path-effect="#path-effect2266"
       inkscape:original-d="m 9.1942707,269.21873 c -1.1683119,0.19817 -2.4250827,0.39661 -3.6380208,0.59531 -1.2129381,0.19871 -2.6896659,3.65981 -4.0348958,5.49011" />
    <path
       style="opacity:1;fill:none;fill-opacity:1;fill-rule:nonzero;stroke:#000000;stroke-width:0.26458332"
       d="m 23.084895,270.21092 c -0.888033,-0.53593 -1.660238,-1.26272 -2.248958,-2.11667 -0.708049,-1.02704 -1.151011,-2.25855 -1.124479,-3.50573 0.01113,-0.52333 0.105969,-1.05058 0.332061,-1.52268 0.226092,-0.47209 0.59,-0.88671 1.057001,-1.12315 0.526973,-0.2668 1.160131,-0.29095 1.724936,-0.11809 0.564806,0.17285 1.062437,0.53231 1.450064,0.97799 0.43035,0.4948 0.730787,1.09377 0.926042,1.71979 0.167597,0.53734 0.259935,1.09524 0.330729,1.65364 0.13314,1.05017 0.196334,2.12835 0.595313,3.10886 0.093,0.22856 0.203684,0.44992 0.330729,0.66146"
       id="path2268"
       inkscape:connector-curvature="0"
       inkscape:path-effect="#path-effect2270"
       inkscape:original-d="m 23.084895,270.21092 c -0.727339,-0.66172 -1.499041,-1.41138 -2.248958,-2.11667 -0.749917,-0.70529 -0.749388,-2.33742 -1.124479,-3.50573 -0.375091,-1.16831 0.926306,-1.76415 1.389062,-2.64583 0.462756,-0.88168 2.116931,0.573 3.175,0.8599 1.058069,0.28689 0.617626,1.14626 0.926042,1.71979 0.308416,0.57353 0.22075,1.10216 0.330729,1.65364 0.109979,0.55148 0.39714,2.07231 0.595313,3.10886 0.198172,1.03655 0.22075,0.44071 0.330729,0.66146" />
    <path
       style="opacity:1;fill:none;fill-opacity:1;fill-rule:nonzero;stroke:#000000;stroke-width:0.26458332"
       d="m 29.831771,270.21092 c 0.888033,-0.53593 1.660238,-1.26272 2.248958,-2.11667 0.708049,-1.02704 1.151011,-2.25855 1.124479,-3.50573 -0.01113,-0.52333 -0.105969,-1.05058 -0.332061,-1.52268 -0.226092,-0.47209 -0.59,-0.88671 -1.057001,-1.12315 -0.526973,-0.2668 -1.160131,-0.29095 -1.724936,-0.11809 -0.564806,0.17285 -1.062437,0.53231 -1.450064,0.97799 -0.430349,0.4948 -0.730787,1.09377 -0.926042,1.71979 -0.167597,0.53734 -0.259935,1.09524 -0.33073,1.65364 -0.133141,1.05017 -0.196335,2.12835 -0.595313,3.10886 -0.093,0.22856 -0.203684,0.44992 -0.330728,0.66146"
       id="path2268-4"
       inkscape:connector-curvature="0"
       inkscape:path-effect="#path-effect2270-3"
       inkscape:original-d="m 29.831771,270.21092 c 0.727339,-0.66172 1.499041,-1.41138 2.248958,-2.11667 0.749917,-0.70529 0.749388,-2.33742 1.124479,-3.50573 0.375091,-1.16831 -0.926306,-1.76415 -1.389062,-2.64583 -0.462756,-0.88168 -2.116931,0.573 -3.175,0.8599 -1.058069,0.28689 -0.617627,1.14626 -0.926042,1.71979 -0.308416,0.57353 -0.22075,1.10216 -0.33073,1.65364 -0.109978,0.55148 -0.397139,2.07231 -0.595313,3.10886 -0.198171,1.03655 -0.220749,0.44071 -0.330728,0.66146" />
    <path
       style="opacity:1;fill:none;fill-opacity:1;fill-rule:nonzero;stroke:#000000;stroke-width:0.26458332"
       d="m 44.357628,268.04347 c 1.236711,-0.12944 2.507068,0.0784 3.63802,0.59531 1.078664,0.49298 2.028217,1.26532 2.730558,2.22096 0.702341,0.95565 1.155925,2.0925 1.304338,3.26915"
       id="path2264-2"
       inkscape:connector-curvature="0"
       inkscape:path-effect="#path-effect2266-8"
       inkscape:original-d="m 44.357628,268.04347 c 1.168311,0.19817 2.425082,0.39661 3.63802,0.59531 1.212938,0.19871 2.689666,3.65981 4.034896,5.49011" />
    <path
       style="opacity:1;fill:none;fill-opacity:1;fill-rule:nonzero;stroke:#000000;stroke-width:0.26458332"
       d="m 1.4806596,275.21906 c 0.058699,2.26235 0.60476,4.51083 1.5902538,6.5481 0.6889979,1.42433 1.6007804,2.75663 2.7870795,3.8036 1.1862991,1.04697 2.6589291,1.79835 4.2287451,1.99615 0.520354,0.0656 1.051499,0.0704 1.56668,-0.0279 0.515182,-0.0983 1.014717,-0.30241 1.426739,-0.62692 0.647293,-0.50981 1.04718,-1.30402 1.131237,-2.12367 0.08406,-0.81965 -0.135435,-1.65754 -0.558523,-2.36457 -0.423088,-0.70703 -1.042313,-1.28643 -1.744691,-1.71719 -0.702377,-0.43076 -1.486679,-0.7171 -2.2891634,-0.90394 C 8.8853689,279.63192 8.1137329,279.53495 7.467497,279.14792 7.0815067,278.91675 6.7543394,278.5854 6.5384239,278.19067 6.3225084,277.79595 6.2197857,277.3383 6.2580229,276.89 c 0.038237,-0.44829 0.2190388,-0.8851 0.5176312,-1.22165 0.2985924,-0.33656 0.7146637,-0.56936 1.1595645,-0.63638 0.559381,-0.0843 1.1387175,0.0943 1.6037368,0.4164 0.4650196,0.32212 0.8240606,0.77857 1.1037916,1.27026 0.559461,0.98337 0.822261,2.1164 1.408422,3.0841 0.64185,1.05964 1.657629,1.87462 2.80633,2.33861 0.435191,0.17579 0.894356,0.30421 1.363333,0.32299 0.468977,0.0188 0.949659,-0.0771 1.349453,-0.32299 0.369562,-0.22729 0.658335,-0.57691 0.833907,-0.97365 0.175572,-0.39675 0.240286,-0.83873 0.210137,-1.27155 -0.0603,-0.86562 -0.490358,-1.67036 -1.044044,-2.33847 -0.934816,-1.128 -2.206154,-1.9134 -3.367596,-2.80633 -1.982792,-1.52439 -3.688265,-3.40836 -5.0084183,-5.53261"
       id="path2308"
       inkscape:connector-curvature="0"
       inkscape:path-effect="#path-effect2310"
       inkscape:original-d="m 1.4806596,275.21906 c 0.5303492,2.18244 1.0604337,4.36514 1.5902538,6.5481 0.5298199,2.18297 4.6774811,3.86624 7.0158246,5.79975 2.338344,1.93352 1.995877,-0.4368 2.993419,-0.65481 0.997541,-0.218 -2.307163,-4.73984 -3.4611404,-7.10937 -1.1539781,-2.36952 -1.4340818,-0.4368 -2.1515196,-0.65481 -0.7174379,-0.218 0.3120789,-2.74423 0.4677216,-4.11595 0.1556428,-1.37172 2.7442314,3.18025 4.1159504,4.77076 1.371719,1.59052 1.871151,1.55881 2.80633,2.33861 0.935179,0.7798 1.808789,-2.6e-4 2.712786,0 0.903997,2.7e-4 2.64e-4,-3.05604 0,-4.58367 -2.65e-4,-1.52763 -2.2448,-1.87115 -3.367596,-2.80633 -1.122797,-0.93518 -3.338681,-3.68867 -5.0084183,-5.53261" />
    <path
       style="opacity:1;fill:none;fill-opacity:1;fill-rule:nonzero;stroke:#000000;stroke-width:0.26458332"
       d="m 52.071239,274.04381 c -0.0587,2.26235 -0.604759,4.51083 -1.590253,6.5481 -0.688998,1.42434 -1.60078,2.75663 -2.78708,3.8036 -1.186299,1.04697 -2.658929,1.79835 -4.228745,1.99615 -0.520354,0.0656 -1.051499,0.0704 -1.56668,-0.0279 -0.515182,-0.0983 -1.014717,-0.30241 -1.426739,-0.62692 -0.647293,-0.50981 -1.04718,-1.30402 -1.131237,-2.12367 -0.08406,-0.81965 0.135435,-1.65754 0.558523,-2.36457 0.423088,-0.70703 1.042313,-1.28643 1.74469,-1.71719 0.702377,-0.43076 1.486679,-0.7171 2.289164,-0.90394 0.733648,-0.17081 1.505284,-0.26778 2.15152,-0.65481 0.38599,-0.23117 0.713158,-0.56252 0.929073,-0.95725 0.215916,-0.39472 0.318638,-0.85237 0.280401,-1.30067 -0.03824,-0.44829 -0.219039,-0.8851 -0.517631,-1.22165 -0.298593,-0.33656 -0.714664,-0.56936 -1.159565,-0.63638 -0.559381,-0.0843 -1.138717,0.0943 -1.603737,0.4164 -0.465019,0.32212 -0.82406,0.77857 -1.103791,1.27026 -0.559461,0.98337 -0.822261,2.1164 -1.408422,3.0841 -0.64185,1.05964 -1.657629,1.87462 -2.80633,2.33861 -0.435191,0.17579 -0.894356,0.30421 -1.363333,0.32299 -0.468977,0.0188 -0.949659,-0.0771 -1.349453,-0.32299 -0.369562,-0.22729 -0.658335,-0.57691 -0.833907,-0.97365 -0.175572,-0.39675 -0.240286,-0.83873 -0.210137,-1.27155 0.0603,-0.86562 0.490358,-1.67036 1.044044,-2.33847 0.934816,-1.128 2.206154,-1.9134 3.367596,-2.80633 1.982792,-1.52439 3.688264,-3.40836 5.008418,-5.53261"
       id="path2308-9"
       inkscape:connector-curvature="0"
       inkscape:path-effect="#path-effect2310-2"
       inkscape:original-d="m 52.071239,274.04381 c -0.530349,2.18244 -1.060433,4.36514 -1.590253,6.5481 -0.52982,2.18297 -4.677482,3.86624 -7.015825,5.79975 -2.338344,1.93352 -1.995877,-0.4368 -2.993419,-0.65481 -0.997541,-0.218 2.307163,-4.73984 3.46114,-7.10937 1.153978,-2.36952 1.434082,-0.4368 2.15152,-0.65481 0.717438,-0.218 -0.312079,-2.74423 -0.467722,-4.11595 -0.155642,-1.37172 -2.744231,3.18025 -4.11595,4.77076 -1.371719,1.59052 -1.871151,1.55881 -2.80633,2.33861 -0.935179,0.7798 -1.808789,-2.6e-4 -2.712786,0 -0.903997,2.6e-4 -2.64e-4,-3.05604 0,-4.58367 2.65e-4,-1.52763 2.2448,-1.87115 3.367596,-2.80633 1.122797,-0.93518 3.338681,-3.68867 5.008418,-5.53261" />
    <path
       style="opacity:1;fill:none;fill-opacity:1;fill-rule:nonzero;stroke:#000000;stroke-width:0.26458332"
       d="m 19.62826,265.35013 c 0.593734,0.43028 1.288001,0.7209 2.011203,0.8419 1.268831,0.21228 2.619165,-0.11665 3.648229,-0.88867"
       id="path2330"
       inkscape:connector-curvature="0"
       inkscape:path-effect="#path-effect2332"
       inkscape:original-d="m 19.62826,265.35013 c 0.670666,0.28037 1.341067,0.561 2.011203,0.8419 0.670137,0.2809 2.432417,-0.59271 3.648229,-0.88867" />
    <path
       style="opacity:1;fill:none;fill-opacity:1;fill-rule:nonzero;stroke:#000000;stroke-width:0.26458332"
       d="m 27.439212,265.16304 c 0.667833,0.58382 1.477131,1.00465 2.338607,1.21608 1.029409,0.25264 2.131026,0.20331 3.133735,-0.14032"
       id="path2334"
       inkscape:connector-curvature="0"
       inkscape:path-effect="#path-effect2336"
       inkscape:original-d="m 27.439212,265.16304 c 0.764209,0.38951 1.559338,0.81046 2.338607,1.21608 0.779272,0.40562 2.089422,-0.0938 3.133735,-0.14032" />
    <path
       style="opacity:1;fill:none;fill-opacity:1;fill-rule:nonzero;stroke:#000000;stroke-width:0.26458332"
       d="m 9.3927082,269.21873 c 4.5034298,0.50773 9.0292518,0.81681 13.5598958,0.92604 2.40284,0.0579 4.807098,0.0597 7.209895,0 4.532407,-0.11257 9.059377,-0.44381 13.559896,-0.99218"
       id="path2338"
       inkscape:connector-curvature="0"
       inkscape:path-effect="#path-effect2340"
       inkscape:original-d="m 9.3927082,269.21873 c 4.5202298,0.30842 9.0401948,0.6171 13.5598958,0.92604 4.519699,0.30895 4.806862,-2.6e-4 7.209895,0 2.403033,2.7e-4 9.040196,-0.66172 13.559896,-0.99218" />
    <path
       style="opacity:1;fill:none;fill-opacity:1;fill-rule:nonzero;stroke:#000000;stroke-width:0.26458332"
       d="m 21.497395,270.07863 c -0.596756,2.05571 -1.028542,4.15928 -1.289844,6.28385 -0.660638,5.37146 -0.21891,10.87607 1.289844,16.07344"
       id="path2342"
       inkscape:connector-curvature="0"
       inkscape:path-effect="#path-effect2344"
       inkscape:original-d="m 21.497395,270.07863 c -0.429683,2.08333 -0.859631,4.18897 -1.289844,6.28385 -0.430212,2.09488 0.860161,10.71536 1.289844,16.07344" />
    <path
       style="opacity:1;fill:none;fill-opacity:1;fill-rule:nonzero;stroke:#000000;stroke-width:0.26458332"
       d="m 22.949854,270.01248 c 0.596756,2.05571 1.028542,4.15928 1.289844,6.28385 0.660638,5.37146 0.21891,10.87607 -1.289844,16.07344"
       id="path2342-6"
       inkscape:connector-curvature="0"
       inkscape:path-effect="#path-effect2344-1"
       inkscape:original-d="m 22.949854,270.01248 c 0.429683,2.08333 0.859631,4.18897 1.289844,6.28385 0.430212,2.09488 -0.860161,10.71536 -1.289844,16.07344" />
    <path
       style="opacity:1;fill:none;fill-opacity:1;fill-rule:nonzero;stroke:#000000;stroke-width:0.26458332"
       d="m 30.759187,270.1117 c -0.596756,2.05571 -1.028542,4.15928 -1.289844,6.28385 -0.660638,5.37146 -0.21891,10.87607 1.289844,16.07344"
       id="path2342-2"
       inkscape:connector-curvature="0"
       inkscape:path-effect="#path-effect2344-2"
       inkscape:original-d="m 30.759187,270.1117 c -0.429683,2.08333 -0.859631,4.18897 -1.289844,6.28385 -0.430212,2.09488 0.860161,10.71536 1.289844,16.07344" />
    <path
       style="opacity:1;fill:none;fill-opacity:1;fill-rule:nonzero;stroke:#000000;stroke-width:0.26458332"
       d="m 32.211646,270.04555 c 0.596756,2.05571 1.028542,4.15928 1.289844,6.28385 0.660638,5.37146 0.21891,10.87607 -1.289844,16.07344"
       id="path2342-6-8"
       inkscape:connector-curvature="0"
       inkscape:path-effect="#path-effect2344-1-2"
       inkscape:original-d="m 32.211646,270.04555 c 0.429683,2.08333 0.859631,4.18897 1.289844,6.28385 0.430212,2.09488 -0.860161,10.71536 -1.289844,16.07344" />
    <path
       style="opacity:1;fill:none;fill-opacity:1;fill-rule:nonzero;stroke:#000000;stroke-width:0.26458332"
       d="m 13.096875,273.84894 c 1.179085,0.54816 2.426513,0.94912 3.704166,1.19062 1.132191,0.21401 2.287982,0.30292 3.439584,0.26459"
       id="path2388"
       inkscape:connector-curvature="0"
       inkscape:path-effect="#path-effect2390"
       inkscape:original-d="m 13.096875,273.84894 c 1.234987,0.39661 2.469709,0.79348 3.704166,1.19062 1.234458,0.39714 2.293321,0.17613 3.439584,0.26459" />
    <path
       style="opacity:1;fill:none;fill-opacity:1;fill-rule:nonzero;stroke:#000000;stroke-width:0.26458332"
       d="m 24.077083,275.43644 h 5.423958"
       id="path2392"
       inkscape:connector-curvature="0"
       inkscape:path-effect="#path-effect2394"
       inkscape:original-d="m 24.077083,275.43644 c 1.808251,-2.7e-4 3.616238,-2.7e-4 5.423958,0" />
    <path
       style="opacity:1;fill:none;fill-opacity:1;fill-rule:nonzero;stroke:#000000;stroke-width:0.26458332"
       d="m 33.403645,275.43644 c 1.752274,-0.0716 3.486613,-0.55088 5.027084,-1.38906 0.889686,-0.48408 1.714985,-1.08633 2.447395,-1.78594"
       id="path2396"
       inkscape:connector-curvature="0"
       inkscape:path-effect="#path-effect2398"
       inkscape:original-d="m 33.403645,275.43644 c 1.675959,-0.46329 3.351655,-0.92631 5.027084,-1.38906 1.675429,-0.46276 1.631862,-1.19089 2.447395,-1.78594" />
    <path
       style="opacity:1;fill:#ff0000;fill-opacity:1;fill-rule:nonzero;stroke:#000000;stroke-width:0.0625"
       d="m 159.96255,160.49692 c -3.98985,-0.40326 -6.94004,-2.02553 -8.85293,-4.86811 -2.81748,-4.1868 -2.56624,-9.93205 0.64114,-14.66096 2.1959,-3.2376 5.56047,-5.79077 9.86804,-7.48827 1.85462,-0.73086 3.22737,-1.12491 6.03125,-1.73128 3.48777,-0.75427 4.46725,-1.04976 6,-1.81004 1.20973,-0.60005 2.04434,-1.20702 2.94339,-2.14059 1.3428,-1.39434 2.21358,-3.07659 2.56475,-4.95482 0.15557,-0.83203 0.15668,-2.39422 0.002,-3.17312 -0.32908,-1.65998 -1.06644,-3.11017 -2.16528,-4.25851 -1.10994,-1.15996 -2.28145,-1.84754 -3.87107,-2.27202 -0.53159,-0.14195 -0.72578,-0.16061 -1.72406,-0.16566 -0.96331,-0.005 -1.21826,0.0152 -1.77379,0.13957 -2.78166,0.62281 -5.1812,2.38949 -7.07907,5.21203 -1.12486,1.6729 -1.76047,2.98048 -3.30499,6.79896 -1.43033,3.53618 -1.92849,4.62426 -2.75263,6.01221 -1.36039,2.29106 -3.35026,4.44775 -5.65202,6.12588 -3.36114,2.45046 -7.78047,4.03509 -10.68035,3.8296 -2.16731,-0.15357 -3.84336,-0.85009 -5.1441,-2.13776 -1.20567,-1.19353 -1.93637,-2.61098 -2.31265,-4.48618 -0.0879,-0.43796 -0.11206,-0.84617 -0.10919,-1.84375 0.003,-1.14831 0.0214,-1.36555 0.1748,-2.09375 0.77364,-3.67336 3.07251,-7.1081 7.13399,-10.65892 1.47191,-1.28684 2.82412,-2.3302 6.83116,-5.27093 4.31824,-3.16911 6.55808,-5.07766 10.01687,-8.53532 3.09659,-3.09558 5.33258,-5.6689 7.62302,-8.773045 0.39404,-0.534042 0.76567,-0.984564 0.82582,-1.001159 0.0602,-0.0166 0.10951,-0.08203 0.10968,-0.1454 1.7e-4,-0.06338 0.33992,-0.607414 0.755,-1.208976 0.41508,-0.601563 1.00739,-1.491147 1.31624,-1.976854 0.66032,-1.038428 0.43926,-0.939832 2.24096,-0.999525 3.45568,-0.114491 6.96432,0.497791 10.33509,1.803541 1.06822,0.413805 3.23942,1.513229 4.21707,2.135391 4.12268,2.623606 7.33928,6.179637 9.44682,10.443697 1.2211,2.47057 2.06215,5.14641 2.44085,7.76562 0.041,0.2836 0.10381,0.51563 0.13956,0.51563 0.12667,0 -0.064,2.97726 -0.33216,5.1875 -1.09978,9.06349 -4.28279,17.89901 -9.03252,25.07275 -1.71504,2.5903 -3.19592,4.41348 -5.27444,6.4936 -1.86176,1.86318 -3.30477,3.05976 -5.25277,4.35572 -3.9094,2.60083 -8.1482,4.19231 -12.53125,4.70492 -0.77895,0.0911 -3.13208,0.12711 -3.8125,0.0583 z"
       id="path2408"
       inkscape:connector-curvature="0"
       transform="matrix(0.26458333,0,0,0.26458333,0,243.81873)" />
    <path
       style="opacity:1;fill:#ff0000;fill-opacity:1;fill-rule:nonzero;stroke:#000000;stroke-width:0.0625"
       d="m 39.738731,164.97479 c -2.634873,-0.22845 -4.293916,-0.55982 -6.53125,-1.30448 -4.407872,-1.46709 -8.377845,-3.9406 -11.990972,-7.47102 -3.53934,-3.45833 -6.300561,-7.33604 -8.843101,-12.41878 -3.4883739,-6.97354 -5.6297698,-14.89181 -6.13216,-22.67497 -0.1362147,-2.11028 -0.1345728,-2.03125 -0.042204,-2.03125 0.059256,0 0.099532,-0.12161 0.1293741,-0.39063 0.1153827,-1.04013 0.5693275,-3.00358 1.0126058,-4.37983 2.2024624,-6.83802 7.3210431,-12.58165 13.8749001,-15.569202 2.583042,-1.177471 5.207035,-1.88561 8.272807,-2.232588 0.792934,-0.08974 4.224995,-0.113899 4.6875,-0.03299 l 0.28125,0.0492 0.654845,1.012395 c 4.286422,6.626845 9.613482,12.644475 15.720155,17.758035 1.515522,1.26906 2.801536,2.26284 5.371791,4.15113 4.814289,3.53691 6.127383,4.60045 8.0356,6.50845 2.021538,2.02131 3.346009,3.81532 4.323859,5.85671 2.075313,4.33248 1.591119,8.92752 -1.225666,11.63175 -2.716729,2.60817 -6.903914,2.79162 -11.897839,0.52126 -3.92904,-1.78623 -7.324186,-4.73524 -9.401494,-8.1661 -0.909976,-1.5029 -1.363335,-2.47909 -2.800478,-6.03009 -1.205482,-2.9786 -1.524518,-3.70746 -2.130017,-4.86618 -2.181358,-4.17438 -4.955501,-6.61125 -8.369506,-7.35195 -0.647882,-0.14056 -2.105338,-0.19241 -2.751783,-0.0979 -1.522381,0.2226 -3.066549,0.96498 -4.231765,2.03448 -0.964765,0.88551 -1.926904,2.45513 -2.298833,3.75028 -1.106442,3.85289 0.512176,8.06907 3.998978,10.41654 1.652561,1.11258 3.279275,1.68265 7.189653,2.51957 3.252118,0.69603 5.061478,1.2496 7.257466,2.22039 7.005082,3.09677 11.336284,8.87925 11.336284,15.1348 0,1.98111 -0.427263,3.75658 -1.321148,5.48995 -0.524103,1.01631 -1.094118,1.78985 -1.960032,2.65988 -1.701048,1.70912 -3.87724,2.7385 -6.676629,3.15819 -0.789567,0.11838 -2.867792,0.20341 -3.542191,0.14493 z"
       id="path2410"
       inkscape:connector-curvature="0"
       transform="matrix(0.26458333,0,0,0.26458333,0,243.81873)" />
    <path
       style="opacity:1;fill:#ff0000;fill-opacity:1;fill-rule:nonzero;stroke:#000000;stroke-width:0.0625"
       d="m 90.928997,99.063185 c -3.007491,-0.04609 -3.632694,-0.07051 -3.673514,-0.14345 -0.03431,-0.0613 -0.09113,-0.07239 -0.187767,-0.03664 -0.111634,0.0413 -0.248012,-0.02204 -0.701486,-0.325786 -1.401199,-0.938548 -2.684006,-2.002197 -4.005554,-3.321234 -2.893043,-2.887548 -5.044175,-6.290264 -6.238337,-9.867965 -0.276422,-0.828159 -0.66277,-2.248287 -0.66277,-2.436193 0,-0.06058 0.287717,0.0573 0.890625,0.364894 5.904805,3.012525 12.993274,2.62741 18.564659,-1.008616 0.336345,-0.219507 0.621576,-0.399103 0.63385,-0.399103 0.07055,0 0.333883,1.840382 0.661768,4.625 0.728062,6.183185 1.325847,8.661555 2.75874,11.4375 0.593101,1.149017 0.558177,1.108584 0.822728,0.952495 l 0.213271,-0.12583 0.19982,0.126522 c 0.11437,0.07241 0.22214,0.102795 0.252,0.07104 0.10919,-0.116109 0.70456,-1.243214 0.97975,-1.854799 1.04972,-2.33287 1.64601,-4.805876 2.14311,-8.88818 0.10465,-0.859375 0.2756,-2.265625 0.37989,-3.125 0.18824,-1.551189 0.41725,-3.094543 0.46647,-3.143769 0.0141,-0.01412 0.18941,0.100325 0.38954,0.254318 1.78998,1.377357 4.58079,2.72863 7.01122,3.394736 1.97769,0.542025 3.45778,0.735605 5.66381,0.740767 2.161,0.0051 3.43164,-0.145415 5.40576,-0.640156 0.89364,-0.223956 0.93607,-0.22904 0.90097,-0.10796 -0.12684,0.437525 -0.80048,2.020412 -1.19782,2.814564 -2.01906,4.035519 -5.24932,7.661735 -9.14588,10.266964 l -0.47448,0.317232 -4.11132,0.06728 c -4.68967,0.07674 -12.617716,0.07293 -17.939053,-0.0086 z"
       id="path2416"
       inkscape:connector-curvature="0"
       transform="matrix(0.26458333,0,0,0.26458333,0,243.81873)" />
    <path
       style="opacity:1;fill:#ffd5d5;fill-opacity:1;fill-rule:nonzero;stroke:#000000;stroke-width:0.08838835"
       d="m 91.286128,116.73031 c -0.828504,-5.03479 -1.796977,-9.56772 -3.078807,-14.41034 -0.319386,-1.2066 -0.566477,-2.20805 -0.54909,-2.22544 0.01739,-0.0174 2.914832,0.01 6.438769,0.0603 4.395602,0.0631 8.34965,0.0636 12.59434,0.002 3.58782,-0.0523 6.22706,-0.0573 6.2821,-0.012 0.0533,0.0439 0.1308,0.0447 0.17677,0.002 0.045,-0.042 0.59249,-0.0947 1.21659,-0.11721 1.11651,-0.04026 1.13407,-0.03794 1.09427,0.14469 -0.0222,0.10208 -0.28704,1.09677 -0.58842,2.21042 -1.15571,4.27047 -2.2885,9.48706 -3.06133,14.09763 -0.21516,1.28362 -0.3912,2.36748 -0.3912,2.40858 0,0.0411 -4.4474,0.0747 -9.88311,0.0747 h -9.883103 z"
       id="path2424"
       inkscape:connector-curvature="0"
       transform="matrix(0.26458333,0,0,0.26458333,0,243.81873)" />
    <path
       style="opacity:1;fill:#ffd5d5;fill-opacity:1;fill-rule:nonzero;stroke:#000000;stroke-width:0.08838835"
       d="m 126.58411,118.68188 c -0.0266,-0.16011 -0.18979,-1.16616 -0.36277,-2.23566 -0.76256,-4.71477 -2.36086,-11.91381 -3.56564,-16.06028 l -0.1721,-0.592327 0.36818,-0.04488 c 0.2025,-0.02468 1.00458,-0.06766 1.7824,-0.09552 9.11012,-0.326215 23.30302,-1.427583 34.85704,-2.704903 2.20523,-0.243793 4.02952,-0.423245 4.05398,-0.398783 0.0489,0.0489 -0.99902,1.433977 -2.18008,2.881514 -2.1258,2.605439 -5.42857,6.133319 -7.19107,7.681199 -2.1107,1.85369 -2.74199,2.38096 -3.86405,3.22734 -6.29018,4.74473 -13.93167,7.72427 -21.65415,8.44329 -0.55906,0.052 -1.24305,0.11612 -1.51998,0.14238 l -0.5035,0.0477 z"
       id="path2426"
       inkscape:connector-curvature="0"
       transform="matrix(0.26458333,0,0,0.26458333,0,243.81873)" />
    <path
       style="opacity:1;fill:#ffd5d5;fill-opacity:1;fill-rule:nonzero;stroke:#000000;stroke-width:0.08838835"
       d="m 71.761278,118.42851 c -6.544987,-0.31068 -13.201801,-1.76403 -19.2078,-4.19354 -2.278067,-0.92151 -2.652231,-1.1165 -3.319872,-1.73007 -4.914806,-4.51676 -8.827724,-9.02542 -12.362417,-14.244578 -0.915887,-1.352354 -1.089509,-1.657281 -0.94364,-1.657281 0.09832,0 1.0941,0.09915 2.212849,0.220345 12.864884,1.393602 26.224266,2.381394 39.364057,2.910577 1.593946,0.06419 2.91849,0.137121 2.943429,0.162061 0.02494,0.02494 -0.154499,0.775826 -0.398755,1.668646 -1.328283,4.85522 -2.607385,10.76422 -3.376856,15.5999 l -0.198694,1.24867 -0.526725,0.0551 c -0.639987,0.0669 -2.26341,0.0515 -4.185576,-0.0398 z"
       id="path2428"
       inkscape:connector-curvature="0"
       transform="matrix(0.26458333,0,0,0.26458333,0,243.81873)" />
    <path
       style="opacity:1;fill:#ffd5d5;fill-opacity:1;fill-rule:nonzero;stroke:#000000;stroke-width:0.26458332"
       d="m 10.14956,264.91427 9.447978,0.5145"
       id="path2430"
       inkscape:connector-curvature="0"
       inkscape:path-effect="#path-effect2432"
       inkscape:original-d="m 10.14956,264.91427 c 3.149591,0.17124 6.298916,0.34273 9.447978,0.5145" />
    <path
       style="opacity:1;fill:#ffd5d5;fill-opacity:1;fill-rule:nonzero;stroke:#000000;stroke-width:0.26458332"
       d="m 25.397287,265.38199 2.104748,0.0468"
       id="path2434"
       inkscape:connector-curvature="0"
       inkscape:path-effect="#path-effect2436"
       inkscape:original-d="m 25.397287,265.38199 c 0.701847,0.0153 1.40343,0.0309 2.104748,0.0468" />
    <path
       style="opacity:1;fill:#ffd5d5;fill-opacity:1;fill-rule:nonzero;stroke:#000000;stroke-width:0.26458332"
       d="m 33.208237,265.80294 c 2.664914,-0.32175 5.317802,-0.74309 7.951269,-1.26284 0.890988,-0.17585 1.779754,-0.36296 2.666013,-0.56127"
       id="path2438"
       inkscape:connector-curvature="0"
       inkscape:path-effect="#path-effect2440"
       inkscape:original-d="m 33.208237,265.80294 c 2.635097,-0.42121 5.301113,-0.84216 7.951269,-1.26284 2.650159,-0.42069 1.777609,-0.37445 2.666013,-0.56127" />
    <path
       style="opacity:1;fill:none;fill-opacity:1;fill-rule:nonzero;stroke:#000000;stroke-width:0.26458332"
       d="m 15.154182,259.53547 c 3.462211,0.71106 6.989886,1.10302 10.523738,1.16931 4.553697,0.0854 9.117318,-0.37094 13.563929,-1.35639"
       id="path2442"
       inkscape:connector-curvature="0"
       inkscape:path-effect="#path-effect2444"
       inkscape:original-d="m 15.154182,259.53547 c 3.508177,0.4051 7.01609,0.77928 10.523738,1.16931 3.507648,0.39003 9.042882,-0.90453 13.563929,-1.35639" />
    <path
       style="opacity:1;fill:none;fill-opacity:1;fill-rule:nonzero;stroke:#000000;stroke-width:0.26458332"
       d="m 19.176588,255.09212 c 2.830984,0.75059 5.772549,1.0827 8.699623,0.98221 2.419053,-0.083 4.827845,-0.4609 7.156141,-1.12253"
       id="path2446"
       inkscape:connector-curvature="0"
       inkscape:path-effect="#path-effect2448"
       inkscape:original-d="m 19.176588,255.09212 c 2.900139,0.32714 5.800014,0.65454 8.699623,0.98221 2.899611,0.32767 4.771025,-0.74862 7.156141,-1.12253" />
    <path
       style="opacity:1;fill:none;fill-opacity:1;fill-rule:nonzero;stroke:#000000;stroke-width:0.26458332"
       d="m 22.965134,250.83585 c 1.65115,0.27692 3.332863,0.37122 5.004621,0.28063 0.941012,-0.051 1.878854,-0.16041 2.806332,-0.3274"
       id="path2450"
       inkscape:connector-curvature="0"
       inkscape:path-effect="#path-effect2452"
       inkscape:original-d="m 22.965134,250.83585 c 1.652881,0.10887 3.336679,0.18682 5.004621,0.28063 1.667944,0.0938 1.871152,-0.21853 2.806332,-0.3274" />
    <path
       style="opacity:1;fill:#ffffff;fill-opacity:1;fill-rule:nonzero;stroke:#000000;stroke-width:0.08838835"
       d="M 83.301895,84.204209 C 82.008544,84.09776 80.6104,83.812039 79.321425,83.390768 78.196062,83.02297 75.861192,81.917441 75.372078,81.520806 l -0.265166,-0.215029 0.0027,-2.284394 c 0.0024,-2.021555 0.02515,-2.387151 0.197919,-3.177475 0.62935,-2.878981 1.903499,-5.0129 3.754225,-6.287503 0.81571,-0.561783 1.170836,-0.739057 2.099768,-1.048176 0.713901,-0.237564 0.830501,-0.249957 2.342292,-0.248957 1.473428,9.74e-4 1.649771,0.01875 2.386485,0.240501 4.281456,1.288749 7.56483,5.190721 9.109089,10.825272 0.167348,0.610606 0.30427,1.181937 0.30427,1.269623 0,0.18399 -1.136858,0.974919 -2.298097,1.598821 -2.810562,1.510036 -6.499518,2.274434 -9.703658,2.01072 z"
       id="path2456"
       inkscape:connector-curvature="0"
       transform="matrix(0.26458333,0,0,0.26458333,0,243.81873)" />
    <path
       style="opacity:1;fill:#ffffff;fill-opacity:1;fill-rule:nonzero;stroke:#000000;stroke-width:0.08838835"
       d="m 115.80975,85.263778 c -3.54492,-0.33667 -6.76707,-1.475069 -9.63433,-3.403843 -0.60767,-0.408772 -1.19841,-0.823501 -1.31274,-0.921618 l -0.20789,-0.178396 0.15055,-0.685641 c 0.22868,-1.041429 0.94362,-3.143757 1.40199,-4.122645 1.48268,-3.166389 3.65462,-5.542049 6.1936,-6.774531 1.39692,-0.678101 2.24865,-0.894503 3.72683,-0.946888 0.96229,-0.0341 1.41524,-0.0099 1.98874,0.106072 3.10722,0.628566 5.46892,3.143847 6.40389,6.820339 0.31677,1.245569 0.4187,2.159893 0.41761,3.745876 -0.001,1.530294 -0.0954,2.493597 -0.38092,3.889088 -0.32232,1.575422 -0.20091,1.418062 -1.34298,1.740646 -1.83807,0.519174 -3.20681,0.723504 -5.19464,0.775472 -0.75352,0.0197 -1.74788,-6.9e-5 -2.20971,-0.04393 z"
       id="path2458"
       inkscape:connector-curvature="0"
       transform="matrix(0.26458333,0,0,0.26458333,0,243.81873)" />
    <path
       style="opacity:1;fill:#aaeeff;fill-opacity:1;fill-rule:nonzero;stroke:#000000;stroke-width:0.125"
       d="M 96.408357,27.039047 C 92.406358,26.79275 87.618186,26.203333 87.708453,25.968102 87.824961,25.664486 101.3268,10.662001 101.44737,10.702191 c 0.067,0.02234 3.39796,3.41293 7.40207,7.534641 5.62445,5.789641 7.23371,7.514223 7.07581,7.582846 -0.49562,0.215394 -5.3555,0.853132 -8.39189,1.101227 -2.19659,0.179476 -8.961165,0.251313 -11.125003,0.118142 z"
       id="path2460"
       inkscape:connector-curvature="0"
       transform="matrix(0.26458333,0,0,0.26458333,0,243.81873)" />
    <path
       style="opacity:1;fill:#80e5ff;fill-opacity:1;fill-rule:nonzero;stroke:#000000;stroke-width:0.125"
       d="m 96.095857,45.710834 c -6.466502,-0.387547 -11.418356,-1.008042 -16.875,-2.114533 -3.103241,-0.629271 -6,-1.326364 -6,-1.443875 0,-0.04313 3.029757,-3.464832 6.732794,-7.603775 5.667203,-6.334322 6.775086,-7.514999 7.000001,-7.459948 0.146962,0.03597 1.08283,0.178931 2.079705,0.317687 8.355755,1.163042 17.100143,1.101259 25.292353,-0.178703 1.08892,-0.170134 2.01038,-0.309335 2.04771,-0.309335 0.0373,0 0.0384,-0.219758 0.002,-0.488352 -0.0752,-0.560757 -0.87217,-1.345754 9.63288,9.488352 l 5.63596,5.8125 -1.52438,0.405372 c -6.90326,1.835756 -14.88288,3.086713 -22.52437,3.531125 -1.8938,0.110138 -9.883717,0.140351 -11.500003,0.04348 z"
       id="path2462"
       inkscape:connector-curvature="0"
       transform="matrix(0.26458333,0,0,0.26458333,0,243.81873)" />
    <path
       style="opacity:1;fill:#55ddff;fill-opacity:1;fill-rule:nonzero;stroke:#000000;stroke-width:0.125"
       d="m 94.533357,63.21014 c -11.562725,-0.413646 -21.947293,-1.51587 -32.3125,-3.429666 -1.85625,-0.342733 -3.552303,-0.655259 -3.769007,-0.694504 -0.392488,-0.07108 -0.367264,-0.101273 6.548412,-7.838236 3.81833,-4.271785 7.01201,-7.842188 7.097067,-7.934228 0.12836,-0.1389 0.608855,-0.06052 2.826589,0.461069 18.614882,4.378053 37.081322,4.193811 55.343862,-0.552174 1.19456,-0.310437 2.21398,-0.548032 2.26536,-0.52799 0.0514,0.02004 3.47563,3.522682 7.60943,7.783642 6.15696,6.346351 7.47392,7.762768 7.28328,7.833293 -0.29205,0.108034 -5.99163,1.240683 -8.32999,1.655376 -9.85199,1.747187 -19.70488,2.789475 -30.25,3.199999 -2.85084,0.110984 -11.675521,0.137755 -14.312503,0.04342 z"
       id="path2466"
       inkscape:connector-curvature="0"
       transform="matrix(0.26458333,0,0,0.26458333,0,243.81873)" />
    <path
       style="opacity:1;fill:#00ccff;fill-opacity:1;fill-rule:nonzero;stroke:#000000;stroke-width:0.125"
       d="m 125.86448,81.636502 c 0.0585,-0.498107 0.10108,-1.8619 0.0946,-3.03065 -0.0167,-3.017422 -0.46558,-4.83696 -1.72681,-7 -0.71264,-1.222174 -2.3946,-2.879041 -3.51141,-3.459015 -4.52661,-2.350718 -10.04271,-0.634093 -13.66625,4.25297 -1.36744,1.844268 -2.76486,5.005915 -3.32461,7.521882 -0.11495,0.51667 -0.24841,0.994472 -0.29657,1.061782 -0.11777,0.164575 -6.722817,0.04195 -6.874153,-0.127619 -0.06136,-0.06875 -0.240517,-0.659375 -0.39813,-1.3125 -1.512454,-6.267345 -5.379699,-10.862342 -10.217318,-12.140048 -1.2607,-0.332975 -3.361912,-0.362684 -4.585416,-0.06483 -3.38103,0.823081 -5.9308,3.622437 -6.948221,7.628354 -0.343344,1.351855 -0.531765,3.522911 -0.430975,4.96586 l 0.08395,1.201834 -0.608653,-0.04784 C 73.11975,81.060366 65.477195,80.641505 56.471053,80.155875 47.464911,79.670245 40.076849,79.253511 40.053137,79.2298 c -0.0297,-0.0297 15.475942,-17.453725 17.091745,-19.206357 0.04179,-0.04532 1.032225,0.107321 2.200975,0.339214 27.947098,5.545008 57.753803,5.363699 86.187503,-0.524264 1.54687,-0.320322 2.84205,-0.627184 2.87817,-0.681915 0.0583,-0.08833 16.1357,16.383764 16.21706,16.615171 0.0388,0.110417 -0.46645,0.222106 -7.18872,1.58905 -9.41584,1.914672 -17.69449,3.303221 -27.15651,4.554875 -2.09688,0.277377 -3.97287,0.531831 -4.16888,0.565451 l -0.35638,0.06113 z"
       id="path2470"
       inkscape:connector-curvature="0"
       transform="matrix(0.26458333,0,0,0.26458333,0,243.81873)" />
    <path
       style="opacity:1;fill:#00aad4;fill-opacity:1;fill-rule:nonzero;stroke:#000000;stroke-width:0.125"
       d="m 116.22777,97.94929 c 1.37219,-1.105495 3.24463,-2.988416 4.32906,-4.353298 2.10482,-2.649163 3.9573,-6.224166 4.6744,-9.020896 0.21661,-0.844796 0.25773,-0.909964 0.61094,-0.96828 0.20828,-0.03439 1.72869,-0.234135 3.37869,-0.44388 10.43569,-1.326567 21.80692,-3.273243 32.54262,-5.571073 2.08595,-0.446468 3.83684,-0.794716 3.89088,-0.773885 0.11265,0.04343 15.99652,16.399518 15.96077,16.435272 -0.0129,0.01293 -0.66519,-0.230666 -1.44947,-0.54132 -3.02738,-1.199149 -6.32628,-1.794735 -9.92502,-1.791871 -2.28143,0.0018 -2.70728,0.05238 -2.70728,0.32145 0,0.09295 -0.0741,0.140556 -0.16471,0.105795 -0.10566,-0.04054 -0.64354,0.655425 -1.50042,1.941422 -0.73465,1.102545 -1.37772,2.005076 -1.42905,2.005625 -0.0513,5e-4 -0.76832,0.08535 -1.59332,0.18845 -4.30258,0.537683 -13.74619,1.468704 -19.5625,1.928616 -8.72675,0.690049 -15.1462,1.048692 -26.05559,1.455675 l -2.24308,0.08368 z"
       id="path2472"
       inkscape:connector-curvature="0"
       transform="matrix(0.26458333,0,0,0.26458333,0,243.81873)" />
    <path
       style="opacity:1;fill:#00aad4;fill-opacity:1;fill-rule:nonzero;stroke:#000000;stroke-width:0.125"
       d="m 99.502018,96.574602 c -1.028394,-2.258421 -1.511724,-4.459755 -2.221935,-10.119838 -0.27386,-2.182552 -0.532435,-4.077 -0.574611,-4.209884 -0.07397,-0.233073 -0.01987,-0.238709 1.531851,-0.159574 0.884693,0.04512 2.388067,0.08226 3.340837,0.08254 l 1.7323,5.07e-4 -0.0682,0.28125 c -0.0375,0.154688 -0.18585,1.265625 -0.3297,2.46875 -0.70441,5.891321 -1.11456,8.135624 -1.88462,10.3125 -0.36813,1.040635 -0.94113,2.3125 -1.041844,2.3125 -0.02365,0 -0.241507,-0.435937 -0.484128,-0.96875 z"
       id="path2474"
       inkscape:connector-curvature="0"
       transform="matrix(0.26458333,0,0,0.26458333,0,243.81873)" />
    <path
       style="opacity:1;fill:#00aad4;fill-opacity:1;fill-rule:nonzero;stroke:#000000;stroke-width:0.125"
       d="m 82.720857,98.835521 c -0.48125,-0.01863 -2.50625,-0.09415 -4.5,-0.167826 -10.437003,-0.385693 -22.590439,-1.204969 -33.4375,-2.25406 -3.568509,-0.345134 -8.497025,-0.858841 -8.893173,-0.92695 -0.260394,-0.04477 -0.346734,0.0017 -0.406247,0.218657 -0.06092,0.222088 -0.09797,0.240712 -0.19105,0.09605 -0.0957,-0.148725 -0.149222,-0.151455 -0.312504,-0.01594 -0.168344,0.139713 -0.197026,0.126646 -0.197026,-0.08976 0,-0.232966 -0.10765,-0.260614 -1.342458,-0.344779 -2.224309,-0.151608 -5.232552,0.119253 -7.5945,0.683805 -0.549702,0.13139 -1.013848,0.224502 -1.031437,0.206913 -0.02557,-0.02558 11.868881,-13.374233 13.735518,-15.414806 l 0.483939,-0.529033 3.218219,0.183 c 1.77002,0.10065 5.805719,0.323992 8.968219,0.496316 3.1625,0.172324 9.40625,0.513455 13.875,0.758069 4.46875,0.244613 8.35,0.428993 8.625,0.409733 0.449901,-0.03151 0.50394,-0.0039 0.539323,0.275465 0.09079,0.716808 0.680664,2.846066 1.100692,3.973127 1.616992,4.338888 4.723378,8.619324 8.359985,11.519618 0.55,0.438641 1.053437,0.844263 1.11875,0.901383 0.06531,0.05712 -0.187813,0.09284 -0.5625,0.07937 -0.374688,-0.01347 -1.075,-0.03972 -1.55625,-0.05835 z"
       id="path2476"
       inkscape:connector-curvature="0"
       transform="matrix(0.26458333,0,0,0.26458333,0,243.81873)" />
    <ellipse
       style="opacity:1;fill:#1a1a1a;fill-opacity:1;fill-rule:nonzero;stroke:#000000;stroke-width:0.26458332"
       id="path2492"
       cx="22.555729"
       cy="263.79477"
       rx="0.92604166"
       ry="0.79374999" />
    <ellipse
       style="opacity:1;fill:#1a1a1a;fill-opacity:1;fill-rule:nonzero;stroke:#000000;stroke-width:0.26458332"
       id="path2496"
       cx="30.427082"
       cy="263.96014"
       rx="0.72760415"
       ry="0.69453126" />
    <path
       style="opacity:1;fill:#ff0000;fill-opacity:1;fill-rule:nonzero;stroke:#000000;stroke-width:0.23116174"
       d="m 21.530335,292.27599 c -0.61927,-0.71848 -1.572444,-1.13642 -2.520458,-1.10514 -0.948013,0.0313 -1.871571,0.51112 -2.442142,1.26885 -0.385826,0.51238 -0.609127,1.13171 -0.736608,1.76031 -0.127481,0.62861 -0.164007,1.27151 -0.2095,1.9113 -0.0023,0.0326 -0.0046,0.0653 -6.01e-4,0.0977 0.004,0.0324 0.01495,0.0647 0.0363,0.0894 0.01699,0.0196 0.04011,0.0337 0.06511,0.0407 0.025,0.007 0.05178,0.007 0.07705,0.001 0.05054,-0.0119 0.09361,-0.0473 0.121859,-0.0908 0.02825,-0.0436 0.04277,-0.0948 0.04972,-0.14627 0.0069,-0.0514 0.0067,-0.10356 0.0076,-0.15547 0.01315,-0.77048 0.281828,-1.5174 0.642639,-2.1983 0.209555,-0.39546 0.462945,-0.78632 0.839001,-1.02898 0.295491,-0.19067 0.648409,-0.2765 0.999039,-0.30351 0.35063,-0.027 0.702809,0.002 1.053835,0.0229 0.531,0.0322 1.084051,0.0529 1.553044,0.30401 0.260854,0.13965 0.481232,0.34375 0.731227,0.50202 0.124997,0.0791 0.258353,0.14711 0.400961,0.18648 0.142608,0.0394 0.295245,0.0492 0.438707,0.0131 0.166507,-0.0419 0.313368,-0.14381 0.431949,-0.268 0.118582,-0.12418 0.211301,-0.27046 0.298321,-0.41849 0.08702,-0.14802 0.169456,-0.29929 0.270822,-0.43788 0.101366,-0.13859 0.223451,-0.26537 0.37344,-0.34895 0.213135,-0.11877 0.474092,-0.14173 0.709629,-0.0781 0.235538,0.0637 0.445074,0.21036 0.599295,0.39943 0.15422,0.18908 0.254597,0.41898 0.305848,0.65753 0.05125,0.23855 0.05456,0.48579 0.02753,0.72828 -0.0386,0.34618 -0.137955,0.68251 -0.19827,1.02557 -0.06031,0.34306 -0.07992,0.7045 0.03761,1.0324 0.0528,0.14731 0.133288,0.28572 0.242566,0.39772 0.109278,0.11201 0.24799,0.19686 0.400073,0.23371 0.08618,0.0209 0.176804,0.0263 0.263776,0.009 0.08697,-0.0173 0.170129,-0.0579 0.232629,-0.12083 0.0625,-0.0629 0.10318,-0.1486 0.105936,-0.23722 0.0028,-0.0886 -0.03424,-0.17901 -0.102509,-0.2356 -0.05408,-0.0448 -0.123969,-0.0669 -0.193685,-0.0754 -0.06972,-0.009 -0.140264,-0.005 -0.210489,-0.003 -0.07023,0.001 -0.141399,2.6e-4 -0.209203,-0.0181 -0.0678,-0.0183 -0.13271,-0.0556 -0.172072,-0.11375 -0.02745,-0.0406 -0.04122,-0.0895 -0.0431,-0.13848 -0.0019,-0.0489 0.0078,-0.0979 0.02415,-0.14404 0.03275,-0.0923 0.09129,-0.17274 0.143908,-0.25536 0.296064,-0.46486 0.415753,-1.03669 0.343947,-1.58312 -0.07181,-0.54644 -0.332252,-1.06425 -0.718821,-1.45707 -0.226701,-0.23037 -0.497315,-0.41975 -0.798004,-0.53828 -0.300689,-0.11853 -0.631808,-0.16473 -0.951401,-0.11653 -0.459093,0.0693 -0.884312,0.33907 -1.142469,0.72497"
       id="path2498"
       inkscape:connector-curvature="0"
       inkscape:path-effect="#path-effect2500"
       inkscape:original-d="m 21.530335,292.27599 c -1.653999,0.0543 -3.308198,0.10887 -4.9626,0.16371 -1.654403,0.0548 -0.630537,2.44747 -0.946108,3.67161 -0.315571,1.22413 0.02401,0.12446 0.0357,0.18709 0.01169,0.0626 0.214415,-0.23413 0.321319,-0.35079 0.106905,-0.11667 0.428629,-1.4658 0.642639,-2.1983 0.214011,-0.7325 0.559535,-0.68625 0.839001,-1.02898 0.279464,-0.34274 1.368785,-0.18736 2.052874,-0.28063 0.684089,-0.0933 1.035564,0.20241 1.553044,0.30401 0.517479,0.10161 1.047466,0.46746 1.570895,0.70158 0.523429,0.23413 0.916557,-0.98248 1.374532,-1.47332 0.457977,-0.49084 1.095069,1.13786 1.642301,1.70719 0.54723,0.56932 -0.106905,1.37172 -0.160661,2.05797 -0.05376,0.68626 0.428628,0.42069 0.642639,0.63143 0.214011,0.21073 0.333423,-0.39004 0.499832,-0.58466 0.166405,-0.19462 -0.523431,-0.14058 -0.785449,-0.21047 -0.262017,-0.0699 0.08351,-0.35885 0.124958,-0.53788 0.04145,-0.17903 -0.249713,-2.02706 -0.374874,-3.04019 -0.125159,-1.01313 -1.166067,-0.43681 -1.749405,-0.65481 -0.583336,-0.21801 -0.761444,0.48305 -1.142469,0.72497" />
    <path
       style="opacity:1;fill:#ff0000;fill-opacity:1;fill-rule:nonzero;stroke:#000000;stroke-width:0.22374512"
       d="m 31.981734,292.24304 c 0.577247,-0.67906 1.473541,-1.07453 2.364248,-1.04317 0.890707,0.0314 1.756965,0.4889 2.285019,1.20688 0.378199,0.51423 0.581182,1.13867 0.692486,1.76722 0.111303,0.62855 0.136563,1.26863 0.193886,1.90438 0.0029,0.0325 0.0059,0.0652 0.0024,0.0977 -0.0036,0.0324 -0.01429,0.0649 -0.03581,0.0894 -0.01676,0.0191 -0.03958,0.0326 -0.06415,0.039 -0.02457,0.006 -0.05079,0.006 -0.07537,-4.5e-4 -0.04916,-0.0128 -0.09031,-0.0487 -0.116479,-0.0923 -0.02616,-0.0436 -0.03848,-0.0942 -0.04336,-0.14479 -0.0049,-0.0506 -0.0026,-0.1015 -0.0017,-0.15229 0.01455,-0.76714 -0.260265,-1.51137 -0.602064,-2.19831 -0.19449,-0.39088 -0.424439,-0.78429 -0.786027,-1.02897 -0.273577,-0.18513 -0.604339,-0.27089 -0.933453,-0.29917 -0.329114,-0.0283 -0.660134,-0.002 -0.989804,0.0185 -0.499088,0.0315 -1.020108,0.0571 -1.454988,0.30401 -0.24433,0.13872 -0.446876,0.34 -0.679669,0.49732 -0.116396,0.0787 -0.241332,0.14665 -0.375962,0.18678 -0.13463,0.0401 -0.27976,0.0514 -0.416079,0.0175 -0.162264,-0.0404 -0.304085,-0.14279 -0.41569,-0.26731 -0.111604,-0.12453 -0.195706,-0.27094 -0.273785,-0.41881 -0.07808,-0.14787 -0.151292,-0.2989 -0.244602,-0.43766 -0.09331,-0.13876 -0.208682,-0.26623 -0.35367,-0.34954 -0.206324,-0.11855 -0.462977,-0.13788 -0.690858,-0.0694 -0.227881,0.0685 -0.426554,0.22044 -0.568487,0.41143 -0.141932,0.191 -0.229005,0.41946 -0.270051,0.65385 -0.04105,0.23439 -0.03733,0.47498 -0.0092,0.71127 0.04108,0.34526 0.133537,0.68233 0.188499,1.02566 0.05496,0.34333 0.07105,0.70216 -0.03798,1.03232 -0.04761,0.14417 -0.119381,0.28171 -0.220873,0.39463 -0.101493,0.11292 -0.233802,0.20035 -0.38119,0.2368 -0.08431,0.0209 -0.173427,0.0248 -0.258142,0.006 -0.08471,-0.0191 -0.16478,-0.062 -0.223458,-0.12606 -0.05868,-0.064 -0.09485,-0.14956 -0.09422,-0.2364 6.3e-4,-0.0868 0.03959,-0.17382 0.107549,-0.2279 0.05153,-0.041 0.116568,-0.0619 0.181753,-0.0713 0.06518,-0.009 0.131356,-0.008 0.197203,-0.009 0.06585,-9e-4 0.132416,-0.004 0.195605,-0.0228 0.06319,-0.0185 0.123402,-0.0537 0.161295,-0.10751 0.02811,-0.04 0.0427,-0.0886 0.04536,-0.13739 0.0027,-0.0488 -0.0062,-0.0978 -0.02193,-0.14403 -0.03138,-0.0925 -0.08883,-0.17351 -0.140499,-0.25646 -0.290131,-0.46578 -0.40968,-1.03328 -0.34304,-1.57797 0.06664,-0.54469 0.317153,-1.06356 0.694245,-1.46222 0.210139,-0.22216 0.460438,-0.40897 0.741829,-0.52868 0.281391,-0.11972 0.594569,-0.17058 0.89712,-0.12613 0.441042,0.0648 0.846535,0.33944 1.070335,0.72497"
       id="path2498-9"
       inkscape:connector-curvature="0"
       inkscape:path-effect="#path-effect2500-4"
       inkscape:original-d="m 31.981734,292.24304 c 1.549567,0.0543 3.099323,0.10887 4.649267,0.16371 1.549945,0.0548 0.590725,2.44746 0.886372,3.6716 0.295646,1.22414 -0.02249,0.12446 -0.03345,0.18709 -0.01096,0.0626 -0.200878,-0.23413 -0.301032,-0.35078 -0.100155,-0.11668 -0.401566,-1.46581 -0.602064,-2.19831 -0.200498,-0.73249 -0.524207,-0.68624 -0.786027,-1.02897 -0.261819,-0.34274 -1.28236,-0.18736 -1.923257,-0.28063 -0.640897,-0.0933 -0.970182,0.20241 -1.454988,0.30401 -0.484805,0.10161 -0.981329,0.46746 -1.47171,0.70158 -0.490381,0.23413 -0.858687,-0.98248 -1.287747,-1.47332 -0.42906,-0.49084 -1.025927,1.13786 -1.538607,1.70718 -0.512678,0.56933 0.100155,1.37173 0.150517,2.05798 0.05036,0.68625 -0.401564,0.42068 -0.602063,0.63143 -0.200499,0.21073 -0.312372,-0.39004 -0.468273,-0.58467 -0.1559,-0.19461 0.490383,-0.14058 0.735856,-0.21046 0.245474,-0.0699 -0.07823,-0.35885 -0.117068,-0.53788 -0.03883,-0.17903 0.233947,-2.02706 0.351205,-3.04019 0.117257,-1.01314 1.092443,-0.43681 1.638949,-0.65481 0.546506,-0.21801 0.713368,0.48305 1.070335,0.72497" />
    <path
       style="opacity:1;fill:#ff0000;fill-opacity:1;fill-rule:nonzero;stroke:#000000;stroke-width:0.0625"
       d="m 119.66041,182.77511 c -0.56719,-0.11203 -1.44695,-0.28232 -1.95502,-0.37844 -0.9103,-0.17221 -0.92144,-0.17629 -0.76371,-0.27975 l 0.16006,-0.105 -0.25328,-0.3793 c -0.1393,-0.2086 -0.42126,-0.55365 -0.62658,-0.76676 l -0.37331,-0.38748 -0.52801,-2.1026 c -2.25482,-8.97886 -3.69055,-18.2697 -4.25097,-27.50885 -0.33514,-5.52502 -0.36957,-11.79056 -0.0936,-17.03125 0.58537,-11.11612 2.38289,-22.15695 5.32176,-32.6875 l 0.33141,-1.187502 1.0625,-0.03944 c 0.58437,-0.02169 1.65616,-0.05946 2.38175,-0.08393 l 1.31925,-0.04448 0.31858,1.146432 c 4.42465,15.92233 6.2066,32.5161 5.26089,48.99018 -0.57567,10.02816 -2.18254,20.24365 -4.66485,29.65625 -0.22664,0.85937 -0.42621,1.61875 -0.44348,1.6875 -0.0173,0.0687 -0.33026,0.42845 -0.69553,0.79935 l -0.66411,0.67434 0.15625,0.12114 c 0.19138,0.14837 0.24854,0.15369 -1,-0.0929 z"
       id="path2524"
       inkscape:connector-curvature="0"
       transform="matrix(0.26458333,0,0,0.26458333,0,243.81873)" />
    <path
       style="opacity:1;fill:#ff0000;fill-opacity:1;fill-rule:nonzero;stroke:#000000;stroke-width:0.0625"
       d="m 81.59791,182.99713 c 0,-0.0315 0.0347,-0.0688 0.07711,-0.083 0.05168,-0.0172 0.0243,-0.0884 -0.08301,-0.21599 -0.120864,-0.14363 -0.254232,-0.5408 -0.544048,-1.62013 -2.977656,-11.0894 -4.564878,-21.3255 -5.14006,-33.14859 -0.108218,-2.22447 -0.146548,-8.48772 -0.06693,-10.9375 0.365347,-11.2421 1.794508,-21.54406 4.473951,-32.25 0.414626,-1.65667 1.261235,-4.811577 1.302153,-4.852494 0.01321,-0.01321 2.196458,0.04537 4.414238,0.118434 l 0.464647,0.0153 0.241071,0.875 c 5.564001,20.19521 6.897215,41.0235 3.950603,61.71875 -0.734193,5.15653 -1.763277,10.40759 -3.007014,15.34375 -0.294484,1.16875 -0.548927,2.18611 -0.565429,2.2608 -0.0165,0.0747 -0.242002,0.32629 -0.501111,0.55912 -0.486311,0.43697 -1.141164,1.18456 -1.141164,1.30277 0,0.0369 0.07031,0.10976 0.156233,0.1619 0.147379,0.0894 0.04201,0.11511 -1.859375,0.45321 -2.157119,0.38359 -2.171858,0.38561 -2.171858,0.29865 z"
       id="path2526"
       inkscape:connector-curvature="0"
       transform="matrix(0.26458333,0,0,0.26458333,0,243.81873)" />
    <path
       style="opacity:1;fill:#ff0000;fill-opacity:1;fill-rule:nonzero;stroke:#000000;stroke-width:0.26458332"
       d="m 19.876823,292.46899 c -0.227557,0.56289 -0.388873,1.15252 -0.479558,1.75286 -0.118053,0.78151 -0.107323,1.6177 0.264584,2.31511 0.04019,0.0754 0.08646,0.15092 0.156625,0.19962 0.03508,0.0243 0.07583,0.0413 0.118344,0.0453 0.04252,0.004 0.08679,-0.006 0.121906,-0.0299 0.02573,-0.0178 0.04598,-0.043 0.05983,-0.071 0.01386,-0.0281 0.02149,-0.0589 0.0245,-0.0901 0.006,-0.0623 -0.0061,-0.12475 -0.01818,-0.18615 -0.115183,-0.58431 -0.236445,-1.17423 -0.214974,-1.7694 0.0262,-0.72631 0.271038,-1.44334 0.694531,-2.03399"
       id="path2528"
       inkscape:connector-curvature="0"
       inkscape:path-effect="#path-effect2530"
       inkscape:original-d="m 19.876823,292.46899 c -0.159588,0.58402 -0.319441,1.16831 -0.479558,1.75286 -0.160117,0.58456 0.176654,1.54314 0.264584,2.31511 0.08793,0.77197 0.264848,0.14305 0.396875,0.21497 0.132027,0.0719 0.04436,-0.23177 0.06615,-0.34726 0.02178,-0.11549 -0.143052,-1.17987 -0.214974,-1.7694 -0.07192,-0.58954 0.463285,-1.35626 0.694531,-2.03399" />
    <path
       style="opacity:1;fill:#ff0000;fill-opacity:1;fill-rule:nonzero;stroke:#000000;stroke-width:0.26458332"
       d="m 34.176296,292.32127 c 0.227557,0.56289 0.388873,1.15252 0.479558,1.75286 0.118053,0.78151 0.107323,1.6177 -0.264584,2.31511 -0.04019,0.0754 -0.08646,0.15092 -0.156625,0.19962 -0.03508,0.0243 -0.07583,0.0413 -0.118344,0.0453 -0.04252,0.004 -0.08679,-0.006 -0.121906,-0.0299 -0.02573,-0.0178 -0.04598,-0.043 -0.05983,-0.071 -0.01386,-0.0281 -0.02148,-0.0589 -0.0245,-0.0901 -0.006,-0.0623 0.0061,-0.12475 0.01818,-0.18615 0.115183,-0.58431 0.236445,-1.17423 0.214974,-1.7694 -0.0262,-0.72631 -0.271038,-1.44334 -0.694531,-2.03399"
       id="path2528-1"
       inkscape:connector-curvature="0"
       inkscape:path-effect="#path-effect2530-6"
       inkscape:original-d="m 34.176296,292.32127 c 0.159588,0.58402 0.319441,1.16831 0.479558,1.75286 0.160117,0.58456 -0.176654,1.54314 -0.264584,2.31511 -0.08793,0.77197 -0.264848,0.14305 -0.396875,0.21497 -0.132027,0.0719 -0.04436,-0.23177 -0.06615,-0.34726 -0.02178,-0.11549 0.143052,-1.17987 0.214974,-1.7694 0.07192,-0.58954 -0.463285,-1.35626 -0.694531,-2.03399" />
  </g>
</svg>
